<svg xmlns="http://www.w3.org/2000/svg" xmlns:xlink="http://www.w3.org/1999/xlink" viewBox="0 0 733.46 568.34">
  <defs>
    <style>
      .cls-1, .cls-18, .cls-19 {
        fill: none;
      }

      .cls-2 {
        fill: #fced68;
      }

      .cls-3 {
        fill: #caac8b;
      }

      .cls-4 {
        fill: #a7a9ac;
      }

      .cls-5 {
        fill: #a6743e;
      }

      .cls-6 {
        fill: #997458;
      }

      .cls-7 {
        fill: #84644a;
      }

      .cls-8 {
        fill: #b89065;
      }

      .cls-9 {
        fill: #443a38;
      }

      .cls-10 {
        fill: #666;
      }

      .cls-11 {
        fill: gray;
      }

      .cls-12 {
        fill: #645551;
      }

      .cls-13 {
        fill: #936538;
      }

      .cls-14 {
        fill: #50fc00;
      }

      .cls-15 {
        fill: #fbfc01;
      }

      .cls-16 {
        fill: #009ad8;
      }

      .cls-17 {
        fill: #352d2c;
      }

      .cls-18, .cls-19 {
        stroke: #fff;
      }

      .cls-18, .cls-19, .cls-24 {
        stroke-miterlimit: 10;
      }

      .cls-18 {
        stroke-width: 10px;
      }

      .cls-19 {
        stroke-width: 8px;
      }

      .cls-20 {
        clip-path: url(#clip-path);
      }

      .cls-21 {
        fill: #fff;
      }

      .cls-22 {
        fill: #333;
      }

      .cls-23 {
        opacity: 0.8;
      }

      .cls-24 {
        fill: #f4987a;
        stroke: #485967;
        stroke-width: 4px;
      }

      .cls-25 {
        fill: #4d4d4d;
      }

      .cls-26 {
        fill: url(#linear-gradient);
      }

      .cls-27 {
        fill: url(#linear-gradient-2);
      }

      .cls-28 {
        fill: url(#linear-gradient-3);
      }

      .cls-29 {
        fill: url(#linear-gradient-4);
      }

      .cls-30 {
        fill: url(#linear-gradient-5);
      }

      .cls-31 {
        fill: url(#linear-gradient-6);
      }

      .cls-32 {
        fill: #f9f7a7;
      }

      .cls-33 {
        fill: #ba5692;
      }

      .cls-34 {
        fill: #ff7f1c;
      }
    </style>
    <clipPath id="clip-path">
      <polygon class="cls-1" points="208.33 375.89 87.47 375.51 83.98 279.42 208.33 278.11 208.33 375.89"/>
    </clipPath>
    <linearGradient id="linear-gradient" x1="494.2" y1="181.74" x2="494.2" y2="368.1" gradientUnits="userSpaceOnUse">
      <stop offset="0.29" stop-color="#ff73c0"/>
      <stop offset="0.6" stop-color="#ff75c1"/>
      <stop offset="1" stop-color="#ffa9dc"/>
    </linearGradient>
    <linearGradient id="linear-gradient-2" x1="510.85" y1="266.64" x2="530.85" y2="266.64" gradientUnits="userSpaceOnUse">
      <stop offset="0.01" stop-color="#fbfc01"/>
      <stop offset="1" stop-color="#7ac943"/>
    </linearGradient>
    <linearGradient id="linear-gradient-3" x1="515.51" y1="280.14" x2="535.51" y2="280.14" xlink:href="#linear-gradient-2"/>
    <linearGradient id="linear-gradient-4" x1="805.79" y1="-21.18" x2="825.79" y2="-21.18" gradientTransform="translate(562.69 1095.94) rotate(-90)" xlink:href="#linear-gradient-2"/>
    <linearGradient id="linear-gradient-5" x1="993.39" y1="44.71" x2="1013.39" y2="44.71" gradientTransform="translate(502.48 1272.53) rotate(-90)" xlink:href="#linear-gradient-2"/>
    <linearGradient id="linear-gradient-6" x1="524.01" y1="258.21" x2="544.01" y2="258.21" xlink:href="#linear-gradient-2"/>
  </defs>
  <title>suitcase_playful_open</title>
  <g id="Layer_2" data-name="Layer 2">
    <g id="suitcase_playful">
      <g>
        <rect class="cls-2" width="733.46" height="568.34"/>
        <g>
          <path class="cls-3" d="M680.46,376.77l-53.9-54.46,31.24-207v-.21l.5-3.16A33.62,33.62,0,0,0,624.9,73.37H109.67A33.69,33.69,0,0,0,76.33,112.5l.47,2.8,0,0v.06l33.93,207L54,376.77c-.49,0-1,0-1,.46V478.66c0,21.68,17.67,39.71,39.35,39.71H642c21.68,0,39-18,39-39.71V377.23C681,376.73,681,376.77,680.46,376.77ZM549.48,62l-.32.09ZM176.41,62l-.32.09Z"/>
          <g>
            <path class="cls-3" d="M155,376.37v142H116V497c0-16.55-14.36-29.67-30.91-29.67H53V377.23a.8.8,0,0,1,.77-.85Z"/>
            <path class="cls-4" d="M115.3,490.23v28.14H79.9a27.31,27.31,0,0,1-27.23-27.23v-23.6H92.61A22.76,22.76,0,0,1,115.3,490.23Z"/>
            <path class="cls-3" d="M205,376.37v142H529v-142ZM436.2,459.66c-.06.23-.13.44-.21.66s-.11.33-.16.49-.15.37-.23.55a2.22,2.22,0,0,1-.09.22c-.08.19-.16.37-.25.55s-.07.16-.12.25-.16.34-.26.52l-.15.27c0,.09-.1.17-.15.25s-.26.44-.41.66-.16.26-.25.39-.17.26-.27.39l-.21.28c-.2.26-.41.53-.63.78a13,13,0,0,1-.89,1q-.37.38-.76.74c-.23.21-.45.41-.7.6l-.23.18c-.2.15-.41.32-.63.46a11.48,11.48,0,0,1-1,.65,10.3,10.3,0,0,1-2.15,1.41c-.05,0,.55,0,.55.05h0l-.8,0c-.22.08-.79.15-1,.23s-.75.18-1,.25h-.1c-.27.08-.59.15-.88.2l-.3.05-.29.05-.11,0h-.18l-.22,0c-.22,0-.44.21-.65.23a16.11,16.11,0,0,1-1.76.24H314.38a17.5,17.5,0,0,1,0-35H419.68c.6,0,1.19.13,1.77.19.29,0,.58.11.86.15a17.47,17.47,0,0,1,4.08,1.09c.25.1.52.22.76.34l.56.27.1.06.63.34.22.13a12.68,12.68,0,0,1,1.19.77c.14.09.26.19.39.29a2.12,2.12,0,0,1,.28.22,1.41,1.41,0,0,1,.18.15,14.28,14.28,0,0,1,1.17,1.05,17.37,17.37,0,0,1,3.69,5.54c.09.22.18.44.26.67s.15.44.23.68.15.45.21.69a15.88,15.88,0,0,1,.45,2.1c0,.07.09.15.1.21a10.17,10.17,0,0,1,.21,1.48v.06c0,.25-.11.51-.11.76s.1.59.09.89c0,.07,0,.15,0,.24v.07a6.85,6.85,0,0,1-.15.84,3.87,3.87,0,0,1-.08.44,4.34,4.34,0,0,1-.11.52c0,.07,0,.14-.05.21a2.09,2.09,0,0,1-.09.4c0,.21-.09.43-.13.64S436.28,459.39,436.2,459.66Z"/>
            <path class="cls-5" d="M155,376.37v142h50v-142Zm25,94.35a18.06,18.06,0,0,1-18-18.15V444.4a18.5,18.5,0,0,1-.12-1.85,18.19,18.19,0,0,1,5.22-11,17.9,17.9,0,0,1,5.77-3.89,18.5,18.5,0,0,1,5.35-1.34l.8-.05.81,0,.93,0,.78.05a17.8,17.8,0,0,1,15.13,11.51,18.4,18.4,0,0,1,.83,2.9c.12.59.27,1.19.34,1.81a17.75,17.75,0,0,1,.16,1.85v8.17a17.87,17.87,0,0,1-5,12.83A18.26,18.26,0,0,1,180.07,470.72Z"/>
            <path class="cls-1" d="M178.22,426.32a18.68,18.68,0,0,0-5.37,1.34A17.38,17.38,0,0,1,178.22,426.32Z"/>
            <path class="cls-1" d="M422.31,471.87a15.3,15.3,0,0,0,1.68-.34l-.84.2-.28.05-.39.07h-.09l-.3,0-.65.08C421.73,472,422,471.92,422.31,471.87Z"/>
            <path class="cls-1" d="M431.88,442.53a17,17,0,0,0-10.43-4.87c.29,0,.57.05.86.1a17.43,17.43,0,0,1,4.08,1.06l.76.33.56.26.1.05.63.34.22.13a12.67,12.67,0,0,1,1.19.77c.14.09.26.19.39.29a2.12,2.12,0,0,1,.28.22,1.41,1.41,0,0,1,.18.15,14.28,14.28,0,0,1,1.17,1.05,17.37,17.37,0,0,1,3.69,5.54A17.36,17.36,0,0,0,431.88,442.53Z"/>
            <path class="cls-1" d="M437,454.61v.12c0,.25-.06.52-.07.77,0,.41-.09.82-.14,1.22a15.5,15.5,0,0,1-.39,2.14,11.9,11.9,0,0,1-.43,1.47l-.17.49c-.07.19-.15.37-.23.55a2.23,2.23,0,0,1-.09.22c-.08.19-.16.37-.25.55s-.07.16-.12.25-.16.34-.26.52l-.15.27c0,.09-.1.17-.15.25l-.41.66c-.08.13-.16.26-.25.39s-.17.26-.27.39l-.21.28c-.2.26-.41.53-.63.78a13,13,0,0,1-.89,1q-.37.38-.76.74c-.23.21-.46.41-.7.6l-.23.18c-.21.16-.41.32-.63.46a11.48,11.48,0,0,1-1,.65,17.28,17.28,0,0,1-4.62,2,17.55,17.55,0,0,0,12.54-13.31,2.05,2.05,0,0,0,.07-.4l0-.21a4.52,4.52,0,0,0,.05-.52c0-.15.18-.29.18-.44a6.85,6.85,0,0,0,.15-.84v-.07c0-.08,0-.16,0-.24,0-.3,0-.59,0-.89s0-.51,0-.76C437,454.1,437,454.35,437,454.61Z"/>
            <path class="cls-3" d="M681,377.23v90.15h-31.1A29.66,29.66,0,0,0,620,497v21.33H578v-142H680.34C680.84,376.37,681,376.73,681,377.23Z"/>
            <path class="cls-5" d="M529,376.37v142h49v-142Zm24.08,94.35A18.08,18.08,0,0,1,535,452.56V444.4a14.64,14.64,0,0,1,5.15-12.83,17.93,17.93,0,0,1,5.78-3.89,18.53,18.53,0,0,1,5.35-1.34l.81-.05.81,0,.93,0,.78.05a17.8,17.8,0,0,1,15.13,11.51,18.4,18.4,0,0,1,.83,2.9c.12.59.24,1.19.31,1.81a17.76,17.76,0,0,1,.12,1.85v8.17a17.86,17.86,0,0,1-5,12.83A18.22,18.22,0,0,1,553.11,470.72Z"/>
            <path class="cls-1" d="M551.28,426.32a18.68,18.68,0,0,0-5.37,1.34A17.38,17.38,0,0,1,551.28,426.32Z"/>
            <path class="cls-4" d="M680.79,467.54v23.6a27.31,27.31,0,0,1-27.23,27.23H620V490.23a22.69,22.69,0,0,1,22.69-22.69Z"/>
            <polygon class="cls-6" points="111.21 376.37 53.8 376.37 110.76 321.91 111.21 376.37"/>
            <polygon class="cls-6" points="626.03 376.37 626.03 376.32 626.15 322.37 626.5 322.37 680.34 376.37 626.03 376.37"/>
            <polygon class="cls-7" points="626.03 376.32 626.03 376.37 111.21 376.37 110.76 322.37 626.15 322.37 626.03 376.32"/>
            <polygon class="cls-5" points="578.03 73.37 578.03 115.37 529.03 115.37 529.03 73.37 534.17 73.37 535.11 89.37 570.51 89.37 571.45 73.37 578.03 73.37"/>
            <polygon class="cls-5" points="205.03 73.37 205.03 115.37 155.03 115.37 155.03 73.37 161.11 73.37 162.05 89.37 197.45 89.37 198.38 73.37 205.03 73.37"/>
            <polygon class="cls-6" points="625.52 322.37 111.72 322.37 149.22 304.7 587.84 304.81 625.52 322.37"/>
            <path class="cls-3" d="M155,73.37v42H76.83v-.05l0,0-.47-2.86a33.7,33.7,0,0,1,33.34-39.13Z"/>
            <path class="cls-3" d="M658.3,112l-.51,3.12,0,.27H578v-42H624.9A33.61,33.61,0,0,1,658.3,112Z"/>
            <rect class="cls-3" x="205.03" y="73.37" width="324" height="42"/>
            <polygon class="cls-8" points="657.77 115.37 626.5 322.37 625.52 322.37 587.84 304.8 619.57 115.37 657.77 115.37"/>
            <polygon class="cls-8" points="149.22 304.7 111.72 322.37 110.76 322.37 76.83 115.37 114.5 115.37 149.22 304.7"/>
            <polygon class="cls-7" points="619.57 115.37 587.84 304.77 149.22 304.68 114.5 115.37 619.57 115.37"/>
            <polyline class="cls-1" points="626.15 322.31 626.15 321.86 625.3 321.4"/>
            <line class="cls-1" x1="111.72" y1="321.4" x2="110.76" y2="321.86"/>
            <polyline class="cls-1" points="657.77 115.36 657.79 115.36 658.1 115.36"/>
            <polyline class="cls-1" points="76.27 115.36 76.8 115.36 76.83 115.36"/>
            <path class="cls-9" d="M441,457.41v.06c0,.25-.29.51-.29.76s.19.59.18.89c0,.07.11.15.11.24v.07c0,.28-.3.56-.33.84s-.15.29-.18.44a4.3,4.3,0,0,1-.15.52c0,.07-.07.14-.08.21a2.13,2.13,0,0,1-.1.4,17.56,17.56,0,0,1-12.55,13.31h0a15.35,15.35,0,0,1-1.68.34c-.29,0-.58.42-.87.45a16.6,16.6,0,0,1-1.76.42H318a17.5,17.5,0,0,1,0-35H423.31c.6,0,1.19,0,1.77,0a16.91,16.91,0,0,1,10.43,4.83,17.28,17.28,0,0,1,3.69,5.4c.09.22.18.44.26.66s.15.44.23.68.15.45.21.69a16.64,16.64,0,0,1,.7,2.1A12.08,12.08,0,0,1,441,457.41Z"/>
            <path class="cls-1" d="M437,454.61v.12c0,.25-.06.52-.07.77a16.46,16.46,0,0,1-.32,2.32c0-.07,0-.14,0-.21a4.55,4.55,0,0,0,0-.52c0-.15.17-.29.18-.44a6.83,6.83,0,0,0,.15-.84v-.07c0-.08,0-.16,0-.24,0-.3,0-.59,0-.89s0-.51,0-.76C437,454.1,437,454.35,437,454.61Z"/>
            <path class="cls-1" d="M436.72,452.09a15.88,15.88,0,0,0-.45-2.1c-.06-.24-.13-.46-.21-.69s-.15-.46-.23-.68a16,16,0,0,1,.93,3.68c.07.49.12,1,.15,1.48C436.87,453.21,436.81,452.65,436.72,452.09Z"/>
            <path class="cls-10" d="M574,445.06v8.65a19,19,0,1,1-38,0v-8.65a14.82,14.82,0,0,1,5.52-13.58,19,19,0,0,1,6-4.12,19.58,19.58,0,0,1,5.66-1.42l.85-.06.86,0,1,0,.82.06a19.05,19.05,0,0,1,16,12.18,19.47,19.47,0,0,1,.88,3.07c.12.62.24,1.26.31,1.91A18.81,18.81,0,0,1,574,445.06Z"/>
            <path class="cls-1" d="M551.28,426.32a18.68,18.68,0,0,0-5.37,1.34A17.38,17.38,0,0,1,551.28,426.32Z"/>
            <path class="cls-1" d="M178.22,426.32a18.68,18.68,0,0,0-5.37,1.34A17.38,17.38,0,0,1,178.22,426.32Z"/>
            <polygon class="cls-1" points="534.17 73.37 535.11 88.92 534.17 73.66 534.16 73.37 534.17 73.37"/>
            <path class="cls-1" d="M559.8,67.44l-.32,5.94H546.14L546,67.8v-.38A5.59,5.59,0,0,1,549.4,62c.29-.1.54-.4.84-.43s.27-.24.44-.24h4.25C557.75,61.37,560,64.32,559.8,67.44Z"/>
            <polygon class="cls-1" points="571.46 73.37 571.45 73.83 570.51 88.86 571.45 73.37 571.46 73.37"/>
            <polygon class="cls-1" points="161.11 73.37 162.05 88.92 161.11 73.66 161.09 73.37 161.11 73.37"/>
            <path class="cls-1" d="M186.74,67.44l-.32,5.94H173.07l0-5.57v-.38A5.57,5.57,0,0,1,176.37,62c.29-.1.52-.4.83-.43s.26-.24.43-.24h4.25C184.68,61.37,186.91,64.32,186.74,67.44Z"/>
            <polygon class="cls-1" points="198.4 73.37 198.38 73.83 197.45 88.86 198.38 73.37 198.4 73.37"/>
            <polygon class="cls-5" points="559.49 73.37 559.48 73.8 559.14 80.37 546.47 80.37 546.14 73.91 546.13 73.37 559.49 73.37"/>
            <path class="cls-1" d="M559.8,67.44l-.31,5.94H546.13l-.1-5.5v-.45A5.7,5.7,0,0,1,549.4,62c.29-.1.54-.4.84-.43s.27-.24.44-.24h4.25C557.75,61.37,560,64.32,559.8,67.44Z"/>
            <polygon class="cls-5" points="186.43 73.37 186.42 73.8 186.08 80.37 173.41 80.37 173.07 73.91 173.07 73.37 186.43 73.37"/>
            <path class="cls-1" d="M186.74,67.44l-.31,5.94H173.07l0-5.5v-.45A5.67,5.67,0,0,1,176.37,62c.29-.1.52-.4.83-.43s.26-.24.43-.24h4.25C184.68,61.37,186.91,64.32,186.74,67.44Z"/>
            <line class="cls-1" x1="680.79" y1="467.54" x2="680.79" y2="467.54"/>
            <line class="cls-1" x1="578.03" y1="376.37" x2="578.03" y2="375.37"/>
            <line class="cls-1" x1="529.03" y1="376.37" x2="529.03" y2="375.37"/>
            <line class="cls-1" x1="205.03" y1="376.37" x2="205.03" y2="375.37"/>
            <line class="cls-1" x1="155.03" y1="376.37" x2="155.03" y2="375.37"/>
            <path class="cls-11" d="M572,443.25v8.65a18.7,18.7,0,0,1-18.85,19.21A19.16,19.16,0,0,1,534,451.9v-8.65a19.21,19.21,0,0,1,0-2,19.62,19.62,0,0,1,5.69-11.62,19.14,19.14,0,0,1,6-4.12,19.66,19.66,0,0,1,5.67-1.42l.86-.06.86,0,1,0,.83.06a19.05,19.05,0,0,1,16,12.18,19.47,19.47,0,0,1,.88,3.07c.12.62.15,1.26.22,1.91A19,19,0,0,1,572,443.25Z"/>
            <path class="cls-10" d="M201,446v8.65a19,19,0,1,1-38,0V446c0-.66-.23-1.32-.16-2a19.54,19.54,0,0,1,5.63-11.62,19,19,0,0,1,6-4.12,19.56,19.56,0,0,1,5.65-1.42l.85-.06.86,0,1,0,.82.06a19,19,0,0,1,16,12.18,19.47,19.47,0,0,1,.88,3.07c.12.62.27,1.26.34,1.91A18.79,18.79,0,0,1,201,446Z"/>
            <path class="cls-11" d="M199,444.16v8.65A18.75,18.75,0,0,1,180.17,472,19.14,19.14,0,0,1,161,452.8v-8.65a19.32,19.32,0,0,1-.07-2,19.6,19.6,0,0,1,5.68-11.62,19.11,19.11,0,0,1,6-4.12,19.63,19.63,0,0,1,5.67-1.42l.85-.06.86,0,1,0,.82.06a19.05,19.05,0,0,1,16,12.18,19.47,19.47,0,0,1,.88,3.07c.12.62.18,1.26.25,1.91A18.9,18.9,0,0,1,199,444.16Z"/>
            <path class="cls-12" d="M437,453.78v.06c0,.25-.11.51-.11.76s.1.59.09.89c0,.07,0,.15,0,.24v.07a6.85,6.85,0,0,1-.15.84,3.87,3.87,0,0,1-.08.44,4.34,4.34,0,0,1-.11.52c0,.07,0,.14-.05.21a2.09,2.09,0,0,1-.09.4A17.56,17.56,0,0,1,424,471.53h0a15.33,15.33,0,0,1-1.68.34c-.29,0-.58.24-.87.26a16.12,16.12,0,0,1-1.76.24H314.38a17.5,17.5,0,0,1,0-35H419.68c.6,0,1.19.13,1.77.19a17,17,0,0,1,10.43,4.92,17.48,17.48,0,0,1,3.69,5.45c.09.22.18.46.26.69s.15.45.23.69.15.46.21.69a16,16,0,0,1,.52,2.1A11.65,11.65,0,0,1,437,453.78Z"/>
            <polygon class="cls-13" points="197.22 88.8 204.25 73.37 194.27 73.37 197.22 88.8"/>
            <polygon class="cls-13" points="173.18 79.73 177.25 73.37 168.85 73.37 173.18 79.73"/>
            <g>
              <polygon class="cls-13" points="535.34 88.8 528.3 73.37 538.29 73.37 535.34 88.8"/>
              <polygon class="cls-13" points="559.37 79.73 555.31 73.37 563.7 73.37 559.37 79.73"/>
            </g>
            <path class="cls-11" d="M185.67,45.37H173.82a13.46,13.46,0,0,0-13.59,14.29l.86,13.71h0l.93,16h35.4l.93-16h0l.86-13.83A13.37,13.37,0,0,0,185.67,45.37Zm.74,28.43-.34,6.57H173.41l-.34-6.46v-.54h0l0-5.57v-.38A5.57,5.57,0,0,1,176.37,62c.29-.1.59-.4.89-.43s.19-.24.36-.24h4.25c2.81,0,5,3,4.87,6.06l-.32,5.94h0Z"/>
            <path class="cls-11" d="M558.74,45.37H546.88a13.46,13.46,0,0,0-13.59,14.29l.86,13.71h0l.93,16h35.4l.93-16h0l.86-13.83A13.37,13.37,0,0,0,558.74,45.37Zm.74,28.43-.34,6.57H546.47l-.34-6.46v-.54h0L546,67.8v-.38A5.59,5.59,0,0,1,549.4,62c.29-.1.6-.4.91-.43s.21-.24.38-.24h4.25c2.81,0,5,3,4.87,6.06l-.32,5.94h0Z"/>
          </g>
        </g>
        <g>
          <polygon class="cls-14" points="531.24 357.42 531.2 357.37 80.52 357.37 96.18 340.37 96.19 340.37 518.35 342.08 531.24 357.42"/>
          <polygon class="cls-15" points="520.46 344.97 94.05 343.39 106.9 329.32 508.56 331.15 520.46 344.97"/>
          <polygon class="cls-16" points="545.91 376.37 63.98 375.32 81.63 356.36 531.2 357.55 545.91 376.37"/>
        </g>
        <line class="cls-1" x1="67.03" y1="364.37" x2="66.03" y2="364.37"/>
        <line class="cls-1" x1="588.03" y1="376.37" x2="588.03" y2="376.37"/>
        <path class="cls-1" d="M378.68,240.6l-.5.28"/>
        <path class="cls-17" d="M503.37,131.58a9.17,9.17,0,1,1-9.18-9.18A9.17,9.17,0,0,1,503.37,131.58Z"/>
        <path class="cls-18" d="M472.06,159.78l-84.73,84.7a9,9,0,0,0,6.38,15.41H587.79a9,9,0,0,0,6.45-15.34L511.46,160A27.72,27.72,0,0,0,472.06,159.78Z"/>
        <path class="cls-19" d="M494.1,149.35l7.62-8.16a11.17,11.17,0,0,0-3.18-17.53c-6-3.18-15.52-.6-18.38,9.21"/>
        <rect class="cls-1" x="462.37" y="135.37" width="70.15" height="24.5"/>
        <polyline class="cls-1" points="480.33 344.39 492.67 325.58 492.71 325.52 492.78 325.41 571.17 205.92"/>
        <polyline class="cls-1" points="541.76 167.96 545.67 166.69 545.91 166.61 545.83 166.83 490.4 315.31"/>
        <path class="cls-1" d="M490.44,312.77l0,2.54v.44a1,1,0,0,1-.2.6,1,1,0,0,1-1.14.33.94.94,0,0,1-.61-.67L446.58,164.37l.19.08"/>
        <g class="cls-20">
          <g>
            <polygon class="cls-21" points="124.88 329.37 120.83 343.01 108.53 384.37 108.15 384.37 105.73 392.61 88.03 390.17 88.03 329.37 124.88 329.37"/>
            <polygon class="cls-22" points="147.03 288.97 147.03 312.17 146.99 312.32 131.03 308.59 124.88 329.37 88.03 329.37 88.03 286.17 147.03 288.97"/>
            <line class="cls-1" x1="127.03" y1="349.17" x2="127.03" y2="349.17"/>
            <g>
              <path class="cls-21" d="M104.47,302.24l-3.6,10.45H97.18l-3.89-10.45h5l1.86,5,1.72-5Z"/>
              <path class="cls-21" d="M111.22,311.06l-.39,1.64h-5.9V304h5.9l.39,1.64h-2.59v2.2h1.73l.39,1.63h-2.12v1.57Z"/>
              <path class="cls-21" d="M119.91,312.7h-2.08l-3.58-3.15v3.15h-2.13V304H114l3.74,3.35V304h2.15Z"/>
              <path class="cls-21" d="M124.46,312.7h-3.71V304h3.71Z"/>
              <path class="cls-21" d="M132.7,311.06l-.35,1.64h-2.79a4.34,4.34,0,0,1,0-8.67h2.79l.35,1.64h-3.59v5.39Z"/>
              <path class="cls-21" d="M139.51,311.06l-.39,1.64h-5.9V304h5.9l.39,1.64h-2.59v2.2h1.73l.39,1.63h-2.12v1.57Z"/>
            </g>
            <g class="cls-23">
              <line class="cls-24" x1="97.03" y1="337.37" x2="132.03" y2="337.37"/>
              <line class="cls-24" x1="97.03" y1="345.37" x2="132.03" y2="345.37"/>
              <line class="cls-24" x1="97.03" y1="353.37" x2="132.03" y2="353.37"/>
              <line class="cls-24" x1="97.03" y1="361.37" x2="132.03" y2="361.37"/>
            </g>
            <polygon class="cls-25" points="181.75 320.67 171.76 357.92 120.83 342.81 124.88 329.17 131.03 308.49 146.99 312.32 181.75 320.67"/>
            <polygon class="cls-21" points="171.76 357.92 160.03 401.67 108.53 384.17 120.83 342.81 171.76 357.92"/>
            <g>
              <path class="cls-21" d="M141.65,323.93l-6.39,9-3.54-1-.8-11.12,4.78,1.4.38,5.31,3.05-4.31Z"/>
              <path class="cls-21" d="M145.65,334.29l-.83,1.46-5.66-1.66,2.43-8.32,5.66,1.66-.08,1.68-2.48-.73-.62,2.11,1.66.48-.08,1.67-2-.59-.44,1.51Z"/>
              <path class="cls-21" d="M153.52,338.3l-2-.58-2.55-4-.88,3-2-.6,2.43-8.32,1.82.53L153,332.6l.94-3.22,2.06.6Z"/>
              <path class="cls-21" d="M157.89,339.58l-3.56-1,2.43-8.32,3.56,1Z"/>
              <path class="cls-21" d="M166.26,340.32l-.8,1.47-2.68-.78a4.34,4.34,0,0,1,2.43-8.32l2.68.78-.12,1.67-3.45-1-1.51,5.18Z"/>
              <path class="cls-21" d="M172.8,342.23l-.83,1.46L166.3,342l2.43-8.32,5.67,1.66-.08,1.68-2.48-.73-.62,2.11,1.66.48-.08,1.67-2-.59-.44,1.51Z"/>
            </g>
            <g>
              <line class="cls-24" x1="127.4" y1="353.5" x2="160.81" y2="363.93"/>
              <line class="cls-24" x1="125.02" y1="361.13" x2="158.43" y2="371.56"/>
              <line class="cls-24" x1="122.63" y1="368.77" x2="156.04" y2="379.2"/>
              <line class="cls-24" x1="120.25" y1="376.41" x2="153.66" y2="386.84"/>
            </g>
          </g>
        </g>
        <path class="cls-26" d="M554.22,192.69v35.22a24.86,24.86,0,0,0,4.91,14.84l18.63,25.05a18.39,18.39,0,0,1,2.7,16.76l-12,36.28a39.86,39.86,0,0,0-.5,23.43l4.1,23.36c.82,2.9-157.51-8.45-157.51-8.45,1.08-4.47,3.76-36,2.18-40.34L409.44,299a39.94,39.94,0,0,1,5.36-37.45l9.08-12.31a35.65,35.65,0,0,0,6.1-28.94l-4.4-19.66a11.77,11.77,0,0,1,3.72-11.42l4.82-4.23a3.81,3.81,0,0,1,6.32,2.84l.15,24.58a29.2,29.2,0,0,0,20.59,27.72l10.2,3.14a38.21,38.21,0,0,1,26.09,28.46l.11.49a1.54,1.54,0,0,0,3-.19h0a38.21,38.21,0,0,1,24.12-32.18l4.82-1.89a25.17,25.17,0,0,0,15.8-26.47L542,184.13a2.13,2.13,0,0,1,3.32-2l5.1,3.47A8.6,8.6,0,0,1,554.22,192.69Z"/>
        <g>
          <circle class="cls-27" cx="520.85" cy="266.64" r="10"/>
          <circle class="cls-28" cx="525.51" cy="280.14" r="10"/>
          <circle class="cls-29" cx="541.51" cy="280.14" r="10" transform="translate(-32.58 74.87) rotate(-7.68)"/>
          <circle class="cls-30" cx="547.18" cy="269.14" r="10" transform="translate(-5.68 526.42) rotate(-51.15)"/>
          <circle class="cls-31" cx="534.01" cy="258.21" r="10"/>
          <circle class="cls-32" cx="534.37" cy="270.7" r="7.15"/>
        </g>
        <path class="cls-33" d="M416.63,336c-.05.21,28.67,10.79,50.38,18.74a74.24,74.24,0,0,0,47.84,1.11l52.05-16.38L583,376.37H402.78Z"/>
        <line class="cls-34" x1="82.03" y1="354.37" x2="82.03" y2="354.37"/>
        <path class="cls-21" d="M191.05,168.11q4.82,5.09,4.82,15,0,10.41-4.71,15.86A15.28,15.28,0,0,1,179,204.38a12.71,12.71,0,0,1-7.86-2.35,15.16,15.16,0,0,1-3.35-3.79v20.52H157.64V163.88h9.86v5.82a16.57,16.57,0,0,1,3.56-4,13.15,13.15,0,0,1,8.22-2.64A15.58,15.58,0,0,1,191.05,168.11Zm-7.9,7.41q-2.1-3.5-6.81-3.5a7.74,7.74,0,0,0-7.78,5.31,20,20,0,0,0-1.09,7.15q0,6.87,3.68,9.65a8.45,8.45,0,0,0,5.18,1.63,7.54,7.54,0,0,0,6.63-3.32,17.41,17.41,0,0,0,.18-16.91Z"/>
        <path class="cls-21" d="M213.65,203.26h-10.3V150h10.3Z"/>
        <path class="cls-21" d="M239.29,179.31a16.28,16.28,0,0,0,4.11-.9,3.1,3.1,0,0,0,2.22-2.93,3.46,3.46,0,0,0-1.7-3.34,10.75,10.75,0,0,0-5-.92q-3.7,0-5.24,1.81a7.44,7.44,0,0,0-1.47,3.61h-9.94a15.07,15.07,0,0,1,2.9-8.49q4.1-5.2,14.08-5.2a25.1,25.1,0,0,1,11.54,2.57q5,2.57,5,9.68v18.07q0,1.88.07,4.55a5.72,5.72,0,0,0,.61,2.75,3.68,3.68,0,0,0,1.52,1.19v1.52h-11.2a11.42,11.42,0,0,1-.65-2.24q-.18-1-.29-2.38a21.23,21.23,0,0,1-4.94,3.94,15,15,0,0,1-7.56,1.91,13,13,0,0,1-8.89-3.05q-3.51-3.05-3.51-8.65,0-7.26,5.64-10.51a25.21,25.21,0,0,1,9.1-2.53Zm6.3,4.8a11.32,11.32,0,0,1-2,1,16.79,16.79,0,0,1-2.77.71l-2.34.43a15.43,15.43,0,0,0-4.73,1.41,4.71,4.71,0,0,0-2.43,4.37,4.57,4.57,0,0,0,1.49,3.81,5.65,5.65,0,0,0,3.61,1.17,10.76,10.76,0,0,0,6.22-2q2.84-2,3-7.12Z"/>
        <path class="cls-21" d="M266.4,210.82l1.3.07a16.28,16.28,0,0,0,2.89-.11,5.2,5.2,0,0,0,2.31-.83,5.57,5.57,0,0,0,1.68-2.57,6.21,6.21,0,0,0,.67-2.38l-14.47-41.12h11.45l8.6,29.05L289,163.88h10.95l-13.5,38.74q-3.91,11.2-6.19,13.89t-9.12,2.69l-2.21,0q-.83,0-2.5-.13Z"/>
        <path class="cls-21" d="M322.3,149.52l2.17.16v8.38q-.87-.11-2.91-.16a3.35,3.35,0,0,0-2.82.9,3.28,3.28,0,0,0-.78,2.11v3.32h6.76v7.26H318v31.76H307.74V171.5H302v-7.26h5.64v-2.53q0-6.32,2.13-8.71,2.24-3.54,10.8-3.54C321.18,149.46,321.77,149.48,322.3,149.52Z"/>
        <path class="cls-21" d="M340.91,163.88v23.74a12.49,12.49,0,0,0,.79,5.06q1.4,3,5.5,3,5.25,0,7.19-4.26a15.51,15.51,0,0,0,1-6.11V163.88h10.44v39.39h-10V197.7q-.14.18-.72,1.08a7.22,7.22,0,0,1-1.37,1.59,14.28,14.28,0,0,1-4.67,3,15.88,15.88,0,0,1-5.28.79q-8.72,0-11.75-6.29-1.69-3.47-1.69-10.22V163.88Z"/>
        <path class="cls-21" d="M386.37,203.26h-10.3V150h10.3Z"/>
      </g>
    </g>
  </g>
</svg>
