<svg xmlns="http://www.w3.org/2000/svg" viewBox="0 0 733.46 568.34">
  <defs>
    <style>
      .cls-1 {
        fill: #aae0f8;
      }

      .cls-2 {
        fill: #caac8b;
      }

      .cls-3 {
        fill: #a7a9ac;
      }

      .cls-4 {
        fill: #a6743e;
      }

      .cls-5 {
        fill: none;
      }

      .cls-6 {
        fill: #997458;
      }

      .cls-7 {
        fill: #84644a;
      }

      .cls-8 {
        fill: #b89065;
      }

      .cls-9 {
        fill: #443a38;
      }

      .cls-10 {
        fill: #666;
      }

      .cls-11 {
        fill: gray;
      }

      .cls-12 {
        fill: #645551;
      }

      .cls-13 {
        fill: #936538;
      }
    </style>
  </defs>
  <title>suitcase_open</title>
  <g id="Layer_2" data-name="Layer 2">
    <g id="Layer_3" data-name="Layer 3">
      <g id="Layer_4" data-name="Layer 4">
        <g>
          <rect class="cls-1" width="733.46" height="568.34"/>
          <path class="cls-2" d="M712.53,384.37l-59.32-60,34.45-228,0-.23.56-3.36a36.93,36.93,0,0,0-36.8-42.41H592.58l.95-15.31a14.79,14.79,0,0,0-15-15.69H565.5a14.9,14.9,0,0,0-15,15.82l.95,15.18H181.58l.95-15.31a14.79,14.79,0,0,0-15-15.69H154.5a14.9,14.9,0,0,0-15,15.82l.95,15.18H83.83a37,37,0,0,0-36.73,43l.52,3,0,0v0L85,324.37l-62.75,60c-.54,0-1.25,0-1.25.5V496.62a44.12,44.12,0,0,0,43.75,43.75h605.5c23.88,0,42.75-19.87,42.75-43.75V384.87C713,384.32,713.08,384.37,712.53,384.37ZM568.36,37.54l-.35.1Zm-411,0-.35.1Z"/>
          <g>
            <path class="cls-2" d="M134,384.37v156H90v-23.5c0-18.23-15-32.5-33.25-32.5H21v-99.5c0-.47.71-.5,1.25-.5Z"/>
            <path class="cls-3" d="M90,516.87v23.5H64.78A44.12,44.12,0,0,1,21,496.62V484.37H56.78C75,484.37,90,498.64,90,516.87Z"/>
            <path class="cls-2" d="M188,384.37v156H545v-156Zm255.53,91.32c-.07.25-.14.49-.23.73s-.12.36-.18.54-.16.41-.25.61a2.45,2.45,0,0,1-.1.24c-.09.21-.18.41-.28.61s-.08.18-.13.27-.18.38-.29.57l-.16.3c-.05.1-.11.19-.16.28-.14.25-.29.49-.45.73s-.18.29-.28.43-.19.29-.3.43l-.23.31c-.22.29-.45.58-.69.86a14.3,14.3,0,0,1-1,1.08q-.41.42-.84.81c-.25.23-.5.45-.77.66l-.25.2c-.22.17-.45.35-.69.51a12.65,12.65,0,0,1-1.08.72,17.07,17.07,0,0,1-3.08,1.55c-.06,0-.11,0-.11.06h0a.65.65,0,0,1-.17,0c-.24.09-.51.17-.76.25s-.65.2-1,.28c0,0,0,0,0,0-.3.09-.61.16-.92.22l-.31.06-.31.06-.12,0h-.19l-.24,0q-.36.06-.72.09a17.74,17.74,0,0,1-1.94.1h-116a19,19,0,0,1,0-38h116q1,0,1.95.09c.32,0,.64.06.95.11a19.21,19.21,0,0,1,4.5,1.17c.28.11.57.23.84.36l.62.29.11.06.69.37.24.14a14,14,0,0,1,1.31.85c.15.1.29.21.43.32a2.33,2.33,0,0,1,.31.24,1.56,1.56,0,0,1,.2.16,15.73,15.73,0,0,1,1.29,1.16,19.13,19.13,0,0,1,4.07,6.1c.1.24.2.49.29.74s.17.49.25.75.16.5.23.76a17.5,17.5,0,0,1,.5,2.31c0,.08-.12.16-.11.23a11.07,11.07,0,0,1,0,1.63v.07c0,.28.1.56.1.84s0,.65,0,1c0,.08-.09.17-.09.26v.08a7.25,7.25,0,0,1,.06.93,4.06,4.06,0,0,1,0,.49,5,5,0,0,1-.06.57l0,.23a2.26,2.26,0,0,1-.08.44c0,.23-.09.47-.14.7S443.65,475.39,443.56,475.69Z"/>
            <path class="cls-4" d="M188,384.37v84h-7v-9.5a19.61,19.61,0,0,0-.1-2c-.07-.68-.17-1.34-.3-2a20.27,20.27,0,0,0-.92-3.2A19.61,19.61,0,0,0,163,439c-.29,0-.57,0-.86-.06s-.68,0-1,0l-.9,0-.9.06a20.58,20.58,0,0,0-5.92,1.48,20,20,0,0,0-6.42,4.29,20.18,20.18,0,0,0-5.87,12.1,19.66,19.66,0,0,0-.11,2v9.5h-7v-84Z"/>
            <path class="cls-4" d="M188,468.37v72H134v-72h7v-.5A20.17,20.17,0,0,0,175.42,482,19.73,19.73,0,0,0,181,467.87v.5Z"/>
            <path class="cls-5" d="M159.35,439a20.58,20.58,0,0,0-5.92,1.48A19.14,19.14,0,0,1,159.35,439Z"/>
            <path class="cls-5" d="M428.26,489.14a16.86,16.86,0,0,0,1.85-.38l-.92.22-.31.06-.43.08h-.1l-.33,0q-.36.06-.72.09C427.62,489.24,427.94,489.19,428.26,489.14Z"/>
            <path class="cls-5" d="M438.8,456.82a18.68,18.68,0,0,0-11.49-5.36c.32,0,.63.06.95.11a19.21,19.21,0,0,1,4.5,1.17q.42.16.84.36l.62.29.11.06.69.37.24.14a14,14,0,0,1,1.31.85c.15.1.29.21.43.32a2.33,2.33,0,0,1,.31.24,1.56,1.56,0,0,1,.2.16,15.73,15.73,0,0,1,1.29,1.16,19.13,19.13,0,0,1,4.07,6.1A19.13,19.13,0,0,0,438.8,456.82Z"/>
            <path class="cls-5" d="M444,470.12v.13c0,.28.16.57.15.85,0,.45,0,.9,0,1.34a17,17,0,0,1-.38,2.36,13,13,0,0,1-.45,1.62l-.17.54c-.08.21-.15.41-.24.61a2.42,2.42,0,0,1-.1.24c-.09.21-.18.41-.28.61s-.08.18-.13.27-.18.38-.29.57l-.16.3c-.05.1-.11.19-.16.28l-.45.73c-.09.14-.18.29-.28.43s-.19.29-.3.43l-.23.31c-.22.29-.45.58-.69.86a14.3,14.3,0,0,1-1,1.08q-.41.42-.84.81c-.25.23-.51.45-.77.66l-.25.2c-.23.18-.45.35-.69.51a12.65,12.65,0,0,1-1.08.72,19,19,0,0,1-5.09,2.18,19.33,19.33,0,0,0,13.81-14.66,2.26,2.26,0,0,0,.08-.44l0-.23a5,5,0,0,0,.06-.57,4.06,4.06,0,0,0,0-.49,7.25,7.25,0,0,0-.06-.93v-.08c0-.09.17-.18.17-.26,0-.33.09-.65.09-1s-.11-.56-.11-.84C444.19,469.56,444,469.84,444,470.12Z"/>
            <path class="cls-2" d="M713,384.87v99.5H679c-18.23,0-33,14.27-33,32.5v23.5H599v-156h113.5C713.08,384.37,713,384.32,713,384.87Z"/>
            <path class="cls-4" d="M545,384.37v156h54v-156Zm27.12,103.5a20.1,20.1,0,0,1-20.12-20v-9a19.66,19.66,0,0,1,.11-2,20.18,20.18,0,0,1,5.87-12.1,20,20,0,0,1,6.42-4.29,20.58,20.58,0,0,1,5.92-1.48l.9-.06.9,0c.35,0,.69,0,1,0s.57,0,.86.06a19.61,19.61,0,0,1,16.67,12.68,20.27,20.27,0,0,1,.92,3.2c.13.65.23,1.31.3,2a19.61,19.61,0,0,1,.1,2v9A19.73,19.73,0,0,1,586.42,482,20.23,20.23,0,0,1,572.15,487.87Z"/>
            <path class="cls-5" d="M570.35,439a20.58,20.58,0,0,0-5.92,1.48A19.14,19.14,0,0,1,570.35,439Z"/>
            <path class="cls-3" d="M713,484.37v12.25c0,23.88-18.87,43.75-42.75,43.75H646v-23.5c0-18.23,14.77-32.5,33-32.5Z"/>
            <polygon class="cls-6" points="85.52 384.37 22.28 384.37 85.03 324.37 85.52 384.37"/>
            <polygon class="cls-6" points="653.03 384.37 653.03 383.87 652.83 324.37 653.21 324.37 712.53 384.37 653.03 384.37"/>
            <polygon class="cls-7" points="653.03 383.87 653.03 384.37 85.52 384.37 85.03 324.37 652.83 324.37 653.03 383.87"/>
            <polygon class="cls-4" points="599.03 50.37 599.03 96.37 545.03 96.37 545.03 50.37 551.5 50.37 552.53 67.37 591.53 67.37 592.56 50.37 599.03 50.37"/>
            <polygon class="cls-4" points="188.03 50.37 188.03 96.37 134.03 96.37 134.03 50.37 140.5 50.37 141.53 67.37 180.53 67.37 181.56 50.37 188.03 50.37"/>
            <polygon class="cls-6" points="652.14 324.37 86.09 324.37 127.4 304.93 610.62 305.04 652.14 324.37"/>
            <path class="cls-2" d="M134,50.37v46H47.65v0l0,0-.52-3a37,37,0,0,1,36.73-43Z"/>
            <path class="cls-2" d="M688.25,92.78l-.56,3.36,0,.23H599v-46h52.42A36.93,36.93,0,0,1,688.25,92.78Z"/>
            <rect class="cls-2" x="188.03" y="50.37" width="357" height="46"/>
            <polygon class="cls-8" points="687.66 96.37 653.21 324.37 652.14 324.37 610.62 305.04 645.58 96.37 687.66 96.37"/>
            <polygon class="cls-8" points="127.4 304.93 86.09 324.37 85.03 324.37 47.65 96.37 89.15 96.37 127.4 304.93"/>
            <polygon class="cls-7" points="645.58 96.37 610.62 305.04 127.4 304.93 89.15 96.37 645.58 96.37"/>
            <polyline class="cls-5" points="652.83 324.37 652.83 323.87 651.89 323.37"/>
            <line class="cls-5" x1="86.09" y1="323.37" x2="85.03" y2="323.87"/>
            <polyline class="cls-5" points="687.66 96.37 687.69 96.37 688.03 96.37"/>
            <polyline class="cls-5" points="47.03 96.37 47.62 96.37 47.65 96.37"/>
            <path class="cls-9" d="M448,473.21v.07c0,.28.1.56.1.84s0,.65,0,1c0,.08-.09.17-.09.26v.08a7.25,7.25,0,0,1,.06.93,4.06,4.06,0,0,1,0,.49,5,5,0,0,1-.06.57l0,.23a2.26,2.26,0,0,1-.08.44,19.33,19.33,0,0,1-13.81,14.66s0,0,0,0a16.86,16.86,0,0,1-1.85.38c-.32.05-.64.1-1,.13a17.74,17.74,0,0,1-1.94.1h-116a19,19,0,0,1,0-38h116q1,0,1.95.09a18.68,18.68,0,0,1,11.49,5.36,19.13,19.13,0,0,1,4.07,6c.1.24.2.49.29.74s.17.49.25.75.16.5.23.76a17.31,17.31,0,0,1,.34,2.31A12.76,12.76,0,0,1,448,473.21Z"/>
            <path class="cls-5" d="M444,470.12v.13c0,.28.16.57.15.85a18.06,18.06,0,0,1-.24,2.56c0-.08.06-.15.07-.23a4.88,4.88,0,0,0,.08-.57,4.05,4.05,0,0,0,0-.49,7.24,7.24,0,0,0,0-.93v-.08c0-.09.17-.18.17-.26,0-.33.09-.65.09-1s-.11-.56-.11-.84C444.19,469.56,444,469.84,444,470.12Z"/>
            <path class="cls-5" d="M444.14,467.35a17.5,17.5,0,0,0-.5-2.31c-.07-.26-.14-.51-.23-.76s-.16-.51-.25-.75a17.67,17.67,0,0,1,1,4c.08.54.13,1.08.16,1.63C444.3,468.58,444.23,468,444.14,467.35Z"/>
            <path class="cls-10" d="M595,459.61v9.53a20.75,20.75,0,0,1-5.77,15,21.23,21.23,0,0,1-36.23-15v-9.53a20.81,20.81,0,0,1,.12-2.16,21.71,21.71,0,0,1,6.35-12.81,21.26,21.26,0,0,1,6.66-4.54,21.78,21.78,0,0,1,6.27-1.57q.48,0,1-.06t1,0c.37,0,.73,0,1.09,0s.6,0,.91.06A21,21,0,0,1,594,452a21.45,21.45,0,0,1,1,3.39c.14.69.08,1.39.15,2.11A21.16,21.16,0,0,1,595,459.61Z"/>
            <path class="cls-5" d="M570.35,439a20.58,20.58,0,0,0-5.92,1.48A19.14,19.14,0,0,1,570.35,439Z"/>
            <path class="cls-5" d="M159.35,439a20.58,20.58,0,0,0-5.92,1.48A19.14,19.14,0,0,1,159.35,439Z"/>
            <polygon class="cls-5" points="551.5 50.37 552.53 67.37 551.5 50.62 551.48 50.37 551.5 50.37"/>
            <path class="cls-5" d="M579.73,43.94l-.35,6.43h-14.7L564,44v-.42a6.38,6.38,0,0,1,4-5.92,5.46,5.46,0,0,1,1.06-.24c.18,0,.43,0,.62,0h4.68C577.47,37.37,579.92,40.51,579.73,43.94Z"/>
            <polygon class="cls-5" points="592.58 50.37 592.56 50.75 591.53 67.37 592.56 50.37 592.58 50.37"/>
            <polygon class="cls-5" points="140.5 50.37 141.53 67.37 140.5 50.62 140.48 50.37 140.5 50.37"/>
            <path class="cls-5" d="M168.73,43.94l-.35,6.43h-14.7L153,44v-.42a6.38,6.38,0,0,1,4-5.92,5.46,5.46,0,0,1,1.06-.24c.18,0,.43,0,.62,0h4.68C166.47,37.37,168.92,40.51,168.73,43.94Z"/>
            <polygon class="cls-5" points="181.58 50.37 181.56 50.75 180.53 67.37 181.56 50.37 181.58 50.37"/>
            <polygon class="cls-4" points="579.39 50.37 579.38 50.49 579.01 57.37 565.05 57.37 564.68 50.61 564.67 50.37 579.39 50.37"/>
            <path class="cls-5" d="M579.73,43.94l-.34,6.43H564.67L564,44.06v-.5a6.5,6.5,0,0,1,4-5.92,5.46,5.46,0,0,1,1.06-.24c.18,0,.43,0,.62,0h4.68C577.47,37.37,579.92,40.51,579.73,43.94Z"/>
            <polygon class="cls-4" points="168.39 50.37 168.38 50.49 168.01 57.37 154.05 57.37 153.68 50.61 153.67 50.37 168.39 50.37"/>
            <path class="cls-5" d="M168.73,43.94l-.34,6.43H153.67L153,44.06v-.5a6.5,6.5,0,0,1,4-5.92,5.46,5.46,0,0,1,1.06-.24c.18,0,.43,0,.62,0h4.68C166.47,37.37,168.92,40.51,168.73,43.94Z"/>
            <line class="cls-5" x1="713.03" y1="484.37" x2="713.03" y2="484.37"/>
            <line class="cls-5" x1="599.03" y1="384.37" x2="599.03" y2="383.37"/>
            <line class="cls-5" x1="545.03" y1="384.37" x2="545.03" y2="383.37"/>
            <line class="cls-5" x1="188.03" y1="384.37" x2="188.03" y2="383.37"/>
            <line class="cls-5" x1="134.03" y1="384.37" x2="134.03" y2="383.37"/>
            <path class="cls-11" d="M593,457.61v9.53a20.75,20.75,0,0,1-5.77,15,21.23,21.23,0,0,1-36.23-15v-9.53a20.81,20.81,0,0,1,.12-2.16,21.71,21.71,0,0,1,6.35-12.81,21.26,21.26,0,0,1,6.66-4.54,21.78,21.78,0,0,1,6.27-1.57q.48,0,1-.06t1,0c.37,0,.73,0,1.09,0s.6,0,.91.06A21,21,0,0,1,592,450a21.45,21.45,0,0,1,1,3.39c.14.69.08,1.39.15,2.11A21.16,21.16,0,0,1,593,457.61Z"/>
            <path class="cls-10" d="M184,460.61v9.53a20.75,20.75,0,0,1-5.77,15,21.23,21.23,0,0,1-36.23-15v-9.53a20.81,20.81,0,0,1,.12-2.16,21.71,21.71,0,0,1,6.35-12.81,21.26,21.26,0,0,1,6.66-4.54,21.78,21.78,0,0,1,6.27-1.57q.48,0,1-.06t1,0c.37,0,.73,0,1.09,0s.6,0,.91.06A21,21,0,0,1,183,453a21.45,21.45,0,0,1,1,3.39c.14.69.08,1.39.15,2.11A21.16,21.16,0,0,1,184,460.61Z"/>
            <path class="cls-11" d="M182,458.61v9.53a20.75,20.75,0,0,1-5.77,15,21.23,21.23,0,0,1-36.23-15v-9.53a20.81,20.81,0,0,1,.12-2.16,21.71,21.71,0,0,1,6.35-12.81,21.26,21.26,0,0,1,6.66-4.54,21.78,21.78,0,0,1,6.27-1.57q.48,0,1-.06t1,0c.37,0,.73,0,1.09,0s.6,0,.91.06A21,21,0,0,1,181,451a21.45,21.45,0,0,1,1,3.39c.14.69.08,1.39.15,2.11A21.16,21.16,0,0,1,182,458.61Z"/>
            <path class="cls-12" d="M444,469.21v.07c0,.28.1.56.1.84s0,.65,0,1c0,.08-.09.17-.09.26v.08a7.25,7.25,0,0,1,.06.93,4.06,4.06,0,0,1,0,.49,5,5,0,0,1-.06.57l0,.23a2.26,2.26,0,0,1-.08.44,19.33,19.33,0,0,1-13.81,14.66s0,0,0,0a16.86,16.86,0,0,1-1.85.38c-.32.05-.64.1-1,.13a17.74,17.74,0,0,1-1.94.1h-116a19,19,0,0,1,0-38h116q1,0,1.95.09a18.68,18.68,0,0,1,11.49,5.36,19.13,19.13,0,0,1,4.07,6c.1.24.2.49.29.74s.17.49.25.75.16.5.23.76a17.31,17.31,0,0,1,.34,2.31A12.76,12.76,0,0,1,444,469.21Z"/>
            <polygon class="cls-13" points="180.28 67.37 188.03 50.37 177.03 50.37 180.28 67.37"/>
            <polygon class="cls-13" points="153.8 57.37 158.28 50.37 149.03 50.37 153.8 57.37"/>
            <g>
              <polygon class="cls-13" points="552.78 67.37 545.03 50.37 556.03 50.37 552.78 67.37"/>
              <polygon class="cls-13" points="579.26 57.37 574.78 50.37 584.03 50.37 579.26 57.37"/>
            </g>
            <path class="cls-11" d="M167.56,19.37H154.5a14.9,14.9,0,0,0-15,15.82l.95,15.18h0l1,17h39l1-17h0l.95-15.31A14.79,14.79,0,0,0,167.56,19.37Zm.82,31.12L168,57.37h-14l-.37-6.76v-.24h0L153,44v-.42a6.38,6.38,0,0,1,4-5.92,6.19,6.19,0,0,1,1.13-.24,5,5,0,0,1,.55,0h4.68c3.1,0,5.55,3.14,5.36,6.57l-.35,6.43h0Z"/>
            <path class="cls-11" d="M578.56,19.37H565.5a14.9,14.9,0,0,0-15,15.82l.95,15.18h0l1,17h39l1-17h0l.95-15.31A14.79,14.79,0,0,0,578.56,19.37Zm.82,31.12L579,57.37h-14l-.37-6.76v-.24h0L564,44v-.42a6.38,6.38,0,0,1,4-5.92,6.19,6.19,0,0,1,1.13-.24,5,5,0,0,1,.55,0h4.68c3.1,0,5.55,3.14,5.36,6.57l-.35,6.43h0Z"/>
          </g>
        </g>
      </g>
    </g>
  </g>
</svg>
