<svg xmlns="http://www.w3.org/2000/svg" viewBox="0 0 733.46 568.34">
  <defs>
    <style>
      .cls-1 {
        fill: #7ecc6d;
      }

      .cls-2 {
        fill: #b89065;
      }

      .cls-3 {
        fill: #c4c4c4;
      }

      .cls-4 {
        fill: #a7a9ac;
      }

      .cls-5 {
        fill: #caac8b;
      }

      .cls-6 {
        fill: #a6743e;
      }

      .cls-7 {
        fill: gray;
      }

      .cls-8 {
        fill: #645551;
      }

      .cls-9 {
        fill: #fff;
      }
    </style>
  </defs>
  <title>suitcase_wild_closed</title>
  <g id="Layer_2" data-name="Layer 2">
    <g id="Layer_3" data-name="Layer 3">
      <g id="Layer_5" data-name="Layer 5">
        <rect class="cls-1" width="733.46" height="568.34"/>
        <path class="cls-2" d="M668.91,132.06s0,0,0,0a39.64,39.64,0,0,0-21.59-6.36A39.86,39.86,0,0,1,669,132l.07,0,0,0-.07,0-28.14-19.33,0,0L621.52,99.68a39.73,39.73,0,0,0-22.36-6.31H434.72L431,82.13V82l.14-.18A11.47,11.47,0,0,0,435,73.27V73c0-6.28-4.68-10.66-11-10.66H308.84c-6.28,0-11.8,4.38-11.8,10.66v.24c0,3.72,2.06,8.1,4.83,10.1H302c1.9,0,4,1.42,7,1.42v-.07c-3,0-5-.52-6.91-2L299,93.37H136.53c-7.95,0-15.73,1.76-22.33,6.18L94,112.8l0-.07L67.48,130.36h-.12A40.09,40.09,0,0,0,46,165.65v309c0,22.09,18.21,40.72,40.3,40.72h561c22.09,0,39.7-18.63,39.7-40.72v-309A39.84,39.84,0,0,0,668.91,132.06ZM314.18,85.37H419.49l2.42,8H311.76Z"/>
        <g>
          <path class="cls-3" d="M107.23,126.37h-21A39.8,39.8,0,0,0,67.47,131l-.07,0,0,0L93.9,113.36l0,0,0,0C98.63,113.36,107.23,120.45,107.23,126.37Z"/>
          <path class="cls-4" d="M652.9,452.37C639,452.37,627,463.14,627,477v38.33h20.19a39.84,39.84,0,0,0,39.81-40v-23Zm10.84,37.51a8.5,8.5,0,1,1,2.49-6A8.48,8.48,0,0,1,663.74,489.88Z"/>
          <path class="cls-4" d="M668.85,132.78s0,0,0,0a39.68,39.68,0,0,0-21.6-6.36H627v39c0,11,9.64,21,20.69,21H687v-20A39.88,39.88,0,0,0,668.85,132.78Zm-5.11,29.1a8.5,8.5,0,1,1,2.49-6A8.48,8.48,0,0,1,663.74,161.88Z"/>
          <path class="cls-4" d="M82.56,452.37H46v23a40.17,40.17,0,0,0,40.19,40H107V477C107,463.14,96.46,452.37,82.56,452.37Zm.18,37.51a8.5,8.5,0,1,1,2.49-6A8.48,8.48,0,0,1,82.74,489.88Z"/>
          <path class="cls-4" d="M86.23,126.37A39.8,39.8,0,0,0,67.47,131l-.17,0A40.06,40.06,0,0,0,46,166.37v21h.36l41.23-.91c11.05,0,19.4-10,19.4-21.09v-39Zm-3.49,35.51a8.5,8.5,0,1,1,2.49-6A8.48,8.48,0,0,1,82.74,161.88Z"/>
          <path class="cls-2" d="M687,186.37v266H652.9C639,452.37,627,463.14,627,477v38.33H600v-389h27v39c0,11,9.64,21,20.69,21Z"/>
          <rect class="cls-2" x="189.04" y="126.37" width="357" height="389"/>
          <path class="cls-2" d="M135,126.37v389H107V477c0-13.9-10.58-24.67-24.48-24.67H46v-265h.36l41.23-.91c11.05,0,19.4-10,19.4-21.09v-39Z"/>
          <path class="cls-3" d="M669,132.73l0,0-.07,0a39.84,39.84,0,0,0-21.65-6.36h-20c0-5.92,8.81-13,13.49-13l0,0,0,0,28.14,19.33Z"/>
          <path class="cls-5" d="M640.74,113.33l0,0c-4.68,0-13.49,7.1-13.49,13h-27L560,93.42v0h39A40.06,40.06,0,0,1,621.41,100Z"/>
          <polygon class="cls-5" points="546.23 126.37 189.23 126.37 226.04 93.4 226.04 93.37 509.04 93.37 509.04 93.46 546.23 126.37"/>
          <path class="cls-5" d="M175,93.37v0l-39.81,33h-28c0-5.92-8.6-13-13.28-13l0,0,20.16-13.43a39.92,39.92,0,0,1,22.33-6.54Z"/>
          <rect class="cls-6" x="546.04" y="126.37" width="54" height="389"/>
          <rect class="cls-6" x="135.04" y="126.37" width="54" height="389"/>
          <path class="cls-2" d="M560,93.42v0H509v.09l37.19,32.91h54Zm2.93,22h-7.13a5.82,5.82,0,0,1-3.87-1.26l-7.17-5.89c-2.13-1.81-.86-4.85,1.94-4.85H553a5.68,5.68,0,0,1,3.62.8l8.13,5.75A3,3,0,0,1,563,115.37Z"/>
          <path class="cls-2" d="M175,93.37v0l-39.81,33h54L226,93.4v0Zm16.62,14.88-7.17,5.64a6,6,0,0,1-3.87,1.48h-7.13a2.89,2.89,0,0,1-1.81-5.23l8.13-6a5.67,5.67,0,0,1,3.62-.78h6.29C192.52,103.37,193.79,106.44,191.66,108.25Z"/>
          <path class="cls-7" d="M666.23,483.87a8.5,8.5,0,1,1-8.5-8.5A8.48,8.48,0,0,1,666.23,483.87Z"/>
          <path class="cls-7" d="M85.23,483.87a8.5,8.5,0,1,1-8.5-8.5A8.48,8.48,0,0,1,85.23,483.87Z"/>
          <path class="cls-7" d="M85.23,155.87a8.5,8.5,0,1,1-8.5-8.5A8.48,8.48,0,0,1,85.23,155.87Z"/>
          <path class="cls-7" d="M666.23,155.87a8.5,8.5,0,1,1-8.5-8.5A8.48,8.48,0,0,1,666.23,155.87Z"/>
          <path class="cls-7" d="M563,115.37h-7.13a5.82,5.82,0,0,1-3.87-1.26l-7.17-5.89c-2.13-1.81-.86-4.85,1.94-4.85H553a5.68,5.68,0,0,1,3.62.8l8.13,5.75A3,3,0,0,1,563,115.37Z"/>
          <path class="cls-7" d="M191.66,108.25l-7.17,5.64a6,6,0,0,1-3.87,1.48h-7.13a2.89,2.89,0,0,1-1.81-5.23l8.13-6a5.67,5.67,0,0,1,3.62-.78h6.29C192.52,103.37,193.79,106.44,191.66,108.25Z"/>
        </g>
        <polygon class="cls-2" points="310.53 109.87 326.98 93.37 314.23 93.37 310.91 95.84 302.73 99.5 310.53 109.87"/>
        <polygon class="cls-2" points="423.18 109.87 406.73 93.37 419.48 93.37 422.81 95.84 430.98 99.5 423.18 109.87"/>
        <g>
          <path class="cls-4" d="M437.8,104l-.69-.72a6.89,6.89,0,0,0-9.75-.08l-1.94,2.07-6-19.9H424a11.26,11.26,0,0,0,7.42-2.77Z"/>
          <path class="cls-4" d="M314.08,85.37l-6,19.91-1.94-2a6.89,6.89,0,0,0-9.75-.08l-.66.71,6.23-20.82a11.27,11.27,0,0,0,6.81,2.28Z"/>
          <path class="cls-8" d="M301.93,83.09a11.27,11.27,0,0,0,6.81,2.28H424a11.26,11.26,0,0,0,7.42-2.77l0-.12A11.18,11.18,0,0,0,435,74v-.24A11.12,11.12,0,0,0,424,62.37H308.74A11.66,11.66,0,0,0,297,73.75V74a11.47,11.47,0,0,0,4.73,9.1"/>
          <path class="cls-3" d="M310.32,107.64,308,105.28l-1.94-2a6.89,6.89,0,0,0-9.75-.08l-.66.71-3.55,3.77a2.2,2.2,0,0,0,1.41,3.69h15.35A2.23,2.23,0,0,0,310.32,107.64Z"/>
          <path class="cls-3" d="M441.32,107.64,437.8,104l-.69-.72a6.89,6.89,0,0,0-9.75-.08l-1.94,2.07-2.27,2.41a2.2,2.2,0,0,0,1.41,3.69h15.35A2.23,2.23,0,0,0,441.32,107.64Z"/>
        </g>
        <g>
          <path class="cls-9" d="M312.29,289.27h12.14l7,33,7.14-33H351L337.74,335h-12.3l-7.18-33.34L311,335H298.56l-12.85-45.77h12.85l7.14,32.84Z"/>
          <path class="cls-9" d="M369.91,283.81H357.77v-11h12.14Zm-12.14,5.46h12.14V335H357.77Z"/>
          <path class="cls-9" d="M393.72,335h-12v-61.9h12Z"/>
          <path class="cls-9" d="M429.66,290a14.55,14.55,0,0,1,5.25,5.06V273.22H447V335H435.42V328.7a16.88,16.88,0,0,1-5.84,5.92,16.39,16.39,0,0,1-8.15,1.85,17,17,0,0,1-13.5-6.49q-5.48-6.49-5.48-16.65,0-11.72,5.4-18.43a17.56,17.56,0,0,1,14.42-6.72A14.77,14.77,0,0,1,429.66,290Zm2.94,32.61a16.7,16.7,0,0,0,2.65-9.78q0-8.4-4.24-12a9.13,9.13,0,0,0-6-2.18q-5.25,0-7.71,4a18.4,18.4,0,0,0-2.46,9.85q0,6.34,2.5,10.14a8.45,8.45,0,0,0,7.58,3.8A8.84,8.84,0,0,0,432.6,322.61Z"/>
        </g>
      </g>
    </g>
  </g>
</svg>
