<svg xmlns="http://www.w3.org/2000/svg" xmlns:xlink="http://www.w3.org/1999/xlink" viewBox="0 0 733.46 568.34" class="standard-border-radius">
  <defs>
    <linearGradient id="linear-gradient" x1="24.04" y1="289.37" x2="708.04" y2="289.37" gradientUnits="userSpaceOnUse">
      <stop offset="0" stop-color="#f7f7f7"/>
      <stop offset="1" stop-color="#ccc"/>
    </linearGradient>
  </defs>
  <title>suitcase_classic_closed</title>
  <g style="isolation: isolate">
    <g id="Layer_2" data-name="Layer 2">
      <g id="Layer_3" data-name="Layer 3">
        <g id="Layer_5" data-name="Layer 5">
          <g>
            <image width="930" height="620" transform="matrix(-0.79, 0, 0, 0.92, 733.46, 0)" xlink:href="assets/wall_paper/wallpaper_background_classic.png"/>
            <path d="M689.49,120.69s.43,0,.41-.05c-6.66-4.29-6.33-4.29.33,0,0,0,.13,0,.15.05v-.11L639.7,87.12c-7-4.73-15.37-5.75-23.85-5.75H440.37l-3.84-12.86h0s2.51-7,2.51-10.56v-.26c0-6.7-3.33-10.32-10-10.32H306c-6.7,0-15,3.62-15,10.32v.26c0,4,3.82,9.43,6.78,11.56l-2.35,11.86H122.13c-8.48,0-16.79.89-23.83,5.61L48.44,119.44l0-.28s-.9-.14-.91-.13C34.1,126.21,24,140.23,24,156.54V486.3c0,23.57,21,45.07,44.53,45.07h598.7c23.57,0,40.77-21.49,40.77-45.07V156.54C708,141.51,701.23,128.3,689.49,120.69ZM311.73,72.37H424.11l2.59,9H309.14Z" transform="translate(0 0)" style="mix-blend-mode: multiply;fill: url(#linear-gradient)"/>
            <path d="M668.91,132.06s0,0,0,0a39.64,39.64,0,0,0-21.59-6.36A39.86,39.86,0,0,1,669,132l.07,0,0,0-.07,0-28.14-19.33,0,0L621.52,99.68a39.73,39.73,0,0,0-22.36-6.31H434.72L431,82.13V82l.14-.18A11.47,11.47,0,0,0,435,73.27V73c0-6.28-4.68-10.66-11-10.66H308.84c-6.28,0-11.8,4.38-11.8,10.66v.24c0,3.72,2.06,8.1,4.83,10.1H302c1.9,0,4,1.42,7,1.42v-.07c-3,0-5-.52-6.91-2L299,93.37H136.53c-7.95,0-15.73,1.76-22.33,6.18L94,112.8l0-.07L67.48,130.36h-.12A40.09,40.09,0,0,0,46,165.65v309c0,22.09,18.21,40.72,40.3,40.72h561c22.09,0,39.7-18.63,39.7-40.72v-309A39.84,39.84,0,0,0,668.91,132.06ZM314.18,85.37H419.49l2.42,8H311.76Z" transform="translate(0 0)" style="fill: #b89065"/>
            <g>
              <g>
                <path d="M107.23,126.37h-21A39.8,39.8,0,0,0,67.47,131l-.07,0,0,0L93.9,113.36l0,0,0,0C98.63,113.36,107.23,120.45,107.23,126.37Z" transform="translate(0 0)" style="fill: #c4c4c4"/>
                <path d="M652.9,452.37C639,452.37,627,463.14,627,477v38.33h20.19a39.84,39.84,0,0,0,39.81-40v-23Zm10.84,37.51a8.5,8.5,0,1,1,2.49-6A8.48,8.48,0,0,1,663.74,489.88Z" transform="translate(0 0)" style="fill: #a7a9ac"/>
                <path d="M668.85,132.78s0,0,0,0a39.68,39.68,0,0,0-21.6-6.36H627v39c0,11,9.64,21,20.69,21H687v-20A39.88,39.88,0,0,0,668.85,132.78Zm-5.11,29.1a8.5,8.5,0,1,1,2.49-6A8.48,8.48,0,0,1,663.74,161.88Z" transform="translate(0 0)" style="fill: #a7a9ac"/>
                <path d="M82.56,452.37H46v23a40.17,40.17,0,0,0,40.19,40H107V477C107,463.14,96.46,452.37,82.56,452.37Zm.18,37.51a8.5,8.5,0,1,1,2.49-6A8.48,8.48,0,0,1,82.74,489.88Z" transform="translate(0 0)" style="fill: #a7a9ac"/>
                <path d="M86.23,126.37A39.8,39.8,0,0,0,67.47,131l-.17,0A40.06,40.06,0,0,0,46,166.37v21h.36l41.23-.91c11.05,0,19.4-10,19.4-21.09v-39Zm-3.49,35.51a8.5,8.5,0,1,1,2.49-6A8.48,8.48,0,0,1,82.74,161.88Z" transform="translate(0 0)" style="fill: #a7a9ac"/>
                <path d="M687,186.37v266H652.9C639,452.37,627,463.14,627,477v38.33H600v-389h27v39c0,11,9.64,21,20.69,21Z" transform="translate(0 0)" style="fill: #b89065"/>
                <rect x="189.04" y="126.37" width="357" height="389" style="fill: #b89065"/>
                <path d="M135,126.37v389H107V477c0-13.9-10.58-24.67-24.48-24.67H46v-265h.36l41.23-.91c11.05,0,19.4-10,19.4-21.09v-39Z" transform="translate(0 0)" style="fill: #b89065"/>
                <path d="M669,132.73l0,0-.07,0a39.84,39.84,0,0,0-21.65-6.36h-20c0-5.92,8.81-13,13.49-13l0,0,0,0,28.14,19.33Z" transform="translate(0 0)" style="fill: #c4c4c4"/>
                <path d="M640.74,113.33l0,0c-4.68,0-13.49,7.1-13.49,13h-27L560,93.42v0h39A40.06,40.06,0,0,1,621.41,100Z" transform="translate(0 0)" style="fill: #caac8b"/>
                <polygon points="546.23 126.37 189.23 126.37 226.04 93.4 226.04 93.37 509.04 93.37 509.04 93.46 546.23 126.37" style="fill: #caac8b"/>
                <path d="M175,93.37v0l-39.81,33h-28c0-5.92-8.6-13-13.28-13l0,0,20.16-13.43a39.92,39.92,0,0,1,22.33-6.54Z" transform="translate(0 0)" style="fill: #caac8b"/>
                <rect x="546.04" y="126.37" width="54" height="389" style="fill: #a6743e"/>
                <rect x="135.04" y="126.37" width="54" height="389" style="fill: #a6743e"/>
                <path d="M560,93.42v0H509v.09l37.19,32.91h54Zm2.93,22h-7.13a5.82,5.82,0,0,1-3.87-1.26l-7.17-5.89c-2.13-1.81-.86-4.85,1.94-4.85H553a5.68,5.68,0,0,1,3.62.8l8.13,5.75A3,3,0,0,1,563,115.37Z" transform="translate(0 0)" style="fill: #b89065"/>
                <path d="M175,93.37v0l-39.81,33h54L226,93.4v0Zm16.62,14.88-7.17,5.64a6,6,0,0,1-3.87,1.48h-7.13a2.89,2.89,0,0,1-1.81-5.23l8.13-6a5.67,5.67,0,0,1,3.62-.78h6.29C192.52,103.37,193.79,106.44,191.66,108.25Z" transform="translate(0 0)" style="fill: #b89065"/>
                <path d="M666.23,483.87a8.5,8.5,0,1,1-8.5-8.5A8.48,8.48,0,0,1,666.23,483.87Z" transform="translate(0 0)" style="fill: gray"/>
                <path d="M85.23,483.87a8.5,8.5,0,1,1-8.5-8.5A8.48,8.48,0,0,1,85.23,483.87Z" transform="translate(0 0)" style="fill: gray"/>
                <path d="M85.23,155.87a8.5,8.5,0,1,1-8.5-8.5A8.48,8.48,0,0,1,85.23,155.87Z" transform="translate(0 0)" style="fill: gray"/>
                <path d="M666.23,155.87a8.5,8.5,0,1,1-8.5-8.5A8.48,8.48,0,0,1,666.23,155.87Z" transform="translate(0 0)" style="fill: gray"/>
                <path d="M563,115.37h-7.13a5.82,5.82,0,0,1-3.87-1.26l-7.17-5.89c-2.13-1.81-.86-4.85,1.94-4.85H553a5.68,5.68,0,0,1,3.62.8l8.13,5.75A3,3,0,0,1,563,115.37Z" transform="translate(0 0)" style="fill: gray"/>
                <path d="M191.66,108.25l-7.17,5.64a6,6,0,0,1-3.87,1.48h-7.13a2.89,2.89,0,0,1-1.81-5.23l8.13-6a5.67,5.67,0,0,1,3.62-.78h6.29C192.52,103.37,193.79,106.44,191.66,108.25Z" transform="translate(0 0)" style="fill: gray"/>
              </g>
              <polygon points="310.53 109.87 326.98 93.37 314.23 93.37 310.91 95.84 302.73 99.5 310.53 109.87" style="fill: #b89065"/>
              <polygon points="423.18 109.87 406.73 93.37 419.48 93.37 422.81 95.84 430.98 99.5 423.18 109.87" style="fill: #b89065"/>
              <g>
                <path d="M437.8,104l-.69-.72a6.89,6.89,0,0,0-9.75-.08l-1.94,2.07-6-19.9H424a11.26,11.26,0,0,0,7.42-2.77Z" transform="translate(0 0)" style="fill: #a7a9ac"/>
                <path d="M314.08,85.37l-6,19.91-1.94-2a6.89,6.89,0,0,0-9.75-.08l-.66.71,6.23-20.82a11.27,11.27,0,0,0,6.81,2.28Z" transform="translate(0 0)" style="fill: #a7a9ac"/>
                <path d="M301.93,83.09a11.27,11.27,0,0,0,6.81,2.28H424a11.26,11.26,0,0,0,7.42-2.77l0-.12A11.18,11.18,0,0,0,435,74v-.24A11.12,11.12,0,0,0,424,62.37H308.74A11.66,11.66,0,0,0,297,73.75V74a11.47,11.47,0,0,0,4.73,9.1" transform="translate(0 0)" style="fill: #645551"/>
                <path d="M310.32,107.64,308,105.28l-1.94-2a6.89,6.89,0,0,0-9.75-.08l-.66.71-3.55,3.77a2.2,2.2,0,0,0,1.41,3.69h15.35A2.23,2.23,0,0,0,310.32,107.64Z" transform="translate(0 0)" style="fill: #c4c4c4"/>
                <path d="M441.32,107.64,437.8,104l-.69-.72a6.89,6.89,0,0,0-9.75-.08l-1.94,2.07-2.27,2.41a2.2,2.2,0,0,0,1.41,3.69h15.35A2.23,2.23,0,0,0,441.32,107.64Z" transform="translate(0 0)" style="fill: #c4c4c4"/>
              </g>
            </g>
            <g>
              <path d="M256.23,331.68a10.61,10.61,0,0,0-1.73-4.62q-2-2.77-6.27-2.77-6.06,0-8.29,6a24.92,24.92,0,0,0-1.18,8.46,22.91,22.91,0,0,0,1.18,8.08q2.15,5.71,8.08,5.71,4.21,0,6-2.27a11.28,11.28,0,0,0,2.15-5.88h12.22a20,20,0,0,1-4,10.33q-5.63,7.85-16.69,7.85T231.46,356q-5.21-6.55-5.21-17,0-11.78,5.76-18.33t15.89-6.55q8.62,0,14.1,3.86t6.49,13.65Z" transform="translate(0 0)" style="fill: #fff"/>
              <path d="M288.9,361h-12v-61.9h12Z" transform="translate(0 0)" style="fill: #fff"/>
              <path d="M318.7,333.2a18.92,18.92,0,0,0,4.78-1q2.58-1.09,2.58-3.4a4,4,0,0,0-2-3.88,12.5,12.5,0,0,0-5.81-1.07q-4.3,0-6.09,2.1a8.65,8.65,0,0,0-1.7,4.2H298.94a17.51,17.51,0,0,1,3.37-9.87q4.77-6,16.36-6a29.18,29.18,0,0,1,13.41,3q5.86,3,5.86,11.25v21q0,2.18.08,5.29a6.64,6.64,0,0,0,.71,3.19,4.28,4.28,0,0,0,1.76,1.39V361h-13a13.27,13.27,0,0,1-.76-2.6q-.21-1.22-.34-2.77a24.7,24.7,0,0,1-5.74,4.58,17.36,17.36,0,0,1-8.79,2.23,15.15,15.15,0,0,1-10.33-3.55q-4.08-3.55-4.08-10.06,0-8.44,6.56-12.22,3.6-2.06,10.58-2.94Zm7.32,5.58a13.15,13.15,0,0,1-2.32,1.15,19.53,19.53,0,0,1-3.21.82l-2.72.5a17.93,17.93,0,0,0-5.5,1.64,5.47,5.47,0,0,0-2.83,5.08,5.31,5.31,0,0,0,1.73,4.43,6.57,6.57,0,0,0,4.2,1.36,12.51,12.51,0,0,0,7.23-2.27q3.3-2.27,3.43-8.27Z" transform="translate(0 0)" style="fill: #fff"/>
              <path d="M357.68,346.42a8,8,0,0,0,1.65,4.54q2.24,2.39,8.27,2.39a12.65,12.65,0,0,0,5.63-1,3.52,3.52,0,0,0,.41-6.21q-1.68-1-12.52-3.61-7.8-1.93-11-4.83t-3.19-8.23a14.27,14.27,0,0,1,5-10.9q5-4.56,14-4.56,8.58,0,14,3.42t6.21,11.82h-12a7.08,7.08,0,0,0-1.3-3.65q-2-2.43-6.74-2.44-3.92,0-5.58,1.22a3.5,3.5,0,0,0-1.66,2.86,3.12,3.12,0,0,0,1.77,3q1.77,1,12.5,3.32,7.15,1.68,10.72,5.08a11.54,11.54,0,0,1,3.53,8.61,13.9,13.9,0,0,1-5.07,11.11q-5.07,4.3-15.67,4.3-10.81,0-16-4.56a14.81,14.81,0,0,1-5.15-11.61Z" transform="translate(0 0)" style="fill: #fff"/>
              <path d="M405.51,346.42a8,8,0,0,0,1.65,4.54q2.24,2.39,8.27,2.39a12.65,12.65,0,0,0,5.63-1,3.52,3.52,0,0,0,.41-6.21q-1.68-1-12.52-3.61-7.8-1.93-11-4.83t-3.19-8.23a14.27,14.27,0,0,1,5-10.9q5-4.56,14-4.56,8.58,0,14,3.42T434,329.21H422a7.08,7.08,0,0,0-1.3-3.65q-2-2.43-6.74-2.44-3.92,0-5.58,1.22a3.5,3.5,0,0,0-1.66,2.86,3.12,3.12,0,0,0,1.77,3q1.77,1,12.5,3.32,7.15,1.68,10.72,5.08a11.54,11.54,0,0,1,3.53,8.61,13.9,13.9,0,0,1-5.07,11.11q-5.07,4.3-15.67,4.3-10.81,0-16-4.56a14.81,14.81,0,0,1-5.15-11.61Z" transform="translate(0 0)" style="fill: #fff"/>
              <path d="M456.36,309.81H444.23v-11h12.14Zm-12.14,5.46h12.14V361H444.23Z" transform="translate(0 0)" style="fill: #fff"/>
              <path d="M495.33,331.68a10.61,10.61,0,0,0-1.73-4.62q-2-2.77-6.27-2.77-6.06,0-8.29,6a24.92,24.92,0,0,0-1.18,8.46,22.91,22.91,0,0,0,1.18,8.08q2.15,5.71,8.08,5.71,4.21,0,6-2.27a11.28,11.28,0,0,0,2.15-5.88h12.22a20,20,0,0,1-4,10.33q-5.63,7.85-16.69,7.85T470.56,356q-5.21-6.55-5.21-17,0-11.78,5.76-18.33T487,314.17q8.62,0,14.1,3.86t6.49,13.65Z" transform="translate(0 0)" style="fill: #fff"/>
            </g>
          </g>
        </g>
      </g>
    </g>
  </g>
</svg>
