<svg xmlns="http://www.w3.org/2000/svg" xmlns:xlink="http://www.w3.org/1999/xlink" viewBox="0 0 733.46 568.34" class="standard-border-radius">
  <defs>
    <linearGradient id="linear-gradient" x1="24.04" y1="289.37" x2="708.04" y2="289.37" gradientUnits="userSpaceOnUse">
      <stop offset="0" stop-color="#f7f7f7"/>
      <stop offset="1" stop-color="#ccc"/>
    </linearGradient>
  </defs>
  <title>suitcase_modern_closed</title>
  <g style="isolation: isolate">
    <g id="Layer_2" data-name="Layer 2">
      <g id="Layer_3" data-name="Layer 3">
        <g id="Layer_5" data-name="Layer 5">
          <g>
            <image width="930" height="620" transform="translate(0) scale(0.79 0.92)" xlink:href="assets/wall_paper/wallpaper_background_modern.png"/>
            <path d="M689.54,120.69s.45,0,.43-.05c-6.66-4.29-6.32-4.29.34,0,0,0,.14,0,.16.05v-.11L639.8,87.12c-7-4.73-15.36-5.75-23.85-5.75H440.47l-3.89-12.86h0s2.46-7,2.46-10.56v-.26c0-6.7-3.22-10.32-9.93-10.32h-123C299.43,47.37,291,51,291,57.69v.26c0,4,3.87,9.43,6.83,11.56l-2.3,11.86H122.23c-8.48,0-16.79.89-23.83,5.61L48.54,119.44l0-.28s-.95-.14-1-.13C34.16,126.21,24,140.23,24,156.54V486.3c0,23.57,21.06,45.07,44.63,45.07h598.7c23.57,0,40.67-21.49,40.67-45.07V156.54C708,141.51,701.28,128.3,689.54,120.69ZM311.83,72.37H424.21l2.59,9H309.24Z" transform="translate(0)" style="mix-blend-mode: multiply;fill: url(#linear-gradient)"/>
            <path d="M668.91,132.06s0,0,0,0a39.64,39.64,0,0,0-21.59-6.36A39.86,39.86,0,0,1,669,132l.07,0,0,0-.07,0-28.14-19.33,0,0L621.52,99.68a39.73,39.73,0,0,0-22.36-6.31H434.72L431,82.13V82l.14-.18A11.47,11.47,0,0,0,435,73.27V73c0-6.28-4.68-10.66-11-10.66H308.84c-6.28,0-11.8,4.38-11.8,10.66v.24c0,3.72,2.06,8.1,4.83,10.1H302c1.9,0,4,1.42,7,1.42v-.07c-3,0-5-.52-6.91-2L299,93.37H136.53c-7.95,0-15.73,1.76-22.33,6.18L94,112.8l0-.07L67.48,130.36h-.12A40.09,40.09,0,0,0,46,165.65v309c0,22.09,18.21,40.72,40.3,40.72h561c22.09,0,39.7-18.63,39.7-40.72v-309A39.84,39.84,0,0,0,668.91,132.06ZM314.18,85.37H419.49l2.42,8H311.76Z" transform="translate(0)" style="fill: #b89065"/>
            <g>
              <g>
                <path d="M107.23,126.37h-21A39.8,39.8,0,0,0,67.47,131l-.07,0,0,0L93.9,113.36l0,0,0,0C98.63,113.36,107.23,120.45,107.23,126.37Z" transform="translate(0)" style="fill: #c4c4c4"/>
                <path d="M652.9,452.37C639,452.37,627,463.14,627,477v38.33h20.19a39.84,39.84,0,0,0,39.81-40v-23Zm10.84,37.51a8.5,8.5,0,1,1,2.49-6A8.48,8.48,0,0,1,663.74,489.88Z" transform="translate(0)" style="fill: #a7a9ac"/>
                <path d="M668.85,132.78s0,0,0,0a39.68,39.68,0,0,0-21.6-6.36H627v39c0,11,9.64,21,20.69,21H687v-20A39.88,39.88,0,0,0,668.85,132.78Zm-5.11,29.1a8.5,8.5,0,1,1,2.49-6A8.48,8.48,0,0,1,663.74,161.88Z" transform="translate(0)" style="fill: #a7a9ac"/>
                <path d="M82.56,452.37H46v23a40.17,40.17,0,0,0,40.19,40H107V477C107,463.14,96.46,452.37,82.56,452.37Zm.18,37.51a8.5,8.5,0,1,1,2.49-6A8.48,8.48,0,0,1,82.74,489.88Z" transform="translate(0)" style="fill: #a7a9ac"/>
                <path d="M86.23,126.37A39.8,39.8,0,0,0,67.47,131l-.17,0A40.06,40.06,0,0,0,46,166.37v21h.36l41.23-.91c11.05,0,19.4-10,19.4-21.09v-39Zm-3.49,35.51a8.5,8.5,0,1,1,2.49-6A8.48,8.48,0,0,1,82.74,161.88Z" transform="translate(0)" style="fill: #a7a9ac"/>
                <path d="M687,186.37v266H652.9C639,452.37,627,463.14,627,477v38.33H600v-389h27v39c0,11,9.64,21,20.69,21Z" transform="translate(0)" style="fill: #b89065"/>
                <rect x="189.04" y="126.37" width="357" height="389" style="fill: #b89065"/>
                <path d="M135,126.37v389H107V477c0-13.9-10.58-24.67-24.48-24.67H46v-265h.36l41.23-.91c11.05,0,19.4-10,19.4-21.09v-39Z" transform="translate(0)" style="fill: #b89065"/>
                <path d="M669,132.73l0,0-.07,0a39.84,39.84,0,0,0-21.65-6.36h-20c0-5.92,8.81-13,13.49-13l0,0,0,0,28.14,19.33Z" transform="translate(0)" style="fill: #c4c4c4"/>
                <path d="M640.74,113.33l0,0c-4.68,0-13.49,7.1-13.49,13h-27L560,93.42v0h39A40.06,40.06,0,0,1,621.41,100Z" transform="translate(0)" style="fill: #caac8b"/>
                <polygon points="546.23 126.37 189.23 126.37 226.04 93.4 226.04 93.37 509.04 93.37 509.04 93.46 546.23 126.37" style="fill: #caac8b"/>
                <path d="M175,93.37v0l-39.81,33h-28c0-5.92-8.6-13-13.28-13l0,0,20.16-13.43a39.92,39.92,0,0,1,22.33-6.54Z" transform="translate(0)" style="fill: #caac8b"/>
                <rect x="546.04" y="126.37" width="54" height="389" style="fill: #a6743e"/>
                <rect x="135.04" y="126.37" width="54" height="389" style="fill: #a6743e"/>
                <path d="M560,93.42v0H509v.09l37.19,32.91h54Zm2.93,22h-7.13a5.82,5.82,0,0,1-3.87-1.26l-7.17-5.89c-2.13-1.81-.86-4.85,1.94-4.85H553a5.68,5.68,0,0,1,3.62.8l8.13,5.75A3,3,0,0,1,563,115.37Z" transform="translate(0)" style="fill: #b89065"/>
                <path d="M175,93.37v0l-39.81,33h54L226,93.4v0Zm16.62,14.88-7.17,5.64a6,6,0,0,1-3.87,1.48h-7.13a2.89,2.89,0,0,1-1.81-5.23l8.13-6a5.67,5.67,0,0,1,3.62-.78h6.29C192.52,103.37,193.79,106.44,191.66,108.25Z" transform="translate(0)" style="fill: #b89065"/>
                <path d="M666.23,483.87a8.5,8.5,0,1,1-8.5-8.5A8.48,8.48,0,0,1,666.23,483.87Z" transform="translate(0)" style="fill: gray"/>
                <path d="M85.23,483.87a8.5,8.5,0,1,1-8.5-8.5A8.48,8.48,0,0,1,85.23,483.87Z" transform="translate(0)" style="fill: gray"/>
                <path d="M85.23,155.87a8.5,8.5,0,1,1-8.5-8.5A8.48,8.48,0,0,1,85.23,155.87Z" transform="translate(0)" style="fill: gray"/>
                <path d="M666.23,155.87a8.5,8.5,0,1,1-8.5-8.5A8.48,8.48,0,0,1,666.23,155.87Z" transform="translate(0)" style="fill: gray"/>
                <path d="M563,115.37h-7.13a5.82,5.82,0,0,1-3.87-1.26l-7.17-5.89c-2.13-1.81-.86-4.85,1.94-4.85H553a5.68,5.68,0,0,1,3.62.8l8.13,5.75A3,3,0,0,1,563,115.37Z" transform="translate(0)" style="fill: gray"/>
                <path d="M191.66,108.25l-7.17,5.64a6,6,0,0,1-3.87,1.48h-7.13a2.89,2.89,0,0,1-1.81-5.23l8.13-6a5.67,5.67,0,0,1,3.62-.78h6.29C192.52,103.37,193.79,106.44,191.66,108.25Z" transform="translate(0)" style="fill: gray"/>
              </g>
              <polygon points="310.53 109.87 326.98 93.37 314.23 93.37 310.91 95.84 302.73 99.5 310.53 109.87" style="fill: #b89065"/>
              <polygon points="423.18 109.87 406.73 93.37 419.48 93.37 422.81 95.84 430.98 99.5 423.18 109.87" style="fill: #b89065"/>
              <g>
                <path d="M437.8,104l-.69-.72a6.89,6.89,0,0,0-9.75-.08l-1.94,2.07-6-19.9H424a11.26,11.26,0,0,0,7.42-2.77Z" transform="translate(0)" style="fill: #a7a9ac"/>
                <path d="M314.08,85.37l-6,19.91-1.94-2a6.89,6.89,0,0,0-9.75-.08l-.66.71,6.23-20.82a11.27,11.27,0,0,0,6.81,2.28Z" transform="translate(0)" style="fill: #a7a9ac"/>
                <path d="M301.93,83.09a11.27,11.27,0,0,0,6.81,2.28H424a11.26,11.26,0,0,0,7.42-2.77l0-.12A11.18,11.18,0,0,0,435,74v-.24A11.12,11.12,0,0,0,424,62.37H308.74A11.66,11.66,0,0,0,297,73.75V74a11.47,11.47,0,0,0,4.73,9.1" transform="translate(0)" style="fill: #645551"/>
                <path d="M310.32,107.64,308,105.28l-1.94-2a6.89,6.89,0,0,0-9.75-.08l-.66.71-3.55,3.77a2.2,2.2,0,0,0,1.41,3.69h15.35A2.23,2.23,0,0,0,310.32,107.64Z" transform="translate(0)" style="fill: #c4c4c4"/>
                <path d="M441.32,107.64,437.8,104l-.69-.72a6.89,6.89,0,0,0-9.75-.08l-1.94,2.07-2.27,2.41a2.2,2.2,0,0,0,1.41,3.69h15.35A2.23,2.23,0,0,0,441.32,107.64Z" transform="translate(0)" style="fill: #c4c4c4"/>
              </g>
            </g>
            <g>
              <path d="M273.75,309.43a13.33,13.33,0,0,1,5.33,4.12,13.17,13.17,0,0,1,2.6,5.88,40.73,40.73,0,0,1,.42,6.76L282,355H269.76V325.89a9.58,9.58,0,0,0-.84-4.28q-1.6-3.19-5.88-3.19-5,0-6.84,4.12a12.92,12.92,0,0,0-1,5.25V355H243.18V327.78a15.32,15.32,0,0,0-.84-5.92q-1.51-3.32-5.92-3.32-5.12,0-6.89,3.32a12.78,12.78,0,0,0-1,5.63V355H216.43V309.35h11.63V316a19.26,19.26,0,0,1,4.2-5.08,16.61,16.61,0,0,1,17.51-.38,13.45,13.45,0,0,1,3.95,5.5,15.21,15.21,0,0,1,5.84-5.92,17.81,17.81,0,0,1,8.23-1.89A16,16,0,0,1,273.75,309.43Z" transform="translate(0)" style="fill: #fff"/>
              <path d="M331.27,349.44q-5.79,7.15-17.59,7.15t-17.59-7.15a28.4,28.4,0,0,1,0-34.38q5.79-7.26,17.59-7.26t17.59,7.26a28.4,28.4,0,0,1,0,34.38Zm-9.57-6.61q2.81-3.73,2.81-10.61t-2.81-10.59a10.64,10.64,0,0,0-16.15,0q-2.83,3.71-2.83,10.59t2.83,10.61a10.6,10.6,0,0,0,16.15,0Z" transform="translate(0)" style="fill: #fff"/>
              <path d="M369.91,310a14.56,14.56,0,0,1,5.25,5.06V293.22h12.14V355H375.66V348.7a16.87,16.87,0,0,1-5.84,5.92,16.38,16.38,0,0,1-8.15,1.85,17,17,0,0,1-13.5-6.49q-5.48-6.49-5.48-16.65,0-11.72,5.4-18.44a17.56,17.56,0,0,1,14.42-6.72A14.77,14.77,0,0,1,369.91,310Zm2.94,32.61a16.69,16.69,0,0,0,2.65-9.78q0-8.4-4.24-12a9.13,9.13,0,0,0-6-2.18q-5.25,0-7.71,4a18.4,18.4,0,0,0-2.46,9.85q0,6.34,2.5,10.14a8.45,8.45,0,0,0,7.58,3.8A8.84,8.84,0,0,0,372.85,342.61Z" transform="translate(0)" style="fill: #fff"/>
              <path d="M428,310.19A18.62,18.62,0,0,1,435.9,317a22.5,22.5,0,0,1,3.65,9.46,58.52,58.52,0,0,1,.39,9.08H406.61q.28,6.89,4.79,9.66a12.15,12.15,0,0,0,6.6,1.72,9.3,9.3,0,0,0,9.11-5.25h12.22q-.48,4.07-4.44,8.27-6.15,6.68-17.22,6.68A24.94,24.94,0,0,1,401.54,351q-7-5.63-7-18.32,0-11.89,6.31-18.24T417.23,308A26.06,26.06,0,0,1,428,310.19Zm-17.9,10.34a12.44,12.44,0,0,0-3.19,7.09h20.62a10,10,0,0,0-3.19-7.23,10.49,10.49,0,0,0-7.1-2.47A9.49,9.49,0,0,0,410.09,320.53Z" transform="translate(0)" style="fill: #fff"/>
              <path d="M471.42,308.19l1,.06v12.26c-.76-.08-1.43-.14-2-.17s-1.06,0-1.43,0q-7.22,0-9.7,4.7-1.39,2.65-1.39,8.15V355H445.87V309.27h11.42v8a25.29,25.29,0,0,1,4.83-6.26,13.15,13.15,0,0,1,8.73-2.81Z" transform="translate(0)" style="fill: #fff"/>
              <path d="M516.37,311.89q4.49,3.71,4.5,12.32V355H508.61V327.2a12.77,12.77,0,0,0-1-5.54q-1.75-3.53-6.67-3.53-6,0-8.3,5.16a17.86,17.86,0,0,0-1.17,7V355h-12V309.35h11.59V316a20.3,20.3,0,0,1,4.35-5.08,15.07,15.07,0,0,1,9.33-2.77Q511.88,308.17,516.37,311.89Z" transform="translate(0)" style="fill: #fff"/>
            </g>
          </g>
        </g>
      </g>
    </g>
  </g>
</svg>
