<svg xmlns="http://www.w3.org/2000/svg" xmlns:xlink="http://www.w3.org/1999/xlink" viewBox="0 0 733.46 568.34">
  <defs>
    <style>
      .cls-1, .cls-18, .cls-19 {
        fill: none;
      }

      .cls-2 {
        fill: #aae0f8;
      }

      .cls-3 {
        fill: #caac8b;
      }

      .cls-4 {
        fill: #a7a9ac;
      }

      .cls-5 {
        fill: #a6743e;
      }

      .cls-6 {
        fill: #997458;
      }

      .cls-7 {
        fill: #84644a;
      }

      .cls-8 {
        fill: #b89065;
      }

      .cls-9 {
        fill: #443a38;
      }

      .cls-10 {
        fill: #666;
      }

      .cls-11 {
        fill: gray;
      }

      .cls-12 {
        fill: #645551;
      }

      .cls-13 {
        fill: #936538;
      }

      .cls-14 {
        fill: #0a9796;
      }

      .cls-15 {
        fill: #b5a77f;
      }

      .cls-16 {
        fill: #a9140a;
      }

      .cls-17 {
        fill: #352d2c;
      }

      .cls-18, .cls-19 {
        stroke: #fff;
      }

      .cls-18, .cls-19, .cls-33 {
        stroke-miterlimit: 10;
      }

      .cls-18 {
        stroke-width: 10px;
      }

      .cls-19 {
        stroke-width: 8px;
      }

      .cls-20 {
        fill: url(#linear-gradient);
      }

      .cls-21 {
        fill: url(#linear-gradient-2);
      }

      .cls-22 {
        fill: url(#linear-gradient-3);
      }

      .cls-23 {
        fill: url(#linear-gradient-4);
      }

      .cls-24 {
        fill: #e6e6e6;
      }

      .cls-25 {
        fill: #ccc;
      }

      .cls-26 {
        fill: #333;
      }

      .cls-27 {
        fill: #1a1a1a;
      }

      .cls-28 {
        fill: #fff;
      }

      .cls-29 {
        clip-path: url(#clip-path);
      }

      .cls-30 {
        fill: #c67a66;
      }

      .cls-31 {
        fill: #5e3831;
      }

      .cls-32 {
        opacity: 0.8;
      }

      .cls-33, .cls-34 {
        fill: #f4987a;
      }

      .cls-33 {
        stroke: #485967;
        stroke-width: 4px;
      }
    </style>
    <linearGradient id="linear-gradient" x1="583.36" y1="310.38" x2="628.22" y2="310.38" gradientUnits="userSpaceOnUse">
      <stop offset="0.21" stop-color="#353154"/>
      <stop offset="1" stop-color="#130e32"/>
    </linearGradient>
    <linearGradient id="linear-gradient-2" x1="478.26" y1="291.05" x2="612.76" y2="291.05" gradientUnits="userSpaceOnUse">
      <stop offset="0.5" stop-color="#353154"/>
      <stop offset="1" stop-color="#130e32"/>
    </linearGradient>
    <linearGradient id="linear-gradient-3" x1="378.68" y1="290.07" x2="487.92" y2="290.07" xlink:href="#linear-gradient-2"/>
    <linearGradient id="linear-gradient-4" x1="369.53" y1="306.88" x2="415.14" y2="306.88" gradientUnits="userSpaceOnUse">
      <stop offset="0.16" stop-color="#353154"/>
      <stop offset="1" stop-color="#130e32"/>
    </linearGradient>
    <clipPath id="clip-path">
      <polygon class="cls-1" points="208.33 375.89 87.47 375.51 83.98 279.42 208.33 278.11 208.33 375.89"/>
    </clipPath>
  </defs>
  <title>suitcase_classic_open</title>
  <g id="Layer_2" data-name="Layer 2">
    <g id="suitcasee_classic">
      <rect class="cls-2" width="733.46" height="568.34"/>
      <path class="cls-3" d="M680.46,376.77l-53.9-54.46,31.24-207v-.21l.5-3.16A33.62,33.62,0,0,0,624.9,73.37H109.67A33.69,33.69,0,0,0,76.33,112.5l.47,2.8,0,0v.06l33.93,207L54,376.77c-.49,0-1,0-1,.46V478.66c0,21.68,17.67,39.71,39.35,39.71H642c21.68,0,39-18,39-39.71V377.23C681,376.73,681,376.77,680.46,376.77ZM549.48,62l-.32.09ZM176.41,62l-.32.09Z"/>
      <g>
        <path class="cls-3" d="M155,376.37v142H116V497c0-16.55-14.36-29.67-30.91-29.67H53V377.23a.8.8,0,0,1,.77-.85Z"/>
        <path class="cls-4" d="M115.3,490.23v28.14H79.9a27.31,27.31,0,0,1-27.23-27.23v-23.6H92.61A22.76,22.76,0,0,1,115.3,490.23Z"/>
        <path class="cls-3" d="M205,376.37v142H529v-142ZM436.2,459.66c-.06.23-.13.44-.21.66s-.11.33-.16.49-.15.37-.23.55a2.22,2.22,0,0,1-.09.22c-.08.19-.16.37-.25.55s-.07.16-.12.25-.16.34-.26.52l-.15.27c0,.09-.1.17-.15.25s-.26.44-.41.66-.16.26-.25.39-.17.26-.27.39l-.21.28c-.2.26-.41.53-.63.78a13,13,0,0,1-.89,1q-.37.38-.76.74c-.23.21-.45.41-.7.6l-.23.18c-.2.15-.41.32-.63.46a11.48,11.48,0,0,1-1,.65,10.3,10.3,0,0,1-2.15,1.41c-.05,0,.55,0,.55.05h0l-.8,0c-.22.08-.79.15-1,.23s-.75.18-1,.25h-.1c-.27.08-.59.15-.88.2l-.3.05-.29.05-.11,0h-.18l-.22,0c-.22,0-.44.21-.65.23a16.11,16.11,0,0,1-1.76.24H314.38a17.5,17.5,0,0,1,0-35H419.68c.6,0,1.19.13,1.77.19.29,0,.58.11.86.15a17.47,17.47,0,0,1,4.08,1.09c.25.1.52.22.76.34l.56.27.1.06.63.34.22.13a12.68,12.68,0,0,1,1.19.77c.14.09.26.19.39.29a2.12,2.12,0,0,1,.28.22,1.41,1.41,0,0,1,.18.15,14.28,14.28,0,0,1,1.17,1.05,17.37,17.37,0,0,1,3.69,5.54c.09.22.18.44.26.67s.15.44.23.68.15.45.21.69a15.88,15.88,0,0,1,.45,2.1c0,.07.09.15.1.21a10.17,10.17,0,0,1,.21,1.48v.06c0,.25-.11.51-.11.76s.1.59.09.89c0,.07,0,.15,0,.24v.07a6.85,6.85,0,0,1-.15.84,3.87,3.87,0,0,1-.08.44,4.34,4.34,0,0,1-.11.52c0,.07,0,.14-.05.21a2.09,2.09,0,0,1-.09.4c0,.21-.09.43-.13.64S436.28,459.39,436.2,459.66Z"/>
        <path class="cls-5" d="M155,376.37v142h50v-142Zm25,94.35a18.06,18.06,0,0,1-18-18.15V444.4a18.5,18.5,0,0,1-.12-1.85,18.19,18.19,0,0,1,5.22-11,17.9,17.9,0,0,1,5.77-3.89,18.5,18.5,0,0,1,5.35-1.34l.8-.05.81,0,.93,0,.78.05a17.8,17.8,0,0,1,15.13,11.51,18.4,18.4,0,0,1,.83,2.9c.12.59.27,1.19.34,1.81a17.75,17.75,0,0,1,.16,1.85v8.17a17.87,17.87,0,0,1-5,12.83A18.26,18.26,0,0,1,180.07,470.72Z"/>
        <path class="cls-1" d="M178.22,426.32a18.68,18.68,0,0,0-5.37,1.34A17.38,17.38,0,0,1,178.22,426.32Z"/>
        <path class="cls-1" d="M422.31,471.87a15.3,15.3,0,0,0,1.68-.34l-.84.2-.28.05-.39.07h-.09l-.3,0-.65.08C421.73,472,422,471.92,422.31,471.87Z"/>
        <path class="cls-1" d="M431.88,442.53a17,17,0,0,0-10.43-4.87c.29,0,.57.05.86.1a17.43,17.43,0,0,1,4.08,1.06l.76.33.56.26.1.05.63.34.22.13a12.67,12.67,0,0,1,1.19.77c.14.09.26.19.39.29a2.12,2.12,0,0,1,.28.22,1.41,1.41,0,0,1,.18.15,14.28,14.28,0,0,1,1.17,1.05,17.37,17.37,0,0,1,3.69,5.54A17.36,17.36,0,0,0,431.88,442.53Z"/>
        <path class="cls-1" d="M437,454.61v.12c0,.25-.06.52-.07.77,0,.41-.09.82-.14,1.22a15.5,15.5,0,0,1-.39,2.14,11.9,11.9,0,0,1-.43,1.47l-.17.49c-.07.19-.15.37-.23.55a2.23,2.23,0,0,1-.09.22c-.08.19-.16.37-.25.55s-.07.16-.12.25-.16.34-.26.52l-.15.27c0,.09-.1.17-.15.25l-.41.66c-.08.13-.16.26-.25.39s-.17.26-.27.39l-.21.28c-.2.26-.41.53-.63.78a13,13,0,0,1-.89,1q-.37.38-.76.74c-.23.21-.46.41-.7.6l-.23.18c-.21.16-.41.32-.63.46a11.48,11.48,0,0,1-1,.65,17.28,17.28,0,0,1-4.62,2,17.55,17.55,0,0,0,12.54-13.31,2.05,2.05,0,0,0,.07-.4l0-.21a4.52,4.52,0,0,0,.05-.52c0-.15.18-.29.18-.44a6.85,6.85,0,0,0,.15-.84v-.07c0-.08,0-.16,0-.24,0-.3,0-.59,0-.89s0-.51,0-.76C437,454.1,437,454.35,437,454.61Z"/>
        <path class="cls-3" d="M681,377.23v90.15h-31.1A29.66,29.66,0,0,0,620,497v21.33H578v-142H680.34C680.84,376.37,681,376.73,681,377.23Z"/>
        <path class="cls-5" d="M529,376.37v142h49v-142Zm24.08,94.35A18.08,18.08,0,0,1,535,452.56V444.4a14.64,14.64,0,0,1,5.15-12.83,17.93,17.93,0,0,1,5.78-3.89,18.53,18.53,0,0,1,5.35-1.34l.81-.05.81,0,.93,0,.78.05a17.8,17.8,0,0,1,15.13,11.51,18.4,18.4,0,0,1,.83,2.9c.12.59.24,1.19.31,1.81a17.76,17.76,0,0,1,.12,1.85v8.17a17.86,17.86,0,0,1-5,12.83A18.22,18.22,0,0,1,553.11,470.72Z"/>
        <path class="cls-1" d="M551.28,426.32a18.68,18.68,0,0,0-5.37,1.34A17.38,17.38,0,0,1,551.28,426.32Z"/>
        <path class="cls-4" d="M680.79,467.54v23.6a27.31,27.31,0,0,1-27.23,27.23H620V490.23a22.69,22.69,0,0,1,22.69-22.69Z"/>
        <polygon class="cls-6" points="111.21 376.37 53.8 376.37 110.76 321.91 111.21 376.37"/>
        <polygon class="cls-6" points="626.03 376.37 626.03 376.32 626.15 322.37 626.5 322.37 680.34 376.37 626.03 376.37"/>
        <polygon class="cls-7" points="626.03 376.32 626.03 376.37 111.21 376.37 110.76 322.37 626.15 322.37 626.03 376.32"/>
        <polygon class="cls-5" points="578.03 73.37 578.03 115.37 529.03 115.37 529.03 73.37 534.17 73.37 535.11 89.37 570.51 89.37 571.45 73.37 578.03 73.37"/>
        <polygon class="cls-5" points="205.03 73.37 205.03 115.37 155.03 115.37 155.03 73.37 161.11 73.37 162.05 89.37 197.45 89.37 198.38 73.37 205.03 73.37"/>
        <polygon class="cls-6" points="625.52 322.37 111.72 322.37 149.22 304.7 587.84 304.81 625.52 322.37"/>
        <path class="cls-3" d="M155,73.37v42H76.83v-.05l0,0-.47-2.86a33.7,33.7,0,0,1,33.34-39.13Z"/>
        <path class="cls-3" d="M658.3,112l-.51,3.12,0,.27H578v-42H624.9A33.61,33.61,0,0,1,658.3,112Z"/>
        <rect class="cls-3" x="205.03" y="73.37" width="324" height="42"/>
        <polygon class="cls-8" points="657.77 115.37 626.5 322.37 625.52 322.37 587.84 304.8 619.57 115.37 657.77 115.37"/>
        <polygon class="cls-8" points="149.22 304.7 111.72 322.37 110.76 322.37 76.83 115.37 114.5 115.37 149.22 304.7"/>
        <polygon class="cls-7" points="619.57 115.37 587.84 304.77 149.22 304.68 114.5 115.37 619.57 115.37"/>
        <polyline class="cls-1" points="626.15 322.31 626.15 321.86 625.3 321.4"/>
        <line class="cls-1" x1="111.72" y1="321.4" x2="110.76" y2="321.86"/>
        <polyline class="cls-1" points="657.77 115.36 657.79 115.36 658.1 115.36"/>
        <polyline class="cls-1" points="76.27 115.36 76.8 115.36 76.83 115.36"/>
        <path class="cls-9" d="M441,457.41v.06c0,.25-.29.51-.29.76s.19.59.18.89c0,.07.11.15.11.24v.07c0,.28-.3.56-.33.84s-.15.29-.18.44a4.3,4.3,0,0,1-.15.52c0,.07-.07.14-.08.21a2.13,2.13,0,0,1-.1.4,17.56,17.56,0,0,1-12.55,13.31h0a15.35,15.35,0,0,1-1.68.34c-.29,0-.58.42-.87.45a16.6,16.6,0,0,1-1.76.42H318a17.5,17.5,0,0,1,0-35H423.31c.6,0,1.19,0,1.77,0a16.91,16.91,0,0,1,10.43,4.83,17.28,17.28,0,0,1,3.69,5.4c.09.22.18.44.26.66s.15.44.23.68.15.45.21.69a16.64,16.64,0,0,1,.7,2.1A12.08,12.08,0,0,1,441,457.41Z"/>
        <path class="cls-1" d="M437,454.61v.12c0,.25-.06.52-.07.77a16.46,16.46,0,0,1-.32,2.32c0-.07,0-.14,0-.21a4.55,4.55,0,0,0,0-.52c0-.15.17-.29.18-.44a6.83,6.83,0,0,0,.15-.84v-.07c0-.08,0-.16,0-.24,0-.3,0-.59,0-.89s0-.51,0-.76C437,454.1,437,454.35,437,454.61Z"/>
        <path class="cls-1" d="M436.72,452.09a15.88,15.88,0,0,0-.45-2.1c-.06-.24-.13-.46-.21-.69s-.15-.46-.23-.68a16,16,0,0,1,.93,3.68c.07.49.12,1,.15,1.48C436.87,453.21,436.81,452.65,436.72,452.09Z"/>
        <path class="cls-10" d="M574,445.06v8.65a19,19,0,1,1-38,0v-8.65a14.82,14.82,0,0,1,5.52-13.58,19,19,0,0,1,6-4.12,19.58,19.58,0,0,1,5.66-1.42l.85-.06.86,0,1,0,.82.06a19.05,19.05,0,0,1,16,12.18,19.47,19.47,0,0,1,.88,3.07c.12.62.24,1.26.31,1.91A18.81,18.81,0,0,1,574,445.06Z"/>
        <path class="cls-1" d="M551.28,426.32a18.68,18.68,0,0,0-5.37,1.34A17.38,17.38,0,0,1,551.28,426.32Z"/>
        <path class="cls-1" d="M178.22,426.32a18.68,18.68,0,0,0-5.37,1.34A17.38,17.38,0,0,1,178.22,426.32Z"/>
        <polygon class="cls-1" points="534.17 73.37 535.11 88.92 534.17 73.66 534.16 73.37 534.17 73.37"/>
        <path class="cls-1" d="M559.8,67.44l-.32,5.94H546.14L546,67.8v-.38A5.59,5.59,0,0,1,549.4,62c.29-.1.54-.4.84-.43s.27-.24.44-.24h4.25C557.75,61.37,560,64.32,559.8,67.44Z"/>
        <polygon class="cls-1" points="571.46 73.37 571.45 73.83 570.51 88.86 571.45 73.37 571.46 73.37"/>
        <polygon class="cls-1" points="161.11 73.37 162.05 88.92 161.11 73.66 161.09 73.37 161.11 73.37"/>
        <path class="cls-1" d="M186.74,67.44l-.32,5.94H173.07l0-5.57v-.38A5.57,5.57,0,0,1,176.37,62c.29-.1.52-.4.83-.43s.26-.24.43-.24h4.25C184.68,61.37,186.91,64.32,186.74,67.44Z"/>
        <polygon class="cls-1" points="198.4 73.37 198.38 73.83 197.45 88.86 198.38 73.37 198.4 73.37"/>
        <polygon class="cls-5" points="559.49 73.37 559.48 73.8 559.14 80.37 546.47 80.37 546.14 73.91 546.13 73.37 559.49 73.37"/>
        <path class="cls-1" d="M559.8,67.44l-.31,5.94H546.13l-.1-5.5v-.45A5.7,5.7,0,0,1,549.4,62c.29-.1.54-.4.84-.43s.27-.24.44-.24h4.25C557.75,61.37,560,64.32,559.8,67.44Z"/>
        <polygon class="cls-5" points="186.43 73.37 186.42 73.8 186.08 80.37 173.41 80.37 173.07 73.91 173.07 73.37 186.43 73.37"/>
        <path class="cls-1" d="M186.74,67.44l-.31,5.94H173.07l0-5.5v-.45A5.67,5.67,0,0,1,176.37,62c.29-.1.52-.4.83-.43s.26-.24.43-.24h4.25C184.68,61.37,186.91,64.32,186.74,67.44Z"/>
        <line class="cls-1" x1="680.79" y1="467.54" x2="680.79" y2="467.54"/>
        <line class="cls-1" x1="578.03" y1="376.37" x2="578.03" y2="375.37"/>
        <line class="cls-1" x1="529.03" y1="376.37" x2="529.03" y2="375.37"/>
        <line class="cls-1" x1="205.03" y1="376.37" x2="205.03" y2="375.37"/>
        <line class="cls-1" x1="155.03" y1="376.37" x2="155.03" y2="375.37"/>
        <path class="cls-11" d="M572,443.25v8.65a18.7,18.7,0,0,1-18.85,19.21A19.16,19.16,0,0,1,534,451.9v-8.65a19.21,19.21,0,0,1,0-2,19.62,19.62,0,0,1,5.69-11.62,19.14,19.14,0,0,1,6-4.12,19.66,19.66,0,0,1,5.67-1.42l.86-.06.86,0,1,0,.83.06a19.05,19.05,0,0,1,16,12.18,19.47,19.47,0,0,1,.88,3.07c.12.62.15,1.26.22,1.91A19,19,0,0,1,572,443.25Z"/>
        <path class="cls-10" d="M201,446v8.65a19,19,0,1,1-38,0V446c0-.66-.23-1.32-.16-2a19.54,19.54,0,0,1,5.63-11.62,19,19,0,0,1,6-4.12,19.56,19.56,0,0,1,5.65-1.42l.85-.06.86,0,1,0,.82.06a19,19,0,0,1,16,12.18,19.47,19.47,0,0,1,.88,3.07c.12.62.27,1.26.34,1.91A18.79,18.79,0,0,1,201,446Z"/>
        <path class="cls-11" d="M199,444.16v8.65A18.75,18.75,0,0,1,180.17,472,19.14,19.14,0,0,1,161,452.8v-8.65a19.32,19.32,0,0,1-.07-2,19.6,19.6,0,0,1,5.68-11.62,19.11,19.11,0,0,1,6-4.12,19.63,19.63,0,0,1,5.67-1.42l.85-.06.86,0,1,0,.82.06a19.05,19.05,0,0,1,16,12.18,19.47,19.47,0,0,1,.88,3.07c.12.62.18,1.26.25,1.91A18.9,18.9,0,0,1,199,444.16Z"/>
        <path class="cls-12" d="M437,453.78v.06c0,.25-.11.51-.11.76s.1.59.09.89c0,.07,0,.15,0,.24v.07a6.85,6.85,0,0,1-.15.84,3.87,3.87,0,0,1-.08.44,4.34,4.34,0,0,1-.11.52c0,.07,0,.14-.05.21a2.09,2.09,0,0,1-.09.4A17.56,17.56,0,0,1,424,471.53h0a15.33,15.33,0,0,1-1.68.34c-.29,0-.58.24-.87.26a16.12,16.12,0,0,1-1.76.24H314.38a17.5,17.5,0,0,1,0-35H419.68c.6,0,1.19.13,1.77.19a17,17,0,0,1,10.43,4.92,17.48,17.48,0,0,1,3.69,5.45c.09.22.18.46.26.69s.15.45.23.69.15.46.21.69a16,16,0,0,1,.52,2.1A11.65,11.65,0,0,1,437,453.78Z"/>
        <polygon class="cls-13" points="197.22 88.8 204.25 73.37 194.27 73.37 197.22 88.8"/>
        <polygon class="cls-13" points="173.18 79.73 177.25 73.37 168.85 73.37 173.18 79.73"/>
        <g>
          <polygon class="cls-13" points="535.34 88.8 528.3 73.37 538.29 73.37 535.34 88.8"/>
          <polygon class="cls-13" points="559.37 79.73 555.31 73.37 563.7 73.37 559.37 79.73"/>
        </g>
        <path class="cls-11" d="M185.67,45.37H173.82a13.46,13.46,0,0,0-13.59,14.29l.86,13.71h0l.93,16h35.4l.93-16h0l.86-13.83A13.37,13.37,0,0,0,185.67,45.37Zm.74,28.43-.34,6.57H173.41l-.34-6.46v-.54h0l0-5.57v-.38A5.57,5.57,0,0,1,176.37,62c.29-.1.59-.4.89-.43s.19-.24.36-.24h4.25c2.81,0,5,3,4.87,6.06l-.32,5.94h0Z"/>
        <path class="cls-11" d="M558.74,45.37H546.88a13.46,13.46,0,0,0-13.59,14.29l.86,13.71h0l.93,16h35.4l.93-16h0l.86-13.83A13.37,13.37,0,0,0,558.74,45.37Zm.74,28.43-.34,6.57H546.47l-.34-6.46v-.54h0L546,67.8v-.38A5.59,5.59,0,0,1,549.4,62c.29-.1.6-.4.91-.43s.21-.24.38-.24h4.25c2.81,0,5,3,4.87,6.06l-.32,5.94h0Z"/>
      </g>
      <line class="cls-1" x1="67.03" y1="364.37" x2="66.03" y2="364.37"/>
      <path class="cls-14" d="M394.94,347.37H87l-.63-.63c8.5-8.38,15.63-15.37,15.63-15.37H385Z"/>
      <path class="cls-15" d="M394.94,347.37H87l-.63-.63c-5.56,5.47-11.7,11.63-16.82,16.63H404.86Z"/>
      <path class="cls-16" d="M412.53,376.14,58.44,374.81c.87-1,5.35-5.44,11.14-11.44H404.86Z"/>
      <line class="cls-1" x1="588.03" y1="376.37" x2="588.03" y2="376.37"/>
      <path class="cls-1" d="M378.68,240.6l-.5.28"/>
      <path class="cls-17" d="M503.37,131.58a9.17,9.17,0,1,1-9.18-9.18A9.17,9.17,0,0,1,503.37,131.58Z"/>
      <path class="cls-18" d="M472.06,159.78l-84.73,84.7a9,9,0,0,0,6.38,15.41H587.79a9,9,0,0,0,6.45-15.34L511.46,160A27.72,27.72,0,0,0,472.06,159.78Z"/>
      <path class="cls-19" d="M494.1,149.35l7.62-8.16a11.17,11.17,0,0,0-3.18-17.53c-6-3.18-15.52-.6-18.38,9.21"/>
      <rect class="cls-1" x="462.37" y="135.37" width="70.15" height="24.5"/>
      <path class="cls-20" d="M628,376.37H585.28L583.52,280c-2.27-26.57,21.59-33.79,29.21-35.53l.18-.05,0,.09C631.11,279.3,628,376.37,628,376.37Z"/>
      <path class="cls-21" d="M612.51,244.15c-6.07-12.63-40.59-38.63-40.59-38.63l-.35.53c-5.74,42.48-79,124.33-91.5,138l-1.81,2.73,8.36,28.78v.5l100.83.48-1.12-96.26c-1.9-26.54,19.45-33.64,26.27-35.35l.16,0C612.68,244.69,612.6,244.33,612.51,244.15ZM488.72,355.88a5.59,5.59,0,1,1,5.56,5.62A5.6,5.6,0,0,1,488.72,355.88Z"/>
      <polyline class="cls-1" points="480.33 344.39 492.67 325.58 492.71 325.52 492.78 325.41 571.17 205.92"/>
      <path class="cls-22" d="M478.53,347.13l8.5,28.74v.5H411l-.5-99.83s-11.15-47.26-31.85-35.94c9.31-13.8,36.63-35.75,38-36.83,7.23,37,55.56,97.27,71.28,116.1l-9.39,26.5s.64-.69,1.8-2Z"/>
      <path class="cls-1" d="M492.86,325.88l-.19-.3-.25-.4-4.07-6.53L416.69,203.74l-.05,0"/>
      <path class="cls-23" d="M415.14,376.37H375.57s-14.51-97.74,1.44-133a24.68,24.68,0,0,1,2.57-4.22c22.75-11.44,35,36.32,35,36.32Z"/>
      <path class="cls-24" d="M523.45,176.5c2.24,4.31,3.49,6.34,1.43,11.75-.84,2.19-2,2.72-3.79,5.13a79.82,79.82,0,0,0-23.2-3.82,7.5,7.5,0,0,1-4.91,1.8,3.56,3.56,0,0,1-.46,0l-2.08,121.44,45-121L544.28,168Zm-23.24,26.86a3.51,3.51,0,1,1-3.68,3.51A3.59,3.59,0,0,1,500.21,203.36Zm.12,58a3.51,3.51,0,1,1,3.67-3.51A3.59,3.59,0,0,1,500.32,261.39Zm0-17a3.5,3.5,0,1,1,3.67-3.5A3.59,3.59,0,0,1,500.32,244.38Zm0-17a3.51,3.51,0,1,1,3.67-3.51A3.59,3.59,0,0,1,500.32,227.38Z"/>
      <polyline class="cls-1" points="541.76 167.96 545.67 166.69 545.91 166.61 545.83 166.83 490.4 315.31"/>
      <path class="cls-25" d="M495.14,190.33,490.8,316.77l-.8,2L444.47,164.45l20.42,7.61c-4.06,7.09-4.54,18.67-.21,24.48,14.16-4.17,25.82-7.87,25.82-7.87A8.4,8.4,0,0,0,495.14,190.33Z"/>
      <path class="cls-1" d="M490.44,312.77l0,2.54v.44a1,1,0,0,1-.2.6,1,1,0,0,1-1.14.33.94.94,0,0,1-.61-.67L446.58,164.37l.19.08"/>
      <path class="cls-11" d="M504.24,257.55a3.94,3.94,0,1,1-3.94-3.94A3.95,3.95,0,0,1,504.24,257.55Z"/>
      <path class="cls-11" d="M504.24,240.55a3.94,3.94,0,1,1-3.94-3.94A3.95,3.95,0,0,1,504.24,240.55Z"/>
      <path class="cls-11" d="M504.24,223.55a3.94,3.94,0,1,1-3.94-3.94A3.95,3.95,0,0,1,504.24,223.55Z"/>
      <path class="cls-11" d="M504.24,206.55a3.94,3.94,0,1,1-3.94-3.94A3.95,3.95,0,0,1,504.24,206.55Z"/>
      <circle class="cls-14" cx="494.09" cy="355.68" r="6.06"/>
      <g>
        <g>
          <path class="cls-26" d="M499.35,181.73a7,7,0,0,0-6.49-4.38,7.09,7.09,0,0,0-6.28,3.9,7,7,0,0,0,1.74,8.42,6.89,6.89,0,0,0,4.1,1.66,3.23,3.23,0,0,0,.44,0,7,7,0,0,0,6.49-9.62Z"/>
          <path class="cls-27" d="M524.51,174a30.67,30.67,0,0,0-4.44-6.26c-11.55,5.81-23,11-23,11a7,7,0,0,1,2.44,3,6.64,6.64,0,0,1,.53,2.62,6.83,6.83,0,0,1-2.43,5.2,178.29,178.29,0,0,1,23.9,5.82,27.82,27.82,0,0,0,4-6.88A17,17,0,0,0,524.51,174Z"/>
        </g>
        <path class="cls-27" d="M485.7,184.35a6.62,6.62,0,0,1,.77-3.1,7,7,0,0,1,1.86-2.22h0s-9.53-5.65-20.88-11.33a9.91,9.91,0,0,0-4.16,4.37c-3.81,7.09-3.28,19.67.79,25.48,13.3-4.17,24.25-7.87,24.25-7.87A6.76,6.76,0,0,1,485.7,184.35Z"/>
      </g>
      <path class="cls-28" d="M492.85,325.67a1.12,1.12,0,0,1-.14-.15l-.29-.34c-.71-.83-2.28-2.66-4.5-5.31C472.2,301,423.87,240.8,416.64,203.77a38.59,38.59,0,0,1-.61-12.9c1.52-10.32,30-29,30-29l.74,2.58,43,150.31.46,1.59,2.59,9.06Z"/>
      <path class="cls-28" d="M573.43,205.92c-5.67,42.51-80.3,124.7-93.05,138.47-1.19,1.29-1.84,2-1.84,2l9.62-26.5.44-1.22.72-2,.7-1.92.73-2,43.93-121L543.3,168l1.3-3.59s1,.86,2.7,2.32l.16.14c7.23,6.36,25.7,23.41,26.25,32.43A33.06,33.06,0,0,1,573.43,205.92Z"/>
      <g class="cls-29">
        <polygon class="cls-28" points="124.88 329.37 120.83 343.01 108.53 384.37 108.15 384.37 105.73 392.61 88.03 390.17 88.03 329.37 124.88 329.37"/>
        <polygon class="cls-30" points="147.03 288.97 147.03 312.17 146.99 312.32 131.03 308.59 124.88 329.37 88.03 329.37 88.03 286.17 147.03 288.97"/>
        <line class="cls-1" x1="127.03" y1="349.17" x2="127.03" y2="349.17"/>
        <g>
          <path class="cls-31" d="M102.72,309.34a2.28,2.28,0,0,1-1.9-1.05c-2.26,3.55-4.37,7-4.42,7.05a.77.77,0,0,1-.53.27c-.19,0-.37.11-.57.11l-.28,0h-.2c-.54,0-.69-.23-.69-.43a.65.65,0,0,1,0-.2c.84-2.21,8.26-13,9.13-13.9.3-.33.6-.36,1.34-.36h.59c.09,0,.15.18.15.34a.46.46,0,0,1-.06.23c-.84,1.18-2.26,3.39-3.73,5.7.15.3.53.28,1.11.28,3,0,6.76-3.19,6.76-4.61,0-1.65-2.06-2.25-4.27-2.25a16.77,16.77,0,0,0-7.57,2.61.81.81,0,0,0-.39.6c0,.21.2.38.52.38a1.71,1.71,0,0,0,.57-.13h0s.06.12.06.25a.55.55,0,0,1,0,.28,3.86,3.86,0,0,1-2.11.86,1.47,1.47,0,0,1-1.51-1.68c0-2,4.61-4.85,10.89-4.85,4.16,0,6.43,1.73,6.43,3.32C112,305.71,106.67,309.34,102.72,309.34Z"/>
          <path class="cls-31" d="M118.34,313a1.24,1.24,0,0,1-.07.5c-.32.62-2.11,2.54-3.68,2.54a1.76,1.76,0,0,1-1.75-2,2.75,2.75,0,0,1,.23-1.11c-1.29,1.68-3.19,3-4.36,3a1.85,1.85,0,0,1-1.83-1.61,3.29,3.29,0,0,1,0-.59c0-3.48,4.41-7.17,7-7.17.9,0,1.41.35,1.54.74.39-.6.57-.64,1.05-.64s.89.19.89.61a.76.76,0,0,1-.16.49,19.09,19.09,0,0,0-2.52,5.5,1.28,1.28,0,0,0,0,.33c0,.29.08.64.38.64.94,0,2.59-2.07,2.78-2.24A.41.41,0,0,1,118,312a.24.24,0,0,1,.25.22A5.92,5.92,0,0,1,118.34,313Zm-7.61-2.74a7.79,7.79,0,0,0-2,3.55c0,.19.07.29.23.29.45,0,3.12-2.33,4-3.43.53-.67,1.32-1.8,1.95-2.64C114.08,308.07,112.55,308.4,110.73,310.3Z"/>
          <path class="cls-31" d="M125.06,310.52a.78.78,0,0,1-1.44-.53,3.08,3.08,0,0,1,.87-1.83l0,0c-.61,0-3.79,3.39-4.37,4a38.09,38.09,0,0,0-2.47,3c-.15.21-.45.5-.71.5a3.22,3.22,0,0,1-1.08-.41.18.18,0,0,1-.08-.19,4,4,0,0,1,.7-1.44c1-1.76,2-3.48,3.07-5.2a15.14,15.14,0,0,1,1-1.66,2.3,2.3,0,0,1,1.78-.67c.23,0,.28.26.28.46,0,.55-1.17,2.16-1.51,2.71,1.1-1.24,2.93-3.14,4.71-3.14a1,1,0,0,1,1.1,1.05C126.92,307.87,125.52,309.91,125.06,310.52Z"/>
          <path class="cls-31" d="M131.31,313.54a5.09,5.09,0,0,1-4.14,2.61,2.22,2.22,0,0,1-2.13-2c0-1.17,2.58-4.92,2.58-5.11s-.48-.5-.48-.77,1.82-2.18,2.82-2.18a1.12,1.12,0,0,1,.87.94c0,.25-2.45,4.48-2.79,5.06a4.91,4.91,0,0,0-.88,1.88c0,.33.3.4.6.4,1.42,0,3-2.37,3.32-2.37s.3.84.3,1.05A1.22,1.22,0,0,1,131.31,313.54Zm.07-8.72a.61.61,0,0,1-.69-.69,2.13,2.13,0,0,1,1.9-2,.62.62,0,0,1,.69.67A2.29,2.29,0,0,1,131.38,304.82Z"/>
          <path class="cls-31" d="M140,306.76a1.93,1.93,0,0,1-.28,1,2.77,2.77,0,0,1-1.87.89c-.39,0-.36-.19-.53-.27a.23.23,0,0,1-.12-.22c0-.2.18-.23.28-.56-2.2.12-4.46,2-4.46,2.36s2,.3,4,1.24a1.86,1.86,0,0,1,1.09,1.49c0,2.11-3.66,3.43-5.6,3.43-1.7,0-2.23-.8-2.23-1.39,0-.84.48-1.63,1-1.63.29,0,.57,0,.57.25,0,.06,0,.13,0,.19a.75.75,0,0,0,.63.71c2,0,3.57-.74,3.57-1.27s-1.61-.61-3.14-1.07c-.79-.23-1.65-.59-1.65-1.63,0-2.82,5.32-4.61,7.1-4.61s1.7.8,1.7,1Z"/>
        </g>
        <g class="cls-32">
          <line class="cls-33" x1="97.03" y1="337.37" x2="132.03" y2="337.37"/>
          <line class="cls-33" x1="97.03" y1="345.37" x2="132.03" y2="345.37"/>
          <line class="cls-33" x1="97.03" y1="353.37" x2="132.03" y2="353.37"/>
          <line class="cls-33" x1="97.03" y1="361.37" x2="132.03" y2="361.37"/>
        </g>
        <polygon class="cls-34" points="181.75 320.67 171.76 357.92 120.83 342.81 124.88 329.17 131.03 308.49 146.99 312.32 181.75 320.67"/>
        <polygon class="cls-28" points="171.76 357.92 160.03 401.67 108.53 384.17 120.83 342.81 171.76 357.92"/>
        <g>
          <path class="cls-31" d="M138.68,330.6a2.28,2.28,0,0,1-1.5-1.57c-3.22,2.71-6.26,5.36-6.32,5.41a.77.77,0,0,1-.58.1c-.18-.06-.39,0-.58-.07l-.26-.11-.19-.06c-.51-.16-.59-.43-.53-.62a.63.63,0,0,1,.09-.18c1.47-1.86,11.76-9.91,12.86-10.54.39-.22.68-.17,1.38.05l.56.17c.09,0,.09.21,0,.37a.48.48,0,0,1-.13.21c-1.16.88-3.17,2.55-5.26,4.32.05.34.42.43,1,.6,2.91.91,7.41-1,7.83-2.37.49-1.58-1.3-2.76-3.4-3.42a16.77,16.77,0,0,0-8,.23.81.81,0,0,0-.55.46c-.06.2.08.42.38.51a1.72,1.72,0,0,0,.59,0h0s0,.13,0,.25a.55.55,0,0,1-.13.25,3.86,3.86,0,0,1-2.27.19,1.47,1.47,0,0,1-.94-2.05c.61-1.95,5.84-3.25,11.84-1.38,4,1.24,5.62,3.58,5.15,5.09C148.66,329.93,142.45,331.78,138.68,330.6Z"/>
          <path class="cls-31" d="M152.48,338.8a1.26,1.26,0,0,1-.22.46c-.49.5-2.77,1.8-4.27,1.33a1.76,1.76,0,0,1-1.08-2.39,2.78,2.78,0,0,1,.56-1c-1.73,1.21-3.95,1.93-5.06,1.58a1.85,1.85,0,0,1-1.26-2.08,3.26,3.26,0,0,1,.13-.57c1-3.32,6.35-5.53,8.83-4.75.86.27,1.24.76,1.24,1.16.55-.46.74-.45,1.2-.3s.79.45.67.85a.75.75,0,0,1-.3.42,19.12,19.12,0,0,0-4,4.49,1.28,1.28,0,0,0-.13.3c-.09.28-.11.64.17.73.89.28,3.09-1.21,3.32-1.31a.4.4,0,0,1,.28,0,.24.24,0,0,1,.17.29A6.16,6.16,0,0,1,152.48,338.8ZM146,333.91a7.8,7.8,0,0,0-3,2.78c-.06.18,0,.3.14.35.43.13,3.67-1.29,4.85-2.08.7-.48,1.8-1.33,2.64-1.94C149.91,332.78,148.34,332.64,146,333.91Z"/>
          <path class="cls-31" d="M159.65,338.4a.78.78,0,0,1-1.22-.94,3.08,3.08,0,0,1,1.37-1.48l0,0c-.6-.14-4.62,2.1-5.38,2.54a38.18,38.18,0,0,0-3.26,2.15,1.11,1.11,0,0,1-.83.27,3.26,3.26,0,0,1-.91-.71.18.18,0,0,1,0-.21c.12-.39.72-.82,1.1-1.16,1.49-1.38,3-2.71,4.48-4a15.09,15.09,0,0,1,1.48-1.28,2.29,2.29,0,0,1,1.9-.11c.22.07.19.33.13.52-.17.53-1.76,1.71-2.25,2.13,1.42-.86,3.73-2.12,5.43-1.59a1,1,0,0,1,.74,1.34C162.21,336.43,160.27,338,159.65,338.4Z"/>
          <path class="cls-31" d="M164.71,343.15a5.09,5.09,0,0,1-4.73,1.26,2.22,2.22,0,0,1-1.43-2.56c.35-1.12,3.93-3.93,4-4.11s-.31-.62-.23-.88,2.38-1.54,3.35-1.24a1.13,1.13,0,0,1,.55,1.15c-.07.24-3.67,3.54-4.17,4s-1.23,1-1.4,1.53c-.1.31.17.47.45.56,1.35.42,3.53-1.38,3.87-1.27s0,.9,0,1.1A1.24,1.24,0,0,1,164.71,343.15Zm2.67-8.3a.61.61,0,0,1-.45-.87,2.13,2.13,0,0,1,2.41-1.33.62.62,0,0,1,.46.84A2.29,2.29,0,0,1,167.38,334.85Z"/>
          <path class="cls-31" d="M175,339.28a1.93,1.93,0,0,1-.57.87,2.77,2.77,0,0,1-2.05.29c-.37-.12-.29-.29-.42-.41a.23.23,0,0,1,0-.25c.06-.19.24-.17.44-.45-2.14-.55-4.85.54-5,.91s1.79.88,3.43,2.38a1.86,1.86,0,0,1,.6,1.75c-.63,2-4.52,2.19-6.37,1.6-1.62-.51-1.89-1.43-1.71-2,.25-.8.94-1.41,1.4-1.27.28.09.54.19.47.4,0,.06,0,.12-.07.18a.75.75,0,0,0,.39.87c1.88.59,3.63.36,3.79-.14s-1.35-1.06-2.68-2c-.68-.46-1.4-1.05-1.09-2,.84-2.7,6.45-2.8,8.15-2.27s1.38,1.27,1.32,1.47Z"/>
        </g>
        <g>
          <line class="cls-33" x1="127.4" y1="353.5" x2="160.81" y2="363.93"/>
          <line class="cls-33" x1="125.02" y1="361.13" x2="158.43" y2="371.56"/>
          <line class="cls-33" x1="122.63" y1="368.77" x2="156.04" y2="379.2"/>
          <line class="cls-33" x1="120.25" y1="376.41" x2="153.66" y2="386.84"/>
        </g>
      </g>
      <g>
        <path class="cls-28" d="M174.34,171.59a8.89,8.89,0,0,0-1.45-3.87,6.07,6.07,0,0,0-5.25-2.32q-5.08,0-6.95,5a20.88,20.88,0,0,0-1,7.09,19.19,19.19,0,0,0,1,6.77,6.7,6.7,0,0,0,6.77,4.78q3.53,0,5-1.9a9.45,9.45,0,0,0,1.8-4.92H184.5a16.77,16.77,0,0,1-3.31,8.65q-4.72,6.58-14,6.58T153.59,192q-4.37-5.49-4.37-14.23,0-9.87,4.82-15.35t13.31-5.49q7.22,0,11.81,3.24t5.44,11.43Z"/>
        <path class="cls-28" d="M201.7,196.18h-10V144.32h10Z"/>
        <path class="cls-28" d="M226.67,172.85a15.85,15.85,0,0,0,4-.88,3,3,0,0,0,2.16-2.85,3.37,3.37,0,0,0-1.66-3.25,10.47,10.47,0,0,0-4.87-.9q-3.6,0-5.1,1.76a7.24,7.24,0,0,0-1.43,3.52h-9.67a14.67,14.67,0,0,1,2.83-8.27q4-5.07,13.71-5.07a24.44,24.44,0,0,1,11.23,2.5q4.91,2.5,4.91,9.43v17.59q0,1.83.07,4.43a5.56,5.56,0,0,0,.6,2.67,3.58,3.58,0,0,0,1.48,1.16v1.48H234a11.12,11.12,0,0,1-.63-2.18q-.18-1-.28-2.32a20.69,20.69,0,0,1-4.81,3.83,14.55,14.55,0,0,1-7.36,1.86,12.69,12.69,0,0,1-8.65-3q-3.42-3-3.41-8.42,0-7.07,5.49-10.24a24.54,24.54,0,0,1,8.86-2.46Zm6.13,4.68a11,11,0,0,1-1.94,1,16.36,16.36,0,0,1-2.69.69l-2.28.42a15,15,0,0,0-4.61,1.37,4.58,4.58,0,0,0-2.37,4.26,4.45,4.45,0,0,0,1.45,3.71,5.5,5.5,0,0,0,3.52,1.14,10.48,10.48,0,0,0,6.05-1.9q2.77-1.9,2.87-6.93Z"/>
        <path class="cls-28" d="M259.32,183.93a6.67,6.67,0,0,0,1.38,3.8q1.87,2,6.93,2a10.6,10.6,0,0,0,4.72-.88,2.95,2.95,0,0,0,.34-5.21q-1.41-.88-10.49-3-6.54-1.62-9.21-4t-2.67-6.89a12,12,0,0,1,4.18-9.13q4.18-3.82,11.76-3.82,7.19,0,11.72,2.87t5.2,9.9h-10a5.93,5.93,0,0,0-1.09-3.06q-1.66-2-5.64-2-3.28,0-4.67,1a2.94,2.94,0,0,0-1.39,2.39,2.62,2.62,0,0,0,1.48,2.5q1.48.81,10.47,2.78,6,1.41,9,4.26a9.66,9.66,0,0,1,3,7.21,11.64,11.64,0,0,1-4.25,9.3q-4.25,3.61-13.13,3.61-9.06,0-13.38-3.82a12.41,12.41,0,0,1-4.32-9.73Z"/>
        <path class="cls-28" d="M299.39,183.93a6.67,6.67,0,0,0,1.38,3.8q1.87,2,6.93,2a10.6,10.6,0,0,0,4.72-.88,2.95,2.95,0,0,0,.34-5.21q-1.41-.88-10.49-3-6.54-1.62-9.21-4t-2.67-6.89a12,12,0,0,1,4.18-9.13q4.18-3.82,11.76-3.82,7.19,0,11.72,2.87t5.2,9.9h-10a5.93,5.93,0,0,0-1.09-3.06q-1.66-2-5.64-2-3.28,0-4.67,1a2.94,2.94,0,0,0-1.39,2.39,2.62,2.62,0,0,0,1.48,2.5q1.48.81,10.47,2.78,6,1.41,9,4.26a9.66,9.66,0,0,1,3,7.21,11.64,11.64,0,0,1-4.25,9.3q-4.25,3.61-13.13,3.61-9.06,0-13.38-3.82a12.41,12.41,0,0,1-4.32-9.73Z"/>
        <path class="cls-28" d="M342,153.26H331.82V144H342Zm-10.17,4.57H342v38.34H331.82Z"/>
        <path class="cls-28" d="M374.64,171.59a8.89,8.89,0,0,0-1.45-3.87,6.07,6.07,0,0,0-5.25-2.32q-5.08,0-6.95,5a20.88,20.88,0,0,0-1,7.09,19.19,19.19,0,0,0,1,6.77,6.7,6.7,0,0,0,6.77,4.78q3.53,0,5-1.9a9.45,9.45,0,0,0,1.8-4.92H384.8a16.77,16.77,0,0,1-3.31,8.65q-4.72,6.58-14,6.58T353.88,192q-4.37-5.49-4.37-14.23,0-9.87,4.82-15.35t13.31-5.49q7.22,0,11.81,3.24t5.44,11.43Z"/>
      </g>
    </g>
  </g>
</svg>
