<svg xmlns="http://www.w3.org/2000/svg" xmlns:xlink="http://www.w3.org/1999/xlink" viewBox="0 0 733.46 568.34" class="standard-border-radius">
  <defs>
    <linearGradient id="linear-gradient" x1="30.2" y1="280.87" x2="703.2" y2="280.87" gradientUnits="userSpaceOnUse">
      <stop offset="0" stop-color="#f7f7f7"/>
      <stop offset="1" stop-color="#ccc"/>
    </linearGradient>
    <clipPath id="clip-path" transform="translate(0 0)">
      <polygon points="208.15 374.89 87.29 374.51 83.81 278.42 208.15 277.11 208.15 374.89" style="fill: none"/>
    </clipPath>
    <linearGradient id="linear-gradient-2" x1="494.02" y1="180.74" x2="494.02" y2="367.1" gradientUnits="userSpaceOnUse">
      <stop offset="0.29" stop-color="#ff73c0"/>
      <stop offset="0.6" stop-color="#ff75c1"/>
      <stop offset="1" stop-color="#ffa9dc"/>
    </linearGradient>
    <linearGradient id="linear-gradient-3" x1="510.67" y1="265.64" x2="530.67" y2="265.64" gradientUnits="userSpaceOnUse">
      <stop offset="0.01" stop-color="#fbfc01"/>
      <stop offset="1" stop-color="#7ac943"/>
    </linearGradient>
    <linearGradient id="linear-gradient-4" x1="515.34" y1="279.14" x2="535.34" y2="279.14" xlink:href="#linear-gradient-3"/>
    <linearGradient id="linear-gradient-5" x1="2105.81" y1="1487.17" x2="2125.81" y2="1487.17" gradientTransform="translate(-945.83 2394.95) rotate(-90)" xlink:href="#linear-gradient-3"/>
    <linearGradient id="linear-gradient-6" x1="1806" y1="2403.05" x2="1826" y2="2403.05" gradientTransform="translate(-1856.05 2084.14) rotate(-90)" xlink:href="#linear-gradient-3"/>
    <linearGradient id="linear-gradient-7" x1="523.84" y1="257.21" x2="543.84" y2="257.21" xlink:href="#linear-gradient-3"/>
    <linearGradient id="linear-gradient-8" x1="484.2" y1="268.97" x2="606.59" y2="268.97" gradientUnits="userSpaceOnUse">
      <stop offset="0" stop-color="#303a31"/>
      <stop offset="1" stop-color="#435145"/>
    </linearGradient>
    <linearGradient id="linear-gradient-9" x1="365.54" y1="274.62" x2="484.2" y2="274.62" xlink:href="#linear-gradient-8"/>
    <linearGradient id="linear-gradient-10" x1="416.8" y1="177.96" x2="484.96" y2="177.96" gradientUnits="userSpaceOnUse">
      <stop offset="0.55" stop-color="#5f6b61"/>
      <stop offset="1" stop-color="#435145"/>
    </linearGradient>
    <linearGradient id="linear-gradient-11" x1="558.54" y1="175.88" x2="484.05" y2="175.88" gradientUnits="userSpaceOnUse">
      <stop offset="0.55" stop-color="#5f6b61"/>
      <stop offset="1" stop-color="#303a31"/>
    </linearGradient>
    <linearGradient id="linear-gradient-12" x1="588.97" y1="252.36" x2="628.9" y2="252.36" xlink:href="#linear-gradient-8"/>
    <linearGradient id="linear-gradient-13" x1="347.4" y1="252.36" x2="386.2" y2="252.36" xlink:href="#linear-gradient-8"/>
  </defs>
  <title>suitcase_wild_open</title>
  <g style="isolation: isolate">
    <g id="Layer_2" data-name="Layer 2">
      <g id="suitcase_wild">
        <g>
          <image width="930" height="620" transform="translate(0 0) scale(0.79 0.92)" xlink:href="assets/wall_paper/wallpaper_background_wild.png"/>
          <path d="M703.2,479.37V383.2a.87.87,0,0,0-.9-.91L644.6,324.4,678.2,102.52v-.29l.43-3.41a36.16,36.16,0,0,0-35.92-41.45H585.44l.92-14.82A14.33,14.33,0,0,0,571.8,27.37H559.09a14.43,14.43,0,0,0-14.57,15.31l.92,14.69H185.56l.92-14.82a14.33,14.33,0,0,0-14.57-15.18H159.21a14.43,14.43,0,0,0-14.57,15.31l.92,14.69H90.45a36.17,36.17,0,0,0-35.74,42l.51,3.1,0,0v.07L91.55,324,30.8,382.28c-.53,0-.6.46-.6.92v96.17h0V505.3c0,16.05,12.29,29.07,28.34,29.07H96.2V504.82a15.81,15.81,0,0,1,1,6.81v22.74H673.44c16.05,0,29.76-13,29.76-29.07V479.37h0Zm-267.38-26.3a15.31,15.31,0,0,0-1.26-1.13,1.51,1.51,0,0,0-.19-.16,2.27,2.27,0,0,0-.3-.23c-.14-.11-.27-.21-.42-.31a13.57,13.57,0,0,0-1.27-.83l-.23-.14-.67-.36-.11-.06-.33-.16-.22-.12.55.26.11.06.67.36.23.14a13.62,13.62,0,0,1,1.27.83c.15.1.28.2.42.31a2.25,2.25,0,0,1,.3.23,1.51,1.51,0,0,1,.19.16,15.26,15.26,0,0,1,1.26,1.13q.62.63,1.19,1.32Q436.44,453.71,435.82,453.08Zm-6.12-4,.24.09c.23.09.47.2.7.31C430.33,449.37,430,449.24,429.7,449.12ZM132.84,305.44l470.15.1,34-203-34,203,40.4,18.83L603,305.54l-470.15-.17h0L95.63,102.48Z" transform="translate(0 0)" style="mix-blend-mode: multiply;fill: url(#linear-gradient)"/>
          <g>
            <g>
              <path d="M680.45,375.77l-54-54.46,31.2-207v-.21l.49-3.16a33.63,33.63,0,0,0-33.42-38.61H109.5A33.69,33.69,0,0,0,76.16,111.5l.47,2.8,0,0v.06l33.93,207L54,375.77c-.49,0-.78,0-.78.46V477.66c0,21.68,17.33,39.71,39,39.71H641.81c21.68,0,39.39-18,39.39-39.71V376.23C681.2,375.73,681,375.77,680.45,375.77ZM549.3,61,549,61ZM176.24,61l-.32.09Z" transform="translate(0 0)" style="fill: #caac8b"/>
              <g>
                <path d="M155.2,375.37v142h-39V496c0-16.55-14.71-29.67-31.26-29.67H53.2V376.23c0-.43-.06-.85.43-.85Z" transform="translate(0 0)" style="fill: #b89065"/>
                <path d="M115.12,489.23v28.14H79.72a27.31,27.31,0,0,1-27.23-27.23v-23.6H92.43A22.76,22.76,0,0,1,115.12,489.23Z" transform="translate(0 0)" style="fill: #a7a9ac"/>
                <path d="M205.2,375.37v142h324v-142ZM436,458.66c-.06.23-.13.44-.21.66s-.11.33-.16.49-.15.37-.23.55a2.22,2.22,0,0,1-.09.22c-.08.19-.16.37-.25.55s-.07.16-.12.25-.16.34-.26.52l-.15.27c0,.09-.1.17-.15.25s-.26.44-.41.66-.16.26-.25.39-.17.26-.27.39l-.21.28c-.2.26-.41.53-.63.78a13,13,0,0,1-.89,1q-.37.38-.76.74c-.23.21-.45.41-.7.6l-.23.18c-.2.15-.41.32-.63.46a11.48,11.48,0,0,1-1,.65c-.87.55-1,1-2,1.41-.05,0,.72,0,.72.05h0l-1,0c-.22.08-.87.15-1.1.23s-.8.18-1.09.25h-.12c-.27.08-.61.15-.89.2l-.31.05-.29.05-.12,0h-.18l-.22,0c-.22,0-.44.21-.65.23a16.12,16.12,0,0,1-1.76.24H314.21a17.5,17.5,0,0,1,0-35H419.5c.6,0,1.19.13,1.77.19.29,0,.58.11.86.15a17.47,17.47,0,0,1,4.08,1.09c.25.1.52.22.76.34l.56.27.1.06.63.34.22.13a12.68,12.68,0,0,1,1.19.77c.14.09.26.19.39.29a2.12,2.12,0,0,1,.28.22,1.41,1.41,0,0,1,.18.15,14.28,14.28,0,0,1,1.17,1.05,17.37,17.37,0,0,1,3.69,5.54c.09.22.18.44.26.67s.15.44.23.68.15.45.21.69a15.88,15.88,0,0,1,.45,2.1c0,.07.26.15.27.21a10.72,10.72,0,0,1,.38,1.48v.06c0,.25-.28.51-.28.76s.19.59.18.89c0,.07.1.15.1.24v.07c0,.28-.29.56-.32.84s-.14.29-.17.44a4.3,4.3,0,0,1-.15.52c0,.07-.07.14-.07.21a2.13,2.13,0,0,1-.1.4c0,.21-.09.43-.14.64S436.1,458.39,436,458.66Z" transform="translate(0 0)" style="fill: #b89065"/>
                <path d="M155.2,375.37v142h50v-142Zm24.87,94.35a17.91,17.91,0,0,1-17.87-18.15V443.4c0-.63-.36-1.24-.29-1.85a18.09,18.09,0,0,1,5.13-11,17.71,17.71,0,0,1,5.73-3.89,18.36,18.36,0,0,1,5.32-1.34l.79-.05.8,0,.93,0,.78.05a17.8,17.8,0,0,1,15.13,11.51,18.4,18.4,0,0,1,.83,2.9c.12.59.45,1.19.51,1.81a17.93,17.93,0,0,1,.33,1.85v8.17a17.94,17.94,0,0,1-5.13,12.83A18.46,18.46,0,0,1,180.07,469.72Z" transform="translate(0 0)" style="fill: #a6743e"/>
                <path d="M178,425.32a18.68,18.68,0,0,0-5.37,1.34A17.38,17.38,0,0,1,178,425.32Z" transform="translate(0 0)" style="fill: none"/>
                <path d="M422.13,470.87a15.3,15.3,0,0,0,1.68-.34l-.84.2-.28.05-.39.07h-.09l-.3,0-.65.08C421.55,471,421.84,470.92,422.13,470.87Z" transform="translate(0 0)" style="fill: none"/>
                <path d="M431.7,441.53a17,17,0,0,0-10.43-4.87c.29,0,.57.05.86.1a17.43,17.43,0,0,1,4.08,1.06l.76.33.56.26.1.05.63.34.22.13a12.67,12.67,0,0,1,1.19.77c.14.09.26.19.39.29a2.12,2.12,0,0,1,.28.22,1.41,1.41,0,0,1,.18.15,14.28,14.28,0,0,1,1.17,1.05,17.37,17.37,0,0,1,3.69,5.54A17.36,17.36,0,0,0,431.7,441.53Z" transform="translate(0 0)" style="fill: none"/>
                <path d="M437.2,453.61v.12c0,.25-.24.52-.24.77,0,.41-.17.82-.22,1.22a15.58,15.58,0,0,1-.44,2.14,12,12,0,0,1-.45,1.47l-.18.49c-.07.19-.15.37-.23.55a2.26,2.26,0,0,1-.09.22c-.08.19-.17.37-.26.55s-.07.16-.12.25-.16.34-.26.52l-.15.27c0,.09-.1.17-.15.25l-.41.66c-.08.13-.16.26-.25.39s-.17.26-.27.39l-.21.28c-.2.26-.41.53-.63.78a13,13,0,0,1-.89,1q-.37.38-.76.74c-.23.21-.46.41-.7.6l-.23.18c-.21.16-.41.32-.63.46a11.48,11.48,0,0,1-1,.65,17.28,17.28,0,0,1-4.62,2,17.55,17.55,0,0,0,12.54-13.31,2.05,2.05,0,0,0,.07-.4l0-.21a4.52,4.52,0,0,0,.05-.52c0-.15.35-.29.36-.44s.32-.56.32-.84v-.07c0-.08-.22-.16-.22-.24,0-.3-.11-.59-.11-.89s.18-.51.18-.76C437.06,453.1,437.2,453.35,437.2,453.61Z" transform="translate(0 0)" style="fill: none"/>
                <path d="M681.2,376.23v90.15H649.76A29.37,29.37,0,0,0,620.2,496v21.33h-42v-142h102A1,1,0,0,1,681.2,376.23Z" transform="translate(0 0)" style="fill: #b89065"/>
                <path d="M529.2,375.37v142h49v-142Zm23.9,94.35a17.94,17.94,0,0,1-17.9-18.15V443.4c0-.63-.32-1.24-.26-1.85a18.11,18.11,0,0,1,5.15-11,17.75,17.75,0,0,1,5.74-3.89,18.39,18.39,0,0,1,5.33-1.34l.79-.05.81,0,.93,0,.78.05a17.8,17.8,0,0,1,15.13,11.51,18.4,18.4,0,0,1,.83,2.9c.12.59.41,1.19.48,1.81a17.87,17.87,0,0,1,.3,1.85v8.17a17.93,17.93,0,0,1-5.12,12.83A18.42,18.42,0,0,1,553.1,469.72Z" transform="translate(0 0)" style="fill: #a6743e"/>
                <path d="M551.11,425.32a18.68,18.68,0,0,0-5.37,1.34A17.38,17.38,0,0,1,551.11,425.32Z" transform="translate(0 0)" style="fill: none"/>
                <path d="M680.62,466.54v23.6a27.31,27.31,0,0,1-27.23,27.23H619.8V489.23a22.69,22.69,0,0,1,22.69-22.69Z" transform="translate(0 0)" style="fill: #a7a9ac"/>
                <polygon points="111.03 375.37 53.63 375.37 110.58 320.91 111.03 375.37" style="fill: #997458"/>
                <polygon points="626.2 375.37 626.2 375.32 625.98 321.37 626.32 321.37 680.16 375.37 626.2 375.37" style="fill: #997458"/>
                <polygon points="626.2 375.32 626.2 375.37 111.03 375.37 110.58 321.37 625.98 321.37 626.2 375.32" style="fill: #84644a"/>
                <polygon points="578.2 72.37 578.2 114.37 529.2 114.37 529.2 72.37 534 72.37 534.93 88.37 570.33 88.37 571.27 72.37 578.2 72.37" style="fill: #a6743e"/>
                <polygon points="205.2 72.37 205.2 114.37 155.2 114.37 155.2 72.37 160.93 72.37 161.87 88.37 197.27 88.37 198.21 72.37 205.2 72.37" style="fill: #a6743e"/>
                <polygon points="625.35 321.37 111.55 321.37 149.04 303.7 587.66 303.81 625.35 321.37" style="fill: #997458"/>
                <path d="M155.2,72.37v42H76.65v-.05l0,0-.47-2.86A33.7,33.7,0,0,1,109.5,72.37Z" transform="translate(0 0)" style="fill: #caac8b"/>
                <path d="M658.13,111l-.51,3.12,0,.27H578.2v-42h46.52A33.61,33.61,0,0,1,658.13,111Z" transform="translate(0 0)" style="fill: #caac8b"/>
                <rect x="205.2" y="72.37" width="324" height="42" style="fill: #caac8b"/>
                <polygon points="657.59 114.37 626.32 321.37 625.35 321.37 587.66 303.8 619.39 114.37 657.59 114.37" style="fill: #b89065"/>
                <polygon points="149.04 303.7 111.55 321.37 110.58 321.37 76.66 114.37 114.32 114.37 149.04 303.7" style="fill: #b89065"/>
                <polygon points="619.39 114.37 587.66 303.77 149.04 303.68 114.32 114.37 619.39 114.37" style="fill: #84644a"/>
                <polyline points="625.98 321.31 625.98 320.86 625.12 320.4" style="fill: none"/>
                <line x1="111.55" y1="320.4" x2="110.58" y2="320.86" style="fill: none"/>
                <polyline points="657.59 114.36 657.62 114.36 657.93 114.36" style="fill: none"/>
                <polyline points="76.09 114.36 76.63 114.36 76.66 114.36" style="fill: none"/>
                <path d="M441.2,456.41v.06c0,.25-.47.51-.47.76s.28.59.27.89c0,.07.2.15.2.24v.07c0,.28-.47.56-.51.84s-.24.29-.26.44a4.36,4.36,0,0,1-.19.52c0,.07-.09.14-.1.21a2.17,2.17,0,0,1-.11.4,17.57,17.57,0,0,1-12.55,13.31h0a15.38,15.38,0,0,1-1.68.34c-.29,0-.58.42-.87.45a16.62,16.62,0,0,1-1.76.42H317.84a17.5,17.5,0,0,1,0-35H423.13c.6,0,1.19,0,1.77,0a16.91,16.91,0,0,1,10.43,4.83,17.28,17.28,0,0,1,3.69,5.4c.09.22.18.44.26.66s.15.44.23.68.15.45.21.69a17.55,17.55,0,0,1,.87,2.1C440.68,455.28,441.2,455.84,441.2,456.41Z" transform="translate(0 0)" style="fill: #443a38"/>
                <path d="M437.2,453.61v.12c0,.25-.24.52-.24.77a16.6,16.6,0,0,1-.4,2.32c0-.07,0-.14,0-.21a4.69,4.69,0,0,0,0-.52c0-.15.33-.29.34-.44s.31-.56.31-.84v-.07c0-.08-.22-.16-.22-.24,0-.3-.11-.59-.11-.89s.18-.51.18-.76C437.06,453.1,437.2,453.35,437.2,453.61Z" transform="translate(0 0)" style="fill: none"/>
                <path d="M436.55,451.09a15.88,15.88,0,0,0-.45-2.1c-.06-.24-.13-.46-.21-.69s-.15-.46-.23-.68a16,16,0,0,1,.93,3.68c.07.49.12,1,.15,1.48C436.69,452.21,436.63,451.65,436.55,451.09Z" transform="translate(0 0)" style="fill: none"/>
                <path d="M574.2,444.06v8.65a19.11,19.11,0,0,1-5.58,13.58,18.71,18.71,0,0,1-13.4,5.63,19,19,0,0,1-19-19.21v-8.65c0-.66-.37-1.32-.3-2a19.46,19.46,0,0,1,5.56-11.62,18.86,18.86,0,0,1,5.94-4.12,19.44,19.44,0,0,1,5.64-1.42c.29,0,.55,0,.84-.06l.85,0,1,0,.82.06a19,19,0,0,1,16,12.18,19.47,19.47,0,0,1,.88,3.07c.12.62.41,1.26.48,1.91A18.86,18.86,0,0,1,574.2,444.06Z" transform="translate(0 0)" style="fill: #666"/>
                <path d="M551.11,425.32a18.68,18.68,0,0,0-5.37,1.34A17.38,17.38,0,0,1,551.11,425.32Z" transform="translate(0 0)" style="fill: none"/>
                <path d="M178,425.32a18.68,18.68,0,0,0-5.37,1.34A17.38,17.38,0,0,1,178,425.32Z" transform="translate(0 0)" style="fill: none"/>
                <polygon points="534 72.37 534.93 87.92 534 72.66 533.98 72.37 534 72.37" style="fill: none"/>
                <path d="M559.62,66.44l-.32,5.94H546l.24-5.57v-.38c0-2.44,1.18-4.66,3.19-5.37.29-.1.45-.4.76-.43s.19-.24.36-.24h4.25C557.57,60.37,559.79,63.32,559.62,66.44Z" transform="translate(0 0)" style="fill: none"/>
                <polygon points="571.29 72.37 571.27 72.83 570.33 87.86 571.27 72.37 571.29 72.37" style="fill: none"/>
                <polygon points="160.93 72.37 161.87 87.92 160.93 72.66 160.92 72.37 160.93 72.37" style="fill: none"/>
                <path d="M186.56,66.44l-.32,5.94H172.9l.3-5.57v-.38c0-2.44,1.15-4.66,3.16-5.37.29-.1.43-.4.74-.43s.17-.24.34-.24h4.25C184.51,60.37,186.73,63.32,186.56,66.44Z" transform="translate(0 0)" style="fill: none"/>
                <polygon points="198.22 72.37 198.21 72.83 197.27 87.86 198.21 72.37 198.22 72.37" style="fill: none"/>
                <polygon points="559.31 72.37 559.3 72.8 558.97 79.37 546.3 79.37 545.96 72.91 545.95 72.37 559.31 72.37" style="fill: #a6743e"/>
                <path d="M559.62,66.44l-.31,5.94H546l.25-5.5v-.45c0-2.41,1.21-4.63,3.19-5.37.29-.1.45-.4.76-.43s.19-.24.36-.24h4.25C557.57,60.37,559.79,63.32,559.62,66.44Z" transform="translate(0 0)" style="fill: none"/>
                <polygon points="186.25 72.37 186.24 72.8 185.91 79.37 173.23 79.37 172.9 72.91 172.89 72.37 186.25 72.37" style="fill: #a6743e"/>
                <path d="M186.56,66.44l-.31,5.94H172.89l.31-5.5v-.45c0-2.41,1.17-4.63,3.16-5.37.29-.1.43-.4.74-.43s.17-.24.34-.24h4.25C184.51,60.37,186.73,63.32,186.56,66.44Z" transform="translate(0 0)" style="fill: none"/>
                <line x1="680.62" y1="466.54" x2="680.62" y2="466.54" style="fill: none"/>
                <line x1="578.2" y1="375.37" x2="578.2" y2="374.37" style="fill: none"/>
                <line x1="529.2" y1="375.37" x2="529.2" y2="374.37" style="fill: none"/>
                <line x1="205.2" y1="375.37" x2="205.2" y2="374.37" style="fill: none"/>
                <line x1="155.2" y1="375.37" x2="155.2" y2="374.37" style="fill: none"/>
                <path d="M572.2,442.25v8.65a19,19,0,0,1-5.49,13.58,18.81,18.81,0,0,1-13.44,5.63A19.08,19.08,0,0,1,534.2,450.9v-8.65c0-.66-.28-1.32-.21-2a19.51,19.51,0,0,1,5.61-11.62,19,19,0,0,1,6-4.12,19.52,19.52,0,0,1,5.65-1.42c.29,0,.56,0,.84-.06l.85,0,1,0,.82.06a19,19,0,0,1,16,12.18,19.47,19.47,0,0,1,.88,3.07c.12.62.32,1.26.39,1.91A18.78,18.78,0,0,1,572.2,442.25Z" transform="translate(0 0)" style="fill: gray"/>
                <path d="M201.2,445v8.65a19.14,19.14,0,0,1-5.61,13.58,18.67,18.67,0,0,1-13.38,5.63,19,19,0,0,1-19-19.21V445c0-.66-.4-1.32-.33-2a19.44,19.44,0,0,1,5.54-11.62,18.83,18.83,0,0,1,5.93-4.12,19.41,19.41,0,0,1,5.63-1.42c.29,0,.55,0,.84-.06l.85,0,1,0,.82.06a19,19,0,0,1,16,12.18,19.47,19.47,0,0,1,.88,3.07c.12.62.45,1.26.51,1.91A18.92,18.92,0,0,1,201.2,445Z" transform="translate(0 0)" style="fill: #666"/>
                <path d="M199.2,443.16v8.65a19.06,19.06,0,0,1-5.52,13.58A18.78,18.78,0,0,1,180.25,471a19.07,19.07,0,0,1-19-19.21v-8.65c0-.66-.31-1.32-.24-2a19.5,19.5,0,0,1,5.59-11.62,18.93,18.93,0,0,1,6-4.12,19.49,19.49,0,0,1,5.64-1.42c.29,0,.55,0,.84-.06l.85,0,1,0,.82.06a19,19,0,0,1,16,12.18,19.47,19.47,0,0,1,.88,3.07c.12.62.35,1.26.42,1.91A18.8,18.8,0,0,1,199.2,443.16Z" transform="translate(0 0)" style="fill: gray"/>
                <path d="M437.2,452.78v.06c0,.25-.28.51-.28.76s.19.59.18.89c0,.07.1.15.1.24v.07c0,.28-.29.56-.32.84s-.14.29-.17.44a4.3,4.3,0,0,1-.15.52c0,.07-.07.14-.07.21a2.13,2.13,0,0,1-.1.4,17.56,17.56,0,0,1-12.55,13.31h0a15.35,15.35,0,0,1-1.68.34c-.29,0-.58.24-.87.26a16.14,16.14,0,0,1-1.76.24H314.21a17.5,17.5,0,0,1,0-35H419.5c.6,0,1.19.13,1.77.19a17,17,0,0,1,10.43,4.92,17.48,17.48,0,0,1,3.69,5.45c.09.22.18.46.26.69s.15.45.23.69.15.46.21.69a16.64,16.64,0,0,1,.69,2.1A12.08,12.08,0,0,1,437.2,452.78Z" transform="translate(0 0)" style="fill: #645551"/>
                <polygon points="197.04 87.8 204.08 72.37 194.09 72.37 197.04 87.8" style="fill: #936538"/>
                <polygon points="173.01 78.73 177.07 72.37 168.68 72.37 173.01 78.73" style="fill: #936538"/>
                <g>
                  <polygon points="535.16 87.8 528.13 72.37 538.11 72.37 535.16 87.8" style="fill: #936538"/>
                  <polygon points="559.2 78.73 555.13 72.37 563.52 72.37 559.2 78.73" style="fill: #936538"/>
                </g>
                <path d="M185.5,44.37H173.64a13.46,13.46,0,0,0-13.59,14.29l.86,13.71h0l.93,16h35.4l.93-16h0l.86-13.83A13.37,13.37,0,0,0,185.5,44.37Zm.74,28.43-.34,6.57H173.23l-.34-6.46v-.54h0l.3-5.57v-.38c0-2.44,1.15-4.66,3.16-5.37.29-.1.5-.4.81-.43s.1-.24.28-.24h4.25c2.81,0,5,3,4.87,6.06l-.32,5.94h0Z" transform="translate(0 0)" style="fill: gray"/>
                <path d="M558.56,44.37H546.71a13.46,13.46,0,0,0-13.59,14.29L534,72.37h0l.93,16h35.4l.93-16h0l.86-13.83A13.37,13.37,0,0,0,558.56,44.37Zm.74,28.43L559,79.37H546.3L546,72.91v-.54h0l.24-5.57v-.38c0-2.44,1.18-4.66,3.19-5.37.29-.1.51-.4.82-.43s.12-.24.29-.24h4.25c2.81,0,5,3,4.87,6.06l-.32,5.94h0Z" transform="translate(0 0)" style="fill: gray"/>
              </g>
            </g>
            <polygon points="531.06 356.42 531.02 356.37 80.35 356.37 96 339.37 96.01 339.37 518.17 341.08 531.06 356.42" style="fill: #b3ddb9"/>
            <polygon points="520.28 343.97 93.88 342.39 106.72 328.32 508.39 330.15 520.28 343.97" style="fill: #fedf72"/>
            <polygon points="545.73 375.37 63.81 374.32 81.45 355.36 531.02 356.55 545.73 375.37" style="fill: #8ba7aa"/>
            <line x1="67.2" y1="363.37" x2="66.2" y2="363.37" style="fill: none"/>
            <line x1="587.85" y1="375.37" x2="587.85" y2="375.37" style="fill: none"/>
            <path d="M378.5,239.6l-.5.28" transform="translate(0 0)" style="fill: none"/>
            <path d="M503.19,130.58A9.17,9.17,0,1,1,494,121.4,9.17,9.17,0,0,1,503.19,130.58Z" transform="translate(0 0)" style="fill: #352d2c"/>
            <path d="M471.88,158.78l-84.73,84.7a9,9,0,0,0,6.38,15.41H587.61a9,9,0,0,0,6.45-15.34L511.29,159A27.72,27.72,0,0,0,471.88,158.78Z" transform="translate(0 0)" style="fill: none;stroke: #fff;stroke-miterlimit: 10;stroke-width: 10px"/>
            <path d="M493.92,148.35l7.62-8.16a11.17,11.17,0,0,0-3.18-17.53c-6-3.18-15.52-.6-18.38,9.21" transform="translate(0 0)" style="fill: none;stroke: #fff;stroke-miterlimit: 10;stroke-width: 8px"/>
            <rect x="462.19" y="134.37" width="70.15" height="24.5" style="fill: none"/>
            <polyline points="480.15 343.39 492.49 324.58 492.53 324.52 492.6 324.41 570.99 204.92" style="fill: none"/>
            <polyline points="541.58 166.96 545.49 165.69 545.73 165.61 545.65 165.83 490.22 314.31" style="fill: none"/>
            <path d="M490.26,311.77l0,2.54v.44a1,1,0,0,1-.2.6,1,1,0,0,1-1.14.33.94.94,0,0,1-.61-.67L446.4,163.37l.19.08" transform="translate(0 0)" style="fill: none"/>
            <g style="clip-path: url(#clip-path)">
              <g>
                <polygon points="124.7 328.37 120.65 342.01 108.35 383.37 107.97 383.37 105.73 391.61 88.2 389.17 88.2 328.37 124.7 328.37" style="fill: #fff"/>
                <polygon points="147.2 287.97 147.2 311.17 146.99 311.32 130.94 307.59 124.7 328.37 88.2 328.37 88.2 285.17 147.2 287.97" style="fill: #a03f1d"/>
                <line x1="126.85" y1="348.17" x2="126.85" y2="348.17" style="fill: none"/>
                <g>
                  <path d="M104.11,306.49a2.8,2.8,0,0,1,.54,1.78,3,3,0,0,1-1.09,2.66,4.45,4.45,0,0,1-2.59.75H97a1,1,0,0,1-1-1v-9.25a1,1,0,0,1,1-1h4q3,0,3,2.85a2.29,2.29,0,0,1-1.33,2.14A3.22,3.22,0,0,1,104.11,306.49Zm-2.46-3.8a1.25,1.25,0,0,0-.92-.33H98.08v2.5h2.69a1.22,1.22,0,0,0,.84-.32,1.1,1.1,0,0,0,.36-.86A1.34,1.34,0,0,0,101.64,302.69Zm.5,6.74a1.53,1.53,0,0,0,.42-1.17,1.31,1.31,0,0,0-.5-1.23,2.38,2.38,0,0,0-1.22-.29H98.08v3.09H101A1.65,1.65,0,0,0,102.14,309.43Z" transform="translate(0 0)" style="fill: #fff"/>
                  <path d="M111.58,303.23a.81.81,0,0,1,.33.64,1,1,0,0,1-.26.74.84.84,0,0,1-.61.25,1.61,1.61,0,0,1-.54-.11l-.22-.06a1.3,1.3,0,0,0-.36,0,1.43,1.43,0,0,0-.8.26,1.87,1.87,0,0,0-.63.78,2.86,2.86,0,0,0-.25,1.24v3.79a1,1,0,0,1-.27.7,1,1,0,0,1-1.38,0,1,1,0,0,1-.27-.7v-6.61a1,1,0,0,1,.27-.7,1,1,0,0,1,1.38,0,1,1,0,0,1,.27.7v.21a2.43,2.43,0,0,1,1.06-1,3.25,3.25,0,0,1,1.47-.34A1.23,1.23,0,0,1,111.58,303.23Z" transform="translate(0 0)" style="fill: #fff"/>
                  <path d="M120.69,303.23a1,1,0,0,1,.27.7v6.77a1,1,0,0,1-.27.7.92.92,0,0,1-.69.28.9.9,0,0,1-.68-.27,1,1,0,0,1-.28-.69,3.47,3.47,0,0,1-2.51,1.12,3.65,3.65,0,0,1-2-.57,4,4,0,0,1-1.42-1.58,4.92,4.92,0,0,1-.52-2.29,5,5,0,0,1,.51-2.3,3.94,3.94,0,0,1,1.4-1.58,3.57,3.57,0,0,1,2-.57,3.71,3.71,0,0,1,1.44.28,3.8,3.8,0,0,1,1.14.71v0a1,1,0,0,1,.27-.7A.92.92,0,0,1,120,303,.94.94,0,0,1,120.69,303.23Zm-2.22,6.09a2.82,2.82,0,0,0,.66-1.91,2.85,2.85,0,0,0-.66-1.92,2.24,2.24,0,0,0-3.38,0,3.14,3.14,0,0,0,0,3.83,2.26,2.26,0,0,0,3.38,0Z" transform="translate(0 0)" style="fill: #fff"/>
                  <path d="M129.14,310.16a.84.84,0,0,1,.26.63.85.85,0,0,1-.26.62.87.87,0,0,1-.64.26h-5.15a.87.87,0,0,1-.86-.83,1.4,1.4,0,0,1,.06-.46,1.69,1.69,0,0,1,.24-.42l3.81-4.93h-3.1a.88.88,0,0,1-.9-.9.83.83,0,0,1,.26-.62.89.89,0,0,1,.64-.25h4.93a.82.82,0,0,1,.6.25.84.84,0,0,1,.25.62,1.5,1.5,0,0,1,0,.41,1.21,1.21,0,0,1-.22.39l-3.84,5h3.34A.88.88,0,0,1,129.14,310.16Z" transform="translate(0 0)" style="fill: #fff"/>
                  <path d="M130.85,301.9a.75.75,0,0,1-.22-.62V301a.72.72,0,0,1,.24-.62,1.8,1.8,0,0,1,1.55,0,.75.75,0,0,1,.22.62v.3a.74.74,0,0,1-.23.63,1.4,1.4,0,0,1-.79.17A1.27,1.27,0,0,1,130.85,301.9Zm1.47,9.5a1,1,0,0,1-1.38,0,1,1,0,0,1-.27-.7v-6.61a1,1,0,0,1,.27-.7,1,1,0,0,1,1.38,0,1,1,0,0,1,.27.7v6.61A1,1,0,0,1,132.32,311.39Z" transform="translate(0 0)" style="fill: #fff"/>
                  <path d="M136.36,311.39a.94.94,0,0,1-.7.28.9.9,0,0,1-.67-.28,1,1,0,0,1-.27-.7v-9.89a1,1,0,0,1,1-1,.9.9,0,0,1,.67.28,1,1,0,0,1,.27.7v9.89A.94.94,0,0,1,136.36,311.39Z" transform="translate(0 0)" style="fill: #fff"/>
                </g>
                <g style="opacity: 0.8">
                  <line x1="97.2" y1="336.37" x2="132.2" y2="336.37" style="fill: #f4987a;stroke: #485967;stroke-miterlimit: 10;stroke-width: 4px"/>
                  <line x1="97.2" y1="344.37" x2="132.2" y2="344.37" style="fill: #f4987a;stroke: #485967;stroke-miterlimit: 10;stroke-width: 4px"/>
                  <line x1="97.2" y1="352.37" x2="132.2" y2="352.37" style="fill: #f4987a;stroke: #485967;stroke-miterlimit: 10;stroke-width: 4px"/>
                  <line x1="97.2" y1="360.37" x2="132.2" y2="360.37" style="fill: #f4987a;stroke: #485967;stroke-miterlimit: 10;stroke-width: 4px"/>
                </g>
                <polygon points="181.57 319.67 171.58 356.92 120.65 341.81 124.7 328.17 130.85 307.49 146.81 311.32 181.57 319.67" style="fill: #dd5e27"/>
                <polygon points="171.58 356.92 159.85 400.67 108.35 383.17 120.65 341.81 171.58 356.92" style="fill: #fff"/>
                <g>
                  <path d="M139.81,327.92a2.8,2.8,0,0,1,0,1.85A3,3,0,0,1,138,332a4.45,4.45,0,0,1-2.7,0l-3.82-1.12a1,1,0,0,1-.66-1.21l2.59-8.88a1,1,0,0,1,1.21-.66l3.87,1.13q2.92.85,2.12,3.59a2.29,2.29,0,0,1-1.87,1.68A3.22,3.22,0,0,1,139.81,327.92Zm-2.71,2.27a1.53,1.53,0,0,0,.73-1,1.31,1.31,0,0,0-.13-1.32,2.37,2.37,0,0,0-1.09-.62l-2.66-.78-.87,3,2.76.81A1.64,1.64,0,0,0,137.1,330.19Zm1.42-6.61a1.24,1.24,0,0,0-.79-.57l-2.53-.74-.7,2.4,2.58.75a1.23,1.23,0,0,0,.9-.07,1.1,1.1,0,0,0,.59-.73A1.33,1.33,0,0,0,138.51,323.58Z" transform="translate(0 0)" style="fill: #fff"/>
                  <path d="M147.9,326.88a.81.81,0,0,1,.13.71,1,1,0,0,1-.45.64.84.84,0,0,1-.65.07,1.6,1.6,0,0,1-.49-.26l-.19-.12a1.28,1.28,0,0,0-.33-.15,1.42,1.42,0,0,0-.84,0,1.87,1.87,0,0,0-.82.57,2.86,2.86,0,0,0-.59,1.12l-1.06,3.64a1,1,0,0,1-.46.59,1,1,0,0,1-1.32-.39,1,1,0,0,1-.07-.74l1.85-6.34a1,1,0,0,1,.46-.59,1,1,0,0,1,1.32.39,1,1,0,0,1,.07.74l-.06.2a2.43,2.43,0,0,1,1.29-.66,3.23,3.23,0,0,1,1.51.08A1.22,1.22,0,0,1,147.9,326.88Z" transform="translate(0 0)" style="fill: #fff"/>
                  <path d="M156.65,329.44a1,1,0,0,1,.06.75l-1.9,6.5a1,1,0,0,1-.46.59.91.91,0,0,1-.74.08.9.9,0,0,1-.58-.45,1,1,0,0,1-.08-.74,3.48,3.48,0,0,1-2.73.37,3.65,3.65,0,0,1-1.76-1.11,4,4,0,0,1-.92-1.91,4.92,4.92,0,0,1,.14-2.34,5,5,0,0,1,1.14-2.06,3.93,3.93,0,0,1,1.79-1.13,3.56,3.56,0,0,1,2,0,3.71,3.71,0,0,1,1.3.67,3.83,3.83,0,0,1,.89,1v0a1,1,0,0,1,.46-.59.92.92,0,0,1,.74-.08A.94.94,0,0,1,156.65,329.44Zm-3.84,5.22A2.82,2.82,0,0,0,154,333a2.85,2.85,0,0,0-.09-2,2.24,2.24,0,0,0-3.24-.95,3.14,3.14,0,0,0-1.08,3.68,2.26,2.26,0,0,0,3.25.95Z" transform="translate(0 0)" style="fill: #fff"/>
                  <path d="M162.81,338.47a.9.9,0,0,1-.35,1.21.87.87,0,0,1-.69.07l-4.95-1.45a.87.87,0,0,1-.59-1,1.43,1.43,0,0,1,.19-.42,1.69,1.69,0,0,1,.35-.34l5-3.66-3-.87a.88.88,0,0,1-.61-1.11.83.83,0,0,1,.42-.52.89.89,0,0,1,.69-.06l4.73,1.38a.81.81,0,0,1,.51.41.84.84,0,0,1,.06.66,1.51,1.51,0,0,1-.16.38,1.2,1.2,0,0,1-.32.31l-5.08,3.7,3.21.94A.87.87,0,0,1,162.81,338.47Z" transform="translate(0 0)" style="fill: #fff"/>
                  <path d="M165.52,340.54a1,1,0,0,1-1.32-.39,1,1,0,0,1-.07-.74l1.85-6.34a1,1,0,0,1,.46-.59,1,1,0,0,1,1.32.39,1,1,0,0,1,.07.74L166,339.95A1,1,0,0,1,165.52,340.54Zm1.25-9.53a.75.75,0,0,1,0-.66l.09-.29a.73.73,0,0,1,.4-.53,1.33,1.33,0,0,1,.79,0,1.31,1.31,0,0,1,.7.39.75.75,0,0,1,0,.66l-.09.29a.74.74,0,0,1-.4.54,1.4,1.4,0,0,1-.81-.06A1.26,1.26,0,0,1,166.77,331Z" transform="translate(0 0)" style="fill: #fff"/>
                  <path d="M169.4,341.67a1,1,0,0,1-.75.07.9.9,0,0,1-.57-.46,1,1,0,0,1-.07-.74l2.77-9.49a1,1,0,0,1,1.21-.66.91.91,0,0,1,.57.46,1,1,0,0,1,.06.74l-2.77,9.49A1,1,0,0,1,169.4,341.67Z" transform="translate(0 0)" style="fill: #fff"/>
                </g>
                <g>
                  <line x1="127.22" y1="352.5" x2="160.63" y2="362.93" style="fill: #f4987a;stroke: #485967;stroke-miterlimit: 10;stroke-width: 4px"/>
                  <line x1="124.84" y1="360.13" x2="158.25" y2="370.56" style="fill: #f4987a;stroke: #485967;stroke-miterlimit: 10;stroke-width: 4px"/>
                  <line x1="122.46" y1="367.77" x2="155.87" y2="378.2" style="fill: #f4987a;stroke: #485967;stroke-miterlimit: 10;stroke-width: 4px"/>
                  <line x1="120.07" y1="375.41" x2="153.48" y2="385.84" style="fill: #f4987a;stroke: #485967;stroke-miterlimit: 10;stroke-width: 4px"/>
                </g>
              </g>
            </g>
            <path d="M554,191.69v35.22A24.86,24.86,0,0,0,559,241.75l18.63,25.05a18.39,18.39,0,0,1,2.7,16.76l-12,36.28a39.86,39.86,0,0,0-.5,23.43l4.1,23.36c.82,2.9-157.51-8.45-157.51-8.45,1.08-4.47,3.76-36,2.18-40.34L409.26,298a39.94,39.94,0,0,1,5.36-37.45l9.08-12.31a35.65,35.65,0,0,0,6.1-28.94l-4.4-19.66a11.77,11.77,0,0,1,3.72-11.42l4.82-4.23a3.81,3.81,0,0,1,6.32,2.84l.15,24.58A29.2,29.2,0,0,0,461,239.12l10.2,3.14a38.21,38.21,0,0,1,26.09,28.46l.11.49a1.54,1.54,0,0,0,3-.19h0a38.21,38.21,0,0,1,24.12-32.18l4.82-1.89a25.17,25.17,0,0,0,15.8-26.47l-3.33-27.35a2.13,2.13,0,0,1,3.32-2l5.1,3.47A8.6,8.6,0,0,1,554,191.69Z" transform="translate(0 0)" style="fill: url(#linear-gradient-2)"/>
            <g>
              <circle cx="520.67" cy="265.64" r="10" style="fill: url(#linear-gradient-3)"/>
              <circle cx="525.34" cy="279.14" r="10" style="fill: url(#linear-gradient-4)"/>
              <circle cx="541.34" cy="279.14" r="10" transform="translate(-32.45 74.84) rotate(-7.68)" style="fill: url(#linear-gradient-5)"/>
              <circle cx="547" cy="268.14" r="10" transform="translate(-4.97 525.91) rotate(-51.15)" style="fill: url(#linear-gradient-6)"/>
              <circle cx="533.84" cy="257.21" r="10" style="fill: url(#linear-gradient-7)"/>
              <circle cx="534.19" cy="269.7" r="7.15" style="fill: #f9f7a7"/>
            </g>
            <path d="M416.45,335c-.05.21,28.67,10.79,50.38,18.74a74.24,74.24,0,0,0,47.84,1.11l52.05-16.38,16.14,36.93H402.6Z" transform="translate(0 0)" style="fill: #ba5692"/>
            <line x1="81.85" y1="353.37" x2="81.85" y2="353.37" style="fill: #ff7f1c"/>
            <g>
              <polygon points="484.09 193.18 483.97 193.37 483.97 193.16 484.09 193.18" style="fill: none"/>
              <path d="M552.13,162.08,484.2,199.59V375.86l105-.16v-106l-.05-.5,17.44-45.83Z" transform="translate(0 0)" style="fill: url(#linear-gradient-8)"/>
              <polygon points="528.97 205.37 527.95 181.37 527.97 181.37 527.98 181.35 528.97 205.37" style="fill: none"/>
              <circle cx="553.13" cy="246.87" r="4.01" style="fill: none"/>
              <polygon points="559.2 187.83 551.91 161.9 552 162 552.04 162.08 559.24 187.89 559.31 187.88 559.2 187.84 559.2 187.83" style="fill: none"/>
              <path d="M483.83,201l-37.34,8h-.07l0,.16.14.06,37.68-8.15v0Zm-68.16-.14-.14.17L449,192.38l-.14,1.56.38-1.55v-.3ZM428,173.36h.2l0-.08Zm.2,0,0,.05-.07.15-12.62,26.8h0l13-27Zm-21.51,17.29,0,0,3.82,3.95h0Z" transform="translate(0 0)" style="fill: none"/>
              <path d="M410.35,194.64,382.1,217.77h0l.08.09,0,0,28.27-23.22Zm17.73-21.07-12.62,26.8,12.81-26.95Z" transform="translate(0 0)" style="fill: none"/>
              <path d="M407.2,190.67h0l-.29,0-.11-.05-.11.07,3.8,4h0l-28.27,23.22,0,0,28.33-23.24h.2Z" transform="translate(0 0)" style="fill: none"/>
              <path d="M428.58,173.37l-13.1,27h0l12.62-26.8L378,213.47l-12.34,9.9-.07.06.16.11L386.2,269.7v0l-.1.16,3.94,105,94.17,1V201.05ZM456,243.11v.12" transform="translate(0 0)" style="fill: url(#linear-gradient-9)"/>
              <line x1="484.47" y1="375.87" x2="483.97" y2="375.86" style="fill: none"/>
              <ellipse cx="430.48" cy="247.87" rx="4" ry="4.01" style="fill: none"/>
              <path d="M573.44,282.65l-44.17,7.55a3.68,3.68,0,0,1-4.28-3.3l-3.68-41.43,52-12.72,4.26,44.54A5,5,0,0,1,573.44,282.65Z" transform="translate(0 0)" style="fill: #5f6b61"/>
              <path d="M453.16,289.37H409.28a6.81,6.81,0,0,1-6.81-6.68c-.18-9.77-.46-28-.35-39.32h.48l27.88,12.81,25.83-13.86,1.49,42.23A4.65,4.65,0,0,1,453.16,289.37Z" transform="translate(0 0)" style="fill: #5f6b61"/>
              <circle cx="553.13" cy="246.87" r="4.01" style="fill: none"/>
              <path d="M456.08,235.52a3.26,3.26,0,0,0-3.26-3.15s-42-.06-49.18,0a1.11,1.11,0,0,0-1.11,1.06c-.12,2.16-.38,7-.4,7.8s0,1.41,0,2.16l25.52,14.19a5.32,5.32,0,0,0,5.45-.12l22.7-14.22a1.13,1.13,0,0,0,.53-1Zm-25.6,16.36a4,4,0,1,1,4-4A4,4,0,0,1,430.48,251.88Z" transform="translate(0 0)" style="fill: #727d74"/>
              <line x1="456.36" y1="242.87" x2="456.34" y2="242.88" style="fill: none"/>
              <path d="M568.42,222.1l-45,10.93a3.77,3.77,0,0,0-2.87,4l.74,8.44,30.47,9.59a4.69,4.69,0,0,0,5.09-1.57l16.39-20.74-.73-7.72A3.34,3.34,0,0,0,568.42,222.1Zm-15.29,28.78a4,4,0,1,1,4-4A4,4,0,0,1,553.13,250.88Z" transform="translate(0 0)" style="fill: #727d74"/>
              <line x1="573.97" y1="231.87" x2="573.27" y2="232.75" style="fill: none"/>
              <path d="M485,187.46l-.59,13a.71.71,0,0,1-.56.66L450,208.42a2.55,2.55,0,0,1-3.06-2.87l1.56-10.3a1.94,1.94,0,0,0-2.39-2.17l-26.74,6.72a2.07,2.07,0,0,1-2.38-2.9l23.08-48.8a1.13,1.13,0,0,1,1.79-.36l42.86,39.17A.71.71,0,0,1,485,187.46Z" transform="translate(0 0)" style="fill: url(#linear-gradient-10)"/>
              <polygon points="428.2 173.07 428.26 173.37 427.97 173.37 427.97 173.36 428.2 173.07" style="fill: none"/>
              <polygon points="415.47 200.37 415.46 200.37 428.27 173.42 428.26 173.37 415.47 200.37" style="fill: none"/>
              <polygon points="449.2 192.09 449.2 192.39 446.55 208.97 446.46 209.2 446.4 209.14 446.41 208.98 448.7 193.94 449.05 192.38 449.2 192.09" style="fill: none"/>
              <path d="M557.38,187.29l-28.19-5.69a1,1,0,0,0-1.15,1l.89,21.48a1.14,1.14,0,0,1-1.25,1.18l-42.59-4.15a1.14,1.14,0,0,1-1-1.22l.88-12.18a1.14,1.14,0,0,1,.51-.87l60.88-40.11a1.14,1.14,0,0,1,1.73.65l4,14.53H552l0,.1,0,.08,6.49,24A1,1,0,0,1,557.38,187.29Z" transform="translate(0 0)" style="fill: url(#linear-gradient-11)"/>
              <path d="M594.57,204.84a2.41,2.41,0,0,1-.64,3.75l-.41.22L591.24,210a2.93,2.93,0,0,1-3.56-.61l-14.52-16a2.71,2.71,0,0,1,.57-4.11l1.58-1,1.33-.83a1.89,1.89,0,0,1,2.4.33Z" transform="translate(0 0)" style="fill: #727d74"/>
              <path d="M409.12,195.65l-25.54,20.91a2.07,2.07,0,0,1-2.81-.17L378,213.52l-.06,0h0l-.9-1a1.75,1.75,0,0,1,.18-2.53l24.88-20.21a2.76,2.76,0,0,1,3.41-.06l1.11,1,2.62,2.8A1.49,1.49,0,0,1,409.12,195.65Z" transform="translate(0 0)" style="fill: #727d74"/>
              <path d="M632.38,258.26,604.3,285.11a2,2,0,0,1-2.91-.22l-2.72-3.54c0-.37,26-25.8,30.23-29.92l3.63,4.59A1.66,1.66,0,0,1,632.38,258.26Z" transform="translate(0 0)" style="fill: #435145"/>
              <path d="M628.9,251.43c-4.21,4.12-30.23,29.55-30.23,29.92l-9.2-12H589l.06-.17,17.44-45.83h.25Z" transform="translate(0 0)" style="fill: url(#linear-gradient-12)"/>
              <path d="M375.77,281.14,372,285.93a2.49,2.49,0,0,1-3.75.18l-23.41-24.39a2.32,2.32,0,0,1-.41-2.61l2.95-6.11C348.81,254.33,374.58,282.24,375.77,281.14Z" transform="translate(0 0)" style="fill: #435145"/>
              <line x1="386.19" y1="269.7" x2="385.98" y2="269.89" style="fill: none"/>
              <path d="M386.1,269.89l-10.27,11.25c-1.19,1.09-27-26.81-28.43-28.15l18.32-29.45L386.2,269.7v0Z" transform="translate(0 0)" style="fill: url(#linear-gradient-13)"/>
              <line x1="365.67" y1="223.37" x2="365.59" y2="223.54" style="fill: none"/>
              <path d="M629.47,250.88l-.57.55" transform="translate(0 0)" style="fill: none"/>
              <circle cx="553.13" cy="246.87" r="4.01" style="fill: none"/>
              <ellipse cx="430.48" cy="247.87" rx="4" ry="4.01" style="fill: none"/>
              <circle cx="551.8" cy="247.21" r="5.06" style="fill: #c7baa7"/>
              <circle cx="494.46" cy="227.87" r="3.87" style="fill: #c7baa7;opacity: 0.65"/>
              <circle cx="494.46" cy="260.62" r="3.87" style="fill: #c7baa7;opacity: 0.65"/>
              <circle cx="494.46" cy="293.36" r="3.87" style="fill: #c7baa7;opacity: 0.65"/>
              <circle cx="494.46" cy="326.1" r="3.87" style="fill: #c7baa7;opacity: 0.65"/>
              <circle cx="494.46" cy="358.84" r="3.87" style="fill: #c7baa7;opacity: 0.65"/>
              <circle cx="578.41" cy="191.06" r="4.44" style="fill: #c7baa7"/>
              <circle cx="402.1" cy="193.37" r="4.44" style="fill: #c7baa7"/>
              <circle cx="430.01" cy="247.47" r="4.59" style="fill: #c7baa7"/>
            </g>
          </g>
          <g>
            <path d="M186.5,163h12.14l7,33,7.14-33h12.47l-13.27,45.77h-12.3l-7.18-33.34-7.26,33.34H172.77L159.92,163h12.85l7.14,32.84Z" transform="translate(0 0)" style="fill: #fff"/>
            <path d="M244.12,157.54H232v-11h12.14ZM232,163h12.14v45.77H232Z" transform="translate(0 0)" style="fill: #fff"/>
            <path d="M267.93,208.77H256v-61.9h12Z" transform="translate(0 0)" style="fill: #fff"/>
            <path d="M303.87,163.73a14.56,14.56,0,0,1,5.25,5.06V147h12.14v61.81H309.62v-6.34a16.87,16.87,0,0,1-5.84,5.92,16.38,16.38,0,0,1-8.15,1.85,17,17,0,0,1-13.5-6.49q-5.48-6.49-5.48-16.65,0-11.72,5.4-18.44a17.56,17.56,0,0,1,14.42-6.72A14.77,14.77,0,0,1,303.87,163.73Zm2.94,32.61a16.69,16.69,0,0,0,2.65-9.78q0-8.4-4.24-12a9.13,9.13,0,0,0-6-2.18q-5.25,0-7.71,4a18.4,18.4,0,0,0-2.46,9.85q0,6.34,2.5,10.14a8.45,8.45,0,0,0,7.58,3.8A8.84,8.84,0,0,0,306.81,196.34Z" transform="translate(0 0)" style="fill: #fff"/>
          </g>
        </g>
      </g>
    </g>
  </g>
</svg>
