<svg xmlns="http://www.w3.org/2000/svg" viewBox="0 0 733.46 568.34">
  <defs>
    <style>
      .cls-1 {
        fill: #fced68;
      }

      .cls-2 {
        fill: #b89065;
      }

      .cls-3 {
        fill: #c4c4c4;
      }

      .cls-4 {
        fill: #a7a9ac;
      }

      .cls-5 {
        fill: #caac8b;
      }

      .cls-6 {
        fill: #a6743e;
      }

      .cls-7 {
        fill: gray;
      }

      .cls-8 {
        fill: #645551;
      }

      .cls-9 {
        fill: #fff;
      }
    </style>
  </defs>
  <title>suitcase_playful_closed</title>
  <g id="Layer_2" data-name="Layer 2">
    <g id="Layer_3" data-name="Layer 3">
      <g id="Layer_5" data-name="Layer 5">
        <g>
          <rect class="cls-1" width="733.46" height="568.34"/>
          <path class="cls-2" d="M668.91,132.06s0,0,0,0a39.64,39.64,0,0,0-21.59-6.36A39.86,39.86,0,0,1,669,132l.07,0,0,0-.07,0-28.14-19.33,0,0L621.52,99.68a39.73,39.73,0,0,0-22.36-6.31H434.72L431,82.13V82l.14-.18A11.47,11.47,0,0,0,435,73.27V73c0-6.28-4.68-10.66-11-10.66H308.84c-6.28,0-11.8,4.38-11.8,10.66v.24c0,3.72,2.06,8.1,4.83,10.1H302c1.9,0,4,1.42,7,1.42v-.07c-3,0-5-.52-6.91-2L299,93.37H136.53c-7.95,0-15.73,1.76-22.33,6.18L94,112.8l0-.07L67.48,130.36h-.12A40.09,40.09,0,0,0,46,165.65v309c0,22.09,18.21,40.72,40.3,40.72h561c22.09,0,39.7-18.63,39.7-40.72v-309A39.84,39.84,0,0,0,668.91,132.06ZM314.18,85.37H419.49l2.42,8H311.76Z"/>
          <g>
            <g>
              <path class="cls-3" d="M107.23,126.37h-21A39.8,39.8,0,0,0,67.47,131l-.07,0,0,0L93.9,113.36l0,0,0,0C98.63,113.36,107.23,120.45,107.23,126.37Z"/>
              <path class="cls-4" d="M652.9,452.37C639,452.37,627,463.14,627,477v38.33h20.19a39.84,39.84,0,0,0,39.81-40v-23Zm10.84,37.51a8.5,8.5,0,1,1,2.49-6A8.48,8.48,0,0,1,663.74,489.88Z"/>
              <path class="cls-4" d="M668.85,132.78s0,0,0,0a39.68,39.68,0,0,0-21.6-6.36H627v39c0,11,9.64,21,20.69,21H687v-20A39.88,39.88,0,0,0,668.85,132.78Zm-5.11,29.1a8.5,8.5,0,1,1,2.49-6A8.48,8.48,0,0,1,663.74,161.88Z"/>
              <path class="cls-4" d="M82.56,452.37H46v23a40.17,40.17,0,0,0,40.19,40H107V477C107,463.14,96.46,452.37,82.56,452.37Zm.18,37.51a8.5,8.5,0,1,1,2.49-6A8.48,8.48,0,0,1,82.74,489.88Z"/>
              <path class="cls-4" d="M86.23,126.37A39.8,39.8,0,0,0,67.47,131l-.17,0A40.06,40.06,0,0,0,46,166.37v21h.36l41.23-.91c11.05,0,19.4-10,19.4-21.09v-39Zm-3.49,35.51a8.5,8.5,0,1,1,2.49-6A8.48,8.48,0,0,1,82.74,161.88Z"/>
              <path class="cls-2" d="M687,186.37v266H652.9C639,452.37,627,463.14,627,477v38.33H600v-389h27v39c0,11,9.64,21,20.69,21Z"/>
              <rect class="cls-2" x="189.04" y="126.37" width="357" height="389"/>
              <path class="cls-2" d="M135,126.37v389H107V477c0-13.9-10.58-24.67-24.48-24.67H46v-265h.36l41.23-.91c11.05,0,19.4-10,19.4-21.09v-39Z"/>
              <path class="cls-3" d="M669,132.73l0,0-.07,0a39.84,39.84,0,0,0-21.65-6.36h-20c0-5.92,8.81-13,13.49-13l0,0,0,0,28.14,19.33Z"/>
              <path class="cls-5" d="M640.74,113.33l0,0c-4.68,0-13.49,7.1-13.49,13h-27L560,93.42v0h39A40.06,40.06,0,0,1,621.41,100Z"/>
              <polygon class="cls-5" points="546.23 126.37 189.23 126.37 226.04 93.4 226.04 93.37 509.04 93.37 509.04 93.46 546.23 126.37"/>
              <path class="cls-5" d="M175,93.37v0l-39.81,33h-28c0-5.92-8.6-13-13.28-13l0,0,20.16-13.43a39.92,39.92,0,0,1,22.33-6.54Z"/>
              <rect class="cls-6" x="546.04" y="126.37" width="54" height="389"/>
              <rect class="cls-6" x="135.04" y="126.37" width="54" height="389"/>
              <path class="cls-2" d="M560,93.42v0H509v.09l37.19,32.91h54Zm2.93,22h-7.13a5.82,5.82,0,0,1-3.87-1.26l-7.17-5.89c-2.13-1.81-.86-4.85,1.94-4.85H553a5.68,5.68,0,0,1,3.62.8l8.13,5.75A3,3,0,0,1,563,115.37Z"/>
              <path class="cls-2" d="M175,93.37v0l-39.81,33h54L226,93.4v0Zm16.62,14.88-7.17,5.64a6,6,0,0,1-3.87,1.48h-7.13a2.89,2.89,0,0,1-1.81-5.23l8.13-6a5.67,5.67,0,0,1,3.62-.78h6.29C192.52,103.37,193.79,106.44,191.66,108.25Z"/>
              <path class="cls-7" d="M666.23,483.87a8.5,8.5,0,1,1-8.5-8.5A8.48,8.48,0,0,1,666.23,483.87Z"/>
              <path class="cls-7" d="M85.23,483.87a8.5,8.5,0,1,1-8.5-8.5A8.48,8.48,0,0,1,85.23,483.87Z"/>
              <path class="cls-7" d="M85.23,155.87a8.5,8.5,0,1,1-8.5-8.5A8.48,8.48,0,0,1,85.23,155.87Z"/>
              <path class="cls-7" d="M666.23,155.87a8.5,8.5,0,1,1-8.5-8.5A8.48,8.48,0,0,1,666.23,155.87Z"/>
              <path class="cls-7" d="M563,115.37h-7.13a5.82,5.82,0,0,1-3.87-1.26l-7.17-5.89c-2.13-1.81-.86-4.85,1.94-4.85H553a5.68,5.68,0,0,1,3.62.8l8.13,5.75A3,3,0,0,1,563,115.37Z"/>
              <path class="cls-7" d="M191.66,108.25l-7.17,5.64a6,6,0,0,1-3.87,1.48h-7.13a2.89,2.89,0,0,1-1.81-5.23l8.13-6a5.67,5.67,0,0,1,3.62-.78h6.29C192.52,103.37,193.79,106.44,191.66,108.25Z"/>
            </g>
            <polygon class="cls-2" points="310.53 109.87 326.98 93.37 314.23 93.37 310.91 95.84 302.73 99.5 310.53 109.87"/>
            <polygon class="cls-2" points="423.18 109.87 406.73 93.37 419.48 93.37 422.81 95.84 430.98 99.5 423.18 109.87"/>
            <g>
              <path class="cls-4" d="M437.8,104l-.69-.72a6.89,6.89,0,0,0-9.75-.08l-1.94,2.07-6-19.9H424a11.26,11.26,0,0,0,7.42-2.77Z"/>
              <path class="cls-4" d="M314.08,85.37l-6,19.91-1.94-2a6.89,6.89,0,0,0-9.75-.08l-.66.71,6.23-20.82a11.27,11.27,0,0,0,6.81,2.28Z"/>
              <path class="cls-8" d="M301.93,83.09a11.27,11.27,0,0,0,6.81,2.28H424a11.26,11.26,0,0,0,7.42-2.77l0-.12A11.18,11.18,0,0,0,435,74v-.24A11.12,11.12,0,0,0,424,62.37H308.74A11.66,11.66,0,0,0,297,73.75V74a11.47,11.47,0,0,0,4.73,9.1"/>
              <path class="cls-3" d="M310.32,107.64,308,105.28l-1.94-2a6.89,6.89,0,0,0-9.75-.08l-.66.71-3.55,3.77a2.2,2.2,0,0,0,1.41,3.69h15.35A2.23,2.23,0,0,0,310.32,107.64Z"/>
              <path class="cls-3" d="M441.32,107.64,437.8,104l-.69-.72a6.89,6.89,0,0,0-9.75-.08l-1.94,2.07-2.27,2.41a2.2,2.2,0,0,0,1.41,3.69h15.35A2.23,2.23,0,0,0,441.32,107.64Z"/>
            </g>
          </g>
          <g>
            <path class="cls-9" d="M274.23,324.18q5.6,5.92,5.6,17.38,0,12.09-5.47,18.43a17.76,17.76,0,0,1-14.09,6.34,14.77,14.77,0,0,1-9.13-2.73,17.62,17.62,0,0,1-3.89-4.41v23.85H235.41V319.27h11.46V326a19.25,19.25,0,0,1,4.14-4.7,15.28,15.28,0,0,1,9.55-3.07A18.1,18.1,0,0,1,274.23,324.18ZM265,332.79q-2.44-4.07-7.91-4.07a9,9,0,0,0-9,6.17,23.19,23.19,0,0,0-1.27,8.31q0,8,4.28,11.21a9.82,9.82,0,0,0,6,1.89,8.76,8.76,0,0,0,7.7-3.86q2.65-3.86,2.65-10.29A17.88,17.88,0,0,0,265,332.79Z"/>
            <path class="cls-9" d="M300.49,365h-12v-61.9h12Z"/>
            <path class="cls-9" d="M330.3,337.2a18.91,18.91,0,0,0,4.78-1.05,3.6,3.6,0,0,0,2.58-3.4,4,4,0,0,0-2-3.88,12.5,12.5,0,0,0-5.81-1.07q-4.3,0-6.09,2.1a8.64,8.64,0,0,0-1.7,4.2H310.53a17.51,17.51,0,0,1,3.37-9.87q4.77-6,16.36-6a29.17,29.17,0,0,1,13.41,3q5.86,3,5.86,11.25v21q0,2.18.08,5.29a6.65,6.65,0,0,0,.71,3.19,4.27,4.27,0,0,0,1.76,1.38V365h-13a13.27,13.27,0,0,1-.76-2.6q-.21-1.22-.34-2.77a24.68,24.68,0,0,1-5.74,4.58,17.37,17.37,0,0,1-8.79,2.22,15.15,15.15,0,0,1-10.33-3.55q-4.08-3.55-4.08-10.06,0-8.44,6.56-12.22,3.6-2.06,10.58-2.94Zm7.32,5.58a13.15,13.15,0,0,1-2.32,1.15,19.51,19.51,0,0,1-3.21.82l-2.72.5a17.93,17.93,0,0,0-5.5,1.64A5.47,5.47,0,0,0,321,352a5.31,5.31,0,0,0,1.73,4.43,6.56,6.56,0,0,0,4.2,1.37,12.51,12.51,0,0,0,7.23-2.27q3.3-2.27,3.43-8.27Z"/>
            <path class="cls-9" d="M361.8,373.81l1.51.08a18.92,18.92,0,0,0,3.36-.13,6,6,0,0,0,2.69-1,6.48,6.48,0,0,0,2-3,7.21,7.21,0,0,0,.78-2.77l-16.82-47.79h13.31l10,33.76L388,319.27h12.72l-15.69,45q-4.55,13-7.2,16.15t-10.59,3.13l-2.56,0q-1,0-2.9-.15Z"/>
            <path class="cls-9" d="M426.77,302.57l2.52.19v9.74q-1-.13-3.38-.19t-3.28,1a3.81,3.81,0,0,0-.9,2.46v3.86h7.85v8.44h-7.85V365H409.84V328.13h-6.72v-8.44h6.55v-2.94q0-7.35,2.48-10.12,2.6-4.12,12.56-4.12C425.46,302.51,426.15,302.53,426.77,302.57Z"/>
            <path class="cls-9" d="M448.39,319.27v27.59a14.52,14.52,0,0,0,.92,5.88q1.63,3.49,6.39,3.48,6.1,0,8.36-5a18,18,0,0,0,1.17-7.1v-24.9h12.14V365H465.73v-6.47q-.17.21-.84,1.26a8.39,8.39,0,0,1-1.59,1.85,16.59,16.59,0,0,1-5.42,3.44,18.45,18.45,0,0,1-6.13.92q-10.13,0-13.65-7.31-2-4-2-11.88V319.27Z"/>
            <path class="cls-9" d="M501.22,365h-12v-61.9h12Z"/>
          </g>
        </g>
      </g>
    </g>
  </g>
</svg>
