<svg xmlns="http://www.w3.org/2000/svg" xmlns:xlink="http://www.w3.org/1999/xlink" viewBox="0 0 733.46 568.34" class="standard-border-radius">
  <defs>
    <linearGradient id="linear-gradient" x1="24.04" y1="304.37" x2="708.04" y2="304.37" gradientUnits="userSpaceOnUse">
      <stop offset="0" stop-color="#f7f7f7"/>
      <stop offset="1" stop-color="#ccc"/>
    </linearGradient>
  </defs>
  <title>suitcase_wild_closed</title>
  <g style="isolation: isolate">
    <g id="Layer_2" data-name="Layer 2">
      <g id="Layer_3" data-name="Layer 3">
        <g id="Layer_5" data-name="Layer 5">
          <g>
            <image width="930" height="620" transform="translate(0 0) scale(0.79 0.92)" xlink:href="assets/wall_paper/wallpaper_background_wild.png"/>
            <path d="M668.91,132.06s0,0,0,0a39.64,39.64,0,0,0-21.59-6.36A39.86,39.86,0,0,1,669,132l.07,0,0,0-.07,0-28.14-19.33,0,0L621.52,99.68a39.73,39.73,0,0,0-22.36-6.31H434.72L431,82.13V82l.14-.18A11.47,11.47,0,0,0,435,73.27V73c0-6.28-4.68-10.66-11-10.66H308.84c-6.28,0-11.8,4.38-11.8,10.66v.24c0,3.72,2.06,8.1,4.83,10.1H302c1.9,0,4,1.42,7,1.42v-.07c-3,0-5-.52-6.91-2L299,93.37H136.53c-7.95,0-15.73,1.76-22.33,6.18L94,112.8l0-.07L67.48,130.36h-.12A40.09,40.09,0,0,0,46,165.65v309c0,22.09,18.21,40.72,40.3,40.72h561c22.09,0,39.7-18.63,39.7-40.72v-309A39.84,39.84,0,0,0,668.91,132.06ZM314.18,85.37H419.49l2.42,8H311.76Z" transform="translate(0 0)" style="fill: #b89065"/>
            <g>
              <path d="M107.23,126.37h-21A39.8,39.8,0,0,0,67.47,131l-.07,0,0,0L93.9,113.36l0,0,0,0C98.63,113.36,107.23,120.45,107.23,126.37Z" transform="translate(0 0)" style="fill: #c4c4c4"/>
              <path d="M652.9,452.37C639,452.37,627,463.14,627,477v38.33h20.19a39.84,39.84,0,0,0,39.81-40v-23Zm10.84,37.51a8.5,8.5,0,1,1,2.49-6A8.48,8.48,0,0,1,663.74,489.88Z" transform="translate(0 0)" style="fill: #a7a9ac"/>
              <path d="M668.85,132.78s0,0,0,0a39.68,39.68,0,0,0-21.6-6.36H627v39c0,11,9.64,21,20.69,21H687v-20A39.88,39.88,0,0,0,668.85,132.78Zm-5.11,29.1a8.5,8.5,0,1,1,2.49-6A8.48,8.48,0,0,1,663.74,161.88Z" transform="translate(0 0)" style="fill: #a7a9ac"/>
              <path d="M82.56,452.37H46v23a40.17,40.17,0,0,0,40.19,40H107V477C107,463.14,96.46,452.37,82.56,452.37Zm.18,37.51a8.5,8.5,0,1,1,2.49-6A8.48,8.48,0,0,1,82.74,489.88Z" transform="translate(0 0)" style="fill: #a7a9ac"/>
              <path d="M86.23,126.37A39.8,39.8,0,0,0,67.47,131l-.17,0A40.06,40.06,0,0,0,46,166.37v21h.36l41.23-.91c11.05,0,19.4-10,19.4-21.09v-39Zm-3.49,35.51a8.5,8.5,0,1,1,2.49-6A8.48,8.48,0,0,1,82.74,161.88Z" transform="translate(0 0)" style="fill: #a7a9ac"/>
              <path d="M687,186.37v266H652.9C639,452.37,627,463.14,627,477v38.33H600v-389h27v39c0,11,9.64,21,20.69,21Z" transform="translate(0 0)" style="fill: #b89065"/>
              <rect x="189.04" y="126.37" width="357" height="389" style="fill: #b89065"/>
              <path d="M135,126.37v389H107V477c0-13.9-10.58-24.67-24.48-24.67H46v-265h.36l41.23-.91c11.05,0,19.4-10,19.4-21.09v-39Z" transform="translate(0 0)" style="fill: #b89065"/>
              <path d="M669,132.73l0,0-.07,0a39.84,39.84,0,0,0-21.65-6.36h-20c0-5.92,8.81-13,13.49-13l0,0,0,0,28.14,19.33Z" transform="translate(0 0)" style="fill: #c4c4c4"/>
              <path d="M640.74,113.33l0,0c-4.68,0-13.49,7.1-13.49,13h-27L560,93.42v0h39A40.06,40.06,0,0,1,621.41,100Z" transform="translate(0 0)" style="fill: #caac8b"/>
              <polygon points="546.23 126.37 189.23 126.37 226.04 93.4 226.04 93.37 509.04 93.37 509.04 93.46 546.23 126.37" style="fill: #caac8b"/>
              <path d="M175,93.37v0l-39.81,33h-28c0-5.92-8.6-13-13.28-13l0,0,20.16-13.43a39.92,39.92,0,0,1,22.33-6.54Z" transform="translate(0 0)" style="fill: #caac8b"/>
              <rect x="546.04" y="126.37" width="54" height="389" style="fill: #a6743e"/>
              <rect x="135.04" y="126.37" width="54" height="389" style="fill: #a6743e"/>
              <path d="M560,93.42v0H509v.09l37.19,32.91h54Zm2.93,22h-7.13a5.82,5.82,0,0,1-3.87-1.26l-7.17-5.89c-2.13-1.81-.86-4.85,1.94-4.85H553a5.68,5.68,0,0,1,3.62.8l8.13,5.75A3,3,0,0,1,563,115.37Z" transform="translate(0 0)" style="fill: #b89065"/>
              <path d="M175,93.37v0l-39.81,33h54L226,93.4v0Zm16.62,14.88-7.17,5.64a6,6,0,0,1-3.87,1.48h-7.13a2.89,2.89,0,0,1-1.81-5.23l8.13-6a5.67,5.67,0,0,1,3.62-.78h6.29C192.52,103.37,193.79,106.44,191.66,108.25Z" transform="translate(0 0)" style="fill: #b89065"/>
              <path d="M666.23,483.87a8.5,8.5,0,1,1-8.5-8.5A8.48,8.48,0,0,1,666.23,483.87Z" transform="translate(0 0)" style="fill: gray"/>
              <path d="M85.23,483.87a8.5,8.5,0,1,1-8.5-8.5A8.48,8.48,0,0,1,85.23,483.87Z" transform="translate(0 0)" style="fill: gray"/>
              <path d="M85.23,155.87a8.5,8.5,0,1,1-8.5-8.5A8.48,8.48,0,0,1,85.23,155.87Z" transform="translate(0 0)" style="fill: gray"/>
              <path d="M666.23,155.87a8.5,8.5,0,1,1-8.5-8.5A8.48,8.48,0,0,1,666.23,155.87Z" transform="translate(0 0)" style="fill: gray"/>
              <path d="M563,115.37h-7.13a5.82,5.82,0,0,1-3.87-1.26l-7.17-5.89c-2.13-1.81-.86-4.85,1.94-4.85H553a5.68,5.68,0,0,1,3.62.8l8.13,5.75A3,3,0,0,1,563,115.37Z" transform="translate(0 0)" style="fill: gray"/>
              <path d="M191.66,108.25l-7.17,5.64a6,6,0,0,1-3.87,1.48h-7.13a2.89,2.89,0,0,1-1.81-5.23l8.13-6a5.67,5.67,0,0,1,3.62-.78h6.29C192.52,103.37,193.79,106.44,191.66,108.25Z" transform="translate(0 0)" style="fill: gray"/>
            </g>
            <g>
              <path d="M312.29,289.27h12.14l7,33,7.14-33H351L337.74,335h-12.3l-7.18-33.34L311,335H298.56l-12.85-45.77h12.85l7.14,32.84Z" transform="translate(0 0)" style="fill: #fff"/>
              <path d="M369.91,283.81H357.77v-11h12.14Zm-12.14,5.46h12.14V335H357.77Z" transform="translate(0 0)" style="fill: #fff"/>
              <path d="M393.72,335h-12v-61.9h12Z" transform="translate(0 0)" style="fill: #fff"/>
              <path d="M429.66,290a14.55,14.55,0,0,1,5.25,5.06V273.22H447V335H435.42V328.7a16.88,16.88,0,0,1-5.84,5.92,16.39,16.39,0,0,1-8.15,1.85,17,17,0,0,1-13.5-6.49q-5.48-6.49-5.48-16.65,0-11.72,5.4-18.43a17.56,17.56,0,0,1,14.42-6.72A14.77,14.77,0,0,1,429.66,290Zm2.94,32.61a16.7,16.7,0,0,0,2.65-9.78q0-8.4-4.24-12a9.13,9.13,0,0,0-6-2.18q-5.25,0-7.71,4a18.4,18.4,0,0,0-2.46,9.85q0,6.34,2.5,10.14a8.45,8.45,0,0,0,7.58,3.8A8.84,8.84,0,0,0,432.6,322.61Z" transform="translate(0 0)" style="fill: #fff"/>
            </g>
            <path d="M689.49,136.19s.43,0,.41-.05c-6.66-4.29-6.33-4.29.33,0,0,0,.13,0,.15.05v-.11L639.7,102.37c-7-4.73-15.37-6-23.85-6H440.37l-3.84-12.61h0S439,77.05,439,73.45v-.26c0-6.7-3.33-10.82-10-10.82H306c-6.7,0-15,4.12-15,10.82v.26c0,4,3.82,9.18,6.78,11.31l-2.35,11.61H122.13c-8.48,0-16.79,1.14-23.83,5.86L48.44,134.81l0-.21s-.9-.11-.91-.1C34.1,141.68,24,155.73,24,172V501.8c0,23.57,21,44.57,44.53,44.57h598.7c23.57,0,40.77-21,40.77-44.57V172C708,157,701.23,143.8,689.49,136.19ZM311.73,87.37H424.11l2.59,9H309.14Z" transform="translate(0 0)" style="mix-blend-mode: multiply;fill: url(#linear-gradient)"/>
          </g>
        </g>
      </g>
    </g>
  </g>
</svg>
