<svg xmlns="http://www.w3.org/2000/svg" xmlns:xlink="http://www.w3.org/1999/xlink" viewBox="0 0 733.46 568.34" class="standard-border-radius">
  <defs>
    <linearGradient id="linear-gradient" x1="30.03" y1="281.87" x2="703.03" y2="281.87" gradientUnits="userSpaceOnUse">
      <stop offset="0" stop-color="#f7f7f7"/>
      <stop offset="1" stop-color="#ccc"/>
    </linearGradient>
    <clipPath id="clip-path">
      <polygon points="208.33 375.89 87.47 375.51 83.98 279.42 208.33 278.11 208.33 375.89" style="fill: none"/>
    </clipPath>
    <linearGradient id="linear-gradient-2" x1="494.2" y1="181.74" x2="494.2" y2="368.1" gradientUnits="userSpaceOnUse">
      <stop offset="0.29" stop-color="#ff73c0"/>
      <stop offset="0.6" stop-color="#ff75c1"/>
      <stop offset="1" stop-color="#ffa9dc"/>
    </linearGradient>
    <linearGradient id="linear-gradient-3" x1="510.85" y1="266.64" x2="530.85" y2="266.64" gradientUnits="userSpaceOnUse">
      <stop offset="0.01" stop-color="#fbfc01"/>
      <stop offset="1" stop-color="#7ac943"/>
    </linearGradient>
    <linearGradient id="linear-gradient-4" x1="515.51" y1="280.14" x2="535.51" y2="280.14" xlink:href="#linear-gradient-3"/>
    <linearGradient id="linear-gradient-5" x1="805.79" y1="-21.18" x2="825.79" y2="-21.18" gradientTransform="translate(562.69 1095.94) rotate(-90)" xlink:href="#linear-gradient-3"/>
    <linearGradient id="linear-gradient-6" x1="993.39" y1="44.71" x2="1013.39" y2="44.71" gradientTransform="translate(502.48 1272.53) rotate(-90)" xlink:href="#linear-gradient-3"/>
    <linearGradient id="linear-gradient-7" x1="524.01" y1="258.21" x2="544.01" y2="258.21" xlink:href="#linear-gradient-3"/>
  </defs>
  <title>suitcase_playful_open</title>
  <g style="isolation: isolate">
    <g id="Layer_2" data-name="Layer 2">
      <g id="suitcase_playful">
        <g>
          <image width="930" height="620" transform="scale(0.79 0.92)" xlink:href="assets/wall_paper/wallpaper_background_playful.png"/>
          <path d="M703,480.37V384.2a.93.93,0,0,0-1-.91L644.4,325.4,678,103.52v-.29l.36-3.41c3.3-21.9-13.85-41.45-36-41.45H585.12L586,43.56a14.33,14.33,0,0,0-14.57-15.18H558.77a14.43,14.43,0,0,0-14.57,15.31l.92,14.69H185.24l.92-14.82A14.33,14.33,0,0,0,171.6,28.37H158.89a14.43,14.43,0,0,0-14.57,15.31l.92,14.69H90.14a36.17,36.17,0,0,0-35.74,42l.51,3.1,0,0v.07L91.23,325,30.56,383.28c-.53,0-.53.46-.53.92v96.17h0V506.3c0,16.05,12.14,29.07,28.19,29.07H96V505.82a15.81,15.81,0,0,1,1,6.81v22.74H673.12c16.05,0,29.91-13,29.91-29.07V480.37h0ZM435.5,454.08a15.31,15.31,0,0,0-1.26-1.13,1.51,1.51,0,0,0-.19-.16,2.27,2.27,0,0,0-.3-.23c-.14-.11-.27-.21-.42-.31a13.57,13.57,0,0,0-1.27-.83l-.23-.14-.67-.36-.11-.06-.33-.16-.22-.12.55.26.11.06.67.36.23.14a13.62,13.62,0,0,1,1.27.83c.15.1.28.2.42.31a2.25,2.25,0,0,1,.3.23,1.51,1.51,0,0,1,.19.16,15.26,15.26,0,0,1,1.26,1.13q.62.63,1.19,1.32Q436.13,454.71,435.5,454.08Zm-6.12-4,.24.09c.23.09.47.2.7.31C430,450.37,429.7,450.24,429.39,450.12ZM132.53,306.44l470.15.1,34-203-34,203,40.4,18.83-40.4-18.87-470.15-.17h0L95.31,103.48Z" style="mix-blend-mode: multiply;fill: url(#linear-gradient)"/>
          <g>
            <path d="M680.46,376.77l-53.9-54.46,31.24-207v-.21l.5-3.16A33.62,33.62,0,0,0,624.9,73.37H109.67A33.69,33.69,0,0,0,76.33,112.5l.47,2.8,0,0v.06l33.93,207L54,376.77c-.49,0-1,0-1,.46V478.66c0,21.68,17.67,39.71,39.35,39.71H642c21.68,0,39-18,39-39.71V377.23C681,376.73,681,376.77,680.46,376.77ZM549.48,62l-.32.09ZM176.41,62l-.32.09Z" style="fill: #caac8b"/>
            <g>
              <path d="M155,376.37v142H116V497c0-16.55-14.36-29.67-30.91-29.67H53V377.23a.8.8,0,0,1,.77-.85Z" style="fill: #b89065"/>
              <path d="M115.3,490.23v28.14H79.9a27.31,27.31,0,0,1-27.23-27.23v-23.6H92.61A22.76,22.76,0,0,1,115.3,490.23Z" style="fill: #a7a9ac"/>
              <path d="M205,376.37v142H529v-142ZM436.2,459.66c-.06.23-.13.44-.21.66s-.11.33-.16.49-.15.37-.23.55a2.22,2.22,0,0,1-.09.22c-.08.19-.16.37-.25.55s-.07.16-.12.25-.16.34-.26.52l-.15.27c0,.09-.1.17-.15.25s-.26.44-.41.66-.16.26-.25.39-.17.26-.27.39l-.21.28c-.2.26-.41.53-.63.78a13,13,0,0,1-.89,1q-.37.38-.76.74c-.23.21-.45.41-.7.6l-.23.18c-.2.15-.41.32-.63.46a11.48,11.48,0,0,1-1,.65,10.3,10.3,0,0,1-2.15,1.41c-.05,0,.55,0,.55.05h0l-.8,0c-.22.08-.79.15-1,.23s-.75.18-1,.25h-.1c-.27.08-.59.15-.88.2l-.3.05-.29.05-.11,0h-.18l-.22,0c-.22,0-.44.21-.65.23a16.11,16.11,0,0,1-1.76.24H314.38a17.5,17.5,0,0,1,0-35H419.68c.6,0,1.19.13,1.77.19.29,0,.58.11.86.15a17.47,17.47,0,0,1,4.08,1.09c.25.1.52.22.76.34l.56.27.1.06.63.34.22.13a12.68,12.68,0,0,1,1.19.77c.14.09.26.19.39.29a2.12,2.12,0,0,1,.28.22,1.41,1.41,0,0,1,.18.15,14.28,14.28,0,0,1,1.17,1.05,17.37,17.37,0,0,1,3.69,5.54c.09.22.18.44.26.67s.15.44.23.68.15.45.21.69a15.88,15.88,0,0,1,.45,2.1c0,.07.09.15.1.21a10.17,10.17,0,0,1,.21,1.48v.06c0,.25-.11.51-.11.76s.1.59.09.89c0,.07,0,.15,0,.24v.07a6.85,6.85,0,0,1-.15.84,3.87,3.87,0,0,1-.08.44,4.34,4.34,0,0,1-.11.52c0,.07,0,.14-.05.21a2.09,2.09,0,0,1-.09.4c0,.21-.09.43-.13.64S436.28,459.39,436.2,459.66Z" style="fill: #b89065"/>
              <path d="M155,376.37v142h50v-142Zm25,94.35a18.06,18.06,0,0,1-18-18.15V444.4a18.5,18.5,0,0,1-.12-1.85,18.19,18.19,0,0,1,5.22-11,17.9,17.9,0,0,1,5.77-3.89,18.5,18.5,0,0,1,5.35-1.34l.8-.05.81,0,.93,0,.78.05a17.8,17.8,0,0,1,15.13,11.51,18.4,18.4,0,0,1,.83,2.9c.12.59.27,1.19.34,1.81a17.75,17.75,0,0,1,.16,1.85v8.17a17.87,17.87,0,0,1-5,12.83A18.26,18.26,0,0,1,180.07,470.72Z" style="fill: #a6743e"/>
              <path d="M178.22,426.32a18.68,18.68,0,0,0-5.37,1.34A17.38,17.38,0,0,1,178.22,426.32Z" style="fill: none"/>
              <path d="M422.31,471.87a15.3,15.3,0,0,0,1.68-.34l-.84.2-.28.05-.39.07h-.09l-.3,0-.65.08C421.73,472,422,471.92,422.31,471.87Z" style="fill: none"/>
              <path d="M431.88,442.53a17,17,0,0,0-10.43-4.87c.29,0,.57.05.86.1a17.43,17.43,0,0,1,4.08,1.06l.76.33.56.26.1.05.63.34.22.13a12.67,12.67,0,0,1,1.19.77c.14.09.26.19.39.29a2.12,2.12,0,0,1,.28.22,1.41,1.41,0,0,1,.18.15,14.28,14.28,0,0,1,1.17,1.05,17.37,17.37,0,0,1,3.69,5.54A17.36,17.36,0,0,0,431.88,442.53Z" style="fill: none"/>
              <path d="M437,454.61v.12c0,.25-.06.52-.07.77,0,.41-.09.82-.14,1.22a15.5,15.5,0,0,1-.39,2.14,11.9,11.9,0,0,1-.43,1.47l-.17.49c-.07.19-.15.37-.23.55a2.23,2.23,0,0,1-.09.22c-.08.19-.16.37-.25.55s-.07.16-.12.25-.16.34-.26.52l-.15.27c0,.09-.1.17-.15.25l-.41.66c-.08.13-.16.26-.25.39s-.17.26-.27.39l-.21.28c-.2.26-.41.53-.63.78a13,13,0,0,1-.89,1q-.37.38-.76.74c-.23.21-.46.41-.7.6l-.23.18c-.21.16-.41.32-.63.46a11.48,11.48,0,0,1-1,.65,17.28,17.28,0,0,1-4.62,2,17.55,17.55,0,0,0,12.54-13.31,2.05,2.05,0,0,0,.07-.4l0-.21a4.52,4.52,0,0,0,.05-.52c0-.15.18-.29.18-.44a6.85,6.85,0,0,0,.15-.84v-.07c0-.08,0-.16,0-.24,0-.3,0-.59,0-.89s0-.51,0-.76C437,454.1,437,454.35,437,454.61Z" style="fill: none"/>
              <path d="M681,377.23v90.15h-31.1A29.66,29.66,0,0,0,620,497v21.33H578v-142H680.34C680.84,376.37,681,376.73,681,377.23Z" style="fill: #b89065"/>
              <path d="M529,376.37v142h49v-142Zm24.08,94.35A18.08,18.08,0,0,1,535,452.56V444.4a14.64,14.64,0,0,1,5.15-12.83,17.93,17.93,0,0,1,5.78-3.89,18.53,18.53,0,0,1,5.35-1.34l.81-.05.81,0,.93,0,.78.05a17.8,17.8,0,0,1,15.13,11.51,18.4,18.4,0,0,1,.83,2.9c.12.59.24,1.19.31,1.81a17.76,17.76,0,0,1,.12,1.85v8.17a17.86,17.86,0,0,1-5,12.83A18.22,18.22,0,0,1,553.11,470.72Z" style="fill: #a6743e"/>
              <path d="M551.28,426.32a18.68,18.68,0,0,0-5.37,1.34A17.38,17.38,0,0,1,551.28,426.32Z" style="fill: none"/>
              <path d="M680.79,467.54v23.6a27.31,27.31,0,0,1-27.23,27.23H620V490.23a22.69,22.69,0,0,1,22.69-22.69Z" style="fill: #a7a9ac"/>
              <polygon points="111.21 376.37 53.8 376.37 110.76 321.91 111.21 376.37" style="fill: #997458"/>
              <polygon points="626.03 376.37 626.03 376.32 626.15 322.37 626.5 322.37 680.34 376.37 626.03 376.37" style="fill: #997458"/>
              <polygon points="626.03 376.32 626.03 376.37 111.21 376.37 110.76 322.37 626.15 322.37 626.03 376.32" style="fill: #84644a"/>
              <polygon points="578.03 73.37 578.03 115.37 529.03 115.37 529.03 73.37 534.17 73.37 535.11 89.37 570.51 89.37 571.45 73.37 578.03 73.37" style="fill: #a6743e"/>
              <polygon points="205.03 73.37 205.03 115.37 155.03 115.37 155.03 73.37 161.11 73.37 162.05 89.37 197.45 89.37 198.38 73.37 205.03 73.37" style="fill: #a6743e"/>
              <polygon points="625.52 322.37 111.72 322.37 149.22 304.7 587.84 304.81 625.52 322.37" style="fill: #997458"/>
              <path d="M155,73.37v42H76.83v-.05l0,0-.47-2.86a33.7,33.7,0,0,1,33.34-39.13Z" style="fill: #caac8b"/>
              <path d="M658.3,112l-.51,3.12,0,.27H578v-42H624.9A33.61,33.61,0,0,1,658.3,112Z" style="fill: #caac8b"/>
              <rect x="205.03" y="73.37" width="324" height="42" style="fill: #caac8b"/>
              <polygon points="657.77 115.37 626.5 322.37 625.52 322.37 587.84 304.8 619.57 115.37 657.77 115.37" style="fill: #b89065"/>
              <polygon points="149.22 304.7 111.72 322.37 110.76 322.37 76.83 115.37 114.5 115.37 149.22 304.7" style="fill: #b89065"/>
              <polygon points="619.57 115.37 587.84 304.77 149.22 304.68 114.5 115.37 619.57 115.37" style="fill: #84644a"/>
              <polyline points="626.15 322.31 626.15 321.86 625.3 321.4" style="fill: none"/>
              <line x1="111.72" y1="321.4" x2="110.76" y2="321.86" style="fill: none"/>
              <polyline points="657.77 115.36 657.79 115.36 658.1 115.36" style="fill: none"/>
              <polyline points="76.27 115.36 76.8 115.36 76.83 115.36" style="fill: none"/>
              <path d="M441,457.41v.06c0,.25-.29.51-.29.76s.19.59.18.89c0,.07.11.15.11.24v.07c0,.28-.3.56-.33.84s-.15.29-.18.44a4.3,4.3,0,0,1-.15.52c0,.07-.07.14-.08.21a2.13,2.13,0,0,1-.1.4,17.56,17.56,0,0,1-12.55,13.31h0a15.35,15.35,0,0,1-1.68.34c-.29,0-.58.42-.87.45a16.6,16.6,0,0,1-1.76.42H318a17.5,17.5,0,0,1,0-35H423.31c.6,0,1.19,0,1.77,0a16.91,16.91,0,0,1,10.43,4.83,17.28,17.28,0,0,1,3.69,5.4c.09.22.18.44.26.66s.15.44.23.68.15.45.21.69a16.64,16.64,0,0,1,.7,2.1A12.08,12.08,0,0,1,441,457.41Z" style="fill: #443a38"/>
              <path d="M437,454.61v.12c0,.25-.06.52-.07.77a16.46,16.46,0,0,1-.32,2.32c0-.07,0-.14,0-.21a4.55,4.55,0,0,0,0-.52c0-.15.17-.29.18-.44a6.83,6.83,0,0,0,.15-.84v-.07c0-.08,0-.16,0-.24,0-.3,0-.59,0-.89s0-.51,0-.76C437,454.1,437,454.35,437,454.61Z" style="fill: none"/>
              <path d="M436.72,452.09a15.88,15.88,0,0,0-.45-2.1c-.06-.24-.13-.46-.21-.69s-.15-.46-.23-.68a16,16,0,0,1,.93,3.68c.07.49.12,1,.15,1.48C436.87,453.21,436.81,452.65,436.72,452.09Z" style="fill: none"/>
              <path d="M574,445.06v8.65a19,19,0,1,1-38,0v-8.65a14.82,14.82,0,0,1,5.52-13.58,19,19,0,0,1,6-4.12,19.58,19.58,0,0,1,5.66-1.42l.85-.06.86,0,1,0,.82.06a19.05,19.05,0,0,1,16,12.18,19.47,19.47,0,0,1,.88,3.07c.12.62.24,1.26.31,1.91A18.81,18.81,0,0,1,574,445.06Z" style="fill: #666"/>
              <path d="M551.28,426.32a18.68,18.68,0,0,0-5.37,1.34A17.38,17.38,0,0,1,551.28,426.32Z" style="fill: none"/>
              <path d="M178.22,426.32a18.68,18.68,0,0,0-5.37,1.34A17.38,17.38,0,0,1,178.22,426.32Z" style="fill: none"/>
              <polygon points="534.17 73.37 535.11 88.92 534.17 73.66 534.16 73.37 534.17 73.37" style="fill: none"/>
              <path d="M559.8,67.44l-.32,5.94H546.14L546,67.8v-.38A5.59,5.59,0,0,1,549.4,62c.29-.1.54-.4.84-.43s.27-.24.44-.24h4.25C557.75,61.37,560,64.32,559.8,67.44Z" style="fill: none"/>
              <polygon points="571.46 73.37 571.45 73.83 570.51 88.86 571.45 73.37 571.46 73.37" style="fill: none"/>
              <polygon points="161.11 73.37 162.05 88.92 161.11 73.66 161.09 73.37 161.11 73.37" style="fill: none"/>
              <path d="M186.74,67.44l-.32,5.94H173.07l0-5.57v-.38A5.57,5.57,0,0,1,176.37,62c.29-.1.52-.4.83-.43s.26-.24.43-.24h4.25C184.68,61.37,186.91,64.32,186.74,67.44Z" style="fill: none"/>
              <polygon points="198.4 73.37 198.38 73.83 197.45 88.86 198.38 73.37 198.4 73.37" style="fill: none"/>
              <polygon points="559.49 73.37 559.48 73.8 559.14 80.37 546.47 80.37 546.14 73.91 546.13 73.37 559.49 73.37" style="fill: #a6743e"/>
              <path d="M559.8,67.44l-.31,5.94H546.13l-.1-5.5v-.45A5.7,5.7,0,0,1,549.4,62c.29-.1.54-.4.84-.43s.27-.24.44-.24h4.25C557.75,61.37,560,64.32,559.8,67.44Z" style="fill: none"/>
              <polygon points="186.43 73.37 186.42 73.8 186.08 80.37 173.41 80.37 173.07 73.91 173.07 73.37 186.43 73.37" style="fill: #a6743e"/>
              <path d="M186.74,67.44l-.31,5.94H173.07l0-5.5v-.45A5.67,5.67,0,0,1,176.37,62c.29-.1.52-.4.83-.43s.26-.24.43-.24h4.25C184.68,61.37,186.91,64.32,186.74,67.44Z" style="fill: none"/>
              <line x1="680.79" y1="467.54" x2="680.79" y2="467.54" style="fill: none"/>
              <line x1="578.03" y1="376.37" x2="578.03" y2="375.37" style="fill: none"/>
              <line x1="529.03" y1="376.37" x2="529.03" y2="375.37" style="fill: none"/>
              <line x1="205.03" y1="376.37" x2="205.03" y2="375.37" style="fill: none"/>
              <line x1="155.03" y1="376.37" x2="155.03" y2="375.37" style="fill: none"/>
              <path d="M572,443.25v8.65a18.7,18.7,0,0,1-18.85,19.21A19.16,19.16,0,0,1,534,451.9v-8.65a19.21,19.21,0,0,1,0-2,19.62,19.62,0,0,1,5.69-11.62,19.14,19.14,0,0,1,6-4.12,19.66,19.66,0,0,1,5.67-1.42l.86-.06.86,0,1,0,.83.06a19.05,19.05,0,0,1,16,12.18,19.47,19.47,0,0,1,.88,3.07c.12.62.15,1.26.22,1.91A19,19,0,0,1,572,443.25Z" style="fill: gray"/>
              <path d="M201,446v8.65a19,19,0,1,1-38,0V446c0-.66-.23-1.32-.16-2a19.54,19.54,0,0,1,5.63-11.62,19,19,0,0,1,6-4.12,19.56,19.56,0,0,1,5.65-1.42l.85-.06.86,0,1,0,.82.06a19,19,0,0,1,16,12.18,19.47,19.47,0,0,1,.88,3.07c.12.62.27,1.26.34,1.91A18.79,18.79,0,0,1,201,446Z" style="fill: #666"/>
              <path d="M199,444.16v8.65A18.75,18.75,0,0,1,180.17,472,19.14,19.14,0,0,1,161,452.8v-8.65a19.32,19.32,0,0,1-.07-2,19.6,19.6,0,0,1,5.68-11.62,19.11,19.11,0,0,1,6-4.12,19.63,19.63,0,0,1,5.67-1.42l.85-.06.86,0,1,0,.82.06a19.05,19.05,0,0,1,16,12.18,19.47,19.47,0,0,1,.88,3.07c.12.62.18,1.26.25,1.91A18.9,18.9,0,0,1,199,444.16Z" style="fill: gray"/>
              <path d="M437,453.78v.06c0,.25-.11.51-.11.76s.1.59.09.89c0,.07,0,.15,0,.24v.07a6.85,6.85,0,0,1-.15.84,3.87,3.87,0,0,1-.08.44,4.34,4.34,0,0,1-.11.52c0,.07,0,.14-.05.21a2.09,2.09,0,0,1-.09.4A17.56,17.56,0,0,1,424,471.53h0a15.33,15.33,0,0,1-1.68.34c-.29,0-.58.24-.87.26a16.12,16.12,0,0,1-1.76.24H314.38a17.5,17.5,0,0,1,0-35H419.68c.6,0,1.19.13,1.77.19a17,17,0,0,1,10.43,4.92,17.48,17.48,0,0,1,3.69,5.45c.09.22.18.46.26.69s.15.45.23.69.15.46.21.69a16,16,0,0,1,.52,2.1A11.65,11.65,0,0,1,437,453.78Z" style="fill: #645551"/>
              <polygon points="197.22 88.8 204.25 73.37 194.27 73.37 197.22 88.8" style="fill: #936538"/>
              <polygon points="173.18 79.73 177.25 73.37 168.85 73.37 173.18 79.73" style="fill: #936538"/>
              <g>
                <polygon points="535.34 88.8 528.3 73.37 538.29 73.37 535.34 88.8" style="fill: #936538"/>
                <polygon points="559.37 79.73 555.31 73.37 563.7 73.37 559.37 79.73" style="fill: #936538"/>
              </g>
              <path d="M185.67,45.37H173.82a13.46,13.46,0,0,0-13.59,14.29l.86,13.71h0l.93,16h35.4l.93-16h0l.86-13.83A13.37,13.37,0,0,0,185.67,45.37Zm.74,28.43-.34,6.57H173.41l-.34-6.46v-.54h0l0-5.57v-.38A5.57,5.57,0,0,1,176.37,62c.29-.1.59-.4.89-.43s.19-.24.36-.24h4.25c2.81,0,5,3,4.87,6.06l-.32,5.94h0Z" style="fill: gray"/>
              <path d="M558.74,45.37H546.88a13.46,13.46,0,0,0-13.59,14.29l.86,13.71h0l.93,16h35.4l.93-16h0l.86-13.83A13.37,13.37,0,0,0,558.74,45.37Zm.74,28.43-.34,6.57H546.47l-.34-6.46v-.54h0L546,67.8v-.38A5.59,5.59,0,0,1,549.4,62c.29-.1.6-.4.91-.43s.21-.24.38-.24h4.25c2.81,0,5,3,4.87,6.06l-.32,5.94h0Z" style="fill: gray"/>
            </g>
          </g>
          <g>
            <polygon points="531.24 357.42 531.2 357.37 80.52 357.37 96.18 340.37 96.19 340.37 518.35 342.08 531.24 357.42" style="fill: #50fc00"/>
            <polygon points="520.46 344.97 94.05 343.39 106.9 329.32 508.56 331.15 520.46 344.97" style="fill: #fbfc01"/>
            <polygon points="545.91 376.37 63.98 375.32 81.63 356.36 531.2 357.55 545.91 376.37" style="fill: #009ad8"/>
          </g>
          <line x1="588.03" y1="376.37" x2="588.03" y2="376.37" style="fill: none"/>
          <path d="M378.68,240.6l-.5.28" style="fill: none"/>
          <path d="M503.37,131.58a9.17,9.17,0,1,1-9.18-9.18A9.17,9.17,0,0,1,503.37,131.58Z" style="fill: #352d2c"/>
          <path d="M472.06,159.78l-84.73,84.7a9,9,0,0,0,6.38,15.41H587.79a9,9,0,0,0,6.45-15.34L511.46,160A27.72,27.72,0,0,0,472.06,159.78Z" style="fill: none;stroke: #fff;stroke-miterlimit: 10;stroke-width: 10px"/>
          <path d="M494.1,149.35l7.62-8.16a11.17,11.17,0,0,0-3.18-17.53c-6-3.18-15.52-.6-18.38,9.21" style="fill: none;stroke: #fff;stroke-miterlimit: 10;stroke-width: 8px"/>
          <rect x="462.37" y="135.37" width="70.15" height="24.5" style="fill: none"/>
          <polyline points="480.33 344.39 492.67 325.58 492.71 325.52 492.78 325.41 571.17 205.92" style="fill: none"/>
          <polyline points="541.76 167.96 545.67 166.69 545.91 166.61 545.83 166.83 490.4 315.31" style="fill: none"/>
          <path d="M490.44,312.77l0,2.54v.44a1,1,0,0,1-.2.6,1,1,0,0,1-1.14.33.94.94,0,0,1-.61-.67L446.58,164.37l.19.08" style="fill: none"/>
          <g style="clip-path: url(#clip-path)">
            <g>
              <polygon points="124.88 329.37 120.83 343.01 108.53 384.37 108.15 384.37 105.73 392.61 88.03 390.17 88.03 329.37 124.88 329.37" style="fill: #fff"/>
              <polygon points="147.03 288.97 147.03 312.17 146.99 312.32 131.03 308.59 124.88 329.37 88.03 329.37 88.03 286.17 147.03 288.97" style="fill: #333"/>
              <line x1="127.03" y1="349.17" x2="127.03" y2="349.17" style="fill: none"/>
              <g>
                <path d="M104.47,302.24l-3.6,10.45H97.18l-3.89-10.45h5l1.86,5,1.72-5Z" style="fill: #fff"/>
                <path d="M111.22,311.06l-.39,1.64h-5.9V304h5.9l.39,1.64h-2.59v2.2h1.73l.39,1.63h-2.12v1.57Z" style="fill: #fff"/>
                <path d="M119.91,312.7h-2.08l-3.58-3.15v3.15h-2.13V304H114l3.74,3.35V304h2.15Z" style="fill: #fff"/>
                <path d="M124.46,312.7h-3.71V304h3.71Z" style="fill: #fff"/>
                <path d="M132.7,311.06l-.35,1.64h-2.79a4.34,4.34,0,0,1,0-8.67h2.79l.35,1.64h-3.59v5.39Z" style="fill: #fff"/>
                <path d="M139.51,311.06l-.39,1.64h-5.9V304h5.9l.39,1.64h-2.59v2.2h1.73l.39,1.63h-2.12v1.57Z" style="fill: #fff"/>
              </g>
              <g style="opacity: 0.8">
                <line x1="97.03" y1="337.37" x2="132.03" y2="337.37" style="fill: #f4987a;stroke: #485967;stroke-miterlimit: 10;stroke-width: 4px"/>
                <line x1="97.03" y1="345.37" x2="132.03" y2="345.37" style="fill: #f4987a;stroke: #485967;stroke-miterlimit: 10;stroke-width: 4px"/>
                <line x1="97.03" y1="353.37" x2="132.03" y2="353.37" style="fill: #f4987a;stroke: #485967;stroke-miterlimit: 10;stroke-width: 4px"/>
                <line x1="97.03" y1="361.37" x2="132.03" y2="361.37" style="fill: #f4987a;stroke: #485967;stroke-miterlimit: 10;stroke-width: 4px"/>
              </g>
              <polygon points="181.75 320.67 171.76 357.92 120.83 342.81 124.88 329.17 131.03 308.49 146.99 312.32 181.75 320.67" style="fill: #4d4d4d"/>
              <polygon points="171.76 357.92 160.03 401.67 108.53 384.17 120.83 342.81 171.76 357.92" style="fill: #fff"/>
              <g>
                <path d="M141.65,323.93l-6.39,9-3.54-1-.8-11.12,4.78,1.4.38,5.31,3.05-4.31Z" style="fill: #fff"/>
                <path d="M145.65,334.29l-.83,1.46-5.66-1.66,2.43-8.32,5.66,1.66-.08,1.68-2.48-.73-.62,2.11,1.66.48-.08,1.67-2-.59-.44,1.51Z" style="fill: #fff"/>
                <path d="M153.52,338.3l-2-.58-2.55-4-.88,3-2-.6,2.43-8.32,1.82.53L153,332.6l.94-3.22,2.06.6Z" style="fill: #fff"/>
                <path d="M157.89,339.58l-3.56-1,2.43-8.32,3.56,1Z" style="fill: #fff"/>
                <path d="M166.26,340.32l-.8,1.47-2.68-.78a4.34,4.34,0,0,1,2.43-8.32l2.68.78-.12,1.67-3.45-1-1.51,5.18Z" style="fill: #fff"/>
                <path d="M172.8,342.23l-.83,1.46L166.3,342l2.43-8.32,5.67,1.66-.08,1.68-2.48-.73-.62,2.11,1.66.48-.08,1.67-2-.59-.44,1.51Z" style="fill: #fff"/>
              </g>
              <g>
                <line x1="127.4" y1="353.5" x2="160.81" y2="363.93" style="fill: #f4987a;stroke: #485967;stroke-miterlimit: 10;stroke-width: 4px"/>
                <line x1="125.02" y1="361.13" x2="158.43" y2="371.56" style="fill: #f4987a;stroke: #485967;stroke-miterlimit: 10;stroke-width: 4px"/>
                <line x1="122.63" y1="368.77" x2="156.04" y2="379.2" style="fill: #f4987a;stroke: #485967;stroke-miterlimit: 10;stroke-width: 4px"/>
                <line x1="120.25" y1="376.41" x2="153.66" y2="386.84" style="fill: #f4987a;stroke: #485967;stroke-miterlimit: 10;stroke-width: 4px"/>
              </g>
            </g>
          </g>
          <path d="M554.22,192.69v35.22a24.86,24.86,0,0,0,4.91,14.84l18.63,25.05a18.39,18.39,0,0,1,2.7,16.76l-12,36.28a39.86,39.86,0,0,0-.5,23.43l4.1,23.36c.82,2.9-157.51-8.45-157.51-8.45,1.08-4.47,3.76-36,2.18-40.34L409.44,299a39.94,39.94,0,0,1,5.36-37.45l9.08-12.31a35.65,35.65,0,0,0,6.1-28.94l-4.4-19.66a11.77,11.77,0,0,1,3.72-11.42l4.82-4.23a3.81,3.81,0,0,1,6.32,2.84l.15,24.58a29.2,29.2,0,0,0,20.59,27.72l10.2,3.14a38.21,38.21,0,0,1,26.09,28.46l.11.49a1.54,1.54,0,0,0,3-.19h0a38.21,38.21,0,0,1,24.12-32.18l4.82-1.89a25.17,25.17,0,0,0,15.8-26.47L542,184.13a2.13,2.13,0,0,1,3.32-2l5.1,3.47A8.6,8.6,0,0,1,554.22,192.69Z" style="fill: url(#linear-gradient-2)"/>
          <g>
            <circle cx="520.85" cy="266.64" r="10" style="fill: url(#linear-gradient-3)"/>
            <circle cx="525.51" cy="280.14" r="10" style="fill: url(#linear-gradient-4)"/>
            <circle cx="541.51" cy="280.14" r="10" transform="translate(-32.58 74.87) rotate(-7.68)" style="fill: url(#linear-gradient-5)"/>
            <circle cx="547.18" cy="269.14" r="10" transform="translate(-5.68 526.42) rotate(-51.15)" style="fill: url(#linear-gradient-6)"/>
            <circle cx="534.01" cy="258.21" r="10" style="fill: url(#linear-gradient-7)"/>
            <circle cx="534.37" cy="270.7" r="7.15" style="fill: #f9f7a7"/>
          </g>
          <path d="M416.63,336c-.05.21,28.67,10.79,50.38,18.74a74.24,74.24,0,0,0,47.84,1.11l52.05-16.38L583,376.37H402.78Z" style="fill: #ba5692"/>
          <g>
            <path d="M186.51,162.9q4.16,4.4,4.16,12.93,0,9-4.07,13.71a13.21,13.21,0,0,1-10.48,4.72,11,11,0,0,1-6.79-2,13.1,13.1,0,0,1-2.89-3.28v17.73h-8.8V159.25h8.52v5a14.32,14.32,0,0,1,3.08-3.5,11.36,11.36,0,0,1,7.1-2.28A13.46,13.46,0,0,1,186.51,162.9Zm-6.83,6.4a6.33,6.33,0,0,0-5.88-3,6.69,6.69,0,0,0-6.72,4.59,17.24,17.24,0,0,0-.95,6.18q0,5.93,3.18,8.34a7.3,7.3,0,0,0,4.48,1.4,6.51,6.51,0,0,0,5.73-2.87,15,15,0,0,0,.16-14.61Z" style="fill: #fff"/>
            <path d="M206,193.28h-8.9v-46H206Z" style="fill: #fff"/>
            <path d="M228.2,172.58a14.06,14.06,0,0,0,3.55-.78,2.68,2.68,0,0,0,1.92-2.53,3,3,0,0,0-1.47-2.89,9.29,9.29,0,0,0-4.32-.8q-3.2,0-4.53,1.56a6.43,6.43,0,0,0-1.27,3.12H213.5a13,13,0,0,1,2.51-7.34q3.54-4.5,12.17-4.5a21.69,21.69,0,0,1,10,2.22q4.36,2.22,4.36,8.37v15.61q0,1.62.06,3.93a4.94,4.94,0,0,0,.53,2.37,3.18,3.18,0,0,0,1.31,1v1.31h-9.68a9.87,9.87,0,0,1-.56-1.94q-.16-.9-.25-2.06a18.35,18.35,0,0,1-4.27,3.4,12.92,12.92,0,0,1-6.53,1.65,11.26,11.26,0,0,1-7.68-2.64,9.38,9.38,0,0,1-3-7.48q0-6.28,4.88-9.09a21.78,21.78,0,0,1,7.86-2.19Zm5.44,4.15a9.78,9.78,0,0,1-1.72.86,14.51,14.51,0,0,1-2.39.61l-2,.37a13.33,13.33,0,0,0-4.09,1.22,4.07,4.07,0,0,0-2.1,3.78,4,4,0,0,0,1.28,3.29,4.88,4.88,0,0,0,3.12,1,9.3,9.3,0,0,0,5.37-1.69q2.46-1.69,2.55-6.15Z" style="fill: #fff"/>
            <path d="M251.62,199.81l1.12.06a14.07,14.07,0,0,0,2.5-.09,4.49,4.49,0,0,0,2-.72,4.81,4.81,0,0,0,1.45-2.22,5.36,5.36,0,0,0,.58-2.06l-12.5-35.53h9.9l7.43,25.1,7-25.1h9.46l-11.67,33.47q-3.38,9.68-5.35,12t-7.88,2.33l-1.91,0q-.72,0-2.16-.11Z" style="fill: #fff"/>
            <path d="M299.92,146.84l1.87.14v7.24q-.75-.09-2.51-.14a2.9,2.9,0,0,0-2.44.78,2.84,2.84,0,0,0-.67,1.83v2.87H302v6.28h-5.84v27.44h-8.84V165.84h-5v-6.28h4.87v-2.19q0-5.46,1.84-7.52,1.94-3.06,9.34-3.06C299,146.79,299.46,146.81,299.92,146.84Z" style="fill: #fff"/>
            <path d="M316,159.25v20.51a10.79,10.79,0,0,0,.68,4.37q1.21,2.59,4.75,2.59,4.54,0,6.21-3.68a13.4,13.4,0,0,0,.87-5.28V159.25h9v34H328.9v-4.81q-.12.16-.62.94a6.24,6.24,0,0,1-1.18,1.37,12.34,12.34,0,0,1-4,2.56,13.72,13.72,0,0,1-4.56.69q-7.53,0-10.15-5.43-1.46-3-1.46-8.84V159.25Z" style="fill: #fff"/>
            <path d="M355.28,193.28h-8.9v-46h8.9Z" style="fill: #fff"/>
          </g>
        </g>
      </g>
    </g>
  </g>
</svg>
