<svg xmlns="http://www.w3.org/2000/svg" xmlns:xlink="http://www.w3.org/1999/xlink" viewBox="0 0 733.46 568.34" class="standard-border-radius">
  <defs>
    <linearGradient id="linear-gradient" x1="30.03" y1="280.87" x2="703.03" y2="280.87" gradientUnits="userSpaceOnUse">
      <stop offset="0" stop-color="#f7f7f7"/>
      <stop offset="1" stop-color="#ccc"/>
    </linearGradient>
    <clipPath id="clip-path">
      <polygon points="208.33 374.89 87.47 374.51 83.98 278.42 208.33 277.11 208.33 374.89" style="fill: none"/>
    </clipPath>
    <linearGradient id="linear-gradient-2" x1="494.2" y1="180.74" x2="494.2" y2="367.1" gradientUnits="userSpaceOnUse">
      <stop offset="0.29" stop-color="#ff73c0"/>
      <stop offset="0.6" stop-color="#ff75c1"/>
      <stop offset="1" stop-color="#ffa9dc"/>
    </linearGradient>
    <linearGradient id="linear-gradient-3" x1="510.85" y1="265.64" x2="530.85" y2="265.64" gradientUnits="userSpaceOnUse">
      <stop offset="0.01" stop-color="#fbfc01"/>
      <stop offset="1" stop-color="#7ac943"/>
    </linearGradient>
    <linearGradient id="linear-gradient-4" x1="515.51" y1="279.14" x2="535.51" y2="279.14" xlink:href="#linear-gradient-3"/>
    <linearGradient id="linear-gradient-5" x1="1420.23" y1="680.67" x2="1440.23" y2="680.67" gradientTransform="translate(-139.15 1709.38) rotate(-90)" xlink:href="#linear-gradient-3"/>
    <linearGradient id="linear-gradient-6" x1="1382.34" y1="1146.53" x2="1402.34" y2="1146.53" gradientTransform="translate(-599.35 1660.48) rotate(-90)" xlink:href="#linear-gradient-3"/>
    <linearGradient id="linear-gradient-7" x1="524.01" y1="257.21" x2="544.01" y2="257.21" xlink:href="#linear-gradient-3"/>
    <clipPath id="clip-path-2">
      <rect x="346.7" y="153.71" width="292" height="221.19" style="fill: none"/>
    </clipPath>
    <linearGradient id="linear-gradient-8" x1="491.36" y1="174.37" x2="491.36" y2="388.23" gradientUnits="userSpaceOnUse">
      <stop offset="0" stop-color="#fff"/>
      <stop offset="0.68" stop-color="#f9c5c5"/>
    </linearGradient>
    <linearGradient id="linear-gradient-9" x1="513.77" y1="287.36" x2="592.03" y2="287.36" gradientUnits="userSpaceOnUse">
      <stop offset="0.01" stop-color="#333f47"/>
      <stop offset="1" stop-color="#485967"/>
    </linearGradient>
    <linearGradient id="linear-gradient-10" x1="387.7" y1="285.89" x2="462.29" y2="285.89" xlink:href="#linear-gradient-9"/>
    <linearGradient id="linear-gradient-11" x1="367.56" y1="304.1" x2="420.03" y2="304.1" gradientUnits="userSpaceOnUse">
      <stop offset="0" stop-color="#5b6a76"/>
      <stop offset="0.98" stop-color="#485967"/>
    </linearGradient>
    <linearGradient id="linear-gradient-12" x1="573.03" y1="310.49" x2="611.34" y2="310.49" xlink:href="#linear-gradient-11"/>
    <linearGradient id="linear-gradient-13" x1="474.77" y1="195.45" x2="423.86" y2="195.45" gradientUnits="userSpaceOnUse">
      <stop offset="0" stop-color="#5b6a76"/>
      <stop offset="0.99" stop-color="#333f47"/>
    </linearGradient>
    <linearGradient id="linear-gradient-14" x1="504.26" y1="194.62" x2="561.54" y2="194.62" xlink:href="#linear-gradient-13"/>
  </defs>
  <title>suitcase_modern_open</title>
  <g style="isolation: isolate">
    <g id="Layer_2" data-name="Layer 2">
      <g id="suitcase_modern">
        <g>
          <image width="930" height="620" transform="scale(0.79 0.92)" xlink:href="assets/wall_paper/wallpaper_background_modern.png"/>
          <path d="M703,479.37V383.2a.93.93,0,0,0-1-.91L644.4,324.4,678,102.52v-.29l.36-3.41c3.3-21.9-13.85-41.45-36-41.45H585.12L586,42.56a14.33,14.33,0,0,0-14.57-15.18H558.77a14.43,14.43,0,0,0-14.57,15.31l.92,14.69H185.24l.92-14.82A14.33,14.33,0,0,0,171.6,27.37H158.89a14.43,14.43,0,0,0-14.57,15.31l.92,14.69H90.14a36.17,36.17,0,0,0-35.74,42l.51,3.1,0,0v.07L91.23,324,30.56,382.28c-.53,0-.53.46-.53.92v96.17h0V505.3c0,16.05,12.14,29.07,28.19,29.07H96V504.82a15.81,15.81,0,0,1,1,6.81v22.74H673.12c16.05,0,29.91-13,29.91-29.07V479.37h0ZM435.5,453.08a15.31,15.31,0,0,0-1.26-1.13,1.51,1.51,0,0,0-.19-.16,2.27,2.27,0,0,0-.3-.23c-.14-.11-.27-.21-.42-.31a13.57,13.57,0,0,0-1.27-.83l-.23-.14-.67-.36-.11-.06-.33-.16-.22-.12.55.26.11.06.67.36.23.14a13.62,13.62,0,0,1,1.27.83c.15.1.28.2.42.31a2.25,2.25,0,0,1,.3.23,1.51,1.51,0,0,1,.19.16,15.26,15.26,0,0,1,1.26,1.13q.62.63,1.19,1.32Q436.13,453.71,435.5,453.08Zm-6.12-4,.24.09c.23.09.47.2.7.31C430,449.37,429.7,449.24,429.39,449.12ZM132.53,305.44l470.15.1,34-203-34,203,40.4,18.83-40.4-18.87-470.15-.17h0L95.31,102.48Z" style="mix-blend-mode: multiply;fill: url(#linear-gradient)"/>
          <g>
            <path d="M680.46,375.77l-53.9-54.46,31.24-207v-.21l.5-3.16A33.62,33.62,0,0,0,624.9,72.37H109.67A33.69,33.69,0,0,0,76.33,111.5l.47,2.8,0,0v.06l33.93,207L54,375.77c-.49,0-1,0-1,.46V477.66c0,21.68,17.67,39.71,39.35,39.71H642c21.68,0,39-18,39-39.71V376.23C681,375.73,681,375.77,680.46,375.77ZM549.48,61l-.32.09ZM176.41,61l-.32.09Z" style="fill: #caac8b"/>
            <g>
              <path d="M155,375.37v142H116V496c0-16.55-14.36-29.67-30.91-29.67H53V376.23a.8.8,0,0,1,.77-.85Z" style="fill: #b89065"/>
              <path d="M115.3,489.23v28.14H79.9a27.31,27.31,0,0,1-27.23-27.23v-23.6H92.61A22.76,22.76,0,0,1,115.3,489.23Z" style="fill: #a7a9ac"/>
              <path d="M205,375.37v142H529v-142ZM436.2,458.66c-.06.23-.13.44-.21.66s-.11.33-.16.49-.15.37-.23.55a2.22,2.22,0,0,1-.09.22c-.08.19-.16.37-.25.55s-.07.16-.12.25-.16.34-.26.52l-.15.27c0,.09-.1.17-.15.25s-.26.44-.41.66-.16.26-.25.39-.17.26-.27.39l-.21.28c-.2.26-.41.53-.63.78a13,13,0,0,1-.89,1q-.37.38-.76.74c-.23.21-.45.41-.7.6l-.23.18c-.2.15-.41.32-.63.46a11.48,11.48,0,0,1-1,.65,10.3,10.3,0,0,1-2.15,1.41c-.05,0,.55,0,.55.05h0l-.8,0c-.22.08-.79.15-1,.23s-.75.18-1,.25h-.1c-.27.08-.59.15-.88.2l-.3.05-.29.05-.11,0h-.18l-.22,0c-.22,0-.44.21-.65.23a16.11,16.11,0,0,1-1.76.24H314.38a17.5,17.5,0,0,1,0-35H419.68c.6,0,1.19.13,1.77.19.29,0,.58.11.86.15a17.47,17.47,0,0,1,4.08,1.09c.25.1.52.22.76.34l.56.27.1.06.63.34.22.13a12.68,12.68,0,0,1,1.19.77c.14.09.26.19.39.29a2.12,2.12,0,0,1,.28.22,1.41,1.41,0,0,1,.18.15,14.28,14.28,0,0,1,1.17,1.05,17.37,17.37,0,0,1,3.69,5.54c.09.22.18.44.26.67s.15.44.23.68.15.45.21.69a15.88,15.88,0,0,1,.45,2.1c0,.07.09.15.1.21a10.17,10.17,0,0,1,.21,1.48v.06c0,.25-.11.51-.11.76s.1.59.09.89c0,.07,0,.15,0,.24v.07a6.85,6.85,0,0,1-.15.84,3.87,3.87,0,0,1-.08.44,4.34,4.34,0,0,1-.11.52c0,.07,0,.14-.05.21a2.09,2.09,0,0,1-.09.4c0,.21-.09.43-.13.64S436.28,458.39,436.2,458.66Z" style="fill: #b89065"/>
              <path d="M155,375.37v142h50v-142Zm25,94.35a18.06,18.06,0,0,1-18-18.15V443.4a18.5,18.5,0,0,1-.12-1.85,18.19,18.19,0,0,1,5.22-11,17.9,17.9,0,0,1,5.77-3.89,18.5,18.5,0,0,1,5.35-1.34l.8-.05.81,0,.93,0,.78.05a17.8,17.8,0,0,1,15.13,11.51,18.4,18.4,0,0,1,.83,2.9c.12.59.27,1.19.34,1.81a17.75,17.75,0,0,1,.16,1.85v8.17a17.87,17.87,0,0,1-5,12.83A18.26,18.26,0,0,1,180.07,469.72Z" style="fill: #a6743e"/>
              <path d="M178.22,425.32a18.68,18.68,0,0,0-5.37,1.34A17.38,17.38,0,0,1,178.22,425.32Z" style="fill: none"/>
              <path d="M422.31,470.87a15.3,15.3,0,0,0,1.68-.34l-.84.2-.28.05-.39.07h-.09l-.3,0-.65.08C421.73,471,422,470.92,422.31,470.87Z" style="fill: none"/>
              <path d="M431.88,441.53a17,17,0,0,0-10.43-4.87c.29,0,.57.05.86.1a17.43,17.43,0,0,1,4.08,1.06l.76.33.56.26.1.05.63.34.22.13a12.67,12.67,0,0,1,1.19.77c.14.09.26.19.39.29a2.12,2.12,0,0,1,.28.22,1.41,1.41,0,0,1,.18.15,14.28,14.28,0,0,1,1.17,1.05,17.37,17.37,0,0,1,3.69,5.54A17.36,17.36,0,0,0,431.88,441.53Z" style="fill: none"/>
              <path d="M437,453.61v.12c0,.25-.06.52-.07.77,0,.41-.09.82-.14,1.22a15.5,15.5,0,0,1-.39,2.14,11.9,11.9,0,0,1-.43,1.47l-.17.49c-.07.19-.15.37-.23.55a2.23,2.23,0,0,1-.09.22c-.08.19-.16.37-.25.55s-.07.16-.12.25-.16.34-.26.52l-.15.27c0,.09-.1.17-.15.25l-.41.66c-.08.13-.16.26-.25.39s-.17.26-.27.39l-.21.28c-.2.26-.41.53-.63.78a13,13,0,0,1-.89,1q-.37.38-.76.74c-.23.21-.46.41-.7.6l-.23.18c-.21.16-.41.32-.63.46a11.48,11.48,0,0,1-1,.65,17.28,17.28,0,0,1-4.62,2,17.55,17.55,0,0,0,12.54-13.31,2.05,2.05,0,0,0,.07-.4l0-.21a4.52,4.52,0,0,0,.05-.52c0-.15.18-.29.18-.44a6.85,6.85,0,0,0,.15-.84v-.07c0-.08,0-.16,0-.24,0-.3,0-.59,0-.89s0-.51,0-.76C437,453.1,437,453.35,437,453.61Z" style="fill: none"/>
              <path d="M681,376.23v90.15h-31.1A29.66,29.66,0,0,0,620,496v21.33H578v-142H680.34C680.84,375.37,681,375.73,681,376.23Z" style="fill: #b89065"/>
              <path d="M529,375.37v142h49v-142Zm24.08,94.35A18.08,18.08,0,0,1,535,451.56V443.4a14.64,14.64,0,0,1,5.15-12.83,17.93,17.93,0,0,1,5.78-3.89,18.53,18.53,0,0,1,5.35-1.34l.81-.05.81,0,.93,0,.78.05a17.8,17.8,0,0,1,15.13,11.51,18.4,18.4,0,0,1,.83,2.9c.12.59.24,1.19.31,1.81a17.76,17.76,0,0,1,.12,1.85v8.17a17.86,17.86,0,0,1-5,12.83A18.22,18.22,0,0,1,553.11,469.72Z" style="fill: #a6743e"/>
              <path d="M551.28,425.32a18.68,18.68,0,0,0-5.37,1.34A17.38,17.38,0,0,1,551.28,425.32Z" style="fill: none"/>
              <path d="M680.79,466.54v23.6a27.31,27.31,0,0,1-27.23,27.23H620V489.23a22.69,22.69,0,0,1,22.69-22.69Z" style="fill: #a7a9ac"/>
              <polygon points="111.21 375.37 53.8 375.37 110.76 320.91 111.21 375.37" style="fill: #997458"/>
              <polygon points="626.03 375.37 626.03 375.32 626.15 321.37 626.5 321.37 680.34 375.37 626.03 375.37" style="fill: #997458"/>
              <polygon points="626.03 375.32 626.03 375.37 111.21 375.37 110.76 321.37 626.15 321.37 626.03 375.32" style="fill: #84644a"/>
              <polygon points="578.03 72.37 578.03 114.37 529.03 114.37 529.03 72.37 534.17 72.37 535.11 88.37 570.51 88.37 571.45 72.37 578.03 72.37" style="fill: #a6743e"/>
              <polygon points="205.03 72.37 205.03 114.37 155.03 114.37 155.03 72.37 161.11 72.37 162.05 88.37 197.45 88.37 198.38 72.37 205.03 72.37" style="fill: #a6743e"/>
              <polygon points="625.52 321.37 111.72 321.37 149.22 303.7 587.84 303.81 625.52 321.37" style="fill: #997458"/>
              <path d="M155,72.37v42H76.83v-.05l0,0-.47-2.86a33.7,33.7,0,0,1,33.34-39.13Z" style="fill: #caac8b"/>
              <path d="M658.3,111l-.51,3.12,0,.27H578v-42H624.9A33.61,33.61,0,0,1,658.3,111Z" style="fill: #caac8b"/>
              <rect x="205.03" y="72.37" width="324" height="42" style="fill: #caac8b"/>
              <polygon points="657.77 114.37 626.5 321.37 625.52 321.37 587.84 303.8 619.57 114.37 657.77 114.37" style="fill: #b89065"/>
              <polygon points="149.22 303.7 111.72 321.37 110.76 321.37 76.83 114.37 114.5 114.37 149.22 303.7" style="fill: #b89065"/>
              <polygon points="619.57 114.37 587.84 303.77 149.22 303.68 114.5 114.37 619.57 114.37" style="fill: #84644a"/>
              <polyline points="626.15 321.31 626.15 320.86 625.3 320.4" style="fill: none"/>
              <line x1="111.72" y1="320.4" x2="110.76" y2="320.86" style="fill: none"/>
              <polyline points="657.77 114.36 657.79 114.36 658.1 114.36" style="fill: none"/>
              <polyline points="76.27 114.36 76.8 114.36 76.83 114.36" style="fill: none"/>
              <path d="M441,456.41v.06c0,.25-.29.51-.29.76s.19.59.18.89c0,.07.11.15.11.24v.07c0,.28-.3.56-.33.84s-.15.29-.18.44a4.3,4.3,0,0,1-.15.52c0,.07-.07.14-.08.21a2.13,2.13,0,0,1-.1.4,17.56,17.56,0,0,1-12.55,13.31h0a15.35,15.35,0,0,1-1.68.34c-.29,0-.58.42-.87.45a16.6,16.6,0,0,1-1.76.42H318a17.5,17.5,0,0,1,0-35H423.31c.6,0,1.19,0,1.77,0a16.91,16.91,0,0,1,10.43,4.83,17.28,17.28,0,0,1,3.69,5.4c.09.22.18.44.26.66s.15.44.23.68.15.45.21.69a16.64,16.64,0,0,1,.7,2.1A12.08,12.08,0,0,1,441,456.41Z" style="fill: #443a38"/>
              <path d="M437,453.61v.12c0,.25-.06.52-.07.77a16.46,16.46,0,0,1-.32,2.32c0-.07,0-.14,0-.21a4.55,4.55,0,0,0,0-.52c0-.15.17-.29.18-.44a6.83,6.83,0,0,0,.15-.84v-.07c0-.08,0-.16,0-.24,0-.3,0-.59,0-.89s0-.51,0-.76C437,453.1,437,453.35,437,453.61Z" style="fill: none"/>
              <path d="M436.72,451.09a15.88,15.88,0,0,0-.45-2.1c-.06-.24-.13-.46-.21-.69s-.15-.46-.23-.68a16,16,0,0,1,.93,3.68c.07.49.12,1,.15,1.48C436.87,452.21,436.81,451.65,436.72,451.09Z" style="fill: none"/>
              <path d="M574,444.06v8.65a19,19,0,1,1-38,0v-8.65a14.82,14.82,0,0,1,5.52-13.58,19,19,0,0,1,6-4.12,19.58,19.58,0,0,1,5.66-1.42l.85-.06.86,0,1,0,.82.06a19.05,19.05,0,0,1,16,12.18,19.47,19.47,0,0,1,.88,3.07c.12.62.24,1.26.31,1.91A18.81,18.81,0,0,1,574,444.06Z" style="fill: #666"/>
              <path d="M551.28,425.32a18.68,18.68,0,0,0-5.37,1.34A17.38,17.38,0,0,1,551.28,425.32Z" style="fill: none"/>
              <path d="M178.22,425.32a18.68,18.68,0,0,0-5.37,1.34A17.38,17.38,0,0,1,178.22,425.32Z" style="fill: none"/>
              <polygon points="534.17 72.37 535.11 87.92 534.17 72.66 534.16 72.37 534.17 72.37" style="fill: none"/>
              <path d="M559.8,66.44l-.32,5.94H546.14L546,66.8v-.38A5.59,5.59,0,0,1,549.4,61c.29-.1.54-.4.84-.43s.27-.24.44-.24h4.25C557.75,60.37,560,63.32,559.8,66.44Z" style="fill: none"/>
              <polygon points="571.46 72.37 571.45 72.83 570.51 87.86 571.45 72.37 571.46 72.37" style="fill: none"/>
              <polygon points="161.11 72.37 162.05 87.92 161.11 72.66 161.09 72.37 161.11 72.37" style="fill: none"/>
              <path d="M186.74,66.44l-.32,5.94H173.07l0-5.57v-.38A5.57,5.57,0,0,1,176.37,61c.29-.1.52-.4.83-.43s.26-.24.43-.24h4.25C184.68,60.37,186.91,63.32,186.74,66.44Z" style="fill: none"/>
              <polygon points="198.4 72.37 198.38 72.83 197.45 87.86 198.38 72.37 198.4 72.37" style="fill: none"/>
              <polygon points="559.49 72.37 559.48 72.8 559.14 79.37 546.47 79.37 546.14 72.91 546.13 72.37 559.49 72.37" style="fill: #a6743e"/>
              <path d="M559.8,66.44l-.31,5.94H546.13l-.1-5.5v-.45A5.7,5.7,0,0,1,549.4,61c.29-.1.54-.4.84-.43s.27-.24.44-.24h4.25C557.75,60.37,560,63.32,559.8,66.44Z" style="fill: none"/>
              <polygon points="186.43 72.37 186.42 72.8 186.08 79.37 173.41 79.37 173.07 72.91 173.07 72.37 186.43 72.37" style="fill: #a6743e"/>
              <path d="M186.74,66.44l-.31,5.94H173.07l0-5.5v-.45A5.67,5.67,0,0,1,176.37,61c.29-.1.52-.4.83-.43s.26-.24.43-.24h4.25C184.68,60.37,186.91,63.32,186.74,66.44Z" style="fill: none"/>
              <line x1="680.79" y1="466.54" x2="680.79" y2="466.54" style="fill: none"/>
              <line x1="578.03" y1="375.37" x2="578.03" y2="374.37" style="fill: none"/>
              <line x1="529.03" y1="375.37" x2="529.03" y2="374.37" style="fill: none"/>
              <line x1="205.03" y1="375.37" x2="205.03" y2="374.37" style="fill: none"/>
              <line x1="155.03" y1="375.37" x2="155.03" y2="374.37" style="fill: none"/>
              <path d="M572,442.25v8.65a18.7,18.7,0,0,1-18.85,19.21A19.16,19.16,0,0,1,534,450.9v-8.65a19.21,19.21,0,0,1,0-2,19.62,19.62,0,0,1,5.69-11.62,19.14,19.14,0,0,1,6-4.12,19.66,19.66,0,0,1,5.67-1.42l.86-.06.86,0,1,0,.83.06a19.05,19.05,0,0,1,16,12.18,19.47,19.47,0,0,1,.88,3.07c.12.62.15,1.26.22,1.91A19,19,0,0,1,572,442.25Z" style="fill: gray"/>
              <path d="M201,445v8.65a19,19,0,1,1-38,0V445c0-.66-.23-1.32-.16-2a19.54,19.54,0,0,1,5.63-11.62,19,19,0,0,1,6-4.12,19.56,19.56,0,0,1,5.65-1.42l.85-.06.86,0,1,0,.82.06a19,19,0,0,1,16,12.18,19.47,19.47,0,0,1,.88,3.07c.12.62.27,1.26.34,1.91A18.79,18.79,0,0,1,201,445Z" style="fill: #666"/>
              <path d="M199,443.16v8.65A18.75,18.75,0,0,1,180.17,471,19.14,19.14,0,0,1,161,451.8v-8.65a19.32,19.32,0,0,1-.07-2,19.6,19.6,0,0,1,5.68-11.62,19.11,19.11,0,0,1,6-4.12,19.63,19.63,0,0,1,5.67-1.42l.85-.06.86,0,1,0,.82.06a19.05,19.05,0,0,1,16,12.18,19.47,19.47,0,0,1,.88,3.07c.12.62.18,1.26.25,1.91A18.9,18.9,0,0,1,199,443.16Z" style="fill: gray"/>
              <path d="M437,452.78v.06c0,.25-.11.51-.11.76s.1.59.09.89c0,.07,0,.15,0,.24v.07a6.85,6.85,0,0,1-.15.84,3.87,3.87,0,0,1-.08.44,4.34,4.34,0,0,1-.11.52c0,.07,0,.14-.05.21a2.09,2.09,0,0,1-.09.4A17.56,17.56,0,0,1,424,470.53h0a15.33,15.33,0,0,1-1.68.34c-.29,0-.58.24-.87.26a16.12,16.12,0,0,1-1.76.24H314.38a17.5,17.5,0,0,1,0-35H419.68c.6,0,1.19.13,1.77.19a17,17,0,0,1,10.43,4.92,17.48,17.48,0,0,1,3.69,5.45c.09.22.18.46.26.69s.15.45.23.69.15.46.21.69a16,16,0,0,1,.52,2.1A11.65,11.65,0,0,1,437,452.78Z" style="fill: #645551"/>
              <polygon points="197.22 87.8 204.25 72.37 194.27 72.37 197.22 87.8" style="fill: #936538"/>
              <polygon points="173.18 78.73 177.25 72.37 168.85 72.37 173.18 78.73" style="fill: #936538"/>
              <g>
                <polygon points="535.34 87.8 528.3 72.37 538.29 72.37 535.34 87.8" style="fill: #936538"/>
                <polygon points="559.37 78.73 555.31 72.37 563.7 72.37 559.37 78.73" style="fill: #936538"/>
              </g>
              <path d="M185.67,44.37H173.82a13.46,13.46,0,0,0-13.59,14.29l.86,13.71h0l.93,16h35.4l.93-16h0l.86-13.83A13.37,13.37,0,0,0,185.67,44.37Zm.74,28.43-.34,6.57H173.41l-.34-6.46v-.54h0l0-5.57v-.38A5.57,5.57,0,0,1,176.37,61c.29-.1.59-.4.89-.43s.19-.24.36-.24h4.25c2.81,0,5,3,4.87,6.06l-.32,5.94h0Z" style="fill: gray"/>
              <path d="M558.74,44.37H546.88a13.46,13.46,0,0,0-13.59,14.29l.86,13.71h0l.93,16h35.4l.93-16h0l.86-13.83A13.37,13.37,0,0,0,558.74,44.37Zm.74,28.43-.34,6.57H546.47l-.34-6.46v-.54h0L546,66.8v-.38A5.59,5.59,0,0,1,549.4,61c.29-.1.6-.4.91-.43s.21-.24.38-.24h4.25c2.81,0,5,3,4.87,6.06l-.32,5.94h0Z" style="fill: gray"/>
            </g>
          </g>
          <polygon points="531.24 356.42 531.2 356.37 80.52 356.37 96.18 339.37 96.19 339.37 518.35 341.08 531.24 356.42" style="fill: #f2c66d"/>
          <polygon points="520.46 343.97 94.05 342.39 106.9 328.32 508.56 330.15 520.46 343.97" style="fill: #a898b7"/>
          <polygon points="545.91 375.37 63.98 374.32 81.63 355.36 531.2 356.55 545.91 375.37" style="fill: #a0c1bb"/>
          <line x1="588.03" y1="375.37" x2="588.03" y2="375.37" style="fill: none"/>
          <path d="M378.68,239.6l-.5.28" style="fill: none"/>
          <path d="M503.37,130.58a9.17,9.17,0,1,1-9.18-9.18A9.17,9.17,0,0,1,503.37,130.58Z" style="fill: #352d2c"/>
          <path d="M472.06,158.78l-84.73,84.7a9,9,0,0,0,6.38,15.41H587.79a9,9,0,0,0,6.45-15.34L511.46,159A27.72,27.72,0,0,0,472.06,158.78Z" style="fill: none;stroke: #fff;stroke-miterlimit: 10;stroke-width: 10px"/>
          <path d="M494.1,148.35l7.62-8.16a11.17,11.17,0,0,0-3.18-17.53c-6-3.18-15.52-.6-18.38,9.21" style="fill: none;stroke: #fff;stroke-miterlimit: 10;stroke-width: 8px"/>
          <rect x="462.37" y="134.37" width="70.15" height="24.5" style="fill: none"/>
          <polyline points="480.33 343.39 492.67 324.58 492.71 324.52 492.78 324.41 571.17 204.92" style="fill: none"/>
          <polyline points="541.76 166.96 545.67 165.69 545.91 165.61 545.83 165.83 490.4 314.31" style="fill: none"/>
          <path d="M490.44,311.77l0,2.54v.44a1,1,0,0,1-.2.6,1,1,0,0,1-1.14.33.94.94,0,0,1-.61-.67L446.58,163.37l.19.08" style="fill: none"/>
          <g style="clip-path: url(#clip-path)">
            <polygon points="124.88 328.37 120.83 342.01 108.53 383.37 108.15 383.37 105.73 391.61 88.03 389.17 88.03 328.37 124.88 328.37" style="fill: #fff"/>
            <polygon points="147.03 287.97 147.03 311.17 146.99 311.32 131.03 307.59 124.88 328.37 88.03 328.37 88.03 285.17 147.03 287.97" style="fill: #1d6053"/>
            <line x1="127.03" y1="348.17" x2="127.03" y2="348.17" style="fill: none"/>
            <g>
              <path d="M102,298.24v2.69H99.95v10.75h-3.5V300.93H94.38v-2.69Z" style="fill: #fff"/>
              <path d="M111.17,304.53v2.7a11.38,11.38,0,0,1-.15,2.18,3.06,3.06,0,0,1-.64,1.29,2.9,2.9,0,0,1-1.26.89,5,5,0,0,1-1.76.29,6.3,6.3,0,0,1-1.88-.25,2.57,2.57,0,0,1-1.2-.74,2.92,2.92,0,0,1-.61-1.2,9,9,0,0,1-.18-2.1v-2.82a6.89,6.89,0,0,1,.33-2.4A2.76,2.76,0,0,1,105,301a4.21,4.21,0,0,1,2.21-.52,5,5,0,0,1,1.94.34,3,3,0,0,1,1.85,2A6.9,6.9,0,0,1,111.17,304.53Zm-3.35-.83a3.68,3.68,0,0,0-.09-1.07.38.38,0,0,0-.39-.22.39.39,0,0,0-.4.22,3.37,3.37,0,0,0-.1,1.07v5a3.22,3.22,0,0,0,.1,1,.45.45,0,0,0,.78,0,2.82,2.82,0,0,0,.1-.93Z" style="fill: #fff"/>
              <path d="M120.36,300.66,119,305l1.77,6.63h-3.23l-1-4.8v4.8h-3.35V298.24h3.35v5.64l1-3.22Z" style="fill: #fff"/>
              <path d="M129.16,300.66l-1,8q-.23,1.89-.38,2.58a2.77,2.77,0,0,1-.51,1.14,2.06,2.06,0,0,1-1,.66,7,7,0,0,1-2,.21h-2v-1.76a3.86,3.86,0,0,0,1-.08.33.33,0,0,0,.22-.35q0-.13-.21-1.15l-1.84-9.21h3l1.1,7.44.54-7.44Z" style="fill: #fff"/>
              <path d="M138.21,304.53v2.7a11.38,11.38,0,0,1-.15,2.18,3.06,3.06,0,0,1-.64,1.29,2.9,2.9,0,0,1-1.26.89,5,5,0,0,1-1.76.29,6.3,6.3,0,0,1-1.88-.25,2.57,2.57,0,0,1-1.2-.74,2.92,2.92,0,0,1-.61-1.2,9,9,0,0,1-.18-2.1v-2.82a6.89,6.89,0,0,1,.33-2.4,2.76,2.76,0,0,1,1.2-1.39,4.21,4.21,0,0,1,2.21-.52,5,5,0,0,1,1.94.34,3,3,0,0,1,1.85,2A6.9,6.9,0,0,1,138.21,304.53Zm-3.35-.83a3.68,3.68,0,0,0-.09-1.07.38.38,0,0,0-.39-.22.39.39,0,0,0-.4.22,3.37,3.37,0,0,0-.1,1.07v5a3.22,3.22,0,0,0,.1,1,.45.45,0,0,0,.78,0,2.82,2.82,0,0,0,.1-.93Z" style="fill: #fff"/>
            </g>
            <line x1="97.03" y1="336.37" x2="132.03" y2="336.37" style="fill: #f4987a;stroke: #485967;stroke-miterlimit: 10;stroke-width: 4px"/>
            <line x1="97.03" y1="344.37" x2="132.03" y2="344.37" style="fill: #f4987a;stroke: #485967;stroke-miterlimit: 10;stroke-width: 4px"/>
            <line x1="97.03" y1="352.37" x2="132.03" y2="352.37" style="fill: #f4987a;stroke: #485967;stroke-miterlimit: 10;stroke-width: 4px"/>
            <line x1="97.03" y1="360.37" x2="132.03" y2="360.37" style="fill: #f4987a;stroke: #485967;stroke-miterlimit: 10;stroke-width: 4px"/>
            <polygon points="181.75 319.67 171.76 356.92 120.83 341.81 124.88 328.17 131.03 307.49 146.99 311.32 181.75 319.67" style="fill: #2c7c6c"/>
            <polygon points="171.76 356.92 160.03 400.67 108.53 383.17 120.83 341.81 171.76 356.92" style="fill: #fff"/>
            <g>
              <path d="M140.13,319.36l-.75,2.58-2-.58-3,10.32-3.36-1,3-10.32-2-.58.75-2.58Z" style="fill: #fff"/>
              <path d="M147.15,328l-.76,2.59a11.43,11.43,0,0,1-.75,2.05,3.06,3.06,0,0,1-1,1.06,2.9,2.9,0,0,1-1.46.5,5,5,0,0,1-1.77-.22,6.27,6.27,0,0,1-1.74-.76,2.57,2.57,0,0,1-.94-1,2.91,2.91,0,0,1-.25-1.32,8.94,8.94,0,0,1,.42-2.07l.79-2.71a6.91,6.91,0,0,1,1-2.21,2.77,2.77,0,0,1,1.54-1,4.2,4.2,0,0,1,2.27.12,5.06,5.06,0,0,1,1.77.87,3,3,0,0,1,1.22,2.43A7,7,0,0,1,147.15,328Zm-3-1.74a3.75,3.75,0,0,0,.21-1,.38.38,0,0,0-.31-.32.39.39,0,0,0-.44.1,3.39,3.39,0,0,0-.4,1l-1.39,4.77a3.28,3.28,0,0,0-.19,1,.46.46,0,0,0,.75.24,2.81,2.81,0,0,0,.35-.87Z" style="fill: #fff"/>
              <path d="M157.06,326.83l-2.54,3.83-.16,6.86-3.1-.91.34-4.9-1.35,4.61-3.22-.94,3.77-12.9,3.22.94-1.58,5.42,1.91-2.79Z" style="fill: #fff"/>
              <path d="M165.5,329.3l-3.16,7.38q-.75,1.75-1.09,2.37a2.78,2.78,0,0,1-.81.95,2.05,2.05,0,0,1-1.14.36,7,7,0,0,1-2-.37l-2-.57.49-1.69a3.92,3.92,0,0,0,1,.21.33.33,0,0,0,.31-.28q0-.13.12-1.17l.82-9.36L161,328l-1,7.45,2.6-7Z" style="fill: #fff"/>
              <path d="M173.1,335.55l-.76,2.59a11.27,11.27,0,0,1-.75,2,3.06,3.06,0,0,1-1,1.06,2.9,2.9,0,0,1-1.46.5,5,5,0,0,1-1.77-.22,6.29,6.29,0,0,1-1.74-.76,2.58,2.58,0,0,1-.94-1,2.91,2.91,0,0,1-.25-1.32,9,9,0,0,1,.41-2.07l.79-2.71a6.92,6.92,0,0,1,1-2.21,2.76,2.76,0,0,1,1.54-1,4.21,4.21,0,0,1,2.27.12,5,5,0,0,1,1.77.87,3,3,0,0,1,1.22,2.43A6.9,6.9,0,0,1,173.1,335.55Zm-3-1.74a3.62,3.62,0,0,0,.21-1,.38.38,0,0,0-.31-.32.39.39,0,0,0-.45.1,3.43,3.43,0,0,0-.39,1l-1.39,4.77a3.2,3.2,0,0,0-.19,1,.45.45,0,0,0,.75.24,2.78,2.78,0,0,0,.35-.86Z" style="fill: #fff"/>
            </g>
            <line x1="127.4" y1="352.5" x2="160.81" y2="362.93" style="fill: #f4987a;stroke: #485967;stroke-miterlimit: 10;stroke-width: 4px"/>
            <line x1="125.02" y1="360.13" x2="158.43" y2="370.56" style="fill: #f4987a;stroke: #485967;stroke-miterlimit: 10;stroke-width: 4px"/>
            <line x1="122.63" y1="367.77" x2="156.04" y2="378.2" style="fill: #f4987a;stroke: #485967;stroke-miterlimit: 10;stroke-width: 4px"/>
            <line x1="120.25" y1="375.41" x2="153.66" y2="385.84" style="fill: #f4987a;stroke: #485967;stroke-miterlimit: 10;stroke-width: 4px"/>
          </g>
          <path d="M554.22,191.69v35.22a24.86,24.86,0,0,0,4.91,14.84l18.63,25.05a18.39,18.39,0,0,1,2.7,16.76l-12,36.28a39.86,39.86,0,0,0-.5,23.43l4.1,23.36c.82,2.9-157.51-8.45-157.51-8.45,1.08-4.47,3.76-36,2.18-40.34L409.44,298a39.94,39.94,0,0,1,5.36-37.45l9.08-12.31a35.65,35.65,0,0,0,6.1-28.94l-4.4-19.66a11.77,11.77,0,0,1,3.72-11.42l4.82-4.23a3.81,3.81,0,0,1,6.32,2.84l.15,24.58a29.2,29.2,0,0,0,20.59,27.72l10.2,3.14a38.21,38.21,0,0,1,26.09,28.46l.11.49a1.54,1.54,0,0,0,3-.19h0a38.21,38.21,0,0,1,24.12-32.18l4.82-1.89a25.17,25.17,0,0,0,15.8-26.47L542,183.13a2.13,2.13,0,0,1,3.32-2l5.1,3.47A8.6,8.6,0,0,1,554.22,191.69Z" style="fill: url(#linear-gradient-2)"/>
          <g>
            <circle cx="520.85" cy="265.64" r="10" style="fill: url(#linear-gradient-3)"/>
            <circle cx="525.51" cy="279.14" r="10" style="fill: url(#linear-gradient-4)"/>
            <circle cx="541.51" cy="279.14" r="10" transform="translate(-32.44 74.86) rotate(-7.68)" style="fill: url(#linear-gradient-5)"/>
            <circle cx="547.18" cy="268.14" r="10" transform="translate(-4.9 526.05) rotate(-51.15)" style="fill: url(#linear-gradient-6)"/>
            <circle cx="534.01" cy="257.21" r="10" style="fill: url(#linear-gradient-7)"/>
            <circle cx="534.37" cy="269.7" r="7.15" style="fill: #f9f7a7"/>
          </g>
          <path d="M416.63,335c-.05.21,28.67,10.79,50.38,18.74a74.24,74.24,0,0,0,47.84,1.11l52.05-16.38L583,375.37H402.78Z" style="fill: #ba5692"/>
          <g style="clip-path: url(#clip-path-2)">
            <g>
              <path d="M547,174.37l-39.77,16.51a42.44,42.44,0,0,1-33.58-.44l-31-13.83L421.36,387l140,1.19Z" style="fill: url(#linear-gradient-8)"/>
              <path d="M556.78,185.4c.33,1.33,35.25,45.31,35.25,45.31V386.37l-63.92,2.9c.76,3.26-12.79-140.56-14.26-175.4-.67-15.95,3-11.5,3-11.5Z" style="fill: url(#linear-gradient-9)"/>
              <path d="M434.45,185.4,387.7,226.53,404,386l46,.34s15.11-135.67,11.78-170.45Z" style="fill: url(#linear-gradient-10)"/>
              <path d="M423.8,191.56c5.8,9.63,20.41,31.93,27.13,42.16a4.39,4.39,0,0,0,7.22.17L471.9,215a9.75,9.75,0,0,0,.07-11.39l-22.64-31.89a7.73,7.73,0,0,0-11.77-1l-12.8,12.85A6.52,6.52,0,0,0,423.8,191.56Z" style="fill: #333f47"/>
              <path d="M505,213.47,511,229a5.52,5.52,0,0,0,8.75,2.19L559.3,197a6.32,6.32,0,0,0,.62-9L547.24,173.6a5.87,5.87,0,0,0-8.35-.48l-31,28.07A11.14,11.14,0,0,0,505,213.47Z" style="fill: #333f47"/>
              <path d="M375.3,242.1c-9.19,33.67-10.29,77.39-2.82,111.48l7.18,32.79L420,388.06s-1.26-82.07-6.22-109.84c-1.9-10.64-17.53-57.09-17.53-57.09C393.91,214.67,375.3,242.1,375.3,242.1Z" style="fill: url(#linear-gradient-11)"/>
              <path d="M592,228.87s14.25,19.25,17.25,32.25c1.8,7.81,2.37,29.77,1.91,37.77l-.83,93.48H573v-95C573,262.12,590.85,225.06,592,228.87Z" style="fill: url(#linear-gradient-12)"/>
              <g>
                <path d="M476.66,290.88a2.62,2.62,0,0,1,.16,1.76,3.2,3.2,0,0,1-.9,1.7,3.61,3.61,0,0,1-1,.66,1.9,1.9,0,0,1,1.11,1,2.76,2.76,0,0,1,.09,1.69,4.14,4.14,0,0,1-.91,1.84,4.42,4.42,0,0,1-1,.91,4,4,0,0,1-1.43.58,8.51,8.51,0,0,1-1.67.16h-5.22l2.45-11.52h5.59Q476,289.69,476.66,290.88Zm-7.41,5.22-.65,3.07h2.83a3.06,3.06,0,0,0,1.22-.2,1.88,1.88,0,0,0,1.08-1.44,1,1,0,0,0-.48-1.23,2.67,2.67,0,0,0-1.12-.2Zm.95-4.45-.54,2.54h2.83a2.71,2.71,0,0,0,1.29-.29,1.4,1.4,0,0,0,.69-1q.16-.8-.4-1.06a4.12,4.12,0,0,0-1.34-.18Z" style="fill: #6d5757"/>
                <path d="M483.14,289.66h2.72l1.63,11.52h-2.61l-.24-2.37H480.4l-1.3,2.37h-2.52Zm-1.67,7.16h2.92l-.48-4.53Z" style="fill: #6d5757"/>
                <path d="M491.36,289.66h2.52l2.88,8,1.71-8h2.24l-2.45,11.52h-2.41l-3-8.18-1.73,8.18h-2.24Z" style="fill: #6d5757"/>
                <path d="M509.64,289.91a2.82,2.82,0,0,1,1.65,1.46,4.2,4.2,0,0,1,.43,1.86,9.19,9.19,0,0,1-.18,1.91,9.33,9.33,0,0,1-1.75,3.89,5.28,5.28,0,0,1-4.31,2.15h-5L503,289.66h5A5.55,5.55,0,0,1,509.64,289.91Zm-4.78,1.75-1.59,7.52h2.22a3.1,3.1,0,0,0,2.73-1.68,6.88,6.88,0,0,0,.83-2.2,5,5,0,0,0,0-2.7q-.35-.94-2-.94Z" style="fill: #6d5757"/>
              </g>
              <g>
                <path d="M468.77,263.24a5.91,5.91,0,0,1,3.88-1.42q2.91,0,3.84,1.91a3.52,3.52,0,0,1,.34,2.15h-2.41a2.58,2.58,0,0,0-.34-1.25,2,2,0,0,0-1.78-.75,3,3,0,0,0-2.3,1.06,6.17,6.17,0,0,0-1.39,3,4,4,0,0,0,.18,2.9,2,2,0,0,0,1.83,1,2.89,2.89,0,0,0,2.11-.83,4.69,4.69,0,0,0,.89-1.34H476a6.81,6.81,0,0,1-2.25,3.06,5.66,5.66,0,0,1-3.54,1.18,4,4,0,0,1-3.57-1.59,5.61,5.61,0,0,1-.48-4.39A8,8,0,0,1,468.77,263.24Z" style="fill: #6d5757"/>
                <path d="M486.1,272.53a6.06,6.06,0,0,1-4.05,1.34,4.12,4.12,0,0,1-3.49-1.34q-1.4-1.65-.73-4.75a7.71,7.71,0,0,1,2.76-4.75,6.06,6.06,0,0,1,4.05-1.34,4.12,4.12,0,0,1,3.49,1.34q1.41,1.59.73,4.75A7.9,7.9,0,0,1,486.1,272.53Zm.35-4.75a4.25,4.25,0,0,0-.21-3,2.17,2.17,0,0,0-2-1.06,3.46,3.46,0,0,0-2.5,1.05,5.78,5.78,0,0,0-1.49,3,4.18,4.18,0,0,0,.21,3,2.2,2.2,0,0,0,2.05,1.05,3.44,3.44,0,0,0,2.5-1.05A5.81,5.81,0,0,0,486.45,267.78Z" style="fill: #6d5757"/>
                <path d="M498.55,272.53a6.06,6.06,0,0,1-4.05,1.34,4.12,4.12,0,0,1-3.49-1.34q-1.4-1.65-.73-4.75A7.71,7.71,0,0,1,493,263a6.06,6.06,0,0,1,4.05-1.34,4.12,4.12,0,0,1,3.49,1.34q1.41,1.59.73,4.75A7.9,7.9,0,0,1,498.55,272.53Zm.35-4.75a4.25,4.25,0,0,0-.21-3,2.17,2.17,0,0,0-2-1.06,3.46,3.46,0,0,0-2.5,1.05,5.78,5.78,0,0,0-1.49,3,4.18,4.18,0,0,0,.21,3,2.2,2.2,0,0,0,2.05,1.05,3.44,3.44,0,0,0,2.5-1.05A5.81,5.81,0,0,0,498.9,267.78Z" style="fill: #6d5757"/>
                <path d="M504.36,262h2.41l-2,9.45h5.7l-.44,2.07h-8.11Z" style="fill: #6d5757"/>
              </g>
              <path d="M424.8,184.93c5.8,9.63,20.41,31.93,27.13,42.16a4.39,4.39,0,0,0,7.22.17l13.75-18.88A9.75,9.75,0,0,0,473,197L450.33,165.1a7.73,7.73,0,0,0-11.77-1L425.76,177A6.52,6.52,0,0,0,424.8,184.93Z" style="fill: url(#linear-gradient-13)"/>
              <path d="M505,206l6,15.55a5.52,5.52,0,0,0,8.75,2.19l39.57-34.19a6.32,6.32,0,0,0,.62-9l-12.68-14.47a5.87,5.87,0,0,0-8.35-.48l-31,28.07A11.14,11.14,0,0,0,505,206Z" style="fill: url(#linear-gradient-14)"/>
            </g>
          </g>
          <g>
            <path d="M198.15,156.57a10,10,0,0,1,4,3.1,9.9,9.9,0,0,1,2,4.42,30.64,30.64,0,0,1,.32,5.09l-.06,21.7h-9.22V168.95a7.2,7.2,0,0,0-.63-3.22,4.49,4.49,0,0,0-4.42-2.4,5.18,5.18,0,0,0-5.15,3.1,9.72,9.72,0,0,0-.73,3.95v20.5h-9.07v-20.5a11.53,11.53,0,0,0-.63-4.45q-1.14-2.49-4.45-2.49-3.85,0-5.18,2.49a9.61,9.61,0,0,0-.73,4.23v20.72H155V156.5h8.75v5a14.49,14.49,0,0,1,3.16-3.82,12.5,12.5,0,0,1,13.17-.28,10.12,10.12,0,0,1,3,4.14,11.44,11.44,0,0,1,4.39-4.45,13.4,13.4,0,0,1,6.19-1.42A12,12,0,0,1,198.15,156.57Z" style="fill: #fff"/>
            <path d="M241.42,186.66Q237.06,192,228.19,192T215,186.66a21.36,21.36,0,0,1,0-25.86q4.36-5.46,13.24-5.46t13.24,5.46a21.36,21.36,0,0,1,0,25.86Zm-7.2-5q2.12-2.81,2.12-8t-2.12-8a8,8,0,0,0-12.15,0q-2.13,2.79-2.13,8t2.13,8a8,8,0,0,0,12.15,0Z" style="fill: #fff"/>
            <path d="M270.48,157a11,11,0,0,1,3.95,3.81V144.37h9.13v46.5h-8.75V186.1a12.69,12.69,0,0,1-4.39,4.45,12.32,12.32,0,0,1-6.13,1.39,12.79,12.79,0,0,1-10.16-4.88Q250,182.18,250,174.54q0-8.81,4.06-13.87a13.21,13.21,0,0,1,10.85-5.05A11.11,11.11,0,0,1,270.48,157Zm2.21,24.53a12.56,12.56,0,0,0,2-7.36q0-6.32-3.19-9a6.87,6.87,0,0,0-4.55-1.64,6.32,6.32,0,0,0-5.8,3,13.84,13.84,0,0,0-1.85,7.41,13.7,13.7,0,0,0,1.88,7.63,6.35,6.35,0,0,0,5.7,2.86A6.65,6.65,0,0,0,272.69,181.52Z" style="fill: #fff"/>
            <path d="M314.18,157.14a14,14,0,0,1,6,5.09,16.92,16.92,0,0,1,2.74,7.12,44,44,0,0,1,.3,6.83H298.09q.21,5.18,3.6,7.27a9.14,9.14,0,0,0,5,1.29,7,7,0,0,0,6.85-3.95h9.19a11.24,11.24,0,0,1-3.34,6.22q-4.63,5-13,5a18.76,18.76,0,0,1-12.13-4.24Q289,183.57,289,174q0-8.95,4.74-13.72a16.6,16.6,0,0,1,12.31-4.77A19.6,19.6,0,0,1,314.18,157.14Zm-13.47,7.78a9.36,9.36,0,0,0-2.4,5.33h15.51a7.51,7.51,0,0,0-2.4-5.44,7.89,7.89,0,0,0-5.34-1.86A7.14,7.14,0,0,0,300.71,164.91Z" style="fill: #fff"/>
            <path d="M346.84,155.63l.77,0v9.22c-.57-.06-1.07-.1-1.52-.13l-1.07,0q-5.43,0-7.3,3.54a13.76,13.76,0,0,0-1,6.13v16.46h-9.07V156.44h8.59v6a19,19,0,0,1,3.63-4.71,9.89,9.89,0,0,1,6.57-2.12Z" style="fill: #fff"/>
            <path d="M380.66,158.41q3.38,2.79,3.38,9.27v23.18h-9.22V169.93a9.61,9.61,0,0,0-.72-4.17q-1.32-2.65-5-2.65a6.22,6.22,0,0,0-6.24,3.88,13.44,13.44,0,0,0-.88,5.24v18.64h-9V156.5h8.72v5a15.27,15.27,0,0,1,3.27-3.82,11.34,11.34,0,0,1,7-2.08A13.19,13.19,0,0,1,380.66,158.41Z" style="fill: #fff"/>
          </g>
        </g>
      </g>
    </g>
  </g>
</svg>
