<svg xmlns="http://www.w3.org/2000/svg" viewBox="0 0 450 306">
  <defs>
    <style>
      .cls-1 {
        fill: #b5a77f;
      }
    </style>
  </defs>
  <title>frame_classic_01</title>
  <g id="Layer_2" data-name="Layer 2">
    <g id="classic_borders">
      <path id="frame_classic_01" class="cls-1" d="M436.25,151.81v-141l-1.34-1.34H226.19V0h-2.37V9.52H13.75v142.3H0v2.37H13.75v141l1.34,1.34H223.81V306h2.37v-9.52H434.91l1.34-1.34v-141H450v-2.37ZM17.57,13.31H27.78V25.15H17.57Zm0,115.94,26.66,23-26.66,23ZM27.78,292.69H17.57V280.4H27.78Zm404.65,0H421.9V280.4h10.53Zm0-117.52-26.57-22.93,26.57-22.9Zm0-54.54-31.17,30.66v1.91l31.17,30.66V276.6h-4.59V202.26l-1.34-1.34h-1.14L424,202.26v65.56h-4V218.15l-1.34-1.34h-1.14l-1.34,1.34v42.26h-4V236.33L410.86,235h-1.14l-1.34,1.34v26.53l1.34,1.34h6.45v6.07l1.34,1.34H424v5h-6.5l-1.34,1.34v6.39h-4.92v-6.39l-1.34-1.34H405v-6.32l-1.34-1.34h-27l-1.34,1.34v1.12l1.34,1.34h24.5v3.86H356.91l-1.34,1.34v1.12l1.34,1.34h50.52v3.93H340.58l-1.34,1.34v1.12l1.34,1.34h75.6v4.56H33.5v-4.56h75.6l1.34-1.34v-1.12l-1.34-1.34H42.24V280.4H92.76l1.34-1.34v-1.12l-1.34-1.34H48.51v-3.86H73l1.34-1.34v-1.12L73,268.94H46l-1.34,1.34v6.32H39.76l-1.34,1.34v6.39H33.5v-6.39l-1.34-1.34h-6.5v-5h6.51l1.34-1.34v-6.07H40l1.34-1.34V236.33L40,235H38.82l-1.34,1.34v24.07h-4V218.15l-1.34-1.34H31l-1.34,1.34v49.68h-4V202.26l-1.34-1.34H23.18l-1.34,1.34V276.6H17.57V183.94l31.27-30.75v-1.91L17.57,120.53V28.95h4.27v74.34l1.34,1.34h1.14l1.34-1.34V37.73h4V87.41L31,88.74h1.14l1.34-1.34V45.14h4V69.22l1.34,1.34H40l1.34-1.34V42.68L40,41.35H33.51V35.27l-1.34-1.34H25.66v-5h6.5l1.34-1.34V21.22h4.92v6.39l1.34,1.34h4.93v6.32L46,36.61H73l1.34-1.34V34.15L73,32.81H48.51V28.95H92.76l1.34-1.34V26.49l-1.34-1.34H42.24V21.22H109.1l1.34-1.34V18.76l-1.34-1.34H33.5V13.31H416.18v4.11h-75.6l-1.34,1.34v1.12l1.34,1.34h66.86v3.93H356.91l-1.34,1.34v1.12l1.34,1.34h44.26v3.86h-24.5l-1.34,1.34v1.12l1.34,1.34h27L405,35.27V28.95h4.93l1.34-1.34V21.22h4.92v6.39l1.34,1.34H424v5h-6.51l-1.34,1.34v6.07h-6.45l-1.34,1.34V69.22l1.34,1.34h1.14l1.34-1.34V45.14h4V87.41l1.34,1.34h1.14L420,87.41V37.73h4v65.56l1.34,1.34h1.14l1.34-1.34V28.95h4.59Zm0-95.47H421.9V13.31h10.53Z"/>
    </g>
  </g>
</svg>
