<?xml version="1.0" encoding="utf-8"?>
<!-- Generator: Adobe Illustrator 20.1.0, SVG Export Plug-In . SVG Version: 6.00 Build 0)  -->
<svg version="1.1" id="Layer_1" xmlns="http://www.w3.org/2000/svg" xmlns:xlink="http://www.w3.org/1999/xlink" x="0px" y="0px"
	 viewBox="0 0 450 305.6" style="enable-background:new 0 0 450 305.6;" xml:space="preserve">
<style type="text/css">
	.st0{opacity:0.2;fill:#0A9796;enable-background:new    ;}
	.st1{fill:none;stroke:#0A9796;stroke-width:2;stroke-linecap:round;stroke-miterlimit:10;}
	.st2{fill:#0A9796;}
	.st3{font-family:'Helvetica-Bold';}
	.st4{font-size:12px;}
	.st5{fill:#EA6453;}
	.st6{font-family:'Helvetica-Light';}
	.st7{font-size:9px;}
</style>
<title>card_back</title>
<g id="Layer_2">
	<g id="Layer_2-2">
		<rect x="12.4" y="12.4" class="st0" width="425.4" height="280.9"/>
		<line class="st1" x1="190.2" y1="276" x2="190.2" y2="30"/>
		<path class="st2" d="M0,0v305.6h450V0H0z M437.8,293.2H12.4V12.4h425.4V293.2z"/>
	</g>
</g>
<g id="text">
	<text transform="matrix(1 0 0 1 334.9202 61.7141)" class="st3 st4">using gfti</text>
	<path id="heart" class="st5" d="M316.4,67.5c0,0-6.3-6.4-7.9-9.1c-2.4-3.9,1.9-9.1,5.3-6.9l2.5,1.6l2.5-1.6
		c3.4-2.2,7.7,2.9,5.3,6.9C322.7,61.1,316.4,67.5,316.4,67.5z"/>
	<text transform="matrix(1 0 0 1 239.1113 61.7142)" class="st3 st4">made with</text>
	<text transform="matrix(1 0 0 1 263.4936 82.8959)" class="st6 st7">greetingsfromtheinter.net</text>
</g>
</svg>
