<svg xmlns="http://www.w3.org/2000/svg" viewBox="0 0 450 305.62">
  <defs>
    <style>
      .cls-1, .cls-3 {
        fill: #0a9796;
      }

      .cls-1 {
        opacity: 0.2;
        isolation: isolate;
      }

      .cls-2 {
        fill: none;
        stroke: #0a9796;
        stroke-linecap: round;
        stroke-miterlimit: 10;
        stroke-width: 2px;
      }

      .cls-4 {
        fill: #ea6453;
      }
    </style>
  </defs>
  <title>card_back_asset</title>
  <g id="Layer_2" data-name="Layer 2">
    <g id="Layer_1-2" data-name="Layer 1">
      <g id="Layer_2-2" data-name="Layer 2">
        <g id="Layer_2-2-2" data-name="Layer 2-2">
          <rect class="cls-1" x="12.4" y="12.39" width="425.43" height="280.85"/>
          <line class="cls-2" x1="190.19" y1="275.99" x2="190.19" y2="30.01"/>
          <path class="cls-3" d="M0,0V305.62H450V0ZM437.83,293.23H12.4V12.39H437.83Z"/>
        </g>
      </g>
      <g>
        <g>
          <path d="M342.5,49.95V53.8a2,2,0,0,0,.13.82.89.89,0,0,0,.89.49,1.17,1.17,0,0,0,1.17-.69,2.52,2.52,0,0,0,.16-1V49.95h1.69v6.39h-1.62v-.9l-.12.18a1.18,1.18,0,0,1-.22.26,2.31,2.31,0,0,1-.76.48,2.57,2.57,0,0,1-.86.13,1.91,1.91,0,0,1-1.91-1,3.92,3.92,0,0,1-.27-1.66V49.95Z"/>
          <path d="M349.46,54.29a1.11,1.11,0,0,0,.23.63,1.56,1.56,0,0,0,1.15.33,1.77,1.77,0,0,0,.79-.15.47.47,0,0,0,.29-.44.47.47,0,0,0-.23-.43,9.58,9.58,0,0,0-1.75-.5,3.63,3.63,0,0,1-1.53-.67,1.46,1.46,0,0,1-.45-1.15,2,2,0,0,1,.7-1.52,2.8,2.8,0,0,1,2-.64,3.6,3.6,0,0,1,2,.48,2,2,0,0,1,.87,1.65h-1.67a1,1,0,0,0-.18-.51,1.15,1.15,0,0,0-.94-.34,1.35,1.35,0,0,0-.78.17.49.49,0,0,0-.23.4.44.44,0,0,0,.25.42,10.67,10.67,0,0,0,1.74.46,3.19,3.19,0,0,1,1.5.71,1.61,1.61,0,0,1,.49,1.2,1.94,1.94,0,0,1-.71,1.55,3.33,3.33,0,0,1-2.19.6,3.3,3.3,0,0,1-2.23-.64,2.07,2.07,0,0,1-.72-1.62Z"/>
          <path d="M356.56,49.19h-1.69V47.64h1.69Zm-1.69.76h1.69v6.39h-1.69Z"/>
          <path d="M363.33,50.31A2.11,2.11,0,0,1,364,52v4.3h-1.71V52.45a1.77,1.77,0,0,0-.13-.77.94.94,0,0,0-.93-.49,1.15,1.15,0,0,0-1.16.72,2.49,2.49,0,0,0-.16,1v3.46h-1.67V50h1.62v.93a2.81,2.81,0,0,1,.61-.71,2.1,2.1,0,0,1,1.3-.39A2.45,2.45,0,0,1,363.33,50.31Z"/>
          <path d="M368.67,49.94a2,2,0,0,1,1,.93v-.92h1.63V56a3.39,3.39,0,0,1-.42,1.86,3.06,3.06,0,0,1-2.74,1.08,3.74,3.74,0,0,1-2-.48,1.77,1.77,0,0,1-.86-1.44h1.82a.75.75,0,0,0,.23.42,1.41,1.41,0,0,0,.91.23,1.22,1.22,0,0,0,1.21-.6,3.06,3.06,0,0,0,.2-1.3v-.41a2,2,0,0,1-.52.62,2.07,2.07,0,0,1-1.29.38,2.45,2.45,0,0,1-2-.86,3.49,3.49,0,0,1-.74-2.34,4,4,0,0,1,.71-2.39,2.34,2.34,0,0,1,2-1A2.2,2.2,0,0,1,368.67,49.94Zm.57,4.58a2.05,2.05,0,0,0,.4-1.41,2.16,2.16,0,0,0-.38-1.38,1.25,1.25,0,0,0-1-.47,1.21,1.21,0,0,0-1.21.83,3,3,0,0,0-.17,1.08,2.49,2.49,0,0,0,.19,1,1.22,1.22,0,0,0,1.21.81A1.28,1.28,0,0,0,369.23,54.52Z"/>
          <path d="M379.33,49.94a2,2,0,0,1,1,.93v-.92h1.63V56a3.39,3.39,0,0,1-.42,1.86,3.06,3.06,0,0,1-2.74,1.08,3.74,3.74,0,0,1-2-.48,1.77,1.77,0,0,1-.86-1.44h1.82a.75.75,0,0,0,.23.42,1.41,1.41,0,0,0,.91.23,1.22,1.22,0,0,0,1.21-.6,3.06,3.06,0,0,0,.2-1.3v-.41a2,2,0,0,1-.52.62,2.07,2.07,0,0,1-1.29.38,2.45,2.45,0,0,1-2-.86,3.49,3.49,0,0,1-.74-2.34,4,4,0,0,1,.71-2.39,2.34,2.34,0,0,1,2-1A2.2,2.2,0,0,1,379.33,49.94Zm.57,4.58a2.05,2.05,0,0,0,.4-1.41,2.16,2.16,0,0,0-.38-1.38,1.25,1.25,0,0,0-1-.47,1.21,1.21,0,0,0-1.21.83,3,3,0,0,0-.17,1.08,2.49,2.49,0,0,0,.19,1,1.22,1.22,0,0,0,1.21.81A1.28,1.28,0,0,0,379.9,54.52Z"/>
          <path d="M386.14,47.62l.35,0V49L386,49a.54.54,0,0,0-.46.15.53.53,0,0,0-.13.34V50h1.1v1.18h-1.1v5.15h-1.66V51.18h-.94V50h.91V49.6a2.16,2.16,0,0,1,.35-1.41q.36-.57,1.75-.57Z"/>
          <path d="M386.84,51.19V50h.89V48.22h1.65V50h1v1.19h-1v3.38a.76.76,0,0,0,.1.49,1.1,1.1,0,0,0,.61.1h.33v1.25l-.79,0A2.12,2.12,0,0,1,388,56a1.22,1.22,0,0,1-.28-.88V51.19Z"/>
          <path d="M393.21,49.19h-1.69V47.64h1.69Zm-1.69.76h1.69v6.39h-1.69Z"/>
        </g>
        <path class="cls-4" d="M316.35,65.47s-10.07-8.9-12.62-12.59c-3.76-5.45,3.07-12.53,8.55-9.49l4.07,2.26,4.07-2.26c5.48-3,12.32,4,8.55,9.49C326.43,56.57,316.35,65.47,316.35,65.47Z"/>
        <g>
          <path d="M242.72,50a1.86,1.86,0,0,1,.74.57,1.83,1.83,0,0,1,.36.82,5.67,5.67,0,0,1,.06.94v4h-1.71V52.27a1.33,1.33,0,0,0-.12-.6.83.83,0,0,0-.82-.45,1,1,0,0,0-1,.57,1.8,1.8,0,0,0-.13.73v3.8h-1.68v-3.8a2.14,2.14,0,0,0-.12-.83.82.82,0,0,0-.83-.46,1,1,0,0,0-1,.46,1.78,1.78,0,0,0-.13.79v3.84h-1.69V50h1.62v.93a2.69,2.69,0,0,1,.59-.71,2.32,2.32,0,0,1,2.44-.05,1.87,1.87,0,0,1,.55.77,2.12,2.12,0,0,1,.81-.83,2.49,2.49,0,0,1,1.15-.26A2.22,2.22,0,0,1,242.72,50Z"/>
          <path d="M248,52.45a2.63,2.63,0,0,0,.67-.15.5.5,0,0,0,.36-.47.56.56,0,0,0-.28-.54,1.74,1.74,0,0,0-.81-.15,1.07,1.07,0,0,0-.85.29,1.21,1.21,0,0,0-.24.59H245.2a2.44,2.44,0,0,1,.47-1.38,2.74,2.74,0,0,1,2.28-.84,4.07,4.07,0,0,1,1.87.42,1.59,1.59,0,0,1,.82,1.57v2.93q0,.3,0,.74a.93.93,0,0,0,.1.45.6.6,0,0,0,.25.19v.25h-1.82a1.86,1.86,0,0,1-.11-.36q0-.17,0-.39a3.44,3.44,0,0,1-.8.64,2.42,2.42,0,0,1-1.23.31,2.12,2.12,0,0,1-1.44-.5,1.76,1.76,0,0,1-.57-1.4,1.82,1.82,0,0,1,.92-1.71,4.08,4.08,0,0,1,1.48-.41Zm1,.78a1.85,1.85,0,0,1-.32.16,2.71,2.71,0,0,1-.45.11l-.38.07a2.5,2.5,0,0,0-.77.23.76.76,0,0,0-.39.71.74.74,0,0,0,.24.62.91.91,0,0,0,.59.19,1.75,1.75,0,0,0,1-.32,1.34,1.34,0,0,0,.48-1.15Z"/>
          <path d="M255.48,50a2,2,0,0,1,.73.71v-3h1.69v8.63h-1.62v-.88a2.36,2.36,0,0,1-.81.83,2.29,2.29,0,0,1-1.14.26,2.37,2.37,0,0,1-1.88-.91,3.48,3.48,0,0,1-.76-2.32,4,4,0,0,1,.75-2.57,2.45,2.45,0,0,1,2-.94A2.06,2.06,0,0,1,255.48,50Zm.41,4.55a2.33,2.33,0,0,0,.37-1.37,2.09,2.09,0,0,0-.59-1.68,1.27,1.27,0,0,0-.84-.3,1.17,1.17,0,0,0-1.08.55,3,3,0,0,0,0,2.79,1.18,1.18,0,0,0,1.06.53A1.23,1.23,0,0,0,255.89,54.6Z"/>
          <path d="M263.59,50.08a2.6,2.6,0,0,1,1.1.94,3.14,3.14,0,0,1,.51,1.32,8.1,8.1,0,0,1,.05,1.27h-4.65a1.53,1.53,0,0,0,.67,1.35,1.7,1.7,0,0,0,.92.24,1.3,1.3,0,0,0,1.27-.73h1.71a2.08,2.08,0,0,1-.62,1.15,3.1,3.1,0,0,1-2.4.93,3.48,3.48,0,0,1-2.25-.79,3.1,3.1,0,0,1-1-2.56,3.46,3.46,0,0,1,.88-2.54,3.08,3.08,0,0,1,2.28-.89A3.63,3.63,0,0,1,263.59,50.08Zm-2.5,1.44a1.73,1.73,0,0,0-.45,1h2.88a1.39,1.39,0,0,0-.45-1,1.46,1.46,0,0,0-1-.34A1.32,1.32,0,0,0,261.09,51.52Z"/>
          <path d="M272.45,49.95h1.69l1,4.6,1-4.6h1.74L276,56.33h-1.72l-1-4.65-1,4.65h-1.73l-1.79-6.39h1.79l1,4.58Z"/>
          <path d="M280.49,49.19h-1.69V47.64h1.69Zm-1.69.76h1.69v6.39h-1.69Z"/>
          <path d="M281.45,51.19V50h.89V48.22H284V50h1v1.19h-1v3.38a.76.76,0,0,0,.1.49,1.1,1.1,0,0,0,.61.1H285v1.25l-.79,0a2.12,2.12,0,0,1-1.62-.41,1.22,1.22,0,0,1-.28-.88V51.19Z"/>
          <path d="M290.69,50a1.87,1.87,0,0,1,.79.63,1.67,1.67,0,0,1,.32.74,9.07,9.07,0,0,1,.06,1.23v3.75h-1.71V52.44a1.72,1.72,0,0,0-.17-.83.87.87,0,0,0-.86-.45,1.18,1.18,0,0,0-1,.44,2,2,0,0,0-.34,1.26v3.46h-1.67V47.73h1.67v3a2,2,0,0,1,.84-.78,2.36,2.36,0,0,1,1-.22A2.7,2.7,0,0,1,290.69,50Z"/>
        </g>
      </g>
      <g>
        <path d="M214.39,72.85H215l1.51,4,1.51-4h.58l-1.81,4.66h-.6Z"/>
        <path d="M219.43,71.84V71H220v.8Zm0,5.68V72.85H220v4.66Z"/>
        <path d="M221.69,76.06a1.37,1.37,0,0,0,.46.85,1.54,1.54,0,0,0,.94.25,1.62,1.62,0,0,0,.51-.07,1,1,0,0,0,.36-.19.85.85,0,0,0,.21-.27.75.75,0,0,0,.07-.32.59.59,0,0,0-.22-.51,1.66,1.66,0,0,0-.55-.26,7.18,7.18,0,0,0-.72-.16,3.55,3.55,0,0,1-.72-.2,1.45,1.45,0,0,1-.55-.39,1,1,0,0,1-.22-.71,1.21,1.21,0,0,1,.43-1,1.78,1.78,0,0,1,1.21-.37,2.07,2.07,0,0,1,1.23.34,1.55,1.55,0,0,1,.57,1.13h-.55a1,1,0,0,0-.41-.76,1.53,1.53,0,0,0-.85-.22,1.21,1.21,0,0,0-.78.22.71.71,0,0,0-.27.58.57.57,0,0,0,.22.48,1.8,1.8,0,0,0,.55.27q.33.1.72.18a3.52,3.52,0,0,1,.72.23,1.57,1.57,0,0,1,.55.4,1,1,0,0,1,.22.7,1.19,1.19,0,0,1-.14.59,1.27,1.27,0,0,1-.4.43,1.85,1.85,0,0,1-.6.26,3.16,3.16,0,0,1-.76.09,2.05,2.05,0,0,1-.73-.12,1.59,1.59,0,0,1-.54-.34,1.55,1.55,0,0,1-.35-.5,1.77,1.77,0,0,1-.14-.62Z"/>
        <path d="M225.93,71.84V71h.59v.8Zm0,5.68V72.85h.54v4.66Z"/>
        <path d="M229.51,77.53l-.26.06a1.36,1.36,0,0,1-.36,0,.85.85,0,0,1-.62-.2,1,1,0,0,1-.21-.72V73.3h-.66v-.45h.66v-1.3h.54v1.3h.87v.45h-.87V76.5q0,.17,0,.3a.49.49,0,0,0,.05.21.25.25,0,0,0,.14.12.78.78,0,0,0,.27,0l.22,0,.22,0Z"/>
        <path d="M236.48,72.85H237v4.21a4.11,4.11,0,0,1-.09.9,1.93,1.93,0,0,1-.34.75,1.69,1.69,0,0,1-.67.52,3.1,3.1,0,0,1-2,.06,1.9,1.9,0,0,1-.6-.33,1.42,1.42,0,0,1-.36-.44,1.09,1.09,0,0,1-.13-.45h.58a1.07,1.07,0,0,0,.2.43,1,1,0,0,0,.32.26,1.38,1.38,0,0,0,.41.13,3,3,0,0,0,.47,0,1.79,1.79,0,0,0,.88-.19,1.29,1.29,0,0,0,.5-.5,1.9,1.9,0,0,0,.22-.69,5.3,5.3,0,0,0,0-.79,1.67,1.67,0,0,1-.72.65,2.15,2.15,0,0,1-.95.22,2,2,0,0,1-.92-.2,1.89,1.89,0,0,1-.65-.54,2.32,2.32,0,0,1-.38-.79,3.46,3.46,0,0,1-.13-.94,3.81,3.81,0,0,1,.12-1,2.12,2.12,0,0,1,.37-.78,1.79,1.79,0,0,1,.65-.52,2.22,2.22,0,0,1,1-.19,1.77,1.77,0,0,1,.46.06,2.19,2.19,0,0,1,.45.18,1.75,1.75,0,0,1,.41.3,1.59,1.59,0,0,1,.3.41h0Zm0,2.35a2.86,2.86,0,0,0-.1-.79,1.93,1.93,0,0,0-.3-.63,1.42,1.42,0,0,0-.5-.42,1.45,1.45,0,0,0-.67-.15,1.61,1.61,0,0,0-.63.12,1.44,1.44,0,0,0-.5.36,1.65,1.65,0,0,0-.34.57,2.29,2.29,0,0,0-.12.78,3,3,0,0,0,.07.82,1.94,1.94,0,0,0,.29.67,1.44,1.44,0,0,0,.5.45,1.5,1.5,0,0,0,.73.17,1.38,1.38,0,0,0,.66-.16,1.53,1.53,0,0,0,.49-.42,1.91,1.91,0,0,0,.31-.62A2.56,2.56,0,0,0,236.48,75.2Z"/>
        <path d="M238.95,77.52h-.54V72.85h.54v.87h0a1.56,1.56,0,0,1,.58-.78,1.77,1.77,0,0,1,.94-.22v.58a1.58,1.58,0,0,0-.76.14,1.25,1.25,0,0,0-.47.41,1.64,1.64,0,0,0-.24.62,4,4,0,0,0-.07.74Z"/>
        <path d="M241.71,75.31a2.52,2.52,0,0,0,.1.72,1.72,1.72,0,0,0,.29.58,1.42,1.42,0,0,0,.49.4,1.51,1.51,0,0,0,.68.15,1.49,1.49,0,0,0,.91-.28,1.34,1.34,0,0,0,.5-.79h.6a2.91,2.91,0,0,1-.26.62,1.91,1.91,0,0,1-.4.5,1.75,1.75,0,0,1-.58.33,2.34,2.34,0,0,1-.77.12,2.26,2.26,0,0,1-1-.19,1.82,1.82,0,0,1-.67-.52,2.18,2.18,0,0,1-.39-.77,3.51,3.51,0,0,1-.13-1,3,3,0,0,1,.15-1,2.43,2.43,0,0,1,.42-.79,2,2,0,0,1,.67-.53,2,2,0,0,1,.9-.19,1.86,1.86,0,0,1,1.51.66,2.91,2.91,0,0,1,.54,1.92Zm3-.45a2.16,2.16,0,0,0-.09-.64,1.51,1.51,0,0,0-.28-.52,1.32,1.32,0,0,0-.46-.35,1.49,1.49,0,0,0-.64-.13,1.42,1.42,0,0,0-.63.13,1.46,1.46,0,0,0-.47.36,1.82,1.82,0,0,0-.31.52,2.4,2.4,0,0,0-.15.63Z"/>
        <path d="M246.71,75.31a2.52,2.52,0,0,0,.1.72,1.72,1.72,0,0,0,.29.58,1.42,1.42,0,0,0,.49.4,1.51,1.51,0,0,0,.68.15,1.49,1.49,0,0,0,.91-.28,1.34,1.34,0,0,0,.5-.79h.6a2.91,2.91,0,0,1-.26.62,1.91,1.91,0,0,1-.4.5,1.75,1.75,0,0,1-.58.33,2.34,2.34,0,0,1-.77.12,2.26,2.26,0,0,1-1-.19,1.82,1.82,0,0,1-.67-.52,2.18,2.18,0,0,1-.39-.77,3.51,3.51,0,0,1-.13-1,3,3,0,0,1,.15-1,2.43,2.43,0,0,1,.42-.79,2,2,0,0,1,.67-.53,2,2,0,0,1,.9-.19,1.86,1.86,0,0,1,1.51.66,2.91,2.91,0,0,1,.54,1.92Zm3-.45a2.16,2.16,0,0,0-.09-.64,1.51,1.51,0,0,0-.28-.52,1.32,1.32,0,0,0-.46-.35,1.49,1.49,0,0,0-.64-.13,1.42,1.42,0,0,0-.63.13,1.46,1.46,0,0,0-.47.36,1.82,1.82,0,0,0-.31.52,2.4,2.4,0,0,0-.15.63Z"/>
        <path d="M253,77.53l-.26.06a1.36,1.36,0,0,1-.36,0,.85.85,0,0,1-.62-.2,1,1,0,0,1-.21-.72V73.3h-.66v-.45h.66v-1.3h.54v1.3H253v.45h-.87V76.5q0,.17,0,.3a.49.49,0,0,0,.05.21.25.25,0,0,0,.14.12.78.78,0,0,0,.27,0l.22,0,.22,0Z"/>
        <path d="M253.94,71.84V71h.59v.8Zm0,5.68V72.85h.54v4.66Z"/>
        <path d="M256.42,77.52h-.54V72.85h.54v.65a3.42,3.42,0,0,1,.67-.56,1.54,1.54,0,0,1,.83-.22,2.14,2.14,0,0,1,.8.15,1.37,1.37,0,0,1,.62.52,1.18,1.18,0,0,1,.2.52,4.6,4.6,0,0,1,0,.55v3.05H259v-3a1.39,1.39,0,0,0-.28-.94,1.19,1.19,0,0,0-.93-.31,1.32,1.32,0,0,0-.46.08,1.46,1.46,0,0,0-.37.2,1.37,1.37,0,0,0-.46.63,1.71,1.71,0,0,0-.1.43q0,.21,0,.45Z"/>
        <path d="M264.49,72.85H265v4.21a4.11,4.11,0,0,1-.09.9,1.93,1.93,0,0,1-.34.75,1.69,1.69,0,0,1-.67.52,3.1,3.1,0,0,1-2,.06,1.9,1.9,0,0,1-.6-.33,1.42,1.42,0,0,1-.36-.44,1.09,1.09,0,0,1-.13-.45h.58a1.07,1.07,0,0,0,.2.43,1,1,0,0,0,.32.26,1.38,1.38,0,0,0,.41.13,3,3,0,0,0,.47,0,1.79,1.79,0,0,0,.88-.19,1.29,1.29,0,0,0,.5-.5,1.9,1.9,0,0,0,.22-.69,5.3,5.3,0,0,0,0-.79,1.67,1.67,0,0,1-.72.65,2.15,2.15,0,0,1-.95.22,2,2,0,0,1-.92-.2,1.89,1.89,0,0,1-.65-.54,2.32,2.32,0,0,1-.38-.79,3.46,3.46,0,0,1-.13-.94,3.81,3.81,0,0,1,.12-1,2.12,2.12,0,0,1,.37-.78,1.79,1.79,0,0,1,.65-.52,2.22,2.22,0,0,1,1-.19,1.77,1.77,0,0,1,.46.06,2.19,2.19,0,0,1,.45.18,1.75,1.75,0,0,1,.41.3,1.59,1.59,0,0,1,.3.41h0Zm0,2.35a2.86,2.86,0,0,0-.1-.79,1.93,1.93,0,0,0-.3-.63,1.42,1.42,0,0,0-.5-.42,1.45,1.45,0,0,0-.67-.15,1.61,1.61,0,0,0-.63.12,1.44,1.44,0,0,0-.5.36,1.65,1.65,0,0,0-.34.57,2.29,2.29,0,0,0-.12.78,3,3,0,0,0,.07.82,1.94,1.94,0,0,0,.29.67,1.44,1.44,0,0,0,.5.45,1.5,1.5,0,0,0,.73.17,1.38,1.38,0,0,0,.66-.16,1.53,1.53,0,0,0,.49-.42,1.91,1.91,0,0,0,.31-.62A2.56,2.56,0,0,0,264.49,75.2Z"/>
        <path d="M266.7,76.06a1.37,1.37,0,0,0,.46.85,1.54,1.54,0,0,0,.94.25,1.62,1.62,0,0,0,.51-.07,1,1,0,0,0,.36-.19.85.85,0,0,0,.21-.27.75.75,0,0,0,.07-.32.59.59,0,0,0-.22-.51,1.66,1.66,0,0,0-.55-.26,7.18,7.18,0,0,0-.72-.16,3.55,3.55,0,0,1-.72-.2,1.45,1.45,0,0,1-.55-.39,1,1,0,0,1-.22-.71,1.21,1.21,0,0,1,.43-1,1.78,1.78,0,0,1,1.21-.37,2.07,2.07,0,0,1,1.23.34,1.55,1.55,0,0,1,.57,1.13h-.55a1,1,0,0,0-.41-.76,1.53,1.53,0,0,0-.85-.22,1.21,1.21,0,0,0-.78.22.71.71,0,0,0-.27.58.57.57,0,0,0,.22.48,1.8,1.8,0,0,0,.55.27q.33.1.72.18a3.52,3.52,0,0,1,.72.23,1.57,1.57,0,0,1,.55.4,1,1,0,0,1,.22.7,1.19,1.19,0,0,1-.14.59,1.27,1.27,0,0,1-.4.43,1.85,1.85,0,0,1-.6.26,3.16,3.16,0,0,1-.76.09,2.05,2.05,0,0,1-.73-.12,1.59,1.59,0,0,1-.54-.34,1.55,1.55,0,0,1-.35-.5,1.77,1.77,0,0,1-.14-.62Z"/>
        <path d="M270.42,73.3v-.45h.69v-.74a1.53,1.53,0,0,1,.22-.88.87.87,0,0,1,.77-.32h.23l.22,0v.49a1.36,1.36,0,0,0-.32,0,.59.59,0,0,0-.32.08.45.45,0,0,0-.17.2.9.9,0,0,0-.07.28c0,.1,0,.21,0,.32v.58h.9v.45h-.9v4.21h-.54V73.3Z"/>
        <path d="M274,77.52h-.54V72.85H274v.87h0a1.56,1.56,0,0,1,.58-.78,1.77,1.77,0,0,1,.94-.22v.58a1.58,1.58,0,0,0-.76.14,1.25,1.25,0,0,0-.47.41,1.64,1.64,0,0,0-.24.62,4,4,0,0,0-.07.74Z"/>
        <path d="M278.24,77.64a2.43,2.43,0,0,1-.84-.16,1.89,1.89,0,0,1-.68-.46,2.2,2.2,0,0,1-.46-.76,3.08,3.08,0,0,1-.17-1.07,3.3,3.3,0,0,1,.13-1,2.28,2.28,0,0,1,.41-.78,1.93,1.93,0,0,1,.67-.53,2.17,2.17,0,0,1,.95-.19,2.19,2.19,0,0,1,1,.19,2,2,0,0,1,.67.52,2.16,2.16,0,0,1,.4.78,3.45,3.45,0,0,1,.13,1,3.1,3.1,0,0,1-.15,1,2.26,2.26,0,0,1-.44.77,1.92,1.92,0,0,1-.68.5A2.19,2.19,0,0,1,278.24,77.64Zm1.58-2.46a3.21,3.21,0,0,0-.09-.77,1.85,1.85,0,0,0-.28-.63,1.35,1.35,0,0,0-.49-.42,1.58,1.58,0,0,0-.73-.15,1.48,1.48,0,0,0-.72.17,1.42,1.42,0,0,0-.49.44,2,2,0,0,0-.28.63,3,3,0,0,0-.09.73,2.89,2.89,0,0,0,.1.8,1.87,1.87,0,0,0,.3.63,1.35,1.35,0,0,0,.5.41,1.54,1.54,0,0,0,.68.14A1.48,1.48,0,0,0,279,77a1.4,1.4,0,0,0,.49-.45,2,2,0,0,0,.28-.63A2.94,2.94,0,0,0,279.82,75.18Z"/>
        <path d="M281.86,77.52h-.54V72.85h.54v.7h0a1.42,1.42,0,0,1,.59-.62,1.74,1.74,0,0,1,.85-.21,1.81,1.81,0,0,1,.55.07,1.25,1.25,0,0,1,.38.19,1.12,1.12,0,0,1,.26.28,2,2,0,0,1,.18.35,1.57,1.57,0,0,1,.63-.68,1.79,1.79,0,0,1,.9-.22,1.57,1.57,0,0,1,.76.16,1.14,1.14,0,0,1,.44.41,1.61,1.61,0,0,1,.2.59,4.62,4.62,0,0,1,0,.68v2.94h-.54V74.29a1.31,1.31,0,0,0-.21-.79.92.92,0,0,0-.79-.29,1.3,1.3,0,0,0-1.05.53,1,1,0,0,0-.15.27,2.24,2.24,0,0,0-.09.33,2.59,2.59,0,0,0,0,.34c0,.11,0,.22,0,.31v2.51h-.54V74.29a1.32,1.32,0,0,0-.21-.79.92.92,0,0,0-.79-.29,1.3,1.3,0,0,0-1.05.53A1.06,1.06,0,0,0,282,74a2.36,2.36,0,0,0-.09.33,2.76,2.76,0,0,0,0,.34c0,.11,0,.22,0,.31Z"/>
        <path d="M290.52,77.53l-.26.06a1.36,1.36,0,0,1-.36,0,.85.85,0,0,1-.62-.2,1,1,0,0,1-.21-.72V73.3h-.66v-.45h.66v-1.3h.54v1.3h.87v.45h-.87V76.5q0,.17,0,.3a.49.49,0,0,0,.05.21.25.25,0,0,0,.14.12.78.78,0,0,0,.27,0l.22,0,.22,0Z"/>
        <path d="M291.39,77.52V71h.54V73.5a3.42,3.42,0,0,1,.67-.56,1.54,1.54,0,0,1,.83-.22,2.14,2.14,0,0,1,.8.15,1.37,1.37,0,0,1,.62.52,1.18,1.18,0,0,1,.2.52,4.6,4.6,0,0,1,0,.55v3.05h-.54v-3a1.39,1.39,0,0,0-.28-.94,1.19,1.19,0,0,0-.93-.31,1.32,1.32,0,0,0-.46.08,1.46,1.46,0,0,0-.37.2,1.37,1.37,0,0,0-.46.63,1.71,1.71,0,0,0-.1.43q0,.21,0,.45v2.51Z"/>
        <path d="M296.73,75.31a2.52,2.52,0,0,0,.1.72,1.72,1.72,0,0,0,.29.58,1.42,1.42,0,0,0,.49.4,1.51,1.51,0,0,0,.68.15,1.49,1.49,0,0,0,.91-.28,1.34,1.34,0,0,0,.5-.79h.6a2.91,2.91,0,0,1-.26.62,1.91,1.91,0,0,1-.4.5,1.75,1.75,0,0,1-.58.33,2.34,2.34,0,0,1-.77.12,2.26,2.26,0,0,1-1-.19,1.82,1.82,0,0,1-.67-.52,2.18,2.18,0,0,1-.39-.77,3.51,3.51,0,0,1-.13-1,3,3,0,0,1,.15-1,2.43,2.43,0,0,1,.42-.79,2,2,0,0,1,.67-.53,2,2,0,0,1,.9-.19,1.86,1.86,0,0,1,1.51.66,2.91,2.91,0,0,1,.54,1.92Zm3-.45a2.16,2.16,0,0,0-.09-.64,1.51,1.51,0,0,0-.28-.52,1.32,1.32,0,0,0-.46-.35,1.49,1.49,0,0,0-.64-.13,1.42,1.42,0,0,0-.63.13,1.46,1.46,0,0,0-.47.36,1.82,1.82,0,0,0-.31.52,2.4,2.4,0,0,0-.15.63Z"/>
        <path d="M301.45,71.84V71H302v.8Zm0,5.68V72.85H302v4.66Z"/>
        <path d="M303.93,77.52h-.54V72.85h.54v.65a3.42,3.42,0,0,1,.67-.56,1.54,1.54,0,0,1,.83-.22,2.14,2.14,0,0,1,.8.15,1.37,1.37,0,0,1,.62.52,1.18,1.18,0,0,1,.2.52,4.6,4.6,0,0,1,0,.55v3.05h-.54v-3a1.39,1.39,0,0,0-.28-.94,1.19,1.19,0,0,0-.93-.31,1.32,1.32,0,0,0-.46.08,1.46,1.46,0,0,0-.37.2,1.37,1.37,0,0,0-.46.63,1.71,1.71,0,0,0-.1.43q0,.21,0,.45Z"/>
        <path d="M310,77.53l-.26.06a1.36,1.36,0,0,1-.36,0,.85.85,0,0,1-.62-.2,1,1,0,0,1-.21-.72V73.3h-.66v-.45h.66v-1.3h.54v1.3H310v.45h-.87V76.5q0,.17,0,.3a.49.49,0,0,0,.05.21.25.25,0,0,0,.14.12.78.78,0,0,0,.27,0l.22,0,.22,0Z"/>
        <path d="M311.23,75.31a2.52,2.52,0,0,0,.1.72,1.72,1.72,0,0,0,.29.58,1.42,1.42,0,0,0,.49.4,1.51,1.51,0,0,0,.68.15,1.49,1.49,0,0,0,.91-.28,1.34,1.34,0,0,0,.5-.79h.6a2.91,2.91,0,0,1-.26.62,1.91,1.91,0,0,1-.4.5,1.75,1.75,0,0,1-.58.33,2.34,2.34,0,0,1-.77.12,2.26,2.26,0,0,1-1-.19,1.82,1.82,0,0,1-.67-.52,2.18,2.18,0,0,1-.39-.77,3.51,3.51,0,0,1-.13-1,3,3,0,0,1,.15-1,2.43,2.43,0,0,1,.42-.79,2,2,0,0,1,.67-.53,2,2,0,0,1,.9-.19,1.86,1.86,0,0,1,1.51.66,2.91,2.91,0,0,1,.54,1.92Zm3-.45a2.16,2.16,0,0,0-.09-.64,1.51,1.51,0,0,0-.28-.52,1.32,1.32,0,0,0-.46-.35,1.49,1.49,0,0,0-.64-.13,1.42,1.42,0,0,0-.63.13,1.46,1.46,0,0,0-.47.36,1.82,1.82,0,0,0-.31.52,2.4,2.4,0,0,0-.15.63Z"/>
        <path d="M316.47,77.52h-.54V72.85h.54v.87h0a1.56,1.56,0,0,1,.58-.78,1.77,1.77,0,0,1,.94-.22v.58a1.58,1.58,0,0,0-.76.14,1.25,1.25,0,0,0-.47.41,1.64,1.64,0,0,0-.24.62,4,4,0,0,0-.07.74Z"/>
        <path d="M319.17,77.52v-.79h.66v.79Z"/>
        <path d="M321.94,77.52h-.54V72.85h.54v.65a3.42,3.42,0,0,1,.67-.56,1.54,1.54,0,0,1,.83-.22,2.14,2.14,0,0,1,.8.15,1.37,1.37,0,0,1,.62.52,1.18,1.18,0,0,1,.2.52,4.6,4.6,0,0,1,0,.55v3.05h-.54v-3a1.39,1.39,0,0,0-.28-.94,1.19,1.19,0,0,0-.93-.31,1.32,1.32,0,0,0-.46.08,1.46,1.46,0,0,0-.37.2,1.37,1.37,0,0,0-.46.63,1.71,1.71,0,0,0-.1.43q0,.21,0,.45Z"/>
        <path d="M326.74,75.31a2.52,2.52,0,0,0,.1.72,1.72,1.72,0,0,0,.29.58,1.42,1.42,0,0,0,.49.4,1.51,1.51,0,0,0,.68.15,1.49,1.49,0,0,0,.91-.28,1.34,1.34,0,0,0,.5-.79h.6a2.91,2.91,0,0,1-.26.62,1.91,1.91,0,0,1-.4.5,1.75,1.75,0,0,1-.58.33,2.34,2.34,0,0,1-.77.12,2.26,2.26,0,0,1-1-.19,1.82,1.82,0,0,1-.67-.52,2.18,2.18,0,0,1-.39-.77,3.51,3.51,0,0,1-.13-1,3,3,0,0,1,.15-1,2.43,2.43,0,0,1,.42-.79,2,2,0,0,1,.67-.53,2,2,0,0,1,.9-.19,1.86,1.86,0,0,1,1.51.66,2.91,2.91,0,0,1,.54,1.92Zm3-.45a2.16,2.16,0,0,0-.09-.64,1.51,1.51,0,0,0-.28-.52,1.32,1.32,0,0,0-.46-.35,1.49,1.49,0,0,0-.64-.13,1.42,1.42,0,0,0-.63.13,1.46,1.46,0,0,0-.47.36,1.82,1.82,0,0,0-.31.52,2.4,2.4,0,0,0-.15.63Z"/>
        <path d="M333,77.53l-.26.06a1.36,1.36,0,0,1-.36,0,.85.85,0,0,1-.62-.2,1,1,0,0,1-.21-.72V73.3h-.66v-.45h.66v-1.3h.54v1.3H333v.45h-.87V76.5q0,.17,0,.3a.49.49,0,0,0,.05.21.25.25,0,0,0,.14.12.78.78,0,0,0,.27,0l.22,0,.22,0Z"/>
        <path d="M335.95,73.3v-.45h.69v-.74a1.53,1.53,0,0,1,.22-.88.87.87,0,0,1,.77-.32h.23l.22,0v.49a1.36,1.36,0,0,0-.32,0,.59.59,0,0,0-.32.08.45.45,0,0,0-.17.2.9.9,0,0,0-.07.28c0,.1,0,.21,0,.32v.58h.9v.45h-.9v4.21h-.54V73.3Z"/>
        <path d="M340.77,77.64a2.43,2.43,0,0,1-.84-.16,1.89,1.89,0,0,1-.68-.46,2.2,2.2,0,0,1-.46-.76,3.08,3.08,0,0,1-.17-1.07,3.3,3.3,0,0,1,.13-1,2.28,2.28,0,0,1,.41-.78,1.93,1.93,0,0,1,.67-.53,2.17,2.17,0,0,1,.95-.19,2.19,2.19,0,0,1,1,.19,2,2,0,0,1,.67.52,2.16,2.16,0,0,1,.4.78,3.45,3.45,0,0,1,.13,1,3.1,3.1,0,0,1-.15,1,2.26,2.26,0,0,1-.44.77,1.92,1.92,0,0,1-.68.5A2.19,2.19,0,0,1,340.77,77.64Zm1.58-2.46a3.21,3.21,0,0,0-.09-.77,1.85,1.85,0,0,0-.28-.63,1.35,1.35,0,0,0-.49-.42,1.58,1.58,0,0,0-.73-.15,1.48,1.48,0,0,0-.72.17,1.42,1.42,0,0,0-.49.44,2,2,0,0,0-.28.63,3,3,0,0,0-.09.73,2.89,2.89,0,0,0,.1.8,1.87,1.87,0,0,0,.3.63,1.35,1.35,0,0,0,.5.41,1.54,1.54,0,0,0,.68.14,1.48,1.48,0,0,0,.72-.17,1.4,1.4,0,0,0,.49-.45,2,2,0,0,0,.28-.63A2.94,2.94,0,0,0,342.36,75.18Z"/>
        <path d="M344.49,77.52h-.54V72.85h.54v.87h0a1.56,1.56,0,0,1,.58-.78,1.77,1.77,0,0,1,.94-.22v.58a1.58,1.58,0,0,0-.76.14,1.25,1.25,0,0,0-.47.41,1.64,1.64,0,0,0-.24.62,4,4,0,0,0-.07.74Z"/>
        <path d="M349.89,77.52h-.54V72.85h.54v.7h0a1.42,1.42,0,0,1,.59-.62,1.74,1.74,0,0,1,.85-.21,1.81,1.81,0,0,1,.55.07,1.25,1.25,0,0,1,.38.19,1.12,1.12,0,0,1,.26.28,2,2,0,0,1,.18.35,1.57,1.57,0,0,1,.63-.68,1.79,1.79,0,0,1,.9-.22,1.57,1.57,0,0,1,.76.16,1.14,1.14,0,0,1,.44.41,1.61,1.61,0,0,1,.2.59,4.62,4.62,0,0,1,0,.68v2.94h-.54V74.29a1.31,1.31,0,0,0-.21-.79.92.92,0,0,0-.79-.29,1.3,1.3,0,0,0-1.05.53,1,1,0,0,0-.15.27,2.24,2.24,0,0,0-.09.33,2.59,2.59,0,0,0,0,.34c0,.11,0,.22,0,.31v2.51h-.54V74.29a1.32,1.32,0,0,0-.21-.79.92.92,0,0,0-.79-.29,1.3,1.3,0,0,0-1.05.53A1.06,1.06,0,0,0,350,74a2.36,2.36,0,0,0-.09.33,2.76,2.76,0,0,0,0,.34c0,.11,0,.22,0,.31Z"/>
        <path d="M358.77,77.64a2.43,2.43,0,0,1-.84-.16,1.89,1.89,0,0,1-.68-.46,2.2,2.2,0,0,1-.46-.76,3.08,3.08,0,0,1-.17-1.07,3.3,3.3,0,0,1,.13-1,2.28,2.28,0,0,1,.41-.78,1.93,1.93,0,0,1,.67-.53,2.17,2.17,0,0,1,.95-.19,2.19,2.19,0,0,1,1,.19,2,2,0,0,1,.67.52,2.16,2.16,0,0,1,.4.78,3.45,3.45,0,0,1,.13,1,3.1,3.1,0,0,1-.15,1,2.26,2.26,0,0,1-.44.77,1.92,1.92,0,0,1-.68.5A2.19,2.19,0,0,1,358.77,77.64Zm1.58-2.46a3.21,3.21,0,0,0-.09-.77,1.85,1.85,0,0,0-.28-.63,1.35,1.35,0,0,0-.49-.42,1.58,1.58,0,0,0-.73-.15,1.48,1.48,0,0,0-.72.17,1.42,1.42,0,0,0-.49.44,2,2,0,0,0-.28.63,3,3,0,0,0-.09.73,2.89,2.89,0,0,0,.1.8,1.87,1.87,0,0,0,.3.63,1.35,1.35,0,0,0,.5.41,1.54,1.54,0,0,0,.68.14,1.48,1.48,0,0,0,.72-.17,1.4,1.4,0,0,0,.49-.45,2,2,0,0,0,.28-.63A2.94,2.94,0,0,0,360.36,75.18Z"/>
        <path d="M362.49,77.52h-.54V72.85h.54v.87h0a1.56,1.56,0,0,1,.58-.78,1.77,1.77,0,0,1,.94-.22v.58a1.58,1.58,0,0,0-.76.14,1.25,1.25,0,0,0-.47.41,1.64,1.64,0,0,0-.24.62,4,4,0,0,0-.07.74Z"/>
        <path d="M365.25,75.31a2.52,2.52,0,0,0,.1.72,1.72,1.72,0,0,0,.29.58,1.42,1.42,0,0,0,.49.4,1.51,1.51,0,0,0,.68.15,1.49,1.49,0,0,0,.91-.28,1.34,1.34,0,0,0,.5-.79h.6a2.91,2.91,0,0,1-.26.62,1.91,1.91,0,0,1-.4.5,1.75,1.75,0,0,1-.58.33,2.34,2.34,0,0,1-.77.12,2.26,2.26,0,0,1-1-.19,1.82,1.82,0,0,1-.67-.52,2.18,2.18,0,0,1-.39-.77,3.51,3.51,0,0,1-.13-1,3,3,0,0,1,.15-1,2.43,2.43,0,0,1,.42-.79,2,2,0,0,1,.67-.53,2,2,0,0,1,.9-.19,1.86,1.86,0,0,1,1.51.66,2.91,2.91,0,0,1,.54,1.92Zm3-.45a2.16,2.16,0,0,0-.09-.64,1.51,1.51,0,0,0-.28-.52,1.32,1.32,0,0,0-.46-.35,1.49,1.49,0,0,0-.64-.13,1.42,1.42,0,0,0-.63.13,1.46,1.46,0,0,0-.47.36,1.82,1.82,0,0,0-.31.52,2.4,2.4,0,0,0-.15.63Z"/>
        <path d="M372.48,71.84V71h.59v.8Zm0,5.68V72.85H373v4.66Z"/>
        <path d="M375,77.52h-.54V72.85H375v.65a3.42,3.42,0,0,1,.67-.56,1.54,1.54,0,0,1,.83-.22,2.14,2.14,0,0,1,.8.15,1.37,1.37,0,0,1,.62.52,1.18,1.18,0,0,1,.2.52,4.6,4.6,0,0,1,0,.55v3.05h-.54v-3a1.39,1.39,0,0,0-.28-.94,1.19,1.19,0,0,0-.93-.31,1.32,1.32,0,0,0-.46.08,1.46,1.46,0,0,0-.37.2,1.37,1.37,0,0,0-.46.63,1.71,1.71,0,0,0-.1.43q0,.21,0,.45Z"/>
        <path d="M379,73.3v-.45h.69v-.74a1.53,1.53,0,0,1,.22-.88.87.87,0,0,1,.77-.32h.23l.22,0v.49a1.36,1.36,0,0,0-.32,0,.59.59,0,0,0-.32.08.45.45,0,0,0-.17.2.9.9,0,0,0-.07.28c0,.1,0,.21,0,.32v.58h.9v.45h-.9v4.21h-.54V73.3Z"/>
        <path d="M383.78,77.64a2.43,2.43,0,0,1-.84-.16,1.89,1.89,0,0,1-.68-.46,2.2,2.2,0,0,1-.46-.76,3.08,3.08,0,0,1-.17-1.07,3.3,3.3,0,0,1,.13-1,2.28,2.28,0,0,1,.41-.78,1.93,1.93,0,0,1,.67-.53,2.17,2.17,0,0,1,.95-.19,2.19,2.19,0,0,1,1,.19,2,2,0,0,1,.67.52,2.16,2.16,0,0,1,.4.78,3.45,3.45,0,0,1,.13,1,3.1,3.1,0,0,1-.15,1,2.26,2.26,0,0,1-.44.77,1.92,1.92,0,0,1-.68.5A2.19,2.19,0,0,1,383.78,77.64Zm1.58-2.46a3.21,3.21,0,0,0-.09-.77,1.85,1.85,0,0,0-.28-.63,1.35,1.35,0,0,0-.49-.42,1.58,1.58,0,0,0-.73-.15,1.48,1.48,0,0,0-.72.17,1.42,1.42,0,0,0-.49.44,2,2,0,0,0-.28.63,3,3,0,0,0-.09.73,2.89,2.89,0,0,0,.1.8,1.87,1.87,0,0,0,.3.63,1.35,1.35,0,0,0,.5.41,1.54,1.54,0,0,0,.68.14,1.48,1.48,0,0,0,.72-.17,1.4,1.4,0,0,0,.49-.45,2,2,0,0,0,.28-.63A2.94,2.94,0,0,0,385.37,75.18Z"/>
        <path d="M387.5,77.52H387V72.85h.54v.87h0a1.56,1.56,0,0,1,.58-.78,1.77,1.77,0,0,1,.94-.22v.58a1.58,1.58,0,0,0-.76.14,1.25,1.25,0,0,0-.47.41,1.64,1.64,0,0,0-.24.62,4,4,0,0,0-.07.74Z"/>
        <path d="M390.4,77.52h-.54V72.85h.54v.7h0a1.42,1.42,0,0,1,.59-.62,1.74,1.74,0,0,1,.85-.21,1.81,1.81,0,0,1,.55.07,1.25,1.25,0,0,1,.38.19,1.12,1.12,0,0,1,.26.28,2,2,0,0,1,.18.35,1.57,1.57,0,0,1,.63-.68,1.79,1.79,0,0,1,.9-.22,1.57,1.57,0,0,1,.76.16,1.14,1.14,0,0,1,.44.41,1.61,1.61,0,0,1,.2.59,4.62,4.62,0,0,1,0,.68v2.94h-.54V74.29a1.31,1.31,0,0,0-.21-.79.92.92,0,0,0-.79-.29,1.3,1.3,0,0,0-1.05.53,1,1,0,0,0-.15.27,2.24,2.24,0,0,0-.09.33,2.59,2.59,0,0,0,0,.34c0,.11,0,.22,0,.31v2.51h-.54V74.29a1.32,1.32,0,0,0-.21-.79.92.92,0,0,0-.79-.29,1.3,1.3,0,0,0-1.05.53,1.06,1.06,0,0,0-.15.27,2.36,2.36,0,0,0-.09.33,2.76,2.76,0,0,0,0,.34c0,.11,0,.22,0,.31Z"/>
        <path d="M399.57,74.8l.36-.05a1.38,1.38,0,0,0,.35-.1.29.29,0,0,0,.17-.21,1.36,1.36,0,0,0,0-.27.92.92,0,0,0-.27-.68,1.24,1.24,0,0,0-.9-.27,2.46,2.46,0,0,0-.51,0,1.12,1.12,0,0,0-.41.17.94.94,0,0,0-.29.32,1.38,1.38,0,0,0-.15.51h-.55a1.67,1.67,0,0,1,.19-.71,1.43,1.43,0,0,1,.42-.48,1.75,1.75,0,0,1,.59-.27,2.93,2.93,0,0,1,.72-.09,2.77,2.77,0,0,1,.66.08,1.52,1.52,0,0,1,.54.24,1.12,1.12,0,0,1,.36.45,1.61,1.61,0,0,1,.13.68v2.54c0,.21,0,.34.11.4s.23,0,.45,0v.42l-.18.05a.84.84,0,0,1-.24,0l-.24,0a.42.42,0,0,1-.22-.09.52.52,0,0,1-.13-.16.68.68,0,0,1-.07-.21,1.54,1.54,0,0,1,0-.24,2.36,2.36,0,0,1-.78.58,2.3,2.3,0,0,1-1,.2,2.12,2.12,0,0,1-.59-.08,1.42,1.42,0,0,1-.5-.25,1.25,1.25,0,0,1-.34-.42,1.28,1.28,0,0,1-.13-.59q0-1.19,1.63-1.4Zm.91.27a2.66,2.66,0,0,1-.69.19l-.7.07a2,2,0,0,0-1,.28.8.8,0,0,0-.35.71.77.77,0,0,0,.08.37.78.78,0,0,0,.23.26.94.94,0,0,0,.32.15,1.43,1.43,0,0,0,.37,0,2.46,2.46,0,0,0,.63-.08,1.71,1.71,0,0,0,.54-.25,1.27,1.27,0,0,0,.38-.42,1.22,1.22,0,0,0,.14-.61Z"/>
        <path d="M404.07,77.53l-.26.06a1.36,1.36,0,0,1-.36,0,.85.85,0,0,1-.62-.2,1,1,0,0,1-.21-.72V73.3H402v-.45h.66v-1.3h.54v1.3H404v.45h-.87V76.5q0,.17,0,.3a.49.49,0,0,0,.05.21.25.25,0,0,0,.14.12.78.78,0,0,0,.27,0l.22,0,.22,0Z"/>
        <path d="M405,71.84V71h.59v.8Zm0,5.68V72.85h.54v4.66Z"/>
        <path d="M408.78,77.64a2.43,2.43,0,0,1-.84-.16,1.89,1.89,0,0,1-.68-.46,2.2,2.2,0,0,1-.46-.76,3.08,3.08,0,0,1-.17-1.07,3.3,3.3,0,0,1,.13-1,2.28,2.28,0,0,1,.41-.78,1.93,1.93,0,0,1,.67-.53,2.17,2.17,0,0,1,.95-.19,2.19,2.19,0,0,1,1,.19,2,2,0,0,1,.67.52,2.16,2.16,0,0,1,.4.78,3.45,3.45,0,0,1,.13,1,3.1,3.1,0,0,1-.15,1,2.26,2.26,0,0,1-.44.77,1.92,1.92,0,0,1-.68.5A2.19,2.19,0,0,1,408.78,77.64Zm1.58-2.46a3.21,3.21,0,0,0-.09-.77,1.85,1.85,0,0,0-.28-.63,1.35,1.35,0,0,0-.49-.42,1.58,1.58,0,0,0-.73-.15,1.48,1.48,0,0,0-.72.17,1.42,1.42,0,0,0-.49.44,2,2,0,0,0-.28.63,3,3,0,0,0-.09.73,2.89,2.89,0,0,0,.1.8,1.87,1.87,0,0,0,.3.63,1.35,1.35,0,0,0,.5.41,1.54,1.54,0,0,0,.68.14,1.48,1.48,0,0,0,.72-.17,1.4,1.4,0,0,0,.49-.45,2,2,0,0,0,.28-.63A2.94,2.94,0,0,0,410.37,75.18Z"/>
        <path d="M412.47,77.52h-.54V72.85h.54v.65a3.42,3.42,0,0,1,.67-.56,1.54,1.54,0,0,1,.83-.22,2.14,2.14,0,0,1,.8.15,1.37,1.37,0,0,1,.62.52,1.18,1.18,0,0,1,.2.52,4.6,4.6,0,0,1,0,.55v3.05h-.54v-3a1.39,1.39,0,0,0-.28-.94,1.19,1.19,0,0,0-.93-.31,1.32,1.32,0,0,0-.46.08,1.46,1.46,0,0,0-.37.2,1.37,1.37,0,0,0-.46.63,1.71,1.71,0,0,0-.1.43q0,.21,0,.45Z"/>
      </g>
    </g>
  </g>
</svg>
