<?xml version="1.0" encoding="utf-8"?>
<!-- Generator: Adobe Illustrator 20.1.0, SVG Export Plug-In . SVG Version: 6.00 Build 0)  -->
<svg version="1.1" id="Layer_1" xmlns="http://www.w3.org/2000/svg" xmlns:xlink="http://www.w3.org/1999/xlink" x="0px" y="0px"
	 viewBox="0 0 67.1 66.8" style="enable-background:new 0 0 67.1 66.8;" xml:space="preserve">
<style type="text/css">
	.st0{fill:#EA6453;}
</style>
<title>gfti_logo</title>
<g id="Layer_2">
	<g id="Layer_3">
		<g>
			<path class="st0" d="M24.4,31.6c-0.4-0.1-0.8-0.2-1.2-0.1c-0.4,0-0.7,0.1-1,0.3c-0.3,0.2-0.5,0.4-0.7,0.7
				c-0.2,0.3-0.3,0.7-0.4,1.1C21,34,21,34.4,21,34.8v0.2c0,0.4,0.1,0.8,0.2,1.3c0.1,0.4,0.3,0.7,0.5,1c0.2,0.3,0.4,0.5,0.7,0.6
				c0.3,0.1,0.7,0.2,1,0.2c0.4,0,0.8-0.1,1.2-0.4c0.3-0.2,0.5-0.5,0.7-0.8l-0.4-4.6C24.9,31.9,24.7,31.7,24.4,31.6z"/>
			<path class="st0" d="M31.8,10.1C18.9,11,9.3,22.2,10.2,35.1c0.9,12.9,12.1,22.5,25,21.6s22.5-12.1,21.6-25c0,0,0,0,0,0
				C55.8,18.8,44.7,9.2,31.8,10.1z M28.8,39.5c0.1,0.7,0,1.4-0.2,2c-0.2,0.6-0.5,1.1-1,1.6c-0.4,0.4-1,0.8-1.6,1
				c-0.7,0.3-1.4,0.4-2.1,0.5c-0.3,0-0.7,0-1,0c-0.4,0-0.8-0.1-1.1-0.2c-0.4-0.1-0.8-0.2-1.1-0.4c-0.3-0.2-0.6-0.4-0.9-0.7l1.2-1.9
				c0.4,0.3,0.8,0.6,1.3,0.8c0.5,0.2,1,0.2,1.5,0.2c0.7,0,1.3-0.3,1.8-0.7c0.4-0.5,0.6-1.2,0.5-1.8v-0.6c-0.3,0.4-0.6,0.7-1.1,0.9
				c-0.5,0.3-1,0.4-1.5,0.4c-0.7,0.1-1.3-0.1-1.9-0.3c-0.6-0.3-1.1-0.6-1.5-1.1c-0.4-0.5-0.8-1.1-1-1.7c-0.3-0.7-0.4-1.5-0.5-2.2V35
				c-0.1-0.8,0-1.6,0.1-2.3c0.2-0.7,0.4-1.3,0.8-1.9c0.3-0.5,0.8-1,1.3-1.2c0.5-0.3,1.1-0.5,1.7-0.6c0.6-0.1,1.1,0,1.7,0.2
				c0.5,0.2,0.9,0.5,1.3,0.8l0.1-1.1l2.7-0.2l0.8,10.8L28.8,39.5z M36.4,25.9c-0.3,0-0.6,0-0.9,0c-0.4,0-0.8,0.2-1.2,0.5
				c-0.3,0.3-0.4,0.7-0.4,1.2l0.1,1l2.2-0.2l0.2,2.2l-2.2,0.2l0.7,8.8l-3,0.2l-0.7-8.9l-1.6,0.1l-0.2-2.2l1.6-0.1l-0.1-0.9
				c-0.1-0.6,0-1.2,0.2-1.7c0.1-0.5,0.4-0.9,0.7-1.3c0.3-0.4,0.8-0.6,1.2-0.8c0.5-0.2,1.1-0.3,1.7-0.4c0.2,0,0.5,0,0.8,0
				c0.2,0.1,0.5,0,0.8,0.1L36.4,25.9z M44.1,38.8c-0.2,0.1-0.5,0.2-0.8,0.3c-0.3,0.1-0.7,0.1-1,0.2c-0.5,0-0.9,0-1.4,0
				c-0.4,0-0.8-0.2-1-0.5c-0.3-0.3-0.6-0.6-0.8-1c-0.2-0.5-0.3-1-0.3-1.5l-0.4-5.8l-1.7,0.1l-0.2-2.2l1.7-0.1l-0.2-2.7l3-0.2
				l0.2,2.7l1.9-0.1l0.2,2.2l-1.9,0.1l0.4,5.5c0,0.2,0,0.4,0.1,0.6c0.1,0.1,0.2,0.3,0.2,0.4c0.1,0.1,0.2,0.1,0.4,0.1
				c0.2,0,0.3,0,0.5,0h0.5c0.1,0,0.3,0,0.4-0.1L44.1,38.8z M48.8,38.4l-3,0.2l-0.8-11.1l3-0.2L48.8,38.4z M47.8,25.1
				c-0.1,0.2-0.1,0.3-0.3,0.5c-0.1,0.2-0.3,0.3-0.5,0.3c-0.2,0.1-0.4,0.2-0.7,0.2c-0.2,0-0.5,0-0.7-0.1c-0.2,0-0.4-0.1-0.5-0.3
				c-0.1-0.1-0.2-0.3-0.3-0.4c-0.2-0.2-0.3-0.4-0.3-0.6c0-0.4,0.1-0.8,0.4-1.2c0.3-0.3,0.7-0.5,1.2-0.6c0.2,0,0.5,0,0.7,0.1
				c0.2,0,0.4,0.1,0.5,0.3c0.1,0.1,0.2,0.3,0.3,0.4c0.1,0.2,0.2,0.4,0.2,0.6C47.9,24.6,47.9,24.9,47.8,25.1L47.8,25.1z"/>
			<path class="st0" d="M66,30.6c-1.1-1.7-1.4-3.8-1-5.7c0.7-3.1-0.7-6.4-3.4-8.1c-1.8-1-3-2.8-3.4-4.8c-0.7-3.1-3.4-5.5-6.5-5.8
				c-2-0.2-3.8-1.2-5.1-2.8c-2-2.5-5.4-3.5-8.5-2.4c-1.9,0.7-3.9,0.6-5.7-0.3C29.4-0.6,26,0,23.7,2.3c-1.4,1.4-3.3,2.2-5.3,2.3
				c-3.2,0-6.1,2.1-7.1,5.1c-0.6,1.9-2,3.4-3.8,4.3c-2.9,1.4-4.6,4.5-4.2,7.7c0.3,2-0.3,4-1.5,5.6c-2,2.6-2.3,6.1-0.5,8.9
				c1.1,1.7,1.4,3.8,1,5.7c-0.6,3.1,0.7,6.4,3.4,8.1c1.7,1,3,2.7,3.4,4.7c0.7,3.1,3.4,5.5,6.5,5.8c2,0.2,3.8,1.2,5.1,2.8
				c2,2.5,5.4,3.5,8.5,2.4C31,65,33,65.1,34.8,66c2.9,1.4,6.4,0.7,8.6-1.6c1.4-1.4,3.3-2.2,5.3-2.3c3.2,0,6.1-2.1,7.2-5.1
				c0.6-1.9,2-3.5,3.8-4.3c2.9-1.4,4.6-4.5,4.2-7.7c-0.3-2,0.3-4,1.5-5.5C67.5,36.9,67.7,33.4,66,30.6z M35.5,60
				C20.9,61.1,8.1,50.1,7,35.4S16.9,7.9,31.6,6.8C46.3,5.7,59,16.7,60.2,31.4C61.3,46.1,50.3,58.9,35.5,60C35.6,60,35.6,60,35.5,60z
				"/>
		</g>
	</g>
</g>
</svg>
