<svg xmlns="http://www.w3.org/2000/svg" viewBox="0 0 67.12 66.76">
  <defs>
    <style>
      .cls-1 {
        fill: #eb4b2e;
      }
    </style>
  </defs>
  <title>gfti_logo</title>
  <g id="Layer_2" data-name="Layer 2">
    <g id="Layer_3" data-name="Layer 3">
      <g>
        <path class="cls-1" d="M24.39,31.58a2.63,2.63,0,0,0-1.22-.13,1.88,1.88,0,0,0-1,.3,2.13,2.13,0,0,0-.7.73,4.44,4.44,0,0,0-.37,1.08,6.61,6.61,0,0,0-.05,1.28l0,.22a6.61,6.61,0,0,0,.25,1.26,2.63,2.63,0,0,0,.53,1,1.94,1.94,0,0,0,.72.62,2.08,2.08,0,0,0,1,.15,2,2,0,0,0,1.18-.39,1.81,1.81,0,0,0,.69-.81l-.35-4.64A1.28,1.28,0,0,0,24.39,31.58Z"/>
        <path class="cls-1" d="M31.81,10.09a23.36,23.36,0,1,0,25,21.55A23.38,23.38,0,0,0,31.81,10.09ZM28.75,39.54a5.73,5.73,0,0,1-.22,2.05,3.62,3.62,0,0,1-1,1.58,4.43,4.43,0,0,1-1.58,1,6.65,6.65,0,0,1-2.15.46,5,5,0,0,1-1.05,0,6.26,6.26,0,0,1-1.15-.22A4.59,4.59,0,0,1,20.5,44a3.94,3.94,0,0,1-.88-.69l1.21-1.9a4.58,4.58,0,0,0,1.27.81,3.36,3.36,0,0,0,1.52.19,2.6,2.6,0,0,0,1.75-.73,2.44,2.44,0,0,0,.54-1.85l0-.6a2.92,2.92,0,0,1-1.06.91,3.48,3.48,0,0,1-1.55.42,4.07,4.07,0,0,1-1.91-.31,4.36,4.36,0,0,1-1.51-1.09,6.75,6.75,0,0,1-1-1.73,7.12,7.12,0,0,1-.47-2.22l0-.22a7.92,7.92,0,0,1,.13-2.34,6.75,6.75,0,0,1,.76-1.86,3,3,0,0,1,1.34-1.23A3.83,3.83,0,0,1,22.39,29a3.61,3.61,0,0,1,1.67.18,4.58,4.58,0,0,1,1.27.81l.07-1.06,2.7-.2.81,10.78Zm7.64-13.68a3.09,3.09,0,0,0-.9,0,1.76,1.76,0,0,0-1.17.46,1.32,1.32,0,0,0-.37,1.16l.07,1,2.17-.16.16,2.17-2.17.16.66,8.84-3,.22-.67-8.91-1.65.12-.16-2.17L31,28.6l-.07-.9A3.82,3.82,0,0,1,31.13,26a2.67,2.67,0,0,1,.73-1.26,3.59,3.59,0,0,1,1.22-.84,6,6,0,0,1,1.71-.35,2.32,2.32,0,0,1,.75,0c.23.06.53,0,.76.09Zm7.74,12.9c-.22.09-.51.19-.81.29a4,4,0,0,1-1,.15,8.28,8.28,0,0,1-1.36,0,1.47,1.47,0,0,1-1-.53,2.14,2.14,0,0,1-.75-1,4.52,4.52,0,0,1-.34-1.48l-.44-5.84-1.65.12-.16-2.17,1.65-.12-.2-2.7,3-.22.2,2.7,1.87-.14.16,2.17-1.87.14.42,5.54a1.46,1.46,0,0,0,.12.59,1.64,1.64,0,0,0,.25.36.57.57,0,0,0,.39.12c.15,0,.31.05.53,0l.45,0a.56.56,0,0,0,.37-.1Zm4.64-.35-3,.22-.83-11.08,3-.22Zm-.92-13.34a1.15,1.15,0,0,1-.27.47,1.21,1.21,0,0,1-.5.34,2.19,2.19,0,0,1-.66.2,1.12,1.12,0,0,1-.69-.1,1.21,1.21,0,0,1-.55-.26,1.57,1.57,0,0,1-.33-.43.85.85,0,0,1-.27-.58,1.53,1.53,0,0,1,.37-1.16A1.59,1.59,0,0,1,46.11,23a2.19,2.19,0,0,1,.69.1,1.21,1.21,0,0,1,.55.26,1.57,1.57,0,0,1,.33.43,1.77,1.77,0,0,1,.19.59A1.67,1.67,0,0,1,47.85,25.08Z"/>
        <path class="cls-1" d="M66,30.58a7.75,7.75,0,0,1-1-5.72,7.76,7.76,0,0,0-3.39-8.11A7.37,7.37,0,0,1,58.17,12a7.67,7.67,0,0,0-6.54-5.84,7.69,7.69,0,0,1-5.1-2.78A7.64,7.64,0,0,0,38.06,1,7.23,7.23,0,0,1,32.32.71,7.61,7.61,0,0,0,23.7,2.26a7.65,7.65,0,0,1-5.33,2.28,7.65,7.65,0,0,0-7.15,5.13A7.54,7.54,0,0,1,7.41,14a7.51,7.51,0,0,0-4.17,7.69A7.41,7.41,0,0,1,1.7,27.26a7.78,7.78,0,0,0-.54,8.93,7.75,7.75,0,0,1,1,5.72A7.76,7.76,0,0,0,5.58,50,7.37,7.37,0,0,1,9,54.73a7.67,7.67,0,0,0,6.54,5.84,7.69,7.69,0,0,1,5.1,2.78,7.64,7.64,0,0,0,8.46,2.38A7.23,7.23,0,0,1,34.8,66a7.61,7.61,0,0,0,8.62-1.55,7.65,7.65,0,0,1,5.33-2.28,7.65,7.65,0,0,0,7.15-5.13,7.54,7.54,0,0,1,3.82-4.35A7.51,7.51,0,0,0,63.88,45a7.41,7.41,0,0,1,1.54-5.54A7.78,7.78,0,0,0,66,30.58ZM35.55,60A26.66,26.66,0,1,1,60.15,31.39,26.67,26.67,0,0,1,35.55,60Z"/>
      </g>
    </g>
  </g>
</svg>
