<svg xmlns="http://www.w3.org/2000/svg" viewBox="0 0 1061.13 128.41">
  <defs>
    <style>
      .cls-1 {
        fill: #aae0f8;
      }

      .cls-2 {
        fill: #fff02a;
      }
    </style>
  </defs>
  <title>h1</title>
  <g id="Layer_2" data-name="Layer 2">
    <g id="Layer_3" data-name="Layer 3">
      <g>
        <polygon class="cls-1" points="1061.13 87.06 0 128.41 0.09 41.35 1061.13 0 1061.13 87.06"/>
        <g>
          <path class="cls-2" d="M372.2,97.82c-5.5.21-8.33-2.92-8.47-6.48A5.82,5.82,0,0,1,369,85c2.54-.1,3.56,1.32,3.77,2.45.21,1.29-1.07,1.55-1.59.92s-.7-1.32-2.16-1.27c-1.89.07-3.12,1.74-3,4.12.1,2.64,2,4.57,5.68,4.43,7.07-.28,11.56-11.26,16-20.94a96.25,96.25,0,0,1,4.57-8.93c-4.53-1.12-7.8-4.61-11.2-4.48-4.91.19-7.09,4-7,6.59a3,3,0,0,0,3.21,3.23,3.69,3.69,0,0,0,3.65-3.49,1,1,0,1,1,2,.3,5.69,5.69,0,0,1-5.58,5.3c-2.64.1-5.3-1.52-5.45-5.3-.16-4.1,3.55-8.84,10-9.09,5-.19,7.87,3.53,11.59,4.84,2.35-3.55,4.64-5.75,7-5.84a2.33,2.33,0,0,1,2.69,2.38c.1,2.64-2.7,5.73-7.71,5.92h-.27a6,6,0,0,1-.3.61,95.23,95.23,0,0,0-3.87,8.91A6.6,6.6,0,0,1,394.23,78,16.18,16.18,0,0,1,400,76.42c1-1.87,1.81-3.53,2.91-5.79,4.77-9.43,9.16-13.22,14.5-13.43s8.54,2.91,8.69,6.63a5.81,5.81,0,0,1-5.21,6.31c-2.7.11-3.84-1.47-4.15-2.43a1,1,0,0,1,1.91-.83A2.07,2.07,0,0,0,420.81,68c1.51-.06,3.13-1.37,3-4.06s-2.24-4.78-6.07-4.63c-6.37.25-9.39,7.18-13.15,14.89L394.48,95.33a1.09,1.09,0,0,1-1.11.69l-2.1.08c-.65,0-.82-.34-.47-1.06,2.9-6,4.8-10,8.07-16.31a15.29,15.29,0,0,0-4.59,1.53c-1,.52-1.06.47-1.64-.53a4.79,4.79,0,0,0-2.41-2.23c-1,2.36-2.14,4.78-3.59,7.71C382.1,93.92,378,97.6,372.2,97.82Zm29-37.23a.74.74,0,0,0-.84-.78c-1.46.06-2.89,2.22-4,4.32h.05C398.71,64,401.24,62.32,401.17,60.59Z"/>
          <path class="cls-2" d="M416.34,87.89c-1.54,3.57-5.33,7.56-8.78,7.69-4.53.18-6.32-4.13-4.12-8.59,2.3-4.63,6-6.56,8.76-6.66s4.75,1.33,4.87,4.4a7.52,7.52,0,0,1-.16,1.41,6.5,6.5,0,0,0,1.08,0,7.75,7.75,0,0,0,5.6-3.19c.46-.61.89-.68,1.18-.26a1.87,1.87,0,0,1-.36,2,8.83,8.83,0,0,1-6.84,3.29C417.26,88,416.83,87.92,416.34,87.89Zm-2.31-1-.34-.37a2.64,2.64,0,0,1-.61-1.71,2.67,2.67,0,0,1,1-2.31A1.16,1.16,0,0,0,413,82c-2.81.11-6,4.5-6.95,7.51-.67,2.24-.11,4.06,1.94,4S412.92,90.07,414,86.84Z"/>
          <path class="cls-2" d="M428.72,90.81c-1.8,2.34-3.83,4.2-5.88,4.28-3,.12-4.43-2.8-3-5.94,1-2.25,3.82-7.39,4-7.83a1.19,1.19,0,0,1,1.11-.69l2.1-.08c.65,0,.77.35.42,1.12s-3.27,6.18-4.47,8.61c-.9,1.87-.11,2.65.91,2.61.86,0,2-1,3.81-3.34a49.73,49.73,0,0,0,5-8.57,1.11,1.11,0,0,1,1.11-.69l2.1-.08c.65,0,.77.4.42,1.12s-3,5.68-4.1,8.59c-.74,1.87.32,2.58,1.29,2.54,1.19,0,2.66-1.13,4.35-3.52a16,16,0,0,0,2.06-4,5.38,5.38,0,0,1-.61-4.62,1.9,1.9,0,0,1,1.9-1.21c.87,0,1.6.86,1.62,2.58a13.7,13.7,0,0,1-.54,2.94,3.21,3.21,0,0,0,1.8.36c2.64-.1,4.18-2.16,4.86-2.94.46-.61.84-.63,1.13-.21.29.58.15,1-.36,1.8a7.49,7.49,0,0,1-5.93,3.2,4.48,4.48,0,0,1-2.23-.4c-1.79,4-5.36,8.15-8.76,8.28A3.8,3.8,0,0,1,428.72,90.81Z"/>
          <path class="cls-2" d="M465.89,91.74a8.73,8.73,0,0,1-4.41,1.85c-3.83.15-3.51-4.13-.27-4.26a18.49,18.49,0,0,1,4.56.58c2.49-2.75,5.59-7.73,10-17.84,3.12-7.31,6.16-12.4,9.18-15.44a12.9,12.9,0,0,0-4-.38,17.78,17.78,0,0,0-13.53,7.88c-3.53,5.11-3.43,9.05-1.06,9s4-3.4,4.57-4.88c.75-1.54,2.45-.85,1.86.68-1,2.69-3.38,6.24-6.62,6.31-1.83.07-3.88-1-4-4.76-.17-4.26,5.24-15.44,18.24-16a18.36,18.36,0,0,1,6,.74,10.16,10.16,0,0,1,3.71-2c1.5-.38,1.77,1.07.54,1.49a7.38,7.38,0,0,0-2.38,1.34c4.3,2.26,6.43,6.83,6.63,12.17a26.69,26.69,0,0,1-1.42,9.46c-3.2,9.31-9.4,15.34-17,15.63A30,30,0,0,1,465.89,91.74ZM491.7,66.41c-.18-4.59-1.92-7.6-4.78-9.05-2.33,2.63-4.42,7.3-7.82,15.71-4.63,11.42-8.87,14.94-11.48,17.31a29,29,0,0,0,7.65.84C485.52,90.81,492,75,491.7,66.41Z"/>
          <path class="cls-2" d="M508,84.32c-1.54,3.57-5.33,7.56-8.78,7.69-4.53.18-6.32-4.13-4.12-8.6,2.3-4.63,6-6.56,8.76-6.66s4.75,1.33,4.87,4.4a7.52,7.52,0,0,1-.16,1.41,6.6,6.6,0,0,0,1.08,0,7.75,7.75,0,0,0,5.6-3.19c.46-.61.89-.68,1.18-.26a1.87,1.87,0,0,1-.36,2,8.83,8.83,0,0,1-6.84,3.29C508.94,84.39,508.51,84.35,508,84.32Zm-2.31-1-.34-.37a2.63,2.63,0,0,1-.61-1.71,2.67,2.67,0,0,1,1-2.31,1.16,1.16,0,0,0-1.1-.44c-2.8.11-6,4.5-6.95,7.51-.67,2.24-.11,4.06,1.94,4S504.59,86.5,505.71,83.27Z"/>
          <path class="cls-2" d="M512.17,82.75c2.1-4.35,5.69-6.54,8.77-6.66,1.94-.08,3,1,3.16,2.09a4,4,0,0,1-1,3C521,83.54,517.41,84,515.25,84a13.33,13.33,0,0,0-.38,1.37c-.41,1.91.21,3.94,2.91,3.83,4.48-.17,9.36-6.63,11.44-10.17.56-.89,1-.8,1.29-.32s.2,1.07-.31,1.85c-1.46,2.65-7.1,10.54-13,10.77C512.13,91.5,510.08,87.15,512.17,82.75Zm4.08-.64a8.4,8.4,0,0,0,5.17-1.88c1.1-1,.84-2.09,0-2.05a4.71,4.71,0,0,0-3,1.52A13.16,13.16,0,0,0,516.25,82.1Z"/>
          <path class="cls-2" d="M525.07,85.11a8,8,0,0,1,.72-1,61.7,61.7,0,0,0,4.69-7.26c1.38-2.05,2.16-2.73,3.07-2.93.7-.14,1.79.09,1.77,1,0,1-1.15,1.07-1,1.77,0,0,1.19,2.82,1.8,4.69.92,2.77.8,5.21-.92,6.84a14.13,14.13,0,0,0,5-4.79c.61-.89,1-.79,1.28-.37.35.58.26,1.12-.25,1.9a13.55,13.55,0,0,1-10.89,6.21C524.29,91.36,523.9,87,525.07,85.11Zm3.3-1.26a1.47,1.47,0,0,1-.28,2.44c-1.26.86-.42,3.1,1.36,3,1.51-.06,2.66-1.19,3.35-2.89,1.13-2.91-.3-6.37-.76-8.4C531.17,79.47,529.75,81.79,528.37,83.85Z"/>
          <path class="cls-2" d="M554.29,76.24a1.19,1.19,0,0,1,1.11-.69l2.1-.08c.65,0,.77.35.42,1.07-.6,1.27-3.33,6.07-4.69,8.67-.9,1.76.1,2.48.91,2.45,3.67-.14,8.13-6.48,10.2-10,.56-.89,1-.8,1.28-.32s.2,1.07-.31,1.85c-1.46,2.65-6.29,10.51-11.58,10.72-3.4.13-4.89-3.38-3.18-6.85C551.8,80.5,554.09,76.68,554.29,76.24Zm5.19-9.77a2,2,0,0,1,2.13,2,2,2,0,0,1-2,2.13,2.1,2.1,0,0,1-2.19-2A2.06,2.06,0,0,1,559.47,66.48Z"/>
          <path class="cls-2" d="M561.1,83.27l4.14-7.46-1,0c-.92,0-1.15-.28-.95-.77.35-.66.68-.57,1.65-.6l1.19,0,2.22-3.92a1.14,1.14,0,0,1,1.11-.69l1.94-.08c.65,0,.82.35.47,1.06-.15.33-.91,1.71-1.92,3.48l2.75-.11c.65,0,1.24,0,1.05.66s-.83.84-1.7.88c-.38,0-1.62.06-2.92.06l-4.39,8c-1.15,2.32-.4,3.69,1.06,3.63,1.73-.07,4.31-1.68,6.71-5.23.61-.89,1-.8,1.28-.37a1.71,1.71,0,0,1-.25,1.9c-1.68,2.55-5,5.65-8.58,5.79C560.75,89.61,559.54,86.2,561.1,83.27Z"/>
          <path class="cls-2" d="M600.07,50.19c8.25-.32,8.42,9.51,5.58,18.26-1,3.12-3.17,8.66-4.71,10.88,2.94-3.47,7-10.05,9.91-14.65C619.42,51.49,622,52.15,622.41,52a.87.87,0,0,1,.76,1.43,12.35,12.35,0,0,0-2.23,3.87c-2.2,5.81-3.34,16.83-5.57,22a127.63,127.63,0,0,0,7.34-11.26c5.42-9.34,9.36-16.31,15.89-16.56,5.34-.21,6.66,4.5,4.73,7.7a6.45,6.45,0,0,1-6.26,2.89,1.09,1.09,0,0,1-1.12-1c0-.48.29-1,1.15-1,2.11,0,3.49-.62,4.35-2.06,1.27-2.16.2-4.66-2.77-4.54-5.07.2-8.51,6.22-14,15.52-3.8,6.42-9.36,15-13.88,18.16-.89.63-2.2.46-1.55-.91,1.75-3.53,3.09-8.12,4.53-14,1.3-5.51,1.89-9.86,3.6-13.11C614,62.62,604,82.63,593.4,88.44a.84.84,0,0,1-1.15-.33c-.36-1,1.06-.64,6.24-10.46,4.53-8.55,9.26-25.81,1.33-25.51-4.32.17-8.56,5.09-10.44,9.32-1.73,4.12-1.63,8.06,1,8,2.32-.09,5.06-3.28,7.08-9.68.57-2,2.6-1.24,2,.57-2.45,7.77-5.62,11.08-9.61,11.24-4.75.18-6.37-5.37-2.8-12.16C589.75,54.33,594.62,50.41,600.07,50.19Z"/>
          <path class="cls-2" d="M624.3,78.38c2.36-4.74,6.12-6.56,8.82-6.67s4.7,1.33,4.82,4.41a6.35,6.35,0,0,1-.16,1.46c2.32-.09,4.49-2.61,5.71-4.6-.17-.1-.23-.26-.34-.37-.62-.73-.26-2.42,1-3.55s3.09.15,1.67,2.69c-.05.06-.05,0,1.66-.28,2.42-.37,4.72-.83,4.88,1.7.13,2-3,5.52-4.61,8-1.12,1.67-.7,2.89.65,2.84,3.62-.14,8.07-6.47,10.15-10,.56-.89,1-.8,1.28-.32s.2,1.07-.25,1.85c-1.46,2.65-6.35,10.52-11.63,10.72-3.56.14-4.95-3.54-3.18-6.63a32.31,32.31,0,0,1,3.59-4.9c.88-1.12.69-1.75-.87-1.53a9.44,9.44,0,0,1-2.31.25c-1.45,3-4.21,5.62-7.28,5.85l-.7,0c-1.54,3.57-5.27,7.56-8.72,7.69C623.77,87.15,622.15,82.79,624.3,78.38Zm10.59-.14a2.83,2.83,0,0,1-.95-2.07,2.67,2.67,0,0,1,1-2.31,1.07,1.07,0,0,0-1-.45c-3,.12-6.29,4.89-7,7.57-.62,2.24-.11,4,1.94,3.92S633.76,81.41,634.88,78.24Z"/>
          <path class="cls-2" d="M674.12,78.22c.62-.83,1.05-.74,1.29-.32.35.58.26,1.12-.25,1.9-1.63,2.5-4.75,5.75-8.36,5.95-2.37.09-3.93-1-4.17-2.87-.1-1.24.76-2.57,1.26-3.83.88-2.3-.34-3.07-2-2.35-1.81.77-3,2.44-5.51,7.08a8.88,8.88,0,0,1-.76,1.38,1.14,1.14,0,0,1-1.11.69l-1.24,0c-.65,0-.83-.4-.47-1.06,4.18-7.78,8.09-15.56,12.33-23.34a1.11,1.11,0,0,1,1.11-.64l1.73-.07c.65,0,.82.29.42,1.07s-4.8,8.56-7,12.65c3.25-1.21,5.17-4.53,8.19-4.64,2.16-.08,3,1.88,2.33,3a1.34,1.34,0,0,1-2,.29c-.39-.31-.57-.79-1.17-.77s-1.59.82-3.06,2a7.38,7.38,0,0,1-1.53,1c1.46.05,2.72.38,3.2,1.71.37,1.07-.53,3.1-1,4.26-.69,1.59,0,2.38,1,2.34C669.08,83.55,671.72,81.77,674.12,78.22Z"/>
          <path class="cls-2" d="M678.94,81.28a2.08,2.08,0,0,1,.16,4.16,2.08,2.08,0,1,1-.16-4.16Zm22-28c.37,9.61-13.23,14.13-18.5,24.55-.6,1.21-2.19.73-1.86-.52,2-8.35,16.76-16.54,16.42-25.12-.1-2.48-1.84-4.31-5-4.18-3.94.15-7.71,3.27-9.69,7.84-1.13,2.8-.58,4.62.88,4.56s2.86-1.62,4.38-5.57c.64-1.65,2.44-1.12,1.92.63-1.58,5.3-4.38,6.87-6.37,7-2.91.11-4.33-2.86-3.17-6.42,1.44-4.54,6-9.69,12.37-9.94C698.25,45.77,700.78,49.57,700.92,53.24Z"/>
        </g>
        <g>
          <path d="M369.09,94.94c-5.5.21-8.33-2.92-8.47-6.48a5.82,5.82,0,0,1,5.27-6.31c2.54-.1,3.56,1.32,3.77,2.45.21,1.29-1.07,1.55-1.59.92s-.7-1.32-2.16-1.27c-1.89.07-3.12,1.74-3,4.12.1,2.64,2,4.57,5.68,4.43,7.07-.28,11.56-11.26,16-20.94a96.25,96.25,0,0,1,4.57-8.93c-4.53-1.12-7.8-4.61-11.2-4.48-4.91.19-7.09,4-7,6.59a3,3,0,0,0,3.21,3.23,3.69,3.69,0,0,0,3.65-3.49,1,1,0,1,1,2,.3,5.69,5.69,0,0,1-5.58,5.3c-2.64.1-5.3-1.52-5.45-5.3-.16-4.1,3.55-8.84,10-9.09,5-.19,7.87,3.53,11.59,4.84,2.35-3.55,4.64-5.75,7-5.84a2.33,2.33,0,0,1,2.69,2.38c.1,2.64-2.7,5.73-7.71,5.92h-.27a6,6,0,0,1-.3.61,95.23,95.23,0,0,0-3.87,8.91,6.6,6.6,0,0,1,3.17,2.31,16.18,16.18,0,0,1,5.78-1.58c1-1.87,1.81-3.53,2.91-5.79,4.77-9.43,9.16-13.22,14.5-13.43S422.85,57.23,423,61a5.81,5.81,0,0,1-5.21,6.31c-2.7.11-3.84-1.47-4.15-2.43a1,1,0,0,1,1.91-.83,2.07,2.07,0,0,0,2.15,1.11c1.51-.06,3.13-1.37,3-4.06s-2.24-4.78-6.07-4.63c-6.37.25-9.39,7.18-13.15,14.89L391.36,92.45a1.09,1.09,0,0,1-1.11.69l-2.1.08c-.65,0-.82-.34-.47-1.06,2.9-6,4.8-10,8.07-16.31a15.29,15.29,0,0,0-4.59,1.53c-1,.52-1.06.47-1.64-.53a4.79,4.79,0,0,0-2.41-2.23c-1,2.36-2.14,4.78-3.59,7.71C379,91,374.91,94.71,369.09,94.94Zm29-37.23a.74.74,0,0,0-.84-.78c-1.46.06-2.89,2.22-4,4.32h.05C395.6,61.16,398.13,59.44,398.06,57.71Z"/>
          <path d="M413.23,85c-1.54,3.57-5.33,7.56-8.78,7.69-4.53.18-6.32-4.13-4.12-8.59,2.3-4.63,6-6.56,8.76-6.66s4.75,1.33,4.87,4.4a7.52,7.52,0,0,1-.16,1.41,6.5,6.5,0,0,0,1.08,0,7.75,7.75,0,0,0,5.6-3.19c.46-.61.89-.68,1.18-.26a1.87,1.87,0,0,1-.36,2,8.83,8.83,0,0,1-6.84,3.29C414.15,85.08,413.72,85,413.23,85Zm-2.31-1-.34-.37a2.64,2.64,0,0,1-.61-1.71,2.67,2.67,0,0,1,1-2.31,1.16,1.16,0,0,0-1.1-.44c-2.81.11-6,4.5-6.95,7.51-.67,2.24-.11,4.06,1.94,4S409.8,87.19,410.92,84Z"/>
          <path d="M425.61,87.93c-1.8,2.34-3.83,4.2-5.88,4.28-3,.12-4.43-2.8-3-5.94,1-2.25,3.82-7.39,4-7.83a1.19,1.19,0,0,1,1.11-.69l2.1-.08c.65,0,.77.35.42,1.12s-3.27,6.18-4.47,8.61c-.9,1.87-.11,2.65.91,2.61.86,0,2-1,3.81-3.34a49.73,49.73,0,0,0,5-8.57,1.11,1.11,0,0,1,1.11-.69l2.1-.08c.65,0,.77.4.42,1.12s-3,5.68-4.1,8.59c-.74,1.87.32,2.58,1.29,2.54,1.19,0,2.66-1.13,4.35-3.52a16,16,0,0,0,2.06-4,5.38,5.38,0,0,1-.61-4.62,1.9,1.9,0,0,1,1.9-1.21c.87,0,1.6.86,1.62,2.58a13.7,13.7,0,0,1-.54,2.94,3.21,3.21,0,0,0,1.8.36c2.64-.1,4.18-2.16,4.86-2.94.46-.61.84-.63,1.13-.21.29.58.15,1-.36,1.8a7.49,7.49,0,0,1-5.93,3.2,4.48,4.48,0,0,1-2.23-.4c-1.79,4-5.36,8.15-8.76,8.28A3.8,3.8,0,0,1,425.61,87.93Z"/>
          <path d="M462.77,88.86a8.73,8.73,0,0,1-4.41,1.85c-3.83.15-3.51-4.13-.27-4.26a18.49,18.49,0,0,1,4.56.58c2.49-2.75,5.59-7.73,10-17.84,3.12-7.31,6.16-12.4,9.18-15.44a12.9,12.9,0,0,0-4-.38,17.78,17.78,0,0,0-13.53,7.88c-3.53,5.11-3.43,9.05-1.06,9s4-3.4,4.57-4.88c.75-1.54,2.45-.85,1.86.68-1,2.69-3.38,6.24-6.62,6.31-1.83.07-3.88-1-4-4.76-.17-4.26,5.24-15.44,18.24-16a18.36,18.36,0,0,1,6,.74,10.16,10.16,0,0,1,3.71-2c1.5-.38,1.77,1.07.54,1.49a7.38,7.38,0,0,0-2.38,1.34c4.3,2.26,6.43,6.83,6.63,12.17a26.69,26.69,0,0,1-1.42,9.46c-3.2,9.31-9.4,15.34-17,15.63A30,30,0,0,1,462.77,88.86Zm25.82-25.33c-.18-4.59-1.92-7.6-4.78-9.05-2.33,2.63-4.42,7.3-7.82,15.71-4.63,11.42-8.87,14.94-11.48,17.31a29,29,0,0,0,7.65.84C482.41,87.93,488.92,72.11,488.59,63.53Z"/>
          <path d="M504.9,81.43c-1.54,3.57-5.33,7.56-8.78,7.69-4.53.18-6.32-4.13-4.12-8.6,2.3-4.63,6-6.56,8.76-6.66s4.75,1.33,4.87,4.4a7.52,7.52,0,0,1-.16,1.41,6.6,6.6,0,0,0,1.08,0,7.75,7.75,0,0,0,5.6-3.19c.46-.61.89-.68,1.18-.26a1.87,1.87,0,0,1-.36,2,8.83,8.83,0,0,1-6.84,3.29C505.83,81.51,505.39,81.47,504.9,81.43Zm-2.31-1-.34-.37a2.63,2.63,0,0,1-.61-1.71,2.67,2.67,0,0,1,1-2.31,1.16,1.16,0,0,0-1.1-.44c-2.8.11-6,4.5-6.95,7.51-.67,2.24-.11,4.06,1.94,4S501.48,83.62,502.59,80.39Z"/>
          <path d="M509.06,79.87c2.1-4.35,5.69-6.54,8.77-6.66,1.94-.08,3,1,3.16,2.09a4,4,0,0,1-1,3c-2.07,2.35-5.67,2.82-7.83,2.79a13.33,13.33,0,0,0-.38,1.37c-.41,1.91.21,3.94,2.91,3.83,4.48-.17,9.36-6.63,11.44-10.17.56-.89,1-.8,1.29-.32s.2,1.07-.31,1.85c-1.46,2.65-7.1,10.54-13,10.77C509,88.62,507,84.27,509.06,79.87Zm4.08-.64a8.4,8.4,0,0,0,5.17-1.88c1.1-1,.84-2.09,0-2.05a4.71,4.71,0,0,0-3,1.52A13.16,13.16,0,0,0,513.14,79.22Z"/>
          <path d="M522,82.23a8,8,0,0,1,.72-1A61.7,61.7,0,0,0,527.36,74c1.38-2.05,2.16-2.73,3.07-2.93.7-.14,1.79.09,1.77,1,0,1-1.15,1.07-1,1.77,0,0,1.19,2.82,1.8,4.69.92,2.77.8,5.21-.92,6.84a14.13,14.13,0,0,0,5-4.79c.61-.89,1-.79,1.28-.37.35.58.26,1.12-.25,1.9a13.55,13.55,0,0,1-10.89,6.21C521.17,88.47,520.79,84.11,522,82.23Zm3.3-1.26a1.47,1.47,0,0,1-.28,2.44c-1.26.86-.42,3.1,1.36,3,1.51-.06,2.66-1.19,3.35-2.89,1.13-2.91-.3-6.37-.76-8.4C528.06,76.59,526.64,78.91,525.26,81Z"/>
          <path d="M551.17,73.36a1.19,1.19,0,0,1,1.11-.69l2.1-.08c.65,0,.77.35.42,1.07-.6,1.27-3.33,6.07-4.69,8.67-.9,1.76.1,2.48.91,2.45,3.67-.14,8.13-6.48,10.2-10,.56-.89,1-.8,1.28-.32s.2,1.07-.31,1.85c-1.46,2.65-6.29,10.51-11.58,10.72-3.4.13-4.89-3.38-3.18-6.85C548.69,77.62,551,73.8,551.17,73.36Zm5.19-9.77a2,2,0,0,1,2.13,2,2,2,0,0,1-2,2.13,2.1,2.1,0,0,1-2.19-2A2.06,2.06,0,0,1,556.36,63.59Z"/>
          <path d="M558,80.39l4.14-7.46-1,0c-.92,0-1.15-.28-.95-.77.35-.66.68-.57,1.65-.6l1.19,0,2.22-3.92a1.14,1.14,0,0,1,1.11-.69l1.94-.08c.65,0,.82.35.47,1.06-.15.33-.91,1.71-1.92,3.48l2.75-.11c.65,0,1.24,0,1.05.66s-.83.84-1.7.88c-.38,0-1.62.06-2.92.06l-4.39,8c-1.15,2.32-.4,3.69,1.06,3.63,1.73-.07,4.31-1.68,6.71-5.23.61-.89,1-.8,1.28-.37a1.71,1.71,0,0,1-.25,1.9c-1.68,2.55-5,5.65-8.58,5.79C557.64,86.73,556.42,83.32,558,80.39Z"/>
          <path d="M597,47.31c8.25-.32,8.42,9.51,5.58,18.26-1,3.12-3.17,8.66-4.71,10.88,2.94-3.47,7-10.05,9.91-14.65,8.57-13.2,11.13-12.54,11.56-12.66a.87.87,0,0,1,.76,1.43,12.35,12.35,0,0,0-2.23,3.87c-2.2,5.81-3.34,16.83-5.57,22a127.63,127.63,0,0,0,7.34-11.26C625,55.84,629,48.88,635.49,48.62c5.34-.21,6.66,4.5,4.73,7.7A6.45,6.45,0,0,1,634,59.22a1.09,1.09,0,0,1-1.12-1c0-.48.29-1,1.15-1,2.11,0,3.49-.62,4.35-2.06,1.27-2.16.2-4.66-2.77-4.54-5.07.2-8.51,6.22-14,15.52-3.8,6.42-9.36,15-13.88,18.16-.89.63-2.2.46-1.55-.91,1.75-3.53,3.09-8.12,4.53-14,1.3-5.51,1.89-9.86,3.6-13.11-3.32,3.43-13.3,23.43-23.93,29.25a.84.84,0,0,1-1.15-.33c-.36-1,1.06-.64,6.24-10.46,4.53-8.55,9.26-25.81,1.33-25.51-4.32.17-8.56,5.09-10.44,9.32-1.73,4.12-1.63,8.06,1,8,2.32-.09,5.06-3.28,7.08-9.68.57-2,2.6-1.24,2,.57-2.45,7.77-5.62,11.08-9.61,11.24-4.75.18-6.37-5.37-2.8-12.16C586.63,51.44,591.51,47.53,597,47.31Z"/>
          <path d="M621.18,75.5c2.36-4.74,6.12-6.56,8.82-6.67s4.7,1.33,4.82,4.41a6.35,6.35,0,0,1-.16,1.46c2.32-.09,4.49-2.61,5.71-4.6-.17-.1-.23-.26-.34-.37-.62-.73-.26-2.42,1-3.55s3.09.15,1.67,2.69c-.05.06-.05,0,1.66-.28,2.42-.37,4.72-.83,4.88,1.7.13,2-3,5.52-4.61,8-1.12,1.67-.7,2.89.65,2.84,3.62-.14,8.07-6.47,10.15-10,.56-.89,1-.8,1.28-.32s.2,1.07-.25,1.85c-1.46,2.65-6.35,10.52-11.63,10.72-3.56.14-4.95-3.54-3.18-6.63a32.31,32.31,0,0,1,3.59-4.9c.88-1.12.69-1.75-.87-1.53a9.44,9.44,0,0,1-2.31.25c-1.45,3-4.21,5.62-7.28,5.85l-.7,0c-1.54,3.57-5.27,7.56-8.72,7.69C620.66,84.27,619,79.9,621.18,75.5Zm10.59-.14a2.83,2.83,0,0,1-.95-2.07,2.67,2.67,0,0,1,1-2.31,1.07,1.07,0,0,0-1-.45c-3,.12-6.29,4.89-7,7.57-.62,2.24-.11,4,1.94,3.92S630.65,78.53,631.77,75.36Z"/>
          <path d="M671,75.34c.62-.83,1.05-.74,1.29-.32.35.58.26,1.12-.25,1.9-1.63,2.5-4.75,5.75-8.36,5.95-2.37.09-3.93-1-4.17-2.87-.1-1.24.76-2.57,1.26-3.83.88-2.3-.34-3.07-2-2.35-1.81.77-3,2.44-5.51,7.08a8.88,8.88,0,0,1-.76,1.38,1.14,1.14,0,0,1-1.11.69l-1.24,0c-.65,0-.83-.4-.47-1.06,4.18-7.78,8.09-15.56,12.33-23.34a1.11,1.11,0,0,1,1.11-.64l1.73-.07c.65,0,.82.29.42,1.07s-4.8,8.56-7,12.65c3.25-1.21,5.17-4.53,8.19-4.64,2.16-.08,3,1.88,2.33,3a1.34,1.34,0,0,1-2,.29c-.39-.31-.57-.79-1.17-.77s-1.59.82-3.06,2a7.38,7.38,0,0,1-1.53,1c1.46.05,2.72.38,3.2,1.71.37,1.07-.53,3.1-1,4.26-.69,1.59,0,2.38,1,2.34C666,80.67,668.6,78.89,671,75.34Z"/>
          <path d="M675.82,78.39a2.08,2.08,0,0,1,.16,4.16,2.08,2.08,0,1,1-.16-4.16Zm22-28c.37,9.61-13.23,14.13-18.5,24.55-.6,1.21-2.19.73-1.86-.52,2-8.35,16.76-16.54,16.42-25.12-.1-2.48-1.84-4.31-5-4.18-3.94.15-7.71,3.27-9.69,7.84-1.13,2.8-.58,4.62.88,4.56s2.86-1.62,4.38-5.57c.64-1.65,2.44-1.12,1.92.63-1.58,5.3-4.38,6.87-6.37,7-2.91.11-4.33-2.86-3.17-6.42,1.44-4.54,6-9.69,12.37-9.94C695.14,42.89,697.66,46.69,697.81,50.36Z"/>
        </g>
      </g>
    </g>
  </g>
</svg>
