<svg xmlns="http://www.w3.org/2000/svg" viewBox="0 0 482 53.58">
  <defs>
    <style>
      .cls-1 {
        fill: #eb4b2e;
      }

      .cls-2 {
        fill: #fff;
      }
    </style>
  </defs>
  <title>h10_small</title>
  <g id="Layer_2" data-name="Layer 2">
    <g id="Layer_4" data-name="Layer 4">
      <rect class="cls-1" width="482" height="53.58"/>
      <g>
        <path class="cls-2" d="M78.67,21.15a2.19,2.19,0,0,1,1.12-2c.86-.47,1.48.54.83,1a1.19,1.19,0,0,0-.54,1c0,.68.58,1.19,1.58,1.19a2.22,2.22,0,0,0,2.16-2.45c0-1.58-1.3-2.66-3.1-2.66a4.29,4.29,0,0,0-4.28,4.54c0,3.92,2.66,8,2.66,12.31a7.71,7.71,0,0,1-8,7.63c-4.43,0-7.16-2.81-7.16-6.52a6.12,6.12,0,0,1,5.87-6.33c2.38,0,4.07,1.48,4.07,3.49a3.35,3.35,0,0,1-2.7,3.38c-1.12.25-1.4-1.08-.4-1.3a2,2,0,0,0,1.62-2.09c0-1.19-.83-2.16-2.59-2.16-2.52,0-4.43,2.16-4.43,5,0,3.24,2.38,5.18,5.69,5.18s5.54-2.41,5.54-5.9c0-4.32-2.52-7.67-2.52-12.24a6.31,6.31,0,0,1,6.26-6.33c3.53,0,4.82,2.23,4.82,4a3.49,3.49,0,0,1-3.53,3.71C79.82,23.6,78.67,22.49,78.67,21.15Z"/>
        <path class="cls-2" d="M81,35.41c1.51-2.84,4-4.21,6-4.21,1.3,0,2,.72,2.05,1.48a2.66,2.66,0,0,1-.76,2c-1.44,1.51-3.85,1.73-5.29,1.66a8.89,8.89,0,0,0-.29.9c-.32,1.26,0,2.63,1.84,2.63,3,0,6.41-4.17,7.88-6.48.4-.58.68-.5.86-.18s.11.72-.25,1.22c-1,1.73-5,6.84-8.93,6.84C80.76,41.24,79.5,38.29,81,35.41Zm2.74-.32A5.6,5.6,0,0,0,87.24,34c.76-.65.61-1.37,0-1.37a3.14,3.14,0,0,0-2,.94A8.74,8.74,0,0,0,83.75,35.08Z"/>
        <path class="cls-2" d="M94.87,28.93c2.23-3.82,4-6.23,6.23-6.23,1.84,0,2.7,1.94.68,4.43a20.85,20.85,0,0,1-6,4.9c-1.15,2-2.45,4.32-3,5.4-.83,1.55-.36,2.45.58,2.45,2.09,0,5.79-4.46,7.31-6.51.43-.54.68-.5.86-.18a1.1,1.1,0,0,1-.25,1.22c-.94,1.3-5,6.84-8.5,6.84-2.66,0-3.17-2.74-1.87-5.15C91.81,34.29,94.73,29.18,94.87,28.93ZM99,28.32c3.46-3.28,2.88-4.43,2.09-4.43s-1.94,2-4.21,6.12A23.08,23.08,0,0,0,99,28.32Z"/>
        <path class="cls-2" d="M98.72,35.41c1.51-2.84,4-4.21,6-4.21,1.3,0,2,.72,2.05,1.48a2.66,2.66,0,0,1-.76,2c-1.44,1.51-3.85,1.73-5.29,1.66a8.89,8.89,0,0,0-.29.9c-.32,1.26,0,2.63,1.84,2.63,3,0,6.41-4.17,7.88-6.48.4-.58.68-.5.86-.18s.11.72-.25,1.22c-1,1.73-5,6.84-8.93,6.84C98.47,41.24,97.21,38.29,98.72,35.41Zm2.74-.32A5.6,5.6,0,0,0,105,34c.76-.65.61-1.37,0-1.37a3.14,3.14,0,0,0-2,.94A8.74,8.74,0,0,0,101.46,35.08Z"/>
        <path class="cls-2" d="M108.34,35.41c1.73-3.09,4.21-4.21,6-4.21,2.63,0,2.45,2.3,1.58,3.28-.65.72-1.44.83-1.83.47s-.29-1,.43-1.33.65-1,.07-1a2.85,2.85,0,0,0-1.94.86,7.73,7.73,0,0,0-2.63,3.74A1.91,1.91,0,0,0,112,39.83c3,0,6.41-4.17,7.88-6.48.4-.58.68-.5.86-.18s.07.72-.25,1.22c-1,1.73-5,6.84-8.93,6.84S107,37.93,108.34,35.41Z"/>
        <path class="cls-2" d="M117.52,37l3-4.86h-.68c-.61,0-.76-.22-.61-.54s.47-.36,1.12-.36h.79l1.58-2.56a.76.76,0,0,1,.76-.43h1.3c.43,0,.54.25.29.72-.11.22-.65,1.12-1.37,2.27h1.84c.43,0,.83,0,.68.47s-.58.54-1.15.54c-.25,0-1.08,0-1.94,0l-3.13,5.18c-.83,1.51-.36,2.45.61,2.45,1.15,0,2.92-1,4.61-3.31.43-.58.68-.5.86-.22a1.14,1.14,0,0,1-.22,1.26c-1.19,1.66-3.46,3.64-5.87,3.64C117.12,41.24,116.4,38.94,117.52,37Z"/>
        <path class="cls-2" d="M140.66,32.78l.4-.61a.8.8,0,0,1,.76-.43h1.4c.4,0,.5.25.25.76s-2.37,4.07-3.28,5.62c-.65,1.15,0,1.69.61,1.69,1.15,0,2.88-1,4.61-3.35.43-.54.68-.47.86-.18a1.16,1.16,0,0,1-.25,1.26c-1.15,1.62-3.28,3.71-5.69,3.71a2.42,2.42,0,0,1-2.45-2,4.3,4.3,0,0,1-3.2,2c-2.81,0-3.89-3.28-2.3-6.08,1.87-3.38,4.25-4.1,5.9-4.1A2.26,2.26,0,0,1,140.66,32.78Zm-1.22,1.87c.58-1.15.11-2.16-.83-2.16a3.14,3.14,0,0,0-2.12,1,8,8,0,0,0-2.34,3.71c-.32,1.26-.07,2.59,1,2.59C136.56,39.8,138.11,36.88,139.44,34.65Z"/>
        <path class="cls-2" d="M157.58,40.2a5.82,5.82,0,0,1-3,1.12c-2.56,0-2.23-2.84-.07-2.84a12.32,12.32,0,0,1,3,.5c1.73-1.76,3.92-5,7.09-11.63,2.27-4.79,4.43-8.1,6.51-10a8.59,8.59,0,0,0-2.63-.36,11.85,11.85,0,0,0-9.21,4.9c-2.48,3.31-2.52,5.94-.94,5.94s2.74-2.16,3.17-3.13,1.66-.5,1.22.5c-.72,1.76-2.41,4.07-4.57,4-1.22,0-2.56-.79-2.56-3.28,0-2.84,3.89-10.15,12.56-10.15a12.21,12.21,0,0,1,4,.65,6.78,6.78,0,0,1,2.52-1.22c1-.22,1.15.76.32,1a5,5,0,0,0-1.62.83c2.81,1.62,4.1,4.72,4.1,8.28a17.79,17.79,0,0,1-1.19,6.26c-2.38,6.12-6.66,10-11.7,10A20,20,0,0,1,157.58,40.2ZM175.44,24c0-3.06-1.08-5.11-3-6.16-1.62,1.69-3.13,4.75-5.62,10.26-3.38,7.49-6.3,9.72-8.1,11.23a19.29,19.29,0,0,0,5.08.76C170.68,40.09,175.44,29.72,175.44,24Z"/>
        <path class="cls-2" d="M177.2,35.41c1.51-2.84,4-4.21,6-4.21,1.3,0,2,.72,2.05,1.48a2.66,2.66,0,0,1-.76,2c-1.44,1.51-3.85,1.73-5.29,1.66a8.89,8.89,0,0,0-.29.9c-.32,1.26,0,2.63,1.84,2.63,3,0,6.41-4.17,7.88-6.48.4-.58.68-.5.86-.18s.11.72-.25,1.22c-1,1.73-5,6.84-8.93,6.84C177,41.24,175.69,38.29,177.2,35.41Zm2.74-.32A5.6,5.6,0,0,0,183.43,34c.76-.65.61-1.37,0-1.37a3.14,3.14,0,0,0-2,.94A8.74,8.74,0,0,0,179.94,35.08Z"/>
        <path class="cls-2" d="M186,37a41.21,41.21,0,0,0,3.56-5c1-1.33,1.51-1.76,2.12-1.87s1.19.11,1.15.68-.79.68-.68,1.15c0,0,.72,1.91,1.08,3.17a4.55,4.55,0,0,1-.4,4.1,14,14,0,0,0,3.06-2.48,19.5,19.5,0,0,0,2.74-3.35c.4-.61.68-.5.86-.22s.14.72-.18,1.26c-2.3,3.42-6,7.06-10.19,7.06S184.83,38.25,186,37Zm2.56,3.28a2.65,2.65,0,0,0,2.3-1.84c.83-1.91,0-4.25-.29-5.62-.61.94-1.62,2.45-2.59,3.78a1,1,0,0,1-.25,1.62C186.81,38.72,187.32,40.23,188.51,40.23Z"/>
        <path class="cls-2" d="M199.23,32.17a.79.79,0,0,1,.76-.43h1.4c.43,0,.5.25.25.72-.43.83-2.38,4-3.35,5.65-.65,1.15,0,1.66.54,1.66,2.45,0,5.58-4.1,7.06-6.41.4-.58.68-.5.86-.18s.11.72-.25,1.22c-1,1.73-4.46,6.84-8,6.84-2.27,0-3.17-2.38-1.94-4.64C197.47,34.94,199.09,32.46,199.23,32.17Zm3.71-6.37a1.32,1.32,0,0,1,1.37,1.37,1.34,1.34,0,0,1-1.37,1.37,1.4,1.4,0,0,1-1.4-1.37A1.37,1.37,0,0,1,202.94,25.8Z"/>
        <path class="cls-2" d="M210,42.39c-2.05,3.82-4.75,7.88-8.13,7.88a2.34,2.34,0,0,1-2.52-2.2c0-2.05,1.55-3.28,3.92-4.25,1.76-.76,3.31-1.3,4.79-1.91.54-.86,1.08-1.87,1.55-2.81A4.9,4.9,0,0,1,206,41.28c-2.37,0-3.13-3.24-1.55-6.08,1.87-3.38,4.25-4.1,5.9-4.1a2.24,2.24,0,0,1,2.23,1.69l.32-.61a.76.76,0,0,1,.76-.43h1.37c.43,0,.54.25.29.76l-3.13,5.62-1.3,2.56a19.43,19.43,0,0,0,7.78-7.31c.4-.58.68-.47.86-.18s.07.72-.25,1.26a19.44,19.44,0,0,1-9.29,8ZM207,43.65c-2.48,1-4.57,1.73-5.58,2.66-1.19,1.12-.9,2.59.5,2.59S205.25,46.64,207,43.65Zm4.54-9.11c.54-1.08.07-2.05-.86-2.05a3.14,3.14,0,0,0-2.12,1,8.23,8.23,0,0,0-2.41,3.71c-.36,1.37-.36,2.52.58,2.52C208.49,39.73,210.21,36.81,211.58,34.54Z"/>
        <path class="cls-2" d="M216.41,41.28h-1c-.43,0-.54-.25-.25-.72,1.4-2.52,2.74-5.76,4.18-8.6a.76.76,0,0,1,.76-.43h1.4c.4,0,.4.29.11.79s-.86,1.55-1.4,2.52c1.91-2.09,3.85-3.35,5.33-3.35a1.86,1.86,0,0,1,2.09,1.87c0,1.62-1.91,3.56-3,5-.83,1.08-.25,1.66.29,1.66.86,0,2.77-1,4.46-3.35.43-.54.68-.5.86-.18a1,1,0,0,1-.22,1.22c-1.15,1.66-3.2,3.67-5.62,3.67-1.58,0-2.45-.83-2.45-2,0-1.8,1.3-2.84,2.74-4.82.61-.79.54-1.4-.11-1.4-1,0-3.82,2.16-5.47,4.46a31.92,31.92,0,0,0-2,3.28A.71.71,0,0,1,216.41,41.28Z"/>
        <path class="cls-2" d="M238.11,31.74h1.08l.07-.18c2.12-3.85,4.46-8.86,7.42-8.86,1.87,0,2.77,2.05.68,4.43a24.7,24.7,0,0,1-5.62,4.61h2.66c.43,0,.83,0,.68.5a1.1,1.1,0,0,1-1.15.68c-.32,0-1.76,0-3.2,0-2.66,5.08-5.62,10.91-7.38,14.29a.79.79,0,0,1-.76.54h-1.37c-.43,0-.5-.32-.22-.83,1.51-2.66,4.75-8.86,7.56-14.07h-.94c-.61,0-.76-.4-.61-.72S237.5,31.74,238.11,31.74Zm3.92-1.4c1-.79,2.16-1.8,2.84-2.41,3.2-3,2.41-4,1.73-4S244.77,25.33,242,30.33Z"/>
        <path class="cls-2" d="M249.67,39.76c2.45,0,5.58-4.1,7.05-6.41.4-.58.68-.5.86-.18s.07.72-.25,1.22c-1,1.73-4.46,6.84-8,6.84-2.38,0-3.35-2.48-2.09-4.5a21.59,21.59,0,0,1,2.52-3.17c.58-.72.5-1.15-.54-1a5.42,5.42,0,0,1-1.44.11,28.18,28.18,0,0,1-4.9,7.24A2.86,2.86,0,0,1,240.78,41c-.76,0-1-.72-.14-1.33a19.88,19.88,0,0,0,6-7.42l-.14-.14a1.9,1.9,0,0,1,.61-2.34c.9-.72,2.16,0,1.19,1.84,0,0,0,0,1.12-.14,1.62-.18,3.17-.43,3.2,1.26,0,1.33-2.09,3.6-3.24,5.18C248.55,38.94,248.77,39.76,249.67,39.76Z"/>
        <path class="cls-2" d="M263.53,36.34c-1.12,2.34-3.74,4.9-6,4.9-3,0-4.1-2.92-2.52-5.83s4.18-4.21,6-4.21a2.82,2.82,0,0,1,3.13,3.06,5,5,0,0,1-.14.94,4.34,4.34,0,0,0,.72,0,5.16,5.16,0,0,0,3.82-2c.32-.4.61-.43.79-.14A1.24,1.24,0,0,1,269,34.4a5.89,5.89,0,0,1-4.64,2C264.14,36.42,263.85,36.38,263.53,36.34ZM262,35.59l-.22-.25a1.75,1.75,0,0,1-.36-1.15,1.78,1.78,0,0,1,.76-1.51.78.78,0,0,0-.72-.32c-1.87,0-4.14,2.84-4.82,4.82-.5,1.48-.18,2.7,1.19,2.7S261.19,37.71,262,35.59Z"/>
        <path class="cls-2" d="M270.19,33.93c1.51-1.58,2.88-2.48,4.21-2.48a1.78,1.78,0,0,1,2,1.76,2.24,2.24,0,0,1-.14.83c1.55-1.73,2.92-2.59,4.28-2.59a1.87,1.87,0,0,1,2.09,1.91c0,1.58-1.84,3.53-2.84,4.93-.83,1.08-.4,1.69.22,1.69.94,0,2.77-1,4.5-3.35.43-.54.68-.5.86-.18a1.1,1.1,0,0,1-.25,1.22c-1.15,1.66-3.17,3.67-5.58,3.67-1.58,0-2.41-.86-2.41-2.05,0-1.66,1.19-2.84,2.63-4.79.61-.79.36-1.51-.29-1.51-1,0-2.16,1.12-3.46,2.7a41.61,41.61,0,0,0-3.24,4.86v0l-.14.22a.76.76,0,0,1-.76.43h-1.19c-.43,0-.5-.29-.25-.76,1.73-2.92,2.16-3.74,3.28-5.9.43-.86.29-1.51-.36-1.51-1,0-2.41,1.19-3.74,2.81a16.07,16.07,0,0,0-2.12,3.31l-.83,1.69a.71.71,0,0,1-.76.43h-1c-.43,0-.54-.25-.25-.72,1.4-2.52,2.74-5.76,4.18-8.6a.76.76,0,0,1,.76-.43H271c.4,0,.4.29.11.79Z"/>
        <path class="cls-2" d="M293.7,32.67h-.9c-.58,0-.76-.22-.58-.58s.47-.36,1.08-.36h1l1.62-2.56a.8.8,0,0,1,.76-.43H298c.43,0,.54.22.25.72l-1.33,2.27h1.62c.4,0,.79,0,.65.5s-.58.54-1.12.54h-1.8c-1.12,1.8-2.34,3.82-2.81,4.64-.9,1.66-.36,2.45.61,2.45,2.09,0,5.8-4.32,7.27-6.51.4-.58.72-.5.86-.18A1.05,1.05,0,0,1,302,34.4c-1,1.37-5.08,6.84-8.6,6.84-2.81,0-3.64-2.2-2.16-4.68Z"/>
        <path class="cls-2" d="M298.3,41.17h-.83c-.43,0-.54-.25-.29-.72,3.06-5.4,5.69-9.93,8.75-15.19a.76.76,0,0,1,.76-.43h1.37c.43,0,.5.25.25.72s-3.38,5.36-5,8.1c1.4-1.26,2.84-2.16,4.21-2.16a1.86,1.86,0,0,1,2.09,1.87c0,1.62-1.91,3.56-2.92,5-.83,1.08-.4,1.66.14,1.66,2.41,0,5.69-4.28,7.16-6.62.4-.58.72-.47.86-.18s.11.72-.22,1.26c-1.08,1.69-4.61,6.91-8.13,6.91-1.58,0-2.48-.83-2.48-2,0-1.8,1.26-2.84,2.7-4.82.58-.79.54-1.4-.14-1.4-.94,0-3.67,2-5.44,4.46-1.3,1.84-2,3.13-2,3.13A.84.84,0,0,1,298.3,41.17Z"/>
        <path class="cls-2" d="M321.13,36.45c.43-.54.72-.47.86-.18s.14.76-.22,1.26c-1.15,1.62-3.6,3.71-6.48,3.71-3.38,0-4.68-3-3.17-5.83s4-4.21,6-4.21c1.3,0,2,.72,2.05,1.48a2.66,2.66,0,0,1-.76,2c-1.44,1.51-3.85,1.73-5.26,1.66a4,4,0,0,0-.32.9c-.32,1.26,0,2.63,1.84,2.63C317.35,39.83,319.43,38.75,321.13,36.45ZM315,35.08A5.59,5.59,0,0,0,318.39,34c.72-.65.61-1.37,0-1.37a3.3,3.3,0,0,0-2,.94A8.39,8.39,0,0,0,315,35.08Z"/>
        <path class="cls-2" d="M334.23,41.71c-3.6,0-5.4-2.16-5.4-4.5a3.85,3.85,0,0,1,3.67-4c1.76,0,2.52,1,2.63,1.76s-.76,1-1.08.61-.47-1-1.51-1a2.36,2.36,0,0,0-2.23,2.63c0,1.76,1.22,3.06,3.56,3.06,5,0,7.7-7.31,11.19-13.46,1.91-3.31,4.43-7.13,7.16-9.39a7.33,7.33,0,0,0-2.7-.47,11.75,11.75,0,0,0-9.9,4.93c-2.45,3.28-2.45,6-.94,6,1.69,0,2.74-2.27,3.2-3.17.5-1.08,1.62-.54,1.22.47-.76,1.76-2.41,4-4.61,4-1.22,0-2.77-.79-2.77-3.28,0-3.42,4.82-10.15,13.53-10.15a10.12,10.12,0,0,1,4.07.79,6.79,6.79,0,0,1,2-.94c.86-.25,1.19.36.32.9a9.16,9.16,0,0,0-1.12.79,7,7,0,0,1,2.84,5.94,9.91,9.91,0,0,1-.76,3.89c-1.44,3.49-4.72,8.57-5.44,10.4s.14,2.27.83,2.27c2.05,0,5.29-4.14,6.77-6.44.4-.58.76-.47.94-.18s.11.72-.25,1.26c-1,1.69-4.28,6.8-8.06,6.8-1.91,0-3.78-1.84-2.05-5.36,1-2,2.3-4,3.49-6.08a8.72,8.72,0,0,0-3.56,1c-.58.29-.65.29-1.08-.43a3.22,3.22,0,0,0-1.66-1.58C343.19,35.37,340.49,41.71,334.23,41.71Zm19.4-13.35,1-1.94a8.58,8.58,0,0,0,1-4,5,5,0,0,0-2-4.25,38,38,0,0,0-6.41,9.32,4.34,4.34,0,0,1,2.23,1.76A10.64,10.64,0,0,1,353.63,28.35Z"/>
        <path class="cls-2" d="M359.61,32.13l-.07-.11c-.4-.58-.11-1.58.76-2.3s2.05.18,1,1.84l1.12-.14c1.62-.18,3.17-.43,3.2,1.26,0,1.33-2.09,3.6-3.24,5.18-.79,1.08-.58,1.91.32,1.91,2.45,0,5.58-4.1,7.05-6.41.4-.58.68-.5.86-.18s.07.72-.25,1.22c-1,1.73-4.46,6.84-8,6.84-2.38,0-3.24-2.52-2-4.5A30.36,30.36,0,0,1,363,33.57c.61-.72.47-1.19-.65-1a7.37,7.37,0,0,1-1.66.11,33.24,33.24,0,0,1-2.16,3.2c-.43.5-.79.36-1,.25s-.29-.47,0-.86A32.76,32.76,0,0,0,359.61,32.13Z"/>
        <path class="cls-2" d="M368,35.41c1.73-3.09,4.21-4.21,6-4.21,2.63,0,2.45,2.3,1.58,3.28-.65.72-1.44.83-1.83.47s-.29-1,.43-1.33.65-1,.07-1a2.85,2.85,0,0,0-1.94.86,7.73,7.73,0,0,0-2.63,3.74,1.91,1.91,0,0,0,1.91,2.63c3,0,6.41-4.17,7.88-6.48.4-.58.68-.5.86-.18s.07.72-.25,1.22c-1,1.73-5,6.84-8.93,6.84S366.59,37.93,368,35.41Z"/>
        <path class="cls-2" d="M376.42,41.17h-.83c-.43,0-.54-.25-.29-.72,3.06-5.4,5.69-9.93,8.75-15.19a.76.76,0,0,1,.76-.43h1.37c.43,0,.5.25.25.72s-3.38,5.36-5,8.1c1.4-1.26,2.84-2.16,4.21-2.16a1.86,1.86,0,0,1,2.09,1.87c0,1.62-1.91,3.56-2.92,5-.83,1.08-.4,1.66.14,1.66,2.41,0,5.69-4.28,7.16-6.62.4-.58.72-.47.86-.18s.11.72-.22,1.26c-1.08,1.69-4.61,6.91-8.13,6.91-1.58,0-2.48-.83-2.48-2,0-1.8,1.26-2.84,2.7-4.82.58-.79.54-1.4-.14-1.4-.94,0-3.67,2-5.44,4.46-1.3,1.84-2,3.13-2,3.13A.84.84,0,0,1,376.42,41.17Z"/>
        <path class="cls-2" d="M392.73,32.17a.79.79,0,0,1,.76-.43h1.4c.43,0,.5.25.25.72-.43.83-2.38,4-3.35,5.65-.65,1.15,0,1.66.54,1.66,2.45,0,5.58-4.1,7.06-6.41.4-.58.68-.5.86-.18s.11.72-.25,1.22c-1,1.73-4.46,6.84-8,6.84-2.27,0-3.17-2.38-1.94-4.64C391,34.94,392.58,32.46,392.73,32.17Zm3.71-6.37a1.32,1.32,0,0,1,1.37,1.37,1.34,1.34,0,0,1-1.37,1.37,1.4,1.4,0,0,1-1.4-1.37A1.37,1.37,0,0,1,396.44,25.8Z"/>
        <path class="cls-2" d="M405.69,36c-1.3,2.63-3.78,5.29-6,5.29a2.63,2.63,0,0,1-2.27-4c.72-1.48,2.41-4.82,2.56-5.11a.8.8,0,0,1,.76-.43h1.4c.43,0,.5.25.25.76s-2.12,3.71-3,5.62c-.54,1.22.14,1.73.79,1.73s1.8-.68,3-2.23A10.7,10.7,0,0,0,404.64,35a3.58,3.58,0,0,1-.29-3.1,1.27,1.27,0,0,1,1.3-.76c.58,0,1,.61,1,1.76a9.16,9.16,0,0,1-.43,1.94,2.14,2.14,0,0,0,1.19.29,4.62,4.62,0,0,0,3.31-1.84c.32-.4.58-.4.76-.11s.07.68-.29,1.19a5,5,0,0,1-4,2A3,3,0,0,1,405.69,36Z"/>
        <path class="cls-2" d="M417.71,36.45c.43-.54.72-.47.86-.18s.14.76-.22,1.26c-1.15,1.62-3.6,3.71-6.48,3.71-3.38,0-4.68-3-3.17-5.83s4-4.21,6-4.21c1.3,0,2,.72,2.05,1.48a2.66,2.66,0,0,1-.76,2c-1.44,1.51-3.85,1.73-5.26,1.66a4,4,0,0,0-.32.9c-.32,1.26,0,2.63,1.84,2.63C413.93,39.83,416,38.75,417.71,36.45Zm-6.12-1.37A5.59,5.59,0,0,0,415,34c.72-.65.61-1.37,0-1.37a3.3,3.3,0,0,0-2,.94A8.39,8.39,0,0,0,411.59,35.08Z"/>
      </g>
    </g>
  </g>
</svg>
