<svg xmlns="http://www.w3.org/2000/svg" viewBox="0 0 1061.13 53.58">
  <defs>
    <style>
      .cls-1 {
        fill: #ea6453;
      }

      .cls-2 {
        fill: #fff;
      }
    </style>
  </defs>
  <title>h11</title>
  <g id="Layer_2" data-name="Layer 2">
    <g id="Layer_4" data-name="Layer 4">
      <rect class="cls-1" width="1061.13" height="53.58"/>
      <g>
        <path class="cls-2" d="M491.94,21.15a2.19,2.19,0,0,1,1.12-2c.86-.47,1.48.54.83,1a1.19,1.19,0,0,0-.54,1c0,.68.58,1.19,1.58,1.19a2.22,2.22,0,0,0,2.16-2.45c0-1.58-1.3-2.66-3.1-2.66a4.29,4.29,0,0,0-4.28,4.54c0,3.92,2.66,8,2.66,12.31a7.71,7.71,0,0,1-8,7.63c-4.43,0-7.16-2.81-7.16-6.52a6.12,6.12,0,0,1,5.87-6.33c2.38,0,4.07,1.48,4.07,3.49a3.35,3.35,0,0,1-2.7,3.38c-1.12.25-1.4-1.08-.4-1.3a2,2,0,0,0,1.62-2.09c0-1.19-.83-2.16-2.59-2.16-2.52,0-4.43,2.16-4.43,5,0,3.24,2.38,5.18,5.69,5.18s5.54-2.41,5.54-5.9c0-4.32-2.52-7.67-2.52-12.24a6.31,6.31,0,0,1,6.26-6.33c3.53,0,4.82,2.23,4.82,4A3.49,3.49,0,0,1,495,23.6C493.1,23.6,491.94,22.49,491.94,21.15Z"/>
        <path class="cls-2" d="M502.53,32.78l.4-.61a.8.8,0,0,1,.76-.43H505c.43,0,.54.25.25.76s-2.41,4.07-3.28,5.62c-.68,1.15-.07,1.69.47,1.69,2.66,0,5.4-3.67,7.09-6.44.36-.58.68-.47.86-.18s.11.72-.22,1.26c-1.08,1.69-4.5,6.8-8,6.8a2.42,2.42,0,0,1-2.45-2,4.24,4.24,0,0,1-3.17,2c-2.84,0-3.67-3.2-2.16-6.08,1.69-3.24,4.1-4.1,5.65-4.1A2.36,2.36,0,0,1,502.53,32.78Zm-1.12,1.87c.58-1.15,0-2.16-.9-2.16a3.34,3.34,0,0,0-2.23,1,8,8,0,0,0-2.34,3.71c-.32,1.26,0,2.59,1.08,2.59C498.43,39.8,499.79,37.68,501.41,34.65Z"/>
        <path class="cls-2" d="M515.92,36c-1.3,2.63-3.78,5.29-6,5.29a2.63,2.63,0,0,1-2.27-4c.72-1.48,2.41-4.82,2.56-5.11a.8.8,0,0,1,.76-.43h1.4c.43,0,.5.25.25.76s-2.12,3.71-3,5.62c-.54,1.22.14,1.73.79,1.73s1.8-.68,3-2.23A10.7,10.7,0,0,0,514.88,35a3.58,3.58,0,0,1-.29-3.1,1.27,1.27,0,0,1,1.3-.76c.58,0,1,.61,1,1.76a9.16,9.16,0,0,1-.43,1.94,2.14,2.14,0,0,0,1.19.29A4.62,4.62,0,0,0,521,33.28c.32-.4.58-.4.76-.11s.07.68-.29,1.19a5,5,0,0,1-4,2A3,3,0,0,1,515.92,36Z"/>
        <path class="cls-2" d="M527.94,36.45c.43-.54.72-.47.86-.18s.14.76-.22,1.26c-1.15,1.62-3.6,3.71-6.48,3.71-3.38,0-4.68-3-3.17-5.83s4-4.21,6-4.21c1.3,0,2,.72,2.05,1.48a2.66,2.66,0,0,1-.76,2c-1.44,1.51-3.85,1.73-5.26,1.66a4,4,0,0,0-.32.9c-.32,1.26,0,2.63,1.84,2.63C524.17,39.84,526.25,38.76,527.94,36.45Zm-6.12-1.37A5.59,5.59,0,0,0,525.21,34c.72-.65.61-1.37,0-1.37a3.3,3.3,0,0,0-2,.94A8.39,8.39,0,0,0,521.83,35.08Z"/>
        <path class="cls-2" d="M552.86,17.45c-3.74,0-9,4.57-11.92,11.41s-1.48,10.94,1.8,10.94c3.49,0,6.95-3.67,9.18-6.44.47-.54.68-.5.86-.18s.11.72-.22,1.22c-1.08,1.73-5.69,6.84-10.08,6.84-4.93,0-7.09-5.44-4.28-12.31,3.1-7.38,9.54-12.85,14.47-12.85s4.39,6.26.47,7.38c-1.48.43-2.2-.36-1.94-1.12s1.12-.68,1.91-.76C555.2,21.41,555.77,17.45,552.86,17.45Z"/>
        <path class="cls-2" d="M555.48,39.26a4.24,4.24,0,0,1-3.17,2c-2.84,0-3.67-3.2-2.16-6.08,1.69-3.24,4.1-4.1,5.65-4.1a2.36,2.36,0,0,1,2.45,1.69l.4-.61a.8.8,0,0,1,.76-.43h1.37c.43,0,.54.25.25.76s-2.41,4.07-3.28,5.62c-.68,1.15-.07,1.69.47,1.69,1.91,0,4.64-4.64,6.66-7.67l-.07-.07c-.4-.5-.11-1.62.76-2.3s2.05.14,1.08,1.8c0,0,0,0,1.12-.14,1.58-.18,3.17-.43,3.17,1.26,0,1.37-2.09,3.6-3.24,5.18-.79,1.08-.58,1.91.32,1.91,2.45,0,5.58-4.1,7.05-6.41.4-.58.68-.47.86-.18s.07.72-.25,1.26c-1,1.69-4.46,6.8-8,6.8-2.38,0-3.24-2.48-2-4.46a25,25,0,0,1,2.52-3.2c.58-.68.5-1.15-.54-1a8.28,8.28,0,0,1-1.76.11l-1,1.58c-1,1.73-4.39,7-7.24,7A2.2,2.2,0,0,1,555.48,39.26Zm1.66-4.61c.58-1.15,0-2.16-.9-2.16a3.34,3.34,0,0,0-2.23,1,8,8,0,0,0-2.34,3.71c-.32,1.26,0,2.59,1.08,2.59C554.15,39.8,555.52,37.68,557.14,34.65Z"/>
        <path class="cls-2" d="M581.55,32.67c2-3.28,4.46-7.2,4.57-7.38a.76.76,0,0,1,.76-.43h1.37c.43,0,.54.22.25.72s-6.48,11-7.38,12.53c-.65,1.15,0,1.69.61,1.69,1.15,0,2.88-1,4.61-3.35.43-.54.68-.47.86-.18a1.17,1.17,0,0,1-.25,1.26c-1.15,1.62-3.28,3.71-5.69,3.71a2.42,2.42,0,0,1-2.45-2,4.3,4.3,0,0,1-3.2,2c-2.81,0-3.89-3.28-2.3-6.08,1.87-3.38,4.25-4.1,5.9-4.1A2.18,2.18,0,0,1,581.55,32.67Zm-1.19,2c.58-1.15.11-2.16-.83-2.16a3.14,3.14,0,0,0-2.12,1,8,8,0,0,0-2.34,3.71c-.32,1.26-.07,2.59,1,2.59C577.48,39.8,579,36.88,580.36,34.65Z"/>
      </g>
    </g>
  </g>
</svg>
