<svg xmlns="http://www.w3.org/2000/svg" viewBox="0 0 1061.13 128.41">
  <title>h12</title>
  <g id="Layer_2" data-name="Layer 2">
    <g id="Layer_3" data-name="Layer 3">
      <g>
        <polygon points="1061.13 87.06 0 128.41 0.09 41.35 1061.13 0 1061.13 87.06" style="fill: #aae0f8"/>
        <g>
          <path d="M487.68,93.15c-5.4.21-8.22-2.92-8.36-6.43a5.77,5.77,0,0,1,5.27-6.26c2.64-.1,3.84,1.36,4,2.49.27,1.34-1.07,1.61-1.58,1s-.76-1.43-2.32-1.37c-1.94.08-3.28,1.75-3.19,4.07.1,2.64,2,4.52,5.52,4.38,7.5-.29,11.12-11.4,16-20.83,2.67-5.08,6.22-10.94,10.19-14.5a11,11,0,0,0-4.07-.54,17.63,17.63,0,0,0-14.55,8c-3.48,5.05-3.32,9.1-1.05,9,2.54-.1,4-3.56,4.62-4.94.69-1.65,2.4-.9,1.86.63-1,2.69-3.38,6.18-6.67,6.31-1.83.07-4.2-1-4.35-4.75-.2-5.13,6.64-15.5,19.7-16a15.16,15.16,0,0,1,6.14,1,10.19,10.19,0,0,1,3-1.52c1.28-.43,1.8.47.54,1.33a13.76,13.76,0,0,0-1.63,1.25,10.53,10.53,0,0,1,4.61,8.74,14.83,14.83,0,0,1-.91,5.87c-2,5.32-6.57,13.12-7.54,15.91s.35,3.39,1.37,3.35c3.08-.12,7.69-6.51,9.77-10.05.56-.89,1.11-.75,1.39-.33.29.58.2,1.07-.3,1.9-1.47,2.6-6,10.45-11.69,10.67-2.86.11-5.77-2.53-3.39-7.92,1.39-3.08,3.22-6.12,4.88-9.32a13.07,13.07,0,0,0-5.29,1.67c-.85.47-1,.47-1.64-.58A4.83,4.83,0,0,0,505.43,73C500.74,83.13,497.06,92.78,487.68,93.15ZM516,72l1.34-3a12.87,12.87,0,0,0,1.22-6,7.56,7.56,0,0,0-3.22-6.25c-3.43,3.59-6.56,9.06-9.06,14.35a6.5,6.5,0,0,1,3.45,2.51A16,16,0,0,1,516,72Z" style="fill: #fff02a"/>
          <path d="M535.5,83.34c-1.58,3.79-5.6,7.51-10.13,7.69-4,.16-5.72-3.94-3.45-8,3.48-6.35,4.59-8.45,9.09-16.3a1.14,1.14,0,0,1,1.11-.69l2.11-.08c.65,0,.82.35.47,1.06s-3.61,5.92-6,9.91a6,6,0,0,1,3.46-1.38c3.13-.12,4,1.84,4.06,4.27a6.38,6.38,0,0,1-.21,1.68l.54,0a7.75,7.75,0,0,0,5.61-3.19c.46-.61.89-.68,1.18-.26a1.86,1.86,0,0,1-.36,2,8.75,8.75,0,0,1-6.84,3.29Zm-9.61,5.72c2.48-.1,5.44-3.13,6.76-6.8a2.92,2.92,0,0,1,.1-4.49,1.94,1.94,0,0,0-1.2-.33c-1.08,0-4,1.45-5.92,4.72-.5,1-1.06,2-1.56,3C522.86,87.72,523.57,89.15,525.89,89.06Z" style="fill: #fff02a"/>
          <path d="M552.38,82.57c-1.54,3.57-5.33,7.56-8.78,7.69-4.53.18-6.32-4.13-4.12-8.59,2.3-4.63,6-6.56,8.76-6.66s4.75,1.33,4.87,4.4a7.47,7.47,0,0,1-.16,1.41,6.62,6.62,0,0,0,1.08,0,7.75,7.75,0,0,0,5.6-3.19c.46-.61.89-.68,1.18-.26a1.87,1.87,0,0,1-.36,2,8.83,8.83,0,0,1-6.84,3.29C553.3,82.65,552.87,82.61,552.38,82.57Zm-2.31-1-.34-.36a2.63,2.63,0,0,1-.61-1.71,2.67,2.67,0,0,1,1-2.31,1.16,1.16,0,0,0-1.1-.44c-2.81.11-6,4.51-6.95,7.51-.67,2.24-.11,4.06,1.94,4S549,84.76,550.07,81.53Z" style="fill: #fff02a"/>
          <path d="M569.51,75.64a1.2,1.2,0,0,1,1.11-.69l2.05-.08c.65,0,.82.35.42,1.12s-3.27,6.23-4.53,8.61c-.9,1.76.1,2.48.8,2.45,3.67-.14,8.12-6.48,10.2-10,.56-.89,1-.74,1.29-.32.29.58.15,1.08-.3,1.9-1.47,2.6-6.29,10.46-11.58,10.67A3.78,3.78,0,0,1,565,85.7c-1.8,2.23-3.74,4-5.79,4.06-3,.12-4.65-2.79-3.26-5.93,1-2.26,3.82-7.39,4.07-7.83a1.19,1.19,0,0,1,1.11-.69l2.1-.08c.59,0,.77.35.42,1.12s-3.38,6.24-4.64,8.61c-.9,1.76,0,2.43.69,2.4.86,0,2.4-.85,4.31-3.09a28.31,28.31,0,0,0,3.12-4.61C568.3,77.74,569.36,75.91,569.51,75.64Z" style="fill: #fff02a"/>
          <path d="M576.32,82.67l4.14-7.46-1,0c-.92,0-1.15-.28-.95-.77.35-.66.68-.57,1.65-.61l1.19,0,2.23-3.92a1.14,1.14,0,0,1,1.11-.69l1.94-.08c.65,0,.82.35.47,1.06-.15.33-.91,1.71-1.92,3.48l2.75-.11c.65,0,1.24,0,1.05.66s-.83.84-1.69.88c-.38,0-1.62.06-2.92.06l-4.39,8c-1.15,2.32-.4,3.69,1.06,3.63,1.73-.07,4.31-1.68,6.71-5.23.61-.89,1-.79,1.28-.37a1.7,1.7,0,0,1-.25,1.9c-1.68,2.55-5,5.65-8.58,5.79C576,89,574.76,85.59,576.32,82.67Z" style="fill: #fff02a"/>
        </g>
        <g>
          <path d="M484.56,90.27c-5.4.21-8.22-2.92-8.36-6.43a5.77,5.77,0,0,1,5.27-6.26c2.64-.1,3.84,1.36,4,2.49.27,1.34-1.07,1.61-1.58,1s-.76-1.43-2.32-1.37c-1.94.08-3.28,1.75-3.19,4.07.1,2.64,2,4.52,5.52,4.38,7.5-.29,11.12-11.4,16-20.83,2.67-5.08,6.22-10.94,10.19-14.5a11,11,0,0,0-4.07-.54,17.63,17.63,0,0,0-14.55,8c-3.48,5.05-3.32,9.1-1.05,9,2.54-.1,4-3.56,4.62-4.94.69-1.65,2.4-.9,1.86.63-1,2.69-3.38,6.18-6.67,6.31-1.83.07-4.2-1-4.35-4.75-.2-5.13,6.64-15.5,19.7-16a15.16,15.16,0,0,1,6.14,1,10.19,10.19,0,0,1,3-1.52c1.28-.43,1.8.47.54,1.33a13.76,13.76,0,0,0-1.63,1.25,10.53,10.53,0,0,1,4.61,8.74,14.83,14.83,0,0,1-.91,5.87c-2,5.32-6.57,13.12-7.54,15.91s.35,3.39,1.37,3.35c3.08-.12,7.69-6.51,9.77-10.05.56-.89,1.11-.75,1.39-.33.29.58.2,1.07-.3,1.9-1.47,2.6-6,10.45-11.69,10.67-2.86.11-5.77-2.53-3.39-7.92,1.39-3.08,3.22-6.12,4.88-9.32A13.07,13.07,0,0,0,506.53,73c-.85.47-1,.47-1.64-.58a4.83,4.83,0,0,0-2.57-2.28C497.63,80.25,494,89.9,484.56,90.27Zm28.3-21.15,1.34-3a12.87,12.87,0,0,0,1.22-6,7.56,7.56,0,0,0-3.22-6.25c-3.43,3.59-6.56,9.06-9.06,14.35a6.5,6.5,0,0,1,3.45,2.51A16,16,0,0,1,512.87,69.11Z"/>
          <path d="M532.38,80.46c-1.58,3.79-5.6,7.51-10.13,7.69-4,.16-5.72-3.94-3.45-8,3.48-6.35,4.59-8.45,9.09-16.3a1.14,1.14,0,0,1,1.11-.69l2.11-.08c.65,0,.82.35.47,1.06s-3.61,5.92-6,9.91a6,6,0,0,1,3.46-1.38c3.13-.12,4,1.84,4.06,4.27a6.38,6.38,0,0,1-.21,1.68l.54,0a7.75,7.75,0,0,0,5.61-3.19c.46-.61.89-.68,1.18-.26a1.86,1.86,0,0,1-.36,2A8.75,8.75,0,0,1,533,80.43Zm-9.61,5.72c2.48-.1,5.44-3.13,6.76-6.8a2.92,2.92,0,0,1,.1-4.49,1.94,1.94,0,0,0-1.2-.33c-1.08,0-4,1.45-5.92,4.72-.5,1-1.06,2-1.56,3C519.75,84.84,520.45,86.27,522.77,86.18Z"/>
          <path d="M549.27,79.69c-1.54,3.57-5.33,7.56-8.78,7.69-4.53.18-6.32-4.13-4.12-8.59,2.3-4.63,6-6.56,8.76-6.66s4.75,1.33,4.87,4.4a7.47,7.47,0,0,1-.16,1.41,6.62,6.62,0,0,0,1.08,0,7.75,7.75,0,0,0,5.6-3.19c.46-.61.89-.68,1.18-.26a1.87,1.87,0,0,1-.36,2,8.83,8.83,0,0,1-6.84,3.29C550.19,79.76,549.75,79.73,549.27,79.69Zm-2.31-1-.34-.36a2.63,2.63,0,0,1-.61-1.71,2.67,2.67,0,0,1,1-2.31,1.16,1.16,0,0,0-1.1-.44c-2.81.11-6,4.51-6.95,7.51-.67,2.24-.11,4.06,1.94,4S545.84,81.88,547,78.65Z"/>
          <path d="M566.4,72.76a1.2,1.2,0,0,1,1.11-.69l2.05-.08c.65,0,.82.35.42,1.12s-3.27,6.23-4.53,8.61c-.9,1.76.1,2.48.8,2.45,3.67-.14,8.12-6.48,10.2-10,.56-.89,1-.74,1.29-.32.29.58.15,1.08-.3,1.9-1.47,2.6-6.29,10.46-11.58,10.67a3.78,3.78,0,0,1-3.92-3.58c-1.8,2.23-3.74,4-5.79,4.06-3,.12-4.65-2.79-3.26-5.93,1-2.26,3.82-7.39,4.07-7.83a1.19,1.19,0,0,1,1.11-.69l2.1-.08c.59,0,.77.35.42,1.12s-3.38,6.24-4.64,8.61c-.9,1.76,0,2.43.69,2.4.86,0,2.4-.85,4.31-3.09a28.31,28.31,0,0,0,3.12-4.61C565.18,74.86,566.25,73,566.4,72.76Z"/>
          <path d="M573.21,79.79l4.14-7.46-1,0c-.92,0-1.15-.28-.95-.77.35-.66.68-.57,1.65-.61l1.19,0L580.44,67a1.14,1.14,0,0,1,1.11-.69l1.94-.08c.65,0,.82.35.47,1.06-.15.33-.91,1.71-1.92,3.48l2.75-.11c.65,0,1.24,0,1.05.66s-.83.84-1.69.88c-.38,0-1.62.06-2.92.06l-4.39,8c-1.15,2.32-.4,3.69,1.06,3.63,1.73-.07,4.31-1.68,6.71-5.23.61-.89,1-.79,1.28-.37a1.7,1.7,0,0,1-.25,1.9c-1.68,2.55-5,5.65-8.58,5.79C572.86,86.12,571.65,82.71,573.21,79.79Z"/>
        </g>
      </g>
    </g>
  </g>
</svg>
