<svg xmlns="http://www.w3.org/2000/svg" viewBox="0 0 1061.13 128.41">
  <defs>
    <style>
      .cls-1 {
        fill: #aae0f8;
      }

      .cls-2 {
        fill: #fff02a;
      }
    </style>
  </defs>
  <title>h2</title>
  <g id="Layer_2" data-name="Layer 2">
    <g id="Layer_3" data-name="Layer 3">
      <g>
        <polygon class="cls-1" points="1061.13 87.06 0 128.41 0.09 41.35 1061.13 0 1061.13 87.06"/>
        <g>
          <path class="cls-2" d="M408.29,91.39a30.82,30.82,0,0,1,4.88-3.7c.48-2.88,1-5.17-.63-5.11-2.21.09-4.52,7.47-10,7.69h-.27a11.12,11.12,0,0,1-9.87,6.06A9.64,9.64,0,0,1,382,86.63c-.4-10.36,9.54-15.83,16.44-16.26a7.25,7.25,0,0,1-1.22-3.68c-.17-4.37,3.93-8.75,9.22-9,3.89-.15,6.34,1.86,6.46,4.88a4.6,4.6,0,0,1-4.51,5,1.05,1.05,0,0,1-.19-2.1,2.62,2.62,0,0,0,2.59-2.86c-.06-1.57-1.3-2.81-3.51-2.73-5.72.22-8.62,7.52-6.68,10.2.86-.09,3.53.46,3.16,1.93S401,73.25,399.86,72c-7.1.82-14.58,6-14.21,15.36.18,4.64,3.52,7,7.13,6.86A8.57,8.57,0,0,0,400,90.09c-3.54-.67-5.26-3.2-5.35-5.58a4.59,4.59,0,0,1,4.24-5c2.81-.11,4.56,1.93,4.68,5a11.57,11.57,0,0,1-.5,3.8c1.72-.28,3.18-1.58,4.47-3.15,1.5-1.84,3.22-4.61,5.71-4.71,3-.12,3.9,1.68,3.75,4.66a2.34,2.34,0,0,1,0,.27l1.37-1A6.1,6.1,0,0,0,420,83c-1.44-1-.82-3,1.07-3.18s2.18,1.92,1.26,3.19c-1,1.44-3.08,2.77-5.45,4.26-.31,3.2-.75,5.7,1,5.64,2.54-.1,6.52-4.68,9.72-9.94.56-.89,1-.8,1.28-.32s.15,1.08-.31,1.85c-1.46,2.65-7,10.54-11.74,10.73-3.34.13-4-2.28-3.78-5.58-2.79,1.89-3.29,3-3.29,3,1.14,1.58.51,3.38-1.05,3.5C406.48,96.32,406,93.7,408.29,91.39Zm-7.37-3.17a9.22,9.22,0,0,0,.52-3.37c-.1-2.54-1.16-3.36-2.45-3.31s-2.28,1.06-2.21,2.9C396.84,86.05,398,87.84,400.93,88.22Z"/>
          <path class="cls-2" d="M437.1,81.73l.56-.94a1.19,1.19,0,0,1,1.11-.69l2.05-.08c.65,0,.82.35.42,1.12s-3.38,6.24-4.58,8.61c-1,1.77,0,2.54.8,2.51,4-.16,7.88-5.82,10.25-10.07.5-.89,1-.74,1.28-.32.35.58.2,1.07-.25,1.9-1.52,2.6-6.35,10.46-11.64,10.67a3.63,3.63,0,0,1-3.78-2.82c-1.23,1.78-2.8,3.13-4.63,3.21-4.26.17-5.69-4.59-3.59-9,2.35-5,5.91-6.39,8.23-6.48A3.54,3.54,0,0,1,437.1,81.73Zm-1.56,2.87c.8-1.76-.13-3.24-1.48-3.18a5,5,0,0,0-3.29,1.64,12,12,0,0,0-3.29,5.69c-.41,1.91.1,3.89,1.77,3.82C431.36,92.49,433.28,89.23,435.53,84.6Z"/>
          <path class="cls-2" d="M450.82,83C453,80.52,455,79.09,457,79a2.68,2.68,0,0,1,3.07,2.53,3.32,3.32,0,0,1-.17,1.25c2.22-2.68,4.22-4.06,6.27-4.14,1.83-.07,3.17.9,3.24,2.68.09,2.43-2.54,5.45-4,7.61-1.18,1.67-.5,2.45.31,2.47,3.62-.14,8.17-6.75,10.24-10.34.56-.89,1.05-.74,1.29-.32.35.58.2,1.07-.25,1.9-1.47,2.6-6.4,10.63-11.68,10.83-2.37.09-3.72-1.1-3.79-2.88-.1-2.48,1.62-4.33,3.66-7.38.87-1.22.4-2.23-.57-2.19-1.46.06-3.17,1.8-5,4.25A77,77,0,0,0,454.83,93a1.11,1.11,0,0,1-1.11.64l-1.78.07c-.65,0-.77-.35-.42-1.06,2.42-4.47,3-5.74,4.56-9.09.6-1.27.34-2.23-.63-2.19-1.46.06-3.55,1.92-5.45,4.43a34.37,34.37,0,0,0-3.34,5.8c-.35.83-.54,1.26-.79,1.87a1.07,1.07,0,0,1-1.11.69l-1.46.06c-.65,0-.83-.34-.42-1.06,2-3.86,3.77-8.79,5.76-13.14a1.14,1.14,0,0,1,1.11-.69l2.1-.08c.59,0,.61.41.21,1.18Z"/>
          <path class="cls-2" d="M486.84,85.25l-.35.77c-2.25,4.74-5.63,6.76-8.38,6.87-2.11.08-3.23-1-3.6-2.13-2.34,5-3.48,7.75-4.82,10.83a1.26,1.26,0,0,1-1.16.85l-1.83.07c-.65,0-.78-.46-.37-1.23,2.64-5.62,3.5-7.38,6.73-14.42,1-2.26,4.81-9.7,5.06-10.25a1.14,1.14,0,0,1,1.11-.69l1.78-.07c.65,0,.82.35.42,1.12l-1.31,2.43a5.08,5.08,0,0,1,3.44-1.86c3.24-.13,4.48,2.58,3.8,5.9l.59,0a7.49,7.49,0,0,0,5.55-3.24c.46-.61.89-.68,1.18-.21a1.73,1.73,0,0,1-.3,1.9,8.72,8.72,0,0,1-6.9,3.35Zm-10.68,1.93C475.53,89,476,91,478,90.89c2.8-.11,5-4,5.84-6.93A3.33,3.33,0,0,1,483,82a2.76,2.76,0,0,1,.73-2.08,1.49,1.49,0,0,0-1.15-.44C479.38,79.65,477,84.66,476.16,87.18Z"/>
          <path class="cls-2" d="M496.76,73.62c3.12-5.85,5.68-9.57,9-9.7,2.75-.11,4.16,2.76,1.28,6.6a31.25,31.25,0,0,1-8.73,7.69c-1.61,3-3.42,6.62-4.22,8.27-1.15,2.37-.4,3.69,1,3.63,3.13-.12,8.43-7,10.57-10.19.61-.84,1-.8,1.28-.32a1.65,1.65,0,0,1-.31,1.85c-1.33,2-7,10.54-12.33,10.75-4,.16-4.91-3.92-3.11-7.61C492.49,81.84,496.56,74,496.76,73.62ZM503,72.46c5-5.11,4.06-6.8,2.87-6.76s-2.8,3.08-6,9.42A34.58,34.58,0,0,0,503,72.46Z"/>
          <path class="cls-2" d="M516.41,84.15c.62-.83,1.05-.74,1.28-.32.35.58.26,1.13-.25,1.9-1.63,2.5-5.18,5.77-9.5,5.94-5.07.2-7.19-4.15-5.09-8.56s5.74-6.55,8.82-6.67c1.94-.08,3,1,3.16,2.09a4,4,0,0,1-1,3c-2.07,2.35-5.67,2.82-7.78,2.79a5.93,5.93,0,0,0-.43,1.37c-.41,1.91.21,3.94,2.91,3.83C510.95,89.44,514,87.7,516.41,84.15Zm-9.25-1.69a8.39,8.39,0,0,0,5-1.87c1-1,.84-2.09,0-2.05-.59,0-1.45.27-2.91,1.52A12.6,12.6,0,0,0,507.16,82.46Z"/>
          <path class="cls-2" d="M536.2,91.27c-5.61.22-8.49-2.91-8.63-6.47a5.87,5.87,0,0,1,5.37-6.32c2.54-.1,3.56,1.32,3.77,2.45.27,1.34-1.07,1.61-1.59.93s-.7-1.32-2.16-1.27c-1.94.08-3.28,1.8-3.19,4.12.11,2.7,2.13,4.62,5.85,4.47,7.28-.28,11-10.75,15.72-20.88,2.14-4.62,5.52-11,9.1-14.78a11.93,11.93,0,0,0-2.87-.21c-6.75.26-11.45,3-14.82,7.93s-3.32,9.1-1.05,9c2.54-.1,4-3.56,4.62-4.94.69-1.65,2.4-.9,1.86.63-1,2.69-3.38,6.18-6.67,6.31-1.83.07-4.2-1-4.35-4.75-.2-5.13,6.37-15.49,20.34-16a17.31,17.31,0,0,1,4.66.41,8,8,0,0,1,2.75-1.51c1.5-.44,1.71.85.54,1.44a13.14,13.14,0,0,0-1.16.75,10.6,10.6,0,0,1,6.12,12.89,9.31,9.31,0,0,1-8.7,7c-3.67.14-5.2-1.74-5.38-3.47s1.66-1.85,1.87-.45c.2,1.07,1.16,2.06,3,2,2.54-.1,5.19-2.63,6.07-6.51.87-4.14-.86-8.13-4.71-9.81a30.82,30.82,0,0,0-4.12,6.54C552,73.52,548.39,90.79,536.2,91.27Z"/>
          <path class="cls-2" d="M580.09,75c1.55-1.9,2.27-2.74,3.07-2.93s1.79.09,1.77,1c0,1-1.15,1.07-1,1.77.08.54,1.3,2.76,1.8,4.68.57,2.25.77,4.56-.35,6.18a21,21,0,0,0,4.44-3.9,32.08,32.08,0,0,0,3.91-5.18c.56-.94,1-.79,1.28-.37.29.58.15,1.08-.3,1.9-3.2,5.26-8.44,10.87-14.81,11.12-6,.24-6.43-4.07-5.26-6a2.5,2.5,0,0,1,2.64-1.51c1.58.21,1.48,2,.38,2.69-1.26.86-.42,3,1.36,3,1.46-.06,2.66-1.13,3.35-2.83,1.13-2.91-.3-6.42-.76-8.46-1.59,2.17-5.4,5.56-8.86,5.7l-1.29.05c-1.54,3.57-5.27,7.56-8.73,7.69-4.7.18-6.32-4.18-4.17-8.59,2.35-4.74,6.12-6.56,8.82-6.67s4.7,1.33,4.82,4.4a6.36,6.36,0,0,1-.16,1.47C575.59,80,578.5,77,580.09,75ZM569.19,80.8a2.82,2.82,0,0,1-.95-2.07,2.67,2.67,0,0,1,1-2.31,1.07,1.07,0,0,0-1-.45c-3,.12-6.29,4.89-7,7.57-.62,2.24-.11,4,1.94,3.92S568.07,84,569.19,80.8Z"/>
          <path class="cls-2" d="M594.22,75.44l-1.35.05c-.86,0-1.15-.28-.9-.83s.68-.57,1.6-.6L595,74l2.28-3.93a1.2,1.2,0,0,1,1.11-.69l2-.08c.65,0,.82.29.42,1.06L599,73.85l2.43-.09c.59,0,1.19,0,1,.72s-.83.84-1.64.88l-2.7.11c-1.57,2.76-3.28,5.86-3.94,7.13-1.25,2.54-.4,3.69,1.06,3.63,3.13-.12,8.43-6.81,10.52-10.19.56-.89,1-.8,1.28-.32a1.58,1.58,0,0,1-.14,1.84c-1.43,2.11-7.21,10.55-12.5,10.76-4.21.16-5.58-3.08-3.51-6.89Z"/>
          <path class="cls-2" d="M603.06,79.21c2.41-4.74,6.07-6.56,8.82-6.67,3.94-.15,3.8,3.31,2.57,4.82-.93,1.12-2.11,1.33-2.72.81s-.49-1.55.57-2,.91-1.55,0-1.52c-.7,0-1.4.16-2.86,1.41a11.61,11.61,0,0,0-3.72,5.77c-.41,1.91.42,3.93,3,3.83,4.42-.17,9.36-6.63,11.44-10.17.56-.89,1-.8,1.28-.32s.15,1.08-.31,1.85c-1.46,2.65-7.1,10.55-13,10.77S601.16,83.06,603.06,79.21Z"/>
          <path class="cls-2" d="M626,84.1c-1.23,1.78-2.8,3.13-4.63,3.21-4.26.17-5.69-4.59-3.59-9,2.35-5,5.91-6.39,8.23-6.48a3.54,3.54,0,0,1,3.77,2.39l.56-.94a1.19,1.19,0,0,1,1.11-.69l2-.08c.65,0,.82.35.42,1.12s-3.38,6.24-4.58,8.61c-1,1.77,0,2.54.8,2.51,2.86-.11,6.69-7.23,9.54-11.88l-.11-.1c-.62-.73-.26-2.42,1-3.5s3.08.1,1.72,2.63c-.05.06-.05,0,1.66-.28,2.36-.36,4.72-.83,4.82,1.7.13,2-2.92,5.52-4.55,8-1.12,1.67-.75,2.89.6,2.84,3.67-.14,8.12-6.48,10.2-10,.56-.89,1-.74,1.28-.32.29.58.15,1.07-.3,1.9-1.47,2.6-6.29,10.46-11.58,10.67-3.56.14-5-3.54-3.23-6.58a37.33,37.33,0,0,1,3.59-5c.82-1.06.69-1.75-.87-1.53a12.34,12.34,0,0,1-2.64.26L639.85,76c-1.46,2.65-6.17,10.78-10.44,10.94C627.42,87,626.45,85.81,626,84.1Zm2.21-7c.8-1.76-.13-3.24-1.48-3.19a5,5,0,0,0-3.29,1.64,12,12,0,0,0-3.29,5.69c-.41,1.91.1,3.89,1.77,3.82C624,85,625.91,81.72,628.16,77.09Z"/>
          <path class="cls-2" d="M661,82.68c-1.28,1.78-2.85,3.19-4.74,3.26-4.26.17-6-4.68-3.81-9,2.61-5.18,6.13-6.4,8.61-6.5a3.44,3.44,0,0,1,3.66,2.45l6.31-11.54a1.25,1.25,0,0,1,1.11-.69l2.1-.08c.65,0,.82.29.42,1.06-.91,1.66-6.75,12.64-10.28,19.15-1,1.77.15,2.43.85,2.4,3.67-.14,8.07-6.37,10.15-9.91.56-.89,1-.74,1.28-.32.29.58.15,1.07-.3,1.9-1.47,2.6-6.29,10.46-11.58,10.67A3.59,3.59,0,0,1,661,82.68Zm2.05-6.94c.8-1.76,0-3.24-1.42-3.19a4.55,4.55,0,0,0-3.18,1.64,12.45,12.45,0,0,0-3.34,5.7c-.41,2,.1,3.89,1.77,3.82C659,83.62,661,79.6,663.07,75.73Z"/>
          <path class="cls-2" d="M671.27,79.41a7.92,7.92,0,0,1,.72-1,62,62,0,0,0,4.69-7.26c1.38-2.05,2.16-2.73,3.07-2.93.7-.14,1.79.09,1.77,1,0,1-1.15,1.07-1,1.77,0,0,1.19,2.82,1.8,4.69.92,2.77.8,5.21-.92,6.84a14.12,14.12,0,0,0,5-4.79c.61-.89,1-.79,1.28-.37.35.58.26,1.12-.25,1.9a13.55,13.55,0,0,1-10.89,6.21C670.49,85.66,670.1,81.29,671.27,79.41Zm3.3-1.26a1.47,1.47,0,0,1-.28,2.44c-1.26.86-.42,3.1,1.36,3,1.51-.06,2.66-1.19,3.35-2.89,1.13-2.91-.3-6.37-.76-8.4C677.37,73.77,676,76.1,674.57,78.15Z"/>
        </g>
        <g>
          <path d="M405.18,88.51a30.82,30.82,0,0,1,4.88-3.7c.48-2.88,1-5.17-.63-5.11-2.21.09-4.52,7.47-10,7.69h-.27a11.12,11.12,0,0,1-9.87,6.06,9.64,9.64,0,0,1-10.38-9.7c-.4-10.36,9.54-15.83,16.44-16.26a7.25,7.25,0,0,1-1.22-3.68c-.17-4.37,3.93-8.75,9.22-9,3.89-.15,6.34,1.86,6.46,4.88a4.6,4.6,0,0,1-4.51,5,1.05,1.05,0,0,1-.19-2.1,2.62,2.62,0,0,0,2.59-2.86c-.06-1.57-1.3-2.81-3.51-2.73-5.72.22-8.62,7.52-6.68,10.2.86-.09,3.53.46,3.16,1.93s-2.77,1.13-3.89-.06c-7.1.82-14.58,6-14.21,15.36.18,4.64,3.52,7,7.13,6.86a8.57,8.57,0,0,0,7.24-4.17c-3.54-.67-5.26-3.2-5.35-5.58a4.59,4.59,0,0,1,4.24-5c2.81-.11,4.56,1.93,4.68,5a11.57,11.57,0,0,1-.5,3.8c1.72-.28,3.18-1.58,4.47-3.15,1.5-1.84,3.22-4.61,5.71-4.71,3-.12,3.9,1.68,3.75,4.66a2.34,2.34,0,0,1,0,.27l1.37-1a6.1,6.1,0,0,0,1.62-1.42c-1.44-1-.82-3,1.07-3.18s2.18,1.92,1.26,3.19c-1,1.44-3.08,2.77-5.45,4.26-.31,3.2-.75,5.7,1,5.64,2.54-.1,6.52-4.68,9.72-9.94.56-.89,1-.8,1.28-.32s.15,1.08-.31,1.85c-1.46,2.65-7,10.54-11.74,10.73-3.34.13-4-2.28-3.78-5.58-2.79,1.89-3.29,3-3.29,3,1.14,1.58.51,3.38-1.05,3.5C403.37,93.44,402.84,90.82,405.18,88.51Zm-7.37-3.17a9.22,9.22,0,0,0,.52-3.37c-.1-2.54-1.16-3.36-2.45-3.31s-2.28,1.06-2.21,2.9C393.73,83.17,394.93,85,397.81,85.34Z"/>
          <path d="M434,78.85l.56-.94a1.19,1.19,0,0,1,1.11-.69l2.05-.08c.65,0,.82.35.42,1.12s-3.38,6.24-4.58,8.61c-1,1.77,0,2.54.8,2.51,4-.16,7.88-5.82,10.25-10.07.5-.89,1-.74,1.28-.32.35.58.2,1.07-.25,1.9-1.52,2.6-6.35,10.46-11.64,10.67a3.63,3.63,0,0,1-3.78-2.82c-1.23,1.78-2.8,3.13-4.63,3.21-4.26.17-5.69-4.59-3.59-9,2.35-5,5.91-6.39,8.23-6.48A3.54,3.54,0,0,1,434,78.85Zm-1.56,2.87c.8-1.76-.13-3.24-1.48-3.18a5,5,0,0,0-3.29,1.64,12,12,0,0,0-3.29,5.69c-.41,1.91.1,3.89,1.77,3.82C428.24,89.61,430.17,86.35,432.42,81.72Z"/>
          <path d="M447.7,80.1c2.17-2.46,4.17-3.89,6.17-4a2.68,2.68,0,0,1,3.07,2.53,3.32,3.32,0,0,1-.17,1.25C459,77.23,461,75.85,463,75.77c1.83-.07,3.17.9,3.24,2.68.09,2.43-2.54,5.45-4,7.61-1.18,1.67-.5,2.45.31,2.47,3.62-.14,8.17-6.75,10.24-10.34.56-.89,1.05-.74,1.29-.32.35.58.2,1.07-.25,1.9-1.47,2.6-6.4,10.63-11.68,10.83-2.37.09-3.72-1.1-3.79-2.88-.1-2.48,1.62-4.33,3.66-7.38.87-1.22.4-2.23-.57-2.19-1.46.06-3.17,1.8-5,4.25a77,77,0,0,0-4.78,7.75,1.11,1.11,0,0,1-1.11.64l-1.78.07c-.65,0-.77-.35-.42-1.06,2.42-4.47,3-5.74,4.56-9.09.6-1.27.34-2.23-.63-2.19-1.46.06-3.55,1.92-5.45,4.43a34.37,34.37,0,0,0-3.34,5.8c-.35.83-.54,1.26-.79,1.87a1.07,1.07,0,0,1-1.11.69l-1.46.06c-.65,0-.83-.34-.42-1.06,2-3.86,3.77-8.79,5.76-13.14a1.14,1.14,0,0,1,1.11-.69l2.1-.08c.59,0,.61.41.21,1.18Z"/>
          <path d="M483.73,82.37l-.35.77c-2.25,4.74-5.63,6.76-8.38,6.87-2.11.08-3.23-1-3.6-2.13-2.34,5-3.48,7.75-4.82,10.83a1.26,1.26,0,0,1-1.16.85l-1.83.07c-.65,0-.78-.46-.37-1.23C465.87,92.79,466.72,91,470,84c1-2.26,4.81-9.7,5.06-10.25a1.14,1.14,0,0,1,1.11-.69l1.78-.07c.65,0,.82.35.42,1.12L477,76.52a5.08,5.08,0,0,1,3.44-1.86c3.24-.13,4.48,2.58,3.8,5.9l.59,0a7.49,7.49,0,0,0,5.55-3.24c.46-.61.89-.68,1.18-.21a1.73,1.73,0,0,1-.3,1.9,8.72,8.72,0,0,1-6.9,3.35ZM473,84.3c-.63,1.81-.12,3.79,1.87,3.71,2.8-.11,5-4,5.84-6.93a3.33,3.33,0,0,1-.89-1.91,2.76,2.76,0,0,1,.73-2.08,1.49,1.49,0,0,0-1.15-.44C476.27,76.77,473.92,81.78,473,84.3Z"/>
          <path d="M493.65,70.74c3.12-5.85,5.68-9.57,9-9.7,2.75-.11,4.16,2.76,1.28,6.6a31.25,31.25,0,0,1-8.73,7.69c-1.61,3-3.42,6.62-4.22,8.27-1.15,2.37-.4,3.69,1,3.63,3.13-.12,8.43-7,10.57-10.19.61-.84,1-.8,1.28-.32a1.65,1.65,0,0,1-.31,1.85c-1.33,2-7,10.54-12.33,10.75-4,.16-4.91-3.92-3.11-7.61C489.38,79,493.45,71.13,493.65,70.74Zm6.22-1.16c5-5.11,4.06-6.8,2.87-6.76s-2.8,3.08-6,9.42A34.58,34.58,0,0,0,499.87,69.58Z"/>
          <path d="M513.3,81.27c.62-.83,1.05-.74,1.28-.32.35.58.26,1.13-.25,1.9-1.63,2.5-5.18,5.77-9.5,5.94-5.07.2-7.19-4.15-5.09-8.56s5.74-6.55,8.82-6.67c1.94-.08,3,1,3.16,2.09a4,4,0,0,1-1,3c-2.07,2.35-5.67,2.82-7.78,2.79a5.93,5.93,0,0,0-.43,1.37c-.41,1.91.21,3.94,2.91,3.83C507.83,86.56,510.9,84.82,513.3,81.27ZM504,79.58a8.39,8.39,0,0,0,5-1.87c1-1,.84-2.09,0-2.05-.59,0-1.45.27-2.91,1.52A12.6,12.6,0,0,0,504,79.58Z"/>
          <path d="M533.09,88.39c-5.61.22-8.49-2.91-8.63-6.47a5.87,5.87,0,0,1,5.37-6.32c2.54-.1,3.56,1.32,3.77,2.45.27,1.34-1.07,1.61-1.59.93s-.7-1.32-2.16-1.27c-1.94.08-3.28,1.8-3.19,4.12.11,2.7,2.13,4.62,5.85,4.47,7.28-.28,11-10.75,15.72-20.88,2.14-4.62,5.52-11,9.1-14.78a11.93,11.93,0,0,0-2.87-.21c-6.75.26-11.45,3-14.82,7.93s-3.32,9.1-1.05,9c2.54-.1,4-3.56,4.62-4.94.69-1.65,2.4-.9,1.86.63-1,2.69-3.38,6.18-6.67,6.31-1.83.07-4.2-1-4.35-4.75-.2-5.13,6.37-15.49,20.34-16a17.31,17.31,0,0,1,4.66.41,8,8,0,0,1,2.75-1.51c1.5-.44,1.71.85.54,1.44a13.14,13.14,0,0,0-1.16.75,10.6,10.6,0,0,1,6.12,12.89,9.31,9.31,0,0,1-8.7,7c-3.67.14-5.2-1.74-5.38-3.47s1.66-1.85,1.87-.45c.2,1.07,1.16,2.06,3,2,2.54-.1,5.19-2.63,6.07-6.51.87-4.14-.86-8.13-4.71-9.81a30.82,30.82,0,0,0-4.12,6.54C548.88,70.64,545.28,87.91,533.09,88.39Z"/>
          <path d="M577,72.09c1.55-1.9,2.27-2.74,3.07-2.93s1.79.09,1.77,1c0,1-1.15,1.07-1,1.77.08.54,1.3,2.76,1.8,4.68.57,2.25.77,4.56-.35,6.18a21,21,0,0,0,4.44-3.9,32.08,32.08,0,0,0,3.91-5.18c.56-.94,1-.79,1.28-.37.29.58.15,1.08-.3,1.9-3.2,5.26-8.44,10.87-14.81,11.12-6,.24-6.43-4.07-5.26-6a2.5,2.5,0,0,1,2.64-1.51c1.58.21,1.48,2,.38,2.69-1.26.86-.42,3,1.36,3,1.46-.06,2.66-1.13,3.35-2.83,1.13-2.91-.3-6.42-.76-8.46-1.59,2.17-5.4,5.56-8.86,5.7l-1.29.05c-1.54,3.57-5.27,7.56-8.73,7.69-4.7.18-6.32-4.18-4.17-8.59,2.35-4.74,6.12-6.56,8.82-6.67s4.7,1.33,4.82,4.4a6.36,6.36,0,0,1-.16,1.47C572.47,77.13,575.38,74.09,577,72.09Zm-10.91,5.83a2.82,2.82,0,0,1-.95-2.07,2.67,2.67,0,0,1,1-2.31,1.07,1.07,0,0,0-1-.45c-3,.12-6.29,4.89-7,7.57-.62,2.24-.11,4,1.94,3.92S565,81.09,566.07,77.92Z"/>
          <path d="M591.1,72.56l-1.35.05c-.86,0-1.15-.28-.9-.83s.68-.57,1.6-.6l1.46-.06,2.28-3.93a1.2,1.2,0,0,1,1.11-.69l2-.08c.65,0,.82.29.42,1.06L595.85,71l2.43-.09c.59,0,1.19,0,1,.72s-.83.84-1.64.88l-2.7.11c-1.57,2.76-3.28,5.86-3.94,7.13-1.25,2.54-.4,3.69,1.06,3.63,3.13-.12,8.43-6.81,10.52-10.19.56-.89,1-.8,1.28-.32a1.58,1.58,0,0,1-.14,1.84c-1.43,2.11-7.21,10.55-12.5,10.76-4.21.16-5.58-3.08-3.51-6.89Z"/>
          <path d="M599.95,76.33c2.41-4.74,6.07-6.56,8.82-6.67,3.94-.15,3.8,3.31,2.57,4.82-.93,1.12-2.11,1.33-2.72.81s-.49-1.55.57-2,.91-1.55,0-1.52c-.7,0-1.4.16-2.86,1.41a11.61,11.61,0,0,0-3.72,5.77c-.41,1.91.42,3.93,3,3.83,4.42-.17,9.36-6.63,11.44-10.17.56-.89,1-.8,1.28-.32s.15,1.08-.31,1.85c-1.46,2.65-7.1,10.55-13,10.77S598,80.18,599.95,76.33Z"/>
          <path d="M622.84,81.22c-1.23,1.78-2.8,3.13-4.63,3.21-4.26.17-5.69-4.59-3.59-9,2.35-5,5.91-6.39,8.23-6.48a3.54,3.54,0,0,1,3.77,2.39l.56-.94a1.19,1.19,0,0,1,1.11-.69l2-.08c.65,0,.82.35.42,1.12s-3.38,6.24-4.58,8.61c-1,1.77,0,2.54.8,2.51,2.86-.11,6.69-7.23,9.54-11.88l-.11-.1c-.62-.73-.26-2.42,1-3.5s3.08.1,1.72,2.63c-.05.06-.05,0,1.66-.28,2.36-.36,4.72-.83,4.82,1.7.13,2-2.92,5.52-4.55,8-1.12,1.67-.75,2.89.6,2.84,3.67-.14,8.12-6.48,10.2-10,.56-.89,1-.74,1.28-.32.29.58.15,1.07-.3,1.9-1.47,2.6-6.29,10.46-11.58,10.67-3.56.14-5-3.54-3.23-6.58a37.33,37.33,0,0,1,3.59-5c.82-1.06.69-1.75-.87-1.53a12.34,12.34,0,0,1-2.64.26l-1.36,2.43c-1.46,2.65-6.17,10.78-10.44,10.94C624.3,84.13,623.34,82.93,622.84,81.22Zm2.21-7c.8-1.76-.13-3.24-1.48-3.19a5,5,0,0,0-3.29,1.64A12,12,0,0,0,617,78.36c-.41,1.91.1,3.89,1.77,3.82C620.87,82.1,622.8,78.84,625,74.21Z"/>
          <path d="M657.91,79.8c-1.28,1.78-2.85,3.19-4.74,3.26-4.26.17-6-4.68-3.81-9,2.61-5.18,6.13-6.4,8.61-6.5A3.44,3.44,0,0,1,661.63,70l6.31-11.54A1.25,1.25,0,0,1,669,57.8l2.1-.08c.65,0,.82.29.42,1.06-.91,1.66-6.75,12.64-10.28,19.15-1,1.77.15,2.43.85,2.4,3.67-.14,8.07-6.37,10.15-9.91.56-.89,1-.74,1.28-.32.29.58.15,1.07-.3,1.9-1.47,2.6-6.29,10.46-11.58,10.67A3.59,3.59,0,0,1,657.91,79.8ZM660,72.85c.8-1.76,0-3.24-1.42-3.19a4.55,4.55,0,0,0-3.18,1.64A12.45,12.45,0,0,0,652,77c-.41,2,.1,3.89,1.77,3.82C655.84,80.74,657.89,76.72,660,72.85Z"/>
          <path d="M668.16,76.53a7.92,7.92,0,0,1,.72-1,62,62,0,0,0,4.69-7.26c1.38-2.05,2.16-2.73,3.07-2.93.7-.14,1.79.09,1.77,1,0,1-1.15,1.07-1,1.77,0,0,1.19,2.82,1.8,4.69.92,2.77.8,5.21-.92,6.84a14.12,14.12,0,0,0,5-4.79c.61-.89,1-.79,1.28-.37.35.58.26,1.12-.25,1.9a13.55,13.55,0,0,1-10.89,6.21C667.37,82.78,667,78.41,668.16,76.53Zm3.3-1.26a1.47,1.47,0,0,1-.28,2.44c-1.26.86-.42,3.1,1.36,3,1.51-.06,2.66-1.19,3.35-2.89,1.13-2.91-.3-6.37-.76-8.4C674.26,70.89,672.84,73.21,671.46,75.27Z"/>
        </g>
      </g>
    </g>
  </g>
</svg>
