<svg xmlns="http://www.w3.org/2000/svg" viewBox="0 0 1061.13 128.41">
  <defs>
    <style>
      .cls-1 {
        fill: #aae0f8;
      }

      .cls-2 {
        fill: #fff02a;
      }
    </style>
  </defs>
  <title>h3</title>
  <g id="Layer_2" data-name="Layer 2">
    <g id="Layer_3" data-name="Layer 3">
      <g>
        <polygon class="cls-1" points="1061.13 87.06 0 128.41 0.09 41.35 1061.13 0 1061.13 87.06"/>
        <g>
          <path class="cls-2" d="M376,97.51c-5.61.22-8.49-2.91-8.63-6.47a5.87,5.87,0,0,1,5.37-6.32c2.54-.1,3.56,1.32,3.77,2.45.27,1.34-1.07,1.61-1.58.93s-.7-1.32-2.16-1.27c-1.94.08-3.28,1.8-3.19,4.12.11,2.7,2.12,4.62,5.85,4.47,7.29-.28,11-10.75,15.72-20.88,2.14-4.62,5.52-11,9.1-14.78a11.93,11.93,0,0,0-2.87-.21c-6.75.26-11.45,3-14.82,7.93s-3.32,9.1-1.05,9c2.54-.1,4-3.56,4.62-4.94.69-1.65,2.4-.9,1.86.63-1,2.69-3.38,6.18-6.67,6.31-1.83.07-4.2-1-4.35-4.75-.2-5.13,6.37-15.49,20.34-16a17.31,17.31,0,0,1,4.67.41,8,8,0,0,1,2.75-1.51c1.5-.44,1.71.85.54,1.44a13.14,13.14,0,0,0-1.16.75A10.6,10.6,0,0,1,410.2,71.7a9.31,9.31,0,0,1-8.7,7c-3.67.14-5.2-1.74-5.38-3.47s1.66-1.85,1.87-.45c.2,1.07,1.16,2.06,3,2,2.54-.1,5.19-2.64,6.07-6.51.87-4.14-.86-8.13-4.71-9.81A30.76,30.76,0,0,0,398.24,67C391.76,79.77,388.17,97,376,97.51Z"/>
          <path class="cls-2" d="M412.44,93.17c3.67-.14,8.12-6.48,10.2-10,.56-.89,1-.8,1.29-.32s.15,1.08-.31,1.85c-1.46,2.65-6.29,10.51-11.58,10.72-3.56.14-5.16-3.53-3.39-6.62a32.36,32.36,0,0,1,3.59-4.9c.82-1.11.69-1.75-.87-1.53a8.14,8.14,0,0,1-2.15.25c-1.14,2.64-3.9,8-6.92,11.13-.88.9-1.71,1.74-3.12,1.74-1.13,0-1.5-1-.29-2,3.78-3,6.23-6.62,8.52-11.46l-.22-.21c-.62-.73-.42-2.42.78-3.54s3.24-.18,1.89,2.68c-.05.06-.05,0,1.67-.28,2.42-.37,4.72-.83,4.88,1.7.13,2-2.92,5.52-4.55,8C410.72,92,411.09,93.23,412.44,93.17Z"/>
          <path class="cls-2" d="M433,87.24c-1.54,3.57-5.33,7.56-8.78,7.69-4.53.18-6.32-4.13-4.12-8.6,2.31-4.63,6-6.56,8.77-6.66s4.75,1.33,4.87,4.4a7.53,7.53,0,0,1-.16,1.41,6.61,6.61,0,0,0,1.08,0,7.75,7.75,0,0,0,5.6-3.19c.46-.61.89-.68,1.18-.26a1.87,1.87,0,0,1-.36,2,8.83,8.83,0,0,1-6.84,3.29C433.94,87.31,433.5,87.27,433,87.24Zm-2.31-1-.34-.37a2.63,2.63,0,0,1-.61-1.71,2.67,2.67,0,0,1,1-2.31,1.16,1.16,0,0,0-1.1-.44c-2.8.11-6,4.5-6.95,7.51-.67,2.24-.11,4.06,1.94,4S429.59,89.43,430.71,86.19Z"/>
          <path class="cls-2" d="M425,108.47a3.56,3.56,0,0,1-4-3.14c-.12-3.08,2.13-5,5.63-6.6,2.6-1.24,4.94-2.14,7.17-3.14,1.16-2.21,2.2-4.68,3.24-7s3.28-7.42,3.48-7.86a1.19,1.19,0,0,1,1.11-.69l2.1-.08c.65,0,.77.35.42,1.12l-5.95,12.39a27.8,27.8,0,0,0,11-11.29c.56-.89,1.05-.74,1.28-.32.35.58.2,1.07-.25,1.9-1.52,2.6-4.66,8.07-13.4,12.41C433.56,102.51,429.94,108.27,425,108.47Zm7.44-10.23c-3.67,1.6-6.75,2.86-8.21,4.32-1.72,1.74-1.2,3.94.85,3.86C427.27,106.32,429.89,102.82,432.42,98.23Zm13-27.31a2,2,0,0,1,2.18,2,2.08,2.08,0,1,1-4.16.16A2,2,0,0,1,445.46,70.92Z"/>
          <path class="cls-2" d="M446.67,85.3c2.1-4.35,5.69-6.54,8.77-6.66,1.94-.08,3,1,3.16,2.09a4,4,0,0,1-1,3c-2.07,2.35-5.67,2.82-7.83,2.79a13.33,13.33,0,0,0-.38,1.37c-.41,1.91.21,3.94,2.91,3.83,4.48-.17,9.36-6.63,11.44-10.17.56-.89,1-.8,1.29-.32s.2,1.07-.31,1.85c-1.46,2.65-7.1,10.54-13,10.77C446.63,94.06,444.57,89.71,446.67,85.3Zm4.08-.64a8.4,8.4,0,0,0,5.17-1.88c1.1-1,.84-2.09,0-2.05a4.71,4.71,0,0,0-3,1.52A13.16,13.16,0,0,0,450.75,84.66Z"/>
          <path class="cls-2" d="M461.07,84.74c2.41-4.74,6.07-6.56,8.82-6.67,3.94-.15,3.8,3.31,2.57,4.82-.93,1.12-2.11,1.33-2.72.81s-.49-1.55.57-2,.91-1.55,0-1.52c-.7,0-1.4.16-2.86,1.41a11.6,11.6,0,0,0-3.72,5.77c-.41,1.91.42,3.93,3,3.83,4.42-.17,9.36-6.63,11.44-10.17.56-.89,1-.8,1.28-.32s.15,1.08-.31,1.85c-1.46,2.65-7.1,10.55-13,10.78S459.17,88.6,461.07,84.74Z"/>
          <path class="cls-2" d="M474.93,86.63l4.14-7.46-1,0c-.92,0-1.15-.28-.95-.77.35-.66.68-.57,1.65-.61l1.19,0,2.22-3.92a1.14,1.14,0,0,1,1.11-.69l1.94-.08c.65,0,.82.35.47,1.06-.15.33-.91,1.71-1.92,3.48l2.75-.11c.65,0,1.24,0,1.05.66s-.83.84-1.7.88c-.38,0-1.62.06-2.92.06l-4.39,8c-1.15,2.31-.4,3.69,1.06,3.63,1.73-.07,4.31-1.68,6.71-5.23.61-.89,1-.8,1.28-.37a1.7,1.7,0,0,1-.25,1.9c-1.68,2.55-5,5.65-8.58,5.79C474.58,93,473.37,89.56,474.93,86.63Z"/>
          <path class="cls-2" d="M505,90.22a8.73,8.73,0,0,1-4.41,1.85c-3.83.15-3.51-4.13-.27-4.26a18.49,18.49,0,0,1,4.56.58c2.49-2.75,5.59-7.73,10-17.84,3.12-7.31,6.16-12.4,9.18-15.44a12.9,12.9,0,0,0-4-.39,17.78,17.78,0,0,0-13.53,7.88c-3.53,5.11-3.43,9.05-1.06,9s4-3.4,4.57-4.88c.75-1.54,2.45-.85,1.86.68-1,2.69-3.38,6.24-6.62,6.31-1.83.07-3.88-1-4-4.76-.17-4.26,5.23-15.44,18.24-16a18.36,18.36,0,0,1,6,.74,10.18,10.18,0,0,1,3.71-2c1.5-.38,1.77,1.07.54,1.49a7.4,7.4,0,0,0-2.38,1.34c4.3,2.26,6.43,6.83,6.63,12.17a26.69,26.69,0,0,1-1.41,9.46c-3.2,9.31-9.4,15.34-17,15.63A30,30,0,0,1,505,90.22Zm25.82-25.33c-.18-4.59-1.92-7.6-4.79-9.05-2.33,2.63-4.42,7.3-7.82,15.71-4.63,11.42-8.87,14.94-11.49,17.31a29,29,0,0,0,7.65.84C524.58,89.29,531.1,73.47,530.77,64.89Z"/>
          <path class="cls-2" d="M534.08,81.89c2.1-4.35,5.69-6.54,8.77-6.66,1.94-.08,3,1,3.16,2.09a4,4,0,0,1-1,3c-2.07,2.35-5.67,2.82-7.83,2.79a13.38,13.38,0,0,0-.38,1.37c-.41,1.91.21,3.94,2.91,3.83,4.48-.17,9.36-6.63,11.44-10.17.56-.89,1-.8,1.29-.32s.2,1.07-.31,1.85c-1.46,2.65-7.1,10.54-13,10.77C534,90.65,532,86.3,534.08,81.89Zm4.08-.64a8.4,8.4,0,0,0,5.17-1.88c1.1-1,.84-2.09,0-2.05a4.71,4.71,0,0,0-3,1.52A13.12,13.12,0,0,0,538.16,81.25Z"/>
          <path class="cls-2" d="M560.72,81.78c-1.79,4-5.36,8.15-8.76,8.29-3,.12-5.08-2.77-3.63-5.91,1-2.25,3.33-7.37,3.53-7.81a1.19,1.19,0,0,1,1.11-.69l2.1-.08c.65,0,.77.35.42,1.12s-3,5.68-4.1,8.59c-.74,1.87.32,2.58,1.29,2.54,1.19,0,2.66-1.13,4.35-3.52a16,16,0,0,0,2.06-4,5.38,5.38,0,0,1-.61-4.62,1.9,1.9,0,0,1,1.9-1.21c.87,0,1.6.86,1.61,2.59a13.76,13.76,0,0,1-.53,2.94,3.21,3.21,0,0,0,1.8.36c2.59-.1,4.19-2.16,4.86-2.94.46-.61.84-.63,1.13-.21.29.58.15,1-.36,1.8a7.49,7.49,0,0,1-5.93,3.2A4.48,4.48,0,0,1,560.72,81.78Z"/>
          <path class="cls-2" d="M565.27,80.68c2.1-4.35,5.69-6.54,8.77-6.66,1.94-.08,3,1,3.16,2.09a4,4,0,0,1-1,3c-2.07,2.35-5.67,2.82-7.83,2.79a12.83,12.83,0,0,0-.38,1.37c-.41,1.91.21,3.94,2.9,3.83,4.48-.17,9.36-6.63,11.44-10.17.56-.89,1-.8,1.29-.32s.2,1.07-.31,1.85c-1.46,2.65-7.1,10.54-13,10.77C565.23,89.44,563.17,85.09,565.27,80.68Zm4.08-.64a8.41,8.41,0,0,0,5.17-1.88c1.1-1,.84-2.09,0-2.05a4.7,4.7,0,0,0-3,1.52A13.2,13.2,0,0,0,569.35,80Z"/>
          <path class="cls-2" d="M585.66,70.16c3.12-5.85,5.68-9.57,9-9.7,2.75-.11,4.16,2.76,1.28,6.6a31.25,31.25,0,0,1-8.73,7.69c-1.61,3-3.42,6.62-4.22,8.27-1.15,2.37-.4,3.69,1,3.64,3.13-.12,8.43-7,10.57-10.19.61-.84,1-.8,1.28-.32a1.65,1.65,0,0,1-.31,1.85c-1.33,2-7,10.54-12.33,10.75-4,.16-4.91-3.92-3.11-7.61C581.39,78.38,585.46,70.54,585.66,70.16ZM591.88,69c5-5.11,4.06-6.8,2.87-6.76s-2.8,3.08-6,9.42A34.61,34.61,0,0,0,591.88,69Z"/>
          <path class="cls-2" d="M604.82,80.54c-1.54,3.57-5.33,7.56-8.78,7.69-4.53.18-6.32-4.13-4.12-8.59,2.31-4.63,6-6.56,8.77-6.66s4.75,1.33,4.87,4.4a7.52,7.52,0,0,1-.16,1.41,6.62,6.62,0,0,0,1.08,0,7.75,7.75,0,0,0,5.6-3.19c.46-.61.89-.68,1.18-.26a1.87,1.87,0,0,1-.36,2,8.83,8.83,0,0,1-6.84,3.29C605.74,80.62,605.31,80.58,604.82,80.54Zm-2.31-1-.34-.37a2.63,2.63,0,0,1-.61-1.71,2.67,2.67,0,0,1,1-2.31,1.16,1.16,0,0,0-1.1-.44c-2.81.11-6,4.5-6.95,7.51-.67,2.24-.11,4.06,1.94,4S601.39,82.73,602.51,79.5Z"/>
          <path class="cls-2" d="M622.41,80l-.35.77c-2.25,4.74-5.63,6.76-8.38,6.87-2.1.08-3.22-1-3.59-2.13-2.34,5-3.48,7.75-4.82,10.83a1.26,1.26,0,0,1-1.16.85l-1.83.07c-.65,0-.77-.46-.37-1.23,2.64-5.62,3.5-7.38,6.73-14.42,1-2.26,4.81-9.7,5.06-10.25a1.14,1.14,0,0,1,1.11-.69l1.78-.07c.65,0,.82.35.42,1.12l-1.31,2.43a5.08,5.08,0,0,1,3.44-1.86c3.24-.13,4.48,2.58,3.8,5.9l.59,0a7.49,7.49,0,0,0,5.55-3.24c.46-.61.89-.68,1.18-.21a1.73,1.73,0,0,1-.3,1.9,8.72,8.72,0,0,1-6.89,3.35ZM611.73,81.9c-.63,1.81-.12,3.79,1.87,3.71,2.81-.11,5-4,5.84-6.93a3.34,3.34,0,0,1-.89-1.91,2.77,2.77,0,0,1,.73-2.08,1.49,1.49,0,0,0-1.15-.44C615,74.37,612.61,79.38,611.73,81.9Z"/>
          <path class="cls-2" d="M632,75.92c2.17-2.46,4.17-3.89,6.17-4a2.68,2.68,0,0,1,3.07,2.53,3.35,3.35,0,0,1-.17,1.25c2.22-2.68,4.22-4.06,6.27-4.14,1.83-.07,3.17.9,3.24,2.68.09,2.43-2.54,5.45-4,7.61-1.18,1.67-.5,2.45.31,2.47,3.62-.14,8.17-6.75,10.24-10.34.56-.89,1.05-.74,1.29-.32.35.58.2,1.07-.25,1.9-1.47,2.6-6.39,10.63-11.68,10.83-2.37.09-3.72-1.1-3.79-2.88-.1-2.48,1.62-4.33,3.66-7.38.87-1.22.4-2.23-.57-2.19-1.46.06-3.17,1.8-5,4.25A77.4,77.4,0,0,0,636,86a1.11,1.11,0,0,1-1.11.64l-1.78.07c-.65,0-.77-.35-.42-1.06,2.42-4.47,3-5.74,4.56-9.09.6-1.27.34-2.23-.63-2.19-1.46.06-3.55,1.92-5.45,4.43a34.52,34.52,0,0,0-3.34,5.8c-.35.83-.54,1.26-.79,1.87a1.07,1.07,0,0,1-1.11.69l-1.46.06c-.65,0-.82-.35-.42-1.06,2-3.86,3.77-8.79,5.76-13.14a1.14,1.14,0,0,1,1.11-.69l2.1-.08c.59,0,.61.41.21,1.18Z"/>
          <path class="cls-2" d="M654.62,77.2c2.1-4.35,5.69-6.54,8.77-6.66,1.94-.08,3,1,3.16,2.09a4,4,0,0,1-1,3c-2.07,2.35-5.67,2.82-7.83,2.79a13.08,13.08,0,0,0-.38,1.37c-.41,1.91.21,3.94,2.91,3.83,4.48-.17,9.36-6.63,11.44-10.17.56-.89,1-.8,1.29-.32s.2,1.07-.31,1.85c-1.46,2.65-7.1,10.55-13,10.77C654.58,86,652.52,81.6,654.62,77.2Zm4.08-.64a8.4,8.4,0,0,0,5.17-1.88c1.1-1,.84-2.09,0-2.05a4.71,4.71,0,0,0-3,1.52A13.16,13.16,0,0,0,658.7,76.55Z"/>
          <path class="cls-2" d="M674,75.58c2.74-3.24,5.58-5.24,7.79-5.33,1.83-.07,3.17.9,3.24,2.68.09,2.43-2.65,5.45-4.13,7.62-1.18,1.67-.5,2.5.31,2.47,3.67-.14,8.33-6.76,10.46-10.35.56-.89,1-.74,1.23-.32.35.58.2,1.07-.25,1.9-1.46,2.6-6.5,10.63-11.79,10.84-2.37.09-3.83-1.09-3.9-2.87-.1-2.7,1.78-4.34,3.82-7.39.87-1.22.73-2.13-.24-2.1-1.46.06-5.59,3.46-7.94,7a42.22,42.22,0,0,0-2.83,5,1.07,1.07,0,0,1-1.11.69l-1.46.06c-.65,0-.83-.35-.42-1.06,2-3.86,3.77-8.79,5.76-13.14a1.14,1.14,0,0,1,1.11-.69l2.1-.08c.59,0,.61.41.21,1.18C675.52,72.65,674.76,74.09,674,75.58Z"/>
          <path class="cls-2" d="M688.44,78.31l4.14-7.46-1,0c-.92,0-1.15-.28-.95-.77.35-.66.68-.57,1.65-.61l1.19,0,2.22-3.92a1.14,1.14,0,0,1,1.11-.69l1.94-.08c.65,0,.82.35.47,1.06-.15.33-.91,1.71-1.92,3.48l2.75-.11c.65,0,1.24,0,1.05.66s-.83.84-1.7.88c-.38,0-1.62.06-2.92.06l-4.39,8c-1.15,2.31-.4,3.69,1.06,3.63,1.73-.07,4.31-1.68,6.71-5.23.61-.89,1-.8,1.28-.37a1.7,1.7,0,0,1-.25,1.9c-1.68,2.55-5,5.65-8.58,5.79C688.09,84.65,686.88,81.24,688.44,78.31Z"/>
        </g>
        <g>
          <path d="M372.86,94.63c-5.61.22-8.49-2.91-8.63-6.47a5.87,5.87,0,0,1,5.37-6.31c2.54-.1,3.56,1.32,3.77,2.45.27,1.34-1.07,1.61-1.58.93s-.7-1.32-2.16-1.27c-1.94.07-3.28,1.8-3.19,4.12.11,2.7,2.12,4.62,5.85,4.47,7.29-.28,11-10.75,15.72-20.88,2.14-4.62,5.52-11,9.1-14.79a11.89,11.89,0,0,0-2.87-.21c-6.75.26-11.45,3-14.82,7.93s-3.32,9.1-1.05,9c2.54-.1,4-3.56,4.62-4.94.69-1.65,2.4-.9,1.86.63-1,2.69-3.38,6.18-6.67,6.31-1.83.07-4.2-1-4.35-4.75-.2-5.13,6.37-15.49,20.34-16a17.39,17.39,0,0,1,4.67.41,8,8,0,0,1,2.75-1.51c1.5-.44,1.71.85.54,1.44a12.92,12.92,0,0,0-1.16.75,10.6,10.6,0,0,1,6.12,12.89,9.31,9.31,0,0,1-8.7,7c-3.67.14-5.2-1.74-5.38-3.47s1.66-1.85,1.87-.45c.2,1.07,1.16,2.06,3,2,2.54-.1,5.19-2.63,6.07-6.51.87-4.14-.86-8.13-4.71-9.81a30.78,30.78,0,0,0-4.12,6.54C388.65,76.89,385.05,94.16,372.86,94.63Z"/>
          <path d="M409.33,90.29c3.67-.14,8.12-6.48,10.2-10,.56-.89,1-.8,1.29-.32s.15,1.07-.31,1.85c-1.46,2.65-6.29,10.51-11.58,10.72-3.56.14-5.16-3.53-3.39-6.62a32.31,32.31,0,0,1,3.59-4.9c.82-1.11.69-1.76-.87-1.53a8.1,8.1,0,0,1-2.15.25c-1.14,2.64-3.9,8-6.92,11.13-.88.9-1.71,1.74-3.12,1.74-1.13,0-1.5-1-.29-2,3.78-3,6.23-6.62,8.52-11.46l-.22-.21c-.62-.73-.42-2.42.78-3.54s3.24-.18,1.89,2.68c-.05.05-.05,0,1.67-.28,2.42-.37,4.72-.83,4.88,1.7.13,2-2.92,5.52-4.55,8C407.61,89.12,408,90.35,409.33,90.29Z"/>
          <path d="M429.9,84.36c-1.54,3.57-5.33,7.56-8.78,7.69-4.53.18-6.32-4.13-4.12-8.6,2.31-4.63,6-6.56,8.77-6.66s4.75,1.33,4.87,4.4a7.53,7.53,0,0,1-.16,1.41,6.5,6.5,0,0,0,1.08,0,7.75,7.75,0,0,0,5.6-3.19c.46-.61.89-.68,1.18-.26a1.87,1.87,0,0,1-.36,2,8.83,8.83,0,0,1-6.84,3.29C430.82,84.43,430.39,84.39,429.9,84.36Zm-2.31-1-.34-.37a2.63,2.63,0,0,1-.61-1.71,2.67,2.67,0,0,1,1-2.31,1.16,1.16,0,0,0-1.1-.44c-2.8.11-6,4.5-6.95,7.51-.67,2.24-.11,4.06,1.94,4S426.47,86.54,427.59,83.31Z"/>
          <path d="M421.87,105.59a3.56,3.56,0,0,1-4-3.14c-.12-3.08,2.13-5,5.63-6.6,2.6-1.23,4.94-2.14,7.17-3.14,1.16-2.21,2.2-4.68,3.24-7s3.28-7.42,3.48-7.86a1.19,1.19,0,0,1,1.11-.69l2.1-.08c.65,0,.77.35.42,1.12l-5.95,12.39a27.8,27.8,0,0,0,11-11.29c.56-.89,1.05-.74,1.28-.32.35.58.2,1.07-.25,1.9-1.52,2.6-4.66,8.07-13.4,12.41C430.44,99.63,426.83,105.39,421.87,105.59Zm7.44-10.23c-3.67,1.6-6.75,2.86-8.21,4.32-1.72,1.74-1.2,3.94.85,3.86C424.16,103.44,426.78,99.93,429.3,95.35Zm13-27.31a2,2,0,0,1,2.18,2,2.08,2.08,0,1,1-4.16.16A2,2,0,0,1,442.34,68Z"/>
          <path d="M443.55,82.42c2.1-4.35,5.69-6.54,8.77-6.66,1.94-.07,3,1,3.16,2.09a4,4,0,0,1-1,3c-2.07,2.35-5.67,2.81-7.83,2.79a13.31,13.31,0,0,0-.38,1.37c-.41,1.91.21,3.94,2.91,3.83,4.48-.17,9.36-6.63,11.44-10.17.56-.89,1-.8,1.29-.32s.2,1.07-.31,1.85c-1.46,2.65-7.1,10.54-13,10.78C443.51,91.18,441.45,86.83,443.55,82.42Zm4.08-.64a8.39,8.39,0,0,0,5.17-1.87c1.1-1,.84-2.09,0-2.05a4.71,4.71,0,0,0-3,1.52A13.12,13.12,0,0,0,447.63,81.77Z"/>
          <path d="M458,81.86c2.41-4.74,6.07-6.56,8.82-6.67,3.94-.15,3.8,3.31,2.57,4.82-.93,1.12-2.11,1.32-2.72.81s-.49-1.55.57-2,.91-1.55,0-1.52c-.7,0-1.4.16-2.86,1.41a11.59,11.59,0,0,0-3.72,5.77c-.41,1.91.42,3.93,3,3.83,4.42-.17,9.36-6.63,11.44-10.17.56-.89,1-.8,1.28-.32s.15,1.07-.31,1.85c-1.46,2.65-7.1,10.55-13,10.78S456.05,85.72,458,81.86Z"/>
          <path d="M471.81,83.75,476,76.29l-1,0c-.92,0-1.15-.28-.95-.77.35-.66.68-.57,1.65-.61l1.19,0L479,71a1.14,1.14,0,0,1,1.11-.69l1.94-.08c.65,0,.82.35.47,1.06-.15.33-.91,1.71-1.92,3.48l2.75-.11c.65,0,1.24,0,1.05.66s-.83.84-1.7.88c-.38,0-1.62.06-2.92.06l-4.39,8c-1.15,2.31-.4,3.69,1.06,3.63,1.73-.07,4.31-1.68,6.71-5.23.61-.89,1-.8,1.28-.37a1.71,1.71,0,0,1-.25,1.9c-1.68,2.55-5,5.65-8.58,5.79C471.46,90.09,470.25,86.68,471.81,83.75Z"/>
          <path d="M501.84,87.34a8.73,8.73,0,0,1-4.41,1.85c-3.83.15-3.51-4.13-.27-4.26a18.54,18.54,0,0,1,4.56.58c2.49-2.74,5.59-7.73,10-17.84,3.12-7.31,6.16-12.4,9.18-15.44a12.87,12.87,0,0,0-4-.39,17.78,17.78,0,0,0-13.53,7.88c-3.53,5.11-3.43,9.05-1.06,9s4-3.4,4.57-4.88c.75-1.54,2.45-.85,1.86.68-1,2.69-3.38,6.24-6.62,6.31-1.83.07-3.88-1-4-4.76-.17-4.26,5.23-15.45,18.24-16a18.33,18.33,0,0,1,6,.74,10.2,10.2,0,0,1,3.71-2c1.5-.38,1.77,1.07.54,1.49a7.42,7.42,0,0,0-2.38,1.34c4.3,2.26,6.43,6.83,6.63,12.17a26.69,26.69,0,0,1-1.41,9.46c-3.2,9.31-9.4,15.34-17,15.63A30,30,0,0,1,501.84,87.34ZM527.65,62c-.18-4.59-1.92-7.6-4.79-9.05-2.33,2.63-4.42,7.3-7.82,15.71C510.42,80.09,506.18,83.6,503.57,86a29,29,0,0,0,7.65.84C521.47,86.41,528,70.59,527.65,62Z"/>
          <path d="M531,79c2.1-4.35,5.69-6.54,8.77-6.66,1.94-.07,3,1,3.16,2.09a4,4,0,0,1-1,3c-2.07,2.35-5.67,2.81-7.83,2.79a13.31,13.31,0,0,0-.38,1.37c-.41,1.91.21,3.94,2.91,3.83,4.48-.17,9.36-6.63,11.44-10.17.56-.89,1-.8,1.29-.32s.2,1.07-.31,1.85c-1.46,2.65-7.1,10.54-13,10.77C530.93,87.77,528.87,83.42,531,79Zm4.08-.64a8.39,8.39,0,0,0,5.17-1.88c1.1-1,.84-2.09,0-2.05a4.71,4.71,0,0,0-3,1.52A13.12,13.12,0,0,0,535,78.37Z"/>
          <path d="M557.6,78.89c-1.79,4-5.36,8.15-8.76,8.29-3,.12-5.08-2.77-3.63-5.91,1-2.25,3.33-7.37,3.53-7.81a1.19,1.19,0,0,1,1.11-.69l2.1-.08c.65,0,.77.35.42,1.12s-3,5.68-4.1,8.59c-.74,1.87.32,2.58,1.29,2.54,1.19,0,2.66-1.13,4.35-3.52a16,16,0,0,0,2.06-4,5.38,5.38,0,0,1-.61-4.62,1.9,1.9,0,0,1,1.9-1.21c.87,0,1.6.86,1.61,2.59a13.77,13.77,0,0,1-.53,2.94,3.22,3.22,0,0,0,1.8.36c2.59-.1,4.19-2.16,4.86-2.95.46-.61.84-.63,1.13-.21.29.58.15,1-.36,1.8a7.5,7.5,0,0,1-5.93,3.2A4.49,4.49,0,0,1,557.6,78.89Z"/>
          <path d="M562.15,77.8c2.1-4.35,5.69-6.54,8.77-6.66,1.94-.08,3,1,3.16,2.09a4,4,0,0,1-1,3c-2.07,2.35-5.67,2.82-7.83,2.79a12.71,12.71,0,0,0-.38,1.37c-.41,1.91.21,3.94,2.9,3.83,4.48-.18,9.36-6.63,11.44-10.17.56-.89,1-.8,1.29-.32s.2,1.07-.31,1.85c-1.46,2.65-7.1,10.54-13,10.77C562.11,86.55,560.05,82.2,562.15,77.8Zm4.08-.64a8.41,8.41,0,0,0,5.17-1.88c1.1-1,.84-2.09,0-2.05a4.7,4.7,0,0,0-3,1.52A13.24,13.24,0,0,0,566.23,77.15Z"/>
          <path d="M582.55,67.28c3.12-5.85,5.68-9.57,9-9.7,2.75-.11,4.16,2.76,1.28,6.6a31.25,31.25,0,0,1-8.73,7.69c-1.61,3-3.42,6.62-4.22,8.27-1.15,2.37-.4,3.69,1,3.64,3.13-.12,8.43-7,10.57-10.19.61-.84,1-.8,1.28-.32a1.65,1.65,0,0,1-.31,1.85c-1.33,2-7,10.54-12.33,10.75-4,.16-4.91-3.92-3.11-7.61C578.27,75.49,582.35,67.66,582.55,67.28Zm6.22-1.16c5-5.11,4.06-6.8,2.87-6.76s-2.8,3.08-6,9.42A34.45,34.45,0,0,0,588.77,66.11Z"/>
          <path d="M601.7,77.66c-1.54,3.57-5.33,7.56-8.78,7.69-4.53.18-6.32-4.13-4.12-8.6,2.31-4.63,6-6.56,8.77-6.66s4.75,1.33,4.87,4.4a7.51,7.51,0,0,1-.16,1.41,6.51,6.51,0,0,0,1.08,0,7.75,7.75,0,0,0,5.6-3.19c.46-.61.89-.68,1.18-.26a1.87,1.87,0,0,1-.36,2,8.83,8.83,0,0,1-6.84,3.29A12,12,0,0,1,601.7,77.66Zm-2.31-1-.34-.37a2.63,2.63,0,0,1-.61-1.71,2.67,2.67,0,0,1,1-2.31,1.16,1.16,0,0,0-1.1-.44c-2.81.11-6,4.5-6.95,7.51-.67,2.24-.11,4.06,1.94,4S598.28,79.85,599.39,76.62Z"/>
          <path d="M619.3,77.09l-.35.77c-2.25,4.73-5.63,6.76-8.38,6.87-2.1.08-3.22-1-3.59-2.13-2.34,5-3.48,7.75-4.82,10.83a1.26,1.26,0,0,1-1.16.86l-1.83.07c-.65,0-.77-.46-.37-1.23,2.64-5.62,3.5-7.38,6.73-14.42,1-2.26,4.81-9.7,5.06-10.25a1.14,1.14,0,0,1,1.11-.69l1.78-.07c.65,0,.82.35.42,1.12l-1.31,2.43A5.08,5.08,0,0,1,616,69.38c3.24-.13,4.48,2.58,3.8,5.9l.59,0A7.49,7.49,0,0,0,626,72c.46-.61.89-.68,1.18-.21a1.73,1.73,0,0,1-.3,1.9,8.72,8.72,0,0,1-6.89,3.35ZM608.62,79c-.63,1.81-.12,3.79,1.87,3.71,2.81-.11,5-4,5.84-6.93a3.34,3.34,0,0,1-.89-1.91,2.76,2.76,0,0,1,.73-2.08,1.48,1.48,0,0,0-1.15-.44C611.84,71.49,609.49,76.49,608.62,79Z"/>
          <path d="M628.92,73c2.17-2.46,4.17-3.89,6.17-4a2.68,2.68,0,0,1,3.07,2.53,3.35,3.35,0,0,1-.17,1.25c2.22-2.68,4.22-4.06,6.27-4.14,1.83-.07,3.17.9,3.24,2.69.09,2.43-2.54,5.45-4,7.61-1.18,1.67-.5,2.45.31,2.47,3.62-.14,8.17-6.75,10.24-10.34.56-.89,1.05-.74,1.29-.32.35.58.2,1.07-.25,1.9-1.47,2.6-6.39,10.63-11.68,10.83-2.37.09-3.72-1.1-3.79-2.88-.1-2.48,1.62-4.33,3.66-7.38.87-1.22.4-2.23-.57-2.19-1.46.06-3.17,1.8-5,4.25a77.28,77.28,0,0,0-4.78,7.75,1.11,1.11,0,0,1-1.11.64L630,83.8c-.65,0-.77-.35-.42-1.06,2.42-4.47,3-5.74,4.56-9.1.6-1.27.34-2.23-.63-2.19-1.46.06-3.55,1.92-5.45,4.43a34.48,34.48,0,0,0-3.34,5.8c-.35.82-.54,1.26-.79,1.87a1.07,1.07,0,0,1-1.11.69l-1.46.06c-.65,0-.82-.35-.42-1.06,2-3.86,3.77-8.79,5.76-13.14a1.14,1.14,0,0,1,1.11-.69l2.1-.08c.59,0,.61.41.21,1.18Z"/>
          <path d="M651.51,74.32c2.1-4.35,5.69-6.54,8.77-6.66,1.94-.07,3,1,3.16,2.09a4,4,0,0,1-1,3c-2.07,2.35-5.67,2.81-7.83,2.79a13,13,0,0,0-.38,1.37c-.41,1.91.21,3.94,2.91,3.83,4.48-.17,9.36-6.63,11.44-10.17.56-.89,1-.8,1.29-.32s.2,1.07-.31,1.85c-1.46,2.65-7.1,10.54-13,10.77C651.47,83.07,649.41,78.72,651.51,74.32Zm4.08-.64a8.4,8.4,0,0,0,5.17-1.88c1.1-1,.84-2.09,0-2.05a4.71,4.71,0,0,0-3,1.52A13.15,13.15,0,0,0,655.59,73.67Z"/>
          <path d="M670.9,72.7c2.74-3.24,5.58-5.24,7.79-5.33,1.83-.07,3.17.9,3.24,2.69.09,2.43-2.65,5.45-4.13,7.62-1.18,1.67-.5,2.51.31,2.47,3.67-.14,8.33-6.76,10.46-10.35.56-.89,1-.74,1.23-.32.35.58.2,1.07-.25,1.9C688.08,74,683,82,677.75,82.21c-2.37.09-3.83-1.09-3.9-2.87-.1-2.7,1.78-4.34,3.82-7.39.87-1.22.73-2.13-.24-2.1-1.46.06-5.59,3.46-7.94,7a42.26,42.26,0,0,0-2.83,5,1.07,1.07,0,0,1-1.11.69l-1.46.06c-.65,0-.83-.35-.42-1.06,2-3.86,3.77-8.79,5.76-13.14a1.14,1.14,0,0,1,1.11-.69l2.1-.08c.59,0,.61.41.21,1.18C672.41,69.77,671.65,71.21,670.9,72.7Z"/>
          <path d="M685.32,75.43,689.46,68l-1,0c-.92,0-1.15-.28-.95-.77.35-.66.68-.57,1.65-.61l1.19,0,2.22-3.92a1.14,1.14,0,0,1,1.11-.69l1.94-.08c.65,0,.82.35.47,1.06-.15.33-.91,1.71-1.92,3.48l2.75-.11c.65,0,1.24,0,1.05.66s-.83.84-1.7.88c-.38,0-1.62.06-2.92.06l-4.39,8c-1.15,2.31-.4,3.69,1.06,3.63,1.73-.07,4.31-1.68,6.71-5.23.61-.89,1-.79,1.28-.37a1.71,1.71,0,0,1-.25,1.9c-1.68,2.55-5,5.65-8.58,5.79C685,81.77,683.76,78.36,685.32,75.43Z"/>
        </g>
      </g>
    </g>
  </g>
</svg>
