<svg xmlns="http://www.w3.org/2000/svg" viewBox="0 0 482 53.58">
  <defs>
    <style>
      .cls-1 {
        fill: #eb4b2e;
      }

      .cls-2 {
        fill: #fff;
      }
    </style>
  </defs>
  <title>h4_small</title>
  <g id="Layer_2" data-name="Layer 2">
    <g id="Layer_4" data-name="Layer 4">
      <rect class="cls-1" width="482" height="53.58"/>
      <g>
        <path class="cls-2" d="M177.24,21.15a2.19,2.19,0,0,1,1.12-2c.86-.47,1.48.54.83,1a1.19,1.19,0,0,0-.54,1c0,.68.58,1.19,1.58,1.19a2.22,2.22,0,0,0,2.16-2.45c0-1.58-1.3-2.66-3.1-2.66A4.29,4.29,0,0,0,175,21.77c0,3.92,2.66,8,2.66,12.31a7.71,7.71,0,0,1-8,7.63c-4.43,0-7.16-2.81-7.16-6.52a6.12,6.12,0,0,1,5.87-6.33c2.38,0,4.07,1.48,4.07,3.49a3.35,3.35,0,0,1-2.7,3.38c-1.12.25-1.4-1.08-.4-1.3A2,2,0,0,0,171,32.35c0-1.19-.83-2.16-2.59-2.16-2.52,0-4.43,2.16-4.43,5,0,3.24,2.38,5.18,5.69,5.18s5.54-2.41,5.54-5.9c0-4.32-2.52-7.67-2.52-12.24A6.31,6.31,0,0,1,179,15.86c3.53,0,4.82,2.23,4.82,4a3.49,3.49,0,0,1-3.53,3.71C178.39,23.6,177.24,22.49,177.24,21.15Z"/>
        <path class="cls-2" d="M179.58,35.41c1.51-2.84,4-4.21,6-4.21,1.3,0,2,.72,2.05,1.48a2.66,2.66,0,0,1-.76,2c-1.44,1.51-3.85,1.73-5.29,1.66a8.89,8.89,0,0,0-.29.9c-.32,1.26,0,2.63,1.84,2.63,3,0,6.41-4.17,7.88-6.48.4-.58.68-.5.86-.18s.11.72-.25,1.22c-1,1.73-5,6.84-8.93,6.84C179.33,41.24,178.07,38.29,179.58,35.41Zm2.74-.32A5.6,5.6,0,0,0,185.81,34c.76-.65.61-1.37,0-1.37a3.14,3.14,0,0,0-2,.94A8.74,8.74,0,0,0,182.31,35.08Z"/>
        <path class="cls-2" d="M193.44,28.93c2.23-3.82,4-6.23,6.23-6.23,1.84,0,2.7,1.94.68,4.43a20.85,20.85,0,0,1-6,4.9c-1.15,2-2.45,4.32-3,5.4-.83,1.55-.36,2.45.58,2.45,2.09,0,5.79-4.46,7.31-6.51.43-.54.68-.5.86-.18a1.1,1.1,0,0,1-.25,1.22c-.94,1.3-5,6.84-8.5,6.84-2.66,0-3.17-2.74-1.87-5.15C190.38,34.29,193.29,29.18,193.44,28.93Zm4.17-.61c3.46-3.28,2.88-4.43,2.09-4.43s-1.94,2-4.21,6.12A22.94,22.94,0,0,0,197.61,28.32Z"/>
        <path class="cls-2" d="M197.29,35.41c1.51-2.84,4-4.21,6-4.21,1.3,0,2,.72,2.05,1.48a2.66,2.66,0,0,1-.76,2c-1.44,1.51-3.85,1.73-5.29,1.66a8.89,8.89,0,0,0-.29.9c-.32,1.26,0,2.63,1.84,2.63,3,0,6.41-4.17,7.88-6.48.4-.58.68-.5.86-.18s.11.72-.25,1.22c-1,1.73-5,6.84-8.93,6.84C197,41.24,195.78,38.29,197.29,35.41Zm2.74-.32A5.6,5.6,0,0,0,203.52,34c.76-.65.61-1.37,0-1.37a3.14,3.14,0,0,0-2,.94A8.74,8.74,0,0,0,200,35.08Z"/>
        <path class="cls-2" d="M206.9,35.41c1.73-3.09,4.21-4.21,6-4.21,2.63,0,2.45,2.3,1.58,3.28-.65.72-1.44.83-1.83.47s-.29-1,.43-1.33.65-1,.07-1a2.85,2.85,0,0,0-1.94.86,7.73,7.73,0,0,0-2.63,3.74,1.91,1.91,0,0,0,1.91,2.63c3,0,6.41-4.17,7.88-6.48.4-.58.68-.5.86-.18s.07.72-.25,1.22c-1,1.73-5,6.84-8.93,6.84S205.54,37.93,206.9,35.41Z"/>
        <path class="cls-2" d="M216.08,37l3-4.86h-.68c-.61,0-.76-.22-.61-.54s.47-.36,1.12-.36h.79l1.58-2.56a.76.76,0,0,1,.76-.43h1.3c.43,0,.54.25.29.72-.11.22-.65,1.12-1.37,2.27H224c.43,0,.83,0,.68.47s-.58.54-1.15.54c-.25,0-1.08,0-1.94,0l-3.13,5.18c-.83,1.51-.36,2.45.61,2.45,1.15,0,2.92-1,4.61-3.31.43-.58.68-.5.86-.22a1.14,1.14,0,0,1-.22,1.26c-1.19,1.66-3.46,3.64-5.87,3.64C215.69,41.24,215,38.94,216.08,37Z"/>
        <path class="cls-2" d="M239.23,32.78l.4-.61a.8.8,0,0,1,.76-.43h1.4c.4,0,.5.25.25.76s-2.37,4.07-3.28,5.62c-.65,1.15,0,1.69.61,1.69,1.15,0,2.88-1,4.61-3.35.43-.54.68-.47.86-.18a1.16,1.16,0,0,1-.25,1.26c-1.15,1.62-3.28,3.71-5.69,3.71a2.42,2.42,0,0,1-2.45-2,4.3,4.3,0,0,1-3.2,2c-2.81,0-3.89-3.28-2.3-6.08,1.87-3.38,4.25-4.1,5.9-4.1A2.26,2.26,0,0,1,239.23,32.78ZM238,34.65c.58-1.15.11-2.16-.83-2.16a3.14,3.14,0,0,0-2.12,1,8,8,0,0,0-2.34,3.71c-.32,1.26-.07,2.59,1,2.59C235.12,39.8,236.67,36.88,238,34.65Z"/>
        <path class="cls-2" d="M257.73,41.81c-3.64,0-5.47-2.16-5.47-4.54a4,4,0,0,1,3.67-4.14,2.24,2.24,0,0,1,2.45,1.8.64.64,0,0,1-1.12.58c-.32-.43-.43-.94-1.37-.94-1.26,0-2.16,1.12-2.16,2.7,0,1.76,1.4,3.1,3.85,3.1,4.86,0,7.85-7.38,11.09-13.61,1.12-2.12,2.16-4.07,3.2-5.69-3-.9-5.11-3.35-7.38-3.35a4.66,4.66,0,0,0-5,4.43,2,2,0,0,0,2,2.2A2.57,2.57,0,0,0,264,21.95a.7.7,0,1,1,1.37.25,3.92,3.92,0,0,1-3.89,3.53A3.46,3.46,0,0,1,258,22c0-3,2.74-5.9,7.05-5.9,3.38,0,5.22,2.59,7.74,3.56,1.62-2.34,3.17-3.74,4.75-3.74a1.63,1.63,0,0,1,1.8,1.66c0,1.76-2.05,3.78-5.36,3.78h-.22c-.07.18-.18.32-.25.47-1.73,3.13-2.66,5.94-5.76,12C264.82,39.62,261.08,41.81,257.73,41.81Zm20.19-24a.49.49,0,0,0-.54-.54c-.94,0-2,1.37-2.81,2.77h0C276.2,20,277.93,18.92,277.93,17.77Z"/>
        <path class="cls-2" d="M269,41.17h-.83c-.43,0-.54-.25-.29-.72,3.06-5.4,5.69-9.93,8.75-15.19a.76.76,0,0,1,.76-.43h1.37c.43,0,.5.25.25.72s-3.38,5.36-5,8.1c1.4-1.26,2.84-2.16,4.21-2.16a1.86,1.86,0,0,1,2.09,1.87c0,1.62-1.91,3.56-2.92,5-.83,1.08-.4,1.66.14,1.66,2.41,0,5.69-4.28,7.16-6.62.4-.58.72-.47.86-.18s.11.72-.22,1.26c-1.08,1.69-4.61,6.91-8.13,6.91-1.58,0-2.48-.83-2.48-2,0-1.8,1.26-2.84,2.7-4.82.58-.79.54-1.4-.14-1.4-.94,0-3.67,2-5.44,4.46-1.3,1.84-2,3.13-2,3.13A.84.84,0,0,1,269,41.17Z"/>
        <path class="cls-2" d="M282.9,35.41c1.51-2.84,4-4.21,6-4.21,1.3,0,2,.72,2.05,1.48a2.66,2.66,0,0,1-.76,2c-1.44,1.51-3.85,1.73-5.29,1.66a8.89,8.89,0,0,0-.29.9c-.32,1.26,0,2.63,1.84,2.63,3,0,6.41-4.17,7.88-6.48.4-.58.68-.5.86-.18s.11.72-.25,1.22c-1,1.73-5,6.84-8.93,6.84C282.64,41.24,281.38,38.29,282.9,35.41Zm2.74-.32A5.6,5.6,0,0,0,289.12,34c.76-.65.61-1.37,0-1.37a3.14,3.14,0,0,0-2,.94A8.74,8.74,0,0,0,285.63,35.08Z"/>
        <path class="cls-2" d="M296.36,34c1.51-1.58,2.88-2.48,4.21-2.48a1.78,1.78,0,0,1,2,1.76,2.24,2.24,0,0,1-.14.83c1.55-1.73,2.92-2.59,4.28-2.59a1.86,1.86,0,0,1,2.09,1.87c0,1.62-1.84,3.56-2.84,5-.83,1.08-.4,1.62.14,1.66,2.41,0,5.62-4.28,7.09-6.62.4-.58.72-.47.86-.18s.11.72-.22,1.26c-1,1.69-4.54,6.91-8.06,6.91-1.58,0-2.45-.83-2.45-2,0-1.66,1.19-2.84,2.63-4.82.61-.79.32-1.48-.32-1.48-1,0-2.16,1.12-3.46,2.7a51.27,51.27,0,0,0-3.38,5,.74.74,0,0,1-.76.4h-1.19c-.43,0-.5-.25-.25-.72,1.73-2.92,2.16-3.74,3.28-5.94.43-.83.29-1.48-.36-1.48-1,0-2.41,1.19-3.74,2.81a22.85,22.85,0,0,0-2.38,3.78c-.25.54-.4.83-.58,1.22a.71.71,0,0,1-.76.43h-1c-.43,0-.54-.25-.25-.72,1.4-2.52,2.74-5.76,4.17-8.6a.76.76,0,0,1,.76-.43h1.4c.4,0,.4.29.11.79Z"/>
        <path class="cls-2" d="M320.33,36.45c.43-.54.72-.47.86-.18s.14.76-.22,1.26c-1.15,1.62-3.6,3.71-6.48,3.71-3.38,0-4.68-3-3.17-5.83s4-4.21,6-4.21c1.3,0,2,.72,2.05,1.48a2.66,2.66,0,0,1-.76,2c-1.44,1.51-3.85,1.73-5.26,1.66a4,4,0,0,0-.32.9c-.32,1.26,0,2.63,1.84,2.63C316.56,39.84,318.64,38.76,320.33,36.45Zm-6.12-1.37A5.59,5.59,0,0,0,317.6,34c.72-.65.61-1.37,0-1.37a3.3,3.3,0,0,0-2,.94A8.39,8.39,0,0,0,314.22,35.08Z"/>
      </g>
      <g>
        <path d="M177.24,20.15a2.19,2.19,0,0,1,1.12-2c.86-.47,1.48.54.83,1a1.19,1.19,0,0,0-.54,1c0,.68.58,1.19,1.58,1.19a2.22,2.22,0,0,0,2.16-2.45c0-1.58-1.3-2.66-3.1-2.66A4.29,4.29,0,0,0,175,20.77c0,3.92,2.66,8,2.66,12.31a7.71,7.71,0,0,1-8,7.63c-4.43,0-7.16-2.81-7.16-6.52a6.12,6.12,0,0,1,5.87-6.33c2.38,0,4.07,1.48,4.07,3.49a3.35,3.35,0,0,1-2.7,3.38c-1.12.25-1.4-1.08-.4-1.3A2,2,0,0,0,171,31.35c0-1.19-.83-2.16-2.59-2.16-2.52,0-4.43,2.16-4.43,5,0,3.24,2.38,5.18,5.69,5.18s5.54-2.41,5.54-5.9c0-4.32-2.52-7.67-2.52-12.24A6.31,6.31,0,0,1,179,14.86c3.53,0,4.82,2.23,4.82,4a3.49,3.49,0,0,1-3.53,3.71C178.39,22.6,177.24,21.49,177.24,20.15Z"/>
        <path d="M179.58,34.41c1.51-2.84,4-4.21,6-4.21,1.3,0,2,.72,2.05,1.48a2.66,2.66,0,0,1-.76,2c-1.44,1.51-3.85,1.73-5.29,1.66a8.89,8.89,0,0,0-.29.9c-.32,1.26,0,2.63,1.84,2.63,3,0,6.41-4.17,7.88-6.48.4-.58.68-.5.86-.18s.11.72-.25,1.22c-1,1.73-5,6.84-8.93,6.84C179.33,40.24,178.07,37.29,179.58,34.41Zm2.74-.32A5.6,5.6,0,0,0,185.81,33c.76-.65.61-1.37,0-1.37a3.14,3.14,0,0,0-2,.94A8.74,8.74,0,0,0,182.31,34.08Z"/>
        <path d="M193.44,27.93c2.23-3.82,4-6.23,6.23-6.23,1.84,0,2.7,1.94.68,4.43a20.85,20.85,0,0,1-6,4.9c-1.15,2-2.45,4.32-3,5.4-.83,1.55-.36,2.45.58,2.45,2.09,0,5.79-4.46,7.31-6.51.43-.54.68-.5.86-.18a1.1,1.1,0,0,1-.25,1.22c-.94,1.3-5,6.84-8.5,6.84-2.66,0-3.17-2.74-1.87-5.15C190.38,33.29,193.29,28.18,193.44,27.93Zm4.17-.61c3.46-3.28,2.88-4.43,2.09-4.43s-1.94,2-4.21,6.12A22.94,22.94,0,0,0,197.61,27.32Z"/>
        <path d="M197.29,34.41c1.51-2.84,4-4.21,6-4.21,1.3,0,2,.72,2.05,1.48a2.66,2.66,0,0,1-.76,2c-1.44,1.51-3.85,1.73-5.29,1.66a8.89,8.89,0,0,0-.29.9c-.32,1.26,0,2.63,1.84,2.63,3,0,6.41-4.17,7.88-6.48.4-.58.68-.5.86-.18s.11.72-.25,1.22c-1,1.73-5,6.84-8.93,6.84C197,40.24,195.78,37.29,197.29,34.41Zm2.74-.32A5.6,5.6,0,0,0,203.52,33c.76-.65.61-1.37,0-1.37a3.14,3.14,0,0,0-2,.94A8.74,8.74,0,0,0,200,34.08Z"/>
        <path d="M206.9,34.41c1.73-3.09,4.21-4.21,6-4.21,2.63,0,2.45,2.3,1.58,3.28-.65.72-1.44.83-1.83.47s-.29-1,.43-1.33.65-1,.07-1a2.85,2.85,0,0,0-1.94.86,7.73,7.73,0,0,0-2.63,3.74,1.91,1.91,0,0,0,1.91,2.63c3,0,6.41-4.17,7.88-6.48.4-.58.68-.5.86-.18s.07.72-.25,1.22c-1,1.73-5,6.84-8.93,6.84S205.54,36.93,206.9,34.41Z"/>
        <path d="M216.08,36l3-4.86h-.68c-.61,0-.76-.22-.61-.54s.47-.36,1.12-.36h.79l1.58-2.56a.76.76,0,0,1,.76-.43h1.3c.43,0,.54.25.29.72-.11.22-.65,1.12-1.37,2.27H224c.43,0,.83,0,.68.47s-.58.54-1.15.54c-.25,0-1.08,0-1.94,0l-3.13,5.18c-.83,1.51-.36,2.45.61,2.45,1.15,0,2.92-1,4.61-3.31.43-.58.68-.5.86-.22a1.14,1.14,0,0,1-.22,1.26c-1.19,1.66-3.46,3.64-5.87,3.64C215.69,40.24,215,37.94,216.08,36Z"/>
        <path d="M239.23,31.78l.4-.61a.8.8,0,0,1,.76-.43h1.4c.4,0,.5.25.25.76s-2.37,4.07-3.28,5.62c-.65,1.15,0,1.69.61,1.69,1.15,0,2.88-1,4.61-3.35.43-.54.68-.47.86-.18a1.16,1.16,0,0,1-.25,1.26c-1.15,1.62-3.28,3.71-5.69,3.71a2.42,2.42,0,0,1-2.45-2,4.3,4.3,0,0,1-3.2,2c-2.81,0-3.89-3.28-2.3-6.08,1.87-3.38,4.25-4.1,5.9-4.1A2.26,2.26,0,0,1,239.23,31.78ZM238,33.65c.58-1.15.11-2.16-.83-2.16a3.14,3.14,0,0,0-2.12,1,8,8,0,0,0-2.34,3.71c-.32,1.26-.07,2.59,1,2.59C235.12,38.8,236.67,35.88,238,33.65Z"/>
        <path d="M257.73,40.81c-3.64,0-5.47-2.16-5.47-4.54a4,4,0,0,1,3.67-4.14,2.24,2.24,0,0,1,2.45,1.8.64.64,0,0,1-1.12.58c-.32-.43-.43-.94-1.37-.94-1.26,0-2.16,1.12-2.16,2.7,0,1.76,1.4,3.1,3.85,3.1,4.86,0,7.85-7.38,11.09-13.61,1.12-2.12,2.16-4.07,3.2-5.69-3-.9-5.11-3.35-7.38-3.35a4.66,4.66,0,0,0-5,4.43,2,2,0,0,0,2,2.2A2.57,2.57,0,0,0,264,20.95a.7.7,0,1,1,1.37.25,3.92,3.92,0,0,1-3.89,3.53A3.46,3.46,0,0,1,258,21c0-3,2.74-5.9,7.05-5.9,3.38,0,5.22,2.59,7.74,3.56,1.62-2.34,3.17-3.74,4.75-3.74a1.63,1.63,0,0,1,1.8,1.66c0,1.76-2.05,3.78-5.36,3.78h-.22c-.07.18-.18.32-.25.47-1.73,3.13-2.66,5.94-5.76,12C264.82,38.62,261.08,40.81,257.73,40.81Zm20.19-24a.49.49,0,0,0-.54-.54c-.94,0-2,1.37-2.81,2.77h0C276.2,19,277.93,17.92,277.93,16.77Z"/>
        <path d="M269,40.17h-.83c-.43,0-.54-.25-.29-.72,3.06-5.4,5.69-9.93,8.75-15.19a.76.76,0,0,1,.76-.43h1.37c.43,0,.5.25.25.72s-3.38,5.36-5,8.1c1.4-1.26,2.84-2.16,4.21-2.16a1.86,1.86,0,0,1,2.09,1.87c0,1.62-1.91,3.56-2.92,5-.83,1.08-.4,1.66.14,1.66,2.41,0,5.69-4.28,7.16-6.62.4-.58.72-.47.86-.18s.11.72-.22,1.26c-1.08,1.69-4.61,6.91-8.13,6.91-1.58,0-2.48-.83-2.48-2,0-1.8,1.26-2.84,2.7-4.82.58-.79.54-1.4-.14-1.4-.94,0-3.67,2-5.44,4.46-1.3,1.84-2,3.13-2,3.13A.84.84,0,0,1,269,40.17Z"/>
        <path d="M282.9,34.41c1.51-2.84,4-4.21,6-4.21,1.3,0,2,.72,2.05,1.48a2.66,2.66,0,0,1-.76,2c-1.44,1.51-3.85,1.73-5.29,1.66a8.89,8.89,0,0,0-.29.9c-.32,1.26,0,2.63,1.84,2.63,3,0,6.41-4.17,7.88-6.48.4-.58.68-.5.86-.18s.11.72-.25,1.22c-1,1.73-5,6.84-8.93,6.84C282.64,40.24,281.38,37.29,282.9,34.41Zm2.74-.32A5.6,5.6,0,0,0,289.12,33c.76-.65.61-1.37,0-1.37a3.14,3.14,0,0,0-2,.94A8.74,8.74,0,0,0,285.63,34.08Z"/>
        <path d="M296.36,33c1.51-1.58,2.88-2.48,4.21-2.48a1.78,1.78,0,0,1,2,1.76,2.24,2.24,0,0,1-.14.83c1.55-1.73,2.92-2.59,4.28-2.59a1.86,1.86,0,0,1,2.09,1.87c0,1.62-1.84,3.56-2.84,5-.83,1.08-.4,1.62.14,1.66,2.41,0,5.62-4.28,7.09-6.62.4-.58.72-.47.86-.18s.11.72-.22,1.26c-1,1.69-4.54,6.91-8.06,6.91-1.58,0-2.45-.83-2.45-2,0-1.66,1.19-2.84,2.63-4.82.61-.79.32-1.48-.32-1.48-1,0-2.16,1.12-3.46,2.7a51.27,51.27,0,0,0-3.38,5,.74.74,0,0,1-.76.4h-1.19c-.43,0-.5-.25-.25-.72,1.73-2.92,2.16-3.74,3.28-5.94.43-.83.29-1.48-.36-1.48-1,0-2.41,1.19-3.74,2.81a22.85,22.85,0,0,0-2.38,3.78c-.25.54-.4.83-.58,1.22a.71.71,0,0,1-.76.43h-1c-.43,0-.54-.25-.25-.72,1.4-2.52,2.74-5.76,4.17-8.6a.76.76,0,0,1,.76-.43h1.4c.4,0,.4.29.11.79Z"/>
        <path d="M320.33,35.45c.43-.54.72-.47.86-.18s.14.76-.22,1.26c-1.15,1.62-3.6,3.71-6.48,3.71-3.38,0-4.68-3-3.17-5.83s4-4.21,6-4.21c1.3,0,2,.72,2.05,1.48a2.66,2.66,0,0,1-.76,2c-1.44,1.51-3.85,1.73-5.26,1.66a4,4,0,0,0-.32.9c-.32,1.26,0,2.63,1.84,2.63C316.56,38.84,318.64,37.76,320.33,35.45Zm-6.12-1.37A5.59,5.59,0,0,0,317.6,33c.72-.65.61-1.37,0-1.37a3.3,3.3,0,0,0-2,.94A8.39,8.39,0,0,0,314.22,34.08Z"/>
      </g>
    </g>
  </g>
</svg>
