<svg xmlns="http://www.w3.org/2000/svg" viewBox="0 0 1061.13 53.58">
  <defs>
    <style>
      .cls-1 {
        fill: #ea6453;
      }

      .cls-2 {
        fill: #fff;
      }
    </style>
  </defs>
  <title>h5</title>
  <g id="Layer_2" data-name="Layer 2">
    <g id="Layer_4" data-name="Layer 4">
      <rect class="cls-1" width="1061.13" height="53.58"/>
      <g>
        <path class="cls-2" d="M453.64,15.65c2.63,0,3.71,1.55,3.71,3.6a7.49,7.49,0,0,1-.54,2.81c-1,2.77-5.18,9.57-6.84,13.17-1.4,3.06-.68,4.64.9,4.64,2.41,0,4.72-3.24,6.77-7.09,2.45-4.61,5.87-10.83,7.52-14.25a.76.76,0,0,1,.76-.43h1.4c.43,0,.54.25.29.72-1.76,3.82-7.31,13.32-9.61,18.39-.9,2.05-.07,2.59.61,2.59,2.05,0,5.29-4.14,6.77-6.44.4-.58.72-.5.86-.18s.11.72-.22,1.26c-1.08,1.69-4.5,6.8-8,6.8a2.55,2.55,0,0,1-2.52-2.77,6.1,6.1,0,0,1-4.86,2.81,3.41,3.41,0,0,1-3.6-3.71c0-3.53,4.61-9.75,6.95-14.76,1.84-3.89,1.37-5.83-.58-5.83-2.12,0-4.71,2.09-6,4.93-.86,1.8-.72,3.06.29,3.06s2-.94,3.17-3.64c.43-1.08,1.66-.5,1.22.54-1.33,3.31-3.1,4.5-4.54,4.5-2.05,0-2.66-2-1.76-4.32C446.87,19,450,15.65,453.64,15.65Z"/>
        <path class="cls-2" d="M472.47,36.42l-.25.5c-1.62,3.09-3.92,4.36-5.76,4.36a2.18,2.18,0,0,1-2.34-1.51c-1.69,3.28-2.52,5.08-3.49,7.09a.84.84,0,0,1-.79.54h-1.22c-.43,0-.5-.32-.22-.83,1.91-3.67,2.52-4.82,4.86-9.43.76-1.48,3.46-6.34,3.64-6.7a.76.76,0,0,1,.76-.43h1.19c.43,0,.54.25.25.76l-.94,1.58a3.39,3.39,0,0,1,2.34-1.15c2.16,0,2.92,1.84,2.38,4h.4a5,5,0,0,0,3.78-2c.32-.4.61-.43.79-.11a1.15,1.15,0,0,1-.25,1.26,5.82,5.82,0,0,1-4.68,2.05Zm-7.16,1c-.47,1.19-.18,2.52,1.15,2.52,1.87,0,3.46-2.56,4.07-4.46a2.23,2.23,0,0,1-.54-1.3,1.84,1.84,0,0,1,.54-1.37,1,1,0,0,0-.76-.32C467.65,32.49,466,35.77,465.31,37.42Z"/>
        <path class="cls-2" d="M479.38,28.93c2.23-3.82,4-6.23,6.23-6.23,1.84,0,2.7,1.94.68,4.43a20.85,20.85,0,0,1-6,4.9c-1.15,2-2.45,4.32-3,5.4-.83,1.55-.36,2.45.58,2.45,2.09,0,5.79-4.46,7.31-6.51.43-.54.68-.5.86-.18a1.1,1.1,0,0,1-.25,1.22c-.94,1.3-5,6.84-8.5,6.84-2.66,0-3.17-2.74-1.87-5.15C476.32,34.29,479.24,29.18,479.38,28.93Zm4.17-.61c3.46-3.28,2.88-4.43,2.09-4.43s-1.94,2-4.21,6.12A23.08,23.08,0,0,0,483.56,28.32Z"/>
        <path class="cls-2" d="M491.87,36.34c-1.12,2.34-3.74,4.9-6,4.9-3,0-4.1-2.92-2.52-5.83s4.18-4.21,6-4.21a2.82,2.82,0,0,1,3.13,3.06,5,5,0,0,1-.14.94,4.34,4.34,0,0,0,.72,0,5.16,5.16,0,0,0,3.82-2c.32-.4.61-.43.79-.14a1.24,1.24,0,0,1-.29,1.29,5.89,5.89,0,0,1-4.64,2C492.48,36.42,492.2,36.38,491.87,36.34Zm-1.51-.76-.22-.25a1.75,1.75,0,0,1-.36-1.15,1.78,1.78,0,0,1,.76-1.51.78.78,0,0,0-.72-.32c-1.87,0-4.14,2.84-4.82,4.82-.5,1.48-.18,2.7,1.19,2.7S489.53,37.71,490.36,35.59Z"/>
        <path class="cls-2" d="M502.93,32.78l.4-.61a.8.8,0,0,1,.76-.43h1.37c.43,0,.54.25.25.76s-2.41,4.07-3.28,5.62c-.68,1.15-.07,1.69.47,1.69,2.66,0,5.4-3.67,7.09-6.44.36-.58.68-.47.86-.18s.11.72-.22,1.26c-1.08,1.69-4.5,6.8-8,6.8a2.42,2.42,0,0,1-2.45-2,4.24,4.24,0,0,1-3.17,2c-2.84,0-3.67-3.2-2.16-6.08,1.69-3.24,4.1-4.1,5.65-4.1A2.36,2.36,0,0,1,502.93,32.78Zm-1.12,1.87c.58-1.15,0-2.16-.9-2.16a3.34,3.34,0,0,0-2.23,1,8,8,0,0,0-2.34,3.71c-.32,1.26,0,2.59,1.08,2.59C498.82,39.8,500.19,37.68,501.81,34.65Z"/>
        <path class="cls-2" d="M516.5,32.67c2-3.28,4.46-7.2,4.57-7.38a.76.76,0,0,1,.76-.43h1.37c.43,0,.54.22.25.72s-6.48,11-7.38,12.53c-.65,1.15,0,1.69.61,1.69,1.15,0,2.88-1,4.61-3.35.43-.54.68-.47.86-.18a1.17,1.17,0,0,1-.25,1.26c-1.15,1.62-3.28,3.71-5.69,3.71a2.42,2.42,0,0,1-2.45-2,4.3,4.3,0,0,1-3.2,2c-2.81,0-3.89-3.28-2.3-6.08,1.87-3.38,4.25-4.1,5.9-4.1A2.18,2.18,0,0,1,516.5,32.67Zm-1.19,2c.58-1.15.11-2.16-.83-2.16a3.14,3.14,0,0,0-2.12,1A8,8,0,0,0,510,37.21c-.32,1.26-.07,2.59,1,2.59C512.43,39.8,514,36.88,515.31,34.65Z"/>
        <path class="cls-2" d="M536.62,32.78l.4-.61a.8.8,0,0,1,.76-.43h1.4c.4,0,.5.25.25.76s-2.37,4.07-3.28,5.62c-.65,1.15,0,1.69.61,1.69,1.15,0,2.88-1,4.61-3.35.43-.54.68-.47.86-.18a1.16,1.16,0,0,1-.25,1.26c-1.15,1.62-3.28,3.71-5.69,3.71a2.42,2.42,0,0,1-2.45-2,4.3,4.3,0,0,1-3.2,2c-2.81,0-3.89-3.28-2.3-6.08,1.87-3.38,4.25-4.1,5.9-4.1A2.26,2.26,0,0,1,536.62,32.78Zm-1.22,1.87c.58-1.15.11-2.16-.83-2.16a3.14,3.14,0,0,0-2.12,1,8,8,0,0,0-2.34,3.71c-.32,1.26-.07,2.59,1,2.59C532.52,39.8,534.06,36.88,535.4,34.65Z"/>
        <path class="cls-2" d="M554.3,41.71c-3.74,0-5.58-2.16-5.58-4.54a3.91,3.91,0,0,1,3.74-4.07c1.69,0,2.34,1,2.45,1.73s-.76,1-1.08.58-.43-.9-1.4-.9a2.39,2.39,0,0,0-2.23,2.66c0,1.8,1.29,3.13,3.78,3.13,4.86,0,7.63-6.87,11-13.5,1.55-3,4-7.16,6.44-9.61a7.91,7.91,0,0,0-1.91-.22,11.69,11.69,0,0,0-10.08,4.9c-2.45,3.28-2.45,6-.94,6,1.69,0,2.74-2.27,3.2-3.17.5-1.08,1.62-.54,1.22.47-.76,1.76-2.41,4-4.61,4-1.22,0-2.77-.79-2.77-3.28,0-3.42,4.64-10.15,14-10.15a11.54,11.54,0,0,1,3.1.4,5.37,5.37,0,0,1,1.87-.94c1-.25,1.12.61.32,1a8.83,8.83,0,0,0-.79.47,7.07,7.07,0,0,1,3.74,8.75,6.21,6.21,0,0,1-6,4.43c-2.45,0-3.42-1.3-3.49-2.45s1.15-1.19,1.26-.25a1.75,1.75,0,0,0,1.94,1.4c1.69,0,3.53-1.62,4.21-4.17a5.62,5.62,0,0,0-2.88-6.66,20.44,20.44,0,0,0-2.92,4.25C565.27,30.3,562.43,41.71,554.3,41.71Z"/>
        <path class="cls-2" d="M572.15,41.17h-.83c-.43,0-.54-.25-.29-.72,3.06-5.4,5.69-9.93,8.75-15.19a.76.76,0,0,1,.76-.43h1.37c.43,0,.5.25.25.72s-3.38,5.36-5,8.1c1.4-1.26,2.84-2.16,4.21-2.16a1.86,1.86,0,0,1,2.09,1.87c0,1.62-1.91,3.56-2.92,5-.83,1.08-.4,1.66.14,1.66,2.41,0,5.69-4.28,7.16-6.62.4-.58.72-.47.86-.18s.11.72-.22,1.26c-1.08,1.69-4.61,6.91-8.13,6.91-1.58,0-2.48-.83-2.48-2,0-1.8,1.26-2.84,2.7-4.82.58-.79.54-1.4-.14-1.4-.94,0-3.67,2-5.44,4.46-1.3,1.84-2,3.13-2,3.13A.84.84,0,0,1,572.15,41.17Z"/>
        <path class="cls-2" d="M594.65,36.34c-1.12,2.34-3.74,4.9-6,4.9-3,0-4.1-2.92-2.52-5.83s4.18-4.21,6-4.21a2.82,2.82,0,0,1,3.13,3.06,5,5,0,0,1-.14.94,4.34,4.34,0,0,0,.72,0,5.16,5.16,0,0,0,3.82-2c.32-.4.61-.43.79-.14a1.24,1.24,0,0,1-.29,1.29,5.89,5.89,0,0,1-4.64,2C595.26,36.42,595,36.38,594.65,36.34Zm-1.51-.76-.22-.25a1.75,1.75,0,0,1-.36-1.15,1.78,1.78,0,0,1,.76-1.51.78.78,0,0,0-.72-.32c-1.87,0-4.14,2.84-4.82,4.82-.5,1.48-.18,2.7,1.19,2.7S592.31,37.71,593.14,35.59Z"/>
        <path class="cls-2" d="M599.62,32.67h-.9c-.58,0-.76-.22-.58-.58s.47-.36,1.08-.36h1l1.62-2.56a.8.8,0,0,1,.76-.43h1.33c.43,0,.54.22.25.72l-1.33,2.27h1.62c.4,0,.79,0,.65.5s-.58.54-1.12.54h-1.8c-1.12,1.8-2.34,3.82-2.81,4.64-.9,1.66-.36,2.45.61,2.45,2.09,0,5.8-4.32,7.27-6.51.4-.58.72-.5.86-.18A1.05,1.05,0,0,1,608,34.4c-1,1.37-5.08,6.84-8.6,6.84-2.81,0-3.64-2.2-2.16-4.68Z"/>
        <path class="cls-2" d="M614.05,36.34c-1.12,2.34-3.74,4.9-6,4.9-3,0-4.1-2.92-2.52-5.83s4.18-4.21,6-4.21a2.82,2.82,0,0,1,3.13,3.06,5,5,0,0,1-.14.94,4.34,4.34,0,0,0,.72,0,5.16,5.16,0,0,0,3.82-2c.32-.4.61-.43.79-.14a1.24,1.24,0,0,1-.29,1.29,5.89,5.89,0,0,1-4.64,2C614.67,36.42,614.38,36.38,614.05,36.34Zm-1.51-.76-.22-.25a1.75,1.75,0,0,1-.36-1.15,1.78,1.78,0,0,1,.76-1.51.78.78,0,0,0-.72-.32c-1.87,0-4.14,2.84-4.82,4.82-.5,1.48-.18,2.7,1.19,2.7S611.72,37.71,612.54,35.59Z"/>
      </g>
    </g>
  </g>
</svg>
