<svg xmlns="http://www.w3.org/2000/svg" viewBox="0 0 1061.13 53.58">
  <defs>
    <style>
      .cls-1 {
        fill: #ea6453;
      }

      .cls-2 {
        fill: #fff;
      }
    </style>
  </defs>
  <title>h6</title>
  <g id="Layer_2" data-name="Layer 2">
    <g id="Layer_4" data-name="Layer 4">
      <rect class="cls-1" width="1061.13" height="53.58"/>
      <g>
        <path class="cls-2" d="M452.36,17.45c-3.74,0-9,4.57-11.92,11.41S439,39.8,442.25,39.8c3.49,0,6.95-3.67,9.18-6.44.47-.54.68-.5.86-.18s.11.72-.22,1.22c-1.08,1.73-5.69,6.84-10.08,6.84-4.93,0-7.09-5.44-4.28-12.31,3.1-7.38,9.54-12.85,14.47-12.85s4.39,6.26.47,7.38c-1.48.43-2.2-.36-1.94-1.12s1.12-.68,1.91-.76C454.7,21.41,455.28,17.45,452.36,17.45Z"/>
        <path class="cls-2" d="M458.16,36.34c-1.12,2.34-3.74,4.9-6,4.9-3,0-4.1-2.92-2.52-5.83s4.18-4.21,6-4.21a2.82,2.82,0,0,1,3.13,3.06,5,5,0,0,1-.14.94,4.34,4.34,0,0,0,.72,0,5.16,5.16,0,0,0,3.82-2c.32-.4.61-.43.79-.14a1.24,1.24,0,0,1-.29,1.29,5.89,5.89,0,0,1-4.64,2C458.77,36.42,458.48,36.38,458.16,36.34Zm-1.51-.76-.22-.25a1.75,1.75,0,0,1-.36-1.15,1.78,1.78,0,0,1,.76-1.51.78.78,0,0,0-.72-.32c-1.87,0-4.14,2.84-4.82,4.82-.5,1.48-.18,2.7,1.19,2.7S455.82,37.71,456.65,35.59Z"/>
        <path class="cls-2" d="M464.82,34c1.51-1.58,2.88-2.48,4.21-2.48a1.78,1.78,0,0,1,2,1.76,2.24,2.24,0,0,1-.14.83c1.55-1.73,2.92-2.59,4.28-2.59a1.86,1.86,0,0,1,2.09,1.87c0,1.62-1.84,3.56-2.84,5-.83,1.08-.4,1.62.14,1.66,2.41,0,5.62-4.28,7.09-6.62.4-.58.72-.47.86-.18s.11.72-.22,1.26c-1,1.69-4.54,6.91-8.06,6.91-1.58,0-2.45-.83-2.45-2,0-1.66,1.19-2.84,2.63-4.82.61-.79.32-1.48-.32-1.48-1,0-2.16,1.12-3.46,2.7a51.27,51.27,0,0,0-3.38,5,.74.74,0,0,1-.76.4h-1.19c-.43,0-.5-.25-.25-.72,1.73-2.92,2.16-3.74,3.28-5.94.43-.83.29-1.48-.36-1.48-1,0-2.41,1.19-3.74,2.81a22.85,22.85,0,0,0-2.38,3.78c-.25.54-.4.83-.58,1.22a.71.71,0,0,1-.76.43h-1c-.43,0-.54-.25-.25-.72,1.4-2.52,2.74-5.76,4.17-8.6a.76.76,0,0,1,.76-.43h1.4c.4,0,.4.29.11.79Z"/>
        <path class="cls-2" d="M488.76,36.42l-.25.5c-1.62,3.09-3.92,4.36-5.76,4.36a2.18,2.18,0,0,1-2.34-1.51c-1.69,3.28-2.52,5.08-3.49,7.09a.84.84,0,0,1-.79.54H474.9c-.43,0-.5-.32-.22-.83,1.91-3.67,2.52-4.82,4.86-9.43.76-1.48,3.46-6.34,3.64-6.7a.76.76,0,0,1,.76-.43h1.19c.43,0,.54.25.25.76l-.94,1.58a3.39,3.39,0,0,1,2.34-1.15c2.16,0,2.92,1.84,2.38,4h.4a5,5,0,0,0,3.78-2c.32-.4.61-.43.79-.11a1.15,1.15,0,0,1-.25,1.26,5.82,5.82,0,0,1-4.68,2.05Zm-7.16,1c-.47,1.19-.18,2.52,1.15,2.52,1.87,0,3.46-2.56,4.07-4.46a2.23,2.23,0,0,1-.54-1.3,1.84,1.84,0,0,1,.54-1.37,1,1,0,0,0-.76-.32C483.94,32.49,482.24,35.77,481.6,37.42Z"/>
        <path class="cls-2" d="M506,32c1.08-1.22,1.58-1.76,2.12-1.87s1.19.11,1.15.68-.79.68-.68,1.15.79,1.87,1.08,3.17c.32,1.51.4,3.06-.4,4.1a14,14,0,0,0,3.06-2.48A21.32,21.32,0,0,0,515,33.39c.4-.61.68-.5.86-.22s.07.72-.25,1.26c-2.27,3.42-5.9,7-10.15,7-4,0-4.17-2.88-3.35-4.1a1.66,1.66,0,0,1,1.8-.94c1,.18.94,1.37.18,1.8s-.36,2,.83,2a2.65,2.65,0,0,0,2.3-1.8c.83-1.91,0-4.28-.29-5.65-1.12,1.4-3.74,3.56-6,3.56h-.86c-1.12,2.34-3.71,4.9-6,4.9-3.13,0-4.1-3-2.56-5.83,1.69-3.09,4.25-4.21,6-4.21a2.81,2.81,0,0,1,3.1,3.06,4.26,4.26,0,0,1-.14,1C502.83,35.23,504.85,33.28,506,32Zm-7.42,3.6a1.89,1.89,0,0,1-.58-1.4,1.78,1.78,0,0,1,.76-1.51.71.71,0,0,0-.68-.32c-2,0-4.32,3.1-4.86,4.86-.47,1.48-.18,2.66,1.19,2.66S497.72,37.68,498.55,35.59Z"/>
        <path class="cls-2" d="M522.17,36.45c.43-.54.72-.47.86-.18s.14.76-.22,1.26c-1.15,1.62-3.6,3.71-6.48,3.71-3.38,0-4.68-3-3.17-5.83s4-4.21,6-4.21c1.3,0,2,.72,2.05,1.48a2.66,2.66,0,0,1-.76,2c-1.44,1.51-3.85,1.73-5.26,1.66a4,4,0,0,0-.32.9c-.32,1.26,0,2.63,1.84,2.63C518.39,39.84,520.48,38.76,522.17,36.45ZM516,35.08A5.59,5.59,0,0,0,519.43,34c.72-.65.61-1.37,0-1.37a3.3,3.3,0,0,0-2,.94A8.39,8.39,0,0,0,516,35.08Z"/>
        <path class="cls-2" d="M537.65,32.78l.4-.61a.8.8,0,0,1,.76-.43h1.4c.4,0,.5.25.25.76s-2.37,4.07-3.28,5.62c-.65,1.15,0,1.69.61,1.69,1.15,0,2.88-1,4.61-3.35.43-.54.68-.47.86-.18a1.16,1.16,0,0,1-.25,1.26c-1.15,1.62-3.28,3.71-5.69,3.71a2.42,2.42,0,0,1-2.45-2,4.3,4.3,0,0,1-3.2,2c-2.81,0-3.89-3.28-2.3-6.08,1.87-3.38,4.25-4.1,5.9-4.1A2.26,2.26,0,0,1,537.65,32.78Zm-1.22,1.87c.58-1.15.11-2.16-.83-2.16a3.14,3.14,0,0,0-2.12,1,8,8,0,0,0-2.34,3.71c-.32,1.26-.07,2.59,1,2.59C533.54,39.8,535.09,36.88,536.42,34.65Z"/>
        <path class="cls-2" d="M554.56,40.2a5.82,5.82,0,0,1-3,1.12c-2.56,0-2.23-2.84-.07-2.84a12.32,12.32,0,0,1,3,.5c1.73-1.76,3.92-5,7.09-11.63,2.27-4.79,4.43-8.1,6.51-10a8.59,8.59,0,0,0-2.63-.36,11.85,11.85,0,0,0-9.21,4.9c-2.48,3.31-2.52,5.94-.94,5.94s2.74-2.16,3.17-3.13,1.66-.5,1.22.5c-.72,1.76-2.41,4.07-4.57,4-1.22,0-2.56-.79-2.56-3.28,0-2.84,3.89-10.15,12.56-10.15a12.21,12.21,0,0,1,4,.65,6.78,6.78,0,0,1,2.52-1.22c1-.22,1.15.76.32,1a5,5,0,0,0-1.62.83c2.81,1.62,4.1,4.72,4.1,8.28a17.79,17.79,0,0,1-1.19,6.26c-2.38,6.12-6.66,10-11.7,10A20,20,0,0,1,554.56,40.2ZM572.42,24c0-3.06-1.08-5.11-3-6.16-1.62,1.69-3.13,4.75-5.62,10.26-3.38,7.49-6.3,9.72-8.1,11.23a19.29,19.29,0,0,0,5.08.76C567.67,40.09,572.42,29.72,572.42,24Z"/>
        <path class="cls-2" d="M574.19,35.41c1.51-2.84,4-4.21,6-4.21,1.3,0,2,.72,2.05,1.48a2.66,2.66,0,0,1-.76,2c-1.44,1.51-3.85,1.73-5.29,1.66a8.89,8.89,0,0,0-.29.9c-.32,1.26,0,2.63,1.84,2.63,3,0,6.41-4.17,7.88-6.48.4-.58.68-.5.86-.18s.11.72-.25,1.22c-1,1.73-5,6.84-8.93,6.84C573.93,41.24,572.67,38.29,574.19,35.41Zm2.74-.32A5.6,5.6,0,0,0,580.41,34c.76-.65.61-1.37,0-1.37a3.14,3.14,0,0,0-2,.94A8.74,8.74,0,0,0,576.92,35.08Z"/>
        <path class="cls-2" d="M582.94,37a41.21,41.21,0,0,0,3.56-5c1-1.33,1.51-1.76,2.12-1.87s1.19.11,1.15.68-.79.68-.68,1.15c0,0,.72,1.91,1.08,3.17a4.55,4.55,0,0,1-.4,4.1,14,14,0,0,0,3.06-2.48,19.5,19.5,0,0,0,2.74-3.35c.4-.61.68-.5.86-.22s.14.72-.18,1.26c-2.3,3.42-6,7.06-10.19,7.06S581.82,38.25,582.94,37Zm2.56,3.28a2.65,2.65,0,0,0,2.3-1.84c.83-1.91,0-4.25-.29-5.62-.61.94-1.62,2.45-2.59,3.78a1,1,0,0,1-.25,1.62C583.8,38.72,584.3,40.23,585.49,40.23Z"/>
        <path class="cls-2" d="M596.22,32.17a.79.79,0,0,1,.76-.43h1.4c.43,0,.5.25.25.72-.43.83-2.37,4-3.35,5.65-.65,1.15,0,1.66.54,1.66,2.45,0,5.58-4.1,7.06-6.41.4-.58.68-.5.86-.18s.11.72-.25,1.22c-1,1.73-4.46,6.84-8,6.84-2.27,0-3.17-2.38-1.94-4.64C594.45,34.94,596.07,32.46,596.22,32.17Zm3.71-6.37a1.32,1.32,0,0,1,1.37,1.37,1.34,1.34,0,0,1-1.37,1.37,1.4,1.4,0,0,1-1.4-1.37A1.37,1.37,0,0,1,599.93,25.8Z"/>
        <path class="cls-2" d="M606.94,42.39c-2.05,3.82-4.75,7.88-8.13,7.88a2.34,2.34,0,0,1-2.52-2.2c0-2.05,1.55-3.28,3.92-4.25,1.76-.76,3.31-1.3,4.79-1.91.54-.86,1.08-1.87,1.55-2.81A4.9,4.9,0,0,1,603,41.28c-2.37,0-3.13-3.24-1.55-6.08,1.87-3.38,4.25-4.1,5.9-4.1a2.24,2.24,0,0,1,2.23,1.69l.32-.61a.76.76,0,0,1,.76-.43h1.37c.43,0,.54.25.29.76l-3.13,5.62-1.3,2.56a19.43,19.43,0,0,0,7.78-7.31c.4-.58.68-.47.86-.18s.07.72-.25,1.26a19.44,19.44,0,0,1-9.29,8ZM604,43.65c-2.48,1-4.57,1.73-5.58,2.66-1.19,1.12-.9,2.59.5,2.59S602.23,46.64,604,43.65Zm4.54-9.11c.54-1.08.07-2.05-.86-2.05a3.14,3.14,0,0,0-2.12,1,8.23,8.23,0,0,0-2.41,3.71c-.36,1.37-.36,2.52.58,2.52C605.47,39.73,607.2,36.81,608.56,34.54Z"/>
        <path class="cls-2" d="M613.39,41.28h-1c-.43,0-.54-.25-.25-.72,1.4-2.52,2.74-5.76,4.17-8.6a.76.76,0,0,1,.76-.43h1.4c.4,0,.4.29.11.79s-.86,1.55-1.4,2.52c1.91-2.09,3.85-3.35,5.33-3.35a1.86,1.86,0,0,1,2.09,1.87c0,1.62-1.91,3.56-3,5-.83,1.08-.25,1.66.29,1.66.86,0,2.77-1,4.46-3.35.43-.54.68-.5.86-.18a1,1,0,0,1-.22,1.22c-1.15,1.66-3.2,3.67-5.62,3.67-1.58,0-2.45-.83-2.45-2,0-1.8,1.3-2.84,2.74-4.82.61-.79.54-1.4-.11-1.4-1,0-3.82,2.16-5.47,4.46a31.92,31.92,0,0,0-2,3.28A.71.71,0,0,1,613.39,41.28Z"/>
      </g>
    </g>
  </g>
</svg>
