<svg xmlns="http://www.w3.org/2000/svg" viewBox="0 0 482 53.58">
  <defs>
    <style>
      .cls-1 {
        fill: #eb4b2e;
      }

      .cls-2 {
        fill: #fff;
      }
    </style>
  </defs>
  <title>h7_small</title>
  <g id="Layer_2" data-name="Layer 2">
    <g id="Layer_4" data-name="Layer 4">
      <rect class="cls-1" width="482" height="53.58"/>
      <g>
        <path class="cls-2" d="M43.55,16c5.51,0,5.36,6.55,3.24,12.31a37.43,37.43,0,0,1-3.42,7.13,110.52,110.52,0,0,0,7-9.5c6-8.57,7.74-8.06,8-8.13a.58.58,0,0,1,.47,1,8.23,8.23,0,0,0-1.58,2.52C55.65,25.11,54.6,32.42,53,35.8a85,85,0,0,0,5.18-7.31c3.85-6.08,6.66-10.62,11-10.62,3.56,0,4.32,3.17,3,5.25a4.3,4.3,0,0,1-4.25,1.76.73.73,0,0,1-.72-.68c0-.32.22-.65.79-.61a3.06,3.06,0,0,0,3-1.26,1.91,1.91,0,0,0-1.73-3.1c-3.38,0-5.83,3.92-9.75,10C56.73,33.39,52.8,39,49.71,41c-.61.4-1.48.25-1-.65a46.75,46.75,0,0,0,3.38-9.21c1-3.63,1.51-6.51,2.74-8.64-2.3,2.2-9.47,15.26-16.7,18.86a.56.56,0,0,1-.76-.25c-.22-.68.72-.4,4.43-6.8,3.24-5.58,6.84-17,1.55-17-2.88,0-5.83,3.17-7.2,5.94s-1.3,5.33.43,5.33c1.55,0,3.46-2.05,5-6.26.43-1.33,1.76-.76,1.33.43C41,27.85,38.84,30,36.17,30c-3.17,0-4.1-3.74-1.55-8.17C36.57,18.49,39.92,16,43.55,16Z"/>
        <path class="cls-2" d="M64.61,39.76c2.45,0,5.58-4.1,7.05-6.41.4-.58.68-.5.86-.18s.07.72-.25,1.22c-1,1.73-4.46,6.84-8,6.84-2.38,0-3.35-2.48-2.09-4.5a21.59,21.59,0,0,1,2.52-3.17c.58-.72.5-1.15-.54-1a5.42,5.42,0,0,1-1.44.11,28.18,28.18,0,0,1-4.9,7.24A2.86,2.86,0,0,1,55.72,41c-.76,0-1-.72-.14-1.33a19.88,19.88,0,0,0,6-7.42l-.14-.14A1.9,1.9,0,0,1,62,29.72c.9-.72,2.16,0,1.19,1.84,0,0,0,0,1.12-.14,1.62-.18,3.17-.43,3.2,1.26,0,1.33-2.09,3.6-3.24,5.18C63.5,38.94,63.71,39.76,64.61,39.76Z"/>
        <path class="cls-2" d="M72.28,32.17a.79.79,0,0,1,.76-.43h1.4c.43,0,.5.25.25.72-.43.83-2.38,4-3.35,5.65-.65,1.15,0,1.66.54,1.66,2.45,0,5.58-4.1,7.06-6.41.4-.58.68-.5.86-.18s.11.72-.25,1.22c-1,1.73-4.46,6.84-8,6.84-2.27,0-3.17-2.38-1.94-4.64C70.52,34.94,72.14,32.46,72.28,32.17ZM76,25.8a1.32,1.32,0,0,1,1.37,1.37A1.34,1.34,0,0,1,76,28.53a1.4,1.4,0,0,1-1.4-1.37A1.37,1.37,0,0,1,76,25.8Z"/>
        <path class="cls-2" d="M79.26,32.67h-.9c-.58,0-.76-.22-.58-.58s.47-.36,1.08-.36h1l1.62-2.56a.8.8,0,0,1,.76-.43h1.33c.43,0,.54.22.25.72l-1.33,2.27h1.62c.4,0,.79,0,.65.5s-.58.54-1.12.54h-1.8c-1.12,1.8-2.34,3.82-2.81,4.64-.9,1.66-.36,2.45.61,2.45,2.09,0,5.8-4.32,7.27-6.51.4-.58.72-.5.86-.18a1.05,1.05,0,0,1-.14,1.22c-1,1.37-5.08,6.84-8.6,6.84-2.81,0-3.64-2.2-2.16-4.68Z"/>
        <path class="cls-2" d="M94,36.45c.43-.54.72-.47.86-.18s.14.76-.22,1.26c-1.15,1.62-3.6,3.71-6.48,3.71-3.38,0-4.68-3-3.17-5.83s4-4.21,6-4.21c1.3,0,2,.72,2.05,1.48a2.66,2.66,0,0,1-.76,2c-1.44,1.51-3.85,1.73-5.26,1.66a4,4,0,0,0-.32.9c-.32,1.26,0,2.63,1.84,2.63C90.24,39.84,92.33,38.76,94,36.45ZM87.9,35.08A5.59,5.59,0,0,0,91.29,34c.72-.65.61-1.37,0-1.37a3.3,3.3,0,0,0-2,.94A8.39,8.39,0,0,0,87.9,35.08Z"/>
        <path class="cls-2" d="M109.5,32.78l.4-.61a.8.8,0,0,1,.76-.43h1.4c.4,0,.5.25.25.76s-2.37,4.07-3.28,5.62c-.65,1.15,0,1.69.61,1.69,1.15,0,2.88-1,4.61-3.35.43-.54.68-.47.86-.18a1.16,1.16,0,0,1-.25,1.26c-1.15,1.62-3.28,3.71-5.69,3.71a2.42,2.42,0,0,1-2.45-2,4.3,4.3,0,0,1-3.2,2c-2.81,0-3.89-3.28-2.3-6.08,1.87-3.38,4.25-4.1,5.9-4.1A2.26,2.26,0,0,1,109.5,32.78Zm-1.22,1.87c.58-1.15.11-2.16-.83-2.16a3.14,3.14,0,0,0-2.12,1A8,8,0,0,0,103,37.21c-.32,1.26-.07,2.59,1,2.59C105.4,39.8,106.95,36.88,108.28,34.65Z"/>
        <path class="cls-2" d="M124.91,21.91c-.86,1.8-.72,3.06.29,3.06s2-.94,3.17-3.64c.43-1.08,1.66-.5,1.22.54-1.33,3.31-3.1,4.5-4.54,4.5-2.05,0-2.66-2-1.76-4.32,1-2.74,4.25-6.41,7.92-6.41,2.38,0,3.71,1.84,3.67,4.17,1.37-2.16,3.1-3.38,4.93-3.38,2.48,0,3.38,1.66,3.38,3.89a2.41,2.41,0,0,1-.07.5c1.48-1.87,3.1-2.92,5.08-2.92,2.34,0,3.24,1.66,3.24,3.6,0,4.28-5.22,10.62-7.52,15.69-.94,2.05,0,2.59.61,2.59,2.09,0,5.33-4.14,6.8-6.44.4-.58.68-.5.86-.18s.07.72-.25,1.22c-1,1.73-4.46,6.84-8,6.84-2.2,0-3.42-2-2.16-5.08,1.08-2.52,4.14-6.84,6.52-11.52,1.87-3.71.79-5-.76-5-2.27,0-4.32,2.74-6.34,6.41-2.12,4.54-5.36,10.44-7.56,14.65a.71.71,0,0,1-.76.43h-1.37c-.43,0-.54-.22-.29-.72,1.62-3,6.23-11.77,8.89-17.64,1.55-3.31.76-4.57-.83-4.57-1.76,0-3,1.33-5.9,6.69-2.7,5.69-5.69,11-8.24,15.8a.71.71,0,0,1-.76.43H122.9c-.43,0-.54-.22-.29-.72,1.62-3,6.48-11.81,9.25-17.64,1.69-3.64,1-5.72-1-5.72S126.24,19.07,124.91,21.91Z"/>
        <path class="cls-2" d="M149.5,35.41c1.51-2.84,4-4.21,6-4.21,1.3,0,2,.72,2.05,1.48a2.66,2.66,0,0,1-.76,2c-1.44,1.51-3.85,1.73-5.29,1.66a8.89,8.89,0,0,0-.29.9c-.32,1.26,0,2.63,1.84,2.63,3,0,6.41-4.17,7.88-6.48.4-.58.68-.5.86-.18s.11.72-.25,1.22c-1,1.73-5,6.84-8.93,6.84C149.25,41.24,148,38.29,149.5,35.41Zm2.74-.32A5.6,5.6,0,0,0,155.73,34c.76-.65.61-1.37,0-1.37a3.14,3.14,0,0,0-2,.94A8.74,8.74,0,0,0,152.24,35.08Z"/>
        <path class="cls-2" d="M158.25,37a41.21,41.21,0,0,0,3.56-5c1-1.33,1.51-1.76,2.12-1.87s1.19.11,1.15.68-.79.68-.68,1.15c0,0,.72,1.91,1.08,3.17a4.55,4.55,0,0,1-.4,4.1,14,14,0,0,0,3.06-2.48,19.5,19.5,0,0,0,2.74-3.35c.4-.61.68-.5.86-.22s.14.72-.18,1.26c-2.3,3.42-6,7.06-10.19,7.06S157.13,38.25,158.25,37Zm2.56,3.28a2.65,2.65,0,0,0,2.3-1.84c.83-1.91,0-4.25-.29-5.62-.61.94-1.62,2.45-2.59,3.78a1,1,0,0,1-.25,1.62C159.11,38.72,159.62,40.23,160.8,40.23Z"/>
        <path class="cls-2" d="M168.22,37a41.21,41.21,0,0,0,3.56-5c1-1.33,1.51-1.76,2.12-1.87s1.19.11,1.15.68-.79.68-.68,1.15c0,0,.72,1.91,1.08,3.17a4.55,4.55,0,0,1-.4,4.1,14,14,0,0,0,3.06-2.48,19.5,19.5,0,0,0,2.74-3.35c.4-.61.68-.5.86-.22s.14.72-.18,1.26c-2.3,3.42-6,7.06-10.19,7.06S167.1,38.25,168.22,37Zm2.56,3.28a2.65,2.65,0,0,0,2.3-1.84c.83-1.91,0-4.25-.29-5.62-.61.94-1.62,2.45-2.59,3.78a1,1,0,0,1-.25,1.62C169.08,38.72,169.59,40.23,170.78,40.23Z"/>
        <path class="cls-2" d="M187.3,32.78l.4-.61a.8.8,0,0,1,.76-.43h1.37c.43,0,.54.25.25.76s-2.41,4.07-3.28,5.62c-.68,1.15-.07,1.69.47,1.69,2.66,0,5.4-3.67,7.09-6.44.36-.58.68-.47.86-.18s.11.72-.22,1.26c-1.08,1.69-4.5,6.8-8,6.8a2.42,2.42,0,0,1-2.45-2,4.24,4.24,0,0,1-3.17,2c-2.84,0-3.67-3.2-2.16-6.08,1.69-3.24,4.1-4.1,5.65-4.1A2.36,2.36,0,0,1,187.3,32.78Zm-1.12,1.87c.58-1.15,0-2.16-.9-2.16a3.34,3.34,0,0,0-2.23,1,8,8,0,0,0-2.34,3.71c-.32,1.26,0,2.59,1.08,2.59C183.19,39.8,184.56,37.68,186.18,34.65Z"/>
        <path class="cls-2" d="M198.46,42.39c-2.05,3.82-4.75,7.88-8.13,7.88a2.34,2.34,0,0,1-2.52-2.2c0-2.05,1.55-3.28,3.92-4.25,1.76-.76,3.31-1.3,4.79-1.91.54-.86,1.08-1.87,1.55-2.81a4.9,4.9,0,0,1-3.53,2.16c-2.37,0-3.13-3.24-1.55-6.08,1.87-3.38,4.25-4.1,5.9-4.1a2.24,2.24,0,0,1,2.23,1.69l.32-.61a.76.76,0,0,1,.76-.43h1.37c.43,0,.54.25.29.76l-3.13,5.62-1.3,2.56a19.43,19.43,0,0,0,7.78-7.31c.4-.58.68-.47.86-.18s.07.72-.25,1.26a19.44,19.44,0,0,1-9.29,8Zm-2.92,1.26c-2.48,1-4.57,1.73-5.58,2.66-1.19,1.12-.9,2.59.5,2.59S193.74,46.64,195.54,43.65Zm4.54-9.11c.54-1.08.07-2.05-.86-2.05a3.14,3.14,0,0,0-2.12,1,8.23,8.23,0,0,0-2.41,3.71c-.36,1.37-.36,2.52.58,2.52C197,39.73,198.71,36.81,200.08,34.54Z"/>
        <path class="cls-2" d="M214.33,36.45c.43-.54.72-.47.86-.18s.14.76-.22,1.26c-1.15,1.62-3.6,3.71-6.48,3.71-3.38,0-4.68-3-3.17-5.83s4-4.21,6-4.21c1.3,0,2,.72,2.05,1.48a2.66,2.66,0,0,1-.76,2c-1.44,1.51-3.85,1.73-5.26,1.66a4,4,0,0,0-.32.9c-.32,1.26,0,2.63,1.84,2.63C210.55,39.84,212.64,38.76,214.33,36.45Zm-6.12-1.37A5.59,5.59,0,0,0,211.6,34c.72-.65.61-1.37,0-1.37a3.3,3.3,0,0,0-2,.94A8.39,8.39,0,0,0,208.21,35.08Z"/>
        <path class="cls-2" d="M233.7,34.69c0-4.57,7.81-5,12.63-6.8,2.34-.86,3-1.76,3-2.45s-.65-1-1.66-.68-1.44-.72-.47-1.19c1.8-.86,3.67-.18,3.67,1.76s-1.66,3.35-6,4.61C248,34.8,243.63,42,236.18,42c-5.33,0-8.5-3.38-8.5-7.67,0-5.72,5.51-9.07,10.08-9.9a4.92,4.92,0,0,1-1-3c0-3.64,3.6-5.54,6.59-5.54,3.24,0,4.39,1.73,4.39,3.31,0,2.2-2.09,3.92-4.9,3.63a.65.65,0,1,1,.11-1.3c2.23.18,3.38-.9,3.38-2.34,0-1.12-.76-1.94-2.56-1.94a5,5,0,0,0-4.82,5,3.71,3.71,0,0,0,.5,1.94h.32c1.51,0,2.12.5,2.12,1s-.36.65-.94.79a2.92,2.92,0,0,1-2.3-.58c-3.31.54-8.32,3.67-8.32,9.61a5.47,5.47,0,0,0,5.8,5.65,7.14,7.14,0,0,0,7.34-7,4.3,4.3,0,0,0-1.19-3.1c-4.75,1.22-7,2.45-7,4.36a1,1,0,0,0,1,1.15c.9,0,1.87-.72,2.41-2.3.29-.9,1.44-.58,1.12.47-.47,1.44-1.62,3.06-3.53,3.06A2.53,2.53,0,0,1,233.7,34.69Z"/>
        <path class="cls-2" d="M264.09,41.71c-3.6,0-5.4-2.16-5.4-4.5a3.85,3.85,0,0,1,3.67-4c1.76,0,2.52,1,2.63,1.76s-.76,1-1.08.61-.47-1-1.51-1a2.36,2.36,0,0,0-2.23,2.63c0,1.76,1.22,3.06,3.56,3.06,5,0,7.7-7.31,11.19-13.46,1.91-3.31,4.43-7.13,7.16-9.39a7.33,7.33,0,0,0-2.7-.47,11.75,11.75,0,0,0-9.9,4.93c-2.45,3.28-2.45,6-.94,6,1.69,0,2.74-2.27,3.2-3.17.5-1.08,1.62-.54,1.22.47-.76,1.76-2.41,4-4.61,4-1.22,0-2.77-.79-2.77-3.28,0-3.42,4.82-10.15,13.53-10.15a10.12,10.12,0,0,1,4.07.79,6.79,6.79,0,0,1,2-.94c.86-.25,1.19.36.32.9a9.16,9.16,0,0,0-1.12.79,7,7,0,0,1,2.84,5.94,9.91,9.91,0,0,1-.76,3.89c-1.44,3.49-4.72,8.57-5.44,10.4s.14,2.27.83,2.27c2.05,0,5.29-4.14,6.77-6.44.4-.58.76-.47.94-.18s.11.72-.25,1.26c-1,1.69-4.28,6.8-8.06,6.8-1.91,0-3.78-1.84-2.05-5.36,1-2,2.3-4,3.49-6.08a8.72,8.72,0,0,0-3.56,1c-.58.29-.65.29-1.08-.43a3.22,3.22,0,0,0-1.66-1.58C273,35.37,270.35,41.71,264.09,41.71Zm19.4-13.35,1-1.94a8.58,8.58,0,0,0,1-4,5,5,0,0,0-2-4.25A38,38,0,0,0,277,27.49a4.34,4.34,0,0,1,2.23,1.76A10.64,10.64,0,0,1,283.49,28.35Z"/>
        <path class="cls-2" d="M292.52,39.22a4.41,4.41,0,0,1-3.24,2.05c-2.84,0-3.89-3.28-2.3-6.08,1.87-3.38,4.25-4.1,5.9-4.1a2.29,2.29,0,0,1,2.38,1.73l4.5-7.52a.83.83,0,0,1,.76-.43h1.4c.43,0,.54.22.25.72-.65,1.08-4.82,8.24-7.34,12.49-.68,1.15,0,1.62.5,1.62,2.45,0,5.54-4,7-6.33.4-.58.68-.47.86-.18s.07.72-.25,1.26c-1,1.69-4.46,6.8-8,6.8A2.4,2.4,0,0,1,292.52,39.22Zm1.55-4.57c.58-1.15.07-2.16-.86-2.16a3,3,0,0,0-2.16,1,8.29,8.29,0,0,0-2.38,3.71c-.32,1.3,0,2.59,1.08,2.59C291.12,39.8,292.6,37.17,294.07,34.65Z"/>
        <path class="cls-2" d="M306.17,39.22a4.41,4.41,0,0,1-3.24,2.05c-2.84,0-3.89-3.28-2.3-6.08,1.87-3.38,4.25-4.1,5.9-4.1a2.29,2.29,0,0,1,2.38,1.73l4.5-7.52a.83.83,0,0,1,.76-.43h1.4c.43,0,.54.22.25.72-.65,1.08-4.82,8.24-7.34,12.49-.68,1.15,0,1.62.5,1.62,2.45,0,5.54-4,7-6.33.4-.58.68-.47.86-.18s.07.72-.25,1.26c-1,1.69-4.46,6.8-8,6.8A2.4,2.4,0,0,1,306.17,39.22Zm1.55-4.57c.58-1.15.07-2.16-.86-2.16a3,3,0,0,0-2.16,1,8.29,8.29,0,0,0-2.38,3.71c-.32,1.3,0,2.59,1.08,2.59C304.77,39.8,306.24,37.17,307.72,34.65Z"/>
        <path class="cls-2" d="M316.75,32.13l-.07-.11c-.4-.58-.11-1.58.76-2.3s2.05.18,1,1.84l1.12-.14c1.62-.18,3.17-.43,3.2,1.26,0,1.33-2.09,3.6-3.24,5.18-.79,1.08-.58,1.91.32,1.91,2.45,0,5.58-4.1,7.05-6.41.4-.58.68-.5.86-.18s.07.72-.25,1.22c-1,1.73-4.46,6.84-8,6.84-2.38,0-3.24-2.52-2-4.5a30.36,30.36,0,0,1,2.52-3.17c.61-.72.47-1.19-.65-1a7.37,7.37,0,0,1-1.66.11,33.24,33.24,0,0,1-2.16,3.2c-.43.5-.79.36-1,.25s-.29-.47,0-.86A32.76,32.76,0,0,0,316.75,32.13Z"/>
        <path class="cls-2" d="M325.1,35.41c1.51-2.84,4-4.21,6-4.21,1.3,0,2,.72,2.05,1.48a2.66,2.66,0,0,1-.76,2c-1.44,1.51-3.85,1.73-5.29,1.66a8.89,8.89,0,0,0-.29.9c-.32,1.26,0,2.63,1.84,2.63,3,0,6.41-4.17,7.88-6.48.4-.58.68-.5.86-.18s.11.72-.25,1.22c-1,1.73-5,6.84-8.93,6.84C324.85,41.24,323.59,38.29,325.1,35.41Zm2.74-.32A5.6,5.6,0,0,0,331.33,34c.76-.65.61-1.37,0-1.37a3.14,3.14,0,0,0-2,.94A8.74,8.74,0,0,0,327.84,35.08Z"/>
        <path class="cls-2" d="M333.85,37a41.21,41.21,0,0,0,3.56-5c1-1.33,1.51-1.76,2.12-1.87s1.19.11,1.15.68-.79.68-.68,1.15c0,0,.72,1.91,1.08,3.17a4.55,4.55,0,0,1-.4,4.1,14,14,0,0,0,3.06-2.48,19.5,19.5,0,0,0,2.74-3.35c.4-.61.68-.5.86-.22s.14.72-.18,1.26c-2.3,3.42-6,7.06-10.19,7.06S332.74,38.25,333.85,37Zm2.56,3.28a2.65,2.65,0,0,0,2.3-1.84c.83-1.91,0-4.25-.29-5.62-.61.94-1.62,2.45-2.59,3.78a1,1,0,0,1-.25,1.62C334.72,38.72,335.22,40.23,336.41,40.23Z"/>
        <path class="cls-2" d="M343.61,37.32a5.49,5.49,0,0,1,.5-.65A41.26,41.26,0,0,0,347.42,32c1-1.33,1.51-1.76,2.12-1.87s1.19.11,1.15.68-.79.68-.68,1.15c0,0,.72,1.91,1.08,3.17.54,1.87.4,3.49-.79,4.54a9.43,9.43,0,0,0,3.46-3.06c.43-.58.68-.5.86-.22s.14.76-.22,1.26A9,9,0,0,1,347,41.46C342.92,41.46,342.78,38.54,343.61,37.32Zm2.23-.76a1,1,0,0,1-.25,1.62c-.86.54-.36,2.05.83,2.05a2.65,2.65,0,0,0,2.3-1.84c.83-1.91,0-4.25-.29-5.62C347.82,33.72,346.81,35.23,345.84,36.56Z"/>
        <path class="cls-2" d="M363,32.67h-.9c-.58,0-.76-.22-.58-.58s.47-.36,1.08-.36h1l1.62-2.56a.8.8,0,0,1,.76-.43h1.33c.43,0,.54.22.25.72l-1.33,2.27h1.62c.4,0,.79,0,.65.5s-.58.54-1.12.54h-1.8c-1.12,1.8-2.34,3.82-2.81,4.64-.9,1.66-.36,2.45.61,2.45,2.09,0,5.8-4.32,7.27-6.51.4-.58.72-.5.86-.18a1.05,1.05,0,0,1-.14,1.22c-1,1.37-5.08,6.84-8.6,6.84-2.81,0-3.64-2.2-2.16-4.68Z"/>
        <path class="cls-2" d="M367.62,41.17h-.83c-.43,0-.54-.25-.29-.72,3.06-5.4,5.69-9.93,8.75-15.19a.76.76,0,0,1,.76-.43h1.37c.43,0,.5.25.25.72s-3.38,5.36-5,8.1c1.4-1.26,2.84-2.16,4.21-2.16a1.86,1.86,0,0,1,2.09,1.87c0,1.62-1.91,3.56-2.92,5-.83,1.08-.4,1.66.14,1.66,2.41,0,5.69-4.28,7.16-6.62.4-.58.72-.47.86-.18s.11.72-.22,1.26c-1.08,1.69-4.61,6.91-8.13,6.91-1.58,0-2.48-.83-2.48-2,0-1.8,1.26-2.84,2.7-4.82.58-.79.54-1.4-.14-1.4-.94,0-3.67,2-5.44,4.46-1.3,1.84-2,3.13-2,3.13A.84.84,0,0,1,367.62,41.17Z"/>
        <path class="cls-2" d="M390.44,36.45c.43-.54.72-.47.86-.18s.14.76-.22,1.26c-1.15,1.62-3.6,3.71-6.48,3.71-3.38,0-4.68-3-3.17-5.83s4-4.21,6-4.21c1.3,0,2,.72,2.05,1.48a2.66,2.66,0,0,1-.76,2c-1.44,1.51-3.85,1.73-5.26,1.66a4,4,0,0,0-.32.9c-.32,1.26,0,2.63,1.84,2.63C386.66,39.84,388.75,38.76,390.44,36.45Zm-6.12-1.37A5.59,5.59,0,0,0,387.71,34c.72-.65.61-1.37,0-1.37a3.3,3.3,0,0,0-2,.94A8.39,8.39,0,0,0,384.32,35.08Z"/>
        <path class="cls-2" d="M415.35,17.45c-3.74,0-9,4.57-11.92,11.41S402,39.8,405.24,39.8c3.49,0,6.95-3.67,9.18-6.44.47-.54.68-.5.86-.18s.11.72-.22,1.22c-1.08,1.73-5.69,6.84-10.08,6.84-4.93,0-7.09-5.44-4.28-12.31,3.1-7.38,9.54-12.85,14.47-12.85s4.39,6.26.47,7.38c-1.48.43-2.2-.36-1.94-1.12s1.12-.68,1.91-.76C417.69,21.41,418.27,17.45,415.35,17.45Z"/>
        <path class="cls-2" d="M418,39.26a4.24,4.24,0,0,1-3.17,2c-2.84,0-3.67-3.2-2.16-6.08,1.69-3.24,4.1-4.1,5.65-4.1a2.36,2.36,0,0,1,2.45,1.69l.4-.61a.8.8,0,0,1,.76-.43h1.37c.43,0,.54.25.25.76s-2.41,4.07-3.28,5.62c-.68,1.15-.07,1.69.47,1.69,1.91,0,4.64-4.64,6.66-7.67l-.07-.07c-.4-.5-.11-1.62.76-2.3s2.05.14,1.08,1.8c0,0,0,0,1.12-.14,1.58-.18,3.17-.43,3.17,1.26,0,1.37-2.09,3.6-3.24,5.18-.79,1.08-.58,1.91.32,1.91,2.45,0,5.58-4.1,7.05-6.41.4-.58.68-.47.86-.18s.07.72-.25,1.26c-1,1.69-4.46,6.8-8,6.8-2.38,0-3.24-2.48-2-4.46a25,25,0,0,1,2.52-3.2c.58-.68.5-1.15-.54-1a8.28,8.28,0,0,1-1.76.11l-1,1.58c-1,1.73-4.39,7-7.24,7A2.2,2.2,0,0,1,418,39.26Zm1.66-4.61c.58-1.15,0-2.16-.9-2.16a3.34,3.34,0,0,0-2.23,1,8,8,0,0,0-2.34,3.71c-.32,1.26,0,2.59,1.08,2.59C416.65,39.8,418,37.68,419.64,34.65Z"/>
        <path class="cls-2" d="M444,32.67c2-3.28,4.46-7.2,4.57-7.38a.76.76,0,0,1,.76-.43h1.37c.43,0,.54.22.25.72s-6.48,11-7.38,12.53c-.65,1.15,0,1.69.61,1.69,1.15,0,2.88-1,4.61-3.35.43-.54.68-.47.86-.18a1.17,1.17,0,0,1-.25,1.26c-1.15,1.62-3.28,3.71-5.69,3.71a2.42,2.42,0,0,1-2.45-2,4.3,4.3,0,0,1-3.2,2c-2.81,0-3.89-3.28-2.3-6.08,1.87-3.38,4.25-4.1,5.9-4.1A2.18,2.18,0,0,1,444,32.67Zm-1.19,2c.58-1.15.11-2.16-.83-2.16a3.14,3.14,0,0,0-2.12,1,8,8,0,0,0-2.34,3.71c-.32,1.26-.07,2.59,1,2.59C440,39.8,441.53,36.88,442.86,34.65Z"/>
      </g>
      <g>
        <path d="M43.55,15c5.51,0,5.36,6.55,3.24,12.31a37.43,37.43,0,0,1-3.42,7.13,110.52,110.52,0,0,0,7-9.5c6-8.57,7.74-8.06,8-8.13a.58.58,0,0,1,.47,1,8.23,8.23,0,0,0-1.58,2.52C55.65,24.11,54.6,31.42,53,34.8a85,85,0,0,0,5.18-7.31c3.85-6.08,6.66-10.62,11-10.62,3.56,0,4.32,3.17,3,5.25a4.3,4.3,0,0,1-4.25,1.76.73.73,0,0,1-.72-.68c0-.32.22-.65.79-.61a3.06,3.06,0,0,0,3-1.26,1.91,1.91,0,0,0-1.73-3.1c-3.38,0-5.83,3.92-9.75,10C56.73,32.39,52.8,38,49.71,40c-.61.4-1.48.25-1-.65a46.75,46.75,0,0,0,3.38-9.21c1-3.63,1.51-6.51,2.74-8.64-2.3,2.2-9.47,15.26-16.7,18.86a.56.56,0,0,1-.76-.25c-.22-.68.72-.4,4.43-6.8,3.24-5.58,6.84-17,1.55-17-2.88,0-5.83,3.17-7.2,5.94s-1.3,5.33.43,5.33c1.55,0,3.46-2.05,5-6.26.43-1.33,1.76-.76,1.33.43C41,26.85,38.84,29,36.17,29c-3.17,0-4.1-3.74-1.55-8.17C36.57,17.49,39.92,15,43.55,15Z"/>
        <path d="M64.61,38.76c2.45,0,5.58-4.1,7.05-6.41.4-.58.68-.5.86-.18s.07.72-.25,1.22c-1,1.73-4.46,6.84-8,6.84-2.38,0-3.35-2.48-2.09-4.5a21.59,21.59,0,0,1,2.52-3.17c.58-.72.5-1.15-.54-1a5.42,5.42,0,0,1-1.44.11,28.18,28.18,0,0,1-4.9,7.24A2.86,2.86,0,0,1,55.72,40c-.76,0-1-.72-.14-1.33a19.88,19.88,0,0,0,6-7.42l-.14-.14A1.9,1.9,0,0,1,62,28.72c.9-.72,2.16,0,1.19,1.84,0,0,0,0,1.12-.14,1.62-.18,3.17-.43,3.2,1.26,0,1.33-2.09,3.6-3.24,5.18C63.5,37.94,63.71,38.76,64.61,38.76Z"/>
        <path d="M72.28,31.17a.79.79,0,0,1,.76-.43h1.4c.43,0,.5.25.25.72-.43.83-2.38,4-3.35,5.65-.65,1.15,0,1.66.54,1.66,2.45,0,5.58-4.1,7.06-6.41.4-.58.68-.5.86-.18s.11.72-.25,1.22c-1,1.73-4.46,6.84-8,6.84-2.27,0-3.17-2.38-1.94-4.64C70.52,33.94,72.14,31.46,72.28,31.17ZM76,24.8a1.32,1.32,0,0,1,1.37,1.37A1.34,1.34,0,0,1,76,27.53a1.4,1.4,0,0,1-1.4-1.37A1.37,1.37,0,0,1,76,24.8Z"/>
        <path d="M79.26,31.67h-.9c-.58,0-.76-.22-.58-.58s.47-.36,1.08-.36h1l1.62-2.56a.8.8,0,0,1,.76-.43h1.33c.43,0,.54.22.25.72l-1.33,2.27h1.62c.4,0,.79,0,.65.5s-.58.54-1.12.54h-1.8c-1.12,1.8-2.34,3.82-2.81,4.64-.9,1.66-.36,2.45.61,2.45,2.09,0,5.8-4.32,7.27-6.51.4-.58.72-.5.86-.18a1.05,1.05,0,0,1-.14,1.22c-1,1.37-5.08,6.84-8.6,6.84-2.81,0-3.64-2.2-2.16-4.68Z"/>
        <path d="M94,35.45c.43-.54.72-.47.86-.18s.14.76-.22,1.26c-1.15,1.62-3.6,3.71-6.48,3.71-3.38,0-4.68-3-3.17-5.83s4-4.21,6-4.21c1.3,0,2,.72,2.05,1.48a2.66,2.66,0,0,1-.76,2c-1.44,1.51-3.85,1.73-5.26,1.66a4,4,0,0,0-.32.9c-.32,1.26,0,2.63,1.84,2.63C90.24,38.84,92.33,37.76,94,35.45ZM87.9,34.08A5.59,5.59,0,0,0,91.29,33c.72-.65.61-1.37,0-1.37a3.3,3.3,0,0,0-2,.94A8.39,8.39,0,0,0,87.9,34.08Z"/>
        <path d="M109.5,31.78l.4-.61a.8.8,0,0,1,.76-.43h1.4c.4,0,.5.25.25.76s-2.37,4.07-3.28,5.62c-.65,1.15,0,1.69.61,1.69,1.15,0,2.88-1,4.61-3.35.43-.54.68-.47.86-.18a1.16,1.16,0,0,1-.25,1.26c-1.15,1.62-3.28,3.71-5.69,3.71a2.42,2.42,0,0,1-2.45-2,4.3,4.3,0,0,1-3.2,2c-2.81,0-3.89-3.28-2.3-6.08,1.87-3.38,4.25-4.1,5.9-4.1A2.26,2.26,0,0,1,109.5,31.78Zm-1.22,1.87c.58-1.15.11-2.16-.83-2.16a3.14,3.14,0,0,0-2.12,1A8,8,0,0,0,103,36.21c-.32,1.26-.07,2.59,1,2.59C105.4,38.8,106.95,35.88,108.28,33.65Z"/>
        <path d="M124.91,20.91c-.86,1.8-.72,3.06.29,3.06s2-.94,3.17-3.64c.43-1.08,1.66-.5,1.22.54-1.33,3.31-3.1,4.5-4.54,4.5-2.05,0-2.66-2-1.76-4.32,1-2.74,4.25-6.41,7.92-6.41,2.38,0,3.71,1.84,3.67,4.17,1.37-2.16,3.1-3.38,4.93-3.38,2.48,0,3.38,1.66,3.38,3.89a2.41,2.41,0,0,1-.07.5c1.48-1.87,3.1-2.92,5.08-2.92,2.34,0,3.24,1.66,3.24,3.6,0,4.28-5.22,10.62-7.52,15.69-.94,2.05,0,2.59.61,2.59,2.09,0,5.33-4.14,6.8-6.44.4-.58.68-.5.86-.18s.07.72-.25,1.22c-1,1.73-4.46,6.84-8,6.84-2.2,0-3.42-2-2.16-5.08,1.08-2.52,4.14-6.84,6.52-11.52,1.87-3.71.79-5-.76-5-2.27,0-4.32,2.74-6.34,6.41-2.12,4.54-5.36,10.44-7.56,14.65a.71.71,0,0,1-.76.43h-1.37c-.43,0-.54-.22-.29-.72,1.62-3,6.23-11.77,8.89-17.64,1.55-3.31.76-4.57-.83-4.57-1.76,0-3,1.33-5.9,6.69-2.7,5.69-5.69,11-8.24,15.8a.71.71,0,0,1-.76.43H122.9c-.43,0-.54-.22-.29-.72,1.62-3,6.48-11.81,9.25-17.64,1.69-3.64,1-5.72-1-5.72S126.24,18.07,124.91,20.91Z"/>
        <path d="M149.5,34.41c1.51-2.84,4-4.21,6-4.21,1.3,0,2,.72,2.05,1.48a2.66,2.66,0,0,1-.76,2c-1.44,1.51-3.85,1.73-5.29,1.66a8.89,8.89,0,0,0-.29.9c-.32,1.26,0,2.63,1.84,2.63,3,0,6.41-4.17,7.88-6.48.4-.58.68-.5.86-.18s.11.72-.25,1.22c-1,1.73-5,6.84-8.93,6.84C149.25,40.24,148,37.29,149.5,34.41Zm2.74-.32A5.6,5.6,0,0,0,155.73,33c.76-.65.61-1.37,0-1.37a3.14,3.14,0,0,0-2,.94A8.74,8.74,0,0,0,152.24,34.08Z"/>
        <path d="M158.25,36a41.21,41.21,0,0,0,3.56-5c1-1.33,1.51-1.76,2.12-1.87s1.19.11,1.15.68-.79.68-.68,1.15c0,0,.72,1.91,1.08,3.17a4.55,4.55,0,0,1-.4,4.1,14,14,0,0,0,3.06-2.48,19.5,19.5,0,0,0,2.74-3.35c.4-.61.68-.5.86-.22s.14.72-.18,1.26c-2.3,3.42-6,7.06-10.19,7.06S157.13,37.25,158.25,36Zm2.56,3.28a2.65,2.65,0,0,0,2.3-1.84c.83-1.91,0-4.25-.29-5.62-.61.94-1.62,2.45-2.59,3.78a1,1,0,0,1-.25,1.62C159.11,37.72,159.62,39.23,160.8,39.23Z"/>
        <path d="M168.22,36a41.21,41.21,0,0,0,3.56-5c1-1.33,1.51-1.76,2.12-1.87s1.19.11,1.15.68-.79.68-.68,1.15c0,0,.72,1.91,1.08,3.17a4.55,4.55,0,0,1-.4,4.1,14,14,0,0,0,3.06-2.48,19.5,19.5,0,0,0,2.74-3.35c.4-.61.68-.5.86-.22s.14.72-.18,1.26c-2.3,3.42-6,7.06-10.19,7.06S167.1,37.25,168.22,36Zm2.56,3.28a2.65,2.65,0,0,0,2.3-1.84c.83-1.91,0-4.25-.29-5.62-.61.94-1.62,2.45-2.59,3.78a1,1,0,0,1-.25,1.62C169.08,37.72,169.59,39.23,170.78,39.23Z"/>
        <path d="M187.3,31.78l.4-.61a.8.8,0,0,1,.76-.43h1.37c.43,0,.54.25.25.76s-2.41,4.07-3.28,5.62c-.68,1.15-.07,1.69.47,1.69,2.66,0,5.4-3.67,7.09-6.44.36-.58.68-.47.86-.18s.11.72-.22,1.26c-1.08,1.69-4.5,6.8-8,6.8a2.42,2.42,0,0,1-2.45-2,4.24,4.24,0,0,1-3.17,2c-2.84,0-3.67-3.2-2.16-6.08,1.69-3.24,4.1-4.1,5.65-4.1A2.36,2.36,0,0,1,187.3,31.78Zm-1.12,1.87c.58-1.15,0-2.16-.9-2.16a3.34,3.34,0,0,0-2.23,1,8,8,0,0,0-2.34,3.71c-.32,1.26,0,2.59,1.08,2.59C183.19,38.8,184.56,36.68,186.18,33.65Z"/>
        <path d="M198.46,41.39c-2.05,3.82-4.75,7.88-8.13,7.88a2.34,2.34,0,0,1-2.52-2.2c0-2.05,1.55-3.28,3.92-4.25,1.76-.76,3.31-1.3,4.79-1.91.54-.86,1.08-1.87,1.55-2.81a4.9,4.9,0,0,1-3.53,2.16c-2.37,0-3.13-3.24-1.55-6.08,1.87-3.38,4.25-4.1,5.9-4.1a2.24,2.24,0,0,1,2.23,1.69l.32-.61a.76.76,0,0,1,.76-.43h1.37c.43,0,.54.25.29.76l-3.13,5.62-1.3,2.56a19.43,19.43,0,0,0,7.78-7.31c.4-.58.68-.47.86-.18s.07.72-.25,1.26a19.44,19.44,0,0,1-9.29,8Zm-2.92,1.26c-2.48,1-4.57,1.73-5.58,2.66-1.19,1.12-.9,2.59.5,2.59S193.74,45.64,195.54,42.65Zm4.54-9.11c.54-1.08.07-2.05-.86-2.05a3.14,3.14,0,0,0-2.12,1,8.23,8.23,0,0,0-2.41,3.71c-.36,1.37-.36,2.52.58,2.52C197,38.73,198.71,35.81,200.08,33.54Z"/>
        <path d="M214.33,35.45c.43-.54.72-.47.86-.18s.14.76-.22,1.26c-1.15,1.62-3.6,3.71-6.48,3.71-3.38,0-4.68-3-3.17-5.83s4-4.21,6-4.21c1.3,0,2,.72,2.05,1.48a2.66,2.66,0,0,1-.76,2c-1.44,1.51-3.85,1.73-5.26,1.66a4,4,0,0,0-.32.9c-.32,1.26,0,2.63,1.84,2.63C210.55,38.84,212.64,37.76,214.33,35.45Zm-6.12-1.37A5.59,5.59,0,0,0,211.6,33c.72-.65.61-1.37,0-1.37a3.3,3.3,0,0,0-2,.94A8.39,8.39,0,0,0,208.21,34.08Z"/>
        <path d="M233.7,33.69c0-4.57,7.81-5,12.63-6.8,2.34-.86,3-1.76,3-2.45s-.65-1-1.66-.68-1.44-.72-.47-1.19c1.8-.86,3.67-.18,3.67,1.76s-1.66,3.35-6,4.61C248,33.8,243.63,41,236.18,41c-5.33,0-8.5-3.38-8.5-7.67,0-5.72,5.51-9.07,10.08-9.9a4.92,4.92,0,0,1-1-3c0-3.64,3.6-5.54,6.59-5.54,3.24,0,4.39,1.73,4.39,3.31,0,2.2-2.09,3.92-4.9,3.63a.65.65,0,1,1,.11-1.3c2.23.18,3.38-.9,3.38-2.34,0-1.12-.76-1.94-2.56-1.94a5,5,0,0,0-4.82,5,3.71,3.71,0,0,0,.5,1.94h.32c1.51,0,2.12.5,2.12,1s-.36.65-.94.79a2.92,2.92,0,0,1-2.3-.58c-3.31.54-8.32,3.67-8.32,9.61a5.47,5.47,0,0,0,5.8,5.65,7.14,7.14,0,0,0,7.34-7,4.3,4.3,0,0,0-1.19-3.1c-4.75,1.22-7,2.45-7,4.36a1,1,0,0,0,1,1.15c.9,0,1.87-.72,2.41-2.3.29-.9,1.44-.58,1.12.47-.47,1.44-1.62,3.06-3.53,3.06A2.53,2.53,0,0,1,233.7,33.69Z"/>
        <path d="M264.09,40.71c-3.6,0-5.4-2.16-5.4-4.5a3.85,3.85,0,0,1,3.67-4c1.76,0,2.52,1,2.63,1.76s-.76,1-1.08.61-.47-1-1.51-1a2.36,2.36,0,0,0-2.23,2.63c0,1.76,1.22,3.06,3.56,3.06,5,0,7.7-7.31,11.19-13.46,1.91-3.31,4.43-7.13,7.16-9.39a7.33,7.33,0,0,0-2.7-.47,11.75,11.75,0,0,0-9.9,4.93c-2.45,3.28-2.45,6-.94,6,1.69,0,2.74-2.27,3.2-3.17.5-1.08,1.62-.54,1.22.47-.76,1.76-2.41,4-4.61,4-1.22,0-2.77-.79-2.77-3.28,0-3.42,4.82-10.15,13.53-10.15a10.12,10.12,0,0,1,4.07.79,6.79,6.79,0,0,1,2-.94c.86-.25,1.19.36.32.9a9.16,9.16,0,0,0-1.12.79,7,7,0,0,1,2.84,5.94,9.91,9.91,0,0,1-.76,3.89c-1.44,3.49-4.72,8.57-5.44,10.4s.14,2.27.83,2.27c2.05,0,5.29-4.14,6.77-6.44.4-.58.76-.47.94-.18s.11.72-.25,1.26c-1,1.69-4.28,6.8-8.06,6.8-1.91,0-3.78-1.84-2.05-5.36,1-2,2.3-4,3.49-6.08a8.72,8.72,0,0,0-3.56,1c-.58.29-.65.29-1.08-.43a3.22,3.22,0,0,0-1.66-1.58C273,34.37,270.35,40.71,264.09,40.71Zm19.4-13.35,1-1.94a8.58,8.58,0,0,0,1-4,5,5,0,0,0-2-4.25A38,38,0,0,0,277,26.49a4.34,4.34,0,0,1,2.23,1.76A10.64,10.64,0,0,1,283.49,27.35Z"/>
        <path d="M292.52,38.22a4.41,4.41,0,0,1-3.24,2.05c-2.84,0-3.89-3.28-2.3-6.08,1.87-3.38,4.25-4.1,5.9-4.1a2.29,2.29,0,0,1,2.38,1.73l4.5-7.52a.83.83,0,0,1,.76-.43h1.4c.43,0,.54.22.25.72-.65,1.08-4.82,8.24-7.34,12.49-.68,1.15,0,1.62.5,1.62,2.45,0,5.54-4,7-6.33.4-.58.68-.47.86-.18s.07.72-.25,1.26c-1,1.69-4.46,6.8-8,6.8A2.4,2.4,0,0,1,292.52,38.22Zm1.55-4.57c.58-1.15.07-2.16-.86-2.16a3,3,0,0,0-2.16,1,8.29,8.29,0,0,0-2.38,3.71c-.32,1.3,0,2.59,1.08,2.59C291.12,38.8,292.6,36.17,294.07,33.65Z"/>
        <path d="M306.17,38.22a4.41,4.41,0,0,1-3.24,2.05c-2.84,0-3.89-3.28-2.3-6.08,1.87-3.38,4.25-4.1,5.9-4.1a2.29,2.29,0,0,1,2.38,1.73l4.5-7.52a.83.83,0,0,1,.76-.43h1.4c.43,0,.54.22.25.72-.65,1.08-4.82,8.24-7.34,12.49-.68,1.15,0,1.62.5,1.62,2.45,0,5.54-4,7-6.33.4-.58.68-.47.86-.18s.07.72-.25,1.26c-1,1.69-4.46,6.8-8,6.8A2.4,2.4,0,0,1,306.17,38.22Zm1.55-4.57c.58-1.15.07-2.16-.86-2.16a3,3,0,0,0-2.16,1,8.29,8.29,0,0,0-2.38,3.71c-.32,1.3,0,2.59,1.08,2.59C304.77,38.8,306.24,36.17,307.72,33.65Z"/>
        <path d="M316.75,31.13l-.07-.11c-.4-.58-.11-1.58.76-2.3s2.05.18,1,1.84l1.12-.14c1.62-.18,3.17-.43,3.2,1.26,0,1.33-2.09,3.6-3.24,5.18-.79,1.08-.58,1.91.32,1.91,2.45,0,5.58-4.1,7.05-6.41.4-.58.68-.5.86-.18s.07.72-.25,1.22c-1,1.73-4.46,6.84-8,6.84-2.38,0-3.24-2.52-2-4.5a30.36,30.36,0,0,1,2.52-3.17c.61-.72.47-1.19-.65-1a7.37,7.37,0,0,1-1.66.11,33.24,33.24,0,0,1-2.16,3.2c-.43.5-.79.36-1,.25s-.29-.47,0-.86A32.76,32.76,0,0,0,316.75,31.13Z"/>
        <path d="M325.1,34.41c1.51-2.84,4-4.21,6-4.21,1.3,0,2,.72,2.05,1.48a2.66,2.66,0,0,1-.76,2c-1.44,1.51-3.85,1.73-5.29,1.66a8.89,8.89,0,0,0-.29.9c-.32,1.26,0,2.63,1.84,2.63,3,0,6.41-4.17,7.88-6.48.4-.58.68-.5.86-.18s.11.72-.25,1.22c-1,1.73-5,6.84-8.93,6.84C324.85,40.24,323.59,37.29,325.1,34.41Zm2.74-.32A5.6,5.6,0,0,0,331.33,33c.76-.65.61-1.37,0-1.37a3.14,3.14,0,0,0-2,.94A8.74,8.74,0,0,0,327.84,34.08Z"/>
        <path d="M333.85,36a41.21,41.21,0,0,0,3.56-5c1-1.33,1.51-1.76,2.12-1.87s1.19.11,1.15.68-.79.68-.68,1.15c0,0,.72,1.91,1.08,3.17a4.55,4.55,0,0,1-.4,4.1,14,14,0,0,0,3.06-2.48,19.5,19.5,0,0,0,2.74-3.35c.4-.61.68-.5.86-.22s.14.72-.18,1.26c-2.3,3.42-6,7.06-10.19,7.06S332.74,37.25,333.85,36Zm2.56,3.28a2.65,2.65,0,0,0,2.3-1.84c.83-1.91,0-4.25-.29-5.62-.61.94-1.62,2.45-2.59,3.78a1,1,0,0,1-.25,1.62C334.72,37.72,335.22,39.23,336.41,39.23Z"/>
        <path d="M343.61,36.32a5.49,5.49,0,0,1,.5-.65A41.26,41.26,0,0,0,347.42,31c1-1.33,1.51-1.76,2.12-1.87s1.19.11,1.15.68-.79.68-.68,1.15c0,0,.72,1.91,1.08,3.17.54,1.87.4,3.49-.79,4.54a9.43,9.43,0,0,0,3.46-3.06c.43-.58.68-.5.86-.22s.14.76-.22,1.26A9,9,0,0,1,347,40.46C342.92,40.46,342.78,37.54,343.61,36.32Zm2.23-.76a1,1,0,0,1-.25,1.62c-.86.54-.36,2.05.83,2.05a2.65,2.65,0,0,0,2.3-1.84c.83-1.91,0-4.25-.29-5.62C347.82,32.72,346.81,34.23,345.84,35.56Z"/>
        <path d="M363,31.67h-.9c-.58,0-.76-.22-.58-.58s.47-.36,1.08-.36h1l1.62-2.56a.8.8,0,0,1,.76-.43h1.33c.43,0,.54.22.25.72l-1.33,2.27h1.62c.4,0,.79,0,.65.5s-.58.54-1.12.54h-1.8c-1.12,1.8-2.34,3.82-2.81,4.64-.9,1.66-.36,2.45.61,2.45,2.09,0,5.8-4.32,7.27-6.51.4-.58.72-.5.86-.18a1.05,1.05,0,0,1-.14,1.22c-1,1.37-5.08,6.84-8.6,6.84-2.81,0-3.64-2.2-2.16-4.68Z"/>
        <path d="M367.62,40.17h-.83c-.43,0-.54-.25-.29-.72,3.06-5.4,5.69-9.93,8.75-15.19a.76.76,0,0,1,.76-.43h1.37c.43,0,.5.25.25.72s-3.38,5.36-5,8.1c1.4-1.26,2.84-2.16,4.21-2.16a1.86,1.86,0,0,1,2.09,1.87c0,1.62-1.91,3.56-2.92,5-.83,1.08-.4,1.66.14,1.66,2.41,0,5.69-4.28,7.16-6.62.4-.58.72-.47.86-.18s.11.72-.22,1.26c-1.08,1.69-4.61,6.91-8.13,6.91-1.58,0-2.48-.83-2.48-2,0-1.8,1.26-2.84,2.7-4.82.58-.79.54-1.4-.14-1.4-.94,0-3.67,2-5.44,4.46-1.3,1.84-2,3.13-2,3.13A.84.84,0,0,1,367.62,40.17Z"/>
        <path d="M390.44,35.45c.43-.54.72-.47.86-.18s.14.76-.22,1.26c-1.15,1.62-3.6,3.71-6.48,3.71-3.38,0-4.68-3-3.17-5.83s4-4.21,6-4.21c1.3,0,2,.72,2.05,1.48a2.66,2.66,0,0,1-.76,2c-1.44,1.51-3.85,1.73-5.26,1.66a4,4,0,0,0-.32.9c-.32,1.26,0,2.63,1.84,2.63C386.66,38.84,388.75,37.76,390.44,35.45Zm-6.12-1.37A5.59,5.59,0,0,0,387.71,33c.72-.65.61-1.37,0-1.37a3.3,3.3,0,0,0-2,.94A8.39,8.39,0,0,0,384.32,34.08Z"/>
        <path d="M415.35,16.45c-3.74,0-9,4.57-11.92,11.41S402,38.8,405.24,38.8c3.49,0,6.95-3.67,9.18-6.44.47-.54.68-.5.86-.18s.11.72-.22,1.22c-1.08,1.73-5.69,6.84-10.08,6.84-4.93,0-7.09-5.44-4.28-12.31,3.1-7.38,9.54-12.85,14.47-12.85s4.39,6.26.47,7.38c-1.48.43-2.2-.36-1.94-1.12s1.12-.68,1.91-.76C417.69,20.41,418.27,16.45,415.35,16.45Z"/>
        <path d="M418,38.26a4.24,4.24,0,0,1-3.17,2c-2.84,0-3.67-3.2-2.16-6.08,1.69-3.24,4.1-4.1,5.65-4.1a2.36,2.36,0,0,1,2.45,1.69l.4-.61a.8.8,0,0,1,.76-.43h1.37c.43,0,.54.25.25.76s-2.41,4.07-3.28,5.62c-.68,1.15-.07,1.69.47,1.69,1.91,0,4.64-4.64,6.66-7.67l-.07-.07c-.4-.5-.11-1.62.76-2.3s2.05.14,1.08,1.8c0,0,0,0,1.12-.14,1.58-.18,3.17-.43,3.17,1.26,0,1.37-2.09,3.6-3.24,5.18-.79,1.08-.58,1.91.32,1.91,2.45,0,5.58-4.1,7.05-6.41.4-.58.68-.47.86-.18s.07.72-.25,1.26c-1,1.69-4.46,6.8-8,6.8-2.38,0-3.24-2.48-2-4.46a25,25,0,0,1,2.52-3.2c.58-.68.5-1.15-.54-1a8.28,8.28,0,0,1-1.76.11l-1,1.58c-1,1.73-4.39,7-7.24,7A2.2,2.2,0,0,1,418,38.26Zm1.66-4.61c.58-1.15,0-2.16-.9-2.16a3.34,3.34,0,0,0-2.23,1,8,8,0,0,0-2.34,3.71c-.32,1.26,0,2.59,1.08,2.59C416.65,38.8,418,36.68,419.64,33.65Z"/>
        <path d="M444,31.67c2-3.28,4.46-7.2,4.57-7.38a.76.76,0,0,1,.76-.43h1.37c.43,0,.54.22.25.72s-6.48,11-7.38,12.53c-.65,1.15,0,1.69.61,1.69,1.15,0,2.88-1,4.61-3.35.43-.54.68-.47.86-.18a1.17,1.17,0,0,1-.25,1.26c-1.15,1.62-3.28,3.71-5.69,3.71a2.42,2.42,0,0,1-2.45-2,4.3,4.3,0,0,1-3.2,2c-2.81,0-3.89-3.28-2.3-6.08,1.87-3.38,4.25-4.1,5.9-4.1A2.18,2.18,0,0,1,444,31.67Zm-1.19,2c.58-1.15.11-2.16-.83-2.16a3.14,3.14,0,0,0-2.12,1,8,8,0,0,0-2.34,3.71c-.32,1.26-.07,2.59,1,2.59C440,38.8,441.53,35.88,442.86,33.65Z"/>
      </g>
    </g>
  </g>
</svg>
