<svg xmlns="http://www.w3.org/2000/svg" viewBox="0 0 1061.13 53.58">
  <defs>
    <style>
      .cls-1 {
        fill: #eb4b2e;
      }

      .cls-2 {
        fill: #fff;
      }
    </style>
  </defs>
  <title>h8</title>
  <g id="Layer_2" data-name="Layer 2">
    <g id="Layer_4" data-name="Layer 4">
      <rect class="cls-1" width="1061.13" height="53.58"/>
      <g>
        <path class="cls-2" d="M463,41.71c-3.74,0-5.58-2.16-5.58-4.54a3.91,3.91,0,0,1,3.74-4.07c1.69,0,2.34,1,2.45,1.73s-.76,1-1.08.58-.43-.9-1.4-.9a2.39,2.39,0,0,0-2.23,2.66c0,1.8,1.29,3.13,3.78,3.13,4.86,0,7.63-6.87,11-13.5,1.55-3,4-7.16,6.44-9.61a7.91,7.91,0,0,0-1.91-.22,11.69,11.69,0,0,0-10.08,4.9c-2.45,3.28-2.45,6-.94,6,1.69,0,2.74-2.27,3.2-3.17.5-1.08,1.62-.54,1.22.47-.76,1.76-2.41,4-4.61,4-1.22,0-2.77-.79-2.77-3.28,0-3.42,4.64-10.15,14-10.15a11.54,11.54,0,0,1,3.1.4,5.37,5.37,0,0,1,1.87-.94c1-.25,1.12.61.32,1a8.83,8.83,0,0,0-.79.47,7.07,7.07,0,0,1,3.74,8.75,6.21,6.21,0,0,1-6,4.43c-2.45,0-3.42-1.3-3.49-2.45s1.15-1.19,1.26-.25a1.75,1.75,0,0,0,1.94,1.4c1.69,0,3.53-1.62,4.21-4.17a5.62,5.62,0,0,0-2.88-6.66,20.44,20.44,0,0,0-2.92,4.25C474,30.3,471.12,41.71,463,41.71Z"/>
        <path class="cls-2" d="M486.67,32.78l.4-.61a.8.8,0,0,1,.76-.43h1.37c.43,0,.54.25.25.76s-2.41,4.07-3.28,5.62c-.68,1.15-.07,1.69.47,1.69,2.66,0,5.4-3.67,7.09-6.44.36-.58.68-.47.86-.18s.11.72-.22,1.26c-1.08,1.69-4.5,6.8-8,6.8a2.42,2.42,0,0,1-2.45-2,4.24,4.24,0,0,1-3.17,2c-2.84,0-3.67-3.2-2.16-6.08,1.69-3.24,4.1-4.1,5.65-4.1A2.36,2.36,0,0,1,486.67,32.78Zm-1.12,1.87c.58-1.15,0-2.16-.9-2.16a3.34,3.34,0,0,0-2.23,1,8,8,0,0,0-2.34,3.71c-.32,1.26,0,2.59,1.08,2.59C482.57,39.8,483.94,37.68,485.56,34.65Z"/>
        <path class="cls-2" d="M497.8,42.43c-2.05,3.82-4.75,7.85-8.13,7.85a2.34,2.34,0,0,1-2.52-2.2c0-2.05,1.55-3.28,3.92-4.25,1.66-.72,3.17-1.22,4.57-1.8L497,39.4a5.14,5.14,0,0,1-3.38,1.91c-2,0-3-2-2-4,.72-1.48,2.74-4.82,2.92-5.11a.76.76,0,0,1,.76-.43h1.37c.43,0,.54.25.29.76s-2.41,4.07-3.31,5.62c-.65,1.15-.07,1.62.4,1.62s1.55-.5,2.88-2a52.28,52.28,0,0,0,3.56-5l.32-.61a.76.76,0,0,1,.76-.43h1.37c.43,0,.54.25.29.76l-3.1,5.62c-.43.76-.86,1.69-1.37,2.59a15.2,15.2,0,0,0,6-4.25c.43-.5.68-.47.83-.18s.14.76-.22,1.26c-1.15,1.62-3.89,3.31-7.45,4.86A.13.13,0,0,0,497.8,42.43Zm-3.1,1.26c-2.41.94-4.39,1.69-5.4,2.63-1.19,1.12-.9,2.59.5,2.59S493,46.64,494.7,43.69Z"/>
        <path class="cls-2" d="M524.07,34.69c0-4.57,7.81-5,12.63-6.8,2.34-.86,3-1.76,3-2.45s-.65-1-1.66-.68-1.44-.72-.47-1.19c1.8-.86,3.67-.18,3.67,1.76s-1.66,3.35-6,4.61C538.36,34.8,534,42,526.56,42c-5.33,0-8.5-3.38-8.5-7.67,0-5.72,5.51-9.07,10.08-9.9a4.92,4.92,0,0,1-1-3c0-3.64,3.6-5.54,6.59-5.54,3.24,0,4.39,1.73,4.39,3.31,0,2.2-2.09,3.92-4.9,3.63a.65.65,0,1,1,.11-1.3c2.23.18,3.38-.9,3.38-2.34,0-1.12-.76-1.94-2.56-1.94a5,5,0,0,0-4.82,5,3.71,3.71,0,0,0,.5,1.94h.32c1.51,0,2.12.5,2.12,1s-.36.65-.94.79a2.92,2.92,0,0,1-2.3-.58c-3.31.54-8.32,3.67-8.32,9.61a5.47,5.47,0,0,0,5.8,5.65,7.14,7.14,0,0,0,7.34-7,4.3,4.3,0,0,0-1.19-3.1c-4.75,1.22-7,2.45-7,4.36a1,1,0,0,0,1,1.15c.9,0,1.87-.72,2.41-2.3.29-.9,1.44-.58,1.12.47-.47,1.44-1.62,3.06-3.53,3.06A2.53,2.53,0,0,1,524.07,34.69Z"/>
        <path class="cls-2" d="M566.34,21.15a2.19,2.19,0,0,1,1.12-2c.86-.47,1.48.54.83,1a1.19,1.19,0,0,0-.54,1c0,.68.58,1.19,1.58,1.19a2.22,2.22,0,0,0,2.16-2.45c0-1.58-1.3-2.66-3.1-2.66a4.29,4.29,0,0,0-4.28,4.54c0,3.92,2.66,8,2.66,12.31a7.71,7.71,0,0,1-8,7.63c-4.43,0-7.16-2.81-7.16-6.52a6.12,6.12,0,0,1,5.87-6.33c2.38,0,4.07,1.48,4.07,3.49a3.35,3.35,0,0,1-2.7,3.38c-1.12.25-1.4-1.08-.4-1.3a2,2,0,0,0,1.62-2.09c0-1.19-.83-2.16-2.59-2.16-2.52,0-4.43,2.16-4.43,5,0,3.24,2.38,5.18,5.69,5.18s5.54-2.41,5.54-5.9c0-4.32-2.52-7.67-2.52-12.24a6.31,6.31,0,0,1,6.26-6.33c3.53,0,4.82,2.23,4.82,4a3.49,3.49,0,0,1-3.53,3.71C567.49,23.6,566.34,22.49,566.34,21.15Z"/>
        <path class="cls-2" d="M568.68,35.41c1.51-2.84,4-4.21,6-4.21,1.3,0,2,.72,2.05,1.48a2.66,2.66,0,0,1-.76,2c-1.44,1.51-3.85,1.73-5.29,1.66a8.89,8.89,0,0,0-.29.9c-.32,1.26,0,2.63,1.84,2.63,3,0,6.41-4.17,7.88-6.48.4-.58.68-.5.86-.18s.11.72-.25,1.22c-1,1.73-5,6.84-8.93,6.84C568.43,41.24,567.17,38.29,568.68,35.41Zm2.74-.32A5.6,5.6,0,0,0,574.91,34c.76-.65.61-1.37,0-1.37a3.14,3.14,0,0,0-2,.94A8.74,8.74,0,0,0,571.42,35.08Z"/>
        <path class="cls-2" d="M581.64,34.83c1.91-2.09,3.85-3.35,5.33-3.35a1.86,1.86,0,0,1,2.09,1.87c0,1.62-1.91,3.56-3,5-.83,1.08-.4,1.66.14,1.66,2.45,0,5.72-4.28,7.24-6.62.4-.58.68-.47.83-.18s.11.72-.22,1.26c-1,1.69-4.61,6.91-8.13,6.91-1.58,0-2.52-.83-2.52-2,0-1.8,1.3-2.84,2.74-4.82.61-.79.54-1.4-.11-1.4-1,0-3.82,2.16-5.47,4.46a28.23,28.23,0,0,0-2,3.28.71.71,0,0,1-.76.43h-1c-.43,0-.54-.25-.25-.72,1.4-2.52,2.74-5.76,4.17-8.6a.76.76,0,0,1,.76-.43h1.4c.4,0,.4.29.11.79S582.18,33.86,581.64,34.83Z"/>
        <path class="cls-2" d="M600,32.67c2-3.28,4.46-7.2,4.57-7.38a.76.76,0,0,1,.76-.43h1.37c.43,0,.54.22.25.72s-6.48,11-7.38,12.53c-.65,1.15,0,1.69.61,1.69,1.15,0,2.88-1,4.61-3.35.43-.54.68-.47.86-.18a1.17,1.17,0,0,1-.25,1.26c-1.15,1.62-3.28,3.71-5.69,3.71a2.42,2.42,0,0,1-2.45-2,4.3,4.3,0,0,1-3.2,2c-2.81,0-3.89-3.28-2.3-6.08,1.87-3.38,4.25-4.1,5.9-4.1A2.18,2.18,0,0,1,600,32.67Zm-1.19,2c.58-1.15.11-2.16-.83-2.16a3.14,3.14,0,0,0-2.12,1,8,8,0,0,0-2.34,3.71c-.32,1.26-.07,2.59,1,2.59C595.9,39.8,597.44,36.88,598.77,34.65Z"/>
      </g>
      <g>
        <path d="M462,40.71c-3.74,0-5.58-2.16-5.58-4.54a3.91,3.91,0,0,1,3.74-4.07c1.69,0,2.34,1,2.45,1.73s-.76,1-1.08.58-.43-.9-1.4-.9a2.39,2.39,0,0,0-2.23,2.66c0,1.8,1.29,3.13,3.78,3.13,4.86,0,7.63-6.87,11-13.5,1.55-3,4-7.16,6.44-9.61a7.91,7.91,0,0,0-1.91-.22,11.69,11.69,0,0,0-10.08,4.9c-2.45,3.28-2.45,6-.94,6,1.69,0,2.74-2.27,3.2-3.17.5-1.08,1.62-.54,1.22.47-.76,1.76-2.41,4-4.61,4-1.22,0-2.77-.79-2.77-3.28,0-3.42,4.64-10.15,14-10.15a11.54,11.54,0,0,1,3.1.4,5.37,5.37,0,0,1,1.87-.94c1-.25,1.12.61.32,1a8.83,8.83,0,0,0-.79.47,7.07,7.07,0,0,1,3.74,8.75,6.21,6.21,0,0,1-6,4.43c-2.45,0-3.42-1.3-3.49-2.45s1.15-1.19,1.26-.25a1.75,1.75,0,0,0,1.94,1.4c1.69,0,3.53-1.62,4.21-4.17a5.62,5.62,0,0,0-2.88-6.66,20.44,20.44,0,0,0-2.92,4.25C473,29.3,470.12,40.71,462,40.71Z"/>
        <path d="M485.67,31.78l.4-.61a.8.8,0,0,1,.76-.43h1.37c.43,0,.54.25.25.76s-2.41,4.07-3.28,5.62c-.68,1.15-.07,1.69.47,1.69,2.66,0,5.4-3.67,7.09-6.44.36-.58.68-.47.86-.18s.11.72-.22,1.26c-1.08,1.69-4.5,6.8-8,6.8a2.42,2.42,0,0,1-2.45-2,4.24,4.24,0,0,1-3.17,2c-2.84,0-3.67-3.2-2.16-6.08,1.69-3.24,4.1-4.1,5.65-4.1A2.36,2.36,0,0,1,485.67,31.78Zm-1.12,1.87c.58-1.15,0-2.16-.9-2.16a3.34,3.34,0,0,0-2.23,1,8,8,0,0,0-2.34,3.71c-.32,1.26,0,2.59,1.08,2.59C481.57,38.8,482.94,36.68,484.56,33.65Z"/>
        <path d="M496.8,41.43c-2.05,3.82-4.75,7.85-8.13,7.85a2.34,2.34,0,0,1-2.52-2.2c0-2.05,1.55-3.28,3.92-4.25,1.66-.72,3.17-1.22,4.57-1.8L496,38.4a5.14,5.14,0,0,1-3.38,1.91c-2,0-3-2-2-4,.72-1.48,2.74-4.82,2.92-5.11a.76.76,0,0,1,.76-.43h1.37c.43,0,.54.25.29.76s-2.41,4.07-3.31,5.62c-.65,1.15-.07,1.62.4,1.62s1.55-.5,2.88-2a52.28,52.28,0,0,0,3.56-5l.32-.61a.76.76,0,0,1,.76-.43h1.37c.43,0,.54.25.29.76l-3.1,5.62c-.43.76-.86,1.69-1.37,2.59a15.2,15.2,0,0,0,6-4.25c.43-.5.68-.47.83-.18s.14.76-.22,1.26c-1.15,1.62-3.89,3.31-7.45,4.86A.13.13,0,0,0,496.8,41.43Zm-3.1,1.26c-2.41.94-4.39,1.69-5.4,2.63-1.19,1.12-.9,2.59.5,2.59S492,45.64,493.7,42.69Z"/>
        <path d="M523.07,33.69c0-4.57,7.81-5,12.63-6.8,2.34-.86,3-1.76,3-2.45s-.65-1-1.66-.68-1.44-.72-.47-1.19c1.8-.86,3.67-.18,3.67,1.76s-1.66,3.35-6,4.61C537.36,33.8,533,41,525.56,41c-5.33,0-8.5-3.38-8.5-7.67,0-5.72,5.51-9.07,10.08-9.9a4.92,4.92,0,0,1-1-3c0-3.64,3.6-5.54,6.59-5.54,3.24,0,4.39,1.73,4.39,3.31,0,2.2-2.09,3.92-4.9,3.63a.65.65,0,1,1,.11-1.3c2.23.18,3.38-.9,3.38-2.34,0-1.12-.76-1.94-2.56-1.94a5,5,0,0,0-4.82,5,3.71,3.71,0,0,0,.5,1.94h.32c1.51,0,2.12.5,2.12,1s-.36.65-.94.79a2.92,2.92,0,0,1-2.3-.58c-3.31.54-8.32,3.67-8.32,9.61a5.47,5.47,0,0,0,5.8,5.65,7.14,7.14,0,0,0,7.34-7,4.3,4.3,0,0,0-1.19-3.1c-4.75,1.22-7,2.45-7,4.36a1,1,0,0,0,1,1.15c.9,0,1.87-.72,2.41-2.3.29-.9,1.44-.58,1.12.47-.47,1.44-1.62,3.06-3.53,3.06A2.53,2.53,0,0,1,523.07,33.69Z"/>
        <path d="M565.34,20.15a2.19,2.19,0,0,1,1.12-2c.86-.47,1.48.54.83,1a1.19,1.19,0,0,0-.54,1c0,.68.58,1.19,1.58,1.19a2.22,2.22,0,0,0,2.16-2.45c0-1.58-1.3-2.66-3.1-2.66a4.29,4.29,0,0,0-4.28,4.54c0,3.92,2.66,8,2.66,12.31a7.71,7.71,0,0,1-8,7.63c-4.43,0-7.16-2.81-7.16-6.52a6.12,6.12,0,0,1,5.87-6.33c2.38,0,4.07,1.48,4.07,3.49a3.35,3.35,0,0,1-2.7,3.38c-1.12.25-1.4-1.08-.4-1.3a2,2,0,0,0,1.62-2.09c0-1.19-.83-2.16-2.59-2.16-2.52,0-4.43,2.16-4.43,5,0,3.24,2.38,5.18,5.69,5.18s5.54-2.41,5.54-5.9c0-4.32-2.52-7.67-2.52-12.24a6.31,6.31,0,0,1,6.26-6.33c3.53,0,4.82,2.23,4.82,4a3.49,3.49,0,0,1-3.53,3.71C566.49,22.6,565.34,21.49,565.34,20.15Z"/>
        <path d="M567.68,34.41c1.51-2.84,4-4.21,6-4.21,1.3,0,2,.72,2.05,1.48a2.66,2.66,0,0,1-.76,2c-1.44,1.51-3.85,1.73-5.29,1.66a8.89,8.89,0,0,0-.29.9c-.32,1.26,0,2.63,1.84,2.63,3,0,6.41-4.17,7.88-6.48.4-.58.68-.5.86-.18s.11.72-.25,1.22c-1,1.73-5,6.84-8.93,6.84C567.43,40.24,566.17,37.29,567.68,34.41Zm2.74-.32A5.6,5.6,0,0,0,573.91,33c.76-.65.61-1.37,0-1.37a3.14,3.14,0,0,0-2,.94A8.74,8.74,0,0,0,570.42,34.08Z"/>
        <path d="M580.64,33.83c1.91-2.09,3.85-3.35,5.33-3.35a1.86,1.86,0,0,1,2.09,1.87c0,1.62-1.91,3.56-3,5-.83,1.08-.4,1.66.14,1.66,2.45,0,5.72-4.28,7.24-6.62.4-.58.68-.47.83-.18s.11.72-.22,1.26c-1,1.69-4.61,6.91-8.13,6.91-1.58,0-2.52-.83-2.52-2,0-1.8,1.3-2.84,2.74-4.82.61-.79.54-1.4-.11-1.4-1,0-3.82,2.16-5.47,4.46a28.23,28.23,0,0,0-2,3.28.71.71,0,0,1-.76.43h-1c-.43,0-.54-.25-.25-.72,1.4-2.52,2.74-5.76,4.17-8.6a.76.76,0,0,1,.76-.43h1.4c.4,0,.4.29.11.79S581.18,32.86,580.64,33.83Z"/>
        <path d="M599,31.67c2-3.28,4.46-7.2,4.57-7.38a.76.76,0,0,1,.76-.43h1.37c.43,0,.54.22.25.72s-6.48,11-7.38,12.53c-.65,1.15,0,1.69.61,1.69,1.15,0,2.88-1,4.61-3.35.43-.54.68-.47.86-.18a1.17,1.17,0,0,1-.25,1.26c-1.15,1.62-3.28,3.71-5.69,3.71a2.42,2.42,0,0,1-2.45-2,4.3,4.3,0,0,1-3.2,2c-2.81,0-3.89-3.28-2.3-6.08,1.87-3.38,4.25-4.1,5.9-4.1A2.18,2.18,0,0,1,599,31.67Zm-1.19,2c.58-1.15.11-2.16-.83-2.16a3.14,3.14,0,0,0-2.12,1,8,8,0,0,0-2.34,3.71c-.32,1.26-.07,2.59,1,2.59C594.9,38.8,596.44,35.88,597.77,33.65Z"/>
      </g>
    </g>
  </g>
</svg>
