<svg xmlns="http://www.w3.org/2000/svg" viewBox="0 0 1061.13 53.58">
  <defs>
    <style>
      .cls-1 {
        fill: #eb4b2e;
      }

      .cls-2 {
        fill: #fff;
      }
    </style>
  </defs>
  <title>h9</title>
  <g id="Layer_2" data-name="Layer 2">
    <g id="Layer_4" data-name="Layer 4">
      <rect class="cls-1" width="1061.13" height="53.58"/>
      <g>
        <path class="cls-2" d="M499.7,21.15a2.19,2.19,0,0,1,1.12-2c.86-.47,1.48.54.83,1a1.19,1.19,0,0,0-.54,1c0,.68.58,1.19,1.58,1.19a2.22,2.22,0,0,0,2.16-2.45c0-1.58-1.3-2.66-3.1-2.66a4.29,4.29,0,0,0-4.28,4.54c0,3.92,2.66,8,2.66,12.31a7.71,7.71,0,0,1-8,7.63c-4.43,0-7.16-2.81-7.16-6.52a6.12,6.12,0,0,1,5.87-6.33c2.38,0,4.07,1.48,4.07,3.49a3.35,3.35,0,0,1-2.7,3.38c-1.12.25-1.4-1.08-.4-1.3a2,2,0,0,0,1.62-2.09c0-1.19-.83-2.16-2.59-2.16-2.52,0-4.43,2.16-4.43,5,0,3.24,2.38,5.18,5.69,5.18s5.54-2.41,5.54-5.9c0-4.32-2.52-7.67-2.52-12.24a6.31,6.31,0,0,1,6.26-6.33c3.53,0,4.82,2.23,4.82,4a3.49,3.49,0,0,1-3.53,3.71C500.85,23.6,499.7,22.49,499.7,21.15Z"/>
        <path class="cls-2" d="M510.83,32.17a.8.8,0,0,1,.76-.43H513c.43,0,.54.25.25.76s-2.34,4.07-3.24,5.62c-.65,1.15,0,1.66.47,1.66,2.45,0,5.58-4.1,7.06-6.41.4-.58.68-.47.86-.18s.07.72-.25,1.26c-1,1.69-4.46,6.8-8,6.8a2.52,2.52,0,0,1-2.52-2.48c-1.26,1.44-2.59,2.56-4,2.56-2,0-3-2-2-4,.76-1.48,2.74-4.82,2.92-5.11a.79.79,0,0,1,.76-.43h1.4c.4,0,.5.25.25.76s-2.41,4.07-3.31,5.62c-.65,1.15-.07,1.62.4,1.62s1.62-.5,3-1.94a18.88,18.88,0,0,0,2.2-3Z"/>
        <path class="cls-2" d="M515.65,35.41c1.73-3.09,4.21-4.21,6-4.21,2.63,0,2.45,2.3,1.58,3.28-.65.72-1.44.83-1.83.47s-.29-1,.43-1.33.65-1,.07-1a2.85,2.85,0,0,0-1.94.86,7.73,7.73,0,0,0-2.63,3.74,1.91,1.91,0,0,0,1.91,2.63c3,0,6.41-4.17,7.88-6.48.4-.58.68-.5.86-.18s.07.72-.25,1.22c-1,1.73-5,6.84-8.93,6.84S514.28,37.93,515.65,35.41Z"/>
        <path class="cls-2" d="M525.3,35.41c1.73-3.09,4.21-4.21,6-4.21,2.63,0,2.45,2.3,1.58,3.28-.65.72-1.44.83-1.83.47s-.29-1,.43-1.33.65-1,.07-1a2.85,2.85,0,0,0-1.94.86A7.73,7.73,0,0,0,527,37.21a1.91,1.91,0,0,0,1.91,2.63c3,0,6.41-4.17,7.88-6.48.4-.58.68-.5.86-.18s.07.72-.25,1.22c-1,1.73-5,6.84-8.93,6.84S523.93,37.93,525.3,35.41Z"/>
        <path class="cls-2" d="M534.95,35.41c1.51-2.84,4-4.21,6-4.21,1.3,0,2,.72,2.05,1.48a2.66,2.66,0,0,1-.76,2c-1.44,1.51-3.85,1.73-5.29,1.66a8.89,8.89,0,0,0-.29.9c-.32,1.26,0,2.63,1.84,2.63,3,0,6.41-4.17,7.88-6.48.4-.58.68-.5.86-.18s.11.72-.25,1.22c-1,1.73-5,6.84-8.93,6.84C534.69,41.24,533.44,38.29,534.95,35.41Zm2.74-.32A5.6,5.6,0,0,0,541.17,34c.76-.65.61-1.37,0-1.37a3.14,3.14,0,0,0-2,.94A8.74,8.74,0,0,0,537.68,35.08Z"/>
        <path class="cls-2" d="M543.7,37a41.21,41.21,0,0,0,3.56-5c1-1.33,1.51-1.76,2.12-1.87s1.19.11,1.15.68-.79.68-.68,1.15c0,0,.72,1.91,1.08,3.17a4.55,4.55,0,0,1-.4,4.1,14,14,0,0,0,3.06-2.48,19.5,19.5,0,0,0,2.74-3.35c.4-.61.68-.5.86-.22s.14.72-.18,1.26c-2.3,3.42-6,7.06-10.19,7.06S542.58,38.25,543.7,37Zm2.56,3.28a2.65,2.65,0,0,0,2.3-1.84c.83-1.91,0-4.25-.29-5.62-.61.94-1.62,2.45-2.59,3.78a1,1,0,0,1-.25,1.62C544.56,38.72,545.06,40.23,546.25,40.23Z"/>
        <path class="cls-2" d="M553.45,37.32a5.49,5.49,0,0,1,.5-.65A41.26,41.26,0,0,0,557.27,32c1-1.33,1.51-1.76,2.12-1.87s1.19.11,1.15.68-.79.68-.68,1.15c0,0,.72,1.91,1.08,3.17.54,1.87.4,3.49-.79,4.54a9.43,9.43,0,0,0,3.46-3.06c.43-.58.68-.5.86-.22s.14.76-.22,1.26a9,9,0,0,1-7.42,3.85C552.77,41.46,552.62,38.54,553.45,37.32Zm2.23-.76a1,1,0,0,1-.25,1.62c-.86.54-.36,2.05.83,2.05a2.65,2.65,0,0,0,2.3-1.84c.83-1.91,0-4.25-.29-5.62C557.66,33.72,556.65,35.23,555.68,36.56Z"/>
        <path class="cls-2" d="M567.49,38.76a1.39,1.39,0,0,1,0,2.77,1.39,1.39,0,1,1,0-2.77Zm1.19-2.63c1.51-3.42,7.09-14.58,9.39-19.22a.73.73,0,0,1,.76-.43h1.37c.43,0,.54.25.25.72C578,22.09,571.56,34,569.83,36.67,569.33,37.42,568.32,36.92,568.68,36.13Z"/>
      </g>
      <g>
        <path d="M498.7,20.15a2.19,2.19,0,0,1,1.12-2c.86-.47,1.48.54.83,1a1.19,1.19,0,0,0-.54,1c0,.68.58,1.19,1.58,1.19a2.22,2.22,0,0,0,2.16-2.45c0-1.58-1.3-2.66-3.1-2.66a4.29,4.29,0,0,0-4.28,4.54c0,3.92,2.66,8,2.66,12.31a7.71,7.71,0,0,1-8,7.63c-4.43,0-7.16-2.81-7.16-6.52a6.12,6.12,0,0,1,5.87-6.33c2.38,0,4.07,1.48,4.07,3.49a3.35,3.35,0,0,1-2.7,3.38c-1.12.25-1.4-1.08-.4-1.3a2,2,0,0,0,1.62-2.09c0-1.19-.83-2.16-2.59-2.16-2.52,0-4.43,2.16-4.43,5,0,3.24,2.38,5.18,5.69,5.18s5.54-2.41,5.54-5.9c0-4.32-2.52-7.67-2.52-12.24a6.31,6.31,0,0,1,6.26-6.33c3.53,0,4.82,2.23,4.82,4a3.49,3.49,0,0,1-3.53,3.71C499.85,22.6,498.7,21.49,498.7,20.15Z"/>
        <path d="M509.83,31.17a.8.8,0,0,1,.76-.43H512c.43,0,.54.25.25.76s-2.34,4.07-3.24,5.62c-.65,1.15,0,1.66.47,1.66,2.45,0,5.58-4.1,7.06-6.41.4-.58.68-.47.86-.18s.07.72-.25,1.26c-1,1.69-4.46,6.8-8,6.8a2.52,2.52,0,0,1-2.52-2.48c-1.26,1.44-2.59,2.56-4,2.56-2,0-3-2-2-4,.76-1.48,2.74-4.82,2.92-5.11a.79.79,0,0,1,.76-.43h1.4c.4,0,.5.25.25.76s-2.41,4.07-3.31,5.62c-.65,1.15-.07,1.62.4,1.62s1.62-.5,3-1.94a18.88,18.88,0,0,0,2.2-3Z"/>
        <path d="M514.65,34.41c1.73-3.09,4.21-4.21,6-4.21,2.63,0,2.45,2.3,1.58,3.28-.65.72-1.44.83-1.83.47s-.29-1,.43-1.33.65-1,.07-1a2.85,2.85,0,0,0-1.94.86,7.73,7.73,0,0,0-2.63,3.74,1.91,1.91,0,0,0,1.91,2.63c3,0,6.41-4.17,7.88-6.48.4-.58.68-.5.86-.18s.07.72-.25,1.22c-1,1.73-5,6.84-8.93,6.84S513.28,36.93,514.65,34.41Z"/>
        <path d="M524.3,34.41c1.73-3.09,4.21-4.21,6-4.21,2.63,0,2.45,2.3,1.58,3.28-.65.72-1.44.83-1.83.47s-.29-1,.43-1.33.65-1,.07-1a2.85,2.85,0,0,0-1.94.86A7.73,7.73,0,0,0,526,36.21a1.91,1.91,0,0,0,1.91,2.63c3,0,6.41-4.17,7.88-6.48.4-.58.68-.5.86-.18s.07.72-.25,1.22c-1,1.73-5,6.84-8.93,6.84S522.93,36.93,524.3,34.41Z"/>
        <path d="M533.95,34.41c1.51-2.84,4-4.21,6-4.21,1.3,0,2,.72,2.05,1.48a2.66,2.66,0,0,1-.76,2c-1.44,1.51-3.85,1.73-5.29,1.66a8.89,8.89,0,0,0-.29.9c-.32,1.26,0,2.63,1.84,2.63,3,0,6.41-4.17,7.88-6.48.4-.58.68-.5.86-.18s.11.72-.25,1.22c-1,1.73-5,6.84-8.93,6.84C533.69,40.24,532.44,37.29,533.95,34.41Zm2.74-.32A5.6,5.6,0,0,0,540.17,33c.76-.65.61-1.37,0-1.37a3.14,3.14,0,0,0-2,.94A8.74,8.74,0,0,0,536.68,34.08Z"/>
        <path d="M542.7,36a41.21,41.21,0,0,0,3.56-5c1-1.33,1.51-1.76,2.12-1.87s1.19.11,1.15.68-.79.68-.68,1.15c0,0,.72,1.91,1.08,3.17a4.55,4.55,0,0,1-.4,4.1,14,14,0,0,0,3.06-2.48,19.5,19.5,0,0,0,2.74-3.35c.4-.61.68-.5.86-.22s.14.72-.18,1.26c-2.3,3.42-6,7.06-10.19,7.06S541.58,37.25,542.7,36Zm2.56,3.28a2.65,2.65,0,0,0,2.3-1.84c.83-1.91,0-4.25-.29-5.62-.61.94-1.62,2.45-2.59,3.78a1,1,0,0,1-.25,1.62C543.56,37.72,544.06,39.23,545.25,39.23Z"/>
        <path d="M552.45,36.32a5.49,5.49,0,0,1,.5-.65A41.26,41.26,0,0,0,556.27,31c1-1.33,1.51-1.76,2.12-1.87s1.19.11,1.15.68-.79.68-.68,1.15c0,0,.72,1.91,1.08,3.17.54,1.87.4,3.49-.79,4.54a9.43,9.43,0,0,0,3.46-3.06c.43-.58.68-.5.86-.22s.14.76-.22,1.26a9,9,0,0,1-7.42,3.85C551.77,40.46,551.62,37.54,552.45,36.32Zm2.23-.76a1,1,0,0,1-.25,1.62c-.86.54-.36,2.05.83,2.05a2.65,2.65,0,0,0,2.3-1.84c.83-1.91,0-4.25-.29-5.62C556.66,32.72,555.65,34.23,554.68,35.56Z"/>
        <path d="M566.49,37.76a1.39,1.39,0,0,1,0,2.77,1.39,1.39,0,1,1,0-2.77Zm1.19-2.63c1.51-3.42,7.09-14.58,9.39-19.22a.73.73,0,0,1,.76-.43h1.37c.43,0,.54.25.25.72C577,21.09,570.56,33,568.83,35.67,568.33,36.42,567.32,35.92,567.68,35.13Z"/>
      </g>
    </g>
  </g>
</svg>
