<svg xmlns="http://www.w3.org/2000/svg" viewBox="0 0 450 306">
  <defs>
    <style>
      .cls-1 {
        fill: #F4987A;
      }
    </style>
  </defs>
  <title>frame_classic_05</title>
  <g id="Layer_2" data-name="Layer 2">
    <g id="classic_borders">
      <g id="Layer_6" data-name="Layer 6">
        <path class="cls-1" d="M439.05,151.81V9.71l-.72-.7H226.19V0h-2.37V9H11.66l-.72.7V151.81H0v2.37H10.95V296.29l.72.7H223.81v9h2.37v-9H438.34l.72-.7V154.19H450v-2.37ZM427.94,98.62c1.48-.29,3-.53,4.49-.7V208.76c-1.51-.17-3-.41-4.49-.7ZM242.19,11.54H413.76v8.84H242.19ZM385.8,202l17,20.36v28.87L370.21,283H91.37L47.53,240.25V222.32l17-20.36.16-.44V181.41a54.91,54.91,0,0,0,0-56.14v-20.4l-.16-.44-17-20.36V65.76L91.47,22.9H370.11l32.73,31.93V84.07l-17,20.36-.16.44v20.21a54.91,54.91,0,0,0,0,56.53v19.91ZM72.78,283H36.5V244.27ZM36.5,240.48V206.34a61.7,61.7,0,0,0,25.65-20.88v15.3l-17,16.58-.21.49v30.88Zm11,10.77v-7.42L87.71,283h-7.6Zm0-189.05V54.78L80.2,22.9h7.6Zm340.7,43.44,17-16.58.21-.49V57.36l8.33,8.13v34.86a61.71,61.71,0,0,0-25.53,20.72ZM373.78,22.9h7.54l32.45,31.66v7.35Zm14.87,0h25.12V49.73ZM210.46,11.54H239.6v8.84H210.46Zm-174,0H207.87v8.84H36.5Zm0,11.37H72.87L36.5,61.75Zm0,42.64,8.45-8.24V88.55l.21.49,17,16.58v15.59A61.7,61.7,0,0,0,36.5,100.34Zm-11.58-54h9V99.27a62.86,62.86,0,0,0-9-2.74Zm0,87.65A57.32,57.32,0,0,1,52,114.38a55.46,55.46,0,0,1,13.34,21.29L59.43,137l-.55.68v1.13l.72.7h6.95c.37,1.42.68,2.87.93,4.32l-15.64.69-.68.7v1.13l.72.7H67.94q.27,2.31.33,4.66l-22.44.35-.7.7v1.13l.7.7,22.44.35q-.07,2.35-.33,4.66H51.87l-.72.7v1.13l.68.7,15.64.69c-.26,1.46-.56,2.9-.93,4.32H59.6l-.72.7V169l.55.68L65.37,171A55.47,55.47,0,0,1,52,192.31,57.32,57.32,0,0,1,24.91,207.5ZM22.32,294.46H13.54V211.61a63.41,63.41,0,0,0,8.78-.95Zm0-86.4c-1.54.3-3.1.54-4.68.72V97.9c1.58.17,3.14.42,4.68.72Zm0-112a63.44,63.44,0,0,0-8.78-1V11.54h8.78ZM33.91,294.46h-9V210.15a62.86,62.86,0,0,0,9-2.74Zm174,0H36.5v-8.91H207.87Zm31.73,0H210.46v-8.91H239.6Zm174.16,0H242.19v-8.91H413.76Zm0-11.44h-25l25-26.74Zm0-31.57L381.41,283h-7.54l39.89-38.92Zm0-10.93-8.33,8.13V217.84l-.21-.49-17-16.58V185.62a61.71,61.71,0,0,0,25.53,20.72Zm11.58,53.93h-9V253.52l9-9.61Zm0-54.31-9,8.78V207.41a62.86,62.86,0,0,0,9,2.74Zm0-32.66a57.32,57.32,0,0,1-27.12-15.19,56.11,56.11,0,0,1-10-13.54v-.12l-.12-.12a54.44,54.44,0,0,1-3.21-7.48l6.1-1.39.55-.68v-1.13l-.72-.7h-7.12c-.37-1.42-.68-2.86-.93-4.31l15.8-.69.68-.7v-1.13l-.72-.7H382.31Q382,157.31,382,155l22.61-.36.7-.7v-1.13l-.7-.7L382,151.72q.07-2.34.33-4.65h16.24l.72-.7v-1.13l-.68-.7-15.8-.69c.26-1.45.56-2.89.93-4.31h7.12l.72-.7v-1.13L391,137l-6.1-1.39a55.47,55.47,0,0,1,13.33-21.26,57.32,57.32,0,0,1,27.12-15.19Zm0-111a62.85,62.85,0,0,0-9,2.74V57.09l9,8.78Zm0-34.43-9-9.61v-41h9Zm11.11,232.36h-8.53v-83.8a63.43,63.43,0,0,0,8.53.94Zm0-199.38a63.43,63.43,0,0,0-8.53.94V11.54h8.53Z"/>
      </g>
    </g>
  </g>
</svg>
