<svg xmlns="http://www.w3.org/2000/svg" xmlns:xlink="http://www.w3.org/1999/xlink" viewBox="0 0 600 300.46">
  <defs>
    <style>
      .cls-1 {
        fill: #fff;
      }
    </style>
  </defs>
  <title>classic_button</title>
  <g id="Layer_2" data-name="Layer 2">
    <g id="Layer_1-2" data-name="Layer 1">
      <image width="600" height="300" transform="translate(0 0.46)" xlink:href="../../assets/theme_src/classic_background_hover.png"/>
      <image class="fade" width="600" height="300" xlink:href="../../assets/theme_src/classic_background.png" ng-mouseover="$ctrl.setHoverObject('classic')" ng-hide="$ctrl.hoverObject === 'classic'"/>
      <g>
        <path class="cls-1" d="M94.06,151.88a19.74,19.74,0,0,0-3.21-8.59q-3.76-5.16-11.67-5.16-11.28,0-15.43,11.17-2.19,5.92-2.19,15.74,0,9.35,2.19,15,4,10.63,15,10.63,7.83,0,11.12-4.22a21,21,0,0,0,4-10.94h22.73a37.24,37.24,0,0,1-7.35,19.22q-10.48,14.61-31,14.61T48,197.19q-9.7-12.19-9.7-31.6,0-21.91,10.71-34.1T78.56,119.3q16,0,26.24,7.19t12.08,25.39Z"/>
        <path class="cls-1" d="M154.84,206.48H132.58V91.33h22.27Z"/>
        <path class="cls-1" d="M210.29,154.69a35.21,35.21,0,0,0,8.89-2q4.8-2,4.8-6.33,0-5.23-3.68-7.23t-10.81-2q-8,0-11.32,3.91a16.1,16.1,0,0,0-3.17,7.81H173.52q.7-11.17,6.28-18.36,8.87-11.25,30.44-11.25a54.3,54.3,0,0,1,25,5.55q10.91,5.55,10.91,20.94v39.06q0,4.06.16,9.84.23,4.38,1.33,5.94a8,8,0,0,0,3.28,2.58v3.28H226.64a24.68,24.68,0,0,1-1.41-4.84q-.39-2.26-.62-5.16A46,46,0,0,1,213.92,205a32.3,32.3,0,0,1-16.34,4.14q-11.63,0-19.21-6.6t-7.58-18.71q0-15.7,12.2-22.73,6.69-3.83,19.68-5.47Zm13.61,10.39a24.61,24.61,0,0,1-4.32,2.15,36.53,36.53,0,0,1-6,1.52l-5.07.94q-7.13,1.25-10.23,3a10.17,10.17,0,0,0-5.26,9.45q0,5.7,3.21,8.24a12.21,12.21,0,0,0,7.81,2.54,23.27,23.27,0,0,0,13.45-4.22q6.15-4.22,6.39-15.39Z"/>
        <path class="cls-1" d="M282.81,179.3q.71,5.94,3.06,8.44,4.16,4.45,15.39,4.45,6.59,0,10.48-2a6.25,6.25,0,0,0,3.89-5.86,6.32,6.32,0,0,0-3.13-5.7q-3.13-2-23.29-6.72-14.52-3.59-20.45-9t-5.94-15.31q0-11.8,9.28-20.27t26.11-8.48q16,0,26,6.37t11.55,22H313.52a13.16,13.16,0,0,0-2.43-6.8q-3.68-4.53-12.54-4.53-7.29,0-10.38,2.27t-3.09,5.31a5.81,5.81,0,0,0,3.29,5.55q3.29,1.8,23.25,6.17,13.31,3.13,19.95,9.45a21.46,21.46,0,0,1,6.56,16,25.86,25.86,0,0,1-9.43,20.66q-9.43,8-29.16,8-20.12,0-29.71-8.48a27.55,27.55,0,0,1-9.59-21.6Z"/>
        <path class="cls-1" d="M371.8,179.3q.71,5.94,3.06,8.44,4.16,4.45,15.39,4.45,6.59,0,10.48-2a6.25,6.25,0,0,0,3.89-5.86,6.32,6.32,0,0,0-3.13-5.7q-3.13-2-23.29-6.72-14.51-3.59-20.45-9t-5.94-15.31q0-11.8,9.28-20.27t26.11-8.48q16,0,26,6.37t11.55,22H402.5a13.16,13.16,0,0,0-2.43-6.8q-3.68-4.53-12.54-4.53-7.29,0-10.38,2.27t-3.09,5.31a5.81,5.81,0,0,0,3.29,5.55q3.29,1.8,23.25,6.17,13.31,3.13,19.95,9.45a21.46,21.46,0,0,1,6.56,16,25.86,25.86,0,0,1-9.43,20.66q-9.43,8-29.16,8-20.12,0-29.71-8.48a27.55,27.55,0,0,1-9.59-21.6Z"/>
        <path class="cls-1" d="M466.41,111.17H443.83V90.63h22.58Zm-22.58,10.16h22.58v85.16H443.83Z"/>
        <path class="cls-1" d="M538.91,151.88a19.74,19.74,0,0,0-3.21-8.59q-3.76-5.16-11.67-5.16-11.28,0-15.43,11.17-2.19,5.92-2.19,15.74,0,9.35,2.19,15,4,10.63,15,10.63,7.83,0,11.12-4.22a21,21,0,0,0,4-10.94h22.73a37.24,37.24,0,0,1-7.35,19.22q-10.48,14.61-31,14.61t-30.26-12.19q-9.7-12.19-9.7-31.6,0-21.91,10.71-34.1T523.4,119.3q16,0,26.24,7.19t12.08,25.39Z"/>
      </g>
    </g>
  </g>
</svg>
