<svg xmlns="http://www.w3.org/2000/svg" xmlns:xlink="http://www.w3.org/1999/xlink" viewBox="0 0 600 300.46" class="img-button" >
  <defs>
    <style>
      .cls-1 {
        fill: #fff;
      }
    </style>
  </defs>
  <title>modern_button</title>
  <g id="Layer_2" data-name="Layer 2">
    <g id="Layer_1-2" data-name="Layer 1">
      <image width="600" height="300" transform="translate(0 0.46)" xlink:href="../../assets/theme_src/moder_background_hover.png"/>
      <image class="fade" width="600" height="300" xlink:href="../../assets/theme_src/modern_background.png" ng-mouseover="$ctrl.setHoverObject('modern')" ng-hide="$ctrl.hoverObject === 'modern'"/>
      <g>
        <path class="cls-1" d="M134.47,123a23.22,23.22,0,0,1,9.3,7.18,23,23,0,0,1,4.54,10.25,71,71,0,0,1,.73,11.79l-.15,50.32H127.51V151.72a16.69,16.69,0,0,0-1.46-7.47q-2.78-5.56-10.25-5.57-8.64,0-11.94,7.18a22.53,22.53,0,0,0-1.68,9.16v47.53h-21V155q0-7.1-1.46-10.33-2.64-5.78-10.33-5.79-8.94,0-12,5.79-1.69,3.3-1.68,9.81v48H34.5V122.86H54.79v11.65q3.88-6.22,7.32-8.86Q68.19,121,77.86,121q9.16,0,14.79,4a23.44,23.44,0,0,1,6.88,9.59,26.54,26.54,0,0,1,10.18-10.33,31.06,31.06,0,0,1,14.36-3.3A27.81,27.81,0,0,1,134.47,123Z"/>
        <path class="cls-1" d="M234.81,192.78q-10.11,12.48-30.69,12.48t-30.69-12.48q-10.11-12.48-10.11-30,0-17.27,10.11-29.93t30.69-12.66q20.58,0,30.69,12.66t10.11,29.93Q244.92,180.31,234.81,192.78Zm-16.7-11.54q4.91-6.51,4.91-18.5t-4.91-18.47q-4.91-6.47-14.06-6.47T190,144.28Q185,150.75,185,162.74t4.94,18.5q4.94,6.51,14.1,6.51T218.12,181.25Z"/>
        <path class="cls-1" d="M302.2,124a25.36,25.36,0,0,1,9.16,8.83V94.74h21.17V202.55H312.23V191.49a29.44,29.44,0,0,1-10.18,10.33Q296.34,205,287.84,205q-14,0-23.55-11.32t-9.56-29q0-20.43,9.41-32.15t25.16-11.72A25.75,25.75,0,0,1,302.2,124Zm5.13,56.87q4.61-6.59,4.61-17.07,0-14.65-7.4-20.95A15.93,15.93,0,0,0,294,139.05q-9.16,0-13.44,6.92t-4.29,17.18q0,11.06,4.36,17.69t13.22,6.63Q302.71,187.46,307.32,180.87Z"/>
        <path class="cls-1" d="M403.51,124.33a32.48,32.48,0,0,1,13.8,11.81,39.23,39.23,0,0,1,6.36,16.5,102,102,0,0,1,.69,15.84H366.21q.49,12,8.35,16.85a21.2,21.2,0,0,0,11.51,3q7.13,0,11.59-3.66a17.55,17.55,0,0,0,4.3-5.49h21.31q-.84,7.11-7.74,14.43-10.73,11.65-30,11.65a43.52,43.52,0,0,1-28.12-9.82q-12.18-9.82-12.18-32,0-20.74,11-31.81t28.55-11.07A45.45,45.45,0,0,1,403.51,124.33Zm-31.23,18q-4.43,4.56-5.56,12.36h36q-.57-8.31-5.56-12.61a18.29,18.29,0,0,0-12.38-4.3Q376.71,137.81,372.28,142.37Z"/>
        <path class="cls-1" d="M479.26,120.85l1.79.11v21.39q-2-.22-3.52-.29T475,142q-12.6,0-16.92,8.2-2.42,4.61-2.42,14.21v38.16h-21V122.72h19.92v13.92q4.83-8,8.42-10.91,5.86-4.91,15.23-4.91C478.66,120.81,479,120.83,479.26,120.85Z"/>
        <path class="cls-1" d="M557.66,127.29q7.84,6.48,7.84,21.5v53.76H544.12V154q0-6.3-1.67-9.67-3.06-6.15-11.63-6.15-10.54,0-14.47,9a31.15,31.15,0,0,0-2,12.16v43.21H493.43V122.86h20.21v11.65a35.37,35.37,0,0,1,7.58-8.86q6.42-4.83,16.26-4.83Q549.82,120.81,557.66,127.29Z"/>
      </g>
    </g>
  </g>
</svg>
