<svg xmlns="http://www.w3.org/2000/svg" xmlns:xlink="http://www.w3.org/1999/xlink" viewBox="0 0 600 300.46" class="img-button" >
  <defs>
    <style>
      .cls-1 {
        fill: #fff;
      }
    </style>
  </defs>
  <title>playful_button</title>
  <g id="Layer_2" data-name="Layer 2">
    <g id="Layer_1-2" data-name="Layer 1">
      <image width="600" height="300" transform="translate(0 0.46)" xlink:href="../../assets/theme_src/playful_background_hover.png"/>
      <image class="fade" width="600" height="300" xlink:href="../../assets/theme_src/playful_background.png" ng-mouseover="$ctrl.setHoverObject('playful')" ng-hide="$ctrl.hoverObject === 'playful'"/>
      <g>
        <path class="cls-1" d="M135.91,117.11q9.77,10.33,9.77,30.32,0,21.09-9.55,32.15t-24.58,11.06q-9.58,0-15.92-4.76a30.75,30.75,0,0,1-6.78-7.69v41.6H68.19V108.54h20v11.79a33.6,33.6,0,0,1,7.22-8.2,26.66,26.66,0,0,1,16.66-5.35A31.57,31.57,0,0,1,135.91,117.11Zm-16,15q-4.26-7.1-13.8-7.1-11.47,0-15.76,10.77a40.42,40.42,0,0,0-2.22,14.5q0,13.92,7.47,19.56a17.14,17.14,0,0,0,10.51,3.3q8.81,0,13.43-6.74t4.63-17.94A31.18,31.18,0,0,0,119.89,132.13Z"/>
        <path class="cls-1" d="M181.71,188.38H160.84v-108h20.87Z"/>
        <path class="cls-1" d="M233.7,139.82A33,33,0,0,0,242,138q4.5-1.9,4.5-5.93,0-4.91-3.45-6.77t-10.13-1.87q-7.5,0-10.62,3.66a15.1,15.1,0,0,0-3,7.32H199.22q.66-10.47,5.88-17.21,8.31-10.55,28.54-10.55a50.9,50.9,0,0,1,23.39,5.2q10.22,5.2,10.22,19.63v36.62q0,3.81.15,9.23.22,4.1,1.25,5.57a7.47,7.47,0,0,0,3.08,2.42v3.08H249a23.23,23.23,0,0,1-1.32-4.54q-.37-2.12-.59-4.83a43.09,43.09,0,0,1-10,8,30.27,30.27,0,0,1-15.32,3.88q-10.9,0-18-6.19t-7.11-17.54q0-14.72,11.44-21.31,6.27-3.59,18.45-5.13Zm12.76,9.74a23.07,23.07,0,0,1-4,2,34.21,34.21,0,0,1-5.61,1.43l-4.75.88q-6.68,1.17-9.59,2.86a9.53,9.53,0,0,0-4.93,8.86q0,5.35,3,7.73a11.44,11.44,0,0,0,7.33,2.38,21.82,21.82,0,0,0,12.61-4q5.76-4,6-14.43Z"/>
        <path class="cls-1" d="M288.65,203.69l2.64.15a32.9,32.9,0,0,0,5.86-.22,10.54,10.54,0,0,0,4.69-1.68q1.83-1.25,3.41-5.2t1.36-4.83l-29.33-83.35h23.22l17.43,58.89,16.48-58.89h22.19l-27.37,78.52q-7.93,22.7-12.55,28.16t-18.48,5.46q-2.79,0-4.47,0t-5.06-.26Z"/>
        <path class="cls-1" d="M402,79.43l4.39.33v17q-1.76-.22-5.9-.33t-5.71,1.83a6.64,6.64,0,0,0-1.57,4.28v6.74h13.7V124h-13.7v64.38H372.44V124H360.72V109.28h11.43v-5.13q0-12.82,4.32-17.65,4.54-7.18,21.9-7.18Q400.34,79.32,402,79.43Z"/>
        <path class="cls-1" d="M439.67,108.54v48.12q0,6.81,1.6,10.25,2.84,6.08,11.15,6.08,10.64,0,14.58-8.64,2-4.69,2-12.38V108.54h21.17v79.83H469.92V177.1q-.29.37-1.46,2.2a14.66,14.66,0,0,1-2.78,3.22,29,29,0,0,1-9.46,6,32.18,32.18,0,0,1-10.7,1.61q-17.67,0-23.81-12.74-3.43-7-3.43-20.73V108.54Z"/>
        <path class="cls-1" d="M531.81,188.38H510.94v-108h20.87Z"/>
      </g>
    </g>
  </g>
</svg>
