<svg xmlns="http://www.w3.org/2000/svg" viewBox="0 0 450 306">
  <defs>
    <style>
      .cls-1 {
        fill: #A9140A;
      }
    </style>
  </defs>
  <title>frame_classic_06</title>
  <g id="Layer_2" data-name="Layer 2">
    <g id="classic_borders">
      <g id="Layer_7" data-name="Layer 7">
        <path class="cls-1" d="M443.77,32.61v-1l-9.95-9.7V13.45l-.72-.7h-8.7l-9-8.79h-1l-9,8.79H375.28L371.2,8.13l-.54-.24H347l-.72.7v4.16H103.75V8.59l-.72-.7H79.34l-.54.24-4.08,4.62H44.64L35.63,4h-1l-9,8.79H17.1l-.72.7v8.28L6.23,31.62v1l10.15,9.9v77.66l-6.27,5.72-.23.51v24.08l.72.7h5.78v3.63H10.6l-.72.7V179.6l.23.51,6.27,5.72v77.66l-10.15,9.9v1l10.15,9.9v8.35l.72.7h8.56L34.61,302h1l8.95-8.72h30.2l4,4.55.54.24H103l.72-.7v-4.09H346.25v4.09l.72.7h23.69l.54-.24,4-4.55h30.2l8.95,8.72h1l8.95-8.72h8.77l.72-.7v-8.55l9.95-9.7v-1l-9.95-9.7v-78l6.07-5.54.23-.51V155.52l-.72-.7h-5.58v-3.63h5.58l.72-.7V126.4l-.23-.51-6.07-5.54v-78Zm-95,263v-2.29h19.67l-2.35,2.29ZM79,290.82,74,286h30.47l4.91,4.79Zm4.92,4.79-2.35-2.29h19.67v2.29Zm-19.33-4.79-6.34-6.18V274.57l14.37,16.25Zm-45.59-4,4.15,4H18.95ZM101.19,10.39v2.36H81.45l2.42-2.36Zm269.92,4.86L376,20H345.48l-4.84-4.72Zm-5-4.86,2.42,2.36H348.81V10.39Zm19.4,4.86,6.28,6.12V31.43L377.49,15.25Zm45.73,4.18L427,15.25h4.29Zm0,161.89L388,223.51H377.29l-.46.16L355,241.25l.46,1.24h16.17l-19.89,19.39h-5.23l-.51.21-7.34,7.16h-6.54l-.72.7v20.88H118.56V269.94l-.72-.7h-6.54L104,262.08l-.51-.21H98.23L78.34,242.49H94.52l.46-1.24L73.17,223.67l-.46-.16H62l-43.08-42v-57L62,82.49H72.71l.46-.16L95,64.75l-.46-1.24H78.35L98.23,44.12h5.23l.51-.21,7.34-7.16h6.54l.72-.7V15.25H331.44V36.06l.72.7h6.54L346,43.92l.51.21h5.23l19.89,19.38H355.48L355,64.75l21.81,17.59.46.16H388l43.28,42.19ZM334,290.82V271.74h22.52l-19.57,19.08Zm73.59-21.58H394.37v-21.4L412,265ZM378.14,283.9H347.67L349,282.6h30.47Zm-14.07-19.52-5,4.86H342.32l5-4.86Zm28.45-22.77-.72.7V252.6l-9.52,9.28h-12l26.85-26.17,6.06,5.9Zm-.72,14.53v13.1H378.36Zm13.93-12,10.54,10.28v3.89l-14.54-14.17Zm10.54,6.74-6.92-6.74h6.92ZM367.7,264.38h12l-5,4.86h-12ZM399.9,233l7.16-7h24.19v7Zm25.61-28.5-2.74,2.67-6.05-5.9,2.83-2.58ZM421,208.93l-15,14.58H392.35L414.84,203ZM403.44,226l-7.16,7H382l7.65-7Zm-26.53,8.29.51,1.19h16.3L389.09,240H363.71l14.35-14h7.35Zm9.62,8.2-19.89,19.39H355.39l19.89-19.39Zm-34.23,36.9h30.47l-1.1,1.08H351.19Zm2.19-2.13,5.66-5.52h30.47L385,277.26ZM405,271.74l-10.66,10.39V271.74ZM394.37,244.3v-.19h3.74l17.63,17.19-2,1.92Zm36.88,1.88-12.41,12.1v-16l-.72-.7H406.79l-6.28-6.12h30.74Zm-21.62-22.68,21.62-21.08v21.08Zm17.7-20.79-5.9-5.76,2.92-2.66,5.81,5.67Zm1.32,49.54.34-.33,2.27,2.21v.65Zm1.88-1.84.72-.7v1.41Zm-14.25,40.4H409l7.32-7.14Zm2.57-29,8.26-8.05,4.15,4V283l-8,7.78h-4.43Zm-305.79,29L93.48,271.74H116v19.08ZM70.53,282.6H101l1.33,1.29H71.86Zm32.17-18.22,5,4.86H90.92l-5-4.86Zm-69-13.53v-6.74h6.92Zm0,3.54,10.54-10.28h4L33.72,258.28Zm46,7.49h-12L58.2,252.6V242.31l-.72-.7H46.83l6.05-5.9ZM58.2,256.14l13.44,13.1H58.2Zm17.07,13.1-5-4.86h12l5,4.86Zm8.1-7.36L63.48,242.49H74.72L94.6,261.88ZM60.91,240l-4.62-4.51h16.3l.51-1.19L64.59,226h7.35l14.35,14ZM68,233H53.72l-7.16-7H60.39Zm-24-9.48L29,208.93l6.11-6,22.5,20.54ZM27.23,207.16l-2.74-2.67,6-5.81,2.83,2.58Zm-4.55-4.44L19.85,200l5.81-5.67L28.58,197Zm17.7,20.79H18.95V202.63Zm2.56,2.5,7.16,7H18.95v-7Zm9,18.11h3.74v.19L36.22,263.22l-2-1.92Zm3.74,3.73v21.4H42.4L38,265Zm0,23.9v10.39L45,271.74Zm34.22,0,5.66,5.52H65l-5.66-5.52Zm-21.52,8.73-1.1-1.08H97.71l1.1,1.08Zm-18.85-45-6.28,6.12H31.88l-.72.7v16l-12.21-11.9V235.49ZM18.95,253.95l2.07-2,.33.33-2.4,2.34Zm.52-3.52-.52.51v-1Zm-.52,7.19,4-3.85,8.26,8.05v29H26.73l-7.78-7.58Zm14.78,26.06L41,290.82H33.72ZM116,15.25v19H93.48l19.5-19ZM42.4,36.76H55.63v21.4L38,41ZM71.86,22.1h30.47L101,23.4H70.53ZM85.93,41.62l5-4.86h16.76l-5,4.86ZM33.72,55.15l6.91,6.74H33.72Zm0-3.54V47.72L48.26,61.89h-4ZM58.2,49.86V36.76H71.64Zm-.72,14.53.72-.7V53.4l9.52-9.28h12L52.89,70.29l-6.05-5.9ZM82.3,41.62h-12l5-4.86h12ZM24.49,101.51l2.74-2.67,6.05,5.9-2.83,2.58ZM29,97.07,44,82.49H57.65L35.16,103ZM46.56,80l7.16-7H68l-7.65,7Zm26.53-8.29-.51-1.2H56.29L60.91,66H86.29L71.94,80H64.59Zm-9.61-8.2L83.36,44.12H94.6L74.72,63.51ZM97.71,26.6H67.24l1.1-1.07H98.81Zm-2.19,2.13-5.66,5.52H59.38L65,28.74ZM45,34.26,55.63,23.87V34.26ZM55.63,61.7v.19H51.89L34.26,44.7l2-1.92ZM50.09,73l-7.16,7h-24V73ZM22.67,103.28l5.9,5.76-2.92,2.66L19.85,106ZM21.35,53.74l-.33.33-2.07-2V51.4Zm-2.4,5.88,12.21-11.9v16l.72.7H43.21l6.28,6.12H18.95ZM40.37,82.49,18.95,103.37V82.49ZM33.72,15.25H41l-7.26,7.07ZM31.16,44.18,22.9,52.23l-4-3.85V22.76l7.71-7.52h4.5ZM19.47,55.58l-.52.51v-1ZM337,15.25l19.5,19H334v-19Zm42.46,8.15H349l-1.33-1.29h30.47ZM347.31,41.62l-5-4.86h16.76l5,4.86Zm69,13.53v6.74h-6.92Zm0-3.54L405.73,61.89h-4l14.54-14.17Zm-46-7.49h12l9.52,9.28V63.69l.72.7h10.65l-6.05,5.9Zm21.54,5.74-13.44-13.1H391.8Zm-17.07-13.1,5,4.86h-12l-5-4.86Zm-8.1,7.36,19.89,19.38H375.28L355.4,44.12ZM389.09,66l4.62,4.5H377.42l-.51,1.2,8.5,8.29h-7.35L363.71,66ZM382,73h14.32l7.16,7H389.61Zm24,9.48,15,14.58-6.11,6-22.5-20.54Zm16.77,16.35,2.74,2.67-6,5.81-2.83-2.58ZM407.06,80l-7.16-7h31.35v7Zm-9-18.11h-3.74V61.7l19.41-18.92,2,1.92Zm-3.74-3.73V36.76H407.6L412,41Zm0-23.9V23.87L405,34.26Zm-34.22,0-5.66-5.52H385l5.66,5.52Zm21.52-8.73,1.1,1.07H352.29l-1.1-1.07ZM421.42,109l5.9-5.76,2.82,2.75-5.81,5.67ZM409.63,82.49h21.62v21.08Zm-9.12-12,6.28-6.12h11.33l.72-.7v-16l12.41,12.1V70.51Zm30-14.93.72-.7v1.41Zm.72-3.72L429,54.07l-.33-.33,2.6-2.54Zm0-3.67-4.15,4-8.26-8.05V15.25h4.5L431.25,23Zm-15-25.87L409,15.25h7.26Zm17.54,3.14,6.83,6.66-6.83,6.66ZM409,12.75,414.88,7l5.89,5.75Zm7.29,13.11V41.68L389.16,15.25h16.24ZM104.52,20H74l4.84-4.72h30.47ZM58.2,31.43V21.36l6.28-6.12h8ZM33.72,41.68V25.86L44.61,15.25H60.84Zm-4.5-28.94L35.12,7,41,12.75ZM18.95,19.23v-4H23ZM16.38,39l-7-6.85,7-6.85Zm7.41,74.43-4.84,4.42v-9.14Zm-7.41,35.28H12.45V130.82L16.38,127Zm0,30.33-3.93-3.83V157.32h3.93Zm7.41,13.58-4.84,4.72v-9.14Zm-7.41,88.14-7-6.85,7-6.85Zm24.57,12.58L35.12,299l-5.83-5.68Zm-7.23-13.17V264.32l27.19,26.5H44.68ZM345.48,286H376L371,290.82H340.57Zm46.32-11.47v10.07l-6.34,6.18h-8Zm24.47-10.25v15.83l-11,10.67H389.09Zm4.43,29L414.88,299l-5.83-5.68Zm10.55-6.75v4.24H426.9Zm2.57-19.35,6.83,6.66-6.83,6.66Zm-7.61-74.63,5-4.6v9.52Zm7.61-35.28h3.73v17.87l-3.73,3.64Zm0-30.14,3.73,3.64v17.87h-3.73Zm-7.61-13.77,5-4.91V118Z"/>
        <g>
          <rect class="cls-1" x="439.17" y="154.82" width="10.83" height="2.49"/>
          <rect class="cls-1" x="439.17" y="148.69" width="10.83" height="2.49"/>
        </g>
        <g>
          <rect class="cls-1" y="154.82" width="10.83" height="2.49"/>
          <rect class="cls-1" y="148.69" width="10.83" height="2.49"/>
        </g>
        <rect class="cls-1" x="218.66" y="298.41" width="12.68" height="2.49" transform="translate(524.66 74.66) rotate(90)"/>
        <rect class="cls-1" x="218.66" y="5.09" width="12.68" height="2.49" transform="translate(231.34 -218.66) rotate(90)"/>
      </g>
    </g>
  </g>
</svg>
