<svg xmlns="http://www.w3.org/2000/svg" viewBox="0 0 623.83 94.84">
  <defs>
    <style>
      .light-blue {
        fill: #d4effb;
      }
      .dark-blue {
        fill: #6DC4E2;
      }
      .white-fill {
        fill: #FFF;
      }
      .button-hover {
        opacity: .5;
      }
      .dark-gray {
        fill: #B3B3B3;
      }
      .light-gray {
        fill: #E6E6E6;
      }
    </style>
  </defs>
  <title>progress_bar_1</title>
  <g id="Layer_2" data-name="Layer 2">
    <g id="Layer_2-2" data-name="Layer 2">
      <polygon id="step_1_chevron" class="light-blue" ng-class="{'dark-blue':$ctrl.curStep === 1}" ng-mouseenter="$ctrl.setHoverStep(1)" ng-mouseleave="$ctrl.setHoverStep(0)" points="78.96 71.95 0 71.95 20 35.98 0 0 78.96 0 108.96 35.98 78.96 71.95" ui-sref="themeSelection"/>
      <polygon id="step_2_chevron" class="light-blue" ng-class="{'dark-blue':$ctrl.curStep === 2}" ng-mouseenter="$ctrl.setHoverStep(2)" ng-mouseleave="$ctrl.setHoverStep(0)" points="167.92 71.95 88.96 71.95 118.96 35.98 88.96 0 167.92 0 197.92 35.98 167.92 71.95" ui-sref="photoUpload"/>
      <polygon id="step_3_chevron" class="light-blue" ng-class="{'dark-blue':$ctrl.curStep === 3}" ng-mouseenter="$ctrl.setHoverStep(3)" ng-mouseleave="$ctrl.setHoverStep(0)" points="256.88 71.95 177.92 71.95 207.92 35.98 177.92 0 256.88 0 286.88 35.98 256.88 71.95" ui-sref="imageComposition"/>
      <polygon id="step_4_chevron" class="light-blue" ng-class="{'dark-blue':$ctrl.curStep === 4}" ng-mouseenter="$ctrl.setHoverStep(4)" ng-mouseleave="$ctrl.setHoverStep(0)" points="345.84 71.95 266.88 71.95 296.88 35.98 266.88 0 345.84 0 375.84 35.98 345.84 71.95" ui-sref="messageComposition"/>
      <polygon id="step_5_chevron" class="light-blue" ng-class="{'dark-blue':$ctrl.curStep === 5}" ng-mouseenter="$ctrl.setHoverStep(5)" ng-mouseleave="$ctrl.setHoverStep(0)" points="434.8 71.95 355.84 71.95 385.84 35.98 355.84 0 434.8 0 464.8 35.98 434.8 71.95" ui-sref="payment"/>
      <g ng-if="$ctrl.isInitilized"></g>
      <g id="step_1_text" ng-if="$ctrl.hoverStep === 1">
        <path class="dark-blue" d="M2.58,88.68a2,2,0,0,0,.38,1,2.24,2.24,0,0,0,1.79.62A3.86,3.86,0,0,0,6,90.17,1.17,1.17,0,0,0,6.9,89a.86.86,0,0,0-.44-.77,4.78,4.78,0,0,0-1.4-.47L4,87.52a6.8,6.8,0,0,1-2.21-.77,2.46,2.46,0,0,1-1-2.18,2.9,2.9,0,0,1,1-2.25,4.25,4.25,0,0,1,2.93-.9,4.49,4.49,0,0,1,2.75.84,3,3,0,0,1,1.19,2.45h-2a1.44,1.44,0,0,0-.81-1.29,2.79,2.79,0,0,0-1.25-.25,2.39,2.39,0,0,0-1.33.33,1,1,0,0,0-.5.92.86.86,0,0,0,.49.81,6.11,6.11,0,0,0,1.34.42l1.77.42A4.5,4.5,0,0,1,8,86.78a2.47,2.47,0,0,1,.9,2.06,2.89,2.89,0,0,1-1.07,2.29,4.51,4.51,0,0,1-3,.91,4.93,4.93,0,0,1-3.13-.9A3,3,0,0,1,.57,88.68Z"/>
        <path class="dark-blue" d="M9.48,85.79V84.4h1V82.33h1.93V84.4h1.21v1.39H12.45v3.94a.89.89,0,0,0,.12.57,1.28,1.28,0,0,0,.71.11h.38v1.46l-.92,0a2.48,2.48,0,0,1-1.89-.48,1.42,1.42,0,0,1-.33-1V85.79Z"/>
        <path class="dark-blue" d="M19.76,84.49a3,3,0,0,1,1.29,1.1,3.64,3.64,0,0,1,.59,1.54,9.46,9.46,0,0,1,.06,1.48H16.28a1.79,1.79,0,0,0,.78,1.57,2,2,0,0,0,1.07.28,1.51,1.51,0,0,0,1.48-.85h2A2.43,2.43,0,0,1,20.89,91,3.62,3.62,0,0,1,18.08,92a4.06,4.06,0,0,1-2.63-.92,3.61,3.61,0,0,1-1.14-3,4,4,0,0,1,1-3,3.59,3.59,0,0,1,2.67-1A4.24,4.24,0,0,1,19.76,84.49Zm-2.92,1.68a2,2,0,0,0-.52,1.15h3.36a1.62,1.62,0,0,0-.52-1.18,1.71,1.71,0,0,0-1.16-.4A1.55,1.55,0,0,0,16.85,86.17Z"/>
        <path class="dark-blue" d="M29,85.14A4,4,0,0,1,29.87,88,4.47,4.47,0,0,1,29,91a2.89,2.89,0,0,1-2.29,1,2.4,2.4,0,0,1-1.49-.44,2.86,2.86,0,0,1-.63-.72v3.88H22.64V84.34h1.87v1.1a3.14,3.14,0,0,1,.67-.77,2.49,2.49,0,0,1,1.56-.5A2.94,2.94,0,0,1,29,85.14Zm-1.5,1.4a1.39,1.39,0,0,0-1.29-.66,1.47,1.47,0,0,0-1.47,1,3.79,3.79,0,0,0-.21,1.35,2.15,2.15,0,0,0,.7,1.83,1.6,1.6,0,0,0,1,.31,1.43,1.43,0,0,0,1.25-.63,3.29,3.29,0,0,0,0-3.2Z"/>
        <path class="dark-blue" d="M35.2,85V83.63a8.61,8.61,0,0,0,1.29-.12,1.81,1.81,0,0,0,1-.52,1.71,1.71,0,0,0,.38-.71,1.65,1.65,0,0,0,.08-.4h1.63v9.91h-2V85Z"/>
        <path class="dark-blue" d="M43.6,84.62h2.07v2H43.6Zm0,5.12h2.07v2H43.6Z"/>
        <path class="dark-blue" d="M59,81.71V83.5h-3v8.29H53.82V83.5h-3V81.71Z"/>
        <path class="dark-blue" d="M65.38,84.38a2.18,2.18,0,0,1,.92.73,2,2,0,0,1,.37.86,10.53,10.53,0,0,1,.07,1.44v4.38h-2V87.25a2,2,0,0,0-.2-1,1,1,0,0,0-1-.52,1.38,1.38,0,0,0-1.16.52,2.38,2.38,0,0,0-.4,1.48v4H60v-10H62V85.3a2.38,2.38,0,0,1,1-.91,2.75,2.75,0,0,1,1.17-.26A3.17,3.17,0,0,1,65.38,84.38Z"/>
        <path class="dark-blue" d="M73.43,84.49a3,3,0,0,1,1.29,1.1,3.64,3.64,0,0,1,.59,1.54,9.46,9.46,0,0,1,.06,1.48H70a1.79,1.79,0,0,0,.78,1.57,2,2,0,0,0,1.07.28,1.51,1.51,0,0,0,1.48-.85h2A2.43,2.43,0,0,1,74.55,91,3.62,3.62,0,0,1,71.75,92a4.06,4.06,0,0,1-2.62-.92,3.61,3.61,0,0,1-1.14-3,4,4,0,0,1,1-3,3.59,3.59,0,0,1,2.67-1A4.24,4.24,0,0,1,73.43,84.49Zm-2.92,1.68A2,2,0,0,0,70,87.32h3.36a1.62,1.62,0,0,0-.52-1.18,1.71,1.71,0,0,0-1.16-.4A1.55,1.55,0,0,0,70.52,86.17Z"/>
        <path class="dark-blue" d="M85.66,84.36a2.16,2.16,0,0,1,.87.67A2.14,2.14,0,0,1,87,86a6.58,6.58,0,0,1,.07,1.1v4.7H85V87a1.56,1.56,0,0,0-.14-.7,1,1,0,0,0-1-.52,1.12,1.12,0,0,0-1.11.67,2.11,2.11,0,0,0-.16.85v4.44h-2V87.35a2.5,2.5,0,0,0-.14-1,1,1,0,0,0-1-.54,1.15,1.15,0,0,0-1.12.54,2.09,2.09,0,0,0-.16.92v4.48h-2V84.35h1.89v1.09a3.14,3.14,0,0,1,.68-.83,2.7,2.7,0,0,1,2.85-.06,2.19,2.19,0,0,1,.64.9,2.48,2.48,0,0,1,1-1,2.9,2.9,0,0,1,1.34-.31A2.6,2.6,0,0,1,85.66,84.36Z"/>
        <path class="dark-blue" d="M93.67,84.49A3,3,0,0,1,95,85.59a3.64,3.64,0,0,1,.59,1.54,9.46,9.46,0,0,1,.06,1.48H90.19A1.79,1.79,0,0,0,91,90.18a2,2,0,0,0,1.07.28,1.51,1.51,0,0,0,1.48-.85h2A2.43,2.43,0,0,1,94.79,91,3.62,3.62,0,0,1,92,92a4.06,4.06,0,0,1-2.62-.92,3.61,3.61,0,0,1-1.14-3,4,4,0,0,1,1-3,3.59,3.59,0,0,1,2.67-1A4.24,4.24,0,0,1,93.67,84.49Zm-2.92,1.68a2,2,0,0,0-.52,1.15h3.36a1.62,1.62,0,0,0-.52-1.18,1.71,1.71,0,0,0-1.16-.4A1.55,1.55,0,0,0,90.75,86.17Z"/>
        <path class="dark-blue" d="M102.16,88.68a2,2,0,0,0,.38,1,2.24,2.24,0,0,0,1.79.62,3.86,3.86,0,0,0,1.24-.16,1.17,1.17,0,0,0,.9-1.17.86.86,0,0,0-.44-.77,4.78,4.78,0,0,0-1.4-.47l-1.09-.24a6.8,6.8,0,0,1-2.21-.77,2.46,2.46,0,0,1-1-2.18,2.9,2.9,0,0,1,1-2.25,4.25,4.25,0,0,1,2.93-.9,4.49,4.49,0,0,1,2.75.84,3,3,0,0,1,1.19,2.45h-2a1.44,1.44,0,0,0-.81-1.29,2.79,2.79,0,0,0-1.25-.25,2.39,2.39,0,0,0-1.33.33,1,1,0,0,0-.5.92.86.86,0,0,0,.49.81,6.11,6.11,0,0,0,1.34.42l1.77.42a4.5,4.5,0,0,1,1.74.73,2.47,2.47,0,0,1,.9,2.06,2.89,2.89,0,0,1-1.07,2.29,4.51,4.51,0,0,1-3,.91,4.93,4.93,0,0,1-3.13-.9,3,3,0,0,1-1.14-2.47Z"/>
        <path class="dark-blue" d="M114.68,84.49a3,3,0,0,1,1.29,1.1,3.64,3.64,0,0,1,.59,1.54,9.46,9.46,0,0,1,.06,1.48H111.2a1.79,1.79,0,0,0,.78,1.57,2,2,0,0,0,1.07.28,1.51,1.51,0,0,0,1.48-.85h2A2.43,2.43,0,0,1,115.8,91,3.62,3.62,0,0,1,113,92a4.06,4.06,0,0,1-2.62-.92,3.61,3.61,0,0,1-1.14-3,4,4,0,0,1,1-3,3.59,3.59,0,0,1,2.67-1A4.24,4.24,0,0,1,114.68,84.49Zm-2.92,1.68a2,2,0,0,0-.52,1.15h3.36a1.62,1.62,0,0,0-.52-1.18,1.71,1.71,0,0,0-1.16-.4A1.55,1.55,0,0,0,111.77,86.17Z"/>
        <path class="dark-blue" d="M119.6,91.79h-1.95V81.71h1.95Z"/>
        <path class="dark-blue" d="M126.36,84.49a3,3,0,0,1,1.29,1.1,3.64,3.64,0,0,1,.59,1.54,9.46,9.46,0,0,1,.06,1.48h-5.43a1.79,1.79,0,0,0,.78,1.57,2,2,0,0,0,1.07.28,1.51,1.51,0,0,0,1.48-.85h2a2.43,2.43,0,0,1-.72,1.35,3.62,3.62,0,0,1-2.8,1.09,4.06,4.06,0,0,1-2.62-.92,3.61,3.61,0,0,1-1.14-3,4,4,0,0,1,1-3,3.59,3.59,0,0,1,2.67-1A4.24,4.24,0,0,1,126.36,84.49Zm-2.92,1.68a2,2,0,0,0-.52,1.15h3.36a1.62,1.62,0,0,0-.52-1.18,1.71,1.71,0,0,0-1.16-.4A1.55,1.55,0,0,0,123.44,86.17Z"/>
        <path class="dark-blue" d="M133.74,87a1.71,1.71,0,0,0-.28-.75,1.18,1.18,0,0,0-1-.45,1.34,1.34,0,0,0-1.35,1,4.06,4.06,0,0,0-.19,1.38,3.73,3.73,0,0,0,.19,1.32,1.3,1.3,0,0,0,1.32.93,1.16,1.16,0,0,0,1-.37,1.83,1.83,0,0,0,.35-1h2a3.26,3.26,0,0,1-.64,1.68A3.13,3.13,0,0,1,132.36,92,3.18,3.18,0,0,1,129.71,91a4.31,4.31,0,0,1-.85-2.77,4.37,4.37,0,0,1,.94-3,3.27,3.27,0,0,1,2.59-1.07,3.89,3.89,0,0,1,2.29.63A2.92,2.92,0,0,1,135.74,87Z"/>
        <path class="dark-blue" d="M136.31,85.79V84.4h1V82.33h1.93V84.4h1.21v1.39h-1.21v3.94a.89.89,0,0,0,.12.57,1.28,1.28,0,0,0,.71.11h.38v1.46l-.92,0a2.48,2.48,0,0,1-1.89-.48,1.42,1.42,0,0,1-.33-1V85.79Z"/>
        <path class="dark-blue" d="M143.74,83.45h-2v-1.8h2Zm-2,.89h2v7.45h-2Z"/>
        <path class="dark-blue" d="M151.84,90.88a4.1,4.1,0,0,1-5.73,0,4.62,4.62,0,0,1,0-5.6,4.06,4.06,0,0,1,5.73,0,4.62,4.62,0,0,1,0,5.6Zm-1.56-1.08a3.48,3.48,0,0,0,0-3.45,1.73,1.73,0,0,0-2.63,0,3.46,3.46,0,0,0,0,3.45,1.73,1.73,0,0,0,2.63,0Z"/>
        <path class="dark-blue" d="M160.19,84.76a2.47,2.47,0,0,1,.73,2v5h-2V87.26a2.07,2.07,0,0,0-.16-.9,1.1,1.1,0,0,0-1.09-.57,1.35,1.35,0,0,0-1.35.84,2.9,2.9,0,0,0-.19,1.13v4h-1.95V84.35h1.89v1.09a3.28,3.28,0,0,1,.71-.83,2.45,2.45,0,0,1,1.52-.45A2.86,2.86,0,0,1,160.19,84.76Z"/>
      </g>
      <g id="step_2_text" ng-if="$ctrl.hoverStep === 2">
        <path class="dark-blue" d="M91.54,88.68a2,2,0,0,0,.38,1,2.24,2.24,0,0,0,1.79.62A3.86,3.86,0,0,0,95,90.17a1.17,1.17,0,0,0,.9-1.17.86.86,0,0,0-.44-.77,4.78,4.78,0,0,0-1.4-.47l-1.09-.24a6.8,6.8,0,0,1-2.21-.77,2.46,2.46,0,0,1-1-2.18,2.9,2.9,0,0,1,1-2.25,4.25,4.25,0,0,1,2.93-.9,4.49,4.49,0,0,1,2.75.84,3,3,0,0,1,1.19,2.45h-2a1.44,1.44,0,0,0-.81-1.29,2.79,2.79,0,0,0-1.25-.25,2.39,2.39,0,0,0-1.33.33,1,1,0,0,0-.5.92.86.86,0,0,0,.49.81,6.11,6.11,0,0,0,1.34.42l1.77.42a4.5,4.5,0,0,1,1.74.73,2.47,2.47,0,0,1,.9,2.06,2.89,2.89,0,0,1-1.07,2.29,4.51,4.51,0,0,1-3,.91,4.93,4.93,0,0,1-3.13-.9,3,3,0,0,1-1.14-2.47Z"/>
        <path class="dark-blue" d="M98.44,85.79V84.4h1V82.33h1.93V84.4h1.21v1.39h-1.21v3.94a.89.89,0,0,0,.12.57,1.28,1.28,0,0,0,.71.11h.38v1.46l-.92,0a2.48,2.48,0,0,1-1.89-.48,1.42,1.42,0,0,1-.33-1V85.79Z"/>
        <path class="dark-blue" d="M108.73,84.49a3,3,0,0,1,1.29,1.1,3.64,3.64,0,0,1,.59,1.54,9.46,9.46,0,0,1,.06,1.48h-5.43a1.79,1.79,0,0,0,.78,1.57,2,2,0,0,0,1.07.28,1.51,1.51,0,0,0,1.48-.85h2a2.43,2.43,0,0,1-.72,1.35A3.62,3.62,0,0,1,107,92a4.06,4.06,0,0,1-2.62-.92,3.61,3.61,0,0,1-1.14-3,4,4,0,0,1,1-3,3.59,3.59,0,0,1,2.67-1A4.24,4.24,0,0,1,108.73,84.49Zm-2.92,1.68a2,2,0,0,0-.52,1.15h3.36a1.62,1.62,0,0,0-.52-1.18,1.71,1.71,0,0,0-1.16-.4A1.55,1.55,0,0,0,105.81,86.17Z"/>
        <path class="dark-blue" d="M117.92,85.14a4,4,0,0,1,.91,2.83,4.47,4.47,0,0,1-.89,3,2.89,2.89,0,0,1-2.29,1,2.4,2.4,0,0,1-1.49-.44,2.86,2.86,0,0,1-.63-.72v3.88H111.6V84.34h1.87v1.1a3.14,3.14,0,0,1,.67-.77,2.49,2.49,0,0,1,1.56-.5A2.94,2.94,0,0,1,117.92,85.14Zm-1.5,1.4a1.39,1.39,0,0,0-1.29-.66,1.47,1.47,0,0,0-1.47,1,3.79,3.79,0,0,0-.21,1.35,2.15,2.15,0,0,0,.7,1.83,1.6,1.6,0,0,0,1,.31,1.43,1.43,0,0,0,1.25-.63,3.29,3.29,0,0,0,0-3.2Z"/>
        <path class="dark-blue" d="M124.08,89.84a5.51,5.51,0,0,1,2-2.1,14.51,14.51,0,0,0,1.74-1.38,2,2,0,0,0,.61-1.42,1.57,1.57,0,0,0-.35-1,1.42,1.42,0,0,0-2.21.25,3.28,3.28,0,0,0-.22,1.22h-1.89a4.79,4.79,0,0,1,.46-2A2.86,2.86,0,0,1,127,81.83a3.52,3.52,0,0,1,2.5.87A3,3,0,0,1,130.4,85a3.12,3.12,0,0,1-.66,2,6.56,6.56,0,0,1-1.42,1.26l-.78.55q-.73.52-1,.75a2.19,2.19,0,0,0-.46.54h4.33v1.72h-6.79A4.66,4.66,0,0,1,124.08,89.84Z"/>
        <path class="dark-blue" d="M132.56,84.62h2.07v2h-2.07Zm0,5.12h2.07v2h-2.07Z"/>
        <path class="dark-blue" d="M142.51,91.79h-2.09V81.71h2.09Z"/>
        <path class="dark-blue" d="M153.62,84.36a2.16,2.16,0,0,1,.87.67,2.14,2.14,0,0,1,.42,1,6.58,6.58,0,0,1,.07,1.1v4.7h-2V87a1.56,1.56,0,0,0-.14-.7,1,1,0,0,0-1-.52,1.12,1.12,0,0,0-1.11.67,2.11,2.11,0,0,0-.16.85v4.44h-2V87.35a2.5,2.5,0,0,0-.14-1,1,1,0,0,0-1-.54,1.15,1.15,0,0,0-1.12.54,2.09,2.09,0,0,0-.16.92v4.48h-2V84.35h1.89v1.09a3.14,3.14,0,0,1,.68-.83,2.7,2.7,0,0,1,2.85-.06,2.19,2.19,0,0,1,.64.9,2.48,2.48,0,0,1,1-1,2.9,2.9,0,0,1,1.34-.31A2.6,2.6,0,0,1,153.62,84.36Z"/>
        <path class="dark-blue" d="M159.72,87.26a3.08,3.08,0,0,0,.78-.17.59.59,0,0,0,.42-.55.65.65,0,0,0-.32-.63,2,2,0,0,0-.95-.17,1.24,1.24,0,0,0-1,.34,1.41,1.41,0,0,0-.28.68h-1.88a2.86,2.86,0,0,1,.55-1.61,3.2,3.2,0,0,1,2.66-1,4.75,4.75,0,0,1,2.18.49,1.86,1.86,0,0,1,1,1.83v3.42q0,.36,0,.86a1.09,1.09,0,0,0,.12.52.69.69,0,0,0,.29.23v.29h-2.12a2.12,2.12,0,0,1-.12-.42c0-.13,0-.28-.05-.45a4,4,0,0,1-.94.75,2.82,2.82,0,0,1-1.43.36,2.47,2.47,0,0,1-1.68-.58,2.05,2.05,0,0,1-.66-1.64,2.12,2.12,0,0,1,1.07-2,4.77,4.77,0,0,1,1.72-.48Zm1.19.91a2.16,2.16,0,0,1-.38.19,3.2,3.2,0,0,1-.52.13l-.44.08a2.92,2.92,0,0,0-.9.27.89.89,0,0,0-.46.83.86.86,0,0,0,.28.72,1.07,1.07,0,0,0,.68.22,2,2,0,0,0,1.18-.37,1.56,1.56,0,0,0,.56-1.35Z"/>
        <path class="dark-blue" d="M168.25,84.33a2.34,2.34,0,0,1,1.15,1.08V84.34h1.9V91.4a4,4,0,0,1-.49,2.17q-.83,1.26-3.2,1.26a4.36,4.36,0,0,1-2.33-.56,2.07,2.07,0,0,1-1-1.67h2.12a.88.88,0,0,0,.27.49,1.65,1.65,0,0,0,1.06.27,1.42,1.42,0,0,0,1.41-.7,3.56,3.56,0,0,0,.23-1.52v-.48a2.38,2.38,0,0,1-.6.72,2.42,2.42,0,0,1-1.51.44,2.86,2.86,0,0,1-2.29-1,4.08,4.08,0,0,1-.86-2.73,4.61,4.61,0,0,1,.83-2.79,2.73,2.73,0,0,1,2.34-1.13A2.57,2.57,0,0,1,168.25,84.33Zm.66,5.34a2.39,2.39,0,0,0,.47-1.64,2.52,2.52,0,0,0-.45-1.61,1.45,1.45,0,0,0-1.19-.55,1.41,1.41,0,0,0-1.41,1,3.44,3.44,0,0,0-.2,1.26,2.89,2.89,0,0,0,.22,1.16,1.42,1.42,0,0,0,1.42.94A1.5,1.5,0,0,0,168.91,89.67Z"/>
        <path class="dark-blue" d="M178,84.49a3,3,0,0,1,1.29,1.1,3.64,3.64,0,0,1,.59,1.54,9.46,9.46,0,0,1,.06,1.48h-5.43a1.79,1.79,0,0,0,.78,1.57,2,2,0,0,0,1.07.28,1.51,1.51,0,0,0,1.48-.85h2a2.43,2.43,0,0,1-.72,1.35,3.62,3.62,0,0,1-2.8,1.09,4.06,4.06,0,0,1-2.62-.92,3.61,3.61,0,0,1-1.14-3,4,4,0,0,1,1-3,3.59,3.59,0,0,1,2.67-1A4.24,4.24,0,0,1,178,84.49Zm-2.92,1.68a2,2,0,0,0-.52,1.15h3.36a1.62,1.62,0,0,0-.52-1.18,1.71,1.71,0,0,0-1.16-.4A1.55,1.55,0,0,0,175.05,86.17Z"/>
        <path class="dark-blue" d="M184.94,81.71h2.14V87.9a3.51,3.51,0,0,0,.25,1.52,2,2,0,0,0,3.32,0,3.51,3.51,0,0,0,.25-1.52V81.71H193V87.9a5.2,5.2,0,0,1-.5,2.5Q191.6,92,189,92t-3.55-1.64a5.2,5.2,0,0,1-.5-2.5Z"/>
        <path class="dark-blue" d="M201.16,85.14a4,4,0,0,1,.91,2.83,4.47,4.47,0,0,1-.89,3,2.89,2.89,0,0,1-2.29,1,2.4,2.4,0,0,1-1.49-.44,2.86,2.86,0,0,1-.63-.72v3.88h-1.93V84.34h1.87v1.1a3.14,3.14,0,0,1,.67-.77,2.49,2.49,0,0,1,1.56-.5A2.94,2.94,0,0,1,201.16,85.14Zm-1.5,1.4a1.39,1.39,0,0,0-1.29-.66,1.47,1.47,0,0,0-1.47,1,3.79,3.79,0,0,0-.21,1.35,2.15,2.15,0,0,0,.7,1.83,1.6,1.6,0,0,0,1,.31,1.43,1.43,0,0,0,1.25-.63,3.29,3.29,0,0,0,0-3.2Z"/>
        <path class="dark-blue" d="M205.44,91.79h-1.95V81.71h1.95Z"/>
        <path class="dark-blue" d="M213.55,90.88a4.1,4.1,0,0,1-5.73,0,4.62,4.62,0,0,1,0-5.6,4.06,4.06,0,0,1,5.73,0,4.62,4.62,0,0,1,0,5.6ZM212,89.8a3.48,3.48,0,0,0,0-3.45,1.73,1.73,0,0,0-2.63,0,3.46,3.46,0,0,0,0,3.45,1.73,1.73,0,0,0,2.63,0Z"/>
        <path class="dark-blue" d="M218.84,87.26a3.08,3.08,0,0,0,.78-.17.59.59,0,0,0,.42-.55.65.65,0,0,0-.32-.63,2,2,0,0,0-.95-.17,1.24,1.24,0,0,0-1,.34,1.41,1.41,0,0,0-.28.68h-1.88a2.86,2.86,0,0,1,.55-1.61,3.2,3.2,0,0,1,2.66-1,4.75,4.75,0,0,1,2.18.49,1.86,1.86,0,0,1,1,1.83v3.42q0,.36,0,.86a1.09,1.09,0,0,0,.12.52.69.69,0,0,0,.29.23v.29h-2.12a2.12,2.12,0,0,1-.12-.42c0-.13,0-.28-.05-.45a4,4,0,0,1-.94.75,2.82,2.82,0,0,1-1.43.36,2.47,2.47,0,0,1-1.68-.58,2.05,2.05,0,0,1-.66-1.64,2.12,2.12,0,0,1,1.07-2,4.77,4.77,0,0,1,1.72-.48Zm1.19.91a2.16,2.16,0,0,1-.38.19,3.2,3.2,0,0,1-.52.13l-.44.08a2.92,2.92,0,0,0-.9.27.89.89,0,0,0-.46.83.86.86,0,0,0,.28.72,1.07,1.07,0,0,0,.68.22,2,2,0,0,0,1.18-.37,1.56,1.56,0,0,0,.56-1.35Z"/>
        <path class="dark-blue" d="M227.63,84.46a2.37,2.37,0,0,1,.85.82V81.73h2V91.79h-1.89v-1a2.75,2.75,0,0,1-1,1,2.67,2.67,0,0,1-1.33.3,2.77,2.77,0,0,1-2.2-1.06,4.06,4.06,0,0,1-.89-2.71,4.67,4.67,0,0,1,.88-3,2.86,2.86,0,0,1,2.35-1.09A2.4,2.4,0,0,1,227.63,84.46Zm.48,5.31a2.72,2.72,0,0,0,.43-1.59,2.44,2.44,0,0,0-.69-2,1.49,1.49,0,0,0-1-.36,1.37,1.37,0,0,0-1.25.65,3,3,0,0,0-.4,1.6,3,3,0,0,0,.41,1.65,1.37,1.37,0,0,0,1.23.62A1.44,1.44,0,0,0,228.11,89.76Z"/>
      </g>
      <g id="step_3_text" ng-if="$ctrl.hoverStep === 3">
        <path class="dark-blue" d="M180.5,88.68a2,2,0,0,0,.38,1,2.24,2.24,0,0,0,1.79.62,3.86,3.86,0,0,0,1.24-.16,1.17,1.17,0,0,0,.9-1.17.86.86,0,0,0-.44-.77,4.78,4.78,0,0,0-1.4-.47l-1.09-.24a6.8,6.8,0,0,1-2.21-.77,2.46,2.46,0,0,1-1-2.18,2.9,2.9,0,0,1,1-2.25,4.25,4.25,0,0,1,2.93-.9,4.49,4.49,0,0,1,2.75.84,3,3,0,0,1,1.19,2.45h-2a1.44,1.44,0,0,0-.81-1.29,2.79,2.79,0,0,0-1.25-.25,2.39,2.39,0,0,0-1.33.33,1,1,0,0,0-.5.92.86.86,0,0,0,.49.81,6.11,6.11,0,0,0,1.34.42l1.77.42a4.5,4.5,0,0,1,1.74.73,2.47,2.47,0,0,1,.9,2.06,2.89,2.89,0,0,1-1.07,2.29,4.51,4.51,0,0,1-3,.91,4.93,4.93,0,0,1-3.13-.9,3,3,0,0,1-1.14-2.47Z"/>
        <path class="dark-blue" d="M187.4,85.79V84.4h1V82.33h1.93V84.4h1.21v1.39h-1.21v3.94a.89.89,0,0,0,.12.57,1.28,1.28,0,0,0,.71.11h.38v1.46l-.92,0a2.48,2.48,0,0,1-1.89-.48,1.42,1.42,0,0,1-.33-1V85.79Z"/>
        <path class="dark-blue" d="M197.68,84.49a3,3,0,0,1,1.29,1.1,3.64,3.64,0,0,1,.59,1.54,9.46,9.46,0,0,1,.06,1.48H194.2a1.79,1.79,0,0,0,.78,1.57,2,2,0,0,0,1.07.28,1.51,1.51,0,0,0,1.48-.85h2a2.43,2.43,0,0,1-.72,1.35A3.62,3.62,0,0,1,196,92a4.06,4.06,0,0,1-2.62-.92,3.61,3.61,0,0,1-1.14-3,4,4,0,0,1,1-3,3.59,3.59,0,0,1,2.67-1A4.24,4.24,0,0,1,197.68,84.49Zm-2.92,1.68a2,2,0,0,0-.52,1.15h3.36a1.62,1.62,0,0,0-.52-1.18,1.71,1.71,0,0,0-1.16-.4A1.55,1.55,0,0,0,194.77,86.17Z"/>
        <path class="dark-blue" d="M206.88,85.14a4,4,0,0,1,.91,2.83,4.47,4.47,0,0,1-.89,3,2.89,2.89,0,0,1-2.29,1,2.4,2.4,0,0,1-1.49-.44,2.86,2.86,0,0,1-.63-.72v3.88h-1.93V84.34h1.87v1.1a3.14,3.14,0,0,1,.67-.77,2.49,2.49,0,0,1,1.56-.5A2.94,2.94,0,0,1,206.88,85.14Zm-1.5,1.4a1.39,1.39,0,0,0-1.29-.66,1.47,1.47,0,0,0-1.47,1,3.79,3.79,0,0,0-.21,1.35,2.15,2.15,0,0,0,.7,1.83,1.6,1.6,0,0,0,1,.31,1.43,1.43,0,0,0,1.25-.63,3.29,3.29,0,0,0,0-3.2Z"/>
        <path class="dark-blue" d="M214.43,88.75a2.22,2.22,0,0,0,.19,1,1.31,1.31,0,0,0,1.29.72,1.42,1.42,0,0,0,1-.39,1.46,1.46,0,0,0,.43-1.13,1.28,1.28,0,0,0-.79-1.31,4,4,0,0,0-1.42-.18V86a3.67,3.67,0,0,0,1.32-.18,1.14,1.14,0,0,0,.65-1.16,1.3,1.3,0,0,0-.33-.92,1.21,1.21,0,0,0-.93-.36,1.18,1.18,0,0,0-1,.44,1.86,1.86,0,0,0-.31,1.17h-1.82a4.9,4.9,0,0,1,.25-1.4,3.15,3.15,0,0,1,.75-1.07,2.62,2.62,0,0,1,.91-.53,3.93,3.93,0,0,1,1.29-.18,3.43,3.43,0,0,1,2.29.73,2.45,2.45,0,0,1,.87,2,2.18,2.18,0,0,1-.52,1.48,1.78,1.78,0,0,1-.68.51,1.41,1.41,0,0,1,.77.46,2.45,2.45,0,0,1,.75,1.89,3.18,3.18,0,0,1-.87,2.21,3.32,3.32,0,0,1-2.58,1A3.12,3.12,0,0,1,213,90.66a4.08,4.08,0,0,1-.48-1.91Z"/>
        <path class="dark-blue" d="M221.52,84.62h2.07v2h-2.07Zm0,5.12h2.07v2h-2.07Z"/>
        <path class="dark-blue" d="M236.32,87.43a3.84,3.84,0,0,1-2.53.74h-2.1v3.62H229.6V81.71h4.33a3.49,3.49,0,0,1,2.39.78,3,3,0,0,1,.89,2.41A3.13,3.13,0,0,1,236.32,87.43Zm-1.61-3.63a1.7,1.7,0,0,0-1.12-.33h-1.9v3h1.9a1.61,1.61,0,0,0,1.12-.36,1.48,1.48,0,0,0,.4-1.15A1.39,1.39,0,0,0,234.71,83.8Z"/>
        <path class="dark-blue" d="M244.95,90.88a4.1,4.1,0,0,1-5.73,0,4.62,4.62,0,0,1,0-5.6,4.06,4.06,0,0,1,5.73,0,4.62,4.62,0,0,1,0,5.6Zm-1.56-1.08a3.48,3.48,0,0,0,0-3.45,1.73,1.73,0,0,0-2.63,0,3.46,3.46,0,0,0,0,3.45,1.73,1.73,0,0,0,2.63,0Z"/>
        <path class="dark-blue" d="M248.79,89.41a1.3,1.3,0,0,0,.27.74,1.82,1.82,0,0,0,1.35.39,2.06,2.06,0,0,0,.92-.17.55.55,0,0,0,.34-.51.55.55,0,0,0-.27-.5,11.18,11.18,0,0,0-2-.59,4.23,4.23,0,0,1-1.79-.79,1.7,1.7,0,0,1-.52-1.34,2.32,2.32,0,0,1,.81-1.77,3.26,3.26,0,0,1,2.29-.74,4.2,4.2,0,0,1,2.28.56,2.39,2.39,0,0,1,1,1.92h-1.95a1.15,1.15,0,0,0-.21-.59,1.34,1.34,0,0,0-1.1-.4,1.58,1.58,0,0,0-.91.2.57.57,0,0,0-.27.46.51.51,0,0,0,.29.49,12.47,12.47,0,0,0,2,.54,3.73,3.73,0,0,1,1.75.83,1.88,1.88,0,0,1,.57,1.4,2.26,2.26,0,0,1-.83,1.81,3.88,3.88,0,0,1-2.55.7,3.85,3.85,0,0,1-2.6-.74,2.41,2.41,0,0,1-.84-1.89Z"/>
        <path class="dark-blue" d="M254.3,85.79V84.4h1V82.33h1.93V84.4h1.21v1.39h-1.21v3.94a.89.89,0,0,0,.12.57,1.28,1.28,0,0,0,.71.11h.38v1.46l-.92,0a2.48,2.48,0,0,1-1.89-.48,1.42,1.42,0,0,1-.33-1V85.79Z"/>
        <path class="dark-blue" d="M264.19,87a1.71,1.71,0,0,0-.28-.75,1.18,1.18,0,0,0-1-.45,1.34,1.34,0,0,0-1.35,1,4.06,4.06,0,0,0-.19,1.38,3.73,3.73,0,0,0,.19,1.32,1.3,1.3,0,0,0,1.32.93,1.16,1.16,0,0,0,1-.37,1.83,1.83,0,0,0,.35-1h2a3.26,3.26,0,0,1-.64,1.68A3.13,3.13,0,0,1,262.81,92,3.18,3.18,0,0,1,260.16,91a4.31,4.31,0,0,1-.85-2.77,4.37,4.37,0,0,1,.94-3,3.27,3.27,0,0,1,2.59-1.07,3.89,3.89,0,0,1,2.29.63A2.92,2.92,0,0,1,266.19,87Z"/>
        <path class="dark-blue" d="M270.47,87.26a3.08,3.08,0,0,0,.78-.17.59.59,0,0,0,.42-.55.65.65,0,0,0-.32-.63,2,2,0,0,0-.95-.17,1.24,1.24,0,0,0-1,.34,1.41,1.41,0,0,0-.28.68h-1.88a2.86,2.86,0,0,1,.55-1.61,3.2,3.2,0,0,1,2.66-1,4.75,4.75,0,0,1,2.18.49,1.86,1.86,0,0,1,1,1.83v3.42q0,.36,0,.86a1.09,1.09,0,0,0,.12.52.69.69,0,0,0,.29.23v.29H271.9a2.12,2.12,0,0,1-.12-.42c0-.13,0-.28-.05-.45a4,4,0,0,1-.94.75,2.82,2.82,0,0,1-1.43.36,2.47,2.47,0,0,1-1.68-.58,2.05,2.05,0,0,1-.66-1.64,2.12,2.12,0,0,1,1.07-2,4.77,4.77,0,0,1,1.72-.48Zm1.19.91a2.16,2.16,0,0,1-.38.19,3.2,3.2,0,0,1-.52.13l-.44.08a2.92,2.92,0,0,0-.9.27.89.89,0,0,0-.46.83.86.86,0,0,0,.28.72,1.07,1.07,0,0,0,.68.22,2,2,0,0,0,1.18-.37,1.56,1.56,0,0,0,.56-1.35Z"/>
        <path class="dark-blue" d="M279.44,84.16h.17v2l-.33,0h-.23a1.62,1.62,0,0,0-1.58.77,3,3,0,0,0-.23,1.33v3.56h-2V84.34h1.86v1.3a4.11,4.11,0,0,1,.79-1,2.14,2.14,0,0,1,1.42-.46Z"/>
        <path class="dark-blue" d="M284.7,84.46a2.37,2.37,0,0,1,.85.82V81.73h2V91.79h-1.89v-1a2.75,2.75,0,0,1-1,1,2.67,2.67,0,0,1-1.33.3,2.77,2.77,0,0,1-2.2-1.06,4.06,4.06,0,0,1-.89-2.71,4.67,4.67,0,0,1,.88-3,2.86,2.86,0,0,1,2.35-1.09A2.4,2.4,0,0,1,284.7,84.46Zm.48,5.31a2.72,2.72,0,0,0,.43-1.59,2.44,2.44,0,0,0-.69-2,1.49,1.49,0,0,0-1-.36,1.37,1.37,0,0,0-1.25.65,3,3,0,0,0-.4,1.6,3,3,0,0,0,.41,1.65,1.37,1.37,0,0,0,1.23.62A1.44,1.44,0,0,0,285.18,89.76Z"/>
        <path class="dark-blue" d="M293.35,81.73h7.18V83.5h-5.09v2.32h4.46v1.75h-4.46v4.22h-2.09Z"/>
        <path class="dark-blue" d="M305.89,84.16h.17v2l-.33,0h-.23a1.62,1.62,0,0,0-1.58.77,3,3,0,0,0-.23,1.33v3.56h-2V84.34h1.86v1.3a4.11,4.11,0,0,1,.79-1,2.14,2.14,0,0,1,1.42-.46Z"/>
        <path class="dark-blue" d="M313.41,90.88a4.1,4.1,0,0,1-5.73,0,4.62,4.62,0,0,1,0-5.6,4.06,4.06,0,0,1,5.73,0,4.62,4.62,0,0,1,0,5.6Zm-1.56-1.08a3.48,3.48,0,0,0,0-3.45,1.73,1.73,0,0,0-2.63,0,3.46,3.46,0,0,0,0,3.45,1.73,1.73,0,0,0,2.63,0Z"/>
        <path class="dark-blue" d="M321.75,84.76a2.47,2.47,0,0,1,.73,2v5h-2V87.26a2.07,2.07,0,0,0-.16-.9,1.1,1.1,0,0,0-1.09-.57,1.35,1.35,0,0,0-1.35.84,2.9,2.9,0,0,0-.19,1.13v4h-1.95V84.35h1.89v1.09a3.28,3.28,0,0,1,.71-.83,2.45,2.45,0,0,1,1.52-.45A2.86,2.86,0,0,1,321.75,84.76Z"/>
        <path class="dark-blue" d="M323.53,85.79V84.4h1V82.33h1.93V84.4h1.21v1.39H326.5v3.94a.89.89,0,0,0,.12.57,1.28,1.28,0,0,0,.71.11h.38v1.46l-.92,0a2.48,2.48,0,0,1-1.89-.48,1.42,1.42,0,0,1-.33-1V85.79Z"/>
      </g>
      <g id="step_4_text" ng-if="$ctrl.hoverStep === 4">
        <path class="dark-blue" d="M269.46,88.68a2,2,0,0,0,.38,1,2.24,2.24,0,0,0,1.79.62,3.86,3.86,0,0,0,1.24-.16,1.17,1.17,0,0,0,.9-1.17.86.86,0,0,0-.44-.77,4.78,4.78,0,0,0-1.4-.47l-1.09-.24a6.8,6.8,0,0,1-2.21-.77,2.46,2.46,0,0,1-1-2.18,2.9,2.9,0,0,1,1-2.25,4.25,4.25,0,0,1,2.93-.9,4.49,4.49,0,0,1,2.75.84,3,3,0,0,1,1.19,2.45h-2a1.44,1.44,0,0,0-.81-1.29,2.79,2.79,0,0,0-1.25-.25,2.39,2.39,0,0,0-1.33.33,1,1,0,0,0-.5.92.86.86,0,0,0,.49.81,6.11,6.11,0,0,0,1.34.42l1.77.42a4.5,4.5,0,0,1,1.74.73,2.47,2.47,0,0,1,.9,2.06,2.89,2.89,0,0,1-1.07,2.29,4.51,4.51,0,0,1-3,.91,4.93,4.93,0,0,1-3.13-.9,3,3,0,0,1-1.14-2.47Z"/>
        <path class="dark-blue" d="M276.36,85.79V84.4h1V82.33h1.93V84.4h1.21v1.39h-1.21v3.94a.89.89,0,0,0,.12.57,1.28,1.28,0,0,0,.71.11h.38v1.46l-.92,0a2.48,2.48,0,0,1-1.89-.48,1.42,1.42,0,0,1-.33-1V85.79Z"/>
        <path class="dark-blue" d="M286.65,84.49a3,3,0,0,1,1.29,1.1,3.64,3.64,0,0,1,.59,1.54,9.46,9.46,0,0,1,.06,1.48h-5.43a1.79,1.79,0,0,0,.78,1.57,2,2,0,0,0,1.07.28,1.51,1.51,0,0,0,1.48-.85h2a2.43,2.43,0,0,1-.72,1.35A3.62,3.62,0,0,1,285,92a4.06,4.06,0,0,1-2.62-.92,3.61,3.61,0,0,1-1.14-3,4,4,0,0,1,1-3,3.59,3.59,0,0,1,2.67-1A4.24,4.24,0,0,1,286.65,84.49Zm-2.92,1.68a2,2,0,0,0-.52,1.15h3.36a1.62,1.62,0,0,0-.52-1.18,1.71,1.71,0,0,0-1.16-.4A1.55,1.55,0,0,0,283.73,86.17Z"/>
        <path class="dark-blue" d="M295.84,85.14a4,4,0,0,1,.91,2.83,4.47,4.47,0,0,1-.89,3,2.89,2.89,0,0,1-2.29,1,2.4,2.4,0,0,1-1.49-.44,2.86,2.86,0,0,1-.63-.72v3.88h-1.93V84.34h1.87v1.1a3.14,3.14,0,0,1,.67-.77,2.49,2.49,0,0,1,1.56-.5A2.94,2.94,0,0,1,295.84,85.14Zm-1.5,1.4a1.39,1.39,0,0,0-1.29-.66,1.47,1.47,0,0,0-1.47,1,3.79,3.79,0,0,0-.21,1.35,2.15,2.15,0,0,0,.7,1.83,1.6,1.6,0,0,0,1,.31,1.43,1.43,0,0,0,1.25-.63,3.29,3.29,0,0,0,0-3.2Z"/>
        <path class="dark-blue" d="M308.43,89.65h-1.12v2.13H305.4V89.65h-3.92V88l3.64-6h2.19v6.19h1.12Zm-3-1.52V83.86l-2.47,4.27Z"/>
        <path class="dark-blue" d="M310.48,84.62h2.07v2h-2.07Zm0,5.12h2.07v2h-2.07Z"/>
        <path class="dark-blue" d="M325.28,87.43a3.84,3.84,0,0,1-2.53.74h-2.1v3.62h-2.09V81.71h4.33a3.49,3.49,0,0,1,2.39.78,3,3,0,0,1,.89,2.41A3.13,3.13,0,0,1,325.28,87.43Zm-1.61-3.63a1.7,1.7,0,0,0-1.12-.33h-1.9v3h1.9a1.61,1.61,0,0,0,1.12-.36,1.48,1.48,0,0,0,.4-1.15A1.39,1.39,0,0,0,323.67,83.8Z"/>
        <path class="dark-blue" d="M333.91,90.88a4.1,4.1,0,0,1-5.73,0,4.62,4.62,0,0,1,0-5.6,4.06,4.06,0,0,1,5.73,0,4.62,4.62,0,0,1,0,5.6Zm-1.56-1.08a3.48,3.48,0,0,0,0-3.45,1.73,1.73,0,0,0-2.63,0,3.46,3.46,0,0,0,0,3.45,1.73,1.73,0,0,0,2.63,0Z"/>
        <path class="dark-blue" d="M337.76,89.41a1.3,1.3,0,0,0,.27.74,1.82,1.82,0,0,0,1.35.39,2.06,2.06,0,0,0,.92-.17.55.55,0,0,0,.34-.51.55.55,0,0,0-.27-.5,11.18,11.18,0,0,0-2-.59,4.23,4.23,0,0,1-1.79-.79,1.7,1.7,0,0,1-.52-1.34,2.32,2.32,0,0,1,.81-1.77,3.26,3.26,0,0,1,2.29-.74,4.2,4.2,0,0,1,2.28.56,2.39,2.39,0,0,1,1,1.92h-1.95a1.15,1.15,0,0,0-.21-.59,1.34,1.34,0,0,0-1.1-.4,1.58,1.58,0,0,0-.91.2.57.57,0,0,0-.27.46.51.51,0,0,0,.29.49,12.47,12.47,0,0,0,2,.54,3.73,3.73,0,0,1,1.75.83,1.88,1.88,0,0,1,.57,1.4,2.26,2.26,0,0,1-.83,1.81,3.88,3.88,0,0,1-2.55.7,3.85,3.85,0,0,1-2.6-.74,2.41,2.41,0,0,1-.84-1.89Z"/>
        <path class="dark-blue" d="M343.27,85.79V84.4h1V82.33h1.93V84.4h1.21v1.39h-1.21v3.94a.89.89,0,0,0,.12.57,1.28,1.28,0,0,0,.71.11h.38v1.46l-.92,0a2.48,2.48,0,0,1-1.89-.48,1.42,1.42,0,0,1-.33-1V85.79Z"/>
        <path class="dark-blue" d="M353.15,87a1.71,1.71,0,0,0-.28-.75,1.18,1.18,0,0,0-1-.45,1.34,1.34,0,0,0-1.35,1,4.06,4.06,0,0,0-.19,1.38,3.73,3.73,0,0,0,.19,1.32,1.3,1.3,0,0,0,1.32.93,1.16,1.16,0,0,0,1-.37,1.83,1.83,0,0,0,.35-1h2a3.26,3.26,0,0,1-.64,1.68A3.13,3.13,0,0,1,351.77,92,3.18,3.18,0,0,1,349.12,91a4.31,4.31,0,0,1-.85-2.77,4.37,4.37,0,0,1,.94-3,3.27,3.27,0,0,1,2.59-1.07,3.89,3.89,0,0,1,2.29.63A2.92,2.92,0,0,1,355.15,87Z"/>
        <path class="dark-blue" d="M359.43,87.26a3.08,3.08,0,0,0,.78-.17.59.59,0,0,0,.42-.55.65.65,0,0,0-.32-.63,2,2,0,0,0-.95-.17,1.24,1.24,0,0,0-1,.34,1.41,1.41,0,0,0-.28.68h-1.88a2.86,2.86,0,0,1,.55-1.61,3.2,3.2,0,0,1,2.66-1,4.75,4.75,0,0,1,2.18.49,1.86,1.86,0,0,1,1,1.83v3.42q0,.36,0,.86a1.09,1.09,0,0,0,.12.52.69.69,0,0,0,.29.23v.29h-2.12a2.12,2.12,0,0,1-.12-.42c0-.13,0-.28-.05-.45a4,4,0,0,1-.94.75,2.82,2.82,0,0,1-1.43.36,2.47,2.47,0,0,1-1.68-.58,2.05,2.05,0,0,1-.66-1.64,2.12,2.12,0,0,1,1.07-2,4.77,4.77,0,0,1,1.72-.48Zm1.19.91a2.16,2.16,0,0,1-.38.19,3.2,3.2,0,0,1-.52.13l-.44.08a2.92,2.92,0,0,0-.9.27.89.89,0,0,0-.46.83.86.86,0,0,0,.28.72,1.07,1.07,0,0,0,.68.22,2,2,0,0,0,1.18-.37,1.56,1.56,0,0,0,.56-1.35Z"/>
        <path class="dark-blue" d="M368.4,84.16h.17v2l-.33,0H368a1.62,1.62,0,0,0-1.58.77,3,3,0,0,0-.23,1.33v3.56h-2V84.34h1.86v1.3a4.11,4.11,0,0,1,.79-1,2.14,2.14,0,0,1,1.42-.46Z"/>
        <path class="dark-blue" d="M373.66,84.46a2.37,2.37,0,0,1,.85.82V81.73h2V91.79H374.6v-1a2.75,2.75,0,0,1-1,1,2.67,2.67,0,0,1-1.33.3,2.77,2.77,0,0,1-2.2-1.06,4.06,4.06,0,0,1-.89-2.71,4.67,4.67,0,0,1,.88-3,2.86,2.86,0,0,1,2.35-1.09A2.4,2.4,0,0,1,373.66,84.46Zm.48,5.31a2.72,2.72,0,0,0,.43-1.59,2.44,2.44,0,0,0-.69-2,1.49,1.49,0,0,0-1-.36,1.37,1.37,0,0,0-1.25.65,3,3,0,0,0-.4,1.6,3,3,0,0,0,.41,1.65,1.37,1.37,0,0,0,1.23.62A1.44,1.44,0,0,0,374.14,89.76Z"/>
        <path class="dark-blue" d="M389.83,82.78a2.56,2.56,0,0,1,.46,1.54,2.24,2.24,0,0,1-.47,1.48,2.41,2.41,0,0,1-.77.57,2.24,2.24,0,0,1,1.16.89,2.67,2.67,0,0,1,.39,1.48,3,3,0,0,1-.45,1.61,2.78,2.78,0,0,1-1.85,1.3,7,7,0,0,1-1.42.14h-4.54V81.71h4.87A3.09,3.09,0,0,1,389.83,82.78Zm-5.47.68v2.22h2.45a2,2,0,0,0,1.07-.25,1,1,0,0,0,.41-.89.9.9,0,0,0-.54-.93,3.79,3.79,0,0,0-1.19-.16Zm0,3.89V90h2.45a2.38,2.38,0,0,0,1-.18,1.27,1.27,0,0,0,.66-1.26,1.08,1.08,0,0,0-.64-1.08,2.55,2.55,0,0,0-1-.17Z"/>
        <path class="dark-blue" d="M395.22,87.26a3.08,3.08,0,0,0,.78-.17.59.59,0,0,0,.42-.55.65.65,0,0,0-.32-.63,2,2,0,0,0-.95-.17,1.24,1.24,0,0,0-1,.34,1.41,1.41,0,0,0-.28.68H392a2.86,2.86,0,0,1,.55-1.61,3.2,3.2,0,0,1,2.66-1,4.75,4.75,0,0,1,2.18.49,1.86,1.86,0,0,1,1,1.83v3.42q0,.36,0,.86a1.09,1.09,0,0,0,.12.52.69.69,0,0,0,.29.23v.29h-2.12a2.12,2.12,0,0,1-.12-.42c0-.13,0-.28-.05-.45a4,4,0,0,1-.94.75,2.82,2.82,0,0,1-1.43.36,2.47,2.47,0,0,1-1.68-.58,2.05,2.05,0,0,1-.66-1.64,2.12,2.12,0,0,1,1.07-2,4.77,4.77,0,0,1,1.72-.48Zm1.19.91a2.16,2.16,0,0,1-.38.19,3.2,3.2,0,0,1-.52.13l-.44.08a2.92,2.92,0,0,0-.9.27.89.89,0,0,0-.46.83.86.86,0,0,0,.28.72,1.07,1.07,0,0,0,.68.22,2,2,0,0,0,1.18-.37,1.56,1.56,0,0,0,.56-1.35Z"/>
        <path class="dark-blue" d="M404.51,87a1.71,1.71,0,0,0-.28-.75,1.18,1.18,0,0,0-1-.45,1.34,1.34,0,0,0-1.35,1,4.06,4.06,0,0,0-.19,1.38,3.73,3.73,0,0,0,.19,1.32,1.3,1.3,0,0,0,1.32.93,1.16,1.16,0,0,0,1-.37,1.83,1.83,0,0,0,.35-1h2a3.26,3.26,0,0,1-.64,1.68A3.13,3.13,0,0,1,403.12,92,3.18,3.18,0,0,1,400.48,91a4.31,4.31,0,0,1-.85-2.77,4.37,4.37,0,0,1,.94-3,3.27,3.27,0,0,1,2.59-1.07,3.89,3.89,0,0,1,2.29.63A2.92,2.92,0,0,1,406.5,87Z"/>
        <path class="dark-blue" d="M407.82,81.75h1.91v5.44l2.46-2.81h2.42l-2.67,2.78,2.77,4.64h-2.37l-1.81-3.18-.81.84v2.34h-1.91Z"/>
      </g>
      <g id="step_5_text" ng-if="$ctrl.hoverStep === 5">
        <path class="dark-blue" d="M358.42,88.68a2,2,0,0,0,.38,1,2.24,2.24,0,0,0,1.79.62,3.86,3.86,0,0,0,1.24-.16,1.17,1.17,0,0,0,.9-1.17.86.86,0,0,0-.44-.77,4.78,4.78,0,0,0-1.4-.47l-1.09-.24a6.8,6.8,0,0,1-2.21-.77,2.46,2.46,0,0,1-1-2.18,2.9,2.9,0,0,1,1-2.25,4.25,4.25,0,0,1,2.93-.9,4.49,4.49,0,0,1,2.75.84,3,3,0,0,1,1.19,2.45h-2a1.44,1.44,0,0,0-.81-1.29,2.79,2.79,0,0,0-1.25-.25,2.39,2.39,0,0,0-1.33.33,1,1,0,0,0-.5.92.86.86,0,0,0,.49.81,6.11,6.11,0,0,0,1.34.42l1.77.42a4.5,4.5,0,0,1,1.74.73,2.47,2.47,0,0,1,.9,2.06,2.89,2.89,0,0,1-1.07,2.29,4.51,4.51,0,0,1-3,.91,4.93,4.93,0,0,1-3.13-.9,3,3,0,0,1-1.14-2.47Z"/>
        <path class="dark-blue" d="M365.32,85.79V84.4h1V82.33h1.93V84.4h1.21v1.39h-1.21v3.94a.89.89,0,0,0,.12.57,1.28,1.28,0,0,0,.71.11h.38v1.46l-.92,0a2.48,2.48,0,0,1-1.89-.48,1.42,1.42,0,0,1-.33-1V85.79Z"/>
        <path class="dark-blue" d="M375.61,84.49a3,3,0,0,1,1.29,1.1,3.64,3.64,0,0,1,.59,1.54,9.46,9.46,0,0,1,.06,1.48h-5.43a1.79,1.79,0,0,0,.78,1.57,2,2,0,0,0,1.07.28,1.51,1.51,0,0,0,1.48-.85h2a2.43,2.43,0,0,1-.72,1.35,3.62,3.62,0,0,1-2.8,1.09,4.06,4.06,0,0,1-2.62-.92,3.61,3.61,0,0,1-1.14-3,4,4,0,0,1,1-3,3.59,3.59,0,0,1,2.67-1A4.24,4.24,0,0,1,375.61,84.49Zm-2.92,1.68a2,2,0,0,0-.52,1.15h3.36a1.62,1.62,0,0,0-.52-1.18,1.71,1.71,0,0,0-1.16-.4A1.55,1.55,0,0,0,372.69,86.17Z"/>
        <path class="dark-blue" d="M384.8,85.14a4,4,0,0,1,.91,2.83,4.47,4.47,0,0,1-.89,3,2.89,2.89,0,0,1-2.29,1,2.4,2.4,0,0,1-1.49-.44,2.86,2.86,0,0,1-.63-.72v3.88h-1.93V84.34h1.87v1.1a3.14,3.14,0,0,1,.67-.77,2.49,2.49,0,0,1,1.56-.5A2.94,2.94,0,0,1,384.8,85.14Zm-1.5,1.4a1.39,1.39,0,0,0-1.29-.66,1.47,1.47,0,0,0-1.47,1,3.79,3.79,0,0,0-.21,1.35,2.15,2.15,0,0,0,.7,1.83,1.6,1.6,0,0,0,1,.31,1.43,1.43,0,0,0,1.25-.63,3.29,3.29,0,0,0,0-3.2Z"/>
        <path class="dark-blue" d="M392.38,89.14a1.88,1.88,0,0,0,.44,1,1.25,1.25,0,0,0,1,.35,1.29,1.29,0,0,0,1.1-.51,2.09,2.09,0,0,0,.38-1.28,2.23,2.23,0,0,0-.35-1.28,1.24,1.24,0,0,0-1.11-.52,1.9,1.9,0,0,0-.61.09,1.22,1.22,0,0,0-.69.61l-1.75-.08.7-5.48h5.45v1.65h-4l-.35,2.17a4,4,0,0,1,.7-.39,3,3,0,0,1,1-.16,3,3,0,0,1,3.06,3.23,3.78,3.78,0,0,1-.88,2.45A3.2,3.2,0,0,1,393.77,92a3.5,3.5,0,0,1-2.32-.76,3,3,0,0,1-1-2.15Z"/>
        <path class="dark-blue" d="M399.44,84.62h2.07v2h-2.07Zm0,5.12h2.07v2h-2.07Z"/>
        <path class="dark-blue" d="M414.24,87.43a3.84,3.84,0,0,1-2.53.74h-2.1v3.62h-2.09V81.71h4.33a3.49,3.49,0,0,1,2.39.78,3,3,0,0,1,.89,2.41A3.13,3.13,0,0,1,414.24,87.43Zm-1.61-3.63a1.7,1.7,0,0,0-1.12-.33h-1.9v3h1.9a1.61,1.61,0,0,0,1.12-.36,1.48,1.48,0,0,0,.4-1.15A1.39,1.39,0,0,0,412.63,83.8Z"/>
        <path class="dark-blue" d="M419.6,87.26a3.08,3.08,0,0,0,.78-.17.59.59,0,0,0,.42-.55.65.65,0,0,0-.32-.63,2,2,0,0,0-.95-.17,1.24,1.24,0,0,0-1,.34,1.41,1.41,0,0,0-.28.68h-1.88a2.86,2.86,0,0,1,.55-1.61,3.2,3.2,0,0,1,2.66-1,4.75,4.75,0,0,1,2.18.49,1.86,1.86,0,0,1,1,1.83v3.42q0,.36,0,.86a1.09,1.09,0,0,0,.12.52.69.69,0,0,0,.29.23v.29H421a2.12,2.12,0,0,1-.12-.42c0-.13,0-.28-.05-.45a4,4,0,0,1-.94.75,2.82,2.82,0,0,1-1.43.36,2.47,2.47,0,0,1-1.68-.58,2.05,2.05,0,0,1-.66-1.64,2.12,2.12,0,0,1,1.07-2,4.77,4.77,0,0,1,1.72-.48Zm1.19.91a2.16,2.16,0,0,1-.38.19,3.2,3.2,0,0,1-.52.13l-.44.08a2.92,2.92,0,0,0-.9.27.89.89,0,0,0-.46.83.86.86,0,0,0,.28.72,1.07,1.07,0,0,0,.68.22,2,2,0,0,0,1.18-.37,1.56,1.56,0,0,0,.56-1.35Z"/>
        <path class="dark-blue" d="M424.73,93.22H425a3,3,0,0,0,.55,0,1,1,0,0,0,.44-.16,1.05,1.05,0,0,0,.32-.49,1.17,1.17,0,0,0,.13-.45l-2.74-7.78h2.17l1.63,5.5,1.54-5.5h2.07l-2.55,7.33a10.33,10.33,0,0,1-1.17,2.63,2.23,2.23,0,0,1-1.72.51h-.42l-.47,0Z"/>
        <path class="dark-blue" d="M441.52,84.36a2.16,2.16,0,0,1,.87.67,2.14,2.14,0,0,1,.42,1,6.58,6.58,0,0,1,.07,1.1v4.7h-2V87a1.56,1.56,0,0,0-.14-.7,1,1,0,0,0-1-.52,1.12,1.12,0,0,0-1.11.67,2.11,2.11,0,0,0-.16.85v4.44h-2V87.35a2.5,2.5,0,0,0-.14-1,1,1,0,0,0-1-.54,1.15,1.15,0,0,0-1.12.54,2.09,2.09,0,0,0-.16.92v4.48h-2V84.35h1.89v1.09a3.14,3.14,0,0,1,.68-.83,2.7,2.7,0,0,1,2.85-.06,2.19,2.19,0,0,1,.64.9,2.48,2.48,0,0,1,1-1,2.9,2.9,0,0,1,1.34-.31A2.6,2.6,0,0,1,441.52,84.36Z"/>
        <path class="dark-blue" d="M449.53,84.49a3,3,0,0,1,1.29,1.1,3.64,3.64,0,0,1,.59,1.54,9.46,9.46,0,0,1,.06,1.48H446a1.79,1.79,0,0,0,.78,1.57,2,2,0,0,0,1.07.28,1.51,1.51,0,0,0,1.48-.85h2a2.43,2.43,0,0,1-.72,1.35,3.62,3.62,0,0,1-2.8,1.09,4.06,4.06,0,0,1-2.62-.92,3.61,3.61,0,0,1-1.14-3,4,4,0,0,1,1-3,3.59,3.59,0,0,1,2.67-1A4.24,4.24,0,0,1,449.53,84.49Zm-2.92,1.68a2,2,0,0,0-.52,1.15h3.36a1.62,1.62,0,0,0-.52-1.18,1.71,1.71,0,0,0-1.16-.4A1.55,1.55,0,0,0,446.61,86.17Z"/>
        <path class="dark-blue" d="M458.47,84.76a2.47,2.47,0,0,1,.73,2v5h-2V87.26a2.07,2.07,0,0,0-.16-.9,1.1,1.1,0,0,0-1.09-.57,1.35,1.35,0,0,0-1.35.84,2.9,2.9,0,0,0-.19,1.13v4h-1.95V84.35h1.89v1.09a3.28,3.28,0,0,1,.71-.83,2.45,2.45,0,0,1,1.52-.45A2.86,2.86,0,0,1,458.47,84.76Z"/>
        <path class="dark-blue" d="M460.25,85.79V84.4h1V82.33h1.93V84.4h1.21v1.39h-1.21v3.94a.89.89,0,0,0,.12.57,1.28,1.28,0,0,0,.71.11h.38v1.46l-.92,0a2.48,2.48,0,0,1-1.89-.48,1.42,1.42,0,0,1-.33-1V85.79Z"/>
      </g>
      <g id="next_step" ng-hide="$ctrl.nextStep === true && $ctrl.disabled === false" ng-mousedown="$ctrl.setNextButton()" ng-mouseenter="$ctrl.hoverNext(true)" ng-mouseleave="$ctrl.hoverNext(false)" ng-class="{'button-hover':$ctrl.buttonHover}">
        <rect ng-class="{'dark-gray':$ctrl.disabled}" class="light-blue" x="487.33" y="12.2" width="136.5" height="54.18"/>
        <rect ng-class="{'light-gray':$ctrl.disabled}" class="dark-blue" x="480.72" y="5.58" width="136.5" height="54.18"/>
        <g>
          <path class="white-fill" d="M495.21,25.38H499l6.88,12.08V25.38h3.38V42.71h-3.62l-7.05-12.3v12.3h-3.37Z"/>
          <path class="white-fill" d="M520.74,30.15A5.21,5.21,0,0,1,523,32a6.31,6.31,0,0,1,1,2.65,16.42,16.42,0,0,1,.11,2.54h-9.33a3.08,3.08,0,0,0,1.34,2.7,3.41,3.41,0,0,0,1.85.48A2.61,2.61,0,0,0,520.49,39h3.42a4.19,4.19,0,0,1-1.24,2.32,6.23,6.23,0,0,1-4.82,1.87,7,7,0,0,1-4.51-1.58q-2-1.58-2-5.13a6.94,6.94,0,0,1,1.77-5.11,6.18,6.18,0,0,1,4.58-1.78A7.3,7.3,0,0,1,520.74,30.15Zm-5,2.89a3.49,3.49,0,0,0-.89,2h5.77a2.8,2.8,0,0,0-.89-2,2.94,2.94,0,0,0-2-.69A2.66,2.66,0,0,0,515.73,33Z"/>
          <path class="white-fill" d="M524.51,42.71l4.37-6.49-4.19-6.3h4.1l2.14,3.71L533,29.92h4l-4.21,6.24,4.37,6.55H533l-2.21-3.85-2.23,3.85Z"/>
          <path class="white-fill" d="M537.86,32.4V30h1.79V26.44H543V30H545V32.4H543v6.77a1.53,1.53,0,0,0,.2,1,2.2,2.2,0,0,0,1.22.19h.32l.33,0v2.5l-1.59.06q-2.37.08-3.24-.82a2.45,2.45,0,0,1-.56-1.78V32.4Z"/>
          <path class="white-fill" d="M556.76,37.36a3.52,3.52,0,0,0,.66,1.78,3.84,3.84,0,0,0,3.08,1.07,6.63,6.63,0,0,0,2.13-.28,2,2,0,0,0,1.55-2,1.48,1.48,0,0,0-.76-1.33,8.23,8.23,0,0,0-2.41-.81l-1.88-.41a11.66,11.66,0,0,1-3.8-1.33,4.22,4.22,0,0,1-1.75-3.75,5,5,0,0,1,1.71-3.87,7.31,7.31,0,0,1,5-1.54,7.72,7.72,0,0,1,4.73,1.45,5.16,5.16,0,0,1,2.05,4.21h-3.48a2.48,2.48,0,0,0-1.4-2.22,4.8,4.8,0,0,0-2.16-.44,4.11,4.11,0,0,0-2.29.56,1.79,1.79,0,0,0-.86,1.58,1.49,1.49,0,0,0,.84,1.39,10.51,10.51,0,0,0,2.3.72l3,.72a7.74,7.74,0,0,1,3,1.26,4.24,4.24,0,0,1,1.55,3.54,5,5,0,0,1-1.84,3.94,7.75,7.75,0,0,1-5.19,1.57,8.48,8.48,0,0,1-5.38-1.55,5.11,5.11,0,0,1-2-4.25Z"/>
          <path class="white-fill" d="M568.62,32.4V30h1.79V26.44h3.32V30h2.08V32.4h-2.08v6.77a1.53,1.53,0,0,0,.2,1,2.2,2.2,0,0,0,1.22.19h.32l.33,0v2.5l-1.59.06q-2.37.08-3.24-.82a2.45,2.45,0,0,1-.56-1.78V32.4Z"/>
          <path class="white-fill" d="M586.31,30.15a5.21,5.21,0,0,1,2.21,1.9,6.31,6.31,0,0,1,1,2.65,16.42,16.42,0,0,1,.11,2.54h-9.33a3.08,3.08,0,0,0,1.34,2.7,3.41,3.41,0,0,0,1.85.48A2.61,2.61,0,0,0,586.06,39h3.42a4.19,4.19,0,0,1-1.24,2.32,6.23,6.23,0,0,1-4.82,1.87,7,7,0,0,1-4.51-1.58q-2-1.58-2-5.13a6.94,6.94,0,0,1,1.77-5.11,6.18,6.18,0,0,1,4.58-1.78A7.3,7.3,0,0,1,586.31,30.15Zm-5,2.89a3.49,3.49,0,0,0-.89,2h5.77a2.8,2.8,0,0,0-.89-2,2.94,2.94,0,0,0-2-.69A2.66,2.66,0,0,0,581.3,33Z"/>
          <path class="white-fill" d="M602.13,31.27a6.83,6.83,0,0,1,1.57,4.87,7.69,7.69,0,0,1-1.53,5.16,5,5,0,0,1-3.95,1.77,4.13,4.13,0,0,1-2.56-.76,4.92,4.92,0,0,1-1.09-1.23v6.68h-3.32V29.89h3.21v1.89a5.38,5.38,0,0,1,1.16-1.32,4.28,4.28,0,0,1,2.67-.86A5.07,5.07,0,0,1,602.13,31.27Zm-2.57,2.41a2.38,2.38,0,0,0-2.21-1.14,2.52,2.52,0,0,0-2.53,1.73,6.5,6.5,0,0,0-.36,2.33,3.7,3.7,0,0,0,1.2,3.14,2.75,2.75,0,0,0,1.69.53,2.45,2.45,0,0,0,2.16-1.08,5.66,5.66,0,0,0,.06-5.5Z"/>
        </g>
      </g>
      <g id="next_step_selected" ng-if="$ctrl.nextStep === true && $ctrl.disabled === false" ng-mouseup="$ctrl.next()">
        <rect class="light-blue" x="487.33" y="12.2" width="136.5" height="54.18"/>
        <rect class="dark-blue" x="487.33" y="12.2" width="136.5" height="54.18"/>
        <g>
          <path class="white-fill" d="M501.83,32h3.8l6.88,12.08V32h3.38V49.32h-3.62L505.2,37v12.3h-3.37Z"/>
          <path class="white-fill" d="M527.35,36.76a5.21,5.21,0,0,1,2.21,1.9,6.31,6.31,0,0,1,1,2.65,16.42,16.42,0,0,1,.11,2.54h-9.33a3.08,3.08,0,0,0,1.34,2.7,3.41,3.41,0,0,0,1.85.48,2.61,2.61,0,0,0,2.55-1.47h3.42a4.19,4.19,0,0,1-1.24,2.32,6.23,6.23,0,0,1-4.82,1.87,7,7,0,0,1-4.51-1.58q-2-1.58-2-5.13a6.94,6.94,0,0,1,1.77-5.11,6.18,6.18,0,0,1,4.58-1.78A7.3,7.3,0,0,1,527.35,36.76Zm-5,2.89a3.49,3.49,0,0,0-.89,2h5.77a2.8,2.8,0,0,0-.89-2,2.94,2.94,0,0,0-2-.69A2.66,2.66,0,0,0,522.34,39.66Z"/>
          <path class="white-fill" d="M531.12,49.32l4.37-6.49-4.19-6.3h4.1l2.14,3.71,2.09-3.71h4l-4.21,6.24,4.37,6.55h-4.17l-2.21-3.85-2.23,3.85Z"/>
          <path class="white-fill" d="M544.47,39V36.62h1.79V33h3.32v3.57h2.08V39h-2.08v6.77a1.53,1.53,0,0,0,.2,1A2.2,2.2,0,0,0,551,47h.32l.33,0v2.5l-1.59.06q-2.37.08-3.24-.82a2.45,2.45,0,0,1-.56-1.78V39Z"/>
          <path class="white-fill" d="M563.37,44a3.52,3.52,0,0,0,.66,1.78,3.84,3.84,0,0,0,3.08,1.07,6.63,6.63,0,0,0,2.13-.28,2,2,0,0,0,1.55-2,1.48,1.48,0,0,0-.76-1.33,8.23,8.23,0,0,0-2.41-.81L565.75,42a11.66,11.66,0,0,1-3.8-1.33,4.22,4.22,0,0,1-1.75-3.75A5,5,0,0,1,561.91,33a7.31,7.31,0,0,1,5-1.54,7.72,7.72,0,0,1,4.73,1.45,5.16,5.16,0,0,1,2.05,4.21h-3.48a2.48,2.48,0,0,0-1.4-2.22,4.8,4.8,0,0,0-2.16-.44,4.11,4.11,0,0,0-2.29.56,1.79,1.79,0,0,0-.86,1.58,1.49,1.49,0,0,0,.84,1.39,10.51,10.51,0,0,0,2.3.72l3,.72a7.74,7.74,0,0,1,3,1.26,4.24,4.24,0,0,1,1.55,3.54,5,5,0,0,1-1.84,3.94,7.75,7.75,0,0,1-5.19,1.57,8.48,8.48,0,0,1-5.38-1.55,5.11,5.11,0,0,1-2-4.25Z"/>
          <path class="white-fill" d="M575.24,39V36.62H577V33h3.32v3.57h2.08V39h-2.08v6.77a1.53,1.53,0,0,0,.2,1,2.2,2.2,0,0,0,1.22.19h.32l.33,0v2.5l-1.59.06q-2.37.08-3.24-.82A2.45,2.45,0,0,1,577,46.9V39Z"/>
          <path class="white-fill" d="M592.92,36.76a5.21,5.21,0,0,1,2.21,1.9,6.31,6.31,0,0,1,1,2.65,16.42,16.42,0,0,1,.11,2.54h-9.33a3.08,3.08,0,0,0,1.34,2.7,3.41,3.41,0,0,0,1.85.48,2.61,2.61,0,0,0,2.55-1.47h3.42a4.19,4.19,0,0,1-1.24,2.32A6.23,6.23,0,0,1,590,49.75a7,7,0,0,1-4.51-1.58q-2-1.58-2-5.13a6.94,6.94,0,0,1,1.77-5.11,6.18,6.18,0,0,1,4.58-1.78A7.3,7.3,0,0,1,592.92,36.76Zm-5,2.89a3.49,3.49,0,0,0-.89,2h5.77a2.8,2.8,0,0,0-.89-2,2.94,2.94,0,0,0-2-.69A2.66,2.66,0,0,0,587.91,39.66Z"/>
          <path class="white-fill" d="M608.74,37.88a6.83,6.83,0,0,1,1.57,4.87,7.69,7.69,0,0,1-1.53,5.16,5,5,0,0,1-3.95,1.77,4.13,4.13,0,0,1-2.56-.76,4.92,4.92,0,0,1-1.09-1.23v6.68h-3.32V36.5h3.21V38.4a5.38,5.38,0,0,1,1.16-1.32,4.28,4.28,0,0,1,2.67-.86A5.07,5.07,0,0,1,608.74,37.88Zm-2.57,2.41A2.38,2.38,0,0,0,604,39.15a2.52,2.52,0,0,0-2.53,1.73,6.5,6.5,0,0,0-.36,2.33,3.7,3.7,0,0,0,1.2,3.14,2.75,2.75,0,0,0,1.69.53,2.45,2.45,0,0,0,2.16-1.08,5.66,5.66,0,0,0,.06-5.5Z"/>
        </g>
      </g>
    </g>
  </g>
</svg>
