<svg xmlns="http://www.w3.org/2000/svg" viewBox="0 0 449.57 305.82">
  <defs>
    <style>
      .cls-1 {
        fill: none;
        stroke: #FFF;
        stroke-linecap: round;
        stroke-linejoin: round;
        stroke-width: 2px;
      }
    </style>
  </defs>
  <title>frame_playful-4</title>
  <g id="Layer_2" data-name="Layer 2">
    <g id="Layer_11" data-name="Layer 11">
      <path class="cls-1" d="M15.67,58.17c-.19-.5-.68-.47-1.14-.5a1.5,1.5,0,0,0-.36.05c-.07,0-.15,0-.2.07s-.28.34-.42.52-.08.17,0,.26c.23.29.62.16.93.21a1.53,1.53,0,0,0,.39,0,2.29,2.29,0,0,1,.43-.06c.15,0,.16.15,0,.31s-.15.14-.22.21-.08.16,0,.18a.72.72,0,0,0,.16,0l.18-.08c.25-.12.26-.2.36-.5S15.74,58.36,15.67,58.17Z"/>
      <path class="cls-1" d="M10.73,66.15a2.31,2.31,0,0,1-.38-.1,1.36,1.36,0,0,0-1,0c-.4.16-.4.16-.54.52a.34.34,0,0,1-.1.14c-.14.11-.11.21,0,.26a.6.6,0,0,0,.31.12c.47,0,1-.31,1.44-.22.2,0,.39-.17.45-.4S10.89,66.19,10.73,66.15Z"/>
      <path class="cls-1" d="M13.36,61.72a1,1,0,0,0-.7-.14l-1,.09a1.43,1.43,0,0,0-.62.56c-.11.23-.09.4.12.4a2.93,2.93,0,0,0,.75-.11,3,3,0,0,0,.57-.3c.19-.11.52,0,.56.11s.17.21.33,0S13.57,61.85,13.36,61.72Z"/>
      <path class="cls-1" d="M8.66,70.72a1.08,1.08,0,0,0-.18-.25c-.15-.15-.31-.3-.47-.44s-.08,0-.11,0l-.29.26a.33.33,0,0,0-.15.35.53.53,0,0,1-.07.23,1.78,1.78,0,0,1-.1.18c.06,0,.12.07.19.06a1.67,1.67,0,0,0,.39-.17c.17-.1.31-.12.44,0s.14,0,.22.07S8.73,70.84,8.66,70.72Z"/>
      <path class="cls-1" d="M7,74.26s-.1-.12-.15-.11-.26,0-.29-.21c0,0-.09,0-.12,0a4.76,4.76,0,0,0-.4.31s-.09.12-.08.14c.08.19,0,.28-.15.38a.23.23,0,0,0-.06.17.12.12,0,0,0,.13.06,1.18,1.18,0,0,0,.29-.17,3,3,0,0,0,.26-.26,3.06,3.06,0,0,0,.4-.11C6.88,74.4,6.93,74.32,7,74.26Z"/>
      <path class="cls-1" d="M5.62,77.79a.57.57,0,0,0-.2-.34,1.12,1.12,0,0,0-.4-.1,2,2,0,0,0-.07.26c0,.26.15.33.24.49a.24.24,0,0,0,.27.1A.39.39,0,0,0,5.62,77.79Z"/>
      <path class="cls-1" d="M2.94,86.46s-.05-.14-.09-.13a1.15,1.15,0,0,0-.32.18.65.65,0,0,0-.1.48c0,.11.39.13.5,0S3,86.66,2.94,86.46Z"/>
      <path class="cls-1" d="M4.21,82.46a1.28,1.28,0,0,0,.09-.3c-.08-.13-.13-.27-.22-.34s-.23,0-.34.28-.07.32.09.37a.63.63,0,0,0,.19.06A.24.24,0,0,0,4.21,82.46Z"/>
      <path class="cls-1" d="M2.12,90.53c-.06-.21-.19,0-.28,0a.33.33,0,0,0-.11.38c0,.17.12.18.24.07A.49.49,0,0,0,2.12,90.53Z"/>
      <path class="cls-1" d="M15.12,82.4c.19,0,.44-.27.58-.58s0-.4-.1-.43a1.44,1.44,0,0,1-.36-.07c-.28-.15-.68.06-1,.19a1.22,1.22,0,0,0-.7.73.72.72,0,0,1-.14.19c-.18.15-.17.28-.11.34a.36.36,0,0,0,.28.11C14.06,82.83,14.67,82.35,15.12,82.4Z"/>
      <path class="cls-1" d="M17.09,76.44c-.18.3-.21.51,0,.47a3.18,3.18,0,0,0,.79-.27,5.11,5.11,0,0,0,.66-.48c.23-.17.54-.16.54,0s.11.22.32,0,.36-.68.18-.8a.72.72,0,0,0-.67,0c-.34.11-.67.2-1,.31A2.93,2.93,0,0,0,17.09,76.44Z"/>
      <path class="cls-1" d="M12.13,87.51a.94.94,0,0,0-.1-.3,5.76,5.76,0,0,0-.33-.51s-.08,0-.12,0l-.36.36a.69.69,0,0,0-.25.46,1.14,1.14,0,0,1-.14.31c0,.08-.1.16-.15.24s.1.08.16.05a2.35,2.35,0,0,0,.44-.27c.2-.15.34-.19.42,0s.13,0,.19.06C12.07,87.78,12.16,87.66,12.13,87.51Z"/>
      <path class="cls-1" d="M9.44,92.29s-.06-.14-.11-.13-.25,0-.21-.24c0,0-.07,0-.11,0s-.31.29-.46.45a.56.56,0,0,0-.11.19.57.57,0,0,1-.25.51.52.52,0,0,0-.11.22.07.07,0,0,0,.11.06,1.81,1.81,0,0,0,.33-.26c.11-.11.21-.25.32-.37a3.36,3.36,0,0,0,.41-.2A1.43,1.43,0,0,0,9.44,92.29Z"/>
      <path class="cls-1" d="M7.16,97.07a.62.62,0,0,0-.08-.42c-.07-.08-.21-.05-.34-.08-.06.15-.11.25-.14.35-.1.35.05.42.09.62a.14.14,0,0,0,.22.1A.87.87,0,0,0,7.16,97.07Z"/>
      <path class="cls-1" d="M2.41,109.79c0,.14.33.12.44-.06a1.08,1.08,0,0,0,.08-.73s0-.19-.06-.17a1.31,1.31,0,0,0-.31.28A1.46,1.46,0,0,0,2.41,109.79Z"/>
      <path class="cls-1" d="M4.92,103a1.35,1.35,0,0,0-.12-.42c-.09-.1-.22.08-.37.42s-.13.44,0,.49.1.07.16.06a.26.26,0,0,0,.18-.12A3,3,0,0,0,4.92,103Z"/>
      <path class="cls-1" d="M1.52,114.74a.71.71,0,0,0-.13.53c0,.22.1.23.2.07a1,1,0,0,0,.17-.65C1.74,114.41,1.61,114.66,1.52,114.74Z"/>
      <path class="cls-1" d="M13,94.3a.55.55,0,0,1-.1.17c-.14.14-.12.25-.05.29a.36.36,0,0,0,.26.07c.41-.06.89-.51,1.3-.49.17,0,.36-.25.45-.52s0-.35-.15-.36a1.44,1.44,0,0,1-.33,0c-.27-.11-.6.09-.85.21A.94.94,0,0,0,13,94.3Z"/>
      <path class="cls-1" d="M15.95,88.42a2.28,2.28,0,0,0-.6.73c-.12.27-.12.45.06.4a2.69,2.69,0,0,0,.67-.28,4,4,0,0,0,.53-.45c.18-.16.46-.17.48,0s.13.18.29,0,.22-.6.05-.69a.67.67,0,0,0-.6,0C16.54,88.21,16.26,88.3,15.95,88.42Z"/>
      <path class="cls-1" d="M10.41,103s-.07-.12-.11-.11-.23,0-.22-.2c0,0-.07,0-.1,0s-.26.25-.38.39a.42.42,0,0,0-.09.16.42.42,0,0,1-.18.44.39.39,0,0,0-.08.19.07.07,0,0,0,.11,0,1.42,1.42,0,0,0,.27-.23c.09-.09.17-.21.26-.32a2.84,2.84,0,0,0,.36-.18A1.08,1.08,0,0,0,10.41,103Z"/>
      <path class="cls-1" d="M8.33,107.55a.15.15,0,0,0,.21.08.65.65,0,0,0,.2-.48.54.54,0,0,0-.12-.36c-.08-.07-.2,0-.32-.07s-.08.21-.1.3C8.13,107.31,8.28,107.38,8.33,107.55Z"/>
      <path class="cls-1" d="M5.06,117.78c.16-.2.1-.38.09-.61,0,0,0-.16-.06-.15a1.26,1.26,0,0,0-.31.2,1,1,0,0,0-.16.55C4.64,117.9,4.94,117.92,5.06,117.78Z"/>
      <path class="cls-1" d="M6.52,112.59c.05,0,.1.06.16.06a.23.23,0,0,0,.17-.1A2.34,2.34,0,0,0,7,112.2a1.17,1.17,0,0,0-.14-.37c-.09-.09-.2.06-.34.34S6.4,112.54,6.52,112.59Z"/>
      <path class="cls-1" d="M3.39,122.28c0,.19.09.21.21.09a.71.71,0,0,0,.21-.52c0-.24-.17,0-.26,0A.48.48,0,0,0,3.39,122.28Z"/>
      <path class="cls-1" d="M25.81,86.18a2.23,2.23,0,0,0-.4.21.71.71,0,0,0-.23.16l-.61.84c-.14.2-.14.26-.09.35.14.3.59,0,.9-.07a2,2,0,0,0,.42-.2,3.3,3.3,0,0,1,.47-.25c.16,0,.12.14-.07.4s-.2.24-.3.37-.14.25,0,.23a.85.85,0,0,0,.17-.08l.21-.18a1.77,1.77,0,0,0,.54-.83c.22-.48.06-.55,0-.77C26.8,85.8,26.27,86,25.81,86.18Z"/>
      <path class="cls-1" d="M16.48,100.77a.3.3,0,0,0,.27.09c.47-.09,1.11-.67,1.56-.66.19,0,.46-.34.62-.68s.07-.44-.08-.46a1.27,1.27,0,0,1-.36,0c-.28-.13-.69.13-1,.3a1.58,1.58,0,0,0-.74.87,1,1,0,0,1-.15.22C16.42,100.57,16.42,100.71,16.48,100.77Z"/>
      <path class="cls-1" d="M20.58,94a3.62,3.62,0,0,0,.82-.37,6.44,6.44,0,0,0,.7-.59c.24-.21.56-.23.55,0s.11.23.33-.05.39-.78.21-.89a.7.7,0,0,0-.68,0c-.35.16-.7.28-1.08.43a3.75,3.75,0,0,0-.84,1C20.4,93.86,20.37,94.09,20.58,94Z"/>
      <path class="cls-1" d="M13.53,106.87c.05,0,.09.08.16,0a2.86,2.86,0,0,0,.45-.34c.21-.19.35-.23.42-.08s.12,0,.19.05c.19-.18.28-.32.26-.49a1,1,0,0,0-.08-.31,5.2,5.2,0,0,0-.3-.52s-.08,0-.12.05l-.38.43a.92.92,0,0,0-.27.53,1.54,1.54,0,0,1-.16.35C13.65,106.68,13.59,106.77,13.53,106.87Z"/>
      <path class="cls-1" d="M10.67,112.79a.06.06,0,0,0,.1.06,2.27,2.27,0,0,0,.33-.32c.11-.13.22-.29.33-.43a3.82,3.82,0,0,0,.41-.25,1.9,1.9,0,0,0,.22-.28s0-.15-.1-.13-.24,0-.19-.24c0,0-.07,0-.11,0s-.32.35-.48.53a.76.76,0,0,0-.12.22.76.76,0,0,1-.28.59A.72.72,0,0,0,10.67,112.79Z"/>
      <path class="cls-1" d="M9.08,117.59a.12.12,0,0,0,.2.09,1.22,1.22,0,0,0,.28-.65.71.71,0,0,0-.06-.45c-.07-.08-.2,0-.32-.05-.07.17-.12.28-.15.4C8.91,117.31,9.06,117.37,9.08,117.59Z"/>
      <path class="cls-1" d="M4.51,131.6c0,.16.3.11.4-.1a1.54,1.54,0,0,0,.09-.82s0-.21,0-.18a1.52,1.52,0,0,0-.3.34A2.08,2.08,0,0,0,4.51,131.6Z"/>
      <path class="cls-1" d="M6.63,124.41s.09.07.15,0a.29.29,0,0,0,.17-.15,4.6,4.6,0,0,0,.15-.48,1.53,1.53,0,0,0-.09-.46c-.08-.1-.21.11-.37.5S6.51,124.37,6.63,124.41Z"/>
      <path class="cls-1" d="M3.5,137.85c0,.25.08.25.18.06a1.5,1.5,0,0,0,.17-.75c0-.31-.15,0-.23.07A1,1,0,0,0,3.5,137.85Z"/>
      <path class="cls-1" d="M35.63,93.74c-.24.19-.25.27-.24.39.06.38.68.14,1.06.15a2.5,2.5,0,0,0,.55-.12,4.14,4.14,0,0,1,.63-.16c.19,0,.09.19-.22.45-.15.13-.32.23-.48.35s-.24.25-.13.26A1.07,1.07,0,0,0,37,95l.31-.15a2.34,2.34,0,0,0,.91-.82c.42-.5.26-.62.33-.88.18-.7-.5-.56-1.09-.53a2.83,2.83,0,0,0-.53.14.93.93,0,0,0-.32.13Z"/>
      <path class="cls-1" d="M25.69,107.08c.27-.42.18-.52,0-.56a1.33,1.33,0,0,1-.39-.08c-.28-.18-.81.09-1.2.26a2.19,2.19,0,0,0-1,1,1.36,1.36,0,0,1-.21.25c-.25.21-.28.37-.22.45a.3.3,0,0,0,.29.12c.54-.08,1.39-.72,1.91-.66C25,107.85,25.43,107.47,25.69,107.08Z"/>
      <path class="cls-1" d="M31.73,98.84c-.45.13-.88.22-1.36.34a5.24,5.24,0,0,0-1.25,1c-.33.38-.44.64-.17.6a4.75,4.75,0,0,0,1-.31,8.9,8.9,0,0,0,1-.58c.33-.21.7-.17.64.06s.06.29.4,0,.67-.84.51-1A.77.77,0,0,0,31.73,98.84Z"/>
      <path class="cls-1" d="M19.34,115.1c0,.08.13.05.2.07.24-.2.38-.36.39-.57a1.16,1.16,0,0,0,0-.38,5.76,5.76,0,0,0-.25-.64s-.09,0-.15.06l-.52.5a1.28,1.28,0,0,0-.41.62,2.21,2.21,0,0,1-.24.41c-.07.12-.15.22-.23.34s.09.1.17.06a4.85,4.85,0,0,0,.57-.39C19.12,115,19.29,114.9,19.34,115.1Z"/>
      <path class="cls-1" d="M13.89,122.53c0,.07.05.11.11.07a3,3,0,0,0,.43-.36c.15-.15.3-.34.45-.51a4.78,4.78,0,0,0,.52-.29,2.54,2.54,0,0,0,.29-.33c0-.06,0-.19-.1-.16s-.29,0-.19-.3c0,0-.08,0-.13,0-.21.19-.42.4-.63.62a1,1,0,0,0-.17.26,1,1,0,0,1-.41.7A1,1,0,0,0,13.89,122.53Z"/>
      <path class="cls-1" d="M11.44,128.33a.14.14,0,0,0,.23.12,1.57,1.57,0,0,0,.41-.78.94.94,0,0,0,0-.56c-.07-.11-.23-.06-.37-.09-.09.21-.16.35-.22.48C11.28,128,11.44,128.06,11.44,128.33Z"/>
      <path class="cls-1" d="M4.22,145.25c0,.19.31.16.46-.09a2,2,0,0,0,.24-1s0-.25,0-.23a2,2,0,0,0-.38.39A2.93,2.93,0,0,0,4.22,145.25Z"/>
      <path class="cls-1" d="M7.7,136.57c.05,0,.1.09.16.07a.38.38,0,0,0,.22-.18,5.75,5.75,0,0,0,.25-.58,2.28,2.28,0,0,0,0-.58c-.08-.13-.25.12-.48.59S7.57,136.51,7.7,136.57Z"/>
      <path class="cls-1" d="M2.5,152c0-.38-.16,0-.26.07a1.47,1.47,0,0,0-.24.73c0,.31,0,.31.18.1A2.17,2.17,0,0,0,2.5,152Z"/>
      <path class="cls-1" d="M43.74,103.64a3.37,3.37,0,0,0-.57.19,1.1,1.1,0,0,0-.35.16l-1.09.93c-.26.22-.27.3-.26.42.06.41.73.11,1.14.1a2.72,2.72,0,0,0,.59-.17,4.92,4.92,0,0,1,.67-.22c.21,0,.09.2-.23.5-.16.15-.34.27-.51.41s-.26.29-.14.29a1.16,1.16,0,0,0,.24-.06l.33-.19a2.78,2.78,0,0,0,1-.94c.45-.57.28-.68.35-1C45.09,103.35,44.36,103.56,43.74,103.64Z"/>
      <path class="cls-1" d="M28,120.28a2.07,2.07,0,0,1-.24.27c-.27.23-.31.4-.26.48a.26.26,0,0,0,.28.12c.56-.11,1.49-.8,2-.77.22,0,.64-.4.94-.83s.22-.55.06-.59-.3,0-.4-.07c-.28-.18-.84.13-1.24.33A2.69,2.69,0,0,0,28,120.28Z"/>
      <path class="cls-1" d="M34.74,112.13c-.36.42-.48.7-.21.64a5.34,5.34,0,0,0,1.11-.39,10.66,10.66,0,0,0,1-.67c.36-.24.74-.23.66,0s0,.3.42,0,.75-.92.58-1.09-.43-.17-.82,0-.93.28-1.43.43A6.28,6.28,0,0,0,34.74,112.13Z"/>
      <path class="cls-1" d="M22.21,128.67c.05,0,.08.1.17.06a5.1,5.1,0,0,0,.62-.42c.3-.23.47-.29.51-.09s.13.05.19.07a1,1,0,0,0,.45-.61,1.25,1.25,0,0,0,0-.4,5.47,5.47,0,0,0-.18-.67s-.09,0-.15.06l-.57.54a1.62,1.62,0,0,0-.48.66,2.72,2.72,0,0,1-.29.44Z"/>
      <path class="cls-1" d="M17.18,136.16c0,.07,0,.12.1.08a3.66,3.66,0,0,0,.47-.39c.16-.16.34-.36.51-.55a5.56,5.56,0,0,0,.54-.31,3.26,3.26,0,0,0,.33-.36c0-.06,0-.2-.07-.17s-.29,0-.15-.32c0,0-.07,0-.13,0-.23.21-.47.43-.7.67a1.34,1.34,0,0,0-.2.27,1.3,1.3,0,0,1-.49.74A1.24,1.24,0,0,0,17.18,136.16Z"/>
      <path class="cls-1" d="M14.74,141c0-.11-.21-.07-.35-.09-.13.21-.21.36-.29.51-.25.5-.1.6-.15.88s.09.22.21.13a2,2,0,0,0,.51-.83A1.12,1.12,0,0,0,14.74,141Z"/>
      <path class="cls-1" d="M4.4,160.17c0,.21.3.2.49-.06A2.47,2.47,0,0,0,5.28,159s.05-.28,0-.25a2.35,2.35,0,0,0-.45.39A3.47,3.47,0,0,0,4.4,160.17Z"/>
      <path class="cls-1" d="M9.88,149.68c-.06-.14-.27.11-.56.62s-.31.65-.2.72.08.1.15.08a.43.43,0,0,0,.25-.18c.12-.19.23-.43.33-.62A2.55,2.55,0,0,0,9.88,149.68Z"/>
      <path class="cls-1" d="M1.39,167.42a1.65,1.65,0,0,0-.36.77c-.08.34,0,.35.18.13a2.44,2.44,0,0,0,.46-.95C1.75,167,1.51,167.32,1.39,167.42Z"/>
      <path class="cls-1" d="M47.74,114.88c.45-.59.26-.73.32-1,.16-.82-.63-.64-1.3-.59a3.14,3.14,0,0,0-.61.18,1,1,0,0,0-.36.16l-1.11,1c-.26.23-.27.32-.25.45.09.44.8.14,1.24.15a2.82,2.82,0,0,0,.63-.15,4.61,4.61,0,0,1,.72-.2c.22,0,.12.22-.22.53-.17.15-.35.27-.53.42s-.26.3-.13.31a1.21,1.21,0,0,0,.26-.05l.35-.19A2.55,2.55,0,0,0,47.74,114.88Z"/>
      <path class="cls-1" d="M34,129.52a1.59,1.59,0,0,1-.46-.09c-.34-.21-.94.11-1.38.31A2.4,2.4,0,0,0,31,130.86a1.6,1.6,0,0,1-.24.29c-.28.25-.3.43-.23.51a.36.36,0,0,0,.34.14c.63-.1,1.59-.84,2.19-.78.25,0,.68-.41,1-.87S34.15,129.56,34,129.52Z"/>
      <path class="cls-1" d="M41.41,120.66a.9.9,0,0,0-.91-.08c-.51.16-1,.27-1.54.42a5.8,5.8,0,0,0-1.39,1.17c-.36.45-.47.75-.16.69a5.33,5.33,0,0,0,1.19-.38,9.83,9.83,0,0,0,1.09-.69c.37-.24.8-.22.74.06s.08.33.46,0S41.62,120.84,41.41,120.66Z"/>
      <path class="cls-1" d="M25.54,139.9c.07,0,.11.11.2.06a5.64,5.64,0,0,0,.64-.45c.31-.25.5-.31.57-.09s.15.06.23.08c.27-.24.42-.42.43-.65a1.32,1.32,0,0,0-.05-.43,6.6,6.6,0,0,0-.3-.73s-.11,0-.17.07l-.58.57a1.44,1.44,0,0,0-.45.71,2.41,2.41,0,0,1-.26.47Z"/>
      <path class="cls-1" d="M20.9,148c0,.08.06.13.12.08a3.42,3.42,0,0,0,.48-.42c.16-.17.33-.39.5-.59a5.51,5.51,0,0,0,.58-.34,2.93,2.93,0,0,0,.33-.38c0-.07,0-.21-.11-.18s-.32.05-.22-.34c0,0-.09,0-.14,0-.23.22-.47.47-.7.72a1.19,1.19,0,0,0-.19.29,1.17,1.17,0,0,1-.45.8A1.11,1.11,0,0,0,20.9,148Z"/>
      <path class="cls-1" d="M18.89,153.82a1.1,1.1,0,0,0,0-.63c-.08-.12-.26-.07-.41-.09-.1.23-.18.39-.24.55-.21.54,0,.64,0,.94a.15.15,0,0,0,.26.13A1.83,1.83,0,0,0,18.89,153.82Z"/>
      <path class="cls-1" d="M10.47,172.81a3.13,3.13,0,0,0-.33,1.06c0,.22.38.19.55-.09a2.21,2.21,0,0,0,.26-1.14s0-.29,0-.26A2.2,2.2,0,0,0,10.47,172.81Z"/>
      <path class="cls-1" d="M14,164c.06,0,.11.1.19.08a.42.42,0,0,0,.25-.2,6.45,6.45,0,0,0,.27-.66,2.6,2.6,0,0,0-.06-.65c-.09-.15-.29.13-.55.68S13.89,163.92,14,164Z"/>
      <path class="cls-1" d="M7.66,182.48c0,.36.06.36.23.12a2.22,2.22,0,0,0,.36-1c0-.44-.2-.05-.32.07A1.51,1.51,0,0,0,7.66,182.48Z"/>
      <path class="cls-1" d="M40.51,157.59a2.07,2.07,0,0,0,.1-.64,8.43,8.43,0,0,0-.13-1.09s-.15,0-.26.09l-1,.83a2.89,2.89,0,0,0-.89,1,5.13,5.13,0,0,1-.54.7c-.16.19-.34.38-.5.56.08,0,.1.17.25.1a8.26,8.26,0,0,0,1-.65c.51-.36.79-.45.81-.12,0,.13.19.09.29.12A2,2,0,0,0,40.51,157.59Z"/>
      <path class="cls-1" d="M27.71,170.91c0,.12,0,.19.13.12a7.94,7.94,0,0,0,.81-.62c.29-.25.61-.57.91-.86s.6-.28.9-.48a6.45,6.45,0,0,0,.59-.56c0-.1,0-.31-.06-.27-.32.13-.45.07-.14-.51,0-.06-.09-.07-.19,0-.4.32-.82.68-1.23,1.05a2.66,2.66,0,0,0-.37.43,2.59,2.59,0,0,1-.93,1.17A2.36,2.36,0,0,0,27.71,170.91Z"/>
      <path class="cls-1" d="M21.49,180.8a4.49,4.49,0,0,0,1-1.3,2,2,0,0,0,.28-.93c0-.18-.29-.1-.47-.14l-.57.8a2.86,2.86,0,0,0-.49,1.38C21.16,180.84,21.3,181,21.49,180.8Z"/>
      <path class="cls-1" d="M2.62,209.23c-.1.34.3.27.61-.17a6.7,6.7,0,0,0,.8-1.73c0-.07.15-.44.08-.39a5.83,5.83,0,0,0-.67.69A8.56,8.56,0,0,0,2.62,209.23Z"/>
      <path class="cls-1" d="M12.84,193.25a4.58,4.58,0,0,0,.26-1c0-.22-.4.2-1,1s-.64,1-.51,1.12.08.14.17.12a.86.86,0,0,0,.39-.3C12.41,193.93,12.65,193.54,12.84,193.25Z"/>
      <path class="cls-1" d="M58.86,171a3.94,3.94,0,0,1-.45.4c-.47.34-.61.59-.57.69s.15.2.34.16c.84-.17,2.39-1.26,3.11-1.23A4.16,4.16,0,0,0,63,169.75c.63-.66.55-.8.33-.84s-.42,0-.53-.08c-.31-.24-1.23.22-1.88.53A5.59,5.59,0,0,0,58.86,171Z"/>
      <path class="cls-1" d="M71.29,160.05a10.42,10.42,0,0,0,1.75-.58c.51-.21,1.18-.62,1.78-1s1.17-.32.94,0-.08.42.61,0c.93-.62,1.5-1.28,1.33-1.5s-.54-.23-1.16-.05-1.48.39-2.26.6a14.37,14.37,0,0,0-2.41,1.6C71.17,159.75,70.87,160.15,71.29,160.05Z"/>
      <path class="cls-1" d="M49.49,181.28a3.74,3.74,0,0,0-.9,1A6.33,6.33,0,0,1,48,183l-.51.54c.07,0,.07.14.21.07a9.57,9.57,0,0,0,1-.67c.49-.37.75-.46.72-.17,0,.12.15.06.24.09a2.39,2.39,0,0,0,.84-.94,2.47,2.47,0,0,0,.16-.59,7.36,7.36,0,0,0,0-1s-.13,0-.24.1C50.15,180.71,49.81,181,49.49,181.28Z"/>
      <path class="cls-1" d="M41.08,192.33c-.3.14-.41.1-.08-.46,0-.06-.08-.06-.17,0-.39.32-.79.69-1.18,1.06a3.1,3.1,0,0,0-.37.43,3,3,0,0,1-.92,1.16,2.9,2.9,0,0,0-.4.51c0,.11,0,.17.1.1a8,8,0,0,0,.77-.63c.28-.25.58-.58.87-.87s.55-.31.84-.52.37-.37.57-.56C41.11,192.49,41.18,192.28,41.08,192.33Z"/>
      <path class="cls-1" d="M32.78,203.48a2.18,2.18,0,0,0,.28-.9c0-.17-.26-.07-.43-.1-.24.34-.4.57-.55.8a3.15,3.15,0,0,0-.48,1.34c-.08.22,0,.32.23.16A4.76,4.76,0,0,0,32.78,203.48Z"/>
      <path class="cls-1" d="M15.46,234.08c-.06.34.32.23.58-.24a6.07,6.07,0,0,0,.58-1.79c0-.07.1-.44,0-.39a4.55,4.55,0,0,0-.57.75A8.87,8.87,0,0,0,15.46,234.08Z"/>
      <path class="cls-1" d="M22.84,218.67c.05,0,.08.13.17.1a.88.88,0,0,0,.36-.33c.2-.31.4-.7.57-1a5.56,5.56,0,0,0,.21-1c0-.21-.37.22-.87,1.05S22.71,218.58,22.84,218.67Z"/>
      <path class="cls-1" d="M11.73,248.07a6.48,6.48,0,0,0,.44-1.68c.06-.68-.18,0-.3.18a4.38,4.38,0,0,0-.34,1.37C11.47,248.5,11.55,248.49,11.73,248.07Z"/>
      <path class="cls-1" d="M79.06,190.2c-.1.54,1,.26,1.52.33a4.69,4.69,0,0,0,.88-.11,5.9,5.9,0,0,1,1-.14c.3,0,0,.26-.56.59-.3.16-.59.28-.89.43s-.49.32-.32.35a2,2,0,0,0,.36,0l.54-.18a5.9,5.9,0,0,0,1.78-1c.9-.61.72-.8,1-1.14.64-.93-.47-.86-1.37-.9a5.45,5.45,0,0,0-.89.11,1.93,1.93,0,0,0-.56.13c-.65.31-1.29.69-1.94,1C79.15,189.93,79.09,190,79.06,190.2Z"/>
      <path class="cls-1" d="M54.29,210.44a.29.29,0,0,0,.35.17c.8-.12,2.26-1.08,3-1,.29,0,1-.53,1.53-1.12s.48-.75.27-.8-.41,0-.52-.11c-.32-.26-1.18.15-1.79.42a4.81,4.81,0,0,0-1.87,1.44,3.16,3.16,0,0,1-.41.37C54.36,210.1,54.24,210.33,54.29,210.44Z"/>
      <path class="cls-1" d="M72.53,196.77c-.17-.23-.53-.28-1.12-.14s-1.4.29-2.15.45A11.5,11.5,0,0,0,67,198.51c-.64.55-.9.94-.5.86a10.23,10.23,0,0,0,1.65-.47c.48-.18,1.1-.54,1.66-.83s1.11-.23.91.1,0,.41.59,0C72.2,197.62,72.71,197,72.53,196.77Z"/>
      <path class="cls-1" d="M47.76,219a7.28,7.28,0,0,0,0-.93s-.13,0-.23.08l-.94.72a3,3,0,0,0-.85.9,5.11,5.11,0,0,1-.53.59l-.49.48c.06,0,.07.15.21.09a7.92,7.92,0,0,0,1-.55c.47-.31.72-.38.7-.1,0,.11.15.08.24.11a1.67,1.67,0,0,0,.94-1.38Z"/>
      <path class="cls-1" d="M35.45,230.92a6.58,6.58,0,0,0,.77-.5c.28-.21.58-.48.87-.72s.55-.22.83-.39a6.09,6.09,0,0,0,.57-.47c0-.09.06-.28,0-.24-.29.1-.4,0-.08-.45,0-.05-.08-.07-.17,0-.38.27-.77.56-1.17.87a2.51,2.51,0,0,0-.37.36,2.43,2.43,0,0,1-.92,1,2.35,2.35,0,0,0-.4.43C35.31,230.9,35.36,231,35.45,230.92Z"/>
      <path class="cls-1" d="M30,238.14a1.8,1.8,0,0,0,.31-.82c0-.16-.25-.11-.42-.16-.24.29-.42.48-.57.68-.52.68-.36.82-.53,1.21-.08.2,0,.31.22.2A3.92,3.92,0,0,0,30,238.14Z"/>
      <path class="cls-1" d="M9.77,263.29c-.11.3.33.33.67,0a4.31,4.31,0,0,0,.89-1.48c0-.06.16-.39.09-.36a4.5,4.5,0,0,0-.72.51A5.82,5.82,0,0,0,9.77,263.29Z"/>
      <path class="cls-1" d="M19.2,250.79c.05,0,.07.15.17.14a.72.72,0,0,0,.39-.23c.23-.25.46-.58.66-.83a3.94,3.94,0,0,0,.27-.88c0-.21-.39.14-1,.81S19.07,250.67,19.2,250.79Z"/>
      <path class="cls-1" d="M3,274.74a4.25,4.25,0,0,0,.89-1.33c.22-.6-.2-.11-.39,0a2.87,2.87,0,0,0-.7,1.09C2.61,275,2.71,275,3,274.74Z"/>
      <path class="cls-1" d="M74.65,206.61a2,2,0,0,0-.43,0,.61.61,0,0,0-.26,0l-.85.46c-.2.11-.22.17-.21.27,0,.34.54.28.85.39a1.78,1.78,0,0,0,.45,0,3,3,0,0,1,.51,0c.16,0,.06.19-.2.33s-.27.12-.4.19-.21.16-.11.19a.78.78,0,0,0,.18,0l.25-.06c.36-.08.43-.18.77-.49s.24-.47.3-.68C75.67,206.75,75.12,206.71,74.65,206.61Z"/>
      <path class="cls-1" d="M61.58,215.28c-.23.08-.27.21-.23.29a.4.4,0,0,0,.24.22c.48.14,1.26-.09,1.69.14.18.1.54-.09.79-.34s.19-.38.05-.48a1.62,1.62,0,0,1-.33-.21c-.23-.26-.7-.22-1-.2a1.24,1.24,0,0,0-1,.45A.73.73,0,0,1,61.58,215.28Z"/>
      <path class="cls-1" d="M67.24,211.24a3.42,3.42,0,0,0,.9.06,5,5,0,0,0,.84-.2c.29-.08.59.06.53.25s0,.27.33.11.6-.53.47-.72a.79.79,0,0,0-.65-.31c-.38,0-.75-.08-1.15-.13a2.86,2.86,0,0,0-1.1.47C67.11,211,67,211.2,67.24,211.24Z"/>
      <path class="cls-1" d="M56.76,219.85s.07.12.15.12a2.4,2.4,0,0,0,.54-.09c.26-.07.41,0,.44.14s.11.1.17.14c.23-.08.36-.16.39-.33a1,1,0,0,0,0-.34,6.55,6.55,0,0,0-.15-.64s-.08,0-.13,0l-.5.21a.69.69,0,0,0-.42.36,1.14,1.14,0,0,1-.25.25Z"/>
      <path class="cls-1" d="M53.7,223.66a1.4,1.4,0,0,0,.3-.15c0-.06,0-.17-.06-.18s-.26-.09-.13-.33c0,0-.06-.07-.11-.05-.21.07-.42.15-.64.24a.54.54,0,0,0-.18.14c-.06.24-.23.33-.45.4a.5.5,0,0,0-.19.18.09.09,0,0,0,.09.11,1.81,1.81,0,0,0,.43-.11c.15-.06.31-.15.46-.23A3.52,3.52,0,0,0,53.7,223.66Z"/>
      <path class="cls-1" d="M49.23,227.52a.18.18,0,0,0,.19.2.82.82,0,0,0,.48-.45.68.68,0,0,0,.06-.46c0-.12-.2-.16-.32-.24-.12.12-.2.2-.27.28C49.14,227.16,49.27,227.3,49.23,227.52Z"/>
      <path class="cls-1" d="M39.73,237.33c0,.15.31.33.51.23s.31-.38.41-.66c0,0,.05-.2,0-.2a1.51,1.51,0,0,0-.46.08A1.26,1.26,0,0,0,39.73,237.33Z"/>
      <path class="cls-1" d="M44.55,232.34c0,.05.08.12.15.15a.28.28,0,0,0,.24,0,2.68,2.68,0,0,0,.32-.34,1.47,1.47,0,0,0,0-.49c-.06-.15-.26,0-.56.22S44.44,232.22,44.55,232.34Z"/>
      <path class="cls-1" d="M36.5,241.5c-.17,0-.32.22-.39.42s0,.28.2.21a.87.87,0,0,0,.5-.5C36.89,241.34,36.62,241.49,36.5,241.5Z"/>
      <path class="cls-1" d="M79.34,240.16a22.05,22.05,0,0,0,2.33-1c.8-.35,1.56-.2,1.29.26s0,.61.83.07c1.17-.72,1.84-1.58,1.57-1.95s-.78-.48-1.6-.35c-1,.16-2,.25-3,.39a13.4,13.4,0,0,0-3.11,1.75c-.89.7-1.24,1.23-.66,1.19A11.17,11.17,0,0,0,79.34,240.16Z"/>
      <path class="cls-1" d="M46.72,268.33c.09.05.11.22.29.14a14,14,0,0,0,1.33-.69c.66-.39,1-.46,1-.06,0,.16.22.12.34.18a2.35,2.35,0,0,0,1.11-1.07,2.53,2.53,0,0,0,.18-.77,10,10,0,0,0-.06-1.33c0-.06-.18,0-.32.09l-1.31.91a3.67,3.67,0,0,0-1.18,1.18,6.2,6.2,0,0,1-.72.78Z"/>
      <path class="cls-1" d="M34.35,282a9,9,0,0,0,1-.69c.37-.28.78-.65,1.16-1s.74-.3,1.12-.52a8,8,0,0,0,.76-.63c0-.12.08-.37-.05-.33-.4.14-.54.06-.12-.62,0-.07-.11-.09-.23,0-.51.36-1,.76-1.57,1.18a3.29,3.29,0,0,0-.49.49,3.2,3.2,0,0,1-1.22,1.34,3.12,3.12,0,0,0-.53.59C34.15,282,34.22,282.06,34.35,282Z"/>
      <path class="cls-1" d="M26,293.35a5.4,5.4,0,0,0,1.27-1.52,2.64,2.64,0,0,0,.4-1.11c0-.21-.34-.13-.55-.19-.31.4-.53.67-.73.94a3.69,3.69,0,0,0-.67,1.64C25.59,293.38,25.74,293.52,26,293.35Z"/>
      <path class="cls-1" d="M72.35,286.53c.39.13,1.24-.41,1.89-1s.54-.88.25-1a2.65,2.65,0,0,1-.71-.33c-.45-.47-1.55-.2-2.32,0a4,4,0,0,0-2.29,1.38,2.59,2.59,0,0,1-.5.38c-.54.29-.66.56-.59.72a.55.55,0,0,0,.48.35C69.61,287,71.42,286.21,72.35,286.53Z"/>
      <path class="cls-1" d="M86.87,274.41c.71-.22,1.41,0,1.2.46s0,.6.77.2c1-.53,1.59-1.24,1.32-1.66a1.65,1.65,0,0,0-1.49-.61l-2.72-.07A8.34,8.34,0,0,0,83.23,274c-.75.59-1,1-.52,1.09a8.81,8.81,0,0,0,2.1-.1A18.73,18.73,0,0,0,86.87,274.41Z"/>
      <path class="cls-1" d="M56.8,297.82c.09.06.11.21.27.15a8.24,8.24,0,0,0,1.17-.5c.57-.29.89-.32.89,0,0,.14.2.13.31.19.52-.28.84-.52,1-.88a2.14,2.14,0,0,0,.12-.69,10.06,10.06,0,0,0-.12-1.22c0-.05-.17,0-.28.05-.37.22-.76.48-1.14.71a2.65,2.65,0,0,0-1,1,4.65,4.65,0,0,1-.61.65C57.19,297.49,57,297.65,56.8,297.82Z"/>
      <path class="cls-1" d="M32,272.72c.16-.07.33-.16.51-.26a1.64,1.64,0,0,1-.09.33c-.09.23,0,.35.25.21a4.57,4.57,0,0,0,1.08-1.32l0-.09.47-.36c.45-.14.79-.22,1.2-.4a6.36,6.36,0,0,0,.8-.57c0-.13.05-.4-.09-.37-.44.08-.6,0-.19-.7,0-.07-.13-.12-.26,0-.54.31-1.1.66-1.66,1a3.26,3.26,0,0,0-.43.39h0c-.27.34-.46.58-.62.81l-.18.28c-.14.1-.28.2-.44.3a2.43,2.43,0,0,0-.53.57C31.78,272.67,31.86,272.77,32,272.72Z"/>
      <path class="cls-1" d="M24.89,282.34a2.11,2.11,0,0,0,.36-1.14c-.06-.24-.4-.21-.65-.3-.32.38-.56.63-.76.89-.68.9-.43,1.14-.62,1.68-.1.28.09.46.35.32A4.17,4.17,0,0,0,24.89,282.34Z"/>
      <path class="cls-1" d="M10.45,298.91c.08.07.11.21.25.2a.9.9,0,0,0,.54-.28c.31-.32.62-.76.88-1.09a4.79,4.79,0,0,0,.32-1.19c-.05-.3-.54.16-1.32,1S10.26,298.74,10.45,298.91Z"/>
      <path class="cls-1" d="M84.42,155.16c0,.64,1.14.25,1.8.28a4.89,4.89,0,0,0,1-.2,9.61,9.61,0,0,1,1.15-.27c.34,0,.08.32-.55.75-.32.22-.64.39-1,.59s-.52.43-.32.44a2.07,2.07,0,0,0,.41-.07l.59-.27A5.64,5.64,0,0,0,89.41,155a2.49,2.49,0,0,0,.91-1.45c.6-1.14-.63-.86-1.65-.8a6.65,6.65,0,0,0-1,.23,2.19,2.19,0,0,0-.61.21L85,154.52C84.5,154.83,84.44,155,84.42,155.16Z"/>
      <path class="cls-1" d="M57.63,178.23c-.5.36-.61.63-.54.77a.4.4,0,0,0,.44.23c.94-.12,2.64-1.18,3.5-1,.36.05,1.17-.58,1.76-1.25s.5-.89.24-1-.5,0-.65-.17c-.42-.34-1.42.1-2.15.38a4.91,4.91,0,0,0-2.14,1.62A3.2,3.2,0,0,1,57.63,178.23Z"/>
      <path class="cls-1" d="M48.88,190.55c0,.13.19.09.3.13a2,2,0,0,0,.87-1,2.15,2.15,0,0,0,.11-.66,8.55,8.55,0,0,0-.13-1.11s-.15,0-.26.1l-1.05.85a3.12,3.12,0,0,0-.93,1.06,5.26,5.26,0,0,1-.57.7l-.51.58c.08,0,.11.17.25.1a12.51,12.51,0,0,0,1.08-.66C48.58,190.3,48.87,190.22,48.88,190.55Z"/>
      <path class="cls-1" d="M37,203.39c0,.12,0,.19.13.12a7.32,7.32,0,0,0,.83-.64c.29-.26.62-.59.92-.89s.61-.3.92-.5a6.57,6.57,0,0,0,.6-.58c0-.1,0-.32-.07-.28-.33.14-.46.08-.15-.52,0-.06-.1-.07-.2,0-.41.33-.83.7-1.26,1.09a2.71,2.71,0,0,0-.38.44,2.64,2.64,0,0,1-.94,1.21A2.55,2.55,0,0,0,37,203.39Z"/>
      <path class="cls-1" d="M30.87,213.67a4.35,4.35,0,0,0,1-1.37,2.11,2.11,0,0,0,.24-1c0-.18-.31-.1-.49-.13-.23.36-.4.6-.55.84a3,3,0,0,0-.44,1.44C30.53,213.71,30.67,213.82,30.87,213.67Z"/>
      <path class="cls-1" d="M13.87,241.4c0-.07.14-.45.08-.41a4.6,4.6,0,0,0-.69.7,8.46,8.46,0,0,0-.83,1.66c-.1.35.33.29.66-.16A5.83,5.83,0,0,0,13.87,241.4Z"/>
      <path class="cls-1" d="M21.29,228c.06,0,.09.15.19.12a.85.85,0,0,0,.39-.32c.22-.31.44-.72.62-1a5.56,5.56,0,0,0,.21-1c0-.23-.41.21-1,1.06S21.15,227.85,21.29,228Z"/>
      <path class="cls-1" d="M6.25,257.13a5.7,5.7,0,0,0,.81-1.62c.19-.69-.2-.08-.38.11A3.88,3.88,0,0,0,6,256.94C5.86,257.5,6,257.52,6.25,257.13Z"/>
      <path class="cls-1" d="M85.58,172.91c-.26-.39-.77-.55-1.56-.49-1,.08-1.89.1-2.9.17a10.15,10.15,0,0,0-2.92,1.59c-.81.67-1.13,1.17-.58,1.16a9.72,9.72,0,0,0,2.23-.29,22.05,22.05,0,0,0,2.21-.82c.76-.29,1.5-.09,1.26.36s0,.6.81.14C85.22,174.09,85.85,173.31,85.58,172.91Z"/>
      <path class="cls-1" d="M50.87,200.48c.61-.36.95-.41.95,0,0,.15.21.13.33.19.57-.33.91-.59,1-1a2.27,2.27,0,0,0,.15-.74,10,10,0,0,0-.1-1.29c0-.06-.18,0-.3.07-.41.25-.83.55-1.24.82a3,3,0,0,0-1.1,1.1,5.38,5.38,0,0,1-.66.74c-.19.2-.41.39-.61.59.09.06.11.21.28.15A9,9,0,0,0,50.87,200.48Z"/>
      <path class="cls-1" d="M38.75,213c.34-.26.72-.6,1.08-.9s.69-.27,1-.47a9,9,0,0,0,.72-.57c0-.11.07-.35-.05-.31-.38.12-.52,0-.12-.58,0-.06-.1-.09-.22,0-.48.32-1,.68-1.48,1.07a3,3,0,0,0-.45.46,2.9,2.9,0,0,1-1.12,1.26,2.83,2.83,0,0,0-.49.55c-.05.13,0,.21.13.14A8.17,8.17,0,0,0,38.75,213Z"/>
      <path class="cls-1" d="M31.14,222.67a2.28,2.28,0,0,0,.39-1c0-.2-.31-.12-.5-.17l-.7.86c-.64.85-.45,1-.65,1.5-.1.25,0,.37.26.22A5.79,5.79,0,0,0,31.14,222.67Z"/>
      <path class="cls-1" d="M7.47,254.59a9,9,0,0,0,1.1-1.85c0-.07.22-.47.16-.42a8.4,8.4,0,0,0-.76.75,13.07,13.07,0,0,0-1.11,1.71C6.7,255.14,7.09,255.06,7.47,254.59Z"/>
      <path class="cls-1" d="M19.47,237.53a5.75,5.75,0,0,0,.39-1c0-.23-.42.23-1.1,1.1s-.78,1.11-.67,1.21.05.15.15.12a1.11,1.11,0,0,0,.44-.33C18.95,238.26,19.24,237.84,19.47,237.53Z"/>
      <path class="cls-1" d="M87.63,214c0,.64,1.15.11,1.81.05a5.1,5.1,0,0,0,1-.33,10.91,10.91,0,0,1,1.11-.43c.33-.07.11.3-.47.82-.29.27-.6.47-.9.71s-.48.49-.28.48a2.19,2.19,0,0,0,.4-.12l.57-.34a5.66,5.66,0,0,0,1.72-1.66,2.65,2.65,0,0,0,.75-1.56c.48-1.19-.7-.72-1.71-.53a7.54,7.54,0,0,0-1,.35,2.33,2.33,0,0,0-.6.28c-.67.49-1.31,1-1.94,1.57C87.67,213.66,87.63,213.79,87.63,214Z"/>
      <path class="cls-1" d="M61,239.24a.35.35,0,0,0,.41.2c.93-.14,2.62-1.24,3.43-1.16.34,0,1.15-.63,1.76-1.3s.54-.88.29-.94-.48,0-.61-.13c-.38-.3-1.38.17-2.08.48a5.5,5.5,0,0,0-2.14,1.67,3.54,3.54,0,0,1-.47.43C61.11,238.85,61,239.12,61,239.24Z"/>
      <path class="cls-1" d="M75.19,225.08c-.68.68-.95,1.14-.48,1a9.81,9.81,0,0,0,1.88-.63c.54-.24,1.23-.7,1.86-1.08s1.27-.36,1.08.05,0,.5.69,0c.93-.74,1.44-1.51,1.2-1.77s-.67-.28-1.34-.07c-.82.26-1.6.45-2.45.69A12.08,12.08,0,0,0,75.19,225.08Z"/>
      <path class="cls-1" d="M50.11,251.25c.07,0,.09.17.24.09a9.22,9.22,0,0,0,1.1-.65c.54-.36.82-.45.81-.12,0,.13.18.09.27.12a1.93,1.93,0,0,0,1.07-1.6,8.6,8.6,0,0,0,0-1.07s-.15,0-.26.1l-1.07.84a3.5,3.5,0,0,0-1,1,5.92,5.92,0,0,1-.6.69Z"/>
      <path class="cls-1" d="M39.72,263.15a7.71,7.71,0,0,0,.86-.61c.31-.25.65-.57,1-.86s.61-.28.94-.48a7.11,7.11,0,0,0,.64-.55c0-.1.07-.32,0-.27-.34.13-.45.07-.1-.51,0-.06-.09-.07-.19,0-.43.32-.88.67-1.32,1a2.94,2.94,0,0,0-.41.43,2.85,2.85,0,0,1-1,1.18,2.76,2.76,0,0,0-.44.52C39.55,263.15,39.61,263.22,39.72,263.15Z"/>
      <path class="cls-1" d="M12.17,301.91c-.12.34.31.3.67-.13a6.08,6.08,0,0,0,.91-1.76c0-.07.17-.45.1-.41a5,5,0,0,0-.74.68A8.79,8.79,0,0,0,12.17,301.91Z"/>
      <path class="cls-1" d="M22.06,286.83c.06,0,.08.15.18.13a.87.87,0,0,0,.42-.3c.24-.3.49-.7.7-1a5.13,5.13,0,0,0,.29-1c0-.23-.43.19-1,1S21.92,286.72,22.06,286.83Z"/>
      <path class="cls-1" d="M46.06,198.12a4.91,4.91,0,0,0-1.18,1.53,8.32,8.32,0,0,1-.72,1c-.21.28-.45.54-.67.82.1,0,.13.21.31.09a13.27,13.27,0,0,0,1.38-1c.67-.55,1-.71,1-.28,0,.17.24.09.37.12A3.14,3.14,0,0,0,47.72,199a3,3,0,0,0,.16-.86,10.36,10.36,0,0,0-.13-1.42c0-.06-.2,0-.33.16C47,197.26,46.5,197.7,46.06,198.12Z"/>
      <path class="cls-1" d="M22.31,232.47a7.78,7.78,0,0,0,1.31-1.88,3.29,3.29,0,0,0,.41-1.26c0-.22-.34-.07-.55-.08l-.75,1.15a5,5,0,0,0-.71,1.88C21.91,232.58,22.07,232.7,22.31,232.47Z"/>
      <path class="cls-1" d="M9.44,252.16c.06,0,.07.17.19.12a1.48,1.48,0,0,0,.48-.48c.3-.43.61-1,.87-1.39a7.84,7.84,0,0,0,.41-1.3c0-.28-.48.35-1.23,1.49S9.3,252.06,9.44,252.16Z"/>
      <path class="cls-1" d="M67.94,150.31a6.4,6.4,0,0,0-.9.3,2,2,0,0,0-.56.25l-1.84,1.4c-.42.34-.46.46-.45.65,0,.61,1.09.14,1.72.11a4.45,4.45,0,0,0,.92-.27,9.23,9.23,0,0,1,1-.36c.31-.05.1.29-.44.76-.27.23-.56.42-.84.65s-.44.45-.25.44a1.89,1.89,0,0,0,.37-.1l.52-.3a5.22,5.22,0,0,0,1.61-1.49,2.35,2.35,0,0,0,.7-1.45C70,149.78,68.89,150.16,67.94,150.31Z"/>
      <path class="cls-1" d="M44.12,176.18c.32,0,1-.64,1.54-1.3s.42-.85.18-.9-.45,0-.59-.09c-.39-.27-1.28.23-1.92.55a4.89,4.89,0,0,0-1.88,1.66,4.11,4.11,0,0,1-.41.42c-.44.37-.53.62-.47.74a.35.35,0,0,0,.4.17C41.85,177.25,43.35,176.14,44.12,176.18Z"/>
      <path class="cls-1" d="M52.87,163.41c-.61.65-.84,1.09-.41,1a9.07,9.07,0,0,0,1.74-.63,19.14,19.14,0,0,0,1.68-1c.58-.37,1.16-.37,1,0s0,.46.64-.06c.83-.7,1.28-1.43,1-1.67s-.63-.25-1.24,0-1.46.46-2.24.71A11.41,11.41,0,0,0,52.87,163.41Z"/>
      <path class="cls-1" d="M33.52,188.47c0,.12.18.07.28.1a1.91,1.91,0,0,0,.76-1,2,2,0,0,0,.07-.62,8,8,0,0,0-.16-1s-.14,0-.24.11l-.93.85a3,3,0,0,0-.81,1,5,5,0,0,1-.49.68l-.46.56c.08,0,.11.16.24.08a9.83,9.83,0,0,0,1-.67C33.23,188.26,33.5,188.16,33.52,188.47Z"/>
      <path class="cls-1" d="M25.55,199.13a6,6,0,0,0,.54-.57c0-.09,0-.31-.08-.26-.31.14-.43.09-.17-.48,0-.06-.1-.06-.19,0-.37.33-.75.69-1.13,1.07a2.47,2.47,0,0,0-.34.43,2.41,2.41,0,0,1-.83,1.17A2.33,2.33,0,0,0,23,201c0,.11,0,.18.13.11a6.7,6.7,0,0,0,.75-.63c.27-.25.55-.58.83-.87A9.57,9.57,0,0,0,25.55,199.13Z"/>
      <path class="cls-1" d="M17.63,208.64a2.77,2.77,0,0,0-.52,1.18c-.12.51,0,.52.25.18a2.35,2.35,0,0,0,.17-.25,4.8,4.8,0,0,0-.15.92c-.06.23.09.33.27.18a4,4,0,0,0,.86-1.31,2,2,0,0,0,.2-.91c-.05-.17-.29-.08-.48-.11-.17.27-.3.47-.41.66a3.31,3.31,0,0,0,.2-.61C18.13,207.94,17.79,208.48,17.63,208.64Z"/>
      <path class="cls-1" d="M2.35,237.19c0-.07.13-.42.07-.38a4.43,4.43,0,0,0-.64.66A8,8,0,0,0,1,239c-.09.33.31.27.61-.16A5.59,5.59,0,0,0,2.35,237.19Z"/>
      <path class="cls-1" d="M9.06,224.47c.06,0,.09.14.18.11a.79.79,0,0,0,.36-.31c.2-.3.39-.68.56-1a4.88,4.88,0,0,0,.18-.95c0-.21-.39.2-.88,1S8.92,224.38,9.06,224.47Z"/>
      <path class="cls-1" d="M63.34,136.29c-.17,0-.4,0-.52,0-.34-.22-1.14.28-1.72.6a4.94,4.94,0,0,0-1.71,1.6,3.16,3.16,0,0,1-.38.4c-.4.35-.49.59-.44.69a.29.29,0,0,0,.36.14c.77-.21,2.14-1.28,2.83-1.3.29,0,.93-.63,1.41-1.26S63.56,136.31,63.34,136.29Z"/>
      <path class="cls-1" d="M77.85,121.07a5.85,5.85,0,0,0-1,.22,2,2,0,0,0-.6.21l-2,1.32c-.47.31-.52.44-.53.64a.29.29,0,0,0,.16.29l-.13.05c-.66.3-1.29.54-2,.82a12,12,0,0,0-2,1.72c-.55.62-.76,1-.38.9a8.61,8.61,0,0,0,1.55-.7c.44-.25,1-.7,1.5-1.07s1-.43.88-.08,0,.41.56-.11c.7-.66,1.08-1.3,1-1.53a3.64,3.64,0,0,1,.64,0,5,5,0,0,0,1-.18,8.52,8.52,0,0,1,1.14-.25c.34,0,.08.32-.54.73-.31.21-.63.37-.95.56s-.51.41-.31.42a2.11,2.11,0,0,0,.4-.06l.58-.25a5.29,5.29,0,0,0,1.86-1.31c.9-.81.67-1,.88-1.43C80.09,120.81,78.86,121,77.85,121.07Z"/>
      <path class="cls-1" d="M52.21,150.09a1.66,1.66,0,0,0,.79-1.47,7.13,7.13,0,0,0-.12-.92s-.13,0-.21.11l-.86.81a3,3,0,0,0-.75,1,5.08,5.08,0,0,1-.46.64l-.43.52c.07,0,.09.14.21.06a7.9,7.9,0,0,0,.9-.65c.43-.36.67-.45.69-.17C52,150.12,52.12,150.07,52.21,150.09Z"/>
      <path class="cls-1" d="M42.19,161.82c0,.11,0,.16.12.1a6.49,6.49,0,0,0,.69-.6c.24-.24.51-.55.76-.82s.51-.29.77-.49a6,6,0,0,0,.5-.54c0-.09,0-.28-.07-.24-.28.14-.39.09-.14-.44,0-.06-.08-.06-.17,0-.34.31-.69.66-1,1a2.47,2.47,0,0,0-.31.4,2.39,2.39,0,0,1-.78,1.1A2.31,2.31,0,0,0,42.19,161.82Z"/>
      <path class="cls-1" d="M36.94,170.86c-.05.21.08.31.25.16a3.77,3.77,0,0,0,.79-1.24,1.87,1.87,0,0,0,.19-.85c0-.16-.27-.08-.44-.1-.2.32-.34.54-.46.75A2.61,2.61,0,0,0,36.94,170.86Z"/>
      <path class="cls-1" d="M22.75,196.18a6.15,6.15,0,0,0-.66,1.48c-.06.31.38.28.65-.13a4.4,4.4,0,0,0,.6-1.61c0-.06.1-.41,0-.37A3.65,3.65,0,0,0,22.75,196.18Z"/>
      <path class="cls-1" d="M29.3,183.86c.06,0,.09.13.19.11a.71.71,0,0,0,.34-.29c.18-.28.36-.65.5-.92a4.43,4.43,0,0,0,.14-.9c0-.2-.38.18-.82.94S29.16,183.77,29.3,183.86Z"/>
      <path class="cls-1" d="M70.73,112.89c0,.72,1.28-.28,2-.61a7.2,7.2,0,0,0,1.07-.77c.41-.32.89-.78,1.2-1s.15.31-.46,1.16c-.31.43-.65.8-1,1.2s-.53.75-.31.66a3.48,3.48,0,0,0,.45-.3l.63-.62a8.9,8.9,0,0,0,1.81-2.71,3.7,3.7,0,0,0,.52-1.47c0-.28,0-.45,0-.75.27-1.63-.78-.36-1.88.3-.25.18-.63.55-1,.85a3.83,3.83,0,0,0-.6.57c-.65.83-1.31,1.7-2,2.53C70.77,112.51,70.73,112.67,70.73,112.89Z"/>
      <path class="cls-1" d="M43.18,147.37a6.85,6.85,0,0,0,2.09-2c.79-1,.67-1.18.39-1.17s-.54.12-.69,0c-.41-.24-1.57.6-2.4,1.16A9.67,9.67,0,0,0,40,147.92a6.38,6.38,0,0,1-.56.63c-.6.56-.76.9-.71,1s.2.22.45.12C40.29,149.29,42.27,147.52,43.18,147.37Z"/>
      <path class="cls-1" d="M63.12,124.6c-.25-.22-.74-.12-1.52.31-1,.53-1.86,1-2.84,1.49a22.48,22.48,0,0,0-2.92,2.78c-.83,1-1.17,1.59-.63,1.33a16.06,16.06,0,0,0,2.19-1.26c.63-.43,1.45-1.16,2.2-1.77s1.48-.78,1.23-.26,0,.57.79-.26C62.73,125.86,63.38,124.83,63.12,124.6Z"/>
      <path class="cls-1" d="M25.73,166.78c.08,0,.09.17.26,0,.37-.28.81-.66,1.27-1.08.63-.58,1-.76.92-.37,0,.15.19.05.3.06A4,4,0,0,0,29.56,164a3.34,3.34,0,0,0,.21-.8,10,10,0,0,0,0-1.26c0-.05-.17.06-.3.19l-1.26,1.29A6.23,6.23,0,0,0,27.09,165a10.8,10.8,0,0,1-.71,1Z"/>
      <path class="cls-1" d="M14.5,182.88c.35-.38.75-.86,1.12-1.3s.7-.51,1.07-.84c.18-.16.49-.56.74-.85,0-.12.09-.4,0-.31-.38.25-.51.21-.08-.58,0-.08-.09-.06-.21.06-.49.5-1,1.05-1.51,1.62a5.31,5.31,0,0,0-.48.63A5.28,5.28,0,0,1,13.91,183a5,5,0,0,0-.51.74c-.06.15,0,.22.12.12A13.38,13.38,0,0,0,14.5,182.88Z"/>
      <path class="cls-1" d="M5.34,197.69a8.75,8.75,0,0,0,1.23-1.9A3.46,3.46,0,0,0,7,194.56c0-.21-.31,0-.51,0l-.72,1.15a5.19,5.19,0,0,0-.67,1.86C5,197.82,5.11,197.93,5.34,197.69Z"/>
      <path class="cls-1" d="M89.32,85.75a8.35,8.35,0,0,0-1.06.44,2.93,2.93,0,0,0-.66.34l-2.25,1.81c-.53.42-.59.56-.61.76-.06.66,1.21,0,1.92-.09a6.73,6.73,0,0,0,1.08-.41A12.16,12.16,0,0,1,89,88.09c.37-.09.08.31-.61.88-.35.29-.7.52-1.05.8s-.57.54-.35.51a2.81,2.81,0,0,0,.44-.16l.64-.39a8.17,8.17,0,0,0,2.07-1.79,3.09,3.09,0,0,0,1-1.68C91.78,85,90.43,85.48,89.32,85.75Z"/>
      <path class="cls-1" d="M54.54,118.84c.06.14.18.22.41.15,1-.3,2.82-1.69,3.66-1.74.35,0,1.24-.82,1.93-1.63s.61-1,.35-1-.5.05-.63,0c-.38-.26-1.45.39-2.21.82a7.69,7.69,0,0,0-2.35,2.06,5.52,5.52,0,0,1-.52.52C54.64,118.42,54.49,118.72,54.54,118.84Z"/>
      <path class="cls-1" d="M77.16,98.69c-.22-.24-.67-.21-1.39.09-.88.37-1.72.67-2.63,1A17.61,17.61,0,0,0,70.39,102c-.79.79-1.11,1.3-.61,1.14a12.86,12.86,0,0,0,2-.89c.59-.32,1.36-.88,2.05-1.35s1.37-.53,1.13-.08,0,.52.73-.14C76.78,99.8,77.39,98.94,77.16,98.69Z"/>
      <path class="cls-1" d="M46.14,131.15a2.74,2.74,0,0,0,.19-.7,8.75,8.75,0,0,0,0-1.14s-.16,0-.27.14l-1.16,1.06a4.85,4.85,0,0,0-1.06,1.26,8.22,8.22,0,0,1-.66.82l-.6.68c.08,0,.08.17.24.06a12.74,12.74,0,0,0,1.18-.86c.58-.47.88-.6.85-.25,0,.14.18.06.28.09A3.11,3.11,0,0,0,46.14,131.15Z"/>
      <path class="cls-1" d="M35,144.42c0-.1.08-.35,0-.29-.35.19-.47.14-.08-.53,0-.07-.09-.06-.2,0-.45.41-.92.86-1.4,1.33a4.13,4.13,0,0,0-.44.52,4,4,0,0,1-1.11,1.41,3.89,3.89,0,0,0-.48.62c-.06.13,0,.2.11.11a10.61,10.61,0,0,0,.91-.79c.33-.31.69-.71,1-1.07s.65-.4,1-.66C34.48,145,34.76,144.66,35,144.42Z"/>
      <path class="cls-1" d="M23.7,159.3a6.48,6.48,0,0,0,1.16-1.59,2.94,2.94,0,0,0,.39-1.07c0-.19-.29-.07-.48-.09-.3.41-.5.69-.67,1a4.2,4.2,0,0,0-.64,1.61C23.35,159.38,23.49,159.49,23.7,159.3Z"/>
      <path class="cls-1" d="M13.48,174.33a6.89,6.89,0,0,0,.36-1.12c0-.24-.46.26-1.12,1.23s-.76,1.23-.63,1.34.07.16.18.12a1.14,1.14,0,0,0,.44-.38C13,175.15,13.25,174.69,13.48,174.33Z"/>
      <path class="cls-1" d="M74.31,76.25a9.36,9.36,0,0,0-1,.52,3.28,3.28,0,0,0-.65.39l-2.23,1.93c-.52.45-.59.59-.61.79-.06.65,1.2-.08,1.89-.24a7.21,7.21,0,0,0,1.06-.49,13.64,13.64,0,0,1,1.23-.6c.36-.12.07.29-.6.9-.34.31-.69.57-1,.86s-.56.57-.35.53a3,3,0,0,0,.43-.19l.63-.43a9.17,9.17,0,0,0,2-1.92,3.08,3.08,0,0,0,.76-1.11,6,6,0,0,1,.2-.63C76.67,75.23,75.45,76,74.31,76.25Z"/>
      <path class="cls-1" d="M41.08,110.77c-.52.51-.65.82-.6.93s.18.2.4.1c.92-.4,2.69-2,3.51-2.08a5.92,5.92,0,0,0,1.85-1.78c.69-.9.59-1,.34-1s-.48.1-.61,0c-.37-.21-1.4.53-2.13,1a8.66,8.66,0,0,0-2.25,2.26C41.42,110.39,41.22,110.63,41.08,110.77Z"/>
      <path class="cls-1" d="M62.33,89.85c-.22-.22-.67-.15-1.37.2-.87.44-1.68.8-2.57,1.23a19.44,19.44,0,0,0-2.67,2.38c-.76.85-1.08,1.38-.59,1.17a14,14,0,0,0,2-1c.57-.36,1.32-1,2-1.5s1.34-.64,1.1-.18,0,.51.71-.19C62,91,62.56,90.07,62.33,89.85Z"/>
      <path class="cls-1" d="M29.17,127.13c.07,0,.08.15.23,0,.32-.26.71-.59,1.11-1s.83-.69.8-.35c0,.13.17,0,.26,0a3.59,3.59,0,0,0,.95-1.25,3,3,0,0,0,.18-.71,8.68,8.68,0,0,0,0-1.11s-.15.06-.26.17l-1.09,1.17a5.62,5.62,0,0,0-1,1.35,9.51,9.51,0,0,1-.62.88Z"/>
      <path class="cls-1" d="M21.46,139.71c.16-.15.42-.51.63-.77,0-.1.08-.35,0-.27-.32.23-.44.2-.08-.51,0-.07-.08,0-.18.06-.42.46-.86,1-1.3,1.47a4.9,4.9,0,0,0-.41.57,4.72,4.72,0,0,1-1,1.52,4.61,4.61,0,0,0-.44.66c-.05.14,0,.19.11.1s.54-.54.84-.89.64-.78,1-1.18S21.14,140,21.46,139.71Z"/>
      <path class="cls-1" d="M11.72,154.94a7.87,7.87,0,0,0,1-1.71,3.59,3.59,0,0,0,.35-1.09c0-.18-.26,0-.43,0-.27.43-.45.75-.61,1a5,5,0,0,0-.58,1.65C11.4,155.07,11.52,155.15,11.72,154.94Z"/>
      <path class="cls-1" d="M1.31,172.68c.05,0,.06.14.16.09a1.32,1.32,0,0,0,.39-.44c.23-.39.48-.89.68-1.27a9.12,9.12,0,0,0,.31-1.15c0-.24-.41.32-1,1.36S1.18,172.6,1.31,172.68Z"/>
      <path class="cls-1" d="M59,64.7a4.93,4.93,0,0,0-.72.26,1.65,1.65,0,0,0-.44.21l-1.47,1.16c-.34.27-.38.37-.38.52,0,.48.87.1,1.36.06a3.81,3.81,0,0,0,.74-.23,7.18,7.18,0,0,1,.84-.3c.25,0,.08.23-.36.6-.22.19-.45.34-.68.52s-.36.36-.21.35a1.61,1.61,0,0,0,.3-.09l.43-.24a4.38,4.38,0,0,0,1.32-1.18,1.85,1.85,0,0,0,.58-1.16C60.7,64.27,59.79,64.57,59,64.7Z"/>
      <path class="cls-1" d="M37.22,85.27a2.4,2.4,0,0,1-.34.33c-.37.28-.45.49-.39.59a.32.32,0,0,0,.35.17c.73-.11,2-.95,2.64-.88.27,0,.86-.48,1.29-1s.35-.7.14-.75-.38,0-.5-.11c-.33-.24-1.08.13-1.62.36A3.7,3.7,0,0,0,37.22,85.27Z"/>
      <path class="cls-1" d="M51.39,73.35c-.19-.2-.52-.22-1-.07s-1.21.34-1.86.52a8.82,8.82,0,0,0-1.82,1.38c-.5.52-.69.88-.33.8a7.1,7.1,0,0,0,1.44-.47,14.64,14.64,0,0,0,1.39-.82c.48-.29,1-.27.83,0s0,.39.53,0C51.22,74.15,51.58,73.55,51.39,73.35Z"/>
      <path class="cls-1" d="M16.89,112.77a2.86,2.86,0,0,0,.75-1,1.47,1.47,0,0,0,.17-.75c0-.15-.26-.1-.42-.14-.19.27-.32.45-.43.63-.39.63-.22.76-.31,1.12C16.61,112.78,16.74,112.88,16.89,112.77Z"/>
      <path class="cls-1" d="M2.71,133.54a4.94,4.94,0,0,0-.7,1.22c-.08.27.33.29.61,0a3.54,3.54,0,0,0,.65-1.34c0-.06.11-.35,0-.32A3.3,3.3,0,0,0,2.71,133.54Z"/>
      <path class="cls-1" d="M35.12,82c-.21-.4-.61-.31-1-.29a1.3,1.3,0,0,0-.3.08c-.05,0-.13,0-.16.08s-.2.32-.3.47,0,.15,0,.22c.22.22.53.08.8.09a1.22,1.22,0,0,0,.32-.07,2,2,0,0,1,.35-.09c.13,0,.15.11.06.26s-.11.13-.16.2,0,.15,0,.15a.57.57,0,0,0,.13,0l.14-.09c.2-.13.19-.2.24-.48S35.2,82.12,35.12,82Z"/>
      <path class="cls-1" d="M30.27,89.1c-.35.13-.35.13-.46.44a.26.26,0,0,1-.08.12c-.13.09-.09.18,0,.23A.61.61,0,0,0,30,90c.43,0,.87-.24,1.31-.15.18,0,.34-.14.39-.35s-.06-.29-.21-.33a2.26,2.26,0,0,1-.35-.09A1.29,1.29,0,0,0,30.27,89.1Z"/>
      <path class="cls-1" d="M33.52,85.25a1,1,0,0,0-.63-.09c-.28,0-.57.08-.88.11a1.11,1.11,0,0,0-.51.5c-.08.2,0,.35.14.34a2.52,2.52,0,0,0,.66-.11,2.45,2.45,0,0,0,.48-.28c.16-.1.45-.06.51.07s.17.18.3,0A.36.36,0,0,0,33.52,85.25Z"/>
      <path class="cls-1" d="M29.53,92.89c-.14-.14-.29-.28-.43-.41a.11.11,0,0,0-.1,0l-.27.2a.26.26,0,0,0-.13.29c0,.05,0,.13-.06.2a1.38,1.38,0,0,1-.09.15c.06,0,.11.07.17.06a1.43,1.43,0,0,0,.36-.12.3.3,0,0,1,.4,0s.13.05.2.08.2-.15.13-.27A1,1,0,0,0,29.53,92.89Z"/>
      <path class="cls-1" d="M28.08,96.08S28,96,27.95,96s-.25,0-.26-.21c0,0-.08,0-.11,0a4.13,4.13,0,0,0-.38.22s-.08.09-.08.11c.07.17,0,.24-.16.31a.18.18,0,0,0-.07.14.13.13,0,0,0,.12.07,1,1,0,0,0,.28-.12,2.41,2.41,0,0,0,.25-.2,2.8,2.8,0,0,0,.38-.06C28,96.19,28,96.12,28.08,96.08Z"/>
      <path class="cls-1" d="M26.19,99.2a.26.26,0,0,0,.25.12.31.31,0,0,0,.18-.34.54.54,0,0,0-.16-.32,1.19,1.19,0,0,0-.37-.14,2.07,2.07,0,0,0-.09.21C26,99,26.13,99,26.19,99.2Z"/>
      <path class="cls-1" d="M23.17,106s0-.14-.08-.14a1.26,1.26,0,0,0-.36.06.45.45,0,0,0-.17.39c0,.1.39.22.52.14S23.2,106.18,23.17,106Z"/>
      <path class="cls-1" d="M25,102.57a1.21,1.21,0,0,0-.18-.34c-.11-.1-.23,0-.36.18s-.1.26,0,.34a.77.77,0,0,0,.19.09.24.24,0,0,0,.19,0A.94.94,0,0,0,25,102.57Z"/>
      <path class="cls-1" d="M21.25,109.46c0,.16.11.19.25.14a.33.33,0,0,0,.24-.34c0-.2-.21-.1-.31-.09S21.24,109.33,21.25,109.46Z"/>
      <path class="cls-1" d="M46.3,63a4.33,4.33,0,0,0-.61.21,1,1,0,0,0-.36.18l-1.06,1c-.24.25-.25.34-.21.47.12.43.8.08,1.24.06a2.74,2.74,0,0,0,.61-.2,5,5,0,0,1,.69-.26c.22,0,.12.21-.19.54-.16.17-.33.3-.5.46s-.24.32-.11.32a1.17,1.17,0,0,0,.25-.08l.33-.22a2.35,2.35,0,0,0,.9-1.08,1.54,1.54,0,0,0,.24-1.06C47.66,62.63,47,62.94,46.3,63Z"/>
      <path class="cls-1" d="M34.09,79.9a1.5,1.5,0,0,1-.45-.07c-.33-.19-.92.15-1.34.37a2.52,2.52,0,0,0-1.14,1.15,1.62,1.62,0,0,1-.24.29c-.27.25-.3.43-.23.52a.33.33,0,0,0,.33.13c.61-.12,1.56-.88,2.14-.85.24,0,.66-.44.94-.9S34.28,79.93,34.09,79.9Z"/>
      <path class="cls-1" d="M41.31,70.73a.88.88,0,0,0-.9,0c-.5.19-1,.33-1.51.51a6,6,0,0,0-1.33,1.24c-.34.46-.44.77-.14.69a5.3,5.3,0,0,0,1.16-.45A10,10,0,0,0,39.64,72c.36-.26.78-.26.73,0s.09.33.45,0S41.51,70.9,41.31,70.73Z"/>
      <path class="cls-1" d="M27.76,89.34a1.32,1.32,0,0,0,0-.43,6.28,6.28,0,0,0-.28-.72s-.1,0-.16.07l-.57.58a1.51,1.51,0,0,0-.45.72A2.52,2.52,0,0,1,26,90c-.08.13-.18.25-.27.38.06,0,.1.11.19.06a4.37,4.37,0,0,0,.64-.45c.3-.25.49-.31.55-.1s.15.05.23.08C27.6,89.76,27.75,89.58,27.76,89.34Z"/>
      <path class="cls-1" d="M20.91,98.44c0,.08.05.13.12.08a3.5,3.5,0,0,0,.49-.42c.17-.17.34-.39.51-.58a5.54,5.54,0,0,0,.58-.33,3,3,0,0,0,.33-.38c0-.07,0-.21-.1-.18s-.32.05-.2-.34c0,0-.08,0-.14,0-.24.22-.48.46-.72.71a1.24,1.24,0,0,0-.2.29,1.21,1.21,0,0,1-.47.79A1.16,1.16,0,0,0,20.91,98.44Z"/>
      <path class="cls-1" d="M18.67,103.61c-.07-.12-.25-.07-.4-.1-.12.23-.21.38-.27.54-.23.54-.06.64-.07.94s.12.23.25.14a1.9,1.9,0,0,0,.49-.88A1.08,1.08,0,0,0,18.67,103.61Z"/>
      <path class="cls-1" d="M8.71,123.89c0,.22.36.22.56-.05a1.42,1.42,0,0,0,.18-.33h0a.58.58,0,0,0,.33-.22c.18-.23.35-.53.5-.76a3.28,3.28,0,0,0,.15-.79c0-.19-.35.13-.8.75l0,0c0-.06,0-.12,0-.11a2.39,2.39,0,0,0-.48.41A3.19,3.19,0,0,0,8.71,123.89Z"/>
      <path class="cls-1" d="M14,113.48a2.36,2.36,0,0,0,0-.66c-.08-.15-.3.12-.59.65s-.3.68-.16.76.1.1.18.09a.43.43,0,0,0,.26-.19A6.64,6.64,0,0,0,14,113.48Z"/>
      <path class="cls-1" d="M5.81,132.49a2,2,0,0,0,.43-1c0-.44-.21-.07-.34,0a1.38,1.38,0,0,0-.34.82C5.51,132.7,5.61,132.72,5.81,132.49Z"/>
      <path class="cls-1" d="M25.24,65.87c-.15-.6-.7-.37-1.2-.26a2,2,0,0,0-.41.19.59.59,0,0,0-.23.15c-.18.26-.35.55-.53.82s-.11.25,0,.35c.22.31.66,0,1,0a1.81,1.81,0,0,0,.43-.18,3,3,0,0,1,.49-.22c.17,0,.16.15,0,.4s-.18.24-.27.36-.1.24,0,.23a.8.8,0,0,0,.18-.07l.2-.17c.29-.25.31-.37.45-.81S25.3,66.09,25.24,65.87Z"/>
      <path class="cls-1" d="M16.35,79.15a.73.73,0,0,1-.13.21c-.18.17-.16.3-.09.37a.41.41,0,0,0,.31.1c.51-.07,1.12-.61,1.62-.58.21,0,.46-.31.58-.65s0-.43-.15-.46a1.65,1.65,0,0,1-.4-.06c-.32-.14-.74.1-1,.25A1.24,1.24,0,0,0,16.35,79.15Z"/>
      <path class="cls-1" d="M21.53,70.31a.58.58,0,0,0-.22.13l-.57.72c-.13.17-.13.23-.08.32a.27.27,0,0,0,.27.13l-.59.21a2.88,2.88,0,0,0-.77.92c-.16.34-.16.56.06.51a3.41,3.41,0,0,0,.84-.34,5.25,5.25,0,0,0,.68-.56c.23-.2.58-.21.6,0s.16.24.36,0a1.35,1.35,0,0,0,.17-.3l.15-.11c.29-.21.32-.32.5-.71s0-.5,0-.71c-.06-.56-.57-.38-1-.31A1.92,1.92,0,0,0,21.53,70.31Z"/>
      <path class="cls-1" d="M15.19,84.85a1,1,0,0,0-.13-.32,6.5,6.5,0,0,0-.4-.53s-.09,0-.13,0l-.37.4a.7.7,0,0,0-.24.5,1.16,1.16,0,0,1-.13.33c0,.09-.1.18-.15.27s.12.08.18.05a2.42,2.42,0,0,0,.46-.3c.21-.17.36-.21.46,0s.14,0,.21.06C15.14,85.15,15.23,85,15.19,84.85Z"/>
      <path class="cls-1" d="M12.52,90s-.07-.16-.13-.14-.28,0-.25-.26c0,0-.08,0-.13,0s-.33.31-.49.48a.55.55,0,0,0-.12.2.56.56,0,0,1-.26.55.51.51,0,0,0-.11.24.09.09,0,0,0,.12.07,1.84,1.84,0,0,0,.35-.28c.12-.11.23-.26.34-.39a3.55,3.55,0,0,0,.45-.21A1.43,1.43,0,0,0,12.52,90Z"/>
      <path class="cls-1" d="M10.18,95.16a.68.68,0,0,0-.12-.45c-.09-.09-.24-.07-.39-.1-.06.16-.11.26-.14.37-.11.37.08.45.12.67a.17.17,0,0,0,.26.11A.86.86,0,0,0,10.18,95.16Z"/>
      <path class="cls-1" d="M4.85,107.82a1.32,1.32,0,0,0-.21.7c0,.16.4.18.55,0s.13-.48.12-.77c0,0,0-.2-.07-.19A1.56,1.56,0,0,0,4.85,107.82Z"/>
      <path class="cls-1" d="M7.15,101.44c-.16.32-.15.47,0,.53s.12.08.19.08a.28.28,0,0,0,.21-.12,3.29,3.29,0,0,0,.17-.44,1.47,1.47,0,0,0-.15-.47C7.47,100.9,7.33,101.08,7.15,101.44Z"/>
      <path class="cls-1" d="M3.37,113.71a.58.58,0,0,0-.19.55c0,.25.13.26.29.12a.84.84,0,0,0,.25-.67C3.67,113.4,3.49,113.64,3.37,113.71Z"/>
      <path class="cls-1" d="M29,47c-.16-.73-.91-.63-1.5-.57a1.71,1.71,0,0,0-.48.17.54.54,0,0,0-.26.16l-.58.93c-.14.22-.12.29-.06.4.2.36.68.06,1.07,0a2.43,2.43,0,0,0,.51-.15,2.85,2.85,0,0,1,.61-.17c.21,0,.18.19-.06.44s-.25.23-.38.35-.16.25,0,.25a1.11,1.11,0,0,0,.22,0l.27-.15c.39-.21.45-.33.7-.78S29.06,47.31,29,47Z"/>
      <path class="cls-1" d="M20.07,60a1.51,1.51,0,0,1-.4-.07c-.31-.16-.77.09-1.1.25a1.55,1.55,0,0,0-.82.88.93.93,0,0,1-.17.22c-.21.19-.21.33-.14.4a.36.36,0,0,0,.3.11c.53-.06,1.23-.65,1.73-.6.21,0,.51-.33.68-.69S20.23,60,20.07,60Z"/>
      <path class="cls-1" d="M24.83,52.79a.8.8,0,0,0-.76,0c-.39.15-.78.26-1.2.39a3.65,3.65,0,0,0-.93,1c-.22.36-.25.61,0,.55a3.81,3.81,0,0,0,.91-.35,6.4,6.4,0,0,0,.78-.59c.26-.21.62-.21.62,0s.13.26.37,0S25,52.92,24.83,52.79Z"/>
      <path class="cls-1" d="M15.81,67.27a1.08,1.08,0,0,0-.09-.35,6.16,6.16,0,0,0-.34-.59s-.09,0-.14,0l-.44.43a.88.88,0,0,0-.31.54,1.47,1.47,0,0,1-.18.36c-.06.1-.13.19-.19.29s.11.1.18.06a2.82,2.82,0,0,0,.51-.32c.24-.18.39-.22.48,0s.14.05.21.07C15.72,67.59,15.83,67.46,15.81,67.27Z"/>
      <path class="cls-1" d="M10.88,73.77a.65.65,0,0,0-.14.26.08.08,0,0,0,.12.08,2.17,2.17,0,0,0,.4-.29c.13-.12.27-.28.4-.42a3.9,3.9,0,0,0,.49-.22,1.77,1.77,0,0,0,.26-.28c0-.06-.05-.17-.11-.15s-.28,0-.22-.29c0,0-.08,0-.13,0s-.38.33-.57.51a.7.7,0,0,0-.15.22A.7.7,0,0,1,10.88,73.77Z"/>
      <path class="cls-1" d="M8.7,79a.16.16,0,0,0,.24.13,1.08,1.08,0,0,0,.37-.65.76.76,0,0,0-.06-.5c-.08-.1-.24-.08-.38-.12-.09.17-.15.29-.2.4C8.51,78.62,8.68,78.72,8.7,79Z"/>
      <path class="cls-1" d="M2.38,92s0-.23,0-.21A1.79,1.79,0,0,0,1.9,92a1.66,1.66,0,0,0-.34.75c0,.17.38.23.56,0S2.34,92.32,2.38,92Z"/>
      <path class="cls-1" d="M5.29,85.19c-.21.34-.22.5-.08.58s.11.1.18.1a.31.31,0,0,0,.24-.12,3.93,3.93,0,0,0,.24-.47,1.64,1.64,0,0,0-.08-.53C5.7,84.62,5.53,84.81,5.29,85.19Z"/>
      <path class="cls-1" d="M84.38,291.21l.38-.16a2.7,2.7,0,0,0,1.16-.92,1,1,0,0,0,.36-.66,3.31,3.31,0,0,1,0-.44c.25-.85-.49-.59-1.28-.7a3.43,3.43,0,0,0-.66.12,1.09,1.09,0,0,0-.4.12l-1.27.9c-.3.21-.32.3-.31.45.05.48.83.26,1.3.32a2.9,2.9,0,0,0,.68-.09,5.06,5.06,0,0,1,.78-.13c.24,0,.1.25-.29.54-.2.14-.4.25-.6.39s-.31.29-.17.31A1.25,1.25,0,0,0,84.38,291.21Z"/>
      <path class="cls-1" d="M64.91,304.58a.41.41,0,0,0,.33.24c.69.07,1.86-.46,2.47-.25.26.09.8-.27,1.19-.69s.31-.59.12-.68a1.75,1.75,0,0,1-.47-.21c-.31-.3-1-.11-1.51,0a2.46,2.46,0,0,0-1.46.88,1.51,1.51,0,0,1-.32.24C64.92,304.28,64.85,304.47,64.91,304.58Z"/>
      <path class="cls-1" d="M73.93,297a5.43,5.43,0,0,0,1.32-.17,10,10,0,0,0,1.26-.52c.43-.19.88-.08.77.2s0,.37.49.07c.62-.41.93-.9.74-1.14a1,1,0,0,0-1-.26c-.57.07-1.11.1-1.7.15a5.89,5.89,0,0,0-1.64,1C73.76,296.67,73.6,297,73.93,297Z"/>
      <path class="cls-1" d="M80.2,251.31c.05.16.19.26.46.2,1.15-.27,3.34-1.8,4.32-1.79A6.24,6.24,0,0,0,87.34,248c.91-.93.79-1.11.49-1.16s-.58,0-.73-.09c-.42-.33-1.7.35-2.61.79a8.49,8.49,0,0,0-2.85,2.25,6,6,0,0,1-.63.57C80.35,250.83,80.15,251.17,80.2,251.31Z"/>
      <path class="cls-1" d="M107.56,229.15c-.28-.29-.82-.26-1.67.07-1,.41-2,.75-3.09,1.13a20.57,20.57,0,0,0-3.21,2.46c-.92.9-1.31,1.48-.73,1.31a13.88,13.88,0,0,0,2.4-.95c.69-.34,1.6-1,2.42-1.51s1.62-.58,1.34-.06-.05.61.87-.14C107.13,230.46,107.84,229.45,107.56,229.15Z"/>
      <path class="cls-1" d="M68.14,264.08a6.11,6.11,0,0,0-1.33,1.38,10.33,10.33,0,0,1-.83.9l-.74.75c.08,0,.07.19.26.08.41-.24.88-.56,1.4-.93.7-.51,1-.65,1-.26,0,.15.19.08.3.1a3.91,3.91,0,0,0,1.25-1.27,3.27,3.27,0,0,0,.29-.78,9.8,9.8,0,0,0,.15-1.28c0-.05-.18,0-.32.15Z"/>
      <path class="cls-1" d="M51.09,282.85a13.71,13.71,0,0,0,1.09-.87c.4-.35.85-.78,1.27-1.17s.75-.43,1.16-.72c.2-.14.55-.51.83-.77,0-.12.14-.38,0-.32-.41.2-.53.15,0-.59.05-.08-.09-.07-.22,0-.56.44-1.12.94-1.7,1.45a5.36,5.36,0,0,0-.55.58A5.17,5.17,0,0,1,51.59,282a5.06,5.06,0,0,0-.6.68C50.91,282.87,51,282.94,51.09,282.85Z"/>
      <path class="cls-1" d="M41.16,295.65a8.69,8.69,0,0,0,1.48-1.74,3.59,3.59,0,0,0,.57-1.18c0-.21-.3-.08-.49-.1l-.86,1.06a5.48,5.48,0,0,0-.93,1.76C40.78,295.74,40.9,295.85,41.16,295.65Z"/>
      <path class="cls-1" d="M95.42,192.52a4.36,4.36,0,0,0-.62-.83,1.06,1.06,0,0,0-.51-.31.71.71,0,0,0-.43,0c-.17.1-.22.19-.23.26s.16.22.26.35-.07.25-.17.39a2.22,2.22,0,0,1-.48.42c-.16.11-.36.35-.53.37l-.11,0a1.22,1.22,0,0,0-.26.2c-.56.59-1.1,1.23-1.65,1.84-.38.43-.41.57-.37.77.12.65,1.17,0,1.84-.15a5.2,5.2,0,0,0,.95-.43,8.81,8.81,0,0,1,1.09-.54c.34-.1.17.3-.35.88-.26.29-.55.53-.82.81s-.41.54-.21.51a2.23,2.23,0,0,0,.39-.16l.54-.39A4.41,4.41,0,0,0,95,195.13a3.63,3.63,0,0,0,.46-.91A2.07,2.07,0,0,0,95.42,192.52Z"/>
      <path class="cls-1" d="M69.61,221.91c.33,0,1.1-.69,1.69-1.39s.5-.9.26-.93-.46,0-.59-.07c-.37-.26-1.32.28-2,.63a5.82,5.82,0,0,0-2,1.77,3.78,3.78,0,0,1-.45.45c-.48.38-.6.65-.55.76a.31.31,0,0,0,.39.17C67.21,223.09,68.82,221.9,69.61,221.91Z"/>
      <path class="cls-1" d="M84,207.08c.86-.81,1.32-1.62,1.06-1.85s-.68-.2-1.31.08-1.52.61-2.33.94a13.29,13.29,0,0,0-2.26,2c-.63.73-.86,1.2-.42,1.06a10,10,0,0,0,1.79-.8,21.31,21.31,0,0,0,1.74-1.24c.6-.44,1.22-.49,1-.07S83.4,207.68,84,207.08Z"/>
      <path class="cls-1" d="M55.65,235.54a10.16,10.16,0,0,0,1.06-.69c.52-.38.8-.48.78-.17,0,.13.17.07.26.1a2.38,2.38,0,0,0,.88-1,2.28,2.28,0,0,0,.15-.63,8,8,0,0,0,0-1s-.14,0-.25.11l-1,.88a3.7,3.7,0,0,0-.94,1.07,6.27,6.27,0,0,1-.58.71l-.53.57C55.49,235.49,55.5,235.62,55.65,235.54Z"/>
      <path class="cls-1" d="M45.33,247.58a9.06,9.06,0,0,0,.83-.64c.3-.26.63-.58.95-.88s.6-.3.91-.51a7.5,7.5,0,0,0,.62-.58c0-.1.07-.31,0-.27-.32.14-.44.09-.09-.5,0-.06-.08-.07-.19,0-.41.33-.85.7-1.28,1.08a3.11,3.11,0,0,0-.4.44,3,3,0,0,1-1,1.19,2.75,2.75,0,0,0-.43.52C45.17,247.58,45.22,247.65,45.33,247.58Z"/>
      <path class="cls-1" d="M39.44,256.14a2.21,2.21,0,0,0,.33-.95c0-.18-.28-.1-.46-.14-.27.34-.46.58-.62.81a3.13,3.13,0,0,0-.57,1.4c-.09.23,0,.35.25.2A4.69,4.69,0,0,0,39.44,256.14Z"/>
      <path class="cls-1" d="M17.72,285.71a4.81,4.81,0,0,0,1-1.71c0-.07.18-.45.1-.42a5.1,5.1,0,0,0-.84.58,6.65,6.65,0,0,0-1.06,1.55C16.8,286.06,17.32,286.11,17.72,285.71Z"/>
      <path class="cls-1" d="M27.78,271.32a.82.82,0,0,0,.44-.28c.25-.29.51-.68.73-1a4.6,4.6,0,0,0,.29-1c0-.24-.44.17-1.08,1s-.72,1-.57,1.15S27.67,271.34,27.78,271.32Z"/>
      <path class="cls-1" d="M9.08,298.85a4,4,0,0,0,1-1.51c.24-.7-.27-.16-.51,0a2.73,2.73,0,0,0-.83,1.24C8.56,299.12,8.7,299.18,9.08,298.85Z"/>
      <path class="cls-1" d="M72.6,231.1c.35.07,1.28-.53,2-1.18s.68-.86.42-.95-.5-.07-.63-.2c-.36-.36-1.46,0-2.24.3a5.86,5.86,0,0,0-2.45,1.54,3.9,3.9,0,0,1-.55.4c-.57.33-.73.6-.69.73a.35.35,0,0,0,.4.25C69.87,231.93,71.76,230.94,72.6,231.1Z"/>
      <path class="cls-1" d="M55.69,243.39c.07,0,.07.18.23.11a10.36,10.36,0,0,0,1.22-.59c.6-.34.91-.4.85-.07,0,.13.17.1.27.14a2.5,2.5,0,0,0,1.06-.93,2.41,2.41,0,0,0,.24-.65,8.48,8.48,0,0,0,.1-1.12s-.16,0-.28.08l-1.21.8a3.9,3.9,0,0,0-1.13,1,6.6,6.6,0,0,1-.7.67C56.12,243,55.9,243.21,55.69,243.39Z"/>
      <path class="cls-1" d="M43.57,255a9,9,0,0,0,.95-.59c.34-.24.73-.56,1.09-.83s.66-.26,1-.45a8.43,8.43,0,0,0,.73-.53c0-.1.11-.32,0-.28-.36.11-.47,0,0-.53,0-.06-.08-.08-.2,0-.48.31-1,.64-1.48,1a3.42,3.42,0,0,0-.47.42A3.32,3.32,0,0,1,44,254.41a3.23,3.23,0,0,0-.52.51C43.4,255,43.45,255.11,43.57,255Z"/>
      <path class="cls-1" d="M34.87,264.53c-.13.23,0,.35.22.21a5.55,5.55,0,0,0,1.27-1.29,2.43,2.43,0,0,0,.47-.95c0-.19-.27-.12-.45-.17l-.74.8A3.65,3.65,0,0,0,34.87,264.53Z"/>
      <path class="cls-1" d="M10.61,292.86a7.75,7.75,0,0,0,1.23-1.72c0-.07.25-.45.18-.4a6.87,6.87,0,0,0-.83.64A11.33,11.33,0,0,0,10,293C9.77,293.3,10.18,293.28,10.61,292.86Z"/>
      <path class="cls-1" d="M23.11,277.15c-.66.71-.86,1-.75,1.14s0,.16.15.13a1,1,0,0,0,.46-.29c.29-.29.6-.68.86-1a5.64,5.64,0,0,0,.46-1C24.3,275.94,23.85,276.36,23.11,277.15Z"/>
      <path class="cls-1" d="M125.47,262.57c0,.57,1,.16,1.59.17a4.77,4.77,0,0,0,.89-.21,8.14,8.14,0,0,1,1-.27c.3,0,.08.28-.48.68-.28.2-.57.36-.86.55s-.46.39-.28.39a2,2,0,0,0,.37-.07l.53-.24a5,5,0,0,0,1.68-1.27c.81-.77.58-1,.77-1.35.49-1.05-.59-.75-1.53-.7a5.55,5.55,0,0,0-.88.24,1.9,1.9,0,0,0-.54.21c-.61.4-1.21.85-1.81,1.29C125.53,262.28,125.48,262.4,125.47,262.57Z"/>
      <path class="cls-1" d="M100.73,283.81a.28.28,0,0,0,.34.18c.8-.12,2.34-1,3-1,.29,0,1-.53,1.59-1.11s.51-.76.3-.81-.41,0-.52-.11c-.31-.26-1.2.15-1.82.41a5.16,5.16,0,0,0-1.95,1.42,3.32,3.32,0,0,1-.43.36C100.81,283.47,100.69,283.7,100.73,283.81Z"/>
      <path class="cls-1" d="M113.33,272.64a9.1,9.1,0,0,0,1.67-.51c.48-.2,1.11-.58,1.68-.89s1.12-.29.92.05,0,.42.59,0c.85-.61,1.35-1.26,1.17-1.48s-.55-.25-1.14-.08-1.4.37-2.15.56a12,12,0,0,0-2.24,1.51C113.18,272.34,112.92,272.73,113.33,272.64Z"/>
      <path class="cls-1" d="M90.7,294.17c.06,0,.07.15.21.09a8.25,8.25,0,0,0,1-.55c.49-.31.74-.38.71-.09,0,.11.15.08.24.11a2,2,0,0,0,.84-.83,2,2,0,0,0,.16-.56,7.23,7.23,0,0,0,0-.94s-.13,0-.23.08l-1,.72a3.17,3.17,0,0,0-.89.9,5.33,5.33,0,0,1-.55.59Z"/>
      <path class="cls-1" d="M81.16,304.45a6.75,6.75,0,0,0,.78-.51c.28-.21.59-.49.89-.73s.56-.23.85-.39a6.26,6.26,0,0,0,.58-.48c0-.09.07-.28,0-.25-.3.1-.4,0-.07-.46,0-.05-.08-.07-.17,0-.39.27-.79.57-1.2.89a2.6,2.6,0,0,0-.38.37,2.51,2.51,0,0,1-.94,1,2.42,2.42,0,0,0-.41.44C81,304.44,81.06,304.5,81.16,304.45Z"/>
      <path class="cls-1" d="M153.6,257.85c.74-.72.5-.93.65-1.31.4-1-.63-.81-1.54-.82a4.69,4.69,0,0,0-.83.18,1.55,1.55,0,0,0-.51.17l-1.68,1.15c-.39.27-.43.39-.42.56,0,.58,1,.25,1.57.3a4,4,0,0,0,.85-.15,6.89,6.89,0,0,1,1-.2c.29,0,.1.29-.42.66-.26.18-.53.32-.79.5s-.42.36-.24.38a1.69,1.69,0,0,0,.35,0l.5-.21A4,4,0,0,0,153.6,257.85Z"/>
      <path class="cls-1" d="M126.32,276.91a.35.35,0,0,0,.35.22c.81,0,2.26-.79,3-.64.29.06,1-.42,1.51-1s.46-.72.24-.79-.41-.07-.53-.17c-.33-.3-1.18,0-1.79.2a4,4,0,0,0-1.85,1.22,2.53,2.53,0,0,1-.41.32C126.37,276.57,126.27,276.8,126.32,276.91Z"/>
      <path class="cls-1" d="M138.08,266.94a7.64,7.64,0,0,0,1.61-.35,15.71,15.71,0,0,0,1.59-.74c.55-.27,1.08-.19.91.14s0,.42.58,0c.8-.54,1.24-1.15,1-1.4s-.56-.31-1.13-.19-1.35.24-2.08.36a9.3,9.3,0,0,0-2.1,1.32C137.92,266.62,137.69,267,138.08,266.94Z"/>
      <path class="cls-1" d="M116.89,286.18c.07,0,.08.16.21.11a6.82,6.82,0,0,0,1-.43c.47-.25.72-.29.7,0,0,.11.15.1.24.14a1.6,1.6,0,0,0,.8-.73,1.78,1.78,0,0,0,.13-.54,7.2,7.2,0,0,0,0-.94s-.13,0-.22.05l-.93.61a2.48,2.48,0,0,0-.85.8,4.19,4.19,0,0,1-.52.53C117.22,285.9,117.05,286,116.89,286.18Z"/>
      <path class="cls-1" d="M107.77,295.23a5.74,5.74,0,0,0,.75-.42c.27-.18.57-.41.86-.62a8.42,8.42,0,0,0,.82-.3,5.19,5.19,0,0,0,.56-.4c0-.09.06-.27,0-.24-.29.07-.39,0-.08-.45,0,0-.08-.07-.17,0-.37.22-.76.48-1.16.74a2.12,2.12,0,0,0-.36.32,2.07,2.07,0,0,1-.91.88,2,2,0,0,0-.39.39C107.63,295.21,107.68,295.28,107.77,295.23Z"/>
      <path class="cls-1" d="M101.38,302.73a3.46,3.46,0,0,0,1-1,1.61,1.61,0,0,0,.32-.76c0-.16-.25-.13-.4-.19l-.57.6c-.52.61-.37.76-.54,1.12C101.08,302.71,101.19,302.83,101.38,302.73Z"/>
      <path class="cls-1" d="M180.79,267.39a5.2,5.2,0,0,0,1,0,10.1,10.1,0,0,1,1.18,0c.33,0,0,.31-.74.58-.36.14-.72.22-1.09.35s-.61.29-.43.34a2.2,2.2,0,0,0,.41,0l.64-.12a6.2,6.2,0,0,0,2.19-.89c1.11-.59.95-.81,1.27-1.15.88-.93-.38-.93-1.38-1.09a7,7,0,0,0-1,0,2.33,2.33,0,0,0-.65.07l-2.37.79c-.55.18-.65.28-.71.46C178.92,267.34,180.17,267.23,180.79,267.39Z"/>
      <path class="cls-1" d="M146,282.54a.43.43,0,0,0,.37.36c1,.16,2.92-.35,3.72,0,.33.15,1.3-.24,2.06-.73s.73-.73.5-.88-.47-.19-.59-.35c-.31-.45-1.42-.31-2.2-.24a4.89,4.89,0,0,0-2.54,1,3.12,3.12,0,0,1-.57.27C146.19,282.15,146,282.39,146,282.54Z"/>
      <path class="cls-1" d="M162.88,273.87a9.18,9.18,0,0,0,2,.06,18.72,18.72,0,0,0,2.11-.42c.73-.16,1.32.07,1,.41s-.14.49.67.18c1.1-.41,1.82-1,1.67-1.34s-.55-.49-1.25-.51c-.86,0-1.66-.09-2.55-.15a12.11,12.11,0,0,0-2.91.91C162.78,273.44,162.39,273.81,162.88,273.87Z"/>
      <path class="cls-1" d="M132.44,291.4c.07.07.06.21.22.18a8.32,8.32,0,0,0,1.26-.29c.62-.19.93-.18.85.16,0,.13.16.15.26.22a1.94,1.94,0,0,0,1.13-.69,2.18,2.18,0,0,0,.28-.62,9,9,0,0,0,.18-1.15c0-.05-.16,0-.28,0l-1.27.51a3,3,0,0,0-1.21.76,5.09,5.09,0,0,1-.75.52C132.9,291.14,132.66,291.26,132.44,291.4Z"/>
      <path class="cls-1" d="M119.5,300.41a6.88,6.88,0,0,0,1-.35c.37-.16.78-.38,1.17-.57a10.15,10.15,0,0,0,1.06-.18,6.17,6.17,0,0,0,.76-.37c0-.11.13-.31,0-.3-.37,0-.48-.08,0-.58,0-.05-.08-.11-.2-.06-.5.19-1,.41-1.55.65a2.54,2.54,0,0,0-.5.31,2.47,2.47,0,0,1-1.28.88,2.38,2.38,0,0,0-.56.39C119.33,300.34,119.38,300.44,119.5,300.41Z"/>
      <path class="cls-1" d="M382.28,51.23c-.34,0-1.1.66-1.66,1.36s-.47.89-.21.93.48,0,.62.09a.43.43,0,0,0,.13,0l-.05.09a1.55,1.55,0,0,0-.29,1.17c-.14.9.69.55,1.42.4a4.17,4.17,0,0,0,.65-.28,1.29,1.29,0,0,0,.39-.22l1.17-1.19c.27-.27.29-.37.25-.52-.13-.48-.89-.08-1.37,0a3,3,0,0,0-.67.26,6.11,6.11,0,0,1-.77.33c-.08,0-.11,0-.12-.06a9.11,9.11,0,0,0,1.28-.56,5.12,5.12,0,0,0,2-1.71,3.29,3.29,0,0,1,.43-.43c.47-.36.58-.63.52-.75a.35.35,0,0,0-.41-.19C384.67,50.13,383.09,51.27,382.28,51.23Z"/>
      <path class="cls-1" d="M401.37,35.29c-.75-.07-2,.56-2.66.36-.28-.08-.86.33-1.27.8s-.31.66-.09.74a1.89,1.89,0,0,1,.52.2c.36.31,1.11.08,1.64-.06a2.59,2.59,0,0,0,1.52-1,1.58,1.58,0,0,1,.33-.27c.37-.2.43-.4.37-.52A.45.45,0,0,0,401.37,35.29Z"/>
      <path class="cls-1" d="M392.65,44.35a5.58,5.58,0,0,0-1.39.34,10.4,10.4,0,0,0-1.28.72c-.44.26-.94.21-.85-.1s-.08-.39-.53,0c-.6.53-.86,1.12-.63,1.33a1.07,1.07,0,0,0,1.05.12c.59-.16,1.17-.26,1.8-.4a6.36,6.36,0,0,0,1.63-1.23C392.87,44.65,393,44.31,392.65,44.35Z"/>
      <path class="cls-1" d="M417.75,21.33a.1.1,0,0,0-.1-.16,3.59,3.59,0,0,0-.71.2c-.25.1-.54.24-.8.37a5.87,5.87,0,0,0-.78.07,3.08,3.08,0,0,0-.52.25c0,.09,0,.25,0,.26.28,0,.38.11.1.49,0,0,.08.1.16.07l.41-.16a.85.85,0,0,0-.15.3c0,.17.23.17.39.25l.79-.59c.74-.58.64-.77.92-1.13A1,1,0,0,0,417.75,21.33Z"/>
      <path class="cls-1" d="M422.81,17.3c.23-.18.4-.29.55-.41.51-.43.36-.65.52-1a.2.2,0,0,0-.21-.31,1.88,1.88,0,0,0-1,.64,1.14,1.14,0,0,0-.3.68C422.43,17.12,422.65,17.18,422.81,17.3Z"/>
      <path class="cls-1" d="M444,3.37a2.29,2.29,0,0,0-1.16.71s-.24.24-.17.26a3.1,3.1,0,0,0,.74,0,3.25,3.25,0,0,0,1.14-.56C444.68,3.63,444.34,3.3,444,3.37Z"/>
      <path class="cls-1" d="M433.69,9.41c0-.08,0-.18-.14-.23a.48.48,0,0,0-.39,0,6.63,6.63,0,0,0-.71.43c-.14.27-.36.53-.35.69s.37.08,1-.23S433.79,9.59,433.69,9.41Z"/>
      <path class="cls-1" d="M385.9,73.57a6.06,6.06,0,0,1-.78.48c-.26.1-.21-.22.09-.7.15-.24.33-.45.49-.68s.21-.45.06-.41a1.46,1.46,0,0,0-.29.15l-.35.34a3.28,3.28,0,0,0-.87,1.5c-.34.86-.07.94,0,1.31.08,1,.95.5,1.72.21a4.08,4.08,0,0,0,.65-.41,1.28,1.28,0,0,0,.37-.3c.34-.48.65-1,1-1.49s.22-.45.14-.61c-.25-.5-1,.07-1.5.21A3.35,3.35,0,0,0,385.9,73.57Z"/>
      <path class="cls-1" d="M402.47,52.45a1.71,1.71,0,0,1,.31-.33c.36-.27.4-.49.32-.6a.47.47,0,0,0-.42-.21c-.8,0-2,.89-2.76.78-.31,0-.87.48-1.23,1s-.24.74,0,.8a2.07,2.07,0,0,1,.59.14c.43.28,1.18-.08,1.73-.3A2.78,2.78,0,0,0,402.47,52.45Z"/>
      <path class="cls-1" d="M392.2,63.83c-.43.35-1,.37-.95,0s-.16-.41-.58.08c-.58.65-.71,1.35-.42,1.53a1.18,1.18,0,0,0,1.16,0c.62-.26,1.23-.46,1.88-.7a6.5,6.5,0,0,0,1.51-1.58c.36-.58.44-1,.08-.87a6.08,6.08,0,0,0-1.42.59A11.34,11.34,0,0,0,392.2,63.83Z"/>
      <path class="cls-1" d="M410.4,42.46c-.08,0-.11-.17-.24-.14a4.87,4.87,0,0,0-.89.37c-.43.22-.68.25-.72,0,0-.12-.18-.11-.28-.16-.39.22-.61.41-.66.7a1.63,1.63,0,0,0,0,.55,7.87,7.87,0,0,0,.24,1s.13,0,.22,0l.83-.55a1.65,1.65,0,0,0,.69-.76,2.77,2.77,0,0,1,.42-.51C410.13,42.72,410.27,42.59,410.4,42.46Z"/>
      <path class="cls-1" d="M418.51,34.54c0-.09,0-.18-.12-.15a3.94,3.94,0,0,0-.74.28c-.26.13-.55.32-.82.48a6.49,6.49,0,0,0-.83.14,3.43,3.43,0,0,0-.54.32c0,.09,0,.27.07.26.3,0,.42.08.15.5,0,0,.09.09.18.05.36-.16.74-.35,1.12-.54a1.35,1.35,0,0,0,.34-.26,1.33,1.33,0,0,1,.83-.75A1.24,1.24,0,0,0,418.51,34.54Z"/>
      <path class="cls-1" d="M423.45,28.77a1.28,1.28,0,0,0-.29.73c0,.18.26.21.43.32.23-.21.4-.35.55-.49.51-.5.35-.7.51-1,.08-.17,0-.33-.22-.28A2.21,2.21,0,0,0,423.45,28.77Z"/>
      <path class="cls-1" d="M445.57,13.93a2.78,2.78,0,0,0-1.2.8s-.25.25-.19.26a3.31,3.31,0,0,0,.74-.09,5.54,5.54,0,0,0,1.19-.66C446.3,14.05,446,13.81,445.57,13.93Z"/>
      <path class="cls-1" d="M434.81,20.78c0-.07,0-.17-.13-.2a.53.53,0,0,0-.39,0,8.45,8.45,0,0,0-.73.5,2.79,2.79,0,0,0-.38.71c0,.21.38,0,1-.35S434.91,20.94,434.81,20.78Z"/>
      <path class="cls-1" d="M397.09,79.39a3.2,3.2,0,0,0-.68.35,6,6,0,0,1-.77.44c-.25.08-.19-.23.11-.68.15-.23.33-.42.5-.65s.22-.43.07-.4a1.39,1.39,0,0,0-.28.14l-.35.32a3.18,3.18,0,0,0-.89,1.44c-.36.83-.1.92-.09,1.29,0,1,.89.52,1.65.27a4.05,4.05,0,0,0,.66-.38,1.26,1.26,0,0,0,.38-.28c.35-.46.68-.95,1-1.42s.24-.43.17-.58C398.35,78.76,397.6,79.28,397.09,79.39Z"/>
      <path class="cls-1" d="M411.62,60.67a2.65,2.65,0,0,0,1.44-1.27,1.58,1.58,0,0,1,.3-.32c.36-.26.4-.48.31-.59a.52.52,0,0,0-.43-.22c-.82,0-2,.82-2.79.7-.32-.05-.86.46-1.21,1s-.21.74,0,.8a2.22,2.22,0,0,1,.6.16C410.31,61.22,411.07,60.88,411.62,60.67Z"/>
      <path class="cls-1" d="M404.1,69.5a10.4,10.4,0,0,0-1.25.92c-.42.33-1,.33-.94,0s-.16-.41-.58.06c-.56.63-.73,1.29-.44,1.49a1.2,1.2,0,0,0,1.17,0c.62-.24,1.22-.42,1.88-.63a6.24,6.24,0,0,0,1.52-1.51c.37-.56.46-.94.08-.86A5.46,5.46,0,0,0,404.1,69.5Z"/>
      <path class="cls-1" d="M420.22,49.84c.12-.14.26-.26.39-.39-.08,0-.12-.17-.24-.13a4.73,4.73,0,0,0-.88.37c-.41.23-.66.25-.72,0,0-.12-.18-.11-.28-.16-.38.23-.59.42-.62.71a1.64,1.64,0,0,0,0,.55,8.31,8.31,0,0,0,.29,1s.14,0,.22,0l.8-.56a1.55,1.55,0,0,0,.65-.77A2.32,2.32,0,0,1,420.22,49.84Z"/>
      <path class="cls-1" d="M426.78,42.75a1.31,1.31,0,0,0,.31-.28,1.3,1.3,0,0,1,.77-.78,1.23,1.23,0,0,0,.33-.34c0-.09,0-.17-.12-.14a3.84,3.84,0,0,0-.7.32c-.25.14-.51.34-.77.51a6.45,6.45,0,0,0-.8.18,3.33,3.33,0,0,0-.51.34c0,.09,0,.27.08.26.29,0,.41.06.17.49,0,0,.09.09.18,0C426.06,43.16,426.42,43,426.78,42.75Z"/>
      <path class="cls-1" d="M432.89,36.46c.22-.22.37-.36.51-.51.46-.52.3-.7.43-1a.19.19,0,0,0-.24-.26,2.05,2.05,0,0,0-.91.8,1.24,1.24,0,0,0-.24.73C432.49,36.34,432.72,36.36,432.89,36.46Z"/>
      <path class="cls-1" d="M441.65,28c0,.21.37,0,1-.41s.68-.57.57-.73-.06-.16-.15-.19a.53.53,0,0,0-.39.07,7,7,0,0,0-.68.53A2.7,2.7,0,0,0,441.65,28Z"/>
      <path class="cls-1" d="M392.58,117.72a4.13,4.13,0,0,0,.57-.5,1.26,1.26,0,0,0,.32-.35c.25-.52.48-1.06.72-1.59.17-.37.14-.47,0-.61-.34-.44-1,.22-1.45.43a3.2,3.2,0,0,0-.6.49,6.1,6.1,0,0,1-.68.59c-.23.14-.24-.18,0-.69.1-.26.24-.49.36-.74s.13-.47,0-.41a1.4,1.4,0,0,0-.25.19l-.28.39a3.16,3.16,0,0,0-.58,1.6c-.18.89.09.93.19,1.28C391.13,118.75,391.87,118.12,392.58,117.72Z"/>
      <path class="cls-1" d="M404.87,92.56a1.58,1.58,0,0,1,.25-.37c.31-.31.31-.54.21-.64a.51.51,0,0,0-.46-.15c-.79.15-1.86,1.14-2.63,1.13-.32,0-.78.59-1.05,1.19s-.1.76.15.78a2.22,2.22,0,0,1,.62.06c.48.22,1.18-.24,1.69-.53A2.59,2.59,0,0,0,404.87,92.56Z"/>
      <path class="cls-1" d="M395,107a1.19,1.19,0,0,0,1.14-.22c.56-.35,1.13-.64,1.73-1a6.23,6.23,0,0,0,1.22-1.76c.26-.62.27-1-.08-.86a5.86,5.86,0,0,0-1.31.78,10.67,10.67,0,0,0-1.07,1.14c-.36.4-.9.51-.93.17s-.23-.37-.56.17C394.71,106.2,394.69,106.89,395,107Z"/>
      <path class="cls-1" d="M410.64,82.1c.1-.15.22-.3.33-.44-.08,0-.14-.15-.25-.1a4.74,4.74,0,0,0-.81.49c-.38.28-.62.34-.72.06,0-.11-.19-.08-.3-.12-.35.27-.54.49-.54.78a1.6,1.6,0,0,0,.07.54,7.9,7.9,0,0,0,.4.92s.14,0,.21-.07l.72-.66a1.57,1.57,0,0,0,.56-.84A2.64,2.64,0,0,1,410.64,82.1Z"/>
      <path class="cls-1" d="M414.84,74.26c0,.09,0,.27.11.25.29-.06.41,0,.22.46,0,0,.1.08.18,0,.33-.21.67-.44,1-.69a1.32,1.32,0,0,0,.29-.3,1.3,1.3,0,0,1,.7-.84,1.23,1.23,0,0,0,.3-.37c0-.09-.05-.17-.14-.13a3.84,3.84,0,0,0-.67.38c-.24.16-.48.39-.73.58a6.43,6.43,0,0,0-.78.26A3.37,3.37,0,0,0,414.84,74.26Z"/>
      <path class="cls-1" d="M422.4,65.58a2.1,2.1,0,0,0-.83.88,1.25,1.25,0,0,0-.17.76c.06.17.29.17.47.26.2-.24.34-.39.46-.55.42-.56.23-.74.33-1.1C422.72,65.65,422.58,65.51,422.4,65.58Z"/>
      <path class="cls-1" d="M439.75,50.17a3,3,0,0,0,.75-.13,4.21,4.21,0,0,0,1.06-.81c.15-.22-.26-.49-.65-.34-.54.19-.71.57-1,1C439.85,49.91,439.68,50.16,439.75,50.17Z"/>
      <path class="cls-1" d="M430,58.35c0,.22.39,0,.95-.46s.63-.63.5-.79-.07-.17-.17-.19a.5.5,0,0,0-.39.09,7.5,7.5,0,0,0-.64.59A2.7,2.7,0,0,0,430,58.35Z"/>
      <path class="cls-1" d="M409.75,99.69a4.16,4.16,0,0,1,.39-.71c.12-.2.26-.39.38-.58-.09,0-.14-.15-.27-.07a6.87,6.87,0,0,0-.91.71c-.43.39-.69.5-.78.19,0-.12-.2-.07-.31-.09a1.63,1.63,0,0,0-.63,1,2.47,2.47,0,0,0,0,.37h-.16a2.34,2.34,0,0,0-.72,1,2.15,2.15,0,0,0-.09.59,7.1,7.1,0,0,0,.11.94s.13,0,.21-.13l.86-.92.19-.23h0s.15,0,.23-.12l.82-.9A2.47,2.47,0,0,0,409.75,99.69Z"/>
      <path class="cls-1" d="M415.13,90.54c.29-.15.39-.11.1.44,0,.06.08.05.17,0,.36-.34.74-.7,1.12-1.08a3,3,0,0,0,.34-.43,2.9,2.9,0,0,1,.86-1.16,2.82,2.82,0,0,0,.37-.51c0-.11,0-.17-.1-.1a7.66,7.66,0,0,0-.71.62,2.21,2.21,0,0,1,.76-.93,2,2,0,0,0,.36-.48c0-.11,0-.18-.14-.12a5.79,5.79,0,0,0-.76.57c-.27.23-.56.53-.83.8a8.79,8.79,0,0,0-.87.44,5.28,5.28,0,0,0-.55.53c0,.1,0,.3.09.26.3-.11.42-.05.23.41-.14.12-.33.35-.49.53C415.09,90.38,415,90.59,415.13,90.54Z"/>
      <path class="cls-1" d="M445.82,57.05A7.19,7.19,0,0,0,447.1,56c.2-.27-.26-.48-.72-.25A3.53,3.53,0,0,0,445.12,57c0,.06-.25.36-.17.35A4.28,4.28,0,0,0,445.82,57.05Z"/>
      <path class="cls-1" d="M433.28,68.2c0,.23.43-.08,1.09-.7s.76-.82.63-1-.07-.17-.17-.18a.68.68,0,0,0-.44.17c-.26.23-.54.54-.76.78A3.76,3.76,0,0,0,433.28,68.2Z"/>
      <path class="cls-1" d="M351.7,142.19c.23-.2.54-.61.84-.95a4.14,4.14,0,0,0,.51-.65l1.56-2.79c.35-.65.36-.82.32-1-.16-.68-1.13.56-1.76,1a7.7,7.7,0,0,0-.86.93c-.33.37-.7.88-1,1.13s-.16-.26.27-1.16c.22-.45.46-.86.69-1.31s.34-.81.15-.68a3.28,3.28,0,0,0-.35.37l-.45.7a11.28,11.28,0,0,0-1.27,2.8,4.36,4.36,0,0,0-.39,2.1C349.78,144.22,350.79,143,351.7,142.19Z"/>
      <path class="cls-1" d="M372,101.95c.23,0,.52-.18.69-.11.46.19,1.47-.76,2.2-1.4a8.81,8.81,0,0,0,2.1-2.76,5.72,5.72,0,0,1,.45-.67c.5-.6.61-1,.53-1.08s-.23-.2-.46-.08c-1,.51-2.68,2.45-3.57,2.7a6.16,6.16,0,0,0-1.75,2.21C371.6,101.85,371.75,102,372,101.95Z"/>
      <path class="cls-1" d="M359.23,123.92c.29.16.74-.05,1.36-.63.8-.71,1.55-1.32,2.38-2a21.17,21.17,0,0,0,2.17-3.22c.58-1.09.76-1.73.3-1.39a14.32,14.32,0,0,0-1.83,1.63c-.51.53-1.13,1.39-1.71,2.13s-1.24,1.05-1.12.5-.09-.55-.7.41C359.27,122.63,358.93,123.77,359.23,123.92Z"/>
      <path class="cls-1" d="M385.43,82a9.21,9.21,0,0,0,.06,1.23c0,.05.16-.06.28-.19l1.17-1.29a5.71,5.71,0,0,0,1-1.5,9.67,9.67,0,0,1,.64-1l.6-.81c-.08,0-.1-.17-.26,0a14.45,14.45,0,0,0-1.2,1.08c-.59.58-.9.77-.89.38,0-.15-.2,0-.3-.06a3.7,3.7,0,0,0-1,1.39A3.11,3.11,0,0,0,385.43,82Z"/>
      <path class="cls-1" d="M399.66,64.54A4.76,4.76,0,0,1,400.9,63a4.64,4.64,0,0,0,.54-.68c.07-.15,0-.22-.12-.12a12.55,12.55,0,0,0-1,.88c-.37.35-.78.79-1.16,1.19s-.71.45-1.09.74c-.19.15-.51.51-.76.78,0,.11-.1.38,0,.31.38-.22.51-.17.06.57,0,.08.09.06.22,0,.5-.46,1-1,1.56-1.47A4.94,4.94,0,0,0,399.66,64.54Z"/>
      <path class="cls-1" d="M409.21,51.38a3.31,3.31,0,0,0-.54,1.14c0,.21.3.09.49.12l.83-1a5,5,0,0,0,.89-1.7c.14-.28,0-.4-.23-.21A7.88,7.88,0,0,0,409.21,51.38Z"/>
      <path class="cls-1" d="M442.26,17.48a8.45,8.45,0,0,0-1.81,1.82c-.05.08-.38.49-.29.45a9.23,9.23,0,0,0,1.1-.63A18.2,18.2,0,0,0,443,17.49C443.35,17.13,442.86,17.07,442.26,17.48Z"/>
      <path class="cls-1" d="M423.68,35.85c0,.27.52-.22,1.45-1.14s1.1-1.19,1-1.31,0-.18-.15-.15a1.28,1.28,0,0,0-.56.33c-.36.34-.77.79-1.09,1.13A7.55,7.55,0,0,0,423.68,35.85Z"/>
      <path class="cls-1" d="M360.61,58.95a3.58,3.58,0,0,0-.7.37,6.36,6.36,0,0,1-.8.46c-.26.09-.17-.23.17-.7.17-.24.37-.44.55-.66s.26-.44.1-.41a1.54,1.54,0,0,0-.29.14l-.37.33a3.72,3.72,0,0,0-1,1.47,1.64,1.64,0,0,0-.2,1.31c0,1,.86.54,1.63.27a4.28,4.28,0,0,0,.67-.39,1.39,1.39,0,0,0,.39-.29l1.11-1.47c.26-.34.26-.45.21-.61C361.88,58.28,361.12,58.83,360.61,58.95Z"/>
      <path class="cls-1" d="M379.13,37.78a.36.36,0,0,0-.36-.19c-.76,0-2,.89-2.69.8-.28,0-.88.47-1.3,1s-.33.71-.12.76.4,0,.53.12c.36.26,1.11-.1,1.66-.32a3.37,3.37,0,0,0,1.55-1.27,2.13,2.13,0,0,1,.34-.33C379.1,38.09,379.19,37.89,379.13,37.78Z"/>
      <path class="cls-1" d="M369.87,48.26a6.68,6.68,0,0,0-1.43.57,9.65,9.65,0,0,0-1.3,1c-.44.34-1,.37-.88,0s-.1-.4-.55.08c-.61.65-.87,1.3-.62,1.49s.6.18,1.1,0,1.2-.46,1.83-.7a9.32,9.32,0,0,0,1.64-1.55C370.1,48.55,370.23,48.16,369.87,48.26Z"/>
      <path class="cls-1" d="M387.4,29.06c-.06,0-.07-.15-.2-.11a5.91,5.91,0,0,0-.89.37c-.44.22-.67.25-.66,0,0-.1-.15-.1-.23-.14-.4.21-.64.4-.73.67a1.65,1.65,0,0,0-.11.51,6.7,6.7,0,0,0,.07.9s.12,0,.21,0l.85-.56a2.27,2.27,0,0,0,.77-.72,3.57,3.57,0,0,1,.48-.48C387.09,29.3,387.25,29.18,387.4,29.06Z"/>
      <path class="cls-1" d="M396.23,21.35a4.9,4.9,0,0,0-.73.3c-.27.13-.56.31-.85.47a7.38,7.38,0,0,0-.79.18,4.5,4.5,0,0,0-.56.31c0,.08-.08.24,0,.23.28,0,.37,0,0,.44,0,0,.07.08.16,0,.37-.16.75-.35,1.13-.55a1.81,1.81,0,0,0,.36-.25,1.76,1.76,0,0,1,.91-.71,1.7,1.7,0,0,0,.39-.31C396.36,21.39,396.32,21.32,396.23,21.35Z"/>
      <path class="cls-1" d="M403,15.41a2.91,2.91,0,0,0-1.06.71,1.41,1.41,0,0,0-.41.65c0,.15.21.17.35.26.26-.19.45-.32.61-.45.57-.45.46-.63.67-.93S403.22,15.36,403,15.41Z"/>
      <path class="cls-1" d="M425.79,2.4a3.49,3.49,0,0,0-1.33.68s-.29.22-.23.23a3.93,3.93,0,0,0,.76,0,6,6,0,0,0,1.29-.56C426.51,2.54,426.21,2.31,425.79,2.4Z"/>
      <path class="cls-1" d="M346.66,73.92l1.11-1.63c.26-.38.27-.49.24-.63-.12-.47-.84.2-1.3.4a4.37,4.37,0,0,0-.65.48,8.17,8.17,0,0,1-.74.58c-.23.13-.13-.2.21-.71.17-.26.36-.49.54-.74s.26-.48.12-.42a1.85,1.85,0,0,0-.27.19l-.35.39a5.3,5.3,0,0,0-1,1.62,2,2,0,0,0-.29,1.33c-.13,1,.69.39,1.39,0a5.53,5.53,0,0,0,.63-.5A1.88,1.88,0,0,0,346.66,73.92Z"/>
      <path class="cls-1" d="M361.12,50.65c-.47.62-.36.74-.16.76s.38,0,.49,0c.32.2,1.07-.26,1.6-.56a4.44,4.44,0,0,0,1.56-1.47,2.85,2.85,0,0,1,.34-.37c.37-.31.46-.53.41-.63a.26.26,0,0,0-.33-.13c-.72.17-2,1.17-2.61,1.18C362.16,49.48,361.56,50.06,361.12,50.65Z"/>
      <path class="cls-1" d="M355.92,60.07a7.69,7.69,0,0,0-1.34.79c-.38.27-.84.74-1.27,1.14s-.91.5-.81.16-.06-.37-.51.16c-.62.72-.88,1.42-.67,1.56s.53.08,1-.21,1.14-.63,1.75-1a10.64,10.64,0,0,0,1.63-1.77C356.11,60.31,356.26,59.92,355.92,60.07Z"/>
      <path class="cls-1" d="M373.85,38.77c-.06,0-.06-.13-.18-.08a7.4,7.4,0,0,0-.88.5c-.43.28-.66.35-.64.09,0-.1-.14-.07-.21-.1a1.85,1.85,0,0,0-.75.75,1.77,1.77,0,0,0-.14.5,6.06,6.06,0,0,0,0,.84s.12,0,.21-.08l.87-.65a2.83,2.83,0,0,0,.79-.81,4.79,4.79,0,0,1,.49-.54Z"/>
      <path class="cls-1" d="M382.93,30.12a6.34,6.34,0,0,0-.74.39c-.27.16-.57.38-.86.57s-.51.16-.79.28a6,6,0,0,0-.57.38c0,.08-.09.24,0,.22.28-.07.36,0,0,.4,0,0,.06.06.15,0,.37-.21.76-.44,1.15-.69a2.43,2.43,0,0,0,.37-.29,2.35,2.35,0,0,1,.93-.81,2.28,2.28,0,0,0,.41-.35C383.06,30.14,383,30.08,382.93,30.12Z"/>
      <path class="cls-1" d="M390,23.51a3.89,3.89,0,0,0-1.08.84,1.75,1.75,0,0,0-.43.67c0,.14.2.13.33.19l.62-.52c.59-.52.48-.66.7-1C390.23,23.55,390.15,23.44,390,23.51Z"/>
      <path class="cls-1" d="M414.18,8.61c0-.06,0-.15-.1-.17a.44.44,0,0,0-.17,0h0c.23-.18-.09-.36-.52-.21a4,4,0,0,0-1.34.85s-.29.25-.23.25a4.6,4.6,0,0,0,.78-.17l.22-.1a2.27,2.27,0,0,0-.4.55c0,.19.36,0,1-.34S414.25,8.75,414.18,8.61Z"/>
      <path class="cls-1" d="M401.46,15.61s0-.13-.09-.14a.71.71,0,0,0-.39.11c-.27.16-.57.38-.81.54a3.94,3.94,0,0,0-.51.66c0,.18.36,0,1.05-.47S401.52,15.72,401.46,15.61Z"/>
      <path class="cls-1" d="M424.7,2.58a3.86,3.86,0,0,0-1.35.59c-.47.35.09.19.31.18a2.62,2.62,0,0,0,1.09-.49C425.15,2.58,425.08,2.5,424.7,2.58Z"/>
      <path class="cls-1" d="M343.14,127.67c0,1.25.72.18,1.39-.56.16-.18.38-.54.58-.84a3.1,3.1,0,0,0,.35-.56c.33-.77.62-1.58.91-2.38.21-.55.2-.69.13-.85-.23-.53-.88.55-1.34,1a6,6,0,0,0-.6.82c-.23.33-.47.77-.66,1s-.18-.19.06-1c.12-.39.28-.73.42-1.11s.18-.68,0-.56a2.59,2.59,0,0,0-.25.33l-.3.6a7.75,7.75,0,0,0-.68,2.37A3.32,3.32,0,0,0,343.14,127.67Z"/>
      <path class="cls-1" d="M359.64,92.19a6.15,6.15,0,0,0,1.59-2.26,3.94,3.94,0,0,1,.34-.55c.39-.49.44-.79.37-.89a.3.3,0,0,0-.42-.07c-.83.41-2.13,2-2.9,2.21-.32.08-.92,1-1.34,1.83s-.29,1,0,1,.45-.15.6-.09C358.25,93.49,359.06,92.71,359.64,92.19Z"/>
      <path class="cls-1" d="M348.54,111.83c.27.11.62-.09,1.08-.6s1.18-1.15,1.82-1.76a15.5,15.5,0,0,0,1.52-2.7c.38-.91.47-1.44.11-1.14a10.34,10.34,0,0,0-1.4,1.4c-.38.46-.82,1.18-1.23,1.81s-.95.92-.9.47-.14-.44-.56.37C348.39,110.77,348.28,111.73,348.54,111.83Z"/>
      <path class="cls-1" d="M370.44,74.25c-.08,0-.1-.15-.24-.05a9.91,9.91,0,0,0-1,.84c-.48.46-.75.6-.77.28,0-.13-.18,0-.28-.07a2.53,2.53,0,0,0-.78,1.13,2.33,2.33,0,0,0-.08.66,7.61,7.61,0,0,0,.16,1s.14,0,.24-.15l.94-1a3.86,3.86,0,0,0,.82-1.21,6.55,6.55,0,0,1,.5-.79Z"/>
      <path class="cls-1" d="M379.27,62c-.31.27-.65.61-1,.91s-.61.32-.93.54a8,8,0,0,0-.64.6c0,.1-.07.32,0,.27.33-.15.45-.1.1.5,0,.07.08.06.19,0,.42-.35.87-.73,1.31-1.12a3.26,3.26,0,0,0,.41-.45,3.15,3.15,0,0,1,1-1.22,3.06,3.06,0,0,0,.44-.54c.05-.12,0-.19-.11-.12A8.42,8.42,0,0,0,379.27,62Z"/>
      <path class="cls-1" d="M387.78,51.47a5.14,5.14,0,0,0-1.2,1.28,2.3,2.3,0,0,0-.42.94c0,.18.27.12.45.17l.69-.79a3.43,3.43,0,0,0,.71-1.38C388.11,51.46,388,51.33,387.78,51.47Z"/>
      <path class="cls-1" d="M413.38,29c0,.06-.33.37-.25.35a6.09,6.09,0,0,0,1-.36,13.08,13.08,0,0,0,1.56-1.14c.26-.27-.17-.42-.69-.16A5.37,5.37,0,0,0,413.38,29Z"/>
      <path class="cls-1" d="M400.95,39.2c0-.06,0-.17-.14-.17a.92.92,0,0,0-.48.21c-.31.25-.66.59-.94.84a5.11,5.11,0,0,0-.53.93c0,.23.45-.11,1.26-.79S401.05,39.34,400.95,39.2Z"/>
      <path class="cls-1" d="M428.54,18.71a5.81,5.81,0,0,0-1.64,1c-.56.51.13.19.4.14a3.92,3.92,0,0,0,1.32-.8C429.1,18.61,429,18.54,428.54,18.71Z"/>
      <path class="cls-1" d="M365.81,158.24c-.08,1.4.75.28,1.61-.45.21-.18.5-.55.77-.85a2.59,2.59,0,0,0,.46-.58l1.23-2.56c.28-.6.28-.75.22-.94-.21-.61-1,.52-1.62.93a6.68,6.68,0,0,0-.77.85c-.29.34-.62.8-.87,1s-.19-.24.17-1c.18-.41.39-.78.58-1.18s.27-.73.1-.61a2.81,2.81,0,0,0-.32.34l-.4.64a7.18,7.18,0,0,0-1,2.54A3.94,3.94,0,0,0,365.81,158.24Z"/>
      <path class="cls-1" d="M383.44,121c.2,0,.46-.19.61-.14.42.14,1.27-.76,1.88-1.37a7.75,7.75,0,0,0,1.7-2.57,5,5,0,0,1,.36-.62c.41-.57.48-.89.41-1s-.22-.17-.43,0c-.86.51-2.24,2.33-3,2.6a5.4,5.4,0,0,0-1.42,2.07C383,120.89,383.19,121,383.44,121Z"/>
      <path class="cls-1" d="M373.21,141.16c.28.13.68-.07,1.22-.61s1.34-1.24,2-1.9a18.1,18.1,0,0,0,1.77-3c.45-1,.58-1.59.18-1.26a12.69,12.69,0,0,0-1.56,1.54c-.43.5-.94,1.29-1.42,2s-1.07,1-1,.49-.12-.49-.62.39C373.17,140,372.93,141,373.21,141.16Z"/>
      <path class="cls-1" d="M394.45,103.28l1-1.23a4.84,4.84,0,0,0,.82-1.41,8.2,8.2,0,0,1,.5-.92l.47-.76c-.08,0-.11-.15-.25,0a12.19,12.19,0,0,0-1,1c-.48.55-.76.74-.78.39,0-.14-.18,0-.28,0a3.14,3.14,0,0,0-.78,1.31,2.73,2.73,0,0,0-.07.72,8.43,8.43,0,0,0,.17,1.11S394.35,103.4,394.45,103.28Z"/>
      <path class="cls-1" d="M403.4,87.34c.33-.22.46-.18.13.52,0,.07.09.05.2-.05.42-.44.85-.93,1.28-1.42a4.05,4.05,0,0,0,.39-.55,3.9,3.9,0,0,1,1-1.48,3.79,3.79,0,0,0,.43-.65c0-.14,0-.2-.12-.11a10.28,10.28,0,0,0-.84.85c-.3.34-.63.76-.94,1.14s-.61.44-.93.73c-.16.14-.41.49-.62.75C403.35,87.16,403.29,87.41,403.4,87.34Z"/>
      <path class="cls-1" d="M414.06,71.89c.1-.26,0-.37-.26-.19a6.24,6.24,0,0,0-1.13,1.6,2.73,2.73,0,0,0-.35,1.08c0,.19.3.07.49.09l.65-1A4,4,0,0,0,414.06,71.89Z"/>
      <path class="cls-1" d="M436.92,42.21a6.93,6.93,0,0,0,.95-.64,11.77,11.77,0,0,0,1.4-1.64c.21-.36-.29-.41-.78,0a6.42,6.42,0,0,0-1.38,1.82C437.08,41.84,436.84,42.25,436.92,42.21Z"/>
      <path class="cls-1" d="M426,55.78c-.06-.05-.07-.17-.18-.14a1,1,0,0,0-.48.33c-.29.34-.6.78-.85,1.11a6,6,0,0,0-.41,1.11c0,.26.46-.23,1.21-1.13S426.1,55.9,426,55.78Z"/>
      <path class="cls-1" d="M386.56,163.07a1.8,1.8,0,0,0,.37-.46l.92-2.07c.22-.48.2-.61.12-.77-.26-.52-1,.37-1.48.68a4.84,4.84,0,0,0-.67.66,8.41,8.41,0,0,1-.77.79c-.26.19-.21-.21.08-.86.15-.33.32-.62.48-.94s.21-.59,0-.5a2.05,2.05,0,0,0-.28.26l-.34.5a5,5,0,0,0-.82,2,2.3,2.3,0,0,0,0,1.58c.1,1.17.91.33,1.68-.23A6.46,6.46,0,0,0,386.56,163.07Z"/>
      <path class="cls-1" d="M401.85,130.45c.34-.45.38-.71.3-.8a.29.29,0,0,0-.39-.06c-.75.38-1.89,1.81-2.59,2-.29.07-.81.87-1.16,1.64s-.23.91,0,.89.41-.13.55-.08c.4.14,1.11-.56,1.62-1a5.25,5.25,0,0,0,1.38-2A3.37,3.37,0,0,1,401.85,130.45Z"/>
      <path class="cls-1" d="M394.28,146c.35-.8.42-1.28.08-1a9,9,0,0,0-1.34,1.19c-.36.39-.78,1-1.18,1.56s-.93.76-.89.35-.15-.41-.55.29c-.54.94-.7,1.78-.42,1.9s.63,0,1.1-.44,1.16-1,1.78-1.46A11.89,11.89,0,0,0,394.28,146Z"/>
      <path class="cls-1" d="M406.89,120l.78-1a4.55,4.55,0,0,0,.41-.58,1.11,1.11,0,0,0,.18-.2,1.68,1.68,0,0,1,.82-.91,1.67,1.67,0,0,0,.36-.4c0-.1,0-.17-.12-.13a4.65,4.65,0,0,0-.56.31l.35-.56c-.07,0-.1-.13-.22,0a8.71,8.71,0,0,0-.84.8c-.4.43-.63.57-.67.28,0-.11-.17,0-.25,0a2.33,2.33,0,0,0-.61,1l-.08.07c0,.07,0,.21,0,.24a1.62,1.62,0,0,0,0,.35,7,7,0,0,0,.21.93S406.81,120.14,406.89,120Z"/>
      <path class="cls-1" d="M414,107.1c0,.09,0,.29.06.24.28-.16.4-.12.14.44,0,.06.09.05.17,0,.35-.34.71-.72,1.07-1.1a2.79,2.79,0,0,0,.32-.43,2.69,2.69,0,0,1,.79-1.17,2.6,2.6,0,0,0,.34-.51c0-.11,0-.17-.11-.1a7.17,7.17,0,0,0-.7.65c-.25.26-.52.59-.78.89s-.52.33-.79.55A6.8,6.8,0,0,0,414,107.1Z"/>
      <path class="cls-1" d="M422.71,95.14c.07-.22-.05-.32-.23-.18a4.3,4.3,0,0,0-.92,1.26,2,2,0,0,0-.26.88c0,.16.27.08.43.11l.53-.77A2.9,2.9,0,0,0,422.71,95.14Z"/>
      <path class="cls-1" d="M441.53,71.93a5,5,0,0,0,.8-.46,8.4,8.4,0,0,0,1.16-1.27c.17-.29-.25-.37-.66-.05a4.53,4.53,0,0,0-1.14,1.42C441.65,71.63,441.45,72,441.53,71.93Z"/>
      <path class="cls-1" d="M431.91,82.6c-.24.26-.49.61-.7.87a4.32,4.32,0,0,0-.31.91c0,.22.4-.15,1-.85s.7-.91.58-1-.06-.15-.16-.14A.74.74,0,0,0,431.91,82.6Z"/>
      <path class="cls-1" d="M396.7,155.87c.21,0,.47-.06.63,0,.45.22,1.28-.39,1.89-.79a4.66,4.66,0,0,0,1.65-1.9,3,3,0,0,1,.35-.47c.4-.41.46-.68.38-.79a.37.37,0,0,0-.44-.14c-.86.26-2.22,1.56-3,1.62-.33,0-1,.77-1.39,1.52S396.44,155.86,396.7,155.87Z"/>
      <path class="cls-1" d="M387,171.58c.29.16.69.06,1.22-.32s1.33-.83,2-1.27a11.11,11.11,0,0,0,1.71-2.24c.43-.78.54-1.27.14-1.06a8.4,8.4,0,0,0-1.55,1,17.92,17.92,0,0,0-1.39,1.45c-.47.51-1.06.66-1,.24s-.15-.45-.62.23C386.89,170.56,386.69,171.41,387,171.58Z"/>
      <path class="cls-1" d="M409.07,140.71a4.94,4.94,0,0,1,.48-.7c.14-.19.3-.38.46-.57-.08,0-.11-.16-.25-.08a7.84,7.84,0,0,0-1,.69c-.47.38-.74.48-.77.17,0-.13-.19-.07-.29-.1a1.92,1.92,0,0,0-.75,1,2,2,0,0,0,0,.63,7.76,7.76,0,0,0,.21,1s.14,0,.24-.11l.92-.88A2.93,2.93,0,0,0,409.07,140.71Z"/>
      <path class="cls-1" d="M415.88,130.44c.32-.12.44-.06.14.5,0,.06.09.07.19,0,.4-.3.81-.64,1.22-1a2.49,2.49,0,0,0,.37-.41,2.41,2.41,0,0,1,.93-1.11,2.33,2.33,0,0,0,.4-.49c0-.11,0-.18-.12-.13a6.61,6.61,0,0,0-.8.57c-.29.23-.6.54-.9.81a9.65,9.65,0,0,0-.9.44,6.11,6.11,0,0,0-.59.53C415.83,130.27,415.78,130.48,415.88,130.44Z"/>
      <path class="cls-1" d="M425.92,118.91c.09-.22,0-.35-.25-.22a3.82,3.82,0,0,0-1.06,1.19,1.88,1.88,0,0,0-.31.9c0,.18.29.13.47.19.26-.31.44-.52.6-.73C425.92,119.5,425.74,119.33,425.92,118.91Z"/>
      <path class="cls-1" d="M446.49,96.38a4.89,4.89,0,0,0,.84-.43,7,7,0,0,0,1.2-1.28c.18-.3-.28-.4-.7-.09A4.66,4.66,0,0,0,446.65,96C446.62,96.08,446.41,96.41,446.49,96.38Z"/>
      <path class="cls-1" d="M435.07,108.57c0,.23.43-.11,1.1-.79s.77-.88.64-1-.07-.17-.17-.16a.77.77,0,0,0-.44.21c-.27.25-.55.58-.78.84A4.13,4.13,0,0,0,435.07,108.57Z"/>
      <path class="cls-1" d="M354.22,148.51a11.66,11.66,0,0,0,.94-.76,2.76,2.76,0,0,0,.57-.54l1.71-2.49c.4-.58.43-.74.4-.94-.1-.67-1.17.37-1.83.71a7.52,7.52,0,0,0-.95.75,13.35,13.35,0,0,1-1.09.91c-.34.21-.16-.28.38-1.06.27-.39.55-.74.83-1.13s.42-.71.22-.62a3.14,3.14,0,0,0-.39.3l-.53.59a7.87,7.87,0,0,0-1.55,2.45,3.86,3.86,0,0,0-.52,2C352.1,150.13,353.19,149.11,354.22,148.51Z"/>
      <path class="cls-1" d="M377.1,111.24c-.63,1-.51,1.13-.26,1.1s.48-.15.62-.09c.4.18,1.38-.68,2.08-1.25a9.39,9.39,0,0,0,2.11-2.51,5.84,5.84,0,0,1,.47-.61c.51-.54.63-.87.58-1s-.19-.19-.41-.08c-.95.45-2.64,2.19-3.45,2.41A6.2,6.2,0,0,0,377.1,111.24Z"/>
      <path class="cls-1" d="M363.15,132.08c.26.17.7,0,1.35-.47.8-.6,1.55-1.12,2.38-1.72a20.48,20.48,0,0,0,2.29-2.88c.63-1,.86-1.58.4-1.28a14.26,14.26,0,0,0-1.82,1.42c-.52.47-1.17,1.23-1.77,1.88s-1.24.9-1.08.39,0-.52-.69.33C363.33,130.89,362.88,131.9,363.15,132.08Z"/>
      <path class="cls-1" d="M394.07,90.84c-.07,0-.08-.16-.24,0a14.44,14.44,0,0,0-1.16,1c-.57.53-.87.7-.84.35,0-.14-.18,0-.27-.06a3.58,3.58,0,0,0-1,1.29,3.08,3.08,0,0,0-.18.73,8.89,8.89,0,0,0,0,1.15s.15-.06.27-.18l1.13-1.2a6.32,6.32,0,0,0,1-1.39,9.7,9.7,0,0,1,.65-.9Z"/>
      <path class="cls-1" d="M402.1,79.41c.36-.21.47-.16,0,.53,0,.07.08.06.2,0,.48-.43,1-.9,1.47-1.39a4.91,4.91,0,0,0,.47-.54,4.58,4.58,0,0,1,1.22-1.44,4.61,4.61,0,0,0,.53-.63c.07-.13,0-.2-.1-.11a12.46,12.46,0,0,0-1,.81c-.35.32-.76.72-1.12,1.1s-.66.42-1,.7c-.17.14-.48.48-.72.73C402.09,79.22,402,79.47,402.1,79.41Z"/>
      <path class="cls-1" d="M413.08,66.81c0,.19.27.08.45.11l.81-.94a4.91,4.91,0,0,0,.89-1.57c.14-.26,0-.37-.21-.19a7.8,7.8,0,0,0-1.4,1.53A3.23,3.23,0,0,0,413.08,66.81Z"/>
      <path class="cls-1" d="M446.31,34.39c.3-.33-.15-.38-.72,0A9.18,9.18,0,0,0,443.8,36c-.05.07-.38.45-.29.41.26-.1.65-.36,1-.57A14.4,14.4,0,0,0,446.31,34.39Z"/>
      <path class="cls-1" d="M427.58,51.3c0,.25.49-.21,1.39-1.06s1.06-1.1,1-1.22,0-.17-.13-.14a1.33,1.33,0,0,0-.52.31c-.35.32-.74.74-1.05,1.05A7.39,7.39,0,0,0,427.58,51.3Z"/>
      <path class="cls-1" d="M359.26,81.4c-.14,1.24.86.51,1.8.1a7,7,0,0,0,.83-.55,1.89,1.89,0,0,0,.49-.4l1.4-2c.33-.45.34-.59.29-.77-.17-.6-1.1.17-1.71.38a5,5,0,0,0-.84.54,9.07,9.07,0,0,1-1,.66c-.31.14-.18-.26.25-.88.22-.31.46-.58.69-.89s.33-.57.15-.52a2.14,2.14,0,0,0-.35.21l-.46.45a5.18,5.18,0,0,0-1.27,2A2.46,2.46,0,0,0,359.26,81.4Z"/>
      <path class="cls-1" d="M371.67,67.1A11.85,11.85,0,0,0,373.72,65c.55-.75.73-1.23.3-1.07a9.09,9.09,0,0,0-1.71.87,19.84,19.84,0,0,0-1.62,1.31c-.56.46-1.17.55-1,.13s-.08-.47-.66.16c-.8.84-1.11,1.71-.84,1.91s.69.15,1.28-.18C370.17,67.77,370.89,67.46,371.67,67.1Z"/>
      <path class="cls-1" d="M396.77,38.82c-.07,0-.07-.17-.22-.11a8.83,8.83,0,0,0-1.11.55c-.55.31-.83.38-.79.06,0-.12-.17-.1-.26-.14a2.18,2.18,0,0,0-1,.87,2.13,2.13,0,0,0-.19.61,7.43,7.43,0,0,0,0,1s.15,0,.26-.08l1.09-.74a3.33,3.33,0,0,0,1-.95,5.64,5.64,0,0,1,.62-.63C396.38,39.15,396.58,39,396.77,38.82Z"/>
      <path class="cls-1" d="M409.51,28c-.07-.06-.09-.17-.21-.15a4.51,4.51,0,0,0-.87.25c-.42.16-.65.15-.67-.12,0-.11-.16-.12-.24-.18-.38.16-.61.32-.69.58a1.54,1.54,0,0,0-.07.51,6.65,6.65,0,0,0,.1.72l-.55.33c-.36.1-.64.16-1,.29a7.21,7.21,0,0,0-.71.42c0,.09-.12.29,0,.26.34-.07.44,0,0,.5,0,.05.07.08.18,0,.47-.23,1-.49,1.44-.76a2.92,2.92,0,0,0,.47-.33,2.83,2.83,0,0,1,1.19-.92l.21-.15a1.36,1.36,0,0,0,.54-.52,2.54,2.54,0,0,1,.44-.43C409.23,28.16,409.37,28.06,409.51,28Z"/>
      <path class="cls-1" d="M447.15,4.69a5.55,5.55,0,0,0-1.72.89c-.05,0-.39.27-.31.26a6.23,6.23,0,0,0,.94-.18,14.65,14.65,0,0,0,1.67-.75C448,4.73,447.68,4.55,447.15,4.69Z"/>
      <path class="cls-1" d="M431.93,12.55c0-.06,0-.16-.09-.17a.9.9,0,0,0-.48.11c-.34.17-.72.41-1,.59a4.92,4.92,0,0,0-.68.74c-.07.2.44,0,1.31-.49S432,12.69,431.93,12.55Z"/>
      <path class="cls-1" d="M317.66,77.86a5.92,5.92,0,0,0,.83-.4,1.93,1.93,0,0,0,.5-.31l1.57-1.58c.37-.37.39-.49.37-.67-.09-.58-1.06,0-1.66.09a4.44,4.44,0,0,0-.85.38,8.69,8.69,0,0,1-1,.48c-.3.09-.14-.27.34-.78.24-.26.49-.48.74-.72s.37-.49.2-.46a1.9,1.9,0,0,0-.35.15l-.47.36a5.15,5.15,0,0,0-1.4,1.62,2.16,2.16,0,0,0-.5,1.48C315.7,78.62,316.76,78.12,317.66,77.86Z"/>
      <path class="cls-1" d="M338.32,54.09c.2.06.46.05.6.17.38.32,1.31-.07,2-.31a4.33,4.33,0,0,0,2-1.42,2.74,2.74,0,0,1,.43-.37c.47-.3.58-.54.52-.67a.39.39,0,0,0-.4-.24c-.88,0-2.45,1-3.23.83-.33-.06-1.08.51-1.63,1.12S338.07,54,338.32,54.09Z"/>
      <path class="cls-1" d="M325.7,66.59c.25.23.65.24,1.25,0s1.45-.45,2.23-.68a10.3,10.3,0,0,0,2.13-1.69c.58-.63.79-1.07.36-1a8,8,0,0,0-1.72.58,16.67,16.67,0,0,0-1.64,1c-.56.36-1.16.36-1,0s0-.46-.64.06C325.84,65.61,325.45,66.36,325.7,66.59Z"/>
      <path class="cls-1" d="M354.28,41.45c-.07-.05-.08-.18-.22-.14a7.22,7.22,0,0,0-1.07.43c-.53.26-.81.29-.78,0,0-.12-.17-.11-.26-.17a1.75,1.75,0,0,0-.91.78,2,2,0,0,0-.16.6,7.81,7.81,0,0,0,0,1s.14,0,.25-.05l1.05-.63a2.67,2.67,0,0,0,1-.85,4.5,4.5,0,0,1,.59-.56C353.9,41.73,354.09,41.59,354.28,41.45Z"/>
      <path class="cls-1" d="M365.11,32.34a6,6,0,0,0-.89.36c-.32.16-.68.38-1,.57a8.91,8.91,0,0,0-1,.21,5.5,5.5,0,0,0-.67.37c0,.1-.09.29,0,.28.33,0,.44.05,0,.52,0,0,.08.09.19,0,.44-.2.9-.42,1.37-.66a2.23,2.23,0,0,0,.43-.3,2.17,2.17,0,0,1,1.1-.86,2.09,2.09,0,0,0,.48-.38C365.26,32.4,365.22,32.31,365.11,32.34Z"/>
      <path class="cls-1" d="M373.23,25.1A3.49,3.49,0,0,0,372,26a1.74,1.74,0,0,0-.47.8c0,.19.26.2.42.31.31-.24.53-.4.72-.56.67-.57.53-.78.77-1.15C373.56,25.19,373.45,25,373.23,25.1Z"/>
      <path class="cls-1" d="M399.64,7.83a4,4,0,0,0-1.48,1c0,.05-.31.31-.24.31a4.49,4.49,0,0,0,.9-.17,7,7,0,0,0,1.45-.86C400.52,7.9,400.12,7.66,399.64,7.83Z"/>
      <path class="cls-1" d="M386.34,16.43c0-.07,0-.18-.13-.21a.69.69,0,0,0-.47.08c-.31.17-.64.42-.92.61a3.82,3.82,0,0,0-.53.81c0,.23.44,0,1.22-.46S386.44,16.6,386.34,16.43Z"/>
      <path class="cls-1" d="M412.11,1a4.63,4.63,0,0,0-1.49.72c-.51.41.12.2.35.17a3.11,3.11,0,0,0,1.2-.61C412.61,1,412.54.94,412.11,1Z"/>
      <path class="cls-1" d="M374.06,83.44c-.58.78-.48.91-.25.92s.43-.07.56,0c.35.2,1.24-.42,1.88-.83a6.57,6.57,0,0,0,1.92-1.91,4.24,4.24,0,0,1,.42-.47c.45-.41.57-.68.52-.79s-.17-.19-.37-.12c-.84.28-2.36,1.6-3.09,1.68C375.34,81.95,374.61,82.7,374.06,83.44Z"/>
      <path class="cls-1" d="M362.34,97.92c-.79.89-1.2,1.72-1,1.89s.59.07,1.16-.29,1.38-.81,2.11-1.24a15.8,15.8,0,0,0,2.08-2.21c.58-.77.79-1.25.39-1a10.82,10.82,0,0,0-1.63,1c-.46.35-1.05.93-1.59,1.42s-1.1.65-.94.23S362.93,97.26,362.34,97.92Z"/>
      <path class="cls-1" d="M389.42,67.8c-.07,0-.07-.15-.21-.06a10.48,10.48,0,0,0-1,.72c-.51.4-.78.51-.75.2,0-.12-.16-.06-.24-.08a2.68,2.68,0,0,0-.89,1,2.37,2.37,0,0,0-.17.61,7.45,7.45,0,0,0,0,1s.14,0,.24-.12l1-.9a4.13,4.13,0,0,0,.94-1.08,7,7,0,0,1,.58-.71Z"/>
      <path class="cls-1" d="M396.6,58.52c0,.09-.1.3,0,.25.32-.14.43-.08,0,.47,0,.06.07.06.18,0,.43-.32.88-.67,1.33-1a3.49,3.49,0,0,0,.42-.42,3.36,3.36,0,0,1,1.07-1.13,3.27,3.27,0,0,0,.47-.49c.06-.11,0-.18-.09-.11a8.89,8.89,0,0,0-.86.6c-.31.24-.66.56-1,.84s-.6.29-.92.48A8.44,8.44,0,0,0,396.6,58.52Z"/>
      <path class="cls-1" d="M408,46.85a5.38,5.38,0,0,0-1.22,1.21,2.37,2.37,0,0,0-.46.88c0,.17.25.11.41.15l.7-.74a3.6,3.6,0,0,0,.76-1.3C408.28,46.84,408.18,46.73,408,46.85Z"/>
      <path class="cls-1" d="M432,24.45a6.27,6.27,0,0,0,.9-.44,10.16,10.16,0,0,0,1.41-1.25c.23-.29-.19-.38-.66-.07a5.94,5.94,0,0,0-1.42,1.4C432.16,24.16,431.9,24.48,432,24.45Z"/>
      <path class="cls-1" d="M420.73,34.8c0-.05,0-.15-.13-.14a1,1,0,0,0-.46.22c-.3.25-.63.59-.89.84a5.3,5.3,0,0,0-.51.9c0,.22.43-.14,1.19-.82S420.83,34.92,420.73,34.8Z"/>
      <path class="cls-1" d="M444.28,13.59c-.48.55.14.15.38.05a4.27,4.27,0,0,0,1.17-.94c.41-.44.33-.49-.1-.26A6.34,6.34,0,0,0,444.28,13.59Z"/>
      <path class="cls-1" d="M374.58,164.17c.17,1,.78.2,1.44-.29a7.2,7.2,0,0,0,.57-.57,1.56,1.56,0,0,0,.33-.39c.28-.56.55-1.15.85-1.7.21-.39.2-.5.12-.64-.26-.47-1,.22-1.44.47a3.27,3.27,0,0,0-.62.55,8.52,8.52,0,0,1-.68.69c-.22.17-.21-.18,0-.77.11-.3.27-.55.41-.83s.17-.52,0-.45a1.6,1.6,0,0,0-.26.22l-.3.44a3.66,3.66,0,0,0-.62,1.85A2.12,2.12,0,0,0,374.58,164.17Z"/>
      <path class="cls-1" d="M380.17,152.46c.27.17.64.12,1.14-.14s1.22-.59,1.88-.89a8.39,8.39,0,0,0,1.61-1.77c.41-.64.52-1,.15-.91a7,7,0,0,0-1.46.72,13.1,13.1,0,0,0-1.3,1.11c-.44.39-1,.47-.93.1s-.13-.41-.57.14C380.11,151.57,379.89,152.29,380.17,152.46Z"/>
      <path class="cls-1" d="M398.52,128.17a7.44,7.44,0,0,0,.22,1s.13,0,.22-.08l.83-.69a2.16,2.16,0,0,0,.7-.88,3.65,3.65,0,0,1,.42-.58c.13-.16.27-.31.41-.47-.07,0-.11-.15-.23-.1a6,6,0,0,0-.89.52c-.43.3-.67.36-.71.07,0-.11-.17-.08-.27-.12-.39.29-.61.51-.67.82A1.74,1.74,0,0,0,398.52,128.17Z"/>
      <path class="cls-1" d="M414,111c0,.17.28.16.45.23.23-.26.4-.43.54-.6.49-.6.32-.77.46-1.15.07-.19-.06-.33-.24-.24a2.78,2.78,0,0,0-.95,1A1.46,1.46,0,0,0,414,111Z"/>
      <path class="cls-1" d="M434.1,91.57a3.59,3.59,0,0,0,.8-.23,4.41,4.41,0,0,0,1.11-1c.16-.25-.29-.46-.68-.25a3.12,3.12,0,0,0-1.09,1.15C434.21,91.3,434,91.57,434.1,91.57Z"/>
      <path class="cls-1" d="M424.66,99.68a9.56,9.56,0,0,0-.71.66,3,3,0,0,0-.3.82c0,.23.4,0,1-.56s.7-.7.57-.85-.07-.17-.17-.19A.59.59,0,0,0,424.66,99.68Z"/>
      <path class="cls-1" d="M444.19,83.15a1.91,1.91,0,0,0,.95-.71c.3-.38.2-.47-.17-.34a2.81,2.81,0,0,0-1.18.86C443.44,83.45,444,83.19,444.19,83.15Z"/>
      <path class="cls-1" d="M376,194c0,1,.83.43,1.54.12a4.27,4.27,0,0,0,.61-.42,1.35,1.35,0,0,0,.35-.31l1-1.46c.23-.34.22-.44.15-.59-.22-.47-.91.11-1.39.26a3.3,3.3,0,0,0-.64.4,6.28,6.28,0,0,1-.72.5c-.24.1-.18-.2.1-.67.14-.24.31-.44.46-.67s.21-.44.06-.39a1.42,1.42,0,0,0-.27.16l-.32.34a3.49,3.49,0,0,0-.83,1.48A1.59,1.59,0,0,0,376,194Z"/>
      <path class="cls-1" d="M380.17,185.14c0,1.2.89.38,1.7-.13a6.7,6.7,0,0,0,.71-.64,2,2,0,0,0,.41-.45l0-.08c.53-.25,1-.46,1.6-.71a6.87,6.87,0,0,0,1.42-1.6c.35-.58.42-1,.08-.84a5.22,5.22,0,0,0-2.06,1.26l0-.05c.26-.47.26-.6.19-.77-.23-.55-1,.3-1.57.58a4.78,4.78,0,0,0-.73.62,9.19,9.19,0,0,1-.83.76c-.27.17-.2-.22.13-.87.17-.33.36-.61.54-.93s.24-.59.08-.51a2,2,0,0,0-.3.25l-.37.49a5.4,5.4,0,0,0-1,2A2.36,2.36,0,0,0,380.17,185.14Z"/>
      <path class="cls-1" d="M397.92,162.11a7.09,7.09,0,0,0,.24.89s.12,0,.2-.06l.76-.6a1.77,1.77,0,0,0,.63-.78,3,3,0,0,1,.38-.52c.11-.14.24-.28.37-.41-.07,0-.11-.15-.22-.1a5.05,5.05,0,0,0-.82.44c-.39.25-.62.3-.67,0,0-.11-.17-.09-.26-.12-.36.25-.56.45-.6.72A1.56,1.56,0,0,0,397.92,162.11Z"/>
      <path class="cls-1" d="M405.06,153.67c0,.08,0,.25.07.24.28-.05.39,0,.15.44,0,0,.09.07.17,0,.33-.19.68-.41,1-.64a1.46,1.46,0,0,0,.3-.29,1.43,1.43,0,0,1,.75-.8,1.36,1.36,0,0,0,.33-.35c0-.09,0-.16-.12-.13a4.09,4.09,0,0,0-.68.36c-.24.15-.5.36-.75.54a6.51,6.51,0,0,0-.76.24A3.67,3.67,0,0,0,405.06,153.67Z"/>
      <path class="cls-1" d="M412,147c0,.16.26.17.42.25.21-.22.36-.37.49-.52.45-.53.29-.7.41-1,.07-.17-.06-.31-.23-.24a2.27,2.27,0,0,0-.87.84A1.28,1.28,0,0,0,412,147Z"/>
      <path class="cls-1" d="M432.53,129.51c.15-.22-.25-.46-.63-.31s-.71.56-1,1c0,.05-.2.29-.13.3a3.08,3.08,0,0,0,.74-.15A4.11,4.11,0,0,0,432.53,129.51Z"/>
      <path class="cls-1" d="M420.95,138.53c0,.21.37,0,.94-.45s.65-.61.53-.76-.06-.16-.15-.18a.5.5,0,0,0-.38.08,8,8,0,0,0-.65.57A2.76,2.76,0,0,0,420.95,138.53Z"/>
      <path class="cls-1" d="M440.31,123.66a1.66,1.66,0,0,0,.89-.57c.29-.32.21-.41-.13-.32a2.46,2.46,0,0,0-1.12.68C439.61,123.86,440.1,123.67,440.31,123.66Z"/>
      <path class="cls-1" d="M404.95,189.26c.13.89.88.41,1.56.12a3.54,3.54,0,0,0,.56-.4,1.12,1.12,0,0,0,.32-.29c.27-.45.53-.93.79-1.39s.17-.42.1-.55c-.25-.43-.86.12-1.32.26a3,3,0,0,0-.59.38,5.27,5.27,0,0,1-.67.46c-.23.1-.2-.19,0-.63.12-.22.27-.41.41-.63s.17-.41,0-.37a1.31,1.31,0,0,0-.25.15l-.29.32a2.9,2.9,0,0,0-.71,1.37C404.65,188.86,404.9,188.93,404.95,189.26Z"/>
      <path class="cls-1" d="M416.43,169.06a1.78,1.78,0,0,1,.52.06c.39.2,1-.19,1.49-.44a2.55,2.55,0,0,0,1.18-1.29,1.56,1.56,0,0,1,.24-.33c.29-.27.31-.47.23-.56a.41.41,0,0,0-.38-.15c-.7.12-1.69,1-2.35,1-.28,0-.72.51-1,1S416.21,169,416.43,169.06Z"/>
      <path class="cls-1" d="M409.8,180a1,1,0,0,0,1-.13c.52-.28,1-.51,1.58-.78a6.13,6.13,0,0,0,1.23-1.52c.29-.55.34-.89,0-.77a5.46,5.46,0,0,0-1.2.64,10.36,10.36,0,0,0-1,1c-.35.34-.82.41-.81.1s-.16-.34-.49.12C409.64,179.2,409.54,179.81,409.8,180Z"/>
      <path class="cls-1" d="M423.29,158.68a1.46,1.46,0,0,0,0,.49,7,7,0,0,0,.31.83s.12,0,.19-.06l.67-.58a1.5,1.5,0,0,0,.53-.75,2.52,2.52,0,0,1,.31-.5c.1-.14.21-.26.31-.4-.07,0-.12-.14-.22-.09a4.39,4.39,0,0,0-.74.43c-.35.25-.57.3-.64,0,0-.1-.17-.08-.26-.11C423.48,158.23,423.3,158.42,423.29,158.68Z"/>
      <path class="cls-1" d="M429.31,151.05c0,.08,0,.24.09.22.26-.06.37,0,.19.42,0,0,.09.07.16,0,.3-.19.6-.41.91-.63a1.22,1.22,0,0,0,.26-.28,1.2,1.2,0,0,1,.63-.77,1.14,1.14,0,0,0,.27-.34c0-.09,0-.15-.12-.12a3.51,3.51,0,0,0-.61.35c-.21.15-.44.35-.66.53a5.78,5.78,0,0,0-.71.24A3.08,3.08,0,0,0,429.31,151.05Z"/>
      <path class="cls-1" d="M435.23,144.6c.06.16.27.15.44.23.18-.22.31-.36.41-.51.37-.51.19-.68.28-1a.18.18,0,0,0-.25-.23,1.88,1.88,0,0,0-.74.82A1.14,1.14,0,0,0,435.23,144.6Z"/>
      <path class="cls-1" d="M442.79,136.25c0,.2.36,0,.85-.45s.54-.6.41-.75-.08-.16-.17-.18a.45.45,0,0,0-.36.09,6.46,6.46,0,0,0-.55.56A2.45,2.45,0,0,0,442.79,136.25Z"/>
      <path class="cls-1" d="M380,143.29a2.43,2.43,0,0,0,.45-.4l1.42-1.83c.32-.43.34-.56.3-.73-.11-.54-1,.22-1.52.44a4.87,4.87,0,0,0-.76.54c-.29.22-.63.53-.86.66s-.13-.23.27-.82c.2-.3.43-.56.64-.85s.32-.55.15-.48a2.07,2.07,0,0,0-.31.21l-.41.44a6.47,6.47,0,0,0-1.19,1.87,2.66,2.66,0,0,0-.41,1.52c-.23,1.14.68.42,1.49,0A7.66,7.66,0,0,0,380,143.29Z"/>
      <path class="cls-1" d="M386.13,131.33c.22.15.59.05,1.11-.3s1.25-.81,1.92-1.24a13.69,13.69,0,0,0,1.8-2.17c.48-.75.65-1.21.28-1a9.87,9.87,0,0,0-1.48,1c-.41.34-.93.91-1.4,1.4s-1,.64-.89.25-.06-.42-.56.23C386.23,130.39,385.9,131.17,386.13,131.33Z"/>
      <path class="cls-1" d="M422.9,80.42c0,.16.25.08.42.11l.56-.76a2.13,2.13,0,0,0,.43-.93,1.36,1.36,0,0,0,.11-.41v-.11a1.38,1.38,0,0,1,.06-.31c.07-.22-.07-.35-.27-.23a3.43,3.43,0,0,0-1,1.16,1.71,1.71,0,0,0-.25.89.15.15,0,0,0,.05.08A1.28,1.28,0,0,0,422.9,80.42Z"/>
      <path class="cls-1" d="M443.49,54.81a5.43,5.43,0,0,0,.78-.5A8.7,8.7,0,0,0,445.41,53c.17-.29-.24-.34-.64,0a5.1,5.1,0,0,0-1.13,1.47C443.61,54.52,443.42,54.85,443.49,54.81Z"/>
      <path class="cls-1" d="M432.83,67.6c0,.21.39-.17,1-.88s.72-.92.6-1-.06-.14-.15-.13a.84.84,0,0,0-.41.25c-.25.26-.5.62-.72.88A4.59,4.59,0,0,0,432.83,67.6Z"/>
      <path class="cls-1" d="M326.12,38.26a10.7,10.7,0,0,0,1.15-.48,3.66,3.66,0,0,0,.72-.37c.84-.6,1.68-1.26,2.5-1.9.58-.44.66-.59.71-.8.14-.67-1.23,0-2,.16a8.24,8.24,0,0,0-1.17.45c-.45.19-1,.48-1.36.57s-.05-.31.73-.92c.39-.31.79-.56,1.19-.85s.65-.56.43-.53a3.45,3.45,0,0,0-.48.17l-.72.41a10,10,0,0,0-2.35,1.91,3.7,3.7,0,0,0-1.2,1.75C323.5,39.2,324.92,38.54,326.12,38.26Z"/>
      <path class="cls-1" d="M369.23,8.5c0-.13-.08-.22-.32-.19-1,.12-3.34,1.13-4.17,1.06a7.63,7.63,0,0,0-2.5,1.21c-1,.67-1,.82-.74.88s.5,0,.6.12c.27.28,1.54-.16,2.44-.45a10.93,10.93,0,0,0,3-1.54,7.23,7.23,0,0,1,.7-.39C369,8.87,369.22,8.62,369.23,8.5Z"/>
      <path class="cls-1" d="M348.16,22.34c1-.72,1.43-1.19.9-1.06a16.34,16.34,0,0,0-2.26.75c-.67.27-1.58.78-2.4,1.19s-1.52.45-1.16,0,.18-.49-.77.1c-1.29.77-2.09,1.62-1.92,1.86s.64.22,1.42-.06c1-.31,1.9-.56,2.9-.86A23.45,23.45,0,0,0,348.16,22.34Z"/>
    </g>
  </g>
</svg>
