<svg xmlns="http://www.w3.org/2000/svg" viewBox="0 0 200 200">
  <defs>
    <style>
      .cls-1 {
        fill: #a1d5da;
      }
    </style>
  </defs>
  <title>classic_theme</title>
  <g id="Layer_2" data-name="Layer 2">
    <g id="Layer_1-2" data-name="Layer 1">
      <rect class="cls-1" width="200" height="200"/>
      <g>
        <path d="M38.51,97.52c1.72,3.44-1.56,7.79-3.2,12.22-.33,1-.66,1.23-1.72.66-2-1-3.12-3.44-2-7.13.9-3,3.36-6.48,2.21-7.38-1.39-1.15-7.54,4.1-11.23,11.56-4.51,9.27-2.79,16.07,2,16.15,6.89.08,12.79-6.48,16.15-11.64.41-.66,1.15-.74,1.48.08.25.66-.08,2.71-1.48,4.92-3.12,4.84-9.59,8.86-15.83,8.94-10.41.16-13.94-10-8.61-20.58C21.62,95,29.9,90.55,34,93A10.85,10.85,0,0,1,38.51,97.52Z"/>
        <path d="M46.79,123.43c3.94.33,9.68-5.58,12.87-11.89.57-1.07,1.48-1.15,1.8,0a7.55,7.55,0,0,1-.82,5.08c-1.15,2.46-7.13,9.27-13.69,9.1-5.66-.16-8.69-4.1-6.81-13,3-14.27,12.38-29.11,20.75-37.8,1.23-1.31,2.38-1.48,3.53-.41,2.38,2.13,2.87,5.17,1.89,9-2.54,10.09-11.73,19.93-19,24.68C44,116.29,43.1,123.1,46.79,123.43ZM63.52,81.85c-1.07-.66-7.13,8.45-12.79,18.94q-1.11,2-2,3.94C60,95.63,64.58,82.51,63.52,81.85Z"/>
        <path d="M87.62,93q1.11-1.6,2-.49c1.23,1.48,1.89,5-.08,9.1-1.8,3.69-5.9,9.84-7.87,14.19-2,4.59-2.13,8.12.66,8,3.36-.16,7.87-5.74,10.74-11.4.41-.74,1-.82,1.31-.08a7.36,7.36,0,0,1-.74,5.08c-2.13,4.51-7.3,9-11.81,8.77s-6.72-2.87-6.72-6.72c-2.62,3.36-6.31,6.4-10.25,6.4-7.63,0-9.18-10.41-2.38-20.34C69.09,95.79,75.57,92.1,79.67,92.1c3.53,0,5.17,2.71,5,5.9A58,58,0,0,1,87.62,93Zm-6.56,3.36c-2.62-.25-8.61,5.08-13.12,12.38C63.6,115.8,62.53,123,65.73,123.1c3.36.08,7.63-5.17,11.81-12.38C82.7,101.7,83.44,96.61,81.06,96.37Z"/>
        <path d="M104.11,97.11c.41-3.2,1.23-4.76,3-6.31s3.69-2,4.43-1.23.41,1.72-.66,3.61c-.33.49-.57,1-.9,1.56-.57,7.54,1,13.94.74,19.6-.16,3.2-.74,6.64-3.69,8.61,5.49-2.05,8.94-7,11-11.4.41-.9,1.23-.66,1.56,0s.25,2.87-1.15,5.41a17.28,17.28,0,0,1-14.51,9c-4.76.16-9.35-1.07-12.14-6.15-2-3.69-1.72-9.1,1.07-11.4,1-.82,1.64-.49,1.72.82.08.66.08,1.31.16,2A162.24,162.24,0,0,0,104.11,97.11Zm-8.69,18.53c1.23,4.76,3.61,8.12,6.31,7.3,3.77-1.15,2.54-14,2.21-20.58A143.88,143.88,0,0,1,95.41,115.64Z"/>
        <path d="M128.87,97.11c.41-3.2,1.23-4.76,3-6.31s3.69-2,4.43-1.23.41,1.72-.66,3.61c-.33.49-.57,1-.9,1.56-.57,7.54,1,13.94.74,19.6-.16,3.2-.74,6.64-3.69,8.61,5.49-2.05,8.94-7,11-11.4.41-.9,1.23-.66,1.56,0s.25,2.87-1.15,5.41a17.28,17.28,0,0,1-14.51,9c-4.76.16-9.35-1.07-12.14-6.15-2-3.69-1.72-9.1,1.07-11.4,1-.82,1.64-.49,1.72.82.08.66.08,1.31.16,2A162.46,162.46,0,0,0,128.87,97.11Zm-8.69,18.53c1.23,4.76,3.61,8.12,6.31,7.3,3.77-1.15,2.54-14,2.21-20.58A144.07,144.07,0,0,1,120.18,115.64Z"/>
        <path d="M141.17,113.92c2-6,7.46-15.66,10.5-19.93.74-1,1.31-1.23,2-.49,1.23,1.31,1.89,4.84-.08,8.94-1.72,3.61-5.17,9.18-6.89,13.28-2,4.76-1.8,8,.82,7.79,3.69-.16,8.2-5.58,10.66-11.23.41-.74,1-.66,1.31,0,.66,1.31.41,3-.57,5.08-2.46,5.08-7.63,8.53-12.22,8.53C140.43,125.89,138.87,120.64,141.17,113.92Zm18.29-21.4c-1.07,1.15-3.36.9-4.59-1.23a5.09,5.09,0,0,1,.41-6.07c1.31-1.39,3.69-.41,4.76,1.8A5,5,0,0,1,159.45,92.51Z"/>
        <path d="M182.25,97.52c1.72,3.44-1.56,7.79-3.2,12.22-.33,1-.66,1.23-1.72.66-2-1-3.12-3.44-2-7.13.9-3,3.36-6.48,2.21-7.38-1.39-1.15-7.54,4.1-11.23,11.56-4.51,9.27-2.79,16.07,2,16.15,6.89.08,12.79-6.48,16.15-11.64.41-.66,1.15-.74,1.48.08.25.66-.08,2.71-1.48,4.92-3.12,4.84-9.59,8.86-15.83,8.94-10.41.16-13.94-10-8.61-20.58C165.36,95,173.64,90.55,177.74,93A10.85,10.85,0,0,1,182.25,97.52Z"/>
      </g>
    </g>
  </g>
</svg>
