<svg xmlns="http://www.w3.org/2000/svg" viewBox="0 0 200 200">
  <defs>
    <style>
      .cls-1 {
        fill: #D9ACA7;
      }
    </style>
  </defs>
  <title>modern_theme</title>
  <g id="Layer_2" data-name="Layer 2">
    <g id="Layer_1-2" data-name="Layer 1">
      <rect class="cls-1" width="200" height="200"/>
      <g>
        <path d="M17.06,88.91H24.4v3.53h.14a10.45,10.45,0,0,1,2.77-2.84,7.14,7.14,0,0,1,4.14-1.12,6.57,6.57,0,0,1,4,1.15A11.84,11.84,0,0,1,38,92.15a15.44,15.44,0,0,1,3-2.59,8.39,8.39,0,0,1,4.61-1.08,9.08,9.08,0,0,1,2.81.47A6.87,6.87,0,0,1,51,90.5a8.08,8.08,0,0,1,1.87,2.77,10.59,10.59,0,0,1,.72,4.14v28H46.29V100.14A4.89,4.89,0,0,0,45.35,97a3.24,3.24,0,0,0-2.66-1.15,3.1,3.1,0,0,0-2.88,1.3,7.23,7.23,0,0,0-.79,3.74v24.55H31.67V100.14A4.89,4.89,0,0,0,30.74,97a3.24,3.24,0,0,0-2.66-1.15,3.1,3.1,0,0,0-2.88,1.3,7.23,7.23,0,0,0-.79,3.74v24.55H17.06Z"/>
        <path d="M59,101.15a27,27,0,0,1,.29-4.1,9.68,9.68,0,0,1,4.82-7.13,12.53,12.53,0,0,1,11.66,0,9.87,9.87,0,0,1,3.74,3.82A10,10,0,0,1,80.63,97a27.17,27.17,0,0,1,.29,4.1v12a27.16,27.16,0,0,1-.29,4.1,10,10,0,0,1-1.08,3.31,9.86,9.86,0,0,1-3.74,3.82,12.53,12.53,0,0,1-11.66,0,9.68,9.68,0,0,1-4.82-7.13,27,27,0,0,1-.29-4.1Zm7.34,13.18a4.45,4.45,0,0,0,1,3.13,3.83,3.83,0,0,0,5.26,0,4.45,4.45,0,0,0,1-3.13V100a4.45,4.45,0,0,0-1-3.13,3.83,3.83,0,0,0-5.26,0,4.45,4.45,0,0,0-1,3.13Z"/>
        <path d="M100.94,122.1l-1.37,1.48a7.55,7.55,0,0,1-1.44,1.19,6.75,6.75,0,0,1-1.8.79,8.73,8.73,0,0,1-2.38.29q-4.54,0-6.41-3.46a9.74,9.74,0,0,1-.94-3,31.91,31.91,0,0,1-.29-4.82v-13.9a56.16,56.16,0,0,1,.22-5.83,7.24,7.24,0,0,1,.94-3,7.84,7.84,0,0,1,2.41-2.38A7.73,7.73,0,0,1,94,88.48a7.59,7.59,0,0,1,3.85,1,8.9,8.9,0,0,1,2.92,2.77h.14V74.15h7.34v51.26h-7.34Zm-7.27-8.57a6.66,6.66,0,0,0,.86,3.6,3,3,0,0,0,2.74,1.37,3.25,3.25,0,0,0,2.66-1.26,5.08,5.08,0,0,0,1-3.28V99.78a4,4,0,0,0-1-2.84,3.45,3.45,0,0,0-2.63-1.12,3,3,0,0,0-2.84,1.3,5.89,5.89,0,0,0-.76,3Z"/>
        <path d="M121,109.94v5a3.53,3.53,0,0,0,1,2.66,3.63,3.63,0,0,0,2.63.94,2.89,2.89,0,0,0,2.77-1.22,6.59,6.59,0,0,0,.83-2.45h7.34a12.2,12.2,0,0,1-.76,4.32,9.57,9.57,0,0,1-2.2,3.46,10.34,10.34,0,0,1-3.46,2.38,11.43,11.43,0,0,1-4.54.86,11.29,11.29,0,0,1-5.83-1.44,9.68,9.68,0,0,1-4.82-7.13,27,27,0,0,1-.29-4.1v-12A27,27,0,0,1,114,97a9.68,9.68,0,0,1,4.82-7.13,11.3,11.3,0,0,1,5.83-1.44,11.66,11.66,0,0,1,4.57.86,9.65,9.65,0,0,1,3.46,2.41,10.84,10.84,0,0,1,2.16,3.64,13,13,0,0,1,.76,4.46v10.08Zm0-5.76h7.2V100a4.45,4.45,0,0,0-1-3.13,3.83,3.83,0,0,0-5.26,0,4.45,4.45,0,0,0-1,3.13Z"/>
        <path d="M141,88.91h7.34V92.8a22.35,22.35,0,0,1,4.39-3.17A11.23,11.23,0,0,1,158,88.48v7.78a6,6,0,0,0-2.23-.43,8.79,8.79,0,0,0-2.48.4,6.82,6.82,0,0,0-2.45,1.33A7.15,7.15,0,0,0,149,100a8.68,8.68,0,0,0-.72,3.74v21.67H141Z"/>
        <path d="M161,88.91h7.34v3.53h.14a10.45,10.45,0,0,1,2.77-2.84,7.14,7.14,0,0,1,4.14-1.12,8.43,8.43,0,0,1,2.74.47,6.35,6.35,0,0,1,2.45,1.55,7.8,7.8,0,0,1,1.73,2.77,11.64,11.64,0,0,1,.65,4.14v28H175.6V100.14a4.89,4.89,0,0,0-.94-3.17A3.24,3.24,0,0,0,172,95.82a3.1,3.1,0,0,0-2.88,1.3,7.23,7.23,0,0,0-.79,3.74v24.55H161Z"/>
      </g>
    </g>
  </g>
</svg>
