<svg xmlns="http://www.w3.org/2000/svg" viewBox="0 0 200 200">
  <defs>
    <style>
      .cls-1 {
        fill: #a1d5da;
      }
    </style>
  </defs>
  <title>playful_theme</title>
  <g id="Layer_2" data-name="Layer 2">
    <g id="Layer_1-2" data-name="Layer 1">
      <rect class="cls-1" width="200" height="200"/>
      <g>
        <path d="M39.2,88.58a12.46,12.46,0,0,1,4.56,5,16.71,16.71,0,0,1,0,14.47,12.71,12.71,0,0,1-4.54,5A11.78,11.78,0,0,1,32.77,115,11.44,11.44,0,0,1,27,113.47a11.62,11.62,0,0,1-4.19-4v14.26a1.62,1.62,0,1,1-3.24,0V88.55a1.66,1.66,0,0,1,.46-1.19,1.63,1.63,0,0,1,2.32,0,1.67,1.67,0,0,1,.46,1.19v3.67a10.06,10.06,0,0,1,4-4,11.88,11.88,0,0,1,5.83-1.46A12,12,0,0,1,39.2,88.58ZM37.5,110.5a9.77,9.77,0,0,0,3.51-4,12.63,12.63,0,0,0,1.27-5.72A12.34,12.34,0,0,0,41,95.17a9.82,9.82,0,0,0-3.51-3.94,9.19,9.19,0,0,0-5-1.43,9.54,9.54,0,0,0-5.13,1.4,9.38,9.38,0,0,0-3.51,3.92,12.68,12.68,0,0,0-1.24,5.7,12.85,12.85,0,0,0,1.24,5.72,9.52,9.52,0,0,0,3.51,4,9.4,9.4,0,0,0,5.13,1.43A9.18,9.18,0,0,0,37.5,110.5Z"/>
        <path d="M55.21,114.12A1.62,1.62,0,0,1,52.43,113V76.24a1.62,1.62,0,1,1,3.24,0V113A1.58,1.58,0,0,1,55.21,114.12Z"/>
        <path d="M88.09,87.47a1.67,1.67,0,0,1,.46,1.19V113a1.62,1.62,0,1,1-3.24,0v-3.62a11.31,11.31,0,0,1-4.05,4.1,11,11,0,0,1-5.88,1.67,11.63,11.63,0,0,1-6.51-1.89A13,13,0,0,1,64.33,108a16.29,16.29,0,0,1-1.65-7.4,15.94,15.94,0,0,1,1.67-7.37,12.83,12.83,0,0,1,4.56-5.1,12.05,12.05,0,0,1,12.34-.27A10.32,10.32,0,0,1,85.31,92V88.66a1.66,1.66,0,0,1,.46-1.19,1.63,1.63,0,0,1,2.32,0Zm-7.34,23.14a10.08,10.08,0,0,0,3.51-4.1,13.26,13.26,0,0,0,1.27-5.86,12.84,12.84,0,0,0-1.27-5.72,10.13,10.13,0,0,0-3.51-4.08,8.94,8.94,0,0,0-5-1.48,9.06,9.06,0,0,0-5.05,1.46,9.94,9.94,0,0,0-3.51,4,12.92,12.92,0,0,0-1.27,5.8,13.47,13.47,0,0,0,1.24,5.86,9.85,9.85,0,0,0,3.48,4.1,9.42,9.42,0,0,0,10.15,0Z"/>
        <path d="M118.12,87a1.57,1.57,0,0,1,.46,1.16v23.81a14.85,14.85,0,0,1-1.67,7.29,11.18,11.18,0,0,1-4.64,4.59,14.14,14.14,0,0,1-6.7,1.57,17.69,17.69,0,0,1-4.24-.49,11.23,11.23,0,0,1-3.27-1.3A1.94,1.94,0,0,1,96.92,122a3.28,3.28,0,0,1,.11-.54,1.47,1.47,0,0,1,.54-.81,1.37,1.37,0,0,1,.81-.27,1.43,1.43,0,0,1,.65.16,13.76,13.76,0,0,0,6.59,1.89,9.24,9.24,0,0,0,7.1-2.81,10.8,10.8,0,0,0,2.62-7.67V110.1a9.89,9.89,0,0,1-3.89,3.65,11.37,11.37,0,0,1-5.51,1.38q-4.7,0-7.13-2.81a11.24,11.24,0,0,1-2.43-7.61V88.12a1.62,1.62,0,1,1,3.24,0v16.09q0,3.89,1.7,5.89t5.32,2a8.71,8.71,0,0,0,4.24-1.11,9,9,0,0,0,3.24-2.92,6.8,6.8,0,0,0,1.21-3.86V88.12A1.64,1.64,0,0,1,118.12,87Z"/>
        <path d="M134,78.83A4.75,4.75,0,0,0,133,82v5.56h6a1.5,1.5,0,0,1,1.05.43,1.5,1.5,0,0,1,0,2.16,1.49,1.49,0,0,1-1.05.43h-6V113a1.62,1.62,0,1,1-3.24,0V90.55h-3.94a1.42,1.42,0,0,1-1.08-.46,1.49,1.49,0,0,1-.43-1.05,1.44,1.44,0,0,1,.43-1.11,1.52,1.52,0,0,1,1.08-.41h3.94V82a6.89,6.89,0,0,1,2-5.26A7.35,7.35,0,0,1,137,74.84a8.38,8.38,0,0,1,2.81.46q1.29.46,1.29,1.49a1.47,1.47,0,0,1-.43,1.08,1.35,1.35,0,0,1-1,.43,3.41,3.41,0,0,1-1.19-.27,7.64,7.64,0,0,0-1.89-.32A3.28,3.28,0,0,0,134,78.83Z"/>
        <path d="M167.9,87.61a1.57,1.57,0,0,1,.46,1.16V104q0,5.29-3,8.13T157.18,115q-5.18,0-8.13-2.83T146.11,104V88.77a1.62,1.62,0,1,1,3.24,0V104a7.12,7.12,0,0,0,7.83,7.94,8,8,0,0,0,5.86-2,7.89,7.89,0,0,0,2.08-5.91V88.77a1.64,1.64,0,0,1,2.78-1.16Z"/>
        <path d="M179.95,114.12a1.62,1.62,0,0,1-2.78-1.16V76.24a1.62,1.62,0,1,1,3.24,0V113A1.58,1.58,0,0,1,179.95,114.12Z"/>
      </g>
    </g>
  </g>
</svg>
