<svg xmlns="http://www.w3.org/2000/svg" viewBox="0 0 200 200">
  <defs>
    <style>
      .cls-1 {
        fill: #D9ACA7;
      }
    </style>
  </defs>
  <title>wild_theme</title>
  <g id="Layer_2" data-name="Layer 2">
    <g id="Layer_1-2" data-name="Layer 1">
      <rect class="cls-1" width="200" height="200"/>
      <g>
        <path d="M37.81,118.71a2,2,0,0,1-1.43-.48,2.49,2.49,0,0,1-.51-1.85,10.88,10.88,0,0,0-.37-2.22A42.39,42.39,0,0,0,34,109.44c-.78-2.09-1.92-4.83-3.38-8.15s-3.43-7.51-5.85-12.44a17.33,17.33,0,0,0-1.83-3.12,3.68,3.68,0,0,1-1-2.28A2.06,2.06,0,0,1,22.75,82a12.84,12.84,0,0,1,1.53-1.12A15.22,15.22,0,0,1,26,80a3.76,3.76,0,0,1,1.49-.44,1.68,1.68,0,0,1,1.87,1.77,11.79,11.79,0,0,0,.64,3c.44,1.48,1,3.19,1.75,5.1s1.53,4,2.43,6.11,1.78,4.22,2.66,6.22,1.69,3.8,2.46,5.44c.48,1,.9,1.88,1.26,2.58l.73-1.07,2.08-3,2.44-3.54c.84-1.22,1.65-2.44,2.39-3.6s1.41-2.26,2-3.27a17.41,17.41,0,0,0,1.23-2.41,5.69,5.69,0,0,1,1-1.75,1.79,1.79,0,0,1,1.27-.51,3.7,3.7,0,0,1,.76.11c.3.07.59.15.87.24a3,3,0,0,1,.88.45,1.24,1.24,0,0,1,.58,1c0,.34.22,1.51,1.68,5.42a102.16,102.16,0,0,0,5.24,11.12c.33-.68.72-1.46,1.18-2.33l2.6-4.93q1.41-2.67,2.92-5.46c1-1.85,1.91-3.6,2.71-5.19s1.48-3,2-4.16a6.91,6.91,0,0,0,.74-2,2.94,2.94,0,0,1,.5-2,1.82,1.82,0,0,1,1.44-.62,3.28,3.28,0,0,1,1.3.38,11.74,11.74,0,0,1,1.43.79,12.39,12.39,0,0,1,1.26.92,1.77,1.77,0,0,1,.77,1.23,2.72,2.72,0,0,1-.42,1.35c-.23.4-.6.95-1.1,1.64S80,90.09,79.22,91.2s-1.65,2.61-2.71,4.4c-1.37,2.23-2.69,4.49-3.94,6.72s-2.36,4.32-3.32,6.26-1.75,3.61-2.36,5a14.45,14.45,0,0,0-1,2.68c-.24,1.76-1.19,2-1.73,2l-.91,0A5.65,5.65,0,0,1,62,118a4,4,0,0,1-1.21-.57,2.08,2.08,0,0,1-.86-1.22c-.25-.91-.63-2.13-1.17-3.73s-1.15-3.16-1.84-4.79-1.43-3.17-2.18-4.56a13.87,13.87,0,0,0-1.58-2.4q-.76.89-1.65,2c-.79,1-1.62,2-2.45,3.11s-1.64,2.19-2.42,3.3-1.49,2.15-2.13,3.14-1.14,1.83-1.54,2.61a4.77,4.77,0,0,0-.6,1.59,1.69,1.69,0,0,1-.85,1.13,6.08,6.08,0,0,1-1.2.56,9.59,9.59,0,0,1-1.35.37A6.33,6.33,0,0,1,37.81,118.71Z"/>
        <path d="M23.22,82.56a12.08,12.08,0,0,1,1.44-1.05,14.43,14.43,0,0,1,1.63-.9,3.24,3.24,0,0,1,1.19-.37q1.15,0,1.15,1.05a12.89,12.89,0,0,0,.67,3.16q.67,2.23,1.76,5.15t2.44,6.14Q34.86,99,36.18,102t2.47,5.46q1.15,2.45,1.86,3.69.45-.74,1.38-2.08L44,106l2.44-3.54q1.28-1.86,2.4-3.63t2-3.29a17.92,17.92,0,0,0,1.28-2.51,5.34,5.34,0,0,1,.83-1.49,1.06,1.06,0,0,1,.77-.31,3.19,3.19,0,0,1,.61.09q.42.09.8.22a2.27,2.27,0,0,1,.67.34c.19.15.29.28.29.4A25.57,25.57,0,0,0,57.81,98a109.76,109.76,0,0,0,6,12.49q.58-1.36,1.76-3.63l2.6-4.93q1.41-2.67,2.92-5.46t2.72-5.21q1.22-2.42,2-4.18a7.7,7.7,0,0,0,.8-2.33,2.41,2.41,0,0,1,.32-1.49,1.12,1.12,0,0,1,.9-.37,2.74,2.74,0,0,1,1,.31,11,11,0,0,1,1.35.74,11.6,11.6,0,0,1,1.19.87q.51.44.51.68a2.06,2.06,0,0,1-.32,1q-.32.56-1.06,1.58t-1.86,2.73q-1.12,1.71-2.72,4.43Q73.84,98.59,72,102t-3.33,6.29q-1.44,2.92-2.37,5a15.7,15.7,0,0,0-1.06,2.85q-.19,1.43-1,1.43l-.87,0a4.92,4.92,0,0,1-1.09-.19,3.28,3.28,0,0,1-1-.46,1.37,1.37,0,0,1-.58-.81q-.38-1.42-1.19-3.78t-1.86-4.84q-1.06-2.48-2.21-4.62a12,12,0,0,0-2.24-3.13q-1,1.12-2.18,2.6t-2.47,3.13q-1.25,1.64-2.44,3.32t-2.15,3.16q-1,1.49-1.57,2.67a5.55,5.55,0,0,0-.67,1.86,1,1,0,0,1-.51.59,5.42,5.42,0,0,1-1.06.5,8.78,8.78,0,0,1-1.25.34,5.74,5.74,0,0,1-1,.12,1.3,1.3,0,0,1-.93-.28,2,2,0,0,1-.29-1.33,11.88,11.88,0,0,0-.38-2.39,42.83,42.83,0,0,0-1.57-4.8Q33.45,106,31.24,101T25.37,88.55a17.88,17.88,0,0,0-1.92-3.26,3,3,0,0,1-.83-1.83C22.62,83.21,22.82,82.91,23.22,82.56Z"/>
        <path d="M92.95,119.52a2.7,2.7,0,0,1-1.09-.21,2,2,0,0,1-1-1.16,8.35,8.35,0,0,1-.47-2.08c-.11-.87-.19-2.09-.23-3.6s-.08-3.42-.1-5.72,0-5.08,0-8.35c0-2.16,0-3.88-.09-5.11s-.1-2.43-.1-3.51a13.55,13.55,0,0,0-.06-1.38,1.08,1.08,0,0,0-.27-.62,5,5,0,0,1-1-1.41,3.31,3.31,0,0,1-.28-1.31A2.47,2.47,0,0,1,89,83.55a10.58,10.58,0,0,1,1.45-1.4A13.15,13.15,0,0,1,92.11,81a3.33,3.33,0,0,1,1.61-.56,3.92,3.92,0,0,1,2,.63c.58.34,1.25.83,1.25,1.52a5.1,5.1,0,0,1-.33,1.77A5.69,5.69,0,0,0,96.29,86c-.17,1.83-.31,4.89-.42,9.12s-.16,10.13-.16,17.56a16.34,16.34,0,0,1-.53,5.2A2.36,2.36,0,0,1,92.95,119.52Z"/>
        <path d="M90.67,93.26q-.1-1.86-.1-3.47a14.07,14.07,0,0,0-.06-1.46,1.8,1.8,0,0,0-.45-1,4.39,4.39,0,0,1-.87-1.21,2.58,2.58,0,0,1-.22-1A2,2,0,0,1,89.55,84a9.84,9.84,0,0,1,1.35-1.3,12.42,12.42,0,0,1,1.57-1.08,2.78,2.78,0,0,1,1.25-.46,3.26,3.26,0,0,1,1.6.53q.9.53.9.9a4.35,4.35,0,0,1-.29,1.52,6.38,6.38,0,0,0-.35,1.83q-.26,2.73-.42,9.15T95,112.66a16,16,0,0,1-.48,4.93,1.64,1.64,0,0,1-1.57,1.21,2,2,0,0,1-.8-.15,1.35,1.35,0,0,1-.61-.78,7.8,7.8,0,0,1-.42-1.89q-.16-1.27-.22-3.54t-.1-5.7q0-3.44,0-8.34Q90.77,95.12,90.67,93.26Z"/>
        <path d="M132.7,118.28a4.18,4.18,0,0,1-1.28-.19l-1.44-.46a1,1,0,0,0-.3-.06l-1-.06-2.07-.06q-1.31,0-3.35,0t-3.48,0l-2.07.06a5,5,0,0,0-1,.1,2.76,2.76,0,0,0-.48.17,5,5,0,0,1-2.3.5,1.84,1.84,0,0,1-1.32-.66,9.87,9.87,0,0,1-.86-1,6.1,6.1,0,0,1-.69-1.2,2.67,2.67,0,0,1-.28-1,2.42,2.42,0,0,1,.85-1.65,1.8,1.8,0,0,0,.43-1.32c0-.7,0-1.49,0-2.43s-.05-2.06-.05-3.33V96.91a67.36,67.36,0,0,0-.23-7.14c-.21-1.76-.39-3.15-.62-4.14a9,9,0,0,0-.58-1.93,2.77,2.77,0,0,1-.4-1.3A2.18,2.18,0,0,1,111,81a12.47,12.47,0,0,1,1.5-1.28,14.86,14.86,0,0,1,1.69-1.08,3.34,3.34,0,0,1,1.47-.52,4,4,0,0,1,1.72.48,1.89,1.89,0,0,1,1.24,1.73,5.31,5.31,0,0,1-.29,1.58,4.78,4.78,0,0,0-.22,1.46c0,1.86-.07,3.74-.19,5.57s-.19,3.58-.19,5.28c0,1.14,0,2.23.06,3.22s.06,2.24.06,3.6,0,2.63-.13,4-.17,2.6-.26,3.76-.17,2-.26,2.87c-.07.68-.11,1.38-.12,1.38h0c.13,0,.28.16.43.1a3.2,3.2,0,0,1,1-.07l11.58-.39a3.31,3.31,0,0,0,1.46-.47,3.87,3.87,0,0,1,2-.61c1.33,0,1.81.79,1.81,1.53a5.24,5.24,0,0,1-.18,1.06,12.37,12.37,0,0,1-.48,1.58,12.08,12.08,0,0,1-.68,1.52A1.62,1.62,0,0,1,132.7,118.28Z"/>
        <path d="M132,112.82a3.25,3.25,0,0,1,1.6-.53q1.09,0,1.09.81a5.87,5.87,0,0,1-.16.9,11.59,11.59,0,0,1-.45,1.49,11.2,11.2,0,0,1-.64,1.43q-.35.65-.74.65a3.42,3.42,0,0,1-1.06-.15l-1.44-.46a1.51,1.51,0,0,0-.45-.09l-1.09-.06-2.08-.06q-1.31,0-3.37,0t-3.49,0l-2.08.06a5.75,5.75,0,0,0-1.12.13,3.45,3.45,0,0,0-.61.22,4.25,4.25,0,0,1-2,.43,1.16,1.16,0,0,1-.8-.43,9.24,9.24,0,0,1-.8-1,5.37,5.37,0,0,1-.61-1.05,2.3,2.3,0,0,1-.22-.71,1.79,1.79,0,0,1,.64-1.15,2.5,2.5,0,0,0,.64-1.83q.06-1,.1-2.42t0-3.35V96.91a64.13,64.13,0,0,0-.32-7.22,41.49,41.49,0,0,0-.67-4.22,9.36,9.36,0,0,0-.67-2.11,2.15,2.15,0,0,1-.32-1c0-.21.2-.52.61-.93a11.58,11.58,0,0,1,1.41-1.21,14,14,0,0,1,1.6-1,3,3,0,0,1,1.12-.43,3.39,3.39,0,0,1,1.41.4,1.22,1.22,0,0,1,.83,1.08,4.67,4.67,0,0,1-.26,1.36,5.47,5.47,0,0,0-.26,1.67q0,2.79-.19,5.52T117,94.19q0,1.74.06,3.25t.06,3.57q0,1.92-.13,3.94t-.26,3.75q-.13,1.74-.26,3c-.09.87-.13,1.49-.13,1.86s.26.5.77.5a2,2,0,0,0,.67-.12,2.42,2.42,0,0,1,.8-.12l11.61-.44A4.06,4.06,0,0,0,132,112.82Z"/>
        <path d="M152,119a9,9,0,0,1-1.36-.1l-1.1-.15-3.59-.43a6.23,6.23,0,0,1-1.78-.4,1.46,1.46,0,0,1-.91-1.37,1.73,1.73,0,0,1,.51-1.29c.19-.18.39-.39.62-.63a3.35,3.35,0,0,0,.54-.86,4.64,4.64,0,0,0,.32-1.65c.13-2.41.23-4.9.32-7.61s.13-5,.13-7.23c0-.89,0-1.87-.1-2.9s-.15-2.08-.25-3.1-.22-2-.35-2.85-.25-1.59-.37-2.15a.41.41,0,0,0,0-.14l-.73-.11a3.72,3.72,0,0,1-1-.27,1.45,1.45,0,0,1-.78-1.5,2.06,2.06,0,0,1,.78-1.8,8.24,8.24,0,0,1,2.36-.94l4.5-1.24c1-.25,1.74-.44,2.34-.54a8.8,8.8,0,0,1,1.44-.17c.13,0,.45,0,1.6.13a21.54,21.54,0,0,1,3.36.64,28.34,28.34,0,0,1,4.18,1.5,15.5,15.5,0,0,1,4.2,2.76,14,14,0,0,1,4.5,10.76c0,2.15-.07,4.08-.19,5.73a27.57,27.57,0,0,1-.69,4.49,18.74,18.74,0,0,1-1.3,3.64,20.41,20.41,0,0,1-2,3.25,8.79,8.79,0,0,1-2.13,1.94,19.94,19.94,0,0,1-2.86,1.58c-1,.46-2.07.88-3.17,1.26s-2.11.7-3,.95-1.74.45-2.44.6A8.53,8.53,0,0,1,152,119Zm-1-16.65c0,1.58,0,3.12,0,4.63s0,2.9,0,4.18c0,2,.3,2.45.36,2.52a1.42,1.42,0,0,0,1.12.36,18.33,18.33,0,0,0,5.28-.71,8.61,8.61,0,0,0,3.94-2.52,13,13,0,0,0,2.63-5.11,31.43,31.43,0,0,0,1-8.54A12.9,12.9,0,0,0,164,90.93a13.52,13.52,0,0,0-3.13-4,12.17,12.17,0,0,0-3.54-2.14,8.18,8.18,0,0,0-2.51-.64,7.62,7.62,0,0,0-2.21.37,8.53,8.53,0,0,1-1.6.63Z"/>
        <path d="M150.75,118.15l-1.12-.16-3.59-.43a5.69,5.69,0,0,1-1.57-.34.74.74,0,0,1-.48-.71,1,1,0,0,1,.29-.78c.19-.19.41-.4.64-.65a4,4,0,0,0,.67-1.05,5.29,5.29,0,0,0,.38-1.92q.19-3.72.32-7.63t.13-7.25q0-1.36-.1-2.95t-.26-3.13q-.16-1.55-.35-2.88t-.38-2.2a.75.75,0,0,0-.54-.65q-.42-.09-.83-.15a3,3,0,0,1-.77-.22c-.24-.1-.35-.38-.35-.84a1.38,1.38,0,0,1,.48-1.21,8.8,8.8,0,0,1,2.15-.84l4.49-1.24q1.41-.37,2.28-.53a8.23,8.23,0,0,1,1.31-.16q.19,0,1.54.12a20.78,20.78,0,0,1,3.24.62,27.51,27.51,0,0,1,4.07,1.46,14.72,14.72,0,0,1,4,2.63,13.29,13.29,0,0,1,4.26,10.23q0,3.22-.19,5.67a26.72,26.72,0,0,1-.67,4.37,17.89,17.89,0,0,1-1.25,3.5,19.57,19.57,0,0,1-1.92,3.13,8,8,0,0,1-2,1.77,19.1,19.1,0,0,1-2.76,1.52q-1.51.68-3.11,1.24t-3,.93q-1.38.37-2.4.59a5.95,5.95,0,0,1-2.66.13Zm-.38-11.22q0,2.26,0,4.19a5.4,5.4,0,0,0,.51,3,2,2,0,0,0,1.67.62A18.94,18.94,0,0,0,158,114a9.27,9.27,0,0,0,4.26-2.73,13.59,13.59,0,0,0,2.79-5.39,32,32,0,0,0,1-8.74,13.54,13.54,0,0,0-1.41-6.51,14.16,14.16,0,0,0-3.3-4.19,12.82,12.82,0,0,0-3.75-2.26,9.08,9.08,0,0,0-2.76-.68,8,8,0,0,0-2.37.4,8.64,8.64,0,0,0-2.05.9v17.55Q150.39,104.67,150.36,106.93Z"/>
      </g>
    </g>
  </g>
</svg>
