<svg xmlns="http://www.w3.org/2000/svg" viewBox="0 0 450 306">
  <defs>
    <style>
      .cls-1 {
        fill: #A9140A;
      }
    </style>
  </defs>
  <title>frame_classic_04</title>
  <g id="Layer_2" data-name="Layer 2">
    <g id="classic_borders">
      <g id="Layer_5" data-name="Layer 5">
        <path class="cls-1" d="M450,151.81H437.83V9.73L437.11,9H226.19V0h-2.37V9H12.89l-.72.72V151.81H0v2.37H12.17V296.27l.72.72H223.81v9h2.37v-9H437.11l.72-.72V154.19H450ZM425.24,11.58h4.42v6.25h-4.42Zm-2.59,0v6.25H410.81l6.37-6.25ZM393.22,20.4h11.29l-7.27,7.13H386ZM384,25.86V20.4h5.57Zm5.38,4.24h5.28l-5.28,5.18Zm9,0h24.34v6.56h-31Zm2.62-2.57,7.27-7.13h14.46v7.13ZM413.5,11.58l-6.37,6.25H395.84l6.37-6.25Zm-15,0-6.37,6.25H381.25l6.37-6.25Zm-19.26,0h4.67l-4.67,4.58Zm-29.08,6.26V11.58h26.49v7.12l-4.93,4.84H335.69l5.07-5h8.7ZM330,11.58h17.57V16H330Zm0,7h7.05l-5.07,5h-2Zm-26.88-7h24.28V16H303.15Zm-180.36,0h24.28V16H122.79Zm-20.16,0H120.2V16H102.64Zm17.56,7v5h-2l-5.07-5Zm-46.65-7H100v6.26l.72.72h8.7l5.07,5H78.49l-4.93-4.84Zm-2.59,0v4.58l-4.67-4.58Zm-8.36,0L69,17.83H58.07L51.7,11.58ZM53,27.53,45.72,20.4H57l7.27,7.13Zm7.9,2.57v5.18L55.61,30.1Zm-.19-9.7h5.57v5.46ZM48,11.58l6.37,6.25H43.1l-6.37-6.25Zm-20.44,0H33l6.37,6.25H27.58Zm0,8.82H42l7.27,7.13H27.58Zm0,9.7H51.92l6.69,6.56h-31Zm-7-18.52H25v6.25H20.57Zm-5.81,0H18v8.1l.72.72H25V40.9H14.76Zm0,31.89H26.86l.72-.72V39.24H54.93V45.8H14.76Zm0,4.9H41.08l-3.84,3.77H14.76Zm0,6.34H34.61L14.76,74.19Zm0,23.09L36.25,56.73v6.46L14.76,84.26Zm0,143.85,21.48,21.08v6.46L14.76,228.11Zm0,10.08L34.62,251.2H14.76Zm0,22H37.23l3.84,3.77H14.76ZM25,294.42H20.57v-6.33H25Zm0-8.9H18.7l-.72.72v8.18H14.76V264.63H25ZM14.76,262.06v-2H54.93v6.56H27.58v-3.89l-.72-.72ZM57,285.51H45.72L53,278.38H64.27Zm9.25-5.46v5.46H60.69ZM42,285.51H27.58v-7.13H49.3Zm18.85-9.7H55.6l5.28-5.18Zm-9,0H27.58v-6.57h31Zm-24.34,18.6v-6.33H39.41L33,294.42Zm9.06,0,6.46-6.33H54.39l-6.46,6.33Zm15,0,6.46-6.33H69l-6.46,6.33Zm19.35,0H66.21L71,289.75ZM100,288.07v6.35H73.55v-7.21l4.93-4.84h36.05l-5.08,5h-8.7Zm20.16,6.35H102.64v-4.5H120.2Zm0-7.07h-7.05l5.08-5h2Zm26.88,7.07H122.79v-4.5h24.28Zm180.36,0H303.15v-4.87h24.28Zm20.16,0H330v-4.87h17.57ZM330,287v-5h2l5.07,5Zm46.65,7.45H350.18v-6.73l-.72-.72h-8.7l-5.07-5h36.05l4.93,4.84Zm2.59,0v-5l5.14,5Zm8.83,0-6.84-6.71h10.91l6.84,6.71ZM397.24,278l7.27,7.13H393.22L386,278Zm-7.9-2.57v-5.18l5.28,5.18Zm.19,9.7H384v-5.46Zm13.15,9.28-6.84-6.71h11.29l6.84,6.71Zm20,0h-5l-6.84-6.71h11.84Zm0-9.28H408.19L400.93,278h21.72Zm0-9.7H398.31l-6.69-6.56h31Zm7,19h-4.42v-6.71h4.42Zm5.58,0h-3v-8.56l-.72-.72h-6.29v-20.5h10Zm0-32.35H423.37l-.72.72v3.52H395.3v-6.57h39.94Zm0-4.9H409.15L413,253.4h22.24Zm0-6.34H415.61l19.62-19.25Zm0-22.87L414,248.82v-6.46l21.26-20.86Zm0-10.08-23.63,23.19-.22.51v9.77l-5.92,5.81h-12l-.72.72v8.42H389l-4.17-4.09a2.15,2.15,0,0,0,0-.34,2.22,2.22,0,1,0-2.22,2.2,2.24,2.24,0,0,0,.36,0l3.75,3.68v7.72h-3.42l-17.32-17a2.15,2.15,0,0,0,0-.34,2.27,2.27,0,1,0-1.87,2.16l17.19,16.86v8h-2.75l-31-30.45a2.15,2.15,0,0,0,0-.34,2.22,2.22,0,1,0-2.22,2.2,2.23,2.23,0,0,0,.36,0l23.36,22.92h-41l-.72.72V287H301.28l-.72.72v6.73H149.67v-6.35l-.72-.72H122.79v-6.83l-.72-.72h-41l23.37-22.92a2.23,2.23,0,0,0,.36,0,2.2,2.2,0,1,0-2.22-2.19,2.15,2.15,0,0,0,0,.34l-31,30.46H68.85v-8L86,260.64a2.23,2.23,0,0,0,.36,0,2.2,2.2,0,1,0-2.22-2.19,2.14,2.14,0,0,0,0,.34l-17.32,17H63.48v-7.72l3.75-3.68a2.19,2.19,0,1,0-1.87-2.16,2.15,2.15,0,0,0,0,.34l-4.17,4.09H57.52v-8.41l-.72-.72h-12l-5.92-5.81V242l-.22-.51L14.76,218V87.88L38.62,64.47l.22-.51V54.18l5.92-5.81h12l.72-.72V39.24h3.71l4.17,4.09a2.15,2.15,0,0,0,0,.34,2.27,2.27,0,1,0,1.87-2.16l-3.75-3.68V30.1h3.42l17.32,17a2.14,2.14,0,0,0,0,.34A2.27,2.27,0,1,0,86,45.27L68.85,28.41v-8H71.6l31,30.45a2.14,2.14,0,0,0,0,.34A2.27,2.27,0,1,0,104.47,49L81.11,26.12h41l.72-.72V18.57h26.16l.72-.72V11.58H300.56v6.26l.72.72h26.16V25.4l.72.72h41L345.76,49a2.24,2.24,0,0,0-.36,0,2.2,2.2,0,1,0,2.22,2.2,2.15,2.15,0,0,0,0-.34l31-30.45h2.75v8L364.19,45.27a2.19,2.19,0,1,0,1.87,2.16,2.15,2.15,0,0,0,0-.34l17.32-17h3.42v7.72L383,41.51a2.23,2.23,0,0,0-.36,0,2.2,2.2,0,1,0,2.22,2.2,2.15,2.15,0,0,0,0-.34L389,39.24h3.71v8.41l.72.72h12l5.92,5.81V64l.22.51,23.63,23.18Zm0-133.84L414,63.19V56.73l21.26,20.85Zm0-10.08L415.61,54.71h19.62Zm0-21.82H413l-3.84-3.77h26.09Zm0-6.34H395.3V39.24h27.36v3.52l.72.72h11.87Zm0-4.9h-10V20.4h6.29l.72-.72v-8.1h3Z"/>
      </g>
    </g>
  </g>
</svg>
