<svg xmlns="http://www.w3.org/2000/svg" viewBox="0 0 429.52 289.37">
  <defs>
    <style>
      .cls-1 {
        fill: #b5a77f;
      }
    </style>
  </defs>
  <title>frame_playful_05</title>
  <g id="Layer_2" data-name="Layer 2">
    <g id="Layer_10" data-name="Layer 10">
      <path class="cls-1" d="M6.36,270.52a29.78,29.78,0,0,0,2-7.24c.44-2.55.75-5.17,1.26-7.79.74-3.83,1.42-7.79,2.1-11.73.35-2,.66-3.95,1-5.93s.59-4,.81-6c1.33-11.21,2.76-22.48,3.08-33.81.3-10.56-.39-21.13-1-31.66-.38-6.65-1.07-13.28-1.51-19.93-.83-12.17-1.74-24.33-2.94-36.48C9.62,95,7.82,80.08,6,65.15L2.89,40.85c-.5-4.05-1.07-8.1-1.53-12.16L.7,22.6c-.22-2-.44-4.1-.56-6.2,0-1.29-.19-3-.13-5a22.55,22.55,0,0,1,.28-3c.09-.51.2-1,.33-1.54a16,16,0,0,1,.66-1.49,8.74,8.74,0,0,1,.88-1.36A6.34,6.34,0,0,1,3.38,3a3.11,3.11,0,0,1,1.7-.54A3,3,0,0,1,6,2.6a4.27,4.27,0,0,1,.63.48,2.82,2.82,0,0,1,.76,1.71c0,.41,0,.66-.15.73s-.31.17-.55,0a5,5,0,0,0-.94-.73.42.42,0,0,0-.28-.08c-.09,0-.13,0-.19.11,0-.09,0,0,0,0h0a.77.77,0,0,0,0,.1c0,.1,0,.09,0,.12v.09a7.69,7.69,0,0,0-.43,1.62,9.47,9.47,0,0,0-.07,1.16V8s0,0,0,0h0V8l0,.14c0,.1,0,.18,0,.31l0,.69A26.94,26.94,0,0,0,4.85,12c.15,1.89.49,3.7.73,5.08.46,2.35.93,4.86,1.3,7.38s.72,5,1,7.55C9.51,44.46,11.27,56.9,12.63,69.4c1.32,12.07,2.15,24.19,3.3,36.27S18.56,129.83,19.4,142c.81,11.66,1.1,23.36,1.45,35.05.22,7.78,1,15.57.78,23.37-.22,7.16-1.72,14.25-2.32,21.36-.68,8.09-1,16.22-1.82,24.32a140.06,140.06,0,0,1-2.85,19c-.62,2.49-1,5.85-2.52,8.9a10.47,10.47,0,0,1-3.22,3.94,6,6,0,0,1-2.37,1,3.5,3.5,0,0,1-2.4-.36,1.18,1.18,0,0,1-.45-1.32,10.23,10.23,0,0,1,.44-1.51C4.5,274.63,5.31,272.86,6.36,270.52Z"/>
      <path class="cls-1" d="M412.59,276.27c-2.27-5.34-4.85-10.61-6.18-16.24a199.49,199.49,0,0,1-3.67-24.87c-1.19-11.69-1.07-23.41-1.05-35,0-10.84-.11-21.7.44-32.56.34-6.84.69-13.69,1.45-20.5,1.37-12.47,3.42-24.85,5.57-37.17,2.64-15.18,5.56-30.28,8.29-45.4,3-16.38,5.68-32.82,7.71-49.3a31.31,31.31,0,0,0,.15-4.68c0-.44,0-.88-.1-1.32a11.62,11.62,0,0,0-.12-1.32,9.85,9.85,0,0,0-.24-1.27,5,5,0,0,0-.14-.61l-.17-.51a3,3,0,0,0-.45-.79,1.29,1.29,0,0,0-.41-.5.57.57,0,0,0-.4-.16c-.08,0-.16,0-.26,0a2.59,2.59,0,0,0-.27.17,4,4,0,0,0-.81,1c-.18.31-.32.5-.46.51s-.35.05-.46-.25a3.06,3.06,0,0,1,0-1.6,3.13,3.13,0,0,1,.6-1.32,2.93,2.93,0,0,1,1.86-1.08,3.81,3.81,0,0,1,2.4.52,5.46,5.46,0,0,0,.53.3l.42.4a6.78,6.78,0,0,1,.7.87A11.89,11.89,0,0,1,429,7.28c.16.61.27,1.22.37,1.83s.11,1.2.14,1.79c.11,2.33,0,4.41-.1,6-.17,5.23-1.09,10.37-1.74,15.53-1.59,12.78-3.64,25.47-5.93,38.09-2.22,12.19-4.92,24.26-7,36.42s-3.56,24.43-5,36.64c-1.42,11.74-2.77,23.49-3.21,35.28-.3,7.85.36,15.7.4,23.49,0,7.15-.75,14.38-.25,21.58a173.15,173.15,0,0,0,3.82,24.21,168.89,168.89,0,0,0,5,18.29c.78,2.38,2.41,5.1,3.56,7.87a16.22,16.22,0,0,1,1.26,4.21,8.84,8.84,0,0,1-.35,4.36c-.48,1.16-1.62,1-3-.25a13.39,13.39,0,0,1-2.21-2.53A27.93,27.93,0,0,1,412.59,276.27Z"/>
      <path class="cls-1" d="M30,5.17A53,53,0,0,1,42.06,1.55,74.44,74.44,0,0,1,53.83.28C59.51.12,65.19.06,70.86,0c5.67.15,11.33.3,17,.36l3,0,3,.14,6,.3c4,.22,8,.4,11.93.65l11.9.9c4,.27,7.94.51,11.9.83,7.39.56,14.79.84,22.18,1.33l11.1.64c3.7.21,7.39.5,11.08.77,9.32.67,18.65,1.28,27.95,2.18,17,1.72,34,3.65,51,5.26,10.47,1.05,20.95,1.87,31.43,2.74l15.73,1c5.24.41,10.49.54,15.74.8l8.54.39,8.54.16c5.69.08,11.39.3,17.08.14l8.54-.11c2.85,0,5.7,0,8.53-.16a161,161,0,0,0,16.9-1.48,64.59,64.59,0,0,0,6.39-1.36l1.82-.53c.63-.14,1.24-.35,1.85-.55s1.24-.36,1.82-.61,1.2-.39,1.79-.57a38.3,38.3,0,0,0,5.83-2.63c.76-.38,1.31-.8,1.74-1s.71-.4.81-.36c.52-.11,0,.57-1.14,1.91a28.92,28.92,0,0,1-5.74,4.46,26.61,26.61,0,0,1-4.1,2,35.46,35.46,0,0,1-4.39,1.48c-2.92.84-5.68,1.34-7.75,1.78a84.3,84.3,0,0,1-10.75,1.37c-3.59.25-7.19.41-10.74.48-8.81.24-17.62.55-26.43.38l-6.61-.05c-2.2,0-4.4,0-6.6-.13l-13.19-.51c-4.25-.13-8.48-.47-12.71-.76s-8.47-.59-12.7-.95l-12.67-1.15L270.08,19l-6.33-.6L213.08,14.1c-8.11-.72-16.2-1.59-24.29-2.38l-12.14-1.13-6.07-.54-6.08-.44q-8.09-.54-16.2-.79c-5.4-.14-10.79-.31-16.17-.7-4.94-.32-9.86-.8-14.79-1.36-2.47-.26-4.93-.57-7.4-.76s-4.94-.32-7.42-.41c-11.27-.51-22.54.13-33.79.53l-13.11.79c-4.38.23-8.75.55-13,1.15a37.88,37.88,0,0,0-10.6,3.48,41.22,41.22,0,0,0-4.35,2.53,8.56,8.56,0,0,0-3.25,3.21c-.36.61-.78.87-1.32.47a3.79,3.79,0,0,1-1.09-3.27,9.23,9.23,0,0,1,2.42-5.33A16.55,16.55,0,0,1,30,5.17Z"/>
      <path class="cls-1" d="M387.34,281c-6.3-3.68-13.58-5.54-20.74-7.5-5.27-1.43-10.64-2.62-16.06-3.6s-10.92-1.74-16.43-2.39a465.85,465.85,0,0,0-46.85-3.11c-14.61-.19-29.24.43-43.84,1-9.22.39-18.42.92-27.63,1.43-16.87.92-33.72,2.1-50.54,3.7-20.7,2-41.36,4.55-61.9,7.87-5.56.94-11.13,1.83-16.67,2.87S75.58,283.38,70,284.48,59,286.8,53.49,288A55.35,55.35,0,0,1,45,289.32a23.28,23.28,0,0,1-8.63-1A13.39,13.39,0,0,1,33.52,287a8.09,8.09,0,0,1-1.5-1.16,5.22,5.22,0,0,1-1.19-1.76,4.7,4.7,0,0,1,.43-4.43,5.92,5.92,0,0,1,3.65-2.37,8.28,8.28,0,0,1,3.85.1,7.58,7.58,0,0,1,2.85,1.36,3.18,3.18,0,0,1,1.24,1.89c.05.59-.14.89-.22.92-.16.2-.24,0-.29-.28a2,2,0,0,0-.81-1.22,5.88,5.88,0,0,0-2.45-1,8.43,8.43,0,0,0-3.36.07A4.66,4.66,0,0,0,33,280.93a2.61,2.61,0,0,0,0,2.77,5.82,5.82,0,0,0,2.53,2.07,13.25,13.25,0,0,0,3,1,27.64,27.64,0,0,0,9.92,0c3.36-.52,6.79-1.36,10.23-2.07q25.46-5.55,51.23-9.49c16.57-2.56,33.22-4.5,49.89-6.24s33.37-3.31,50.1-4.4c16.08-1,32.19-1.64,48.3-2.14,10.72-.32,21.44-.93,32.18-.8,9.86.12,19.68,1.06,29.51,1.76,11.18.81,22.36,1.59,33.51,3.2a139.2,139.2,0,0,1,25.67,6,80.53,80.53,0,0,1,11.41,4.58,22,22,0,0,1,2.75,1.71,20.94,20.94,0,0,1,2.43,1.94,9.28,9.28,0,0,1,2.68,4.91c.2,1.3-1.11,1.13-3.08.16a12.54,12.54,0,0,1-1.65-.85c-.57-.36-1.12-.83-1.79-1.25s-1.36-.9-2.1-1.38S388.15,281.55,387.34,281Z"/>
    </g>
  </g>
</svg>
