<svg xmlns="http://www.w3.org/2000/svg" viewBox="0 0 450.01 306.01">
  <defs>
    <style>
      .cls-1 {
        fill: #b5a77f;
      }
    </style>
  </defs>
  <title>frame_playful_01</title>
  <g id="Layer_2" data-name="Layer 2">
    <g id="Layer_14" data-name="Layer 14">
      <ellipse class="cls-1" cx="152.18" cy="6.58" rx="4.84" ry="4.9" transform="translate(39.92 109.53) rotate(-45)"/>
      <ellipse class="cls-1" cx="138.35" cy="20.4" rx="4.84" ry="4.9" transform="translate(26.1 103.81) rotate(-45)"/>
      <path class="cls-1" d="M126.16,0a6.66,6.66,0,0,1-1.69,6.52A6.72,6.72,0,0,1,115,6.46,6.78,6.78,0,0,1,113.17,0"/>
      <ellipse class="cls-1" cx="152.18" cy="6.58" rx="4.84" ry="4.9" transform="translate(39.92 109.53) rotate(-45)"/>
      <ellipse class="cls-1" cx="124.53" cy="34.23" rx="4.84" ry="4.9" transform="translate(12.27 98.08) rotate(-45)"/>
      <ellipse class="cls-1" cx="105.87" cy="15.56" rx="6.68" ry="6.77" transform="translate(20.01 79.41) rotate(-45)"/>
      <path class="cls-1" d="M95.23,0A8.4,8.4,0,0,1,93.3,3a8.58,8.58,0,0,1-12.13-.08A8.7,8.7,0,0,1,79.25,0"/>
      <ellipse class="cls-1" cx="110.71" cy="48.05" rx="4.84" ry="4.9" transform="translate(-1.55 92.36) rotate(-45)"/>
      <ellipse class="cls-1" cx="92.04" cy="29.38" rx="6.68" ry="6.77" transform="translate(6.18 73.69) rotate(-45)"/>
      <ellipse class="cls-1" cx="73.38" cy="10.71" rx="8.52" ry="8.63" transform="translate(13.92 55.02) rotate(-45)"/>
      <ellipse class="cls-1" cx="124.53" cy="34.23" rx="4.84" ry="4.9" transform="translate(12.27 98.08) rotate(-45)"/>
      <ellipse class="cls-1" cx="105.87" cy="15.56" rx="6.68" ry="6.77" transform="translate(20.01 79.41) rotate(-45)"/>
      <path class="cls-1" d="M93.3,3a8.58,8.58,0,0,1-12.13-.08"/>
      <ellipse class="cls-1" cx="96.89" cy="61.87" rx="4.84" ry="4.9" transform="translate(-15.37 86.63) rotate(-45)"/>
      <ellipse class="cls-1" cx="78.22" cy="43.2" rx="6.68" ry="6.77" transform="translate(-7.64 67.96) rotate(-45)"/>
      <ellipse class="cls-1" cx="59.55" cy="24.53" rx="8.52" ry="8.63" transform="translate(0.09 49.3) rotate(-45)"/>
      <path class="cls-1" d="M49.44,0a10.4,10.4,0,0,1-1.13,13.28,10.43,10.43,0,0,1-14.75-.1A10.46,10.46,0,0,1,32.18,0"/>
      <ellipse class="cls-1" cx="83.07" cy="75.69" rx="4.84" ry="4.9" transform="translate(-29.19 80.91) rotate(-45)"/>
      <ellipse class="cls-1" cx="64.4" cy="57.02" rx="6.68" ry="6.77" transform="translate(-21.46 62.24) rotate(-45)"/>
      <ellipse class="cls-1" cx="45.73" cy="38.36" rx="8.52" ry="8.63" transform="translate(-13.73 43.57) rotate(-45)"/>
      <ellipse class="cls-1" cx="27.06" cy="19.69" rx="10.36" ry="10.49" transform="translate(-6 24.9) rotate(-45)"/>
      <path class="cls-1" d="M20.62,0a12.11,12.11,0,0,1-3.49,9.75A12.28,12.28,0,0,1,0,9.88C0,9.65.08.09,0,0"/>
      <ellipse class="cls-1" cx="96.89" cy="61.87" rx="4.84" ry="4.9" transform="translate(-15.37 86.63) rotate(-45)"/>
      <ellipse class="cls-1" cx="78.22" cy="43.2" rx="6.68" ry="6.77" transform="translate(-7.64 67.96) rotate(-45)"/>
      <ellipse class="cls-1" cx="59.55" cy="24.53" rx="8.52" ry="8.63" transform="translate(0.09 49.3) rotate(-45)"/>
      <ellipse class="cls-1" cx="69.24" cy="89.51" rx="4.84" ry="4.9" transform="translate(-43.02 75.18) rotate(-45)"/>
      <ellipse class="cls-1" cx="50.58" cy="70.85" rx="6.68" ry="6.77" transform="translate(-35.28 56.51) rotate(-45)"/>
      <ellipse class="cls-1" cx="31.91" cy="52.18" rx="8.52" ry="8.63" transform="translate(-27.55 37.85) rotate(-45)"/>
      <ellipse class="cls-1" cx="13.24" cy="33.51" rx="10.36" ry="10.49" transform="translate(-19.82 19.18) rotate(-45)"/>
      <ellipse class="cls-1" cx="55.42" cy="103.34" rx="4.84" ry="4.9" transform="translate(-56.84 69.46) rotate(-45)"/>
      <ellipse class="cls-1" cx="36.75" cy="84.67" rx="6.68" ry="6.77" transform="translate(-49.11 50.79) rotate(-45)"/>
      <ellipse class="cls-1" cx="18.09" cy="66" rx="8.52" ry="8.63" transform="translate(-41.37 32.12) rotate(-45)"/>
      <path class="cls-1" d="M0,36.93A10.53,10.53,0,0,1,6.74,40a10.43,10.43,0,0,1,.1,14.75,10.25,10.25,0,0,1-6.84,3"/>
      <ellipse class="cls-1" cx="69.24" cy="89.51" rx="4.84" ry="4.9" transform="translate(-43.02 75.18) rotate(-45)"/>
      <ellipse class="cls-1" cx="50.58" cy="70.85" rx="6.68" ry="6.77" transform="translate(-35.28 56.51) rotate(-45)"/>
      <ellipse class="cls-1" cx="31.91" cy="52.18" rx="8.52" ry="8.63" transform="translate(-27.55 37.85) rotate(-45)"/>
      <ellipse class="cls-1" cx="13.24" cy="33.51" rx="10.36" ry="10.49" transform="translate(-19.82 19.18) rotate(-45)"/>
      <ellipse class="cls-1" cx="41.6" cy="117.16" rx="4.84" ry="4.9" transform="translate(-70.66 63.73) rotate(-45)"/>
      <ellipse class="cls-1" cx="22.93" cy="98.49" rx="6.68" ry="6.77" transform="translate(-62.93 45.06) rotate(-45)"/>
      <path class="cls-1" d="M10.29,73.8a8.58,8.58,0,0,1,.08,12.13"/>
      <ellipse class="cls-1" cx="27.78" cy="130.98" rx="4.84" ry="4.9" transform="translate(-84.48 58) rotate(-45)"/>
      <ellipse class="cls-1" cx="9.11" cy="112.31" rx="6.68" ry="6.77" transform="translate(-76.75 39.34) rotate(-45)"/>
      <ellipse class="cls-1" cx="41.6" cy="117.16" rx="4.84" ry="4.9" transform="translate(-70.66 63.73) rotate(-45)"/>
      <ellipse class="cls-1" cx="22.93" cy="98.49" rx="6.68" ry="6.77" transform="translate(-62.93 45.06) rotate(-45)"/>
      <path class="cls-1" d="M0,72.32A8.62,8.62,0,0,1,10.29,73.8a8.58,8.58,0,0,1,.08,12.13A8.55,8.55,0,0,1,0,87.21"/>
      <ellipse class="cls-1" cx="13.95" cy="144.8" rx="4.84" ry="4.9" transform="translate(-98.3 52.28) rotate(-45)"/>
      <path class="cls-1" d="M0,153.76a4.92,4.92,0,0,1,3.55,1.45,4.87,4.87,0,0,1,0,6.89,4.8,4.8,0,0,1-3.6,1.4"/>
      <ellipse class="cls-1" cx="13.95" cy="144.8" rx="4.84" ry="4.9" transform="translate(-98.3 52.28) rotate(-45)"/>
      <path class="cls-1" d="M289,301.35a4.84,4.84,0,0,1,6.84.09"/>
      <ellipse class="cls-1" cx="306.13" cy="291.16" rx="4.78" ry="4.9" transform="translate(-116.21 301.95) rotate(-45.03)"/>
      <path class="cls-1" d="M319.22,306a6.49,6.49,0,0,1,.8-1,6.69,6.69,0,0,1,9.46.11,7,7,0,0,1,.73.86"/>
      <path class="cls-1" d="M287.82,306a4.76,4.76,0,0,1,1.19-4.66,4.84,4.84,0,0,1,6.84.09A4.93,4.93,0,0,1,297.2,306"/>
      <ellipse class="cls-1" cx="319.78" cy="277.49" rx="4.78" ry="4.9" transform="translate(-102.52 307.83) rotate(-45.06)"/>
      <ellipse class="cls-1" cx="338.47" cy="296.14" rx="6.61" ry="6.77" transform="translate(-110.23 326.53) rotate(-45.06)"/>
      <ellipse class="cls-1" cx="333.43" cy="263.8" rx="4.79" ry="4.9" transform="translate(-88.8 313.66) rotate(-45.08)"/>
      <ellipse class="cls-1" cx="352.13" cy="282.44" rx="6.61" ry="6.77" transform="translate(-96.51 332.38) rotate(-45.08)"/>
      <path class="cls-1" d="M364,306a8.46,8.46,0,1,1,13.94,0"/>
      <ellipse class="cls-1" cx="319.78" cy="277.49" rx="4.78" ry="4.9" transform="translate(-102.52 307.83) rotate(-45.06)"/>
      <ellipse class="cls-1" cx="338.47" cy="296.14" rx="6.61" ry="6.77" transform="translate(-110.23 326.53) rotate(-45.06)"/>
      <ellipse class="cls-1" cx="347.08" cy="250.11" rx="4.79" ry="4.9" transform="translate(-75.07 319.47) rotate(-45.11)"/>
      <ellipse class="cls-1" cx="365.78" cy="268.74" rx="6.61" ry="6.77" transform="translate(-82.76 338.2) rotate(-45.11)"/>
      <ellipse class="cls-1" cx="384.49" cy="287.37" rx="8.44" ry="8.63" transform="translate(-90.46 356.93) rotate(-45.11)"/>
      <path class="cls-1" d="M395.75,298.6a10.38,10.38,0,0,1,14.68.13"/>
      <ellipse class="cls-1" cx="360.73" cy="236.41" rx="4.79" ry="4.9" transform="translate(-61.31 325.25) rotate(-45.13)"/>
      <ellipse class="cls-1" cx="379.44" cy="255.03" rx="6.61" ry="6.77" transform="translate(-69 344) rotate(-45.13)"/>
      <ellipse class="cls-1" cx="398.15" cy="273.66" rx="8.44" ry="8.63" transform="translate(-76.69 362.74) rotate(-45.13)"/>
      <ellipse class="cls-1" cx="416.86" cy="292.28" rx="10.26" ry="10.49" transform="translate(-84.39 381.48) rotate(-45.13)"/>
      <path class="cls-1" d="M450,306H435.19A11.94,11.94,0,0,1,450,294.12"/>
      <ellipse class="cls-1" cx="347.08" cy="250.11" rx="4.79" ry="4.9" transform="translate(-75.07 319.47) rotate(-45.11)"/>
      <ellipse class="cls-1" cx="365.78" cy="268.74" rx="6.61" ry="6.77" transform="translate(-82.76 338.2) rotate(-45.11)"/>
      <ellipse class="cls-1" cx="384.49" cy="287.37" rx="8.44" ry="8.63" transform="translate(-90.46 356.93) rotate(-45.11)"/>
      <path class="cls-1" d="M392.81,306a10.12,10.12,0,0,1,2.94-7.41,10.38,10.38,0,0,1,14.68.13,10.58,10.58,0,0,1,3.13,7.27"/>
      <ellipse class="cls-1" cx="374.37" cy="222.7" rx="4.79" ry="4.9" transform="translate(-47.55 331.01) rotate(-45.14)"/>
      <ellipse class="cls-1" cx="393.09" cy="241.32" rx="6.61" ry="6.77" transform="translate(-55.23 349.76) rotate(-45.14)"/>
      <ellipse class="cls-1" cx="411.8" cy="259.94" rx="8.44" ry="8.63" transform="translate(-62.92 368.52) rotate(-45.14)"/>
      <ellipse class="cls-1" cx="430.52" cy="278.56" rx="10.26" ry="10.49" transform="translate(-70.6 387.27) rotate(-45.14)"/>
      <ellipse class="cls-1" cx="388.02" cy="208.98" rx="4.79" ry="4.9" transform="translate(-33.77 336.75) rotate(-45.16)"/>
      <ellipse class="cls-1" cx="406.74" cy="227.6" rx="6.61" ry="6.77" transform="translate(-41.45 355.52) rotate(-45.16)"/>
      <ellipse class="cls-1" cx="425.46" cy="246.21" rx="8.44" ry="8.63" transform="translate(-49.13 374.28) rotate(-45.16)"/>
      <path class="cls-1" d="M450,273.55a10.52,10.52,0,0,1-13.27-16.12A10.34,10.34,0,0,1,450,256.37"/>
      <ellipse class="cls-1" cx="374.37" cy="222.7" rx="4.79" ry="4.9" transform="translate(-47.55 331.01) rotate(-45.14)"/>
      <ellipse class="cls-1" cx="393.09" cy="241.32" rx="6.61" ry="6.77" transform="translate(-55.23 349.76) rotate(-45.14)"/>
      <ellipse class="cls-1" cx="411.8" cy="259.94" rx="8.44" ry="8.63" transform="translate(-62.92 368.52) rotate(-45.14)"/>
      <ellipse class="cls-1" cx="430.52" cy="278.56" rx="10.26" ry="10.49" transform="translate(-70.6 387.27) rotate(-45.14)"/>
      <ellipse class="cls-1" cx="401.66" cy="195.26" rx="4.79" ry="4.9" transform="translate(-19.98 342.48) rotate(-45.17)"/>
      <ellipse class="cls-1" cx="420.38" cy="213.87" rx="6.61" ry="6.77" transform="translate(-27.66 361.25) rotate(-45.17)"/>
      <ellipse class="cls-1" cx="439.11" cy="232.48" rx="8.44" ry="8.63" transform="translate(-35.33 380.03) rotate(-45.17)"/>
      <ellipse class="cls-1" cx="415.3" cy="181.53" rx="4.79" ry="4.9" transform="translate(-6.19 348.2) rotate(-45.19)"/>
      <ellipse class="cls-1" cx="434.02" cy="200.14" rx="6.61" ry="6.77" transform="translate(-13.86 366.98) rotate(-45.19)"/>
      <ellipse class="cls-1" cx="401.66" cy="195.26" rx="4.79" ry="4.9" transform="translate(-19.98 342.48) rotate(-45.17)"/>
      <ellipse class="cls-1" cx="420.38" cy="213.87" rx="6.61" ry="6.77" transform="translate(-27.66 361.25) rotate(-45.17)"/>
      <ellipse class="cls-1" cx="439.11" cy="232.48" rx="8.44" ry="8.63" transform="translate(-35.33 380.03) rotate(-45.17)"/>
      <ellipse class="cls-1" cx="428.93" cy="167.81" rx="4.79" ry="4.9" transform="translate(7.62 353.91) rotate(-45.2)"/>
      <path class="cls-1" d="M443,191.1a6.69,6.69,0,0,1-.14-9.46"/>
      <ellipse class="cls-1" cx="442.57" cy="154.07" rx="4.79" ry="4.9" transform="translate(21.43 359.61) rotate(-45.21)"/>
      <ellipse class="cls-1" cx="428.93" cy="167.81" rx="4.79" ry="4.9" transform="translate(7.62 353.91) rotate(-45.2)"/>
      <path class="cls-1" d="M450,192.73a6.78,6.78,0,0,1-7-1.63,6.69,6.69,0,0,1-.14-9.46,6.61,6.61,0,0,1,7.14-1.45"/>
    </g>
  </g>
</svg>
