<svg xmlns="http://www.w3.org/2000/svg" viewBox="0 0 433.2 294.58">
  <defs>
    <style>
      .cls-1 {
        fill: #b5a77f;
      }
    </style>
  </defs>
  <title>frame_playful_06</title>
  <g id="Layer_2" data-name="Layer 2">
    <g id="Layer_9" data-name="Layer 9">
      <path class="cls-1" d="M12.18,269.82c1-5.29,1.85-10.56,3-15.75.81-3.79,1.59-7.58,2.11-11.4a107.86,107.86,0,0,0,1-11.56,210.14,210.14,0,0,0-2-32.81c-.65-5.08-1.42-10.15-2.16-15.23S12.61,172.91,12,167.81c-.38-3.22-.82-6.42-1.16-9.64l-1-9.66C8.74,136.69,8,124.85,7.47,113q-.94-21.9-.6-43.82.4-23.76,2.32-47.47c.29-4.85,1.15-16.31,1.9-16.49.47-.58.6,2.46.35,6.33L10.66,23l-1,14.69C9,49.81,8.6,62,8.45,74.09c-.17,11.72-.09,23.44.34,35.16.19,5.86.57,11.71.92,17.57s.86,11.7,1.4,17.53c1,11.23,2.11,22.45,3.66,33.61,1,7.44,2.36,14.82,3.3,22.28.86,6.85,1.26,13.76,1.57,20.67a149,149,0,0,1-.47,23.62c-.69,6.11-1.87,12.13-3,18.11-.94,4.78-1.25,12-3.65,15.8C11.62,279.87,11.14,275.47,12.18,269.82Z"/>
      <path class="cls-1" d="M411.2,14.77c-8-.19-15.93-.17-23.88-.39-11.64-.33-23.26-.72-34.9-.92-16.4-.3-32.8-.61-49.22-.53-15.29.07-30.59.47-45.88,1-9.65.31-19.28.75-28.93,1.14-17.67.7-35.34,1.45-53,2-21.77.65-43.57.94-65.35.24-23.61-.77-47.24-2.6-70.55-6.64C35.93,10,29.88,9.15,24.78,7.95s-9.36-2.2-9.51-2.43c-.85-.46,3.6.23,9.29,1.22L29,7.59c1.51.3,3.06.51,4.55.76l7.88,1.28,2.71.43,2.72.36,5.44.76,5.44.77c1.81.27,3.64.42,5.45.63,18,2,36.09,3.07,54.2,3.49,17.48.38,35,.29,52.48-.19s35-1.33,52.49-2.06q25.23-1.07,50.49-1.63c11.2-.25,22.4-.61,33.6-.65,10.28,0,20.55.29,30.83.4l35.09.35,27.29.52c7.22.16,18.08-.16,24.18,1.25C426.05,14.66,419.68,15,411.2,14.77Z"/>
      <path class="cls-1" d="M419.41,275.08c-.94-5.13-2.11-10.23-2.92-15.39-1.18-7.55-2.15-15.12-3.09-22.7-1.31-10.69-2.15-21.43-2.66-32.18q-.76-15-.39-30.1c.16-6.33.38-12.65.74-19,.65-11.57,1.5-23.12,2-34.68.66-14.24,1-28.51,2.07-42.76.58-7.72,1.34-15.44,2.42-23.12a195.07,195.07,0,0,1,4.47-22.82c.53-2.32,1.62-6.17,2.62-9.46s2.14-5.94,2.43-6c.56-.45-.16,2.41-1.17,6s-2.11,8.13-2.65,10.86c-.25,1.17-.53,2.33-.77,3.5l-.7,3.51c-.53,2.33-.94,4.69-1.35,7a339,339,0,0,0-3.78,35.3c-.76,11.42-1.3,22.87-1.81,34.33s-1.12,22.94-1.81,34.38c-.65,11-1.31,22-1.38,33,0,7.32.37,14.62.77,21.91.37,6.69.6,13.41,1.31,20.09.8,7.6,2,15.17,3.21,22.72.95,5.88,2,11.74,3,17.61.42,2.33,1.11,5.2,1.62,8,.13.71.24,1.41.34,2.1s.3,1.34.37,2l.12,1c0,.32,0,.63-.07.94a13.3,13.3,0,0,1-.28,1.72c-.23.79-.68.19-1.32-1.28a8.22,8.22,0,0,1-.65-2.85,11.64,11.64,0,0,0-.32-1.8Z"/>
      <path class="cls-1" d="M396.11,287.58c-3.78-.6-7.57-1.13-11.36-1.62s-7.61-.83-11.39-1.37L365,283.41c-2.77-.4-5.53-.83-8.31-1.14l-16.67-2c-15.69-1.65-31.4-3.19-47.17-4.06-7.34-.52-14.7-.64-22.06-.88-3.68-.09-7.36-.24-11-.28l-11-.12c-4.64,0-9.28-.13-13.93-.1l-13.93.05c-8.51-.06-17,.11-25.52.2s-17,.35-25.51.54c-5.24.11-10.47.3-15.7.5l-15.7.58c-10.46.52-20.93.93-31.39,1.54-22.69,1.19-45.38,2.66-68.05,4.22-3.47.24-9.31.79-14.34,1.13s-9.24.48-9.44.28c-.92-.21,3.37-.84,8.91-1.44s12.35-1.1,16.44-1.47c7-.6,14.08-1.05,21.12-1.59l26.13-1.85C96.56,277,105.28,276.5,114,276l25.26-1.14,25.27-.88,25.29-.74c8.43-.14,16.86-.37,25.3-.42,8.11,0,16.22,0,24.33.06l24.32.45c5.39.17,10.79.28,16.18.39,2.7.07,5.4.08,8.09.21s5.39.26,8.08.42c4.94.3,9.88.7,14.81,1.12s9.85,1,14.78,1.47l8.42.68c2.81.21,5.61.53,8.41.79L359.36,280c8.7,1,17.4,2.11,26.1,3.24,3.44.53,7.78.91,12,1.52s8.2,1.4,10.94,3c1,.63-.07.95-2.37.91A78.16,78.16,0,0,1,396.11,287.58Z"/>
      <path class="cls-1" d="M16.09,9.47c-.27.25-.44.65-.77.82-.5.23-1.07.37-1.57.62A14.06,14.06,0,0,0,11.64,12a10.69,10.69,0,0,0-1.5,1.56c-.31.34-.57.71-.89,1L7.47,16.31C6.74,17,6,17.77,5.34,18.52S3.86,20.17,3.09,21c-.22.26-.5,1.06-1,.72-.72-.43-.11-1.15.08-1.53a4.45,4.45,0,0,1,.64-.84c.55-.68,1.09-1.36,1.68-2s1.23-1.15,1.81-1.76S7.39,14.28,8,13.67,9.16,12.57,9.72,12a12.9,12.9,0,0,1,1-1.25c.39-.31,1-.35,1.42-.61A12.87,12.87,0,0,0,13.46,9c.34-.27.68-.55,1-.82s.32-1.05,1.38-.06C16.16,8.39,16.42,9.26,16.09,9.47Z"/>
      <path class="cls-1" d="M16.43,18.7c-.07.21-.22.31-.32.48a.88.88,0,0,1-.38.36c-.48.19-1,.3-1.49.5a15.07,15.07,0,0,0-2,.87,10.72,10.72,0,0,0-1.53,1.32c-.32.29-.6.61-.93.88-.6.49-1.22.95-1.84,1.42s-1.49,1.19-2.23,1.8-1.58,1.34-2.4,2c-.24.21-.62.9-1,.53-.59-.48.07-1.07.29-1.39a4.71,4.71,0,0,1,.69-.7c.59-.55,1.18-1.11,1.8-1.63s1.27-.91,1.87-1.41,1.13-1.08,1.73-1.58,1.21-.89,1.78-1.37c.39-.31.66-.79,1.09-1.06s.95-.25,1.35-.46a12,12,0,0,0,1.26-.92,9.14,9.14,0,0,1,1-.66c.15-.07.23-.32.46-.32s.42-.05.79.29A.76.76,0,0,1,16.43,18.7Z"/>
      <path class="cls-1" d="M16.83,28.68c-.3.2-.5.58-.85.67-.51.14-1.07.19-1.57.35a15.55,15.55,0,0,0-2.15.65,10.6,10.6,0,0,0-1.69,1.18c-.35.26-.67.56-1,.78l-2,1.22L5,35.1c-.9.56-1.77,1.15-2.68,1.7-.14.08-.3.32-.52.42s-.44.13-.59-.05a.7.7,0,0,1-.07-.8c.11-.29.4-.44.52-.6a4.79,4.79,0,0,1,.79-.6c.67-.47,1.33-1,2-1.41s1.4-.76,2.07-1.19,1.27-1,1.93-1.4,1.31-.78,1.95-1.2a12.48,12.48,0,0,1,1.21-1c.42-.21,1-.13,1.43-.3a11.34,11.34,0,0,0,1.37-.8l1.09-.59c.15-.07.26-.29.45-.37s.49.09.84.51a1,1,0,0,1,.2.63C17,28.33,17,28.61,16.83,28.68Z"/>
      <path class="cls-1" d="M14,38.34c-.17.23-.27.55-.52.69s-.8.33-1.16.53a13.88,13.88,0,0,0-1.57.82,8.81,8.81,0,0,0-1.13,1.16c-.23.25-.44.53-.69.76-.46.41-.95.81-1.43,1.2L5.72,44.93l-2,1.52c-.2.16-.44.8-.88.31-.66-.67,0-1,.16-1.25A4,4,0,0,1,3.63,45c.49-.41,1-.84,1.47-1.23s1-.69,1.5-1.09.88-.87,1.33-1.29.92-.75,1.35-1.15.46-.68.78-.91.75-.23,1.06-.43a7.44,7.44,0,0,0,.91-.83c.24-.21.47-.43.72-.63s.23-.72,1-.11A.8.8,0,0,1,14,38.34Z"/>
      <path class="cls-1" d="M14,48.22c-.21.15-.32.48-.55.59s-.8.12-1.17.25a8.6,8.6,0,0,0-1.59.5,5.88,5.88,0,0,0-1.14,1c-.23.22-.43.48-.68.67L7.48,52.28q-.84.65-1.67,1.33L4,55.07c-.17.16-.4.73-.79.37-.58-.46-.09-.91.07-1.17a3.68,3.68,0,0,1,.5-.55,11.36,11.36,0,0,1,1.3-1.3c.45-.38,1-.68,1.43-1.05s.85-.82,1.31-1.2.93-.66,1.37-1,.48-.64.81-.82.77-.09,1.09-.23a6.87,6.87,0,0,0,1-.66,6.69,6.69,0,0,1,.8-.45c.11-.05.18-.25.31-.3s.38.08.7.47A1,1,0,0,1,14,48.22Z"/>
      <path class="cls-1" d="M14.81,56.69c-.26.15-.41.47-.7.56s-.89.17-1.31.31a12.92,12.92,0,0,0-1.78.56,8.63,8.63,0,0,0-1.38,1c-.29.22-.54.48-.85.67l-1.68,1L5.06,62.13,2.84,63.54c-.22.15-.54.79-.94.27-.61-.72.07-1,.3-1.27a4.56,4.56,0,0,1,.69-.46c.56-.39,1.11-.79,1.69-1.15s1.17-.62,1.72-1,1-.8,1.58-1.18,1.09-.65,1.6-1c.35-.24.6-.63,1-.82s.83-.11,1.19-.26A8.62,8.62,0,0,0,12.77,56l.88-.52c.23-.14.33-.82,1.09.11C15,55.86,15.08,56.54,14.81,56.69Z"/>
      <path class="cls-1" d="M16.32,65c-.27.18-.48.51-.8.59s-1,.17-1.43.3a15,15,0,0,0-2,.57,11,11,0,0,0-1.58,1c-.33.22-.63.48-1,.69L7.69,69.23c-.77.46-1.52.93-2.27,1.41s-1.64,1-2.47,1.54c-.24.17-.68.75-1,.39-.46-.49.22-.95.47-1.21a6.23,6.23,0,0,1,.72-.56A17.85,17.85,0,0,1,5,69.49c.62-.38,1.29-.69,1.91-1.07s1.19-.84,1.8-1.24,1.22-.69,1.81-1.06a10.82,10.82,0,0,1,1.14-.83c.39-.18.9-.12,1.31-.27a12.06,12.06,0,0,0,1.29-.68l1-.5c.27-.12.51-.69,1.15.12A.75.75,0,0,1,16.32,65Z"/>
      <path class="cls-1" d="M13.73,76.7c-.09.24,0,0,0-.17s0-.11,0-.13l0,0h0l.35.74h0l0,0a.5.5,0,0,1-.19.08c-.4.08-.84.05-1.24.12a13.22,13.22,0,0,0-1.73.24,7,7,0,0,0-1.37.78,9.51,9.51,0,0,1-.85.53c-.55.25-1.11.47-1.67.7s-1.38.55-2.08.8-1.52.55-2.29.79c-.12,0-.28.18-.46.22a.46.46,0,0,1-.48-.26.9.9,0,0,1,0-.81c.13-.21.35-.31.46-.42a2.48,2.48,0,0,1,.7-.28c.57-.24,1.13-.51,1.71-.73s1.16-.33,1.72-.54,1.06-.56,1.6-.82,1.07-.42,1.59-.68c.34-.17.6-.54,1-.66s.79.07,1.14,0a6.43,6.43,0,0,0,1.09-.5l.43-.19a2.17,2.17,0,0,1,.65-.21,1.27,1.27,0,0,1,.86.08.8.8,0,0,1,.35.63.51.51,0,0,1-.27.53.34.34,0,0,1-.37-.14,2,2,0,0,1-.16-.3s.07.12.1.15,0,0-.08.08A1.23,1.23,0,0,0,13.73,76.7Z"/>
      <path class="cls-1" d="M11.8,87.34c-.2.18-.36.46-.61.52s-.81.08-1.19.17a9.83,9.83,0,0,0-1.63.38,6.16,6.16,0,0,0-1.23.9c-.25.2-.48.44-.74.61l-1.48.93c-.6.39-1.19.79-1.79,1.19l-1.95,1.3c-.19.14-.41.76-.86.24-.68-.72-.08-1,.1-1.28A3.33,3.33,0,0,1,1,91.85a16.2,16.2,0,0,1,1.47-1.11c.5-.32,1.06-.54,1.56-.86s.93-.73,1.42-1.07,1-.57,1.45-.9c.31-.21.53-.59.88-.75s.78,0,1.11-.14a6.9,6.9,0,0,0,1-.58c.27-.14.54-.29.82-.42s.35-.69,1,.24C12,86.62,12,87.17,11.8,87.34Z"/>
      <path class="cls-1" d="M14.16,95.37c-.24.18-.39.52-.67.65s-.87.24-1.29.4a15.37,15.37,0,0,0-1.8.61,9.44,9.44,0,0,0-1.4,1,10.56,10.56,0,0,1-.87.68c-.57.36-1.15.68-1.73,1L4.25,101c-.77.45-1.59.84-2.38,1.25-.12.06-.28.24-.46.34a.42.42,0,0,1-.52-.12.68.68,0,0,1-.06-.74,3.08,3.08,0,0,1,.49-.44,4.67,4.67,0,0,1,.71-.45,18.67,18.67,0,0,1,1.75-1.1c.58-.32,1.22-.56,1.79-.9s1.08-.78,1.64-1.15,1.1-.65,1.63-1c.35-.24.61-.64,1-.84s.84-.12,1.2-.27a8.25,8.25,0,0,0,1.12-.73c.29-.18.6-.35.9-.52s.36-.76,1.07,0A.77.77,0,0,1,14.16,95.37Z"/>
      <path class="cls-1" d="M11.56,104.71c-.19.14-.3.45-.51.53s-.72.08-1.06.15a12.23,12.23,0,0,0-1.47.25,5.37,5.37,0,0,0-1.12.74,7.49,7.49,0,0,1-.69.5c-.45.25-.93.44-1.4.66l-1.73.78c-.63.27-1.26.55-1.92.77-.19.08-.49.61-.82,0-.5-.9.07-1,.26-1.22a2,2,0,0,1,.58-.28c.48-.22.95-.46,1.44-.66s1-.29,1.45-.5.87-.55,1.32-.79.9-.39,1.32-.64.48-.5.79-.62.69.06,1,0a4.83,4.83,0,0,0,.91-.46,5.38,5.38,0,0,1,.73-.32c.1,0,.17-.2.29-.24s.33.1.6.45a.91.91,0,0,1,.17.49C11.69,104.44,11.67,104.65,11.56,104.71Z"/>
      <path class="cls-1" d="M13.09,112.35c-.25.12-.42.44-.69.5s-.86.07-1.27.15a11,11,0,0,0-1.75.34,7.9,7.9,0,0,0-1.38.84c-.29.18-.55.41-.85.57-.55.29-1.11.55-1.67.83l-2,1-2.23,1.12c-.22.14-.59.69-.93.14A.71.71,0,0,1,.16,117c.12-.2.36-.29.47-.4a4,4,0,0,1,.69-.36c.57-.31,1.12-.64,1.7-.92s1.16-.46,1.71-.75,1.05-.67,1.6-1,1.08-.52,1.59-.82c.35-.2.61-.57,1-.72s.8,0,1.15-.12a7.23,7.23,0,0,0,1.11-.58L12,111c.23-.11.36-.79,1,.24C13.35,111.64,13.36,112.21,13.09,112.35Z"/>
      <path class="cls-1" d="M13.41,120.1a.73.73,0,0,0-.14.22.31.31,0,0,1-.2.14,6,6,0,0,0-1.09.21,8.75,8.75,0,0,0-1.67.55,7.52,7.52,0,0,0-1.23,1,9.85,9.85,0,0,1-.76.69c-.51.37-1,.7-1.59,1a15,15,0,0,1-2.09,1.1,11.36,11.36,0,0,1-2.49.73c-.25,0-.83.51-.94-.2-.19-1,.45-1,.7-1.09a4.3,4.3,0,0,1,.69-.16,15.5,15.5,0,0,0,1.65-.67A15.2,15.2,0,0,0,5.9,123a16.81,16.81,0,0,0,1.45-1.09c.47-.35,1-.65,1.45-1,.31-.25.51-.65.86-.85s.8-.12,1.14-.27.69-.47,1.07-.68a3.57,3.57,0,0,1,1.07-.41c.16,0,.38-.15.63-.09s.45.32.34.78a1.4,1.4,0,0,1-.28.45C13.51,119.94,13.46,120.06,13.41,120.1Z"/>
      <path class="cls-1" d="M15.54,127.5c-.27.18-.42.55-.73.65s-1,.2-1.42.35a17.81,17.81,0,0,0-1.94.58,11.58,11.58,0,0,0-1.55,1c-.32.22-.63.47-1,.66-.62.34-1.27.64-1.91,1s-1.57.76-2.37,1.12-1.75.73-2.63,1.08c-.25.15-.8.6-1.05.08a.69.69,0,0,1,0-.83,1.58,1.58,0,0,1,.56-.43,4.73,4.73,0,0,1,.8-.36c.65-.31,1.29-.66,2-.93s1.33-.46,2-.77,1.2-.72,1.81-1.06,1.2-.6,1.77-1a13.27,13.27,0,0,1,1.07-.83c.37-.18.88-.1,1.26-.25a8.32,8.32,0,0,0,1.19-.73c.31-.19.61-.39.94-.55s.35-.84,1.16.07C15.73,126.64,15.85,127.35,15.54,127.5Z"/>
      <path class="cls-1" d="M15.13,136.56c-.26.11-.45.39-.72.44s-.85.06-1.26.14a12.82,12.82,0,0,0-1.74.31,7.6,7.6,0,0,0-1.41.8c-.29.18-.57.39-.87.54l-1.69.78-2.07,1c-.75.35-1.49.72-2.26,1-.23.11-.6.68-.93.11-.52-.78.15-1,.38-1.24a3.68,3.68,0,0,1,.68-.38c.58-.29,1.14-.6,1.73-.86s1.18-.42,1.75-.68,1.08-.63,1.63-.91,1.1-.48,1.64-.74a8.81,8.81,0,0,1,1-.64c.35-.12.8,0,1.16-.08a8.26,8.26,0,0,0,1.14-.5l.9-.36c.12,0,.22-.23.37-.28s.35.06.63.5A.77.77,0,0,1,15.13,136.56Z"/>
      <path class="cls-1" d="M14.15,146.51c-.23.12-.39.42-.65.44s-.81,0-1.19,0a10.56,10.56,0,0,0-1.63.16,7,7,0,0,0-1.32.67,9.18,9.18,0,0,1-.82.45c-.53.21-1.07.39-1.6.58l-2,.7c-.72.25-1.46.45-2.18.67-.22.07-.62.57-.87,0-.39-.85.25-1,.48-1.12a3.13,3.13,0,0,1,.66-.24,16.63,16.63,0,0,1,1.64-.62c.54-.17,1.11-.25,1.64-.44s1-.49,1.54-.71,1-.36,1.51-.59c.33-.15.59-.48.93-.59s.74.08,1.06,0a5.66,5.66,0,0,0,1-.45l.81-.34c.22-.08.34-.74,1,.33C14.41,145.85,14.39,146.38,14.15,146.51Z"/>
      <path class="cls-1" d="M15.46,153.15c-.21.14-.36.44-.62.45s-.77,0-1.14,0a9.4,9.4,0,0,0-1.57.14,5.93,5.93,0,0,0-1.26.67c-.26.15-.5.34-.78.46-.5.22-1,.41-1.51.62l-1.87.74c-.68.27-1.37.51-2.06.75-.21.09-.57.56-.83,0-.42-.73.18-.93.39-1.1a3,3,0,0,1,.61-.31,13.68,13.68,0,0,1,1.53-.73c.51-.2,1.06-.31,1.56-.52s1-.51,1.47-.74,1-.37,1.46-.59c.32-.15.56-.48.9-.57s.72.09,1,0a5.65,5.65,0,0,0,1-.42l.8-.3c.21-.07.38-.62.92.34C15.73,152.52,15.69,153,15.46,153.15Z"/>
      <path class="cls-1" d="M18.64,159.51c-.26.2-.45.53-.76.64-.46.13-1,.18-1.44.3a12.89,12.89,0,0,0-2,.51A9.12,9.12,0,0,0,12.9,162c-.32.23-.61.51-.95.71-.61.37-1.25.71-1.87,1.07l-2.29,1.35c-.82.49-1.66,1-2.51,1.43-.24.18-.69.75-1.05.24a.72.72,0,0,1-.12-.87,1.91,1.91,0,0,1,.49-.53,4.58,4.58,0,0,1,.75-.51,21.66,21.66,0,0,1,1.89-1.2c.63-.35,1.31-.61,1.93-1s1.18-.84,1.78-1.22,1.21-.67,1.79-1.05c.39-.25.67-.69,1.09-.89s.92-.07,1.32-.22a11.21,11.21,0,0,0,1.25-.72l1-.51c.25-.17.43-.8,1.2.18C18.84,158.58,18.93,159.33,18.64,159.51Z"/>
      <path class="cls-1" d="M19.48,167.33c-.28.13-.46.49-.78.55s-1,.06-1.41.15a12.49,12.49,0,0,0-1.94.37,8.51,8.51,0,0,0-1.54.93c-.32.2-.62.45-.95.63-.61.33-1.23.62-1.85.92L8.73,172l-2.46,1.27c-.25.14-.69.7-1,.19-.51-.68.17-1.08.42-1.32a4.67,4.67,0,0,1,.76-.43c.62-.36,1.23-.75,1.87-1.08s1.28-.54,1.9-.87,1.17-.76,1.78-1.09,1.21-.57,1.79-.9c.39-.21.69-.62,1.11-.78s.89,0,1.29-.13a8.59,8.59,0,0,0,1.25-.61c.33-.15.65-.31,1-.44s.43-.84,1.14.27C19.79,166.56,19.78,167.2,19.48,167.33Z"/>
      <path class="cls-1" d="M18,176.18c-.25.12-.46.39-.73.42s-.83-.08-1.23-.07a11.52,11.52,0,0,0-1.74,0,5.9,5.9,0,0,0-1.44.63c-.3.14-.58.34-.89.45-.56.2-1.14.37-1.71.56l-2.1.71c-.76.25-1.51.54-2.29.76-.21.13-.68.51-.94,0a.81.81,0,0,1,0-.86c.09-.29.35-.32.46-.44a2.42,2.42,0,0,1,.69-.32c.58-.24,1.16-.5,1.76-.7s1.2-.27,1.77-.46,1.11-.51,1.67-.73,1.12-.33,1.67-.55c.36-.14.66-.5,1-.57s.79.19,1.15.16a7.26,7.26,0,0,0,1.17-.32l.92-.21c.12,0,.24-.22.4-.21s.36.22.57.7a1.11,1.11,0,0,1,.06.62C18.19,175.89,18.11,176.13,18,176.18Z"/>
      <path class="cls-1" d="M19.13,183.23a2.59,2.59,0,0,0,0,.44v.1s0,.05,0,0-.05-.06-.08-.1l-.05,0h0l.13.2h0a.56.56,0,0,1-.22.09c-.46.07-1,0-1.44.13a11.2,11.2,0,0,0-2,.37,7.78,7.78,0,0,0-1.53,1c-.32.22-.6.49-.93.68-.6.34-1.23.65-1.84,1l-2.24,1.27c-.81.46-1.63.92-2.43,1.4-.24.16-.59.83-1,.26-.65-.77.07-1.14.32-1.39a4.46,4.46,0,0,1,.73-.5c.6-.42,1.19-.86,1.82-1.23s1.29-.6,1.9-1,1.15-.82,1.75-1.2,1.21-.62,1.79-1c.39-.23.68-.67,1.1-.84s.92,0,1.32-.12a8.37,8.37,0,0,0,1.26-.64L18,182a2.61,2.61,0,0,1,.64-.24c.21,0,.47-.26.88-.17a.81.81,0,0,1,.52.54.54.54,0,0,1-.37.68,1.64,1.64,0,0,1-.36,0c-.12,0,0,0,0,0A.92.92,0,0,0,19.13,183.23Z"/>
      <path class="cls-1" d="M21.62,191.55a.61.61,0,0,0-.3.12.36.36,0,0,1-.28,0,3,3,0,0,0-1.17-.27,7.3,7.3,0,0,0-2,.2,10.06,10.06,0,0,0-1.7.87,11.5,11.5,0,0,1-1.06.57c-.68.28-1.37.51-2.06.76l-2.54.92c-.92.32-1.87.59-2.8.89-.25.17-.92.41-1.07.07s0-.44.15-.68a1.37,1.37,0,0,1,.58-.45,5.4,5.4,0,0,1,.84-.36c.69-.3,1.35-.66,2.07-.89s1.4-.39,2.08-.66,1.3-.65,2-1,1.3-.51,1.93-.8a11.81,11.81,0,0,1,1.2-.75c.4-.13.93,0,1.38-.06s1-.36,1.52-.46a4,4,0,0,1,1.37,0c.18,0,.47,0,.69.08s.36.43.11,1A1.65,1.65,0,0,1,21.62,191.55Z"/>
      <path class="cls-1" d="M20.4,201.25c-.22.09-.37.46-.62.45s-.75-.14-1.12-.15a6.9,6.9,0,0,0-1.57-.08,4.8,4.8,0,0,0-1.26.6,8.06,8.06,0,0,1-.77.43c-.5.19-1,.35-1.51.52l-1.84.68c-.67.25-1.34.49-2,.73-.2.09-.51.62-.84,0-.51-.89.1-1.05.3-1.23a2.58,2.58,0,0,1,.62-.29,14,14,0,0,1,1.54-.68c.51-.18,1.06-.26,1.57-.45s1-.5,1.46-.72,1-.33,1.46-.55c.32-.14.57-.5.91-.58s.72.19,1,.16a5.94,5.94,0,0,0,1-.35,5.41,5.41,0,0,1,.82-.21c.11,0,.21-.2.34-.21s.33.23.56.75a1.49,1.49,0,0,1,.1.68C20.58,201,20.52,201.21,20.4,201.25Z"/>
      <path class="cls-1" d="M23.79,207.55c-.25.12-.5.36-.76.34s-.78-.23-1.17-.3a7.77,7.77,0,0,0-1.68-.28,5.14,5.14,0,0,0-1.46.47c-.3.11-.59.28-.9.36-.56.15-1.13.28-1.7.42s-1.38.38-2.07.59-1.48.5-2.24.71c-.23.09-.59.63-.92,0-.51-.93.15-1.13.39-1.33a2.08,2.08,0,0,1,.7-.3c.58-.23,1.16-.48,1.77-.65s1.2-.22,1.78-.38,1.13-.45,1.71-.62,1.14-.22,1.71-.37c.37-.09.71-.42,1.11-.44s.76.29,1.12.31a6.79,6.79,0,0,0,1.19-.18c.31,0,.62,0,.94-.05s.61-.46.86.67A1,1,0,0,1,23.79,207.55Z"/>
      <path class="cls-1" d="M24.59,215.61c-.27.12-.5.36-.79.4s-.89,0-1.33.05a11.74,11.74,0,0,0-1.84.23,8,8,0,0,0-1.53.76c-.32.17-.61.38-.93.54l-1.79.79c-.73.33-1.45.69-2.17,1.05s-1.55.8-2.32,1.21c-.23.13-.58.76-1,.2-.59-.78.13-1.06.38-1.27a4.55,4.55,0,0,1,.73-.4c.6-.34,1.19-.69,1.81-1s1.24-.49,1.84-.77,1.15-.66,1.75-1,1.18-.47,1.76-.74a9.45,9.45,0,0,1,1.12-.63c.38-.11.84,0,1.22,0a10.12,10.12,0,0,0,1.24-.45l1-.31c.25-.11.54-.63,1,.32C25,214.89,24.88,215.49,24.59,215.61Z"/>
      <path class="cls-1" d="M25.94,222.7c-.25.13-.47.37-.73.41s-.82,0-1.23-.06a9.72,9.72,0,0,0-1.73,0,6.57,6.57,0,0,0-1.45.6c-.3.14-.59.32-.89.43l-1.71.56-2.1.72-2.27.8c-.12,0-.27.21-.43.29s-.36,0-.5-.29a.84.84,0,0,1-.06-.9,2,2,0,0,1,.5-.34,3.47,3.47,0,0,1,.71-.28c.58-.24,1.16-.5,1.75-.7s1.19-.29,1.76-.49,1.11-.5,1.68-.71,1.12-.33,1.67-.54c.36-.13.68-.46,1.06-.54s.78.15,1.14.11a8.56,8.56,0,0,0,1.17-.34l.92-.2c.23-.09.52-.54.95.43A.87.87,0,0,1,25.94,222.7Z"/>
      <path class="cls-1" d="M22.31,232.45c-.21.07-.4.28-.62.26s-.66-.17-1-.21a7.67,7.67,0,0,0-1.38-.22,5.71,5.71,0,0,0-1.21.31,7,7,0,0,1-.76.22c-.47.07-1,.11-1.43.17l-1.76.22-1.91.19c-.19,0-.61.39-.71-.22-.18-.86.37-.86.59-.92a2.53,2.53,0,0,1,.6,0c.49-.05,1-.13,1.47-.17s1,0,1.43-.06.93-.23,1.39-.33.9-.13,1.35-.24.57-.31.87-.34.59.21.88.22a5.42,5.42,0,0,0,.93-.19l.73-.12c.19-.06.42-.54.74.49C22.64,231.89,22.53,232.35,22.31,232.45Z"/>
      <path class="cls-1" d="M25.95,239.92l-.06,0s0,0,0,0,0-.11.05-.17a.13.13,0,0,0,0-.19l0,0h0l.08.54h0l-.06,0a.78.78,0,0,1-.24,0c-.47,0-1-.17-1.43-.2a17.82,17.82,0,0,0-2-.21,9.87,9.87,0,0,0-1.83.38c-.38.09-.76.23-1.14.29-.71.11-1.42.19-2.12.3l-2.61.4-2.83.44c-.29,0-.87.62-1.07-.2-.33-1.16.51-1.13.84-1.26a4.48,4.48,0,0,1,.89-.12c.73-.12,1.46-.26,2.2-.35s1.44-.06,2.15-.16,1.4-.31,2.11-.43,1.37-.15,2-.27a11.42,11.42,0,0,1,1.34-.36c.42,0,.87.25,1.29.26a11.53,11.53,0,0,0,1.43-.15l.56,0a2.21,2.21,0,0,1,.72,0,1.44,1.44,0,0,1,.78.33.79.79,0,0,1,.15.64.43.43,0,0,1-.28.34.29.29,0,0,1-.29-.1.66.66,0,0,1-.1-.22s-.06-.12,0-.06a.72.72,0,0,0,.06.09c.05,0,0,0-.1,0A1.29,1.29,0,0,0,25.95,239.92Z"/>
      <path class="cls-1" d="M24,251.19c-.25,0-.55.26-.78.16s-.67-.4-1-.54a9.69,9.69,0,0,0-1.47-.69,4.91,4.91,0,0,0-1.46.05,9.26,9.26,0,0,1-.92.1c-.56,0-1.11-.07-1.66-.1l-2.05-.1L12.34,250c-.23,0-.74.5-.81-.42-.14-1.32.52-1.15.79-1.24a2.48,2.48,0,0,1,.72,0c.59,0,1.18,0,1.77,0s1.14.21,1.7.25,1.14-.06,1.71-.05,1.09.12,1.64.13c.36,0,.76-.21,1.11-.13s.61.49.93.6a6.13,6.13,0,0,0,1.13.15,8.08,8.08,0,0,1,.87.17c.23,0,.67-.37.64.82C24.52,250.73,24.23,251.17,24,251.19Z"/>
      <path class="cls-1" d="M22.56,260.27c-.23,0-.44.34-.67.31s-.71-.28-1.06-.36a7.59,7.59,0,0,0-1.49-.36,4.37,4.37,0,0,0-1.31.37,7.18,7.18,0,0,1-.82.29c-.51.1-1,.13-1.54.19l-1.9.24-2.07.24c-.21,0-.61.58-.81-.29-.33-1.25.3-1.18.53-1.3a2.14,2.14,0,0,1,.65-.09c.53-.09,1.06-.22,1.6-.27s1.06,0,1.58-.06,1-.3,1.52-.41,1-.09,1.5-.2c.33-.07.63-.37,1-.37s.66.35,1,.39a4.23,4.23,0,0,0,1-.16,6.16,6.16,0,0,1,.81-.07c.11,0,.23-.18.36-.18s.28.24.42.87S22.8,260.15,22.56,260.27Z"/>
      <path class="cls-1" d="M19.17,267.45c-.24.14-.4.46-.66.55s-.85.11-1.25.22a11.73,11.73,0,0,0-1.73.41,7.13,7.13,0,0,0-1.34.92c-.28.2-.53.44-.82.61-.53.31-1.09.6-1.63.9l-2,1.13c-.73.4-1.43.84-2.18,1.21-.11.06-.24.25-.4.34a.41.41,0,0,1-.54-.2.86.86,0,0,1-.18-.87,2.25,2.25,0,0,1,.43-.45,2.36,2.36,0,0,1,.66-.42c.56-.33,1.1-.68,1.67-1s1.16-.49,1.7-.8,1-.71,1.56-1,1.06-.56,1.57-.87c.34-.21.59-.59,1-.74s.81,0,1.16-.14a7.37,7.37,0,0,0,1.1-.6c.28-.15.58-.28.88-.42s.35-.75,1,.18C19.42,266.78,19.42,267.3,19.17,267.45Z"/>
      <path class="cls-1" d="M28.53,276.31l0,0h0l0,.19h0v0a.84.84,0,0,0,.08.17,2.33,2.33,0,0,0,.23.32c.09.12.4.43.33.37a.64.64,0,0,1-.28.39c-.47.31-1,.53-1.51.85a12.49,12.49,0,0,0-1.94,1.4,10.25,10.25,0,0,0-1.18,1.83c-.24.39-.43.82-.69,1.19l-1.5,2-1.78,2.51-1.86,2.69c-.05,0,0,.09-.08.08s0,0,0,0l0,0-.18.08h0a.23.23,0,0,0,0-.12.05.05,0,0,0,0,.05s.05.08.09.1,0,0,0,0a.26.26,0,0,1,.1-.07.33.33,0,0,1,.17,0s0,0,.08,0a.33.33,0,0,1,.05.17.49.49,0,0,1-.18.37,1.43,1.43,0,0,1-.39.21.74.74,0,0,1-.71-.13l-.09-.09s0,0-.06-.09h-.05s-.07,0-.06-.08a1.54,1.54,0,0,1-.12-.34,1.72,1.72,0,0,1,0-.84,1.45,1.45,0,0,1,.27-.57c.1-.14.22-.28.31-.43.46-.74.9-1.49,1.41-2.21s1.08-1.3,1.56-2,.85-1.45,1.32-2.16,1-1.29,1.43-2a12.43,12.43,0,0,1,.77-1.46c.33-.37,1-.49,1.33-.83a10.2,10.2,0,0,0,1-1.35c.29-.36.5-.65.87-1.06a5.1,5.1,0,0,1,.4-.4,1.27,1.27,0,0,1,.4-.21,1,1,0,0,1,.32-.05h.07a1.1,1.1,0,0,1,.25,0,.94.94,0,0,1,.63.86c0,.35-.25.75-.59.65a.91.91,0,0,1-.21-.13s0,0,0,0a.28.28,0,0,0-.16.07S28.49,276.38,28.53,276.31Z"/>
      <path class="cls-1" d="M36.33,278.39c-.25.21-.38.59-.68.71-.45.16-1,.25-1.41.44a9.63,9.63,0,0,0-1.89.87,7.4,7.4,0,0,0-1.27,1.41c-.26.31-.46.65-.73.95-.49.54-1,1.07-1.44,1.63s-1.1,1.41-1.6,2.15-1.05,1.64-1.55,2.48c-.14.27-.21,1-.76.78-.79-.26-.41-1-.33-1.4a4.47,4.47,0,0,1,.45-.84,22.86,22.86,0,0,1,1.2-2c.44-.62,1-1.17,1.43-1.76s.85-1.25,1.33-1.84,1-1.05,1.49-1.59c.33-.35.52-.87.91-1.17s.92-.29,1.3-.52a13.31,13.31,0,0,0,1.18-.95c.32-.23.63-.46,1-.66s.4-.88,1.26.09A1,1,0,0,1,36.33,278.39Z"/>
      <path class="cls-1" d="M46.54,274a3.69,3.69,0,0,1-.34,1.56,10.61,10.61,0,0,1-1.44,1.4c-.62.6-1.36,1.1-1.92,1.75a13.93,13.93,0,0,0-1.26,2c-.26.43-.47.9-.76,1.31-.53.75-1.1,1.46-1.66,2.19-.68.9-1.37,1.79-2.08,2.67l-2.34,2.84c-.12.14-.2.48-.38.68a.52.52,0,0,1-.79,0,1,1,0,0,1-.59-1,2.55,2.55,0,0,1,.42-.8,6,6,0,0,1,.72-.88c.58-.74,1.13-1.51,1.73-2.23s1.26-1.32,1.83-2,1-1.52,1.53-2.26,1.08-1.37,1.57-2.09a16,16,0,0,1,.84-1.55c.35-.4,1-.58,1.38-1a10.1,10.1,0,0,0,1-1.45,8.73,8.73,0,0,0,.63-1.08c.07-.14,0-.36,0-.52s.29-.26.87-.43a.76.76,0,0,1,.68.14A.77.77,0,0,1,46.54,274Z"/>
      <path class="cls-1" d="M54.49,278c-.18.21-.24.54-.46.7s-.74.39-1.08.62a14.14,14.14,0,0,0-1.46.94,8.53,8.53,0,0,0-1,1.23c-.21.26-.38.56-.61.8-.42.45-.86.87-1.29,1.3l-1.63,1.56-1.81,1.65c-.18.17-.36.82-.84.37-.71-.61-.13-1,0-1.25a3.83,3.83,0,0,1,.55-.52c.44-.44.87-.9,1.33-1.33s.95-.76,1.38-1.19.79-.92,1.2-1.36.84-.8,1.23-1.24a9.77,9.77,0,0,1,.68-1c.27-.23.72-.29,1-.5a7.4,7.4,0,0,0,.82-.89c.21-.23.43-.46.66-.67s.08-.8,1-.2C54.53,277.35,54.68,277.8,54.49,278Z"/>
      <path class="cls-1" d="M71.55,271.83a9.9,9.9,0,0,1-1.1,1.2c-.65.46-1.36.83-2,1.29-.92.64-1.93,1.17-2.79,1.88a27.79,27.79,0,0,0-2.22,2.19c-.46.47-.89,1-1.37,1.41l-2.66,2.42-3.27,3-3.55,3.24c-.36.34-1,1.38-1.43.94-.75-.58.31-1.43.68-1.88a14.58,14.58,0,0,1,1.09-1c.89-.86,1.76-1.73,2.67-2.57s1.82-1.54,2.7-2.34S60,279.87,60.83,279s1.71-1.52,2.54-2.32c.55-.53,1-1.2,1.56-1.68s1.27-.67,1.83-1.09,1.18-1.06,1.78-1.59l1.41-1.21c.35-.34.65-1.14,1.65-.6C72,270.78,71.94,271.4,71.55,271.83Z"/>
      <path class="cls-1" d="M76.38,277.25c-.26.22-.38.59-.68.76s-.93.4-1.36.65a17,17,0,0,0-1.86,1,10,10,0,0,0-1.33,1.43c-.27.31-.51.65-.8.94l-1.6,1.57c-.65.65-1.27,1.33-1.9,2s-1.35,1.48-2,2.23c-.2.24-.35,1-.94.6-.88-.58-.22-1.15,0-1.47a5.6,5.6,0,0,1,.63-.71c.51-.59,1-1.19,1.56-1.76s1.13-1,1.65-1.55,1-1.16,1.48-1.71,1-1,1.55-1.53a12.13,12.13,0,0,1,.92-1.15c.34-.28.89-.34,1.26-.57a11.55,11.55,0,0,0,1.14-1l.91-.74c.24-.19.27-.92,1.21-.14A.82.82,0,0,1,76.38,277.25Z"/>
      <path class="cls-1" d="M88.81,275.57c-.22.14-.38.4-.62.49s-.75.22-1.11.35-1.06.32-1.54.56a8.17,8.17,0,0,0-1.22.9c-.25.19-.48.42-.75.6l-1.46.94-1.78,1.18-1.93,1.29c-.2.13-.44.74-.84.23-.62-.71,0-1,.21-1.19a3.8,3.8,0,0,1,.62-.4c.5-.34,1-.69,1.5-1s1-.54,1.53-.85.93-.7,1.41-1,1-.58,1.42-.89a9.54,9.54,0,0,1,.87-.72c.3-.16.72-.11,1-.25a9.1,9.1,0,0,0,1-.59l.79-.44c.21-.11.34-.63.91,0A.55.55,0,0,1,88.81,275.57Z"/>
      <path class="cls-1" d="M103.4,272.61a4.91,4.91,0,0,0-.46.66,2.48,2.48,0,0,1-.55.56c-.63.44-1.34.79-2,1.22-.9.61-1.87,1.13-2.71,1.81A27.78,27.78,0,0,0,95.56,279c-.45.45-.86.93-1.33,1.36-.86.78-1.75,1.53-2.62,2.28l-3.24,2.8-3.55,3c-.36.31-1,1.29-1.42.84-.68-.57.37-1.35.75-1.77a14.24,14.24,0,0,1,1.08-1c.88-.79,1.75-1.61,2.65-2.39s1.8-1.43,2.65-2.2,1.63-1.62,2.46-2.41,1.65-1.47,2.44-2.24c.52-.51.91-1.18,1.47-1.66s1.24-.63,1.78-1a22,22,0,0,0,1.68-1.57l1.32-1.21c.36-.31.55-1.16,1.64-.55A.87.87,0,0,1,103.4,272.61Z"/>
      <path class="cls-1" d="M113.3,273.57c-.28.29-.46.7-.78.93-.49.33-1,.6-1.54.91a22.73,22.73,0,0,0-2.14,1.34,15.52,15.52,0,0,0-1.61,1.68c-.33.36-.63.75-1,1.09-.64.62-1.31,1.22-2,1.81l-2.43,2.23L99.21,286c-.26.25-.65,1.08-1.11.67-.7-.55.09-1.18.36-1.53a8.5,8.5,0,0,1,.8-.78c.65-.65,1.28-1.32,2-2s1.36-1.15,2-1.76,1.21-1.31,1.84-1.93,1.27-1.14,1.88-1.75c.4-.4.68-.94,1.12-1.3s1-.45,1.43-.75.86-.82,1.31-1.2l1.05-.9c.27-.24.38-1,1.32-.35A.76.76,0,0,1,113.3,273.57Z"/>
      <path class="cls-1" d="M121,273.85a4.78,4.78,0,0,1-.7,1.07c-.46.4-1,.69-1.53,1.05a25.91,25.91,0,0,0-2.12,1.53,19,19,0,0,0-1.57,1.82c-.33.39-.62.8-1,1.16-.64.66-1.32,1.3-2,1.95l-2.44,2.39L107,287.39c-.27.26-.66,1.14-1.15.69-.75-.6.08-1.24.36-1.59a8.83,8.83,0,0,1,.83-.8c.67-.67,1.33-1.36,2-2s1.38-1.21,2-1.87,1.2-1.39,1.82-2.07,1.24-1.26,1.82-1.92a16.22,16.22,0,0,1,1.06-1.42c.39-.37,1-.52,1.42-.86a15.08,15.08,0,0,0,1.25-1.34l1-1c.25-.28.37-1,1.33-.47A.79.79,0,0,1,121,273.85Z"/>
      <path class="cls-1" d="M132.64,272.73a3.55,3.55,0,0,1-.81.91c-.52.27-1.1.45-1.64.7a18.23,18.23,0,0,0-2.25,1.1,12.67,12.67,0,0,0-1.68,1.57c-.35.34-.66.72-1,1-.67.58-1.36,1.13-2,1.69l-2.49,2.12L118,284.18c-.27.25-.65,1.07-1.17.58-.78-.65,0-1.31.23-1.67a6.84,6.84,0,0,1,.82-.75c.67-.63,1.32-1.27,2-1.87s1.43-1.06,2.1-1.64,1.26-1.25,1.92-1.84,1.33-1.06,2-1.63a14.87,14.87,0,0,1,1.19-1.25c.43-.3,1.06-.33,1.51-.59a16.48,16.48,0,0,0,1.39-1.1l1.12-.81c.28-.24.48-.91,1.4-.13A.91.91,0,0,1,132.64,272.73Z"/>
      <path class="cls-1" d="M143.67,270.71c-.22.26-.29.67-.57.87s-.88.51-1.3.79a19.27,19.27,0,0,0-1.78,1.17,12.82,12.82,0,0,0-1.3,1.47c-.27.31-.51.65-.8.95-.53.53-1.09,1-1.63,1.56l-2,1.91-2.24,2c-.23.21-.52,1-1,.47-.74-.66-.06-1.16.16-1.46a4.82,4.82,0,0,1,.7-.62c.57-.52,1.12-1.06,1.7-1.57s1.18-.92,1.73-1.43,1-1.1,1.53-1.63,1-1,1.54-1.5c.33-.35.53-.82.89-1.14s.85-.38,1.2-.65a12.48,12.48,0,0,0,1-1.07c.28-.27.54-.55.84-.8s.27-.83,1.13-.32A.69.69,0,0,1,143.67,270.71Z"/>
      <path class="cls-1" d="M154.82,274.54c-.27.15-.44.5-.73.59s-.92.17-1.36.3a12.22,12.22,0,0,0-1.86.59,8.27,8.27,0,0,0-1.43,1.08c-.3.23-.56.51-.87.72L146.87,279c-.69.49-1.36,1-2,1.52l-2.16,1.71c-.21.19-.49.86-.93.43-.66-.58,0-1.05.18-1.33a4.93,4.93,0,0,1,.65-.59c.54-.48,1.08-1,1.66-1.4s1.18-.76,1.74-1.17,1.06-.91,1.62-1.33,1.12-.74,1.67-1.13c.37-.25.64-.67,1-.87s.88-.13,1.26-.28a10.83,10.83,0,0,0,1.2-.7c.32-.17.63-.35,1-.5.13-.06.24-.25.4-.32s.41.05.72.44a.87.87,0,0,1,.17.57C155,274.25,155,274.47,154.82,274.54Z"/>
      <path class="cls-1" d="M168.27,272.43c-.31.3-.53.73-.9.94-.54.31-1.19.47-1.76.75a21.76,21.76,0,0,0-2.42,1.17,15.83,15.83,0,0,0-1.87,1.62c-.39.35-.74.74-1.15,1.06l-2.26,1.73-2.77,2.16-3,2.3c-.3.24-.78,1.1-1.25.59-.72-.68.17-1.29.48-1.64a8.29,8.29,0,0,1,.91-.76c.75-.64,1.47-1.31,2.25-1.9s1.58-1.06,2.33-1.64,1.42-1.26,2.15-1.87,1.46-1.09,2.15-1.68c.47-.39.8-.95,1.31-1.29s1.12-.36,1.6-.64a14.94,14.94,0,0,0,1.5-1.16c.4-.29.8-.57,1.21-.84.16-.1.27-.38.49-.48s.55,0,1,.31a.77.77,0,0,1,.26.58A.86.86,0,0,1,168.27,272.43Z"/>
      <path class="cls-1" d="M181.74,267.54c-.32.36-.52.85-.91,1.12-.59.38-1.25.68-1.85,1a23,23,0,0,0-2.55,1.55,17.86,17.86,0,0,0-1.88,2c-.39.43-.74.89-1.15,1.29-.76.73-1.54,1.44-2.31,2.16l-2.83,2.67-3.06,2.92c-.3.31-.76,1.28-1.27.83-.79-.58.12-1.37.42-1.78a10.51,10.51,0,0,1,.92-1c.75-.79,1.48-1.6,2.26-2.36s1.58-1.39,2.33-2.13,1.41-1.57,2.14-2.32,1.48-1.38,2.18-2.11c.47-.48.78-1.14,1.29-1.58s1.19-.53,1.69-.89,1-1,1.53-1.45l1.23-1.08c.3-.31.43-1.16,1.61-.35A1.07,1.07,0,0,1,181.74,267.54Z"/>
      <path class="cls-1" d="M189.58,267.54c-.2.34-.25.8-.5,1.1-.41.41-.92.74-1.34,1.13-.59.56-1.33,1-1.87,1.6a14.64,14.64,0,0,0-1.29,1.86c-.27.4-.49.83-.79,1.19-.55.67-1.14,1.31-1.72,2-.72.8-1.43,1.59-2.17,2.37s-1.62,1.67-2.44,2.49c-.25.25-.51,1.16-1.13.61-.94-.75-.15-1.33.09-1.68a6.16,6.16,0,0,1,.75-.77c.61-.65,1.18-1.32,1.8-2s1.27-1.17,1.83-1.81,1-1.38,1.55-2.05,1.09-1.23,1.58-1.89a16.44,16.44,0,0,1,.87-1.41c.34-.37.93-.53,1.3-.89a12,12,0,0,0,1.06-1.35,13.08,13.08,0,0,1,.86-1c.21-.28.21-1,1.21-.56A.78.78,0,0,1,189.58,267.54Z"/>
      <path class="cls-1" d="M201,269.26c-.3.26-.47.69-.8.9-.5.31-1.06.54-1.57.82a23.16,23.16,0,0,0-2.19,1.18,15.63,15.63,0,0,0-1.68,1.56c-.35.33-.67.7-1,1-.68.56-1.38,1.09-2.07,1.64l-2.56,2-2.82,2.12c-.29.22-.69,1.08-1.22.45-.81-.86.08-1.33.37-1.64a6.66,6.66,0,0,1,.89-.65c.72-.55,1.42-1.12,2.15-1.65s1.47-1,2.16-1.49,1.3-1.17,2-1.73,1.32-1,2-1.58c.42-.37.71-.89,1.16-1.22s1-.37,1.45-.64.88-.76,1.34-1.12l1.07-.84c.28-.22.36-1,1.33-.27A.78.78,0,0,1,201,269.26Z"/>
      <path class="cls-1" d="M215,267.43c-.25.31-.33.77-.63,1s-1,.62-1.48,1a24.51,24.51,0,0,0-2,1.41,14,14,0,0,0-1.44,1.76c-.3.38-.56.78-.89,1.13-.6.64-1.23,1.25-1.84,1.86l-2.29,2.28-2.53,2.43c-.26.25-.59,1.11-1.16.58-.85-.69-.1-1.33.14-1.69a6.32,6.32,0,0,1,.79-.75c.63-.63,1.24-1.29,1.89-1.91s1.33-1.12,1.94-1.74,1.12-1.33,1.69-2,1.17-1.18,1.71-1.82a16.37,16.37,0,0,1,1-1.38c.37-.35,1-.45,1.39-.77a11.66,11.66,0,0,0,1.17-1.28c.3-.34.63-.64,1-1,.13-.12.18-.39.34-.53s.5-.11,1,.15A1,1,0,0,1,215,267.43Z"/>
      <path class="cls-1" d="M227.93,267.91c-.26.31-.43.74-.77,1-.51.31-1.09.52-1.6.82a19.56,19.56,0,0,0-2.22,1.23,13,13,0,0,0-1.61,1.68c-.33.36-.63.76-1,1.1l-2,1.8c-.8.75-1.62,1.48-2.44,2.22l-2.7,2.37c-.14.12-.28.41-.5.57s-.46.23-.66.05a.75.75,0,0,1-.21-.87c.08-.33.37-.56.48-.75a6.9,6.9,0,0,1,.77-.82q.93-1,1.94-2c.66-.61,1.4-1.12,2.07-1.71s1.23-1.3,1.88-1.92,1.3-1.12,1.92-1.72a15.06,15.06,0,0,1,1.13-1.31c.42-.32,1.05-.38,1.5-.67a17.08,17.08,0,0,0,1.34-1.18l1.08-.88c.27-.25.39-1,1.4-.22A.94.94,0,0,1,227.93,267.91Z"/>
      <path class="cls-1" d="M239.75,267.5c-.34.34-.52.86-.92,1.13-.58.4-1.23.71-1.81,1.1-.82.56-1.72,1-2.49,1.63a24,24,0,0,0-2,1.94c-.41.41-.79.86-1.22,1.24-.79.71-1.6,1.39-2.41,2.07l-3,2.54-3.29,2.69c-.33.28-.91,1.17-1.32.75-.65-.55.31-1.26.65-1.65a11.8,11.8,0,0,1,1-.87c.81-.73,1.59-1.48,2.42-2.19s1.67-1.28,2.46-2,1.5-1.47,2.27-2.19,1.52-1.33,2.25-2a20,20,0,0,1,1.36-1.51c.48-.38,1.16-.54,1.66-.9a19.58,19.58,0,0,0,1.55-1.42c.41-.36.8-.74,1.23-1.08s.52-1.06,1.49-.49A.85.85,0,0,1,239.75,267.5Z"/>
      <path class="cls-1" d="M249.66,272.38c-.28.2-.44.59-.77.73-.48.19-1,.3-1.49.51a15.13,15.13,0,0,0-2,.86,10.25,10.25,0,0,0-1.5,1.35c-.31.29-.58.62-.91.89l-1.82,1.43c-.74.59-1.47,1.21-2.2,1.82l-2.36,2c-.24.21-.47,1-1.07.46-.9-.8-.14-1.28.09-1.59a5.15,5.15,0,0,1,.74-.64c.6-.54,1.19-1.1,1.81-1.6s1.29-.89,1.89-1.38,1.13-1.08,1.72-1.59,1.19-.9,1.76-1.39c.38-.32.64-.82,1.07-1.08s1-.21,1.38-.42a10.88,10.88,0,0,0,1.26-.92c.33-.23.66-.46,1-.68s.33-1,1.28,0C249.9,271.55,250,272.16,249.66,272.38Z"/>
      <path class="cls-1" d="M263.43,267.43c-.3.3-.42.8-.76,1-.51.36-1.16.56-1.68.9a17.48,17.48,0,0,0-2.27,1.42,12.21,12.21,0,0,0-1.55,1.91c-.32.41-.58.86-.92,1.25l-1.88,2.1-2.26,2.65c-.82,1-1.62,1.93-2.41,2.92-.23.31-.42,1.29-1.11.84-1-.58-.29-1.38-.09-1.8a7.15,7.15,0,0,1,.7-1c.57-.8,1.13-1.62,1.75-2.38s1.34-1.37,2-2.09,1.13-1.53,1.74-2.27,1.25-1.33,1.84-2a12.15,12.15,0,0,1,1.07-1.51c.42-.37,1.12-.46,1.57-.79a14,14,0,0,0,1.35-1.35c.35-.35.73-.66,1.11-1,.15-.12.22-.42.41-.57a.49.49,0,0,1,.41-.06,2.42,2.42,0,0,1,.71.38C263.48,266.29,263.75,267.12,263.43,267.43Z"/>
      <path class="cls-1" d="M277.6,269.47c-.32.24-.53.65-.89.81-.54.22-1.15.35-1.69.58a21,21,0,0,0-2.32.95,12.77,12.77,0,0,0-1.78,1.45c-.37.31-.71.67-1.09,1l-2.16,1.53-2.65,1.9-2.88,2.06c-.29.22-.72,1-1.2.49-.74-.74.12-1.28.41-1.6a7,7,0,0,1,.87-.69c.71-.58,1.4-1.17,2.14-1.72s1.5-.94,2.22-1.46,1.35-1.14,2.05-1.68,1.4-1,2.07-1.48a15,15,0,0,1,1.26-1.17c.44-.27,1.08-.24,1.55-.47a13.09,13.09,0,0,0,1.46-1l1.15-.75c.3-.2.45-1,1.42,0A.93.93,0,0,1,277.6,269.47Z"/>
      <path class="cls-1" d="M288.69,269.61a6.9,6.9,0,0,1-1,.92c-.6.28-1.25.48-1.87.74a23.61,23.61,0,0,0-2.62,1.11,15.39,15.39,0,0,0-2,1.64c-.43.35-.81.75-1.26,1.08l-2.45,1.75c-1,.73-2,1.48-3,2.22l-3.2,2.46c-.32.26-.75,1.25-1.37.58-.95-.92.06-1.51.39-1.88a7.94,7.94,0,0,1,1-.78c.82-.65,1.62-1.33,2.46-1.94s1.71-1.09,2.52-1.68,1.55-1.3,2.35-1.92,1.6-1.1,2.38-1.68a17.12,17.12,0,0,1,1.48-1.28c.52-.3,1.22-.3,1.75-.56s1.12-.75,1.7-1.09l1.36-.79c.34-.24.67-.92,1.54-.13A.89.89,0,0,1,288.69,269.61Z"/>
      <path class="cls-1" d="M298.23,270.77c-.26.25-.39.65-.67.86-.45.26-1,.45-1.42.72a18.22,18.22,0,0,0-1.93,1.12,12,12,0,0,0-1.42,1.49c-.29.32-.55.67-.86,1l-1.72,1.63c-.7.67-1.38,1.36-2.07,2.05l-2.24,2.24c-.22.24-.48,1-1,.61-.77-.54-.09-1.15.11-1.48a6.12,6.12,0,0,1,.66-.75,24.54,24.54,0,0,1,1.68-1.81c.57-.55,1.22-1,1.79-1.58s1.06-1.18,1.62-1.75,1.13-1,1.67-1.57a11.65,11.65,0,0,1,1-1.15c.37-.28.93-.35,1.32-.6a13.51,13.51,0,0,0,1.2-1,10.24,10.24,0,0,1,1-.75c.26-.2.39-.83,1.21-.23A.7.7,0,0,1,298.23,270.77Z"/>
      <path class="cls-1" d="M311.84,271.71c-.35.24-.58.67-1,.85-.57.26-1.19.44-1.77.7a21.24,21.24,0,0,0-2.44,1.08,15.9,15.9,0,0,0-1.91,1.54c-.4.33-.76.7-1.18,1-.75.57-1.54,1.09-2.3,1.64l-2.82,2.05-3,2.26c-.3.24-.81,1.06-1.22.6-.64-.61.25-1.2.57-1.54a9.43,9.43,0,0,1,.92-.74c.75-.62,1.5-1.25,2.28-1.84s1.57-1.05,2.32-1.62,1.43-1.23,2.17-1.81,1.48-1,2.19-1.6c.48-.37.84-.91,1.35-1.23s1.11-.33,1.61-.59,1-.74,1.54-1.09l1.23-.8c.17-.1.29-.36.49-.48s.53,0,1,.36a.88.88,0,0,1,.26.63A.67.67,0,0,1,311.84,271.71Z"/>
      <path class="cls-1" d="M322.61,272.91c-.31.21-.49.68-.85.79-.53.17-1.13.22-1.67.39a18.76,18.76,0,0,0-2.31.67,10.19,10.19,0,0,0-1.76,1.3c-.36.28-.69.62-1.08.87-.7.45-1.42.88-2.15,1.31l-2.64,1.61-2.87,1.76c-.29.19-.7,1-1.22.32-.79-.95.08-1.36.37-1.66a5.5,5.5,0,0,1,.88-.59c.71-.5,1.41-1,2.15-1.48s1.5-.78,2.2-1.23,1.33-1,2-1.5,1.39-.82,2.06-1.28c.44-.3.76-.83,1.24-1.07s1.08-.1,1.55-.28A10.1,10.1,0,0,0,320,272c.38-.21.75-.44,1.15-.63s.46-1,1.4.17C322.92,272,322.94,272.67,322.61,272.91Z"/>
      <path class="cls-1" d="M332.72,274.42c-.28.17-.46.53-.76.65s-1,.2-1.42.37a11.2,11.2,0,0,0-2,.7,7.84,7.84,0,0,0-1.44,1.26c-.29.27-.54.6-.84.86-.55.48-1.11.94-1.65,1.44s-1.28,1.26-1.9,1.91-1.32,1.44-1.95,2.2c-.18.24-.3,1-.88.65-.86-.46-.28-1.11-.12-1.45a5.42,5.42,0,0,1,.57-.77,23.51,23.51,0,0,1,1.46-1.85c.52-.56,1.15-1,1.69-1.53s1-1.12,1.58-1.64,1.14-.91,1.7-1.38c.38-.3.62-.8,1.06-1s1-.17,1.37-.34a13.32,13.32,0,0,0,1.29-.79c.34-.19.7-.35,1.06-.51.14-.06.26-.26.44-.33s.42,0,.76.45A.84.84,0,0,1,332.72,274.42Z"/>
      <path class="cls-1" d="M349.67,274.79c-.27.25-.45.67-.79.81-.51.2-1.09.29-1.6.48a19.64,19.64,0,0,0-2.2.78,9.93,9.93,0,0,0-1.64,1.35c-.34.29-.64.64-1,.9-.66.47-1.35.91-2,1.36l-2.54,1.62-2.77,1.75c-.28.19-.68,1-1.17.34-.75-.86.08-1.3.35-1.59a5.35,5.35,0,0,1,.83-.59c.67-.5,1.33-1,2-1.5s1.42-.8,2.09-1.27,1.26-1,1.91-1.53,1.31-.85,1.93-1.33c.41-.32.68-.85,1.14-1.11s1.06-.12,1.5-.32a9.42,9.42,0,0,0,1.35-.91c.35-.23.7-.46,1.07-.68s.37-1,1.38.08C349.9,273.87,350,274.53,349.67,274.79Z"/>
      <path class="cls-1" d="M361.63,277.21c-.28.26-.49.64-.83.78-.51.2-1.09.28-1.62.44a16.56,16.56,0,0,0-2.25.72,10.46,10.46,0,0,0-1.72,1.3c-.36.28-.68.61-1.05.86-.69.46-1.39.88-2.09,1.32l-2.56,1.66-2.78,1.81c-.28.19-.63,1.06-1.21.31-.89-1,0-1.43.28-1.72a5.12,5.12,0,0,1,.87-.57c.71-.49,1.4-1,2.13-1.45s1.48-.77,2.17-1.22,1.31-1,2-1.5,1.36-.83,2-1.3c.43-.3.73-.83,1.21-1.07s1.06-.12,1.52-.3a11.81,11.81,0,0,0,1.41-.87c.37-.21.75-.42,1.13-.62.15-.07.25-.34.46-.39s.48,0,.9.5A1,1,0,0,1,361.63,277.21Z"/>
      <path class="cls-1" d="M372.92,280c-.29.21-.46.61-.78.76a14,14,0,0,1-1.52.49,16.27,16.27,0,0,0-2.12.74,10.38,10.38,0,0,0-1.62,1.27c-.33.27-.64.6-1,.84-.65.45-1.32.86-2,1.29L361.49,287l-2.69,1.66c-.27.18-.63,1-1.17.26-.82-1,0-1.36.29-1.64a4.7,4.7,0,0,1,.83-.54c.67-.46,1.32-.95,2-1.37s1.42-.7,2.09-1.12,1.25-1,1.89-1.41,1.29-.79,1.9-1.23c.41-.29.69-.78,1.14-1s1-.15,1.42-.34a12.21,12.21,0,0,0,1.31-.87l1.06-.61c.28-.16.4-.91,1.28,0A.87.87,0,0,1,372.92,280Z"/>
      <path class="cls-1" d="M387.84,281.31c-.25.2-.45.5-.74.59-.44.11-.93.14-1.37.27a12.18,12.18,0,0,0-1.88.54,8.22,8.22,0,0,0-1.46,1c-.3.23-.57.5-.88.72l-1.71,1.14c-.7.48-1.38,1-2.06,1.49s-1.47,1.11-2.19,1.68c-.22.18-.41,1-1,.33-.89-.87-.15-1.24.06-1.51a4.23,4.23,0,0,1,.71-.53c.57-.45,1.14-.9,1.74-1.31s1.23-.69,1.81-1.08,1.1-.87,1.67-1.27,1.15-.69,1.71-1.06c.37-.24.65-.66,1.06-.85s.88-.1,1.27-.25a10.64,10.64,0,0,0,1.22-.68c.32-.17.64-.33,1-.48s.48-.69,1.13.16A.8.8,0,0,1,387.84,281.31Z"/>
      <path class="cls-1" d="M405.7,283.18c-.31.29-.48.76-.86.95-.55.28-1.21.4-1.78.66a19.89,19.89,0,0,0-2.43,1,14.3,14.3,0,0,0-1.83,1.57c-.38.34-.73.71-1.14,1-.74.55-1.52,1.06-2.28,1.59l-2.82,1.93c-1,.69-2.08,1.35-3.12,2-.31.21-.83,1-1.28.44-.7-.8.21-1.31.53-1.63a7.17,7.17,0,0,1,.93-.67c.76-.57,1.5-1.17,2.29-1.69s1.59-.93,2.33-1.46,1.41-1.19,2.12-1.76,1.44-1,2.12-1.59c.45-.38.76-1,1.25-1.28s1.13-.27,1.61-.53a11.18,11.18,0,0,0,1.44-1.14q.57-.43,1.16-.84c.3-.23.36-1.12,1.52-.06C405.93,282.17,406,282.88,405.7,283.18Z"/>
      <path class="cls-1" d="M45.81,2.74c-.34.27-.5.8-.9,1-.59.27-1.27.42-1.87.7a19.53,19.53,0,0,0-2.53,1.17,12.52,12.52,0,0,0-1.83,1.77c-.38.38-.71.81-1.11,1.16l-2.24,1.87-2.72,2.36-3,2.55c-.16.12-.33.43-.57.59a.59.59,0,0,1-1-.36.94.94,0,0,0-.06-.17s0-.09,0-.13a1.76,1.76,0,0,1,0-.28,3.45,3.45,0,0,1,.47-.88,5.31,5.31,0,0,1,.87-.87c.72-.72,1.41-1.46,2.19-2.11S33.22,9.92,34,9.27,35.32,7.87,36,7.2,37.48,6,38.17,5.36c.46-.43.74-1.08,1.26-1.44s1.22-.31,1.72-.6a12.68,12.68,0,0,0,1.52-1.24c.4-.31.8-.63,1.21-.92.17-.11.25-.43.45-.57s.57,0,1.18.54A1.62,1.62,0,0,1,46,2,.75.75,0,0,1,45.81,2.74Z"/>
      <path class="cls-1" d="M52.73,7c-.24.25-.35.67-.66.81s-1,.35-1.44.57a12.59,12.59,0,0,0-2,.95,8.88,8.88,0,0,0-1.36,1.44c-.28.31-.51.67-.81,1l-1.64,1.57-2,2-2.14,2.17c-.2.24-.44,1-1,.58a.75.75,0,0,1-.38-.83,3.36,3.36,0,0,1,.36-.68,5,5,0,0,1,.6-.76c.5-.62,1-1.22,1.58-1.79s1.17-1,1.72-1.54,1-1.16,1.54-1.72,1.1-1,1.62-1.51c.35-.35.55-.87.95-1.16s.95-.28,1.33-.51a11,11,0,0,0,1.16-1c.31-.25.62-.5.95-.73s.31-.93,1.29,0A1,1,0,0,1,52.73,7Z"/>
      <path class="cls-1" d="M65.7,8.87c-.23.3-.32.74-.64.94s-1,.52-1.44.83a16.37,16.37,0,0,0-2,1.27,10.87,10.87,0,0,0-1.34,1.67c-.27.36-.5.75-.8,1.09l-1.63,1.85c-.66.76-1.3,1.55-1.94,2.33s-1.38,1.71-2.05,2.58c-.2.27-.3,1.17-1,.71-1-.6-.35-1.27-.17-1.63a5.87,5.87,0,0,1,.64-.82c.52-.68,1-1.38,1.58-2s1.17-1.19,1.7-1.82,1-1.34,1.51-2,1.08-1.17,1.59-1.78a13,13,0,0,1,.93-1.32c.36-.33,1-.43,1.34-.72a15.53,15.53,0,0,0,1.17-1.18L64.15,8c.26-.22.32-.92,1.31-.25A.86.86,0,0,1,65.7,8.87Z"/>
      <path class="cls-1" d="M81.6,6.44c-.38.33-.63.81-1,1.09-.6.41-1.29.71-1.9,1.11-.86.56-1.82,1-2.63,1.66a21.89,21.89,0,0,0-2.06,2c-.43.43-.82.9-1.26,1.31l-2.43,2.26c-1,.94-2,1.89-2.93,2.85s-2.09,2.09-3.12,3.16c-.31.33-.75,1.37-1.31.91-.85-.6.11-1.42.43-1.86a12.09,12.09,0,0,1,1-1c.79-.83,1.58-1.67,2.4-2.47s1.67-1.46,2.47-2.23,1.53-1.6,2.32-2.37,1.59-1.42,2.36-2.16c.52-.48.91-1.12,1.47-1.55s1.2-.59,1.74-1,1.13-1,1.7-1.42.9-.71,1.37-1.05.63-1.06,1.56-.48A.76.76,0,0,1,81.6,6.44Z"/>
      <path class="cls-1" d="M86.35,9.72c-.23.21-.33.56-.59.72s-.86.39-1.25.63a13.74,13.74,0,0,0-1.68,1,8.92,8.92,0,0,0-1.17,1.36c-.24.29-.44.62-.7.9-.47.5-1,1-1.45,1.47l-1.75,1.84-1.89,2c-.19.21-.32,1-.9.51-.86-.6-.24-1.11-.07-1.4a4.61,4.61,0,0,1,.59-.64c.47-.54.93-1.09,1.43-1.6s1-.92,1.52-1.42.87-1.08,1.34-1.59,1-.92,1.41-1.41A10.45,10.45,0,0,1,82,11c.31-.26.82-.31,1.15-.55a9.73,9.73,0,0,0,1-1L85,8.81c.22-.18.16-.91,1.12-.16C86.46,9,86.59,9.5,86.35,9.72Z"/>
      <path class="cls-1" d="M102.31,8.95c-.28.27-.42.72-.74.93-.5.28-1.08.47-1.58.75a17.74,17.74,0,0,0-2.17,1.15,13.13,13.13,0,0,0-1.59,1.59c-.33.34-.62.72-1,1l-1.94,1.71L91,18.26l-2.56,2.33c-.26.24-.53,1.15-1.15.56-.95-.81-.11-1.35.15-1.69a6.29,6.29,0,0,1,.81-.72c.66-.61,1.29-1.23,2-1.82s1.38-1,2-1.62,1.2-1.24,1.82-1.84,1.25-1.09,1.85-1.67A15.6,15.6,0,0,1,97,10.53c.4-.31,1-.37,1.44-.64a15.44,15.44,0,0,0,1.3-1.13c.34-.29.69-.57,1.06-.83.14-.1.23-.36.41-.48s.48-.08,1,.29A.92.92,0,0,1,102.31,8.95Z"/>
      <path class="cls-1" d="M32.66,1.71c-.27.22-.36.69-.68.82-.47.19-1,.3-1.47.51a10.63,10.63,0,0,0-2,.91,8.11,8.11,0,0,0-1.37,1.47c-.28.32-.51.68-.8,1-.54.54-1.09,1.07-1.62,1.63s-1.27,1.4-1.86,2.14S21.58,11.79,21,12.63c-.18.27-.24,1.09-.89.73-1-.47-.36-1.16-.21-1.52a5.75,5.75,0,0,1,.57-.82c.46-.68.92-1.36,1.44-2S23,7.89,23.5,7.29,24.45,6,25,5.43s1.1-1.06,1.62-1.61c.36-.36.56-.9,1-1.2s1-.28,1.38-.51a15.3,15.3,0,0,0,1.23-1,8.93,8.93,0,0,1,1-.68c.27-.17.4-.9,1.31,0A1,1,0,0,1,32.66,1.71Z"/>
      <path class="cls-1" d="M113.92,9.66c-.24.24-.36.6-.64.8s-.87.51-1.28.79a16.39,16.39,0,0,0-1.74,1.21A11.65,11.65,0,0,0,109,14c-.26.32-.48.67-.75,1l-1.49,1.68c-.61.7-1.19,1.41-1.78,2.12s-1.26,1.56-1.89,2.35c-.19.25-.36,1-.89.66-.79-.46-.21-1.1,0-1.43a6.07,6.07,0,0,1,.6-.74c.48-.62,1-1.24,1.47-1.83s1.06-1.08,1.56-1.65.92-1.2,1.41-1.77,1-1.06,1.47-1.61a13.63,13.63,0,0,1,.88-1.17c.33-.3.83-.43,1.17-.7a14.57,14.57,0,0,0,1.06-1.08l.87-.79c.23-.2.27-.86,1.12-.31A.65.65,0,0,1,113.92,9.66Z"/>
      <path class="cls-1" d="M130.36,7.59c-.36.24-.59.69-1,.89-.56.28-1.23.38-1.81.65a16.28,16.28,0,0,0-2.47,1.15A11.9,11.9,0,0,0,123.28,12c-.37.37-.7.8-1.08,1.16-.7.66-1.4,1.32-2.07,2-.83.85-1.61,1.74-2.38,2.64s-1.64,2-2.39,3.05c-.22.34-.45,1.28-1,1A.62.62,0,0,1,114,21a5.6,5.6,0,0,1,.42-.87,10,10,0,0,1,.7-1c.56-.85,1.13-1.7,1.77-2.5s1.37-1.43,2-2.16,1.26-1.52,1.95-2.23S122.27,11,123,10.3a14.62,14.62,0,0,1,1.31-1.41,13.48,13.48,0,0,1,1.68-.65c.57-.33,1.06-.77,1.6-1.15s.88-.53,1.32-.78.61-1,1.53,0A.94.94,0,0,1,130.36,7.59Z"/>
      <path class="cls-1" d="M136.66,12.36c-.23.28-.32.68-.59.92a15.58,15.58,0,0,1-1.29.95c-.59.45-1.27.83-1.82,1.32a15.8,15.8,0,0,0-1.35,1.57c-.28.33-.54.69-.84,1-.56.57-1.15,1.11-1.73,1.65s-1.43,1.34-2.16,2-1.6,1.4-2.41,2.08c-.25.21-.59,1-1,.5-.69-.64.06-1.13.31-1.42a6.56,6.56,0,0,1,.75-.64l1.8-1.64c.59-.52,1.23-1,1.8-1.52s1.06-1.16,1.6-1.73,1.08-1.05,1.58-1.61c.33-.37.54-.88.91-1.22s.87-.43,1.23-.73a13.84,13.84,0,0,0,1.07-1.15l.86-.87c.22-.23.23-.89,1.13-.43A.66.66,0,0,1,136.66,12.36Z"/>
      <path class="cls-1" d="M149.53,11.8c-.29.25-.47.65-.79.87s-1,.55-1.49.87a18.07,18.07,0,0,0-2,1.36,13.4,13.4,0,0,0-1.48,1.69c-.3.36-.57.76-.88,1.11-.57.65-1.15,1.28-1.71,1.94-.69.81-1.34,1.64-2,2.49s-1.38,1.85-2,2.79c-.2.3-.34,1.19-.94.84-.9-.44-.23-1.19,0-1.58a8,8,0,0,1,.64-.89c.52-.74,1-1.48,1.61-2.19s1.18-1.29,1.74-2,1.06-1.39,1.62-2.05,1.15-1.22,1.71-1.84A15.73,15.73,0,0,1,144.56,14c.38-.34.94-.49,1.35-.8s.85-.8,1.27-1.19.69-.58,1-.86.42-.92,1.27-.33A.68.68,0,0,1,149.53,11.8Z"/>
      <path class="cls-1" d="M167.34,11.23c-.31.22-.44.7-.75.88a9,9,0,0,0-1.69.73,12.2,12.2,0,0,0-2.36,1.62,18,18,0,0,0-1.61,2.12c-.34.45-.63.94-1,1.36-.67.78-1.37,1.52-2.06,2.28L155.36,23c-.92,1-1.85,2-2.8,3-.28.31-.63,1.32-1.25.81-.95-.68-.08-1.44.19-1.86a8.48,8.48,0,0,1,.85-.95c.7-.79,1.37-1.59,2.08-2.36s1.46-1.41,2.13-2.17,1.22-1.63,1.85-2.42,1.27-1.48,1.85-2.27c.39-.52.57-1.22,1-1.71s1.11-.62,1.57-1,.91-1.08,1.47-1.57a5.81,5.81,0,0,1,1.44-1c.21-.1.39-.42.68-.5s.66,0,1.05.71A1.35,1.35,0,0,1,167.34,11.23Z"/>
      <path class="cls-1" d="M176.42,12.43c-.22.24-.29.63-.56.83s-.85.5-1.26.78a14.36,14.36,0,0,0-1.71,1.19,9.81,9.81,0,0,0-1.14,1.53c-.23.33-.43.69-.68,1l-1.41,1.68L168,21.54l-1.82,2.3c-.18.24-.3,1-.91.62-.89-.51-.33-1.14-.19-1.48a3.37,3.37,0,0,1,.56-.74c.46-.61.91-1.23,1.4-1.81s1-1.06,1.5-1.63.85-1.2,1.3-1.78.94-1.06,1.38-1.62a10.34,10.34,0,0,1,.79-1.19c.31-.3.84-.4,1.18-.67a11,11,0,0,0,1-1.09l.82-.8c.22-.21.16-.92,1.15-.27C176.51,11.65,176.65,12.17,176.42,12.43Z"/>
      <path class="cls-1" d="M193.76,9.62c-.36.35-.54.88-.94,1.18-.6.42-1.31.71-1.91,1.13a28,28,0,0,0-2.59,1.73,19.31,19.31,0,0,0-1.92,2.14c-.4.46-.75,1-1.17,1.39-.76.8-1.54,1.58-2.29,2.4-.93,1-1.83,2-2.72,3s-1.93,2.24-2.88,3.37c-.28.35-.65,1.42-1.23,1-.88-.51,0-1.42.28-1.89a11.93,11.93,0,0,1,.88-1.08c.72-.89,1.43-1.8,2.19-2.66S181,19.82,181.75,19s1.4-1.72,2.12-2.56,1.47-1.55,2.17-2.35c.47-.53.79-1.22,1.31-1.7a17.16,17.16,0,0,1,1.73-1,21.13,21.13,0,0,0,1.59-1.55c.42-.4.85-.77,1.3-1.14s.47-1.21,1.64-.44A1,1,0,0,1,193.76,9.62Z"/>
      <path class="cls-1" d="M204.17,10.18c-.26.33-.36.83-.71,1-.51.31-1.11.54-1.62.86a16.33,16.33,0,0,0-2.23,1.34,10.93,10.93,0,0,0-1.49,1.85c-.3.4-.55.84-.88,1.22-.59.69-1.22,1.34-1.82,2-.74.84-1.45,1.71-2.15,2.58S191.78,23,191,24c-.21.31-.43,1.22-1,.87-.87-.43-.24-1.27-.07-1.69a6.33,6.33,0,0,1,.62-1c.53-.79,1.05-1.6,1.64-2.35s1.24-1.37,1.82-2.09,1-1.53,1.63-2.25,1.2-1.31,1.77-2a13.29,13.29,0,0,1,1-1.48c.4-.37,1.09-.45,1.53-.76A17.76,17.76,0,0,0,201.3,10c.36-.32.71-.64,1.08-.95s.37-1,1.5-.19A1,1,0,0,1,204.17,10.18Z"/>
      <path class="cls-1" d="M218.56,10.11c-.27.26-.43.66-.73.88s-1,.57-1.44.86a19.19,19.19,0,0,0-2,1.28,12.85,12.85,0,0,0-1.46,1.63c-.3.35-.56.74-.88,1.07l-1.75,1.82c-.71.75-1.4,1.52-2.09,2.29L206,22.47c-.22.26-.38,1.17-1.06.67-1-.68-.26-1.3,0-1.66a6.25,6.25,0,0,1,.72-.79c.58-.66,1.15-1.33,1.76-2s1.26-1.14,1.85-1.75,1.09-1.29,1.67-1.91S212,14,212.59,13.36a14.91,14.91,0,0,1,1-1.26c.38-.32.95-.44,1.35-.73s.81-.78,1.24-1.15l1-.83c.27-.22.38-.9,1.24-.33A.69.69,0,0,1,218.56,10.11Z"/>
      <path class="cls-1" d="M237.33,7.45a6.57,6.57,0,0,1-.88,1.24c-.57.45-1.25.79-1.85,1.22-.84.6-1.8,1.08-2.58,1.75a20.23,20.23,0,0,0-1.94,2.13c-.4.45-.76.95-1.19,1.38-.79.78-1.6,1.52-2.41,2.28l-3,2.81-3.25,3c-.33.32-.83,1.32-1.35.85-.8-.62.15-1.42.48-1.85a11,11,0,0,1,1-1c.79-.82,1.56-1.66,2.38-2.45s1.67-1.43,2.46-2.2,1.48-1.63,2.24-2.43S229,12.77,229.71,12c.49-.51.82-1.18,1.36-1.64s1.22-.59,1.73-1,1.06-1,1.59-1.52.84-.77,1.28-1.14.57-1.06,1.57-.53A.87.87,0,0,1,237.33,7.45Z"/>
      <path class="cls-1" d="M252,7.5c-.33.26-.51.74-.88.95-.55.28-1.16.48-1.74.73a16,16,0,0,0-2.42,1.15,11,11,0,0,0-1.72,1.75c-.35.38-.65.81-1,1.17l-2.05,1.93c-.84.8-1.64,1.62-2.45,2.46s-1.72,1.83-2.59,2.74c-.25.3-.47,1.27-1.19.75-1.07-.68-.29-1.46-.07-1.88a6.43,6.43,0,0,1,.75-.94c.63-.77,1.27-1.52,2-2.24s1.46-1.26,2.13-1.93,1.25-1.45,1.93-2.12,1.39-1.2,2.06-1.84c.45-.42.73-1,1.23-1.39s1.17-.34,1.66-.61,1-.81,1.51-1.18.82-.56,1.24-.83.45-1.1,1.53-.08A1,1,0,0,1,252,7.5Z"/>
      <path class="cls-1" d="M263.64,11.23c-.28.27-.43.69-.75.92s-1,.55-1.51.85a21.88,21.88,0,0,0-2.1,1.25,13.33,13.33,0,0,0-1.54,1.63c-.32.35-.6.74-.94,1.07l-1.9,1.76-2.32,2.18-2.52,2.36c-.26.24-.49,1.18-1.17.55-1-.86-.18-1.4.06-1.75a5.87,5.87,0,0,1,.8-.73c.65-.61,1.27-1.25,1.95-1.84s1.37-1.06,2-1.64,1.18-1.26,1.79-1.86,1.24-1.09,1.83-1.68A12.25,12.25,0,0,1,258.43,13c.4-.31,1-.38,1.44-.66a14.06,14.06,0,0,0,1.29-1.15l1-.84c.27-.22.36-1,1.3-.29A.77.77,0,0,1,263.64,11.23Z"/>
      <path class="cls-1" d="M283.88,7.83c-.36.34-.59.87-1,1.15-.62.38-1.36.62-2,1-.9.51-1.91.9-2.75,1.5a17.23,17.23,0,0,0-2.07,2c-.43.43-.81.91-1.26,1.31-.82.74-1.67,1.45-2.52,2.16-1,.89-2.07,1.78-3.06,2.71l-3.24,3c-.33.32-.75,1.39-1.39.81-1-.77,0-1.54.37-2a10.1,10.1,0,0,1,1-1c.82-.8,1.63-1.61,2.49-2.38s1.7-1.42,2.52-2.17,1.52-1.62,2.33-2.38,1.62-1.38,2.4-2.11a20.39,20.39,0,0,1,1.44-1.59A18.25,18.25,0,0,1,279,9.12a18.58,18.58,0,0,0,1.72-1.4c.45-.36.91-.7,1.39-1s.56-1.15,1.69-.29A1,1,0,0,1,283.88,7.83Z"/>
      <path class="cls-1" d="M296.8,9.15c-.3.28-.43.75-.78,1-.51.32-1.14.51-1.65.83a16.14,16.14,0,0,0-2.22,1.34,12,12,0,0,0-1.53,1.81c-.31.39-.58.82-.91,1.19l-1.84,2q-1.12,1.25-2.21,2.54c-.79.92-1.56,1.87-2.32,2.82-.23.3-.4,1.25-1.07.81-1-.56-.27-1.33-.06-1.73a7.19,7.19,0,0,1,.7-.92c.57-.77,1.13-1.54,1.74-2.27s1.29-1.32,1.89-2,1.12-1.46,1.72-2.17,1.23-1.27,1.81-1.94A14.38,14.38,0,0,1,291.13,11c.41-.36,1.06-.45,1.5-.77a14.07,14.07,0,0,0,1.31-1.29c.35-.33.71-.64,1.08-.94s.29-1.14,1.47-.21C296.94,8.12,297.11,8.85,296.8,9.15Z"/>
      <path class="cls-1" d="M313.3,4.84a5.11,5.11,0,0,1-.9,1c-.56.32-1.19.55-1.75.89a19.93,19.93,0,0,0-2.37,1.44,14,14,0,0,0-1.73,1.89c-.35.41-.66.86-1,1.25-.67.72-1.35,1.42-2,2.16-.8.9-1.57,1.84-2.32,2.79s-1.6,2.08-2.36,3.15c-.23.34-.36,1.37-1.09.94-1.1-.54-.33-1.4-.12-1.85a8.38,8.38,0,0,1,.74-1c.6-.85,1.2-1.69,1.85-2.49s1.38-1.45,2-2.21,1.23-1.57,1.89-2.32,1.36-1.36,2-2.06a12.51,12.51,0,0,1,1.26-1.47c.46-.37,1.14-.48,1.63-.81s1-.86,1.52-1.29.82-.63,1.24-.93.61-.93,1.5-.26A.86.86,0,0,1,313.3,4.84Z"/>
      <path class="cls-1" d="M322.06,8.27c-.24.24-.31.7-.61.87s-1,.38-1.42.61a12.79,12.79,0,0,0-1.94,1,8.84,8.84,0,0,0-1.33,1.47c-.27.32-.5.68-.79,1l-1.63,1.58c-.66.66-1.31,1.33-2,2L310.3,19c-.21.23-.29,1.11-1,.52-1.12-.8-.39-1.33-.2-1.66a4.48,4.48,0,0,1,.67-.7c.54-.59,1.06-1.19,1.63-1.74s1.19-1,1.74-1.52,1-1.17,1.52-1.73,1.09-1,1.6-1.53c.34-.35.53-.88.92-1.18s.94-.29,1.33-.53a10.9,10.9,0,0,0,1.14-1,10.29,10.29,0,0,1,.94-.73c.25-.19.29-.91,1.28-.08A.94.94,0,0,1,322.06,8.27Z"/>
      <path class="cls-1" d="M334.62,5.56c-.26.22-.38.63-.67.81-.45.23-1,.4-1.4.66a12,12,0,0,0-1.87,1.16,7.65,7.65,0,0,0-1.19,1.63c-.24.35-.41.75-.66,1.09-.45.63-.9,1.25-1.31,1.9a28,28,0,0,0-1.39,2.49,30.45,30.45,0,0,0-1.25,2.84c-.1.31.09,1.13-.71.93-1.16-.22-.73-1.06-.67-1.46a5.63,5.63,0,0,1,.37-1,22.73,22.73,0,0,1,1-2.31c.39-.72.89-1.36,1.31-2s.75-1.43,1.2-2.11,1-1.23,1.42-1.86c.32-.4.47-1,.86-1.33s1-.4,1.34-.67.78-.73,1.18-1.1.65-.53,1-.77.36-.94,1.28-.1A.87.87,0,0,1,334.62,5.56Z"/>
      <path class="cls-1" d="M349.44,5.68c-.36.29-.57.78-1,1-.6.3-1.25.52-1.85.83a24.42,24.42,0,0,0-2.54,1.32,14.7,14.7,0,0,0-1.93,1.81c-.4.39-.75.83-1.16,1.2-.75.68-1.51,1.35-2.24,2-.91.86-1.79,1.74-2.66,2.64s-1.87,2-2.78,3c-.27.32-.57,1.33-1.25.82-1-.66-.19-1.5.09-1.92a8.46,8.46,0,0,1,.88-1c.71-.79,1.42-1.59,2.18-2.33s1.56-1.34,2.31-2,1.41-1.49,2.15-2.2,1.5-1.28,2.23-1.94a17.39,17.39,0,0,1,1.38-1.43c.49-.35,1.19-.43,1.71-.74s1.09-.82,1.65-1.22.87-.62,1.33-.89.63-1,1.55-.21A.85.85,0,0,1,349.44,5.68Z"/>
      <path class="cls-1" d="M361.52,6.07c-.34.41-.53,1-1,1.27-.66.42-1.41.73-2.06,1.16a29.06,29.06,0,0,0-2.78,1.78,23.09,23.09,0,0,0-2.09,2.21c-.44.47-.83,1-1.29,1.42-.84.81-1.72,1.58-2.58,2.37l-3.2,2.89L343,22.25c-.36.32-.87,1.41-1.51.79-1-.83.12-1.59.48-2a10.5,10.5,0,0,1,1.09-1c.89-.81,1.75-1.65,2.65-2.44s1.83-1.44,2.68-2.22,1.61-1.67,2.43-2.49,1.65-1.5,2.42-2.31c.52-.54.86-1.25,1.42-1.74s1.28-.61,1.83-1a17.68,17.68,0,0,0,1.64-1.65c.43-.42.85-.86,1.29-1.26.18-.16.25-.52.49-.69s.64-.14,1.28.26a1.13,1.13,0,0,1,.47.74A1,1,0,0,1,361.52,6.07Z"/>
      <path class="cls-1" d="M374.67,7.92c-.26.24-.4.68-.71.81-.47.18-1,.22-1.5.39a12.9,12.9,0,0,0-2.13.64,6.45,6.45,0,0,0-1.41,1.43c-.29.31-.51.69-.82,1l-1.73,1.49c-.7.62-1.37,1.28-2,1.95s-1.42,1.47-2.11,2.24c-.19.26-.27,1.1-1.08.56-1.18-.71-.59-1.41-.42-1.77a4.08,4.08,0,0,1,.63-.78,24.79,24.79,0,0,1,1.58-1.92c.56-.58,1.24-1,1.81-1.58s1-1.24,1.59-1.81,1.19-1,1.75-1.51c.39-.33.58-.94,1-1.19s1.11-.06,1.55-.24A10.75,10.75,0,0,0,372,6.75c.36-.2.72-.4,1.1-.58s.43-1,1.38.28C374.89,7,374.94,7.66,374.67,7.92Z"/>
      <path class="cls-1" d="M388.44,8.08c-.31.25-.53.68-.89.82-.55.18-1.15.27-1.72.45a13.06,13.06,0,0,0-2.39.81,9,9,0,0,0-1.72,1.54c-.35.33-.65.73-1,1-.66.57-1.34,1.13-2,1.73s-1.57,1.49-2.33,2.27-1.61,1.73-2.38,2.63c-.22.29-.39,1.21-1.07.77-1-.57-.3-1.33-.11-1.74a6.59,6.59,0,0,1,.7-.91c.57-.75,1.14-1.51,1.78-2.21s1.36-1.23,2-1.85,1.22-1.36,1.89-2,1.37-1.1,2-1.68c.45-.37.73-1,1.24-1.29s1.16-.21,1.65-.42,1-.67,1.54-1,.83-.45,1.26-.66c.17-.08.3-.34.52-.41s.56.12,1,.62a1.18,1.18,0,0,1,.23.74C388.67,7.65,388.62,8,388.44,8.08Z"/>
      <path class="cls-1" d="M401.91,8.83c-.31.33-.53.81-.91,1-.56.33-1.26.47-1.86.75a20.23,20.23,0,0,0-2.57,1.18,12.38,12.38,0,0,0-1.87,1.79c-.38.39-.72.83-1.13,1.19l-2.25,1.95c-.92.81-1.8,1.65-2.7,2.48S386.68,21,385.72,22c-.27.3-.58,1.32-1.31.7a1,1,0,0,1-.49-1.15,4,4,0,0,1,.55-.83,7,7,0,0,1,.88-.91c.72-.76,1.42-1.53,2.18-2.24s1.6-1.23,2.35-1.9,1.39-1.45,2.13-2.14,1.49-1.22,2.21-1.88c.48-.43.79-1.08,1.32-1.44s1.24-.32,1.76-.6a14.78,14.78,0,0,0,1.6-1.22c.43-.3.87-.58,1.31-.85.18-.1.28-.41.53-.49s.57,0,1.07.41A1.11,1.11,0,0,1,401.91,8.83Z"/>
      <path class="cls-1" d="M418.74,9.55c-.37.2-.62.64-1,.79-.57.2-1.21.27-1.81.43a14.83,14.83,0,0,0-2.54.76A10,10,0,0,0,411.47,13c-.39.33-.74.72-1.14,1-.74.56-1.5,1.08-2.24,1.65-.91.69-1.78,1.43-2.65,2.18s-1.85,1.65-2.76,2.51c-.27.27-.45,1.31-1.28.6-1.25-1-.33-1.6-.07-2a6,6,0,0,1,.88-.83c.71-.69,1.42-1.39,2.18-2s1.59-1.08,2.34-1.67,1.41-1.29,2.17-1.87,1.54-1,2.28-1.54c.5-.35.86-.93,1.42-1.2s1.21-.15,1.73-.35,1.1-.64,1.66-.93.9-.41,1.35-.6.64-1,1.51.19A1,1,0,0,1,418.74,9.55Z"/>
      <path class="cls-1" d="M433,22.31c-.31.26-.45.8-.82,1-.55.22-1.24.21-1.82.4a15.08,15.08,0,0,0-2.51.65A10.75,10.75,0,0,0,426,25.74a13.11,13.11,0,0,1-1.14.92c-.76.47-1.54.89-2.32,1.33-1,.53-1.9,1.1-2.88,1.6l-3.18,1.64c-.32.18-.85,1-1.29.27-.69-1,.23-1.36.55-1.66a5.89,5.89,0,0,1,.94-.58c.77-.49,1.51-1,2.28-1.52s1.61-.75,2.36-1.21,1.41-1.07,2.13-1.58,1.45-.88,2.13-1.39c.46-.34.75-.94,1.24-1.21s1.17-.07,1.65-.27a9.69,9.69,0,0,0,1.46-1,9.81,9.81,0,0,1,1.19-.69c.16-.08.24-.39.44-.48s.55.07,1.13.72a1.9,1.9,0,0,1,.42.91C433.23,21.86,433.21,22.18,433,22.31Z"/>
      <path class="cls-1" d="M429.17,32c-.27.29-.4.76-.74.94-.49.26-1.13.32-1.66.53a14.7,14.7,0,0,0-2.29.88,9.08,9.08,0,0,0-1.59,1.55c-.33.33-.61.72-1,1l-2,1.62c-.8.67-1.58,1.37-2.37,2.06L415,42.88c-.25.24-.53,1.1-1.17.54-.94-.75-.2-1.39,0-1.76a3.92,3.92,0,0,1,.75-.78c.62-.64,1.21-1.31,1.89-1.9s1.41-1,2.05-1.58,1.18-1.25,1.81-1.85,1.29-1,1.89-1.61c.41-.37.63-1,1.09-1.29s1.12-.19,1.58-.42a9.55,9.55,0,0,0,1.36-1.06c.37-.26.74-.5,1.12-.73.15-.09.23-.37.43-.45a1.52,1.52,0,0,1,1.06.56,1.25,1.25,0,0,1,.34.72,1.22,1.22,0,0,1,0,.38C429.2,31.72,429.24,32,429.17,32Z"/>
      <path class="cls-1" d="M426.48,44.43c-.22.12-.34.45-.58.53s-.78,0-1.14.12a8.53,8.53,0,0,0-1.59.34,4.67,4.67,0,0,0-1.14.93c-.23.21-.42.46-.66.65L420,48c-.54.42-1.06.87-1.59,1.32s-1.12,1-1.67,1.51c-.16.17-.19.84-.83.33-1-.7-.39-1.1-.26-1.36s.35-.35.52-.53A17.82,17.82,0,0,1,417.49,48c.45-.39,1-.65,1.45-1s.84-.82,1.3-1.18.94-.62,1.39-1,.49-.64.84-.8.8,0,1.13-.09a6.78,6.78,0,0,0,1-.55,7.29,7.29,0,0,1,.84-.36c.11,0,.2-.23.34-.27s.35.09.65.57A1,1,0,0,1,426.48,44.43Z"/>
      <path class="cls-1" d="M426.82,53.36c-.29.22-.5.6-.84.7-.51.14-1.09.14-1.62.27a13.13,13.13,0,0,0-2.22.54A10.17,10.17,0,0,0,420.42,56c-.36.25-.68.55-1.06.78L417.3,58l-2.53,1.5L412,61.14c-.27.18-.7.91-1.13.33-.67-.79.15-1.2.43-1.48a5.8,5.8,0,0,1,.83-.56c.68-.47,1.35-1,2.06-1.38s1.43-.73,2.11-1.14,1.29-.94,2-1.39,1.33-.76,2-1.19c.43-.28.74-.77,1.2-1s1-.09,1.46-.25a9.78,9.78,0,0,0,1.38-.81c.37-.19.73-.39,1.11-.57s.45-1,1.35.26C427,52.24,427.17,53.22,426.82,53.36Z"/>
      <path class="cls-1" d="M428.1,59.89c-.35.28-.61.74-1,.9-.61.21-1.29.29-1.93.45a19.16,19.16,0,0,0-2.7.73,11.52,11.52,0,0,0-2.07,1.49c-.43.33-.81.72-1.26,1L416.64,66c-1,.63-2,1.29-3,1.94s-2.19,1.42-3.28,2.15c-.33.23-.77,1.2-1.4.43-1-1.05,0-1.58.38-1.94a6.58,6.58,0,0,1,1-.72c.82-.6,1.62-1.23,2.48-1.79s1.74-.94,2.56-1.47,1.55-1.21,2.36-1.78,1.63-1,2.41-1.5c.52-.35.9-1,1.47-1.24s1.26-.11,1.82-.3a16.52,16.52,0,0,0,1.71-1c.46-.23.91-.46,1.38-.67.19-.08.31-.39.57-.44s.58.07,1.05.65A1.25,1.25,0,0,1,428.1,59.89Z"/>
      <path class="cls-1" d="M426.84,70.69c-.29.27-.46.74-.82.89-.52.22-1.12.33-1.65.53a19.28,19.28,0,0,0-2.34.79,9.35,9.35,0,0,0-1.72,1.45c-.35.32-.66.69-1,1-.68.52-1.41,1-2.11,1.49l-2.56,1.88-2.77,2.06c-.28.22-.52,1.2-1.28.37-1.15-1.16-.23-1.62,0-2a4.76,4.76,0,0,1,.87-.66c.71-.56,1.39-1.15,2.13-1.67s1.52-.88,2.22-1.39,1.3-1.16,2-1.69,1.4-.92,2.06-1.43c.44-.34.73-.91,1.22-1.18s1.13-.12,1.62-.31a14.35,14.35,0,0,0,1.47-.92c.39-.22.78-.45,1.18-.66.16-.07.28-.32.49-.39s.53.06.95.49A1.13,1.13,0,0,1,426.84,70.69Z"/>
      <path class="cls-1" d="M421.09,87.31c-.23.17-.32.55-.6.64s-.89.17-1.3.31a12,12,0,0,0-1.76.53,6.8,6.8,0,0,0-1.25,1.09,8.84,8.84,0,0,1-.77.72c-.52.37-1.07.69-1.6,1l-2,1.24c-.73.44-1.46.86-2.2,1.28-.23.13-.44.92-1,.06-.88-1.22-.15-1.4.07-1.63s.47-.24.69-.38c.56-.33,1.1-.7,1.67-1s1.17-.5,1.71-.83,1-.79,1.49-1.16,1-.63,1.51-1c.32-.24.51-.69.87-.87s.86,0,1.21-.18a5.73,5.73,0,0,0,1-.73c.27-.19.53-.37.81-.55s.14-1,1.15.17C421.2,86.5,421.34,87.13,421.09,87.31Z"/>
      <path class="cls-1" d="M420.25,96.84c-.24.26-.36.69-.66.86s-1,.34-1.47.53a19.53,19.53,0,0,0-2.05.77,9.35,9.35,0,0,0-1.51,1.31c-.31.28-.59.61-.93.86-.62.46-1.26.87-1.9,1.29s-1.57,1.05-2.37,1.55l-2.62,1.6c-.27.16-.57,1-1.18.18-.91-1.19-.07-1.48.19-1.75a3.92,3.92,0,0,1,.82-.49c.66-.43,1.29-.89,2-1.29s1.38-.67,2-1.08,1.18-1,1.79-1.41,1.23-.78,1.8-1.23c.38-.3.63-.8,1-1s1-.14,1.4-.33a9.35,9.35,0,0,0,1.24-.88c.33-.21.65-.44,1-.63s.4-.8,1.27,0A.94.94,0,0,1,420.25,96.84Z"/>
      <path class="cls-1" d="M423.85,109.87c-.35.2-.58.63-1,.75-.57.18-1.2.24-1.77.43a17.34,17.34,0,0,0-2.43.78,11,11,0,0,0-1.86,1.42c-.38.31-.73.67-1.13,1l-2.22,1.5c-.91.62-1.8,1.27-2.69,1.92l-2.89,2.13c-.29.23-.56,1.24-1.32.38-1.15-1.19-.18-1.64.11-2a5.29,5.29,0,0,1,.93-.66c.75-.56,1.49-1.15,2.28-1.66s1.6-.88,2.35-1.39,1.41-1.14,2.15-1.66,1.48-.91,2.19-1.42c.48-.33.82-.88,1.34-1.14s1.15-.14,1.65-.34a12.82,12.82,0,0,0,1.55-.93c.41-.23.82-.46,1.23-.68s.48-1.1,1.47.15C424.22,109,424.22,109.66,423.85,109.87Z"/>
      <path class="cls-1" d="M422.92,119.16c-.28.18-.42.65-.75.73-.49.11-1,.09-1.53.21a12.1,12.1,0,0,0-2.11.46,6.69,6.69,0,0,0-1.53,1.22,12.06,12.06,0,0,1-.93.82c-.62.41-1.26.79-1.89,1.17l-2.32,1.47c-.84.53-1.67,1.08-2.53,1.61-.25.18-.53,1-1.14.25-.92-1-.16-1.43.06-1.74a3.68,3.68,0,0,1,.74-.6c.61-.49,1.23-1,1.88-1.41s1.36-.69,2-1.11,1.17-1,1.79-1.42,1.25-.75,1.86-1.14c.4-.27.66-.79,1.12-1s1,0,1.47-.09a7.67,7.67,0,0,0,1.32-.74,10,10,0,0,1,1.06-.52c.28-.13.4-1,1.32.35C423.17,118.25,423.21,119,422.92,119.16Z"/>
      <path class="cls-1" d="M420.11,134.43c-.23.17-.32.57-.61.66s-.9.13-1.32.25a11,11,0,0,0-1.83.41,5.85,5.85,0,0,0-1.29,1.08,8.42,8.42,0,0,1-.78.73c-.53.36-1.09.67-1.64,1s-1.35.81-2,1.2-1.5.82-2.26,1.2c-.23.12-.38,1.07-1.11-.11-1.1-1.68-.3-1.75-.08-2s.5-.2.74-.32c.59-.29,1.15-.63,1.75-.9s1.24-.39,1.8-.69,1-.76,1.55-1.11,1.07-.57,1.57-.93c.33-.24.52-.7.89-.87s.89,0,1.25-.08a6.07,6.07,0,0,0,1.06-.69c.28-.17.56-.35.85-.51s.17-1,1.18.27C420.22,133.57,420.36,134.24,420.11,134.43Z"/>
      <path class="cls-1" d="M421.25,143.23c-.28.27-.38.76-.72,1-.5.29-1.09.47-1.59.76a23.44,23.44,0,0,0-2.19,1.14,10.68,10.68,0,0,0-1.53,1.66c-.31.36-.59.76-.93,1.08-.63.59-1.31,1.13-2,1.69s-1.62,1.38-2.45,2l-2.73,2.14c-.28.22-.52,1.19-1.29.38-1.15-1.13-.25-1.59,0-1.92a4.65,4.65,0,0,1,.85-.67c.68-.57,1.34-1.18,2-1.73s1.45-1,2.12-1.5,1.2-1.23,1.83-1.82,1.27-1.05,1.86-1.64c.39-.39.6-1,1-1.32s1.09-.28,1.53-.54a9.47,9.47,0,0,0,1.27-1.16c.33-.3.66-.6,1-.88.14-.11.18-.41.34-.54s.5-.06,1.1.42A1.22,1.22,0,0,1,421.25,143.23Z"/>
      <path class="cls-1" d="M420.66,154.27c-.27.23-.39.74-.73.83-.5.15-1.08.15-1.59.3a11.62,11.62,0,0,0-2.23.53,6.91,6.91,0,0,0-1.54,1.35c-.32.29-.58.65-.92.91l-1.9,1.38c-.78.57-1.51,1.19-2.28,1.78s-1.64,1.32-2.44,2c-.24.22-.43,1.08-1.12.46-1-.84-.27-1.39-.06-1.73a4.54,4.54,0,0,1,.72-.7c.59-.58,1.16-1.2,1.77-1.76s1.35-.9,2-1.41,1.13-1.15,1.74-1.68,1.25-.91,1.84-1.42c.4-.33.61-.95,1.06-1.2s1.11,0,1.57-.18a10.43,10.43,0,0,0,1.36-.85c.36-.2.73-.41,1.1-.59.15-.06.24-.34.43-.41s.51.12,1,.78a2,2,0,0,1,.36.9C420.84,153.86,420.81,154.16,420.66,154.27Z"/>
      <path class="cls-1" d="M421.7,163.12c-.34.27-.61.68-1,.83-.59.19-1.24.25-1.85.42a19.28,19.28,0,0,0-2.61.65,10.73,10.73,0,0,0-2,1.38c-.42.3-.8.67-1.24.94l-2.44,1.42-2.94,1.84-3.18,2c-.32.21-.64,1.32-1.45.25-1.23-1.49-.16-1.86.17-2.2a5.09,5.09,0,0,1,1-.61c.84-.53,1.65-1.08,2.52-1.56s1.76-.78,2.58-1.26,1.55-1.11,2.35-1.62,1.61-.87,2.38-1.37c.52-.32.89-.92,1.45-1.16s1.25,0,1.79-.18a17,17,0,0,0,1.7-.85c.45-.2.9-.41,1.35-.59.18-.07.32-.36.57-.39s.55.09,1,.61A1.15,1.15,0,0,1,421.7,163.12Z"/>
      <path class="cls-1" d="M423.5,173.91c-.33.33-.42,1-.86,1.17-.62.27-1.35.38-2,.61a21.87,21.87,0,0,0-2.78.92,11.21,11.21,0,0,0-2,1.72,15,15,0,0,1-1.23,1.14c-.82.59-1.69,1.11-2.54,1.66-1.05.67-2.12,1.32-3.19,2l-3.52,2c-.36.21-.81,1.29-1.55.24-1.12-1.47,0-1.89.31-2.26a5.25,5.25,0,0,1,1.07-.67c.86-.58,1.7-1.2,2.58-1.74s1.81-.9,2.66-1.44,1.56-1.27,2.37-1.87,1.63-1,2.39-1.63c.51-.4.81-1.1,1.37-1.42s1.36-.08,1.91-.32a11.22,11.22,0,0,0,1.64-1.15,14.93,14.93,0,0,1,1.33-.83c.19-.09.29-.41.52-.51s.61,0,1.24.65A1.45,1.45,0,0,1,423.5,173.91Z"/>
      <path class="cls-1" d="M420,185.91c-.29.23-.4.76-.74.9-.5.2-1.08.26-1.61.42a14.8,14.8,0,0,0-2.27.63,8,8,0,0,0-1.63,1.37,12.1,12.1,0,0,1-1,.92c-.66.47-1.36.89-2,1.33l-2.5,1.66-2.73,1.79c-.28.19-.49,1.2-1.3.18-1.21-1.43-.29-1.75,0-2.06a3.78,3.78,0,0,1,.87-.55c.71-.47,1.38-1,2.09-1.44s1.49-.73,2.17-1.18,1.25-1.07,1.9-1.56,1.33-.84,1.95-1.33c.42-.32.64-.93,1.12-1.16s1.14,0,1.6-.16a10.21,10.21,0,0,0,1.39-.87,12,12,0,0,1,1.12-.6c.29-.16.4-1,1.43.22C420.24,184.93,420.31,185.64,420,185.91Z"/>
      <path class="cls-1" d="M417,196.46c-.24.18-.36.6-.64.7s-.93.13-1.37.26a13.76,13.76,0,0,0-1.89.44,6.49,6.49,0,0,0-1.38,1.09,9.18,9.18,0,0,1-.84.73c-.56.36-1.16.67-1.74,1s-1.43.82-2.16,1.2-1.59.83-2.39,1.22c-.25.12-.45,1-1.14-.06-1-1.53-.21-1.64,0-1.88s.52-.22.77-.35c.62-.31,1.21-.67,1.85-1s1.3-.43,1.88-.75,1.08-.79,1.64-1.15,1.14-.59,1.67-1c.35-.24.57-.72,1-.9s.92,0,1.3-.08a5.85,5.85,0,0,0,1.14-.7c.29-.18.6-.35.9-.51s.26-1,1.19.26C417.21,195.6,417.3,196.27,417,196.46Z"/>
      <path class="cls-1" d="M417.08,205.87c-.21.19-.28.56-.53.69s-.84.23-1.22.4a12.49,12.49,0,0,0-1.68.64,6.16,6.16,0,0,0-1.15,1.15,10.09,10.09,0,0,1-.69.77c-.47.41-1,.78-1.45,1.17l-1.78,1.45c-.65.52-1.31,1-2,1.52-.2.16-.28,1-1,.18-1.07-1.1-.39-1.39-.21-1.65s.42-.31.63-.48c.49-.42,1-.82,1.53-1.19s1.12-.61,1.61-1,.9-.87,1.37-1.28,1-.7,1.42-1.1.46-.72.8-.93.84-.1,1.17-.26a6.14,6.14,0,0,0,1-.76q.39-.29.8-.55c.21-.14.18-.86,1.11.08C417.18,205.1,417.3,205.67,417.08,205.87Z"/>
      <path class="cls-1" d="M423.52,216c-.36.28-.57.84-1,1-.63.22-1.35.3-2,.51a24.89,24.89,0,0,0-2.77.83,12,12,0,0,0-2.1,1.6c-.43.35-.83.76-1.28,1.07-.84.56-1.71,1.08-2.56,1.63l-3.13,2-3.39,2.25c-.34.24-.81,1.23-1.43.48-1-1,.06-1.6.4-2a6.92,6.92,0,0,1,1-.77c.83-.65,1.65-1.31,2.52-1.91s1.77-1,2.61-1.59,1.58-1.29,2.41-1.89,1.66-1,2.45-1.62c.53-.38.88-1.06,1.47-1.34s1.32-.12,1.89-.33a12.48,12.48,0,0,0,1.76-1c.47-.25.92-.53,1.41-.73s.62-1.07,1.69.18A1.28,1.28,0,0,1,423.52,216Z"/>
      <path class="cls-1" d="M420.66,226.77c-.27.21-.38.68-.71.78s-1,.2-1.5.36a14.87,14.87,0,0,0-2.08.61,7.43,7.43,0,0,0-1.49,1.28,12.23,12.23,0,0,1-.9.85c-.61.44-1.24.84-1.85,1.26s-1.51,1.06-2.25,1.6l-2.44,1.75c-.25.18-.42,1.1-1.17.24-1.13-1.21-.29-1.55-.06-1.85a3.67,3.67,0,0,1,.78-.54c.63-.47,1.24-1,1.9-1.39s1.35-.72,2-1.16,1.13-1,1.73-1.48,1.21-.81,1.79-1.25c.39-.29.62-.82,1.05-1s1-.05,1.44-.22a8,8,0,0,0,1.27-.81c.34-.2.66-.42,1-.59s.35-1,1.32.2C420.86,225.87,420.93,226.54,420.66,226.77Z"/>
      <path class="cls-1" d="M423.58,234.46c-.3.18-.46.62-.79.72-.49.14-1.05.18-1.55.33a14.39,14.39,0,0,0-2.14.6,8.57,8.57,0,0,0-1.6,1.23c-.33.27-.62.59-1,.83l-1.94,1.27L412.23,241l-2.55,1.77c-.26.19-.48,1.09-1.18.26-1-1.15-.19-1.51.06-1.81a4.14,4.14,0,0,1,.82-.55c.66-.47,1.3-1,2-1.4s1.41-.72,2.06-1.15,1.22-1,1.86-1.43,1.29-.77,1.9-1.21c.41-.29.69-.79,1.14-1s1-.08,1.45-.24a9.9,9.9,0,0,0,1.34-.8c.35-.19.7-.4,1.07-.57s.41-1,1.31.2C423.87,233.6,423.89,234.25,423.58,234.46Z"/>
      <path class="cls-1" d="M425.63,243.08c-.26.32-.43.75-.77.94-.5.27-1.13.36-1.66.59a19.16,19.16,0,0,0-2.31.92,10.8,10.8,0,0,0-1.69,1.51c-.35.33-.66.7-1,1-.68.54-1.39,1-2.08,1.57l-2.52,2-2.73,2.15c-.28.23-.54,1.19-1.26.42-1.08-1.07-.18-1.54.09-1.87a5.23,5.23,0,0,1,.87-.67c.7-.57,1.38-1.16,2.11-1.69s1.49-.93,2.18-1.46,1.28-1.19,1.94-1.75,1.35-1,2-1.54c.43-.36.7-.94,1.17-1.23s1.09-.23,1.56-.45a10.62,10.62,0,0,0,1.4-1c.37-.25.75-.5,1.14-.73s.48-.91,1.45,0A1.06,1.06,0,0,1,425.63,243.08Z"/>
      <path class="cls-1" d="M427.91,248.92c-.27.35-.32.94-.66,1.21-.51.38-1.19.57-1.74.92a25.5,25.5,0,0,0-2.42,1.33,10.85,10.85,0,0,0-1.62,1.94,13.72,13.72,0,0,1-1,1.25c-.69.67-1.43,1.29-2.15,1.93q-1.34,1.18-2.7,2.33l-3,2.46c-.31.25-.59,1.3-1.38.52-1.19-1.06-.22-1.63,0-2a5.56,5.56,0,0,1,.89-.81c.72-.69,1.4-1.41,2.14-2.07s1.55-1.16,2.25-1.81,1.26-1.46,1.92-2.16,1.35-1.26,2-1.94c.41-.46.59-1.17,1.07-1.56s1.28-.28,1.76-.58a9.75,9.75,0,0,0,1.38-1.33,12.13,12.13,0,0,1,1.13-1c.29-.26.24-1.21,1.61-.19A1.28,1.28,0,0,1,427.91,248.92Z"/>
      <path class="cls-1" d="M428.08,260.92c-.21.19-.28.59-.52.72a12.4,12.4,0,0,1-1.23.42,9.68,9.68,0,0,0-1.71.69,5.4,5.4,0,0,0-1.07,1.28c-.22.28-.38.61-.62.86l-1.35,1.33c-.55.55-1.07,1.13-1.6,1.7s-1.14,1.25-1.71,1.88c-.17.2,0,1.08-1,.35-1.53-1-.83-1.44-.71-1.75s.4-.39.58-.6c.46-.51.89-1,1.39-1.51s1.08-.79,1.55-1.25.82-1,1.27-1.51,1-.83,1.39-1.28c.3-.29.43-.79.8-1s.91-.1,1.26-.27a6.9,6.9,0,0,0,1-.81c.28-.19.56-.38.85-.56s.21-.89,1.16.11C428.17,260.11,428.3,260.71,428.08,260.92Z"/>
      <path class="cls-1" d="M431.74,273.83c-.36.29-.53.87-.95,1.05-.61.27-1.33.39-2,.63a23.25,23.25,0,0,0-2.76.89,11.27,11.27,0,0,0-2,1.67,15.62,15.62,0,0,1-1.25,1.11c-.83.57-1.7,1.08-2.56,1.61l-3.17,2q-1.74,1-3.51,2c-.36.2-.68,1.52-1.65,0-1.46-2.12-.26-2.33.09-2.68s.77-.35,1.14-.55c.91-.49,1.79-1,2.73-1.5s1.89-.74,2.76-1.24,1.6-1.21,2.42-1.77,1.66-1,2.44-1.53c.52-.37.84-1.06,1.42-1.34s1.35-.06,1.91-.28a12.83,12.83,0,0,0,1.69-1.08c.44-.27.88-.55,1.34-.79s.45-1.22,1.7.11C432,272.69,432.11,273.51,431.74,273.83Z"/>
    </g>
  </g>
</svg>
